<svg width="512" height="512" viewBox="0 0 512 512" fill="none" xmlns="http://www.w3.org/2000/svg">
<path fill-rule="evenodd" clip-rule="evenodd" d="M44 48C37.3726 48 32 53.3726 32 60V116C32 122.627 37.3726 128 44 128H468C474.627 128 480 122.627 480 116V60C480 53.3726 474.627 48 468 48H44ZM64 160V440C64 453.255 74.7452 464 88 464H424C437.255 464 448 453.255 448 440V160H64ZM256 390.63L169.32 304L192 281.32L240 329.37V208H272V329.37L320.07 281.3L342.68 303.94L256 390.63Z" fill="currentColor"/>
</svg>
