<svg width="20" height="16" viewBox="0 0 20 16" fill="none" xmlns="http://www.w3.org/2000/svg">
<path d="M17.6033 7.86598C17.5359 3.72183 14.1476 0.382818 9.9793 0.382818C7.65935 0.379969 5.46393 1.43523 4.01653 3.24927C3.80125 3.51909 3.84546 3.91234 4.11527 4.12762C4.38509 4.3429 4.77834 4.29869 4.99362 4.02888C6.2035 2.51252 8.03865 1.63044 9.97853 1.63282C13.5 1.63282 16.3543 4.48061 16.3543 7.99181V8.20636L15.6664 7.54836L15.6559 7.53856C15.406 7.31006 15.018 7.32202 14.7827 7.568C14.5441 7.81744 14.5529 8.21307 14.8024 8.45166L16.5992 10.1704L16.6098 10.1803C16.8558 10.4051 17.2364 10.3975 17.4732 10.1607L19.1919 8.44195L19.202 8.4317C19.436 8.18691 19.4326 7.79876 19.1919 7.55807L19.1817 7.54804C18.9369 7.31404 18.5487 7.31738 18.3081 7.55807L17.6043 8.26182V7.99181L17.6033 7.86598Z" fill="currentColor"/>
<path d="M4.33361 8.45166L3.625 7.77386V8.00626C3.625 11.5212 6.47716 14.3672 9.9991 14.3672C11.9344 14.3644 13.7653 13.4892 14.9829 11.9849C15.2001 11.7166 15.5937 11.6752 15.862 11.8923C16.1303 12.1095 16.1717 12.5031 15.9546 12.7714C14.5 14.5684 12.3128 15.6139 10 15.6172C5.82954 15.6172 2.44333 12.2799 2.37602 8.1322L2.375 8.00626V7.75887L1.69194 8.44195C1.45125 8.68264 1.0631 8.68598 0.818315 8.45198L0.808058 8.44195C0.567371 8.20127 0.564028 7.81311 0.79803 7.56833L0.808058 7.55807L2.52681 5.83932C2.76363 5.6025 3.14417 5.59493 3.39015 5.81969L3.40076 5.82961L5.19764 7.54836C5.44708 7.78695 5.45587 8.18259 5.21728 8.43202C4.982 8.678 4.59401 8.68997 4.34409 8.46146L4.33361 8.45166Z" fill="currentColor"/>
<path d="M12.9844 8.42478C13.0214 8.16363 13.0214 7.89856 12.9844 7.63741L13.8317 6.97504C13.8688 6.94471 13.894 6.90224 13.9028 6.85514C13.9116 6.80804 13.9035 6.75934 13.8799 6.71765L13.0764 5.32867C13.0586 5.29771 13.0328 5.27208 13.0018 5.25445C12.9707 5.23682 12.9355 5.22783 12.8998 5.2284C12.8765 5.22807 12.8534 5.2322 12.8316 5.24056L11.8333 5.64206C11.6258 5.48103 11.3976 5.34862 11.1549 5.24837L11.0021 4.18407C10.9954 4.13687 10.9718 4.09372 10.9356 4.06271C10.8994 4.03171 10.8531 4.01497 10.8054 4.01565H9.19944C9.15171 4.01487 9.10533 4.03155 9.06904 4.06257C9.03275 4.09358 9.00904 4.13679 9.00238 4.18407L8.84786 5.24793C8.60555 5.35028 8.3774 5.48332 8.16899 5.64379L7.17067 5.24229C7.14749 5.23426 7.12314 5.23015 7.09861 5.23014C7.06338 5.22992 7.02872 5.2391 6.9982 5.25672C6.96769 5.27434 6.94242 5.29978 6.92499 5.33041L6.12156 6.71938C6.09695 6.76082 6.08827 6.80979 6.09714 6.85716C6.106 6.90453 6.13181 6.94705 6.16973 6.97678L7.01701 7.63914C6.99941 7.76908 6.98985 7.89998 6.98836 8.0311C6.98949 8.16277 6.99876 8.29425 7.01614 8.42478L6.16887 9.08715C6.13177 9.11748 6.10658 9.15995 6.09777 9.20705C6.08895 9.25415 6.09707 9.30285 6.12069 9.34455L6.92412 10.7335C6.94194 10.7645 6.96772 10.7901 6.99879 10.8077C7.02985 10.8254 7.06507 10.8344 7.10078 10.8338C7.12407 10.8341 7.1472 10.83 7.16893 10.8216L8.16726 10.4201C8.37484 10.5813 8.60318 10.7137 8.84612 10.8138L9.00108 11.8786C9.00774 11.9258 9.03145 11.969 9.06774 12.0001C9.10403 12.0311 9.15041 12.0478 9.19814 12.047H10.8041C10.8518 12.0477 10.8981 12.0309 10.9343 11.9999C10.9705 11.9689 10.9941 11.9258 11.0008 11.8786L11.1536 10.8143C11.3956 10.7125 11.6236 10.5802 11.832 10.4206L12.8303 10.8221C12.8536 10.8301 12.8781 10.8342 12.9028 10.8342C12.938 10.8344 12.9727 10.8253 13.0032 10.8076C13.0337 10.79 13.059 10.7646 13.0764 10.734L13.8799 9.34498C13.9035 9.30329 13.9116 9.25459 13.9028 9.20749C13.894 9.16039 13.8688 9.11792 13.8317 9.08759L12.9844 8.42478ZM12.9453 9.30548L12.5747 9.94615L11.6558 9.57633L11.3636 9.79683C11.2081 9.91569 11.0384 10.0147 10.8584 10.0916L10.5133 10.2318L10.3701 11.2166H9.6322L9.4933 10.2318L9.14909 10.092C8.97178 10.0174 8.80452 9.92087 8.65123 9.80465L8.35 9.57633L7.42416 9.94962L7.05347 9.30939L7.83738 8.69694L7.79397 8.32929C7.78182 8.20255 7.774 8.11227 7.774 8.0311C7.774 7.94993 7.78182 7.85748 7.79354 7.73941L7.83955 7.36873L7.05521 6.75671L7.42589 6.11648L8.34479 6.48586L8.63691 6.26536C8.79242 6.14651 8.96214 6.0475 9.14215 5.97064L9.48939 5.83044L9.63306 4.84557H10.371L10.5103 5.83044L10.8541 5.9702C11.0315 6.04462 11.1989 6.14101 11.3524 6.25711L11.6493 6.48543L12.5751 6.11257L12.9453 6.75194L12.164 7.36873L12.2074 7.73637C12.2208 7.83405 12.2275 7.93252 12.2274 8.0311C12.2274 8.11487 12.2196 8.20472 12.2079 8.32278L12.1619 8.69303L12.9453 9.30548ZM9.99941 9.13533C9.78105 9.13516 9.56764 9.07025 9.38616 8.94881C9.20469 8.82737 9.06329 8.65486 8.97984 8.45307C8.8964 8.25128 8.87466 8.02928 8.91736 7.81514C8.96007 7.601 9.0653 7.40432 9.21977 7.24998C9.37423 7.09563 9.57099 6.99055 9.78517 6.94802C9.99934 6.90548 10.2213 6.9274 10.423 7.011C10.6248 7.0946 10.7972 7.23614 10.9185 7.41771C11.0398 7.59928 11.1045 7.81274 11.1045 8.0311C11.1036 8.32383 10.9868 8.60429 10.7798 8.8112C10.5727 9.01812 10.2921 9.13465 9.99941 9.13533Z" fill="currentColor"/>
</svg>
