<svg width="512" height="512" viewBox="0 0 512 512" fill="none" xmlns="http://www.w3.org/2000/svg">
<path fill-rule="evenodd" clip-rule="evenodd" d="M256 48C141.163 48 48 141.163 48 256C48 370.837 141.163 464 256 464C370.837 464 464 370.837 464 256C464 141.163 370.837 48 256 48ZM256 80C353.163 80 432 158.837 432 256C432 353.163 353.163 432 256 432C158.837 432 80 353.163 80 256C80 158.837 158.837 80 256 80ZM266.91 290.42V327.74C266.92 331.072 268.916 334.077 271.984 335.377C275.052 336.677 278.6 336.021 281 333.71L365.42 253.94C367.066 252.39 367.999 250.23 367.999 247.97C367.999 245.71 367.066 243.55 365.42 242L280.91 162.26C278.499 160.007 274.985 159.392 271.952 160.692C268.919 161.992 266.941 164.961 266.91 168.26V205.58C178.18 205.58 149.49 261.22 144.04 322.67C143.33 330.42 152.93 334.75 158.33 329.1C182.4 303.89 209.84 290.42 266.91 290.42Z" fill="currentColor"/>
</svg>
