<svg width="512" height="512" viewBox="0 0 512 512" fill="none" xmlns="http://www.w3.org/2000/svg">
<path fill-rule="evenodd" clip-rule="evenodd" d="M256.46 48.74C141.62 48.74 48.46 141.85 48.46 256.74C48.46 371.63 141.58 464.74 256.46 464.74C371.34 464.74 464.46 371.62 464.46 256.74C464.46 141.86 371.31 48.74 256.46 48.74ZM381.28 252C378.43 284.63 364.49 301.7 353.28 310.26C342.07 318.82 328.61 322.58 317 320.5C306.134 318.555 296.486 312.371 290.18 303.31C278.414 314.755 262.593 321.073 246.18 320.88C231.524 320.992 217.511 314.874 207.63 304.05C196.25 291.63 190.63 273.69 192.31 254.82C195.31 219.82 223.22 197.43 249.18 193.34C276.38 189.05 301.41 199.88 312.08 212.8L315.93 217.46L309.59 267.84C308.4 282.18 312.87 291.32 321.88 292.94C324.27 293.36 329.98 292.81 336.25 288.01C342.97 282.86 351.39 272.01 353.35 249.54C355.7 223 349 200.35 334.1 184.05C318.61 167.15 295.01 158.21 265.87 158.21C211.87 158.21 164.06 202.64 159.29 257.21C157.01 283.41 164.96 307.89 181.69 326.14C198.05 344 221 353.88 246.35 353.88C265.35 353.88 276.96 351.83 295.83 345.1C303.115 342.504 311.124 346.305 313.72 353.59C316.316 360.875 312.515 368.884 305.23 371.48C283.41 379.25 268.55 381.88 246.35 381.88C213.07 381.88 182.78 368.82 161.05 345.11C139 321 128.42 288.94 131.4 254.82C134.31 221.49 149.85 190.19 175.17 166.7C200.49 143.21 232.74 130.21 265.87 130.21C303.07 130.21 333.8 142.29 354.74 165.14C374.83 187.05 384.25 217.89 381.28 252ZM220.23 257.26C222.01 236.84 238.74 223.33 253.57 221C264.945 219.215 276.587 221.442 286.5 227.3L283.3 252.75C283.135 253.431 283.021 254.122 282.96 254.82C280.94 277.94 266.52 292.88 246.21 292.88C239.403 292.995 232.876 290.171 228.3 285.13C222.23 278.48 219.23 268.32 220.23 257.26Z" fill="currentColor"/>
</svg>
