<svg width="512" height="512" viewBox="0 0 512 512" fill="none" xmlns="http://www.w3.org/2000/svg">
<path fill-rule="evenodd" clip-rule="evenodd" d="M464.61 47.3901C423.889 6.8703 358.081 6.8703 317.36 47.3901L247.6 117.28C246.281 118.608 246.059 120.673 247.066 122.251C248.073 123.829 250.04 124.498 251.8 123.86C255.526 122.363 259.478 121.504 263.49 121.32C276.227 121.287 288.448 126.35 297.43 135.38L376.62 214.57C385.65 223.553 390.713 235.773 390.68 248.51C390.497 252.522 389.639 256.474 388.14 260.2C387.502 261.96 388.171 263.927 389.749 264.934C391.327 265.941 393.392 265.719 394.72 264.4L464.61 194.64C505.13 153.919 505.13 88.1108 464.61 47.3901ZM274.8 158C271.799 154.999 267.729 153.312 263.485 153.312C259.241 153.312 255.171 154.999 252.17 158L158.83 251.34C155.829 254.341 154.142 258.411 154.142 262.655C154.142 266.899 155.829 270.969 158.83 273.97L238.03 353.17C241.031 356.171 245.101 357.858 249.345 357.858C253.589 357.858 257.659 356.171 260.66 353.17L354 259.83C357.001 256.829 358.688 252.759 358.688 248.515C358.688 244.271 357.001 240.201 354 237.2L274.8 158ZM218.31 268.31C213.735 272.888 206.852 274.259 200.872 271.783C194.892 269.307 190.993 263.472 190.993 257C190.993 250.528 194.892 244.693 200.872 242.217C206.852 239.741 213.735 241.112 218.31 245.69C224.553 251.938 224.553 262.063 218.31 268.31ZM248.872 319.783C254.852 322.259 261.735 320.888 266.31 316.31C272.553 310.063 272.553 299.938 266.31 293.69C261.735 289.112 254.852 287.741 248.872 290.217C242.892 292.693 238.993 298.528 238.993 305C238.993 311.472 242.892 317.307 248.872 319.783ZM266.31 220.31C261.735 224.888 254.852 226.259 248.872 223.783C242.892 221.307 238.993 215.472 238.993 209C238.993 202.528 242.892 196.693 248.872 194.217C254.852 191.741 261.735 193.112 266.31 197.69C272.553 203.938 272.553 214.063 266.31 220.31ZM296.872 271.783C302.852 274.259 309.735 272.888 314.31 268.31C320.553 262.063 320.553 251.938 314.31 245.69C309.735 241.112 302.852 239.741 296.872 242.217C290.892 244.693 286.993 250.528 286.993 257C286.993 263.472 290.892 269.307 296.872 271.783ZM219.4 373.83C228.406 382.818 240.617 387.855 253.34 387.83C256.78 387.83 261 386.73 265.18 385.15C266.942 384.504 268.916 385.169 269.927 386.749C270.939 388.33 270.715 390.401 269.39 391.73L196.64 464.61C155.978 505.272 90.052 505.272 49.39 464.61C8.72806 423.948 8.72806 358.022 49.39 317.36L126.62 240.32C127.921 239.036 129.928 238.797 131.494 239.741C133.06 240.684 133.787 242.569 133.26 244.32C129.39 256.22 126.19 271.52 130.78 281.22C133.131 286.189 136.321 290.715 140.21 294.6L219.4 373.83Z" fill="currentColor"/>
</svg>
