<svg width="512" height="512" viewBox="0 0 512 512" fill="none" xmlns="http://www.w3.org/2000/svg">
<path fill-rule="evenodd" clip-rule="evenodd" d="M77.7 128H386.3C420.376 128 448 155.624 448 189.7V322.3C448 356.376 420.376 384 386.3 384H77.7C43.624 384 16 356.376 16 322.3V189.7C16 155.624 43.624 128 77.7 128ZM386.3 160H77.7C61.2971 160 48 173.297 48 189.7V322.3C48 338.703 61.2971 352 77.7 352H386.3C402.703 352 416 338.703 416 322.3V189.7C416 173.297 402.703 160 386.3 160ZM374.32 182.93H89.69C78.6443 182.93 69.69 191.884 69.69 202.93V309.07C69.69 320.116 78.6443 329.07 89.69 329.07H374.32C385.366 329.07 394.32 320.116 394.32 309.07V202.93C394.32 191.884 385.366 182.93 374.32 182.93ZM495.997 218.355C495.829 209.664 488.731 202.67 480 202.67C471.163 202.67 464 209.833 464 218.67V293.33L464.003 293.645C464.171 302.336 471.269 309.33 480 309.33C488.837 309.33 496 302.167 496 293.33V218.67L495.997 218.355Z" fill="currentColor"/>
</svg>
