<svg width="512" height="512" viewBox="0 0 512 512" fill="none" xmlns="http://www.w3.org/2000/svg">
<path fill-rule="evenodd" clip-rule="evenodd" d="M416 48C416 39.1634 408.837 32 400 32H112C103.163 32 96 39.1634 96 48V464C96 472.837 103.163 480 112 480H400C408.837 480 416 472.837 416 464V48ZM192 432H144V384H192V432ZM192 352H144V304H192V352ZM192 272H144V224H192V272ZM280 432H232V384H280V432ZM280 352H232V304H280V352ZM280 272H232V224H280V272ZM368 432H320V304H368V432ZM368 272H320V224H368V272ZM368 176H144V80H368V176Z" fill="currentColor"/>
</svg>
