<svg width="512" height="512" viewBox="0 0 512 512" fill="none" xmlns="http://www.w3.org/2000/svg">
<path fill-rule="evenodd" clip-rule="evenodd" d="M143.997 47.6851C143.829 38.9939 136.731 32 128 32C119.163 32 112 39.1634 112 48V64H96C60.6538 64 32 92.6538 32 128V416C32 451.346 60.6538 480 96 480H416C451.346 480 480 451.346 480 416V128C480 92.6538 451.346 64 416 64H400V48L399.997 47.6851C399.829 38.9939 392.731 32 384 32C375.163 32 368 39.1634 368 48V64H144V48L143.997 47.6851ZM448 208C448 192 432 176 416 176H96C80 176 64 192 64 208V416C64 433.673 78.3269 448 96 448H416C433.673 448 448 433.673 448 416V208Z" fill="currentColor"/>
</svg>
