<svg width="512" height="512" viewBox="0 0 512 512" fill="none" xmlns="http://www.w3.org/2000/svg">
<path fill-rule="evenodd" clip-rule="evenodd" d="M118.199 32.0832C115.162 32.3202 112.61 33.0341 109.691 34.2144L109.102 34.4567C108.355 34.7692 105.277 36.1467 103.992 36.6968L103.624 36.8522C93.7115 41.023 84.2016 46.0927 75.2136 51.9979C56.3559 64.5263 45.8373 75.4633 38.4176 91.3183C33.2227 102.419 31.578 117.193 34.2701 134.947C37.4189 155.714 46.3849 180.156 61.9626 208.456L63.9132 211.986C95.5997 269.096 118.976 299.845 165.821 346.56C210.717 391.33 246.393 417.634 304.023 449.955L305.947 451.027C336.297 467.836 360.651 476.813 380.618 479.303C397.245 481.377 409.499 479.101 421.515 473.504C437.452 466.08 448.449 455.584 460.909 436.866C466.609 428.226 471.509 419.154 475.582 409.708L476.437 407.707C477.071 406.256 478.236 403.663 478.521 402.984C479.85 399.823 480.65 397.142 480.908 393.908C481.411 387.626 479.48 382.086 475.593 376.531L475.2 375.977C472.657 372.451 469.12 368.552 463.369 362.743C448.283 347.543 412.367 324.252 386.97 311.342L381.165 308.427C375.965 305.837 373.41 304.65 370.387 303.416C364.566 301.04 359.607 299.809 354.366 299.804C348.637 299.798 343.358 301.296 337.888 304.172L337.2 304.54C333.872 306.349 330.481 308.621 325.616 312.195L323.488 313.773C321.385 315.352 317.042 318.67 316.771 318.874L315.574 319.77C313.928 320.99 312.627 321.903 311.443 322.663L311.171 322.836C306.926 325.519 304.542 326.086 300.817 325.292C295.138 324.081 284.687 319.265 273.146 312.077C259.447 303.544 245.478 292.562 233.095 280.218C220.69 267.852 209.435 253.663 200.612 239.721L199.896 238.582C192.814 227.224 188.061 217.06 186.913 211.712C186.141 208.114 186.687 205.828 189.32 201.665L189.826 200.883C190.591 199.725 191.514 198.431 192.748 196.777L193.922 195.218L196.608 191.684C197.493 190.514 198.222 189.539 198.954 188.542L199.79 187.398C208.392 175.543 211.73 168.533 211.714 158.756C211.706 153.877 210.688 149.161 208.715 143.692L208.281 142.516C206.845 138.704 205.185 134.974 201.487 127.023C190.783 104.059 165.922 66.1882 149.787 50.0468L149.3 49.5644C143.212 43.5506 139.213 39.9592 135.538 37.3936C129.992 33.5212 124.465 31.5943 118.199 32.0832ZM114.82 66.8653L116.958 65.9544L119.032 65.046L119.504 65.4477C121.118 66.8381 123.26 68.8404 126.083 71.6124L126.835 72.3531C139.956 85.2612 163.168 120.558 172.477 140.53L174.395 144.677C176.529 149.325 177.612 151.845 178.461 154.133L178.709 154.82C179.099 155.922 179.366 156.821 179.531 157.55C179.666 158.15 179.714 158.547 179.714 158.809L179.709 158.94C179.681 159.26 179.537 159.699 179.045 160.686L178.856 161.056C177.896 162.887 176.248 165.382 173.457 169.199L172.52 170.47C172.08 171.062 171.612 171.684 171.074 172.395L167.781 176.733L166.61 178.301C164.877 180.643 163.535 182.568 162.275 184.56C155.464 195.329 152.937 205.902 155.626 218.428C160.101 239.274 183.013 275.478 210.504 302.882C237.87 330.161 273.089 352.098 294.142 356.588C306.761 359.279 317.419 356.742 328.266 349.887C330.378 348.553 332.434 347.113 334.937 345.249L342.395 339.593L343.144 339.031C347.823 335.555 350.598 333.668 352.605 332.589L352.78 332.496C353.868 331.923 354.199 331.815 354.314 331.805L354.44 331.806C355.981 331.874 359.553 333.36 371.802 339.53C394.192 350.821 427.679 372.453 440.268 384.897L440.992 385.624L442.41 387.07C444.659 389.377 446.339 391.184 447.553 392.591L447.931 393.035L446.914 395.356L446.627 396.03C443.231 404.083 439.076 411.851 434.234 419.188C424.82 433.332 418.003 439.838 408.003 444.496C401.189 447.671 394.907 448.837 384.578 447.549L383.584 447.418C367.906 445.248 346.997 437.346 319.668 422.04C264.485 391.092 231.148 366.512 188.417 323.901C142.76 278.371 121.227 249.76 89.996 193.024C76.1289 167.833 68.4467 146.89 65.9085 130.15C64.1158 118.327 65.0543 109.896 67.401 104.882C72.0337 94.9822 78.5685 88.1874 92.8533 78.6969C99.7758 74.149 107.145 70.1773 114.82 66.8653Z" fill="currentColor"/>
</svg>
