<svg width="512" height="512" viewBox="0 0 512 512" fill="none" xmlns="http://www.w3.org/2000/svg">
<path fill-rule="evenodd" clip-rule="evenodd" d="M48 256C48 370.87 141.13 464 256 464C370.87 464 464 370.87 464 256C464 141.13 370.87 48 256 48C141.13 48 48 141.13 48 256ZM300 181.86V330.14C299.995 336.343 296.406 341.984 290.789 344.616C285.172 347.248 278.539 346.396 273.77 342.43L184.68 268.3C181.026 265.26 178.913 260.753 178.913 256C178.913 251.247 181.026 246.74 184.68 243.7L273.77 169.57C278.539 165.604 285.172 164.752 290.789 167.384C296.406 170.016 299.995 175.657 300 181.86Z" fill="currentColor"/>
</svg>
