<svg width="512" height="512" viewBox="0 0 512 512" fill="none" xmlns="http://www.w3.org/2000/svg">
<path fill-rule="evenodd" clip-rule="evenodd" d="M435.12 304H173.78L179.42 336H438V368H152.58L104.58 96H38V64H131.42L139.89 112H473.52L435.12 304ZM182 448C199.673 448 214 433.673 214 416C214 398.327 199.673 384 182 384C164.327 384 150 398.327 150 416C150 433.673 164.327 448 182 448ZM406 448C423.673 448 438 433.673 438 416C438 398.327 423.673 384 406 384C388.327 384 374 398.327 374 416C374 433.673 388.327 448 406 448Z" fill="currentColor"/>
</svg>
