<svg width="512" height="512" viewBox="0 0 512 512" fill="none" xmlns="http://www.w3.org/2000/svg">
<path fill-rule="evenodd" clip-rule="evenodd" d="M472 80H424C410.745 80 400 90.7452 400 104V408C400 421.255 410.745 432 424 432H472C485.255 432 496 421.255 496 408V104C496 90.7452 485.255 80 472 80ZM464 400H432V112H464V400ZM344 160H296C282.745 160 272 170.745 272 184V408C272 421.255 282.745 432 296 432H344C357.255 432 368 421.255 368 408V184C368 170.745 357.255 160 344 160ZM336 192V400H304V192H336ZM168 224H216C229.255 224 240 234.745 240 248V408C240 421.255 229.255 432 216 432H168C154.745 432 144 421.255 144 408V248C144 234.745 154.745 224 168 224ZM208 400V256H176V400H208ZM88 288H40C26.7452 288 16 298.745 16 312V408C16 421.255 26.7452 432 40 432H88C101.255 432 112 421.255 112 408V312C112 298.745 101.255 288 88 288ZM80 320V400H48V320H80Z" fill="currentColor"/>
</svg>
