<svg width="512" height="512" viewBox="0 0 512 512" fill="none" xmlns="http://www.w3.org/2000/svg">
<path fill-rule="evenodd" clip-rule="evenodd" d="M256 48C141.13 48 48 141.13 48 256C48 370.87 141.13 464 256 464C370.87 464 464 370.87 464 256C464 141.13 370.87 48 256 48ZM363.31 307.31C357.062 313.553 346.938 313.553 340.69 307.31L256 222.63L171.31 307.31C165.019 313.286 155.112 313.16 148.976 307.024C142.84 300.889 142.714 290.981 148.69 284.69L244.69 188.69C250.938 182.447 261.062 182.447 267.31 188.69L363.31 284.69C369.553 290.938 369.553 301.062 363.31 307.31Z" fill="currentColor"/>
</svg>
