<svg width="512" height="512" viewBox="0 0 512 512" fill="none" xmlns="http://www.w3.org/2000/svg">
<path fill-rule="evenodd" clip-rule="evenodd" d="M48 256C48 370.87 141.13 464 256 464C370.87 464 464 370.87 464 256C464 141.13 370.87 48 256 48C141.13 48 48 141.13 48 256ZM305.37 256L220.69 171.31C214.714 165.019 214.84 155.112 220.976 148.976C227.111 142.84 237.019 142.714 243.31 148.69L339.31 244.69C345.553 250.938 345.553 261.062 339.31 267.31L243.31 363.31C237.019 369.286 227.111 369.16 220.976 363.024C214.84 356.888 214.714 346.981 220.69 340.69L305.37 256Z" fill="currentColor"/>
</svg>
