<svg width="512" height="512" viewBox="0 0 512 512" fill="none" xmlns="http://www.w3.org/2000/svg">
<path d="M353.933 288.557C343.309 288.557 333.702 292.538 326.876 299.774C320.049 307.01 316.639 317.015 317.409 327.753C318.972 348.9 335.356 366.141 353.933 366.141C372.51 366.141 388.862 348.9 390.457 327.758C391.255 317.123 387.871 307.209 380.932 299.839C374.078 292.565 364.488 288.557 353.933 288.557Z" fill="currentColor"/>
<path fill-rule="evenodd" clip-rule="evenodd" d="M153.428 56.8554C153.163 57.0081 152.903 57.1699 152.648 57.3405L59.4125 119.899L59.1212 120.068C51.018 124.817 46 133.524 46 142.973V388.405C46 397.718 50.8788 406.35 58.8579 411.154C66.8374 415.957 76.7502 416.228 84.9803 411.868L85.3321 411.675C85.5646 411.543 85.7931 411.403 86.0173 411.257L166.584 358.717L166.738 358.644C170.231 357.011 174.265 356.978 177.784 358.554L177.852 358.585L262.875 414.071C282.972 442.034 315.593 460.455 352.371 460.966C415.408 461.828 466.851 410.375 465.989 347.348C465.476 309.958 446.454 276.867 417.715 256.86V87.3319C417.715 78.0188 412.837 69.3862 404.857 64.5831C396.878 59.7798 386.965 59.5086 378.735 63.8686L378.385 64.061C378.153 64.1928 377.925 64.3316 377.702 64.4772L296.988 117.072L296.827 117.15C293.376 118.757 289.398 118.805 285.91 117.281L285.826 117.243L191.494 56.8913C191.099 56.6388 190.691 56.4073 190.272 56.1978C178.767 50.4508 165.195 50.613 153.831 56.6334L153.428 56.8554ZM391.164 243.211V87.395L310.885 139.708C310.66 139.855 310.43 139.995 310.197 140.127L309.844 140.321C308.227 141.176 306.566 141.912 304.873 142.53L306.544 247.35C321.387 240.394 337.995 236.597 355.496 236.834C367.973 237.007 379.971 239.242 391.164 243.211ZM278.322 266.254V142.795C276.667 142.228 275.04 141.548 273.452 140.757C273.03 140.546 272.619 140.313 272.221 140.059L185.393 84.5079V333.037C187.107 333.63 188.79 334.345 190.429 335.179C190.852 335.395 191.264 335.633 191.661 335.892L244.316 372.246C242.81 365.202 241.971 357.918 241.867 350.462C241.417 317.158 255.572 287.085 278.322 266.254ZM73.7333 142.265L158.842 85.158V333.208C157.094 333.838 155.381 334.595 153.714 335.478L153.362 335.671C153.13 335.804 152.902 335.943 152.678 336.089L72.5511 388.34V142.972L72.9533 142.75C73.2187 142.597 73.4789 142.435 73.7333 142.265ZM421.914 413.839C422.553 413.872 423.174 413.619 423.608 413.15C439.793 395.671 448.777 372.722 448.759 348.9C448.759 296.536 406.152 253.945 353.702 254.075C301.251 254.204 258.23 298.088 259.108 350.516C259.493 373.777 268.449 396.078 284.258 413.144C284.693 413.614 285.314 413.866 285.953 413.833C286.592 413.8 287.183 413.484 287.566 412.972C292.386 406.668 298.287 401.272 304.996 397.035C318.713 388.231 336.094 383.382 353.933 383.382C371.772 383.382 389.153 388.231 402.871 397.035C409.579 401.274 415.481 406.672 420.3 412.977C420.684 413.49 421.275 413.805 421.914 413.839Z" fill="currentColor"/>
</svg>
