<svg width="512" height="512" viewBox="0 0 512 512" fill="none" xmlns="http://www.w3.org/2000/svg">
<path fill-rule="evenodd" clip-rule="evenodd" d="M256 48C141.13 48 48 141.13 48 256C48 370.87 141.13 464 256 464C370.87 464 464 370.87 464 256C464 141.13 370.87 48 256 48ZM326 328H193.05C161.52 328 135.49 302.42 136.05 270.89C136.58 239.15 159.73 220.94 187.4 216.59C190.2 216.146 192.55 214.239 193.56 211.59C202.07 189.22 223.63 168 256 168C289.17 168 317.85 190.49 326.14 228.21C327.604 234.839 332.72 240.052 339.32 241.64C357.79 246.05 376 259.21 376 284C376 314.28 353.5 328 326 328Z" fill="currentColor"/>
</svg>
