<svg width="512" height="512" viewBox="0 0 512 512" fill="none" xmlns="http://www.w3.org/2000/svg">
<path fill-rule="evenodd" clip-rule="evenodd" d="M396 432H136C99.56 432 65.64 419.43 40.49 396.59C14.38 372.88 0 340 0 304C0 267.42 13.39 235.88 38.72 212.78C58.65 194.59 85.84 182.22 116.1 177.41C125.557 152.726 141.114 130.842 161.32 113.8C187.76 91.69 220.5 80 256 80C295.933 79.8262 334.363 95.214 363.14 122.9C390.2 148.96 407.73 184.18 414.25 225.36C463.56 232.66 512 266.15 512 328C512 361.39 499.76 388.78 476.59 407.23C456.23 423.43 428.37 432 396 432Z" fill="currentColor"/>
</svg>
