<svg width="512" height="512" viewBox="0 0 512 512" fill="none" xmlns="http://www.w3.org/2000/svg">
<path fill-rule="evenodd" clip-rule="evenodd" d="M464 249.93C463.721 244.777 459.766 240.577 454.64 239.99L429 235.84C426.631 235.451 424.8 233.551 424.5 231.17C424.01 228.02 423.5 224.75 422.8 221.65C422.338 219.338 423.394 216.988 425.43 215.8L448.21 203.15C452.892 200.763 455.043 195.246 453.21 190.32L449.26 179.42C447.466 174.476 442.241 171.672 437.13 172.91L411.58 177.91C409.236 178.332 406.887 177.198 405.76 175.1C404.27 172.31 402.65 169.47 400.96 166.68C399.702 164.642 399.878 162.03 401.4 160.18L418.4 140.55C421.969 136.709 422.136 130.817 418.79 126.78L411.37 117.87C408.026 113.819 402.16 112.955 397.79 115.87L375.42 129.3C373.384 130.52 370.789 130.264 369.03 128.67C366.56 126.5 364.08 124.41 361.66 122.48C359.793 121.007 359.097 118.494 359.94 116.27L369.2 91.87C371.287 87.0508 369.435 81.4321 364.89 78.8L354.81 72.95C350.258 70.3254 344.46 71.5444 341.35 75.78L325 96.28C323.792 98.1282 321.437 98.8515 319.4 98C318.78 97.75 313.63 95.64 309.62 94.3C307.362 93.5642 305.846 91.4444 305.88 89.07L306.27 63C306.558 57.7335 302.887 53.0734 297.7 52.12L286.25 50.12C281.09 49.2286 276.067 52.2937 274.5 57.29L266 82.1C265.218 84.3692 263.038 85.8542 260.64 85.75H250.89C248.519 85.7894 246.387 84.313 245.59 82.08L237.13 57.41C235.59 52.3757 230.549 49.2704 225.36 50.16L213.9 52.16C208.743 53.1011 205.079 57.714 205.33 62.95L205.73 89.11C205.746 91.5212 204.176 93.6565 201.87 94.36C199.59 95.25 194.61 97.14 192.36 97.99C190.36 98.71 188.17 97.92 186.36 95.89L170.1 75.89C167.015 71.6571 161.245 70.4135 156.69 73L146.63 78.83C142.033 81.4685 140.169 87.1512 142.31 92L151.56 116.34C152.387 118.566 151.703 121.072 149.86 122.57C147.43 124.57 144.94 126.57 142.46 128.79C140.712 130.371 138.138 130.631 136.11 129.43L114 115.74C109.608 112.878 103.773 113.736 100.39 117.74L92.9899 126.64C89.5896 130.651 89.749 136.577 93.3599 140.4L110.45 160C112.006 161.815 112.189 164.436 110.9 166.45C109.19 169.17 107.56 172.03 106.08 174.89C104.944 177.001 102.578 178.139 100.22 177.71L74.7099 172.78C69.5965 171.546 64.3716 174.348 62.5699 179.29L58.5699 190.17C56.7352 195.102 58.8846 200.625 63.5699 203.02L86.3499 215.67C88.4546 216.832 89.5356 219.246 88.9999 221.59L88.7699 222.83C88.2399 225.63 87.7699 228.28 87.2999 231.1C86.9737 233.449 85.1739 235.321 82.8399 235.74L57.1399 239.89C51.9467 240.533 48.0356 244.927 47.9999 250.16V261.74C47.9696 267.003 51.9269 271.436 57.1599 272L82.8399 276.14C85.2101 276.525 87.0426 278.427 87.3399 280.81C87.8299 283.97 88.3399 287.23 89.0399 290.33C89.5023 292.642 88.4458 294.992 86.4099 296.18L63.6399 308.85C58.9575 311.237 56.8073 316.754 58.6399 321.68L62.6399 332.58C64.4375 337.521 69.6591 340.323 74.7699 339.09L100.32 334.14C102.664 333.718 105.013 334.852 106.14 336.95C107.64 339.75 109.26 342.59 110.94 345.37C112.205 347.406 112.027 350.023 110.5 351.87L93.4999 371.51C89.8906 375.316 89.6763 381.212 92.9999 385.27L100.41 394.18C103.754 398.231 109.62 399.095 113.99 396.18L136.36 382.75C138.396 381.53 140.991 381.786 142.75 383.38C145.23 385.55 147.75 387.64 150.12 389.57C151.987 391.043 152.683 393.556 151.84 395.78L142.58 420.18C140.493 424.999 142.345 430.618 146.89 433.25L157 439.09C161.547 441.715 167.341 440.501 170.45 436.27L187 415.92C188.39 414.19 190.6 413.42 192.24 414.08C195.71 415.52 198.04 416.33 202.17 417.71C204.428 418.448 205.946 420.565 205.92 422.94L205.52 448.99C205.241 454.254 208.907 458.908 214.09 459.87L225.54 461.87C230.701 462.766 235.727 459.699 237.29 454.7L245.79 429.93C246.588 427.673 248.758 426.195 251.15 426.28H260.9C263.272 426.237 265.405 427.715 266.2 429.95L274.67 454.62C276.017 459.016 280.072 462.021 284.67 462.03C285.267 462.031 285.863 461.978 286.45 461.87L297.92 459.87C303.073 458.924 306.731 454.313 306.48 449.08L306.08 422.92C306.064 420.555 307.581 418.452 309.83 417.72C313.67 416.43 316.36 415.39 318.74 414.48L319.34 414.24C322.4 413.18 323.87 414.38 324.81 415.55L341.56 436.18C344.668 440.405 350.455 441.619 355 439L365.07 433.17C369.63 430.536 371.485 424.897 369.38 420.07L360.14 395.73C359.304 393.506 359.985 390.997 361.83 389.5C364.26 387.5 366.75 385.5 369.23 383.28C370.989 381.694 373.578 381.442 375.61 382.66L398 396.06C402.392 398.922 408.227 398.064 411.61 394.06L419.01 385.16C422.409 381.152 422.249 375.229 418.64 371.41L401.58 351.74C400.024 349.925 399.841 347.304 401.13 345.29C402.84 342.58 404.47 339.72 405.95 336.85C407.093 334.747 409.453 333.611 411.81 334.03L437.29 339C442.403 340.234 447.628 337.432 449.43 332.49L453.38 321.61C455.214 316.681 453.064 311.161 448.38 308.77L425.58 296.1C423.506 294.927 422.445 292.534 422.97 290.21L423.2 288.96C423.73 286.16 424.2 283.52 424.67 280.7C424.996 278.351 426.796 276.479 429.13 276.06L454.83 271.92C460.037 271.286 463.963 266.885 464 261.64V249.93ZM171.59 361.27C139.628 335.551 121.082 296.704 121.18 255.68C121.277 214.656 140.007 175.897 172.09 150.33L232.09 255.94L171.59 361.27ZM256 391.11C239.415 391.126 222.972 388.057 207.51 382.06L268 276.79H389.22C379.21 341.45 323.29 391.11 256 391.11ZM268.06 235.21L208.11 129.71C223.4 123.867 239.632 120.877 256 120.89C323.29 120.89 379.21 170.55 389.22 235.21H268.06Z" fill="currentColor"/>
</svg>
