<svg width="513" height="512" viewBox="0 0 513 512" fill="none" xmlns="http://www.w3.org/2000/svg">
<path fill-rule="evenodd" clip-rule="evenodd" d="M111.55 199.22C115 202.67 119 207.13 119 212C119 216.86 115 221.56 111.56 225L74.5002 262C71.8763 264.622 67.6241 264.622 65.0002 262L2.00019 199.22C-0.649801 196.569 -0.649801 192.271 2.00019 189.62L39.0002 152.73C42.4107 149.288 47.0649 147.367 51.9102 147.4C55.7822 147.404 59.5543 148.629 62.6902 150.9C62.6202 150.57 62.6202 150.22 62.6202 149.9C62.2302 144.4 61.6502 136.09 67.0002 128.56C73.3619 119.958 80.3438 111.833 87.8902 104.25L87.9602 104.18C99.1902 93.08 123.63 72.17 161.07 56.83C175.273 50.9897 190.484 47.9931 205.84 48.01C232.43 48.01 252.65 60.06 260.43 67.21C262.31 68.94 264.03 70.65 265.62 72.31C270.813 77.6233 275.315 83.5702 279.02 90.01L267.02 109.01C263.474 107.365 259.794 106.027 256.02 105.01C254.93 104.75 252.1 104.11 248.63 103.61C244.794 102.983 240.9 102.781 237.02 103.01C225.9 103.93 213.86 107.39 208.02 112.01C198.16 120.01 189.6 132.54 194.02 148.01C196.02 155.01 202.02 165.78 225.02 190.46C229.274 186.273 236.109 186.3 240.33 190.52L248.58 198.36L182.92 263.53L175.49 255.67C171.291 251.437 171.229 244.629 175.35 240.32C171.901 237.124 166.778 232.281 161.229 227.035C148.602 215.097 133.768 201.072 131.42 199.62C124.93 195.61 120.29 194.84 119.02 194.71C115.717 194.383 112.393 195.081 109.5 196.71C109.473 197.001 109.567 197.291 109.76 197.51L111.3 198.98L111.55 199.22ZM497.14 111.38L416.05 192.22L367.47 143.81L448.56 63C403.34 41 339.91 40.91 302.36 78.35C267.04 113.55 262.63 168.96 279.82 212.55L99.5702 391.37C97.3107 393.622 96.0407 396.68 96.0407 399.87C96.0407 403.06 97.3107 406.118 99.5702 408.37L151.84 460.48C154.092 462.739 157.15 464.009 160.34 464.009C163.53 464.009 166.589 462.739 168.84 460.48L348.84 279.98C392 296.19 446.84 291.62 481.58 256.98C519.08 219.53 519 156.64 497.14 111.38ZM365.45 308.62L293.62 380.62L369.15 460.54C371.172 462.69 373.98 463.926 376.931 463.966C379.881 464.006 382.722 462.845 384.8 460.75L444.8 400.29C446.873 398.19 448.015 395.345 447.97 392.395C447.925 389.444 446.696 386.636 444.56 384.6L365.45 308.62Z" fill="currentColor"/>
</svg>
