<svg width="512" height="512" viewBox="0 0 512 512" fill="none" xmlns="http://www.w3.org/2000/svg">
<path fill-rule="evenodd" clip-rule="evenodd" d="M414.39 97.61C357.896 40.5575 275.188 18.1048 197.6 38.7581C120.011 59.4114 59.4112 120.012 38.7579 197.6C18.1045 275.188 40.5572 357.896 97.6097 414.39C154.103 471.443 236.811 493.895 314.4 473.242C391.988 452.589 452.588 391.988 473.242 314.4C493.895 236.812 471.442 154.104 414.39 97.61ZM256 368C194.144 368 144 317.856 144 256C144 194.144 194.144 144 256 144C317.856 144 368 194.144 368 256C367.934 317.828 317.828 367.934 256 368ZM256 176C211.817 176 176 211.817 176 256C176 300.183 211.817 336 256 336C300.183 336 336 300.183 336 256C335.95 211.838 300.162 176.05 256 176ZM256 288C238.327 288 224 273.673 224 256C224 238.327 238.327 224 256 224C273.673 224 288 238.327 288 256C288 273.673 273.673 288 256 288Z" fill="currentColor"/>
</svg>
