<svg width="512" height="512" viewBox="0 0 512 512" fill="none" xmlns="http://www.w3.org/2000/svg">
<path fill-rule="evenodd" clip-rule="evenodd" d="M242.75 32H144C108.654 32 80 60.6538 80 96V416C80 451.346 108.654 480 144 480H368C403.346 480 432 451.346 432 416V221.25C432 208.524 426.944 196.318 417.945 187.318L276.684 46.0563C267.682 37.0565 255.476 32 242.75 32ZM240 64H144C126.327 64 112 78.3269 112 96V416C112 433.673 126.327 448 144 448H368C385.673 448 400 433.673 400 416V224H288C261.755 224 240.43 202.937 240.006 176.794L240 176V64ZM377.373 192L272 86.6274V176C272 184.731 278.994 191.829 287.685 191.997L288 192H377.373Z" fill="currentColor"/>
</svg>
