<svg width="512" height="512" viewBox="0 0 512 512" fill="none" xmlns="http://www.w3.org/2000/svg">
<path d="M24.9062 76.4492C27.1719 67.9531 29.4375 59.457 34.4219 51.8671C47.3359 32.2695 71.6914 22.0742 94.5742 27.0585C118.137 32.1562 136.488 51.5273 139.66 74.9765C140 77.6953 140.906 78.8281 143.738 79.2812C156.426 81.207 169 83.4726 181.574 85.5117C183.727 85.8515 185.312 86.0781 184.746 89.0234C183.387 96.3867 182.141 103.863 181.008 111.34C180.668 113.945 179.762 114.738 176.93 114.285C164.355 112.019 151.668 110.094 139.094 107.828C136.262 107.262 135.129 108.168 133.996 110.547C128.105 121.875 119.383 130.371 107.828 135.809C104.996 137.168 104.09 138.527 104.543 141.586C107.828 166.508 110.887 191.543 113.945 216.465C117.684 246.598 121.535 276.844 125.273 307.09C127.992 328.5 130.711 349.797 133.203 371.207C133.543 373.812 134.789 374.379 136.828 374.719C153.254 377.891 165.941 386.613 174.777 400.66C176.363 403.266 178.176 402.586 180.102 402.02C214.766 392.844 249.316 383.781 283.98 374.605C302.445 369.734 320.91 364.75 339.488 359.992C342.434 359.312 343.227 358.066 343.34 355.234C344.926 329.406 363.504 307.77 389.105 302.672C393.297 301.766 394.43 300.18 394.996 296.102C399.074 263.477 403.492 230.965 407.91 198.453C408.25 196.187 407.797 195.055 405.645 193.922C387.18 184.859 376.191 170.019 373.133 149.629C372.68 146.684 370.867 146.57 368.715 146.23C354.555 143.852 340.508 141.359 326.348 139.207C323.402 138.754 322.949 137.621 323.402 135.016C324.762 127.766 325.895 120.516 327.141 113.152C327.48 110.887 328.16 109.98 330.992 110.434C345.039 112.926 359.199 115.078 373.246 117.684C376.418 118.25 377.777 117.344 379.137 114.738C391.031 92.6484 414.367 81.0937 439.402 84.832C462.285 88.2304 481.543 106.695 486.641 130.144C493.211 160.391 473.273 191.203 442.688 197.773C438.949 198.566 436.684 199.359 436.117 204.23C432.152 236.516 427.848 268.801 423.316 300.973C422.75 304.711 423.996 305.844 426.941 307.316C448.805 318.984 459.68 337.336 458.887 362.145C458.094 386.387 440.422 407.797 416.52 414.367C392.73 420.824 366.789 411.309 353.535 390.805C351.383 387.519 349.457 387.066 346.059 387.973C293.836 401.793 241.613 415.613 189.391 429.207C185.766 430.113 184.18 431.473 183.84 435.551C181.574 462.852 161.977 483.582 134.789 488.113C134.109 488.227 133.43 488.566 132.637 488.793C128.105 488.793 123.574 488.793 119.043 488.793C118.363 488.566 117.684 488.113 117.004 488C90.4961 483.242 72.4844 464.098 68.6328 436.57C65.4609 413.801 79.2812 389.332 101.598 378.797C104.43 377.437 104.883 375.965 104.543 373.246C102.844 360.105 101.258 346.965 99.5586 333.824C95.4805 301.199 91.4023 268.687 87.3242 236.062C83.5859 205.93 79.7344 175.684 76.1094 145.437C75.6562 141.586 74.1836 140.34 70.5586 139.547C54.0195 136.148 41.6719 126.859 32.8359 112.473C28.5312 105.223 26.832 97.1796 24.9062 89.1367C24.9062 84.9453 24.9062 80.6406 24.9062 76.4492ZM400.887 329.746C385.141 329.859 372.227 342.887 372.227 358.633C372.227 374.492 385.594 387.746 401.34 387.633C416.973 387.52 430 374.379 430.113 358.746C430.113 342.773 416.746 329.633 400.887 329.746ZM111.68 83.6992C111.68 67.9531 98.6523 55.039 82.9062 54.8124C67.1602 54.6992 53.793 68.0664 53.793 83.8124C54.0195 99.4453 67.0469 112.586 82.6797 112.586C98.5391 112.699 111.793 99.5585 111.68 83.6992ZM430.227 170.473C445.973 170.359 458.887 157.332 459 141.699C459.113 125.84 445.746 112.586 429.887 112.699C414.141 112.812 401.227 125.84 401.113 141.586C401.113 157.445 414.367 170.586 430.227 170.473ZM155.18 431.133C155.293 415.387 142.492 402.359 126.746 402.02C110.887 401.793 97.5195 414.707 97.4062 430.68C97.1797 446.426 110.547 459.793 126.293 459.793C141.926 459.906 154.953 446.879 155.18 431.133Z" fill="currentColor"/>
<path d="M266.422 126.746C267.781 118.703 269.027 110.773 270.273 102.957C270.613 101.031 271.633 100.578 273.445 100.805C281.261 102.164 289.191 103.41 297.008 104.656C299.16 104.996 299.16 106.355 298.82 107.941C297.574 115.531 296.215 123.008 295.082 130.598C294.742 132.863 293.722 133.543 291.457 133.09C284.094 131.73 276.617 130.598 269.254 129.352C267.668 129.238 265.742 129.012 266.422 126.746Z" fill="currentColor"/>
<path d="M235.27 123.801C227.113 122.441 219.41 121.082 211.707 119.949C209.441 119.609 208.988 118.59 209.328 116.664C210.687 108.848 211.934 100.918 213.18 93.1015C213.52 91.289 214.426 91.0624 216.012 91.289C223.828 92.6484 231.645 94.0077 239.574 95.2538C241.5 95.5937 242.18 96.1601 241.84 98.1991C240.48 105.902 239.121 113.605 237.875 121.309C237.535 123.008 237.309 124.707 235.27 123.801Z" fill="currentColor"/>
</svg>
