<svg width="512" height="512" viewBox="0 0 512 512" fill="none" xmlns="http://www.w3.org/2000/svg">
<path fill-rule="evenodd" clip-rule="evenodd" d="M304 96C304 122.51 282.51 144 256 144C229.49 144 208 122.51 208 96C208 69.4903 229.49 48 256 48C282.51 48 304 69.4903 304 96ZM256 304C282.51 304 304 282.51 304 256C304 229.49 282.51 208 256 208C229.49 208 208 229.49 208 256C208 282.51 229.49 304 256 304ZM256 464C282.51 464 304 442.51 304 416C304 389.49 282.51 368 256 368C229.49 368 208 389.49 208 416C208 442.51 229.49 464 256 464Z" fill="currentColor"/>
</svg>
