<svg width="512" height="512" viewBox="0 0 512 512" fill="none" xmlns="http://www.w3.org/2000/svg">
<path fill-rule="evenodd" clip-rule="evenodd" d="M256 48C141.163 48 48 141.163 48 256C48 370.837 141.163 464 256 464C370.837 464 464 370.837 464 256C464 141.163 370.837 48 256 48ZM256 80C353.163 80 432 158.837 432 256C432 353.163 353.163 432 256 432C158.837 432 80 353.163 80 256C80 158.837 158.837 80 256 80ZM166 282C180.359 282 192 270.359 192 256C192 241.641 180.359 230 166 230C151.641 230 140 241.641 140 256C140 270.359 151.641 282 166 282ZM282 256C282 270.359 270.359 282 256 282C241.641 282 230 270.359 230 256C230 241.641 241.641 230 256 230C270.359 230 282 241.641 282 256ZM372 256C372 270.359 360.359 282 346 282C331.641 282 320 270.359 320 256C320 241.641 331.641 230 346 230C360.359 230 372 241.641 372 256Z" fill="currentColor"/>
</svg>
