<svg width="512" height="512" viewBox="0 0 512 512" fill="none" xmlns="http://www.w3.org/2000/svg">
<path fill-rule="evenodd" clip-rule="evenodd" d="M256 48C141.13 48 48 141.13 48 256C48 370.87 141.13 464 256 464C370.87 464 464 370.87 464 256C464 141.13 370.87 48 256 48ZM166 282C151.641 282 140 270.359 140 256C140 241.641 151.641 230 166 230C180.359 230 192 241.641 192 256C192 270.359 180.359 282 166 282ZM256 282C241.641 282 230 270.359 230 256C230 241.641 241.641 230 256 230C270.359 230 282 241.641 282 256C282 270.359 270.359 282 256 282ZM346 282C331.641 282 320 270.359 320 256C320 241.641 331.641 230 346 230C360.359 230 372 241.641 372 256C372 270.359 360.359 282 346 282Z" fill="currentColor"/>
</svg>
