<svg width="512" height="512" viewBox="0 0 512 512" fill="none" xmlns="http://www.w3.org/2000/svg">
<path fill-rule="evenodd" clip-rule="evenodd" d="M480 224H380C365.428 167.458 314.439 127.944 256.05 127.944C197.661 127.944 146.672 167.458 132.1 224H32V288H132.05C146.587 344.589 197.598 384.153 256.025 384.153C314.452 384.153 365.463 344.589 380 288H480V224ZM256 320C220.654 320 192 291.346 192 256C192 220.654 220.654 192 256 192C291.346 192 320 220.654 320 256C319.961 291.33 291.33 319.961 256 320Z" fill="currentColor"/>
</svg>
