<svg width="512" height="512" viewBox="0 0 512 512" fill="none" xmlns="http://www.w3.org/2000/svg">
<path fill-rule="evenodd" clip-rule="evenodd" d="M456 64H56C42.7452 64 32 74.7452 32 88V424C32 437.255 42.7452 448 56 448H456C469.255 448 480 437.255 480 424V88C480 74.7452 469.255 64 456 64ZM331.62 128.2C351.751 126.355 370.88 137.321 379.461 155.625C388.042 173.928 384.235 195.647 369.941 209.941C355.647 224.235 333.928 228.042 315.625 219.461C297.321 210.88 286.355 191.751 288.2 171.62C290.312 148.571 308.571 130.312 331.62 128.2ZM76 416C69.3726 416 64 410.627 64 404V316.37L192.64 202L289.59 298.75L172.37 416H76ZM448 404C448 410.627 442.627 416 436 416H217.63L367.16 266.47L448 333.84V404Z" fill="currentColor"/>
</svg>
