<svg width="512" height="513" viewBox="0 0 512 513" fill="none" xmlns="http://www.w3.org/2000/svg">
<path d="M302.935 235.232L384.001 341.898H128.001L192.001 258.698L236.801 316.298L298.668 235.232H302.935ZM181.335 235.232C198.401 235.232 213.335 220.298 213.335 203.232C213.335 186.165 198.401 171.232 181.335 171.232C164.268 171.232 149.335 186.165 149.335 203.232C149.335 220.298 164.268 235.232 181.335 235.232ZM469.335 128.565V384.565C469.335 408.032 450.135 427.232 426.668 427.232H85.3346C61.868 427.232 42.668 408.032 42.668 384.565V128.565C42.668 105.098 61.868 85.8984 85.3346 85.8984H426.668C450.135 85.8984 469.335 105.098 469.335 128.565ZM426.668 188.298V128.565H85.3346V384.565H426.668V188.298Z" fill="currentColor"/>
</svg>
