<svg width="512" height="512" viewBox="0 0 512 512" fill="none" xmlns="http://www.w3.org/2000/svg">
<path d="M272 188H311V156L201 156V188H240V326H201V358H311V326H272V188Z" fill="currentColor"/>
<path fill-rule="evenodd" clip-rule="evenodd" d="M48 102C48 72.1766 72.1766 48 102 48H410C439.823 48 464 72.1766 464 102V409C464 438.823 439.823 463 410 463H102C72.1766 463 48 438.823 48 409V102ZM102 80H410C422.15 80 432 89.8497 432 102V409C432 421.15 422.15 431 410 431H102C89.8497 431 80 421.15 80 409V102C80 89.8497 89.8497 80 102 80Z" fill="currentColor"/>
</svg>
