<svg width="512" height="512" viewBox="0 0 512 512" fill="none" xmlns="http://www.w3.org/2000/svg">
<path fill-rule="evenodd" clip-rule="evenodd" d="M89.7013 280H32V232H89.7013C100.226 158.423 158.423 100.226 232 89.7013V32H280V89.7013C353.577 100.226 411.774 158.423 422.299 232H480V280H422.299C411.774 353.577 353.577 411.774 280 422.299V480H232V422.299C158.423 411.774 100.226 353.577 89.7013 280ZM256 136C322.274 136 376 189.726 376 256C376 322.274 322.274 376 256 376C189.726 376 136 322.274 136 256C136 189.726 189.726 136 256 136Z" fill="currentColor"/>
</svg>
