<svg width="512" height="512" viewBox="0 0 512 512" fill="none" xmlns="http://www.w3.org/2000/svg">
<path fill-rule="evenodd" clip-rule="evenodd" d="M368 192H352V112C352 58.9807 309.019 16 256 16C202.981 16 160 58.9807 160 112V192H144C108.67 192.039 80.0386 220.67 80 256V432C80.0386 467.33 108.67 495.961 144 496H368C403.33 495.961 431.961 467.33 432 432V256C431.961 220.67 403.33 192.039 368 192ZM320 192H192V112C192 76.6538 220.654 48 256 48C291.346 48 320 76.6538 320 112V192Z" fill="currentColor"/>
</svg>
