<svg width="512" height="512" viewBox="0 0 512 512" fill="none" xmlns="http://www.w3.org/2000/svg">
<path d="M274.331 36.8501L429.761 130.07C441.149 137.051 448.065 149.473 448.001 162.83V349C448.058 362.374 441.147 374.814 429.761 381.83L274.331 474.96C268.934 478.183 262.785 479.931 256.501 480.03H255.921C249.474 480.025 243.15 478.273 237.621 474.96L185.721 443.09C182.501 441.22 178.881 438.54 179.211 434.77C179.541 431 183.351 429.59 184.971 429C194.911 425.38 197.791 423.73 208.511 417.38L208.851 417.18C211.345 415.9 214.334 416.056 216.681 417.59L255.511 440.65C255.77 440.74 256.051 440.74 256.311 440.65L408.371 350C408.663 349.751 408.828 349.384 408.821 349V165.5C408.826 165.066 408.621 164.656 408.271 164.4L256.341 71.4001C256.111 71.2858 255.84 71.2858 255.611 71.4001L103.771 164.4C103.414 164.637 103.194 165.032 103.181 165.46V349C103.177 349.368 103.357 349.713 103.661 349.92L142.721 373.43C152.391 378.42 160.961 379.18 166.861 375.58C171.277 372.725 173.876 367.766 173.711 362.51V182C173.672 177.308 177.438 173.47 182.131 173.42H204.511C209.203 173.47 212.969 177.308 212.931 182V362.51C212.931 396 192.961 416.8 160.821 416.8C151.691 416.8 143.811 416.8 123.231 406.27L123.001 406.14L82.2405 381.8C70.8474 374.805 63.9322 362.369 64.0005 349V162.83C63.9309 149.468 70.8477 137.042 82.2405 130.06L237.681 36.8501C249.039 30.3745 262.972 30.3745 274.331 36.8501Z" fill="currentColor"/>
<path d="M260.281 290.81C262.641 307.63 270.591 318.05 307.881 318.05C345.151 318.05 349.461 304.2 349.431 293.82C349.431 287.16 349.431 279.62 299.431 274.45C256.631 269.99 228.141 259.22 228.141 221.12C228.141 186.37 255.631 165.62 301.691 165.62C352.371 165.62 378.361 183.65 380.931 219.2C381.1 221.542 380.338 223.857 378.811 225.64C377.264 227.435 375.02 228.477 372.651 228.5H352.781C348.861 228.444 345.509 225.67 344.721 221.83C340.401 205.02 326.891 201.83 301.661 201.83C266.201 201.83 266.201 214.64 266.201 220.11C266.201 227.71 266.201 231.18 315.251 238C363.501 244.72 388.001 255 388.001 292.55C388.001 311.26 380.521 326.96 366.551 337.75C352.581 348.54 332.301 354.24 307.921 354.24C229.121 354.24 224.001 306.65 224.001 292.07C223.922 287.424 227.615 283.589 232.261 283.49H252.061C256.235 283.558 259.731 286.671 260.281 290.81Z" fill="currentColor"/>
</svg>
