<svg width="512" height="512" viewBox="0 0 512 512" fill="none" xmlns="http://www.w3.org/2000/svg">
<path fill-rule="evenodd" clip-rule="evenodd" d="M511.781 327.586C510.314 315.69 504.285 305.37 493.816 296.876C493.686 296.718 493.542 296.571 493.387 296.437L492.858 296.058L492.688 295.938L487.129 291.946L486.939 291.806L486.231 291.307C485.971 291.156 485.692 291.038 485.402 290.958C467.816 280.488 438.703 273.153 394.16 288.872C383.531 270.987 382.323 256.655 389.44 234.698C390.707 230.875 389.529 228.35 385.737 226.713C378.112 223.47 367.672 225.126 360.267 227.083C356.813 227.981 354.737 229.937 354.079 232.901C349.388 254.858 335.754 274.919 322.57 294.281L321.792 295.419C313.668 278.193 315.354 264.849 321.013 248.132C322.141 244.798 321.253 242.582 318.129 240.926C309.406 236.424 296.321 239.518 291.112 241.055C284.505 242.982 277.418 260.837 269.504 282.215C267.508 287.594 265.791 292.195 264.763 294.341C262.318 299.332 259.982 305.02 257.507 311.059C251.918 324.722 245.62 340.102 236.618 349.763C233.344 342.527 238.494 331.119 243.495 320.051C249.413 306.967 255.002 294.601 248.565 286.706C246.507 284.183 243.498 282.623 240.251 282.395C238.155 282.235 236.051 282.577 234.113 283.393C234.782 277.754 234.812 273.302 233.165 267.923C230.809 260.248 224.691 255.946 216.268 256.176C197.085 256.735 180.857 271.027 170.607 282.924C163.78 290.908 148.65 296.996 135.366 302.336C130.116 304.561 125.126 306.557 120.964 308.554C114.327 302.944 105.893 297.286 97.0107 291.307C72.0595 274.56 43.7847 255.567 42.8066 229.817C41.4093 191.782 84.7247 164.804 122.531 145.552C151.185 130.98 176.096 121.319 198.692 116.04C230.43 108.624 257.238 110.121 278.357 120.471C289.914 126.13 295.323 138.436 291.89 151.091C282.908 183.977 245.69 206.513 213.863 216.653C194.69 222.761 178.372 225.316 163.96 224.478C145.895 223.43 131.144 214.367 124.836 210.505C123.826 209.815 122.757 209.214 121.643 208.709L121.353 208.639C120.189 208.349 118.96 208.734 118.169 209.637C116.872 211.184 117.331 213.629 117.8 214.866C123.938 230.905 136.613 241.035 155.467 244.978C161.637 246.213 167.917 246.812 174.21 246.764C218.334 246.764 274.634 221.324 295.313 200.375C309.416 186.103 319.686 171.431 323.938 146.131C328.379 119.632 310.414 101.218 292.11 92.735C247.627 72.2051 197.105 80.3193 162.553 90.7389C122.132 102.925 80.3134 125.082 47.8368 151.55C7.79499 184.156 -6.67675 214.427 4.80084 241.624C16.5878 269.5 45.3317 286.936 73.1274 303.803C82.1098 309.242 90.6532 314.422 98.3481 319.772C96.0327 320.899 93.6673 322.047 91.262 323.195C67.9275 334.503 41.4592 347.228 26.7779 368.257C16.1187 383.577 14.1226 398.827 20.8495 413.588C24.4425 421.443 30.83 426.773 39.7027 429.427C44.3182 430.735 49.0981 431.37 53.895 431.314C71.1712 431.314 90.1841 424.327 100.534 417.87C118.818 406.392 130.665 390.983 135.755 372.069C140.286 355.242 139.198 338.525 132.611 323.604L155.017 312.306C144.209 348.236 152.492 369.694 161.595 381.531C164.948 385.892 170.996 388.517 177.753 388.637C184.51 388.757 190.728 386.212 194.241 381.88C200.888 373.646 205.798 364.015 210.319 354.384C210.08 360.672 210.379 367.039 212.525 372.439C214.451 377.299 217.625 380.523 221.717 381.761C226.069 383.088 231.169 381.97 236.079 378.617C258.206 363.476 273.336 327.137 285.493 297.924C287.219 293.772 288.876 289.78 290.483 286.047C293.49 296.811 297.674 307.21 302.958 317.057C304.136 319.193 304.036 320.131 302.44 321.887C300.034 324.522 296.681 327.706 293.128 331.08C282.369 341.29 268.975 354.035 267.178 365.243C266.48 369.734 269.574 373.826 274.374 374.754C288.816 377.629 306.212 373.427 320.923 363.526C334.297 354.544 339.327 342.018 335.894 326.409C332.571 311.378 340.156 292.714 358.44 270.897C361.434 283.403 365.426 293.513 370.936 302.366L370.786 302.485C357.472 314.113 339.228 330.032 342.062 349.344C342.543 353.057 344.564 356.397 347.631 358.546C350.908 360.758 354.96 361.504 358.809 360.602C376.245 356.939 389.37 349.563 398.911 338.076C408.452 326.588 404.969 313.853 401.756 303.972C426.707 297.206 448.923 297.375 469.723 304.471C481.4 308.464 489.774 315.021 494.604 324.073C500.682 335.461 497.399 345.97 485.332 353.665C481.63 356.031 479.843 357.478 479.733 359.304C479.684 360.165 480.056 360.995 480.731 361.53C482.129 362.678 486.44 364.674 496.191 358.536C505.174 352.897 510.443 345.222 511.791 335.581C512.062 332.923 512.058 330.244 511.781 327.586ZM112.83 352.598L112.73 353.875C111.173 368.486 103.748 381.222 90.6232 391.801C82.3793 398.448 73.4268 402.53 65.4224 403.308C59.8334 403.847 55.7713 403.089 53.356 401.043C51.5495 399.516 50.5814 397.23 50.3619 394.057C48.725 368.626 88.6071 343.356 111.053 335.042C112.655 340.747 113.256 346.687 112.83 352.598ZM214.98 280.878C211.288 301.926 200.519 341.659 183.592 357.079C182.783 357.817 182.105 358.077 181.795 358.007C181.486 357.937 181.246 357.568 180.997 357.009C175.348 343.914 177.434 321.798 185.987 304.422C192.564 291.028 201.956 282.155 212.455 279.47C212.891 279.35 213.341 279.286 213.793 279.281C214.146 279.256 214.498 279.351 214.791 279.55C215.041 279.945 215.11 280.428 214.98 280.878ZM298.308 357.608C295.124 360.931 290.762 360.482 291.79 359.264L307.999 342.058C306.691 347.977 302.829 352.877 298.308 357.608ZM365.546 342.727C364.005 343.486 362.337 343.957 360.626 344.114C360.167 335.062 368.94 324.872 377.593 318.075C379.918 327.516 375.157 337.497 365.546 342.727Z" fill="currentColor"/>
</svg>
