<svg width="512" height="512" viewBox="0 0 512 512" fill="none" xmlns="http://www.w3.org/2000/svg">
<path d="M165.609 70.2C165.602 70.1232 165.566 70.0519 165.509 70C165.432 69.8207 165.331 69.6525 165.209 69.5C164.529 68.2846 164.282 66.8741 164.509 65.5C164.909 62.9 166.709 60.1 169.809 57.2C174.004 53.5444 178.681 50.4825 183.709 48.1C184.059 47.95 184.384 47.8 184.709 47.65C185.034 47.5 185.359 47.35 185.709 47.2C186.909 46.6 188.209 46 189.509 45.5C193.206 38.7284 199.734 33.9611 207.309 32.5C213.786 31.2317 220.503 32.5606 226.009 36.2C226.68 36.1829 227.348 36.1161 228.009 36C228.703 35.8839 229.405 35.817 230.109 35.8C235.281 35.3656 240.486 35.5671 245.609 36.4C248.48 36.8096 251.256 37.7237 253.809 39.1C254.682 38.6693 255.636 38.4306 256.609 38.4C258.23 38.3893 259.788 39.0285 260.934 40.1748C262.081 41.3211 262.72 42.8789 262.709 44.5C262.661 47.5684 260.356 50.1305 257.309 50.5L257.009 51.1C256.268 52.0819 255.466 53.017 254.609 53.9C253.612 54.91 252.542 55.8458 251.409 56.7C250.409 57.5 249.209 58.3 248.009 59.1L239.609 63.8C239.555 63.8543 239.485 63.8894 239.409 63.9L239.709 62.4L246.209 58.6C247.409 57.7 248.609 56.8 249.709 55.9C250.747 55.0431 251.716 54.107 252.609 53.1C253.372 52.2158 254.074 51.2803 254.709 50.3C252.166 49.5081 250.428 47.163 250.409 44.5C250.385 43.3677 250.698 42.2538 251.309 41.3C249.332 40.6146 247.287 40.1452 245.209 39.9C241.625 39.4851 238.011 39.3847 234.409 39.6H233.809L230.309 39.9C230.009 39.95 229.709 39.975 229.409 40C229.109 40.025 228.809 40.05 228.509 40.1C221.241 40.9164 214.05 42.321 207.009 44.3C206.459 44.45 205.934 44.625 205.409 44.8C204.884 44.975 204.359 45.15 203.809 45.3C217.409 42.4 227.709 42.4 233.009 43.2C234.933 46.0733 236.259 49.304 236.909 52.7C239.209 64.6 233.709 76.1 222.909 80.7L226.909 104L214.209 107L210.209 82.7C198.609 82.4 189.309 74 187.009 62.1C186.322 58.6262 186.39 55.0452 187.209 51.6C187.121 51.6438 187.034 51.6685 186.954 51.6907C186.853 51.7192 186.765 51.7438 186.709 51.8C186.259 52 185.834 52.225 185.409 52.45C184.984 52.675 184.559 52.9 184.109 53.1C180.223 55.0134 176.566 57.3618 173.209 60.1C170.109 62.7 168.209 65.2 167.709 67.5C167.509 68.2536 167.509 69.0464 167.709 69.8C168.124 70.3155 168.594 70.7848 169.109 71.2C171.607 72.9704 174.483 74.1345 177.509 74.6C181.33 75.333 185.221 75.6349 189.109 75.5H190.409C190.609 75.7 190.809 75.925 191.009 76.15C191.209 76.375 191.409 76.6 191.609 76.8C190.646 76.9164 189.679 76.9831 188.709 77C184.735 77.2054 180.751 77.038 176.809 76.5C173.209 75.9 170.209 75 168.209 73.5C167.178 72.8633 166.374 71.9188 165.909 70.8V70.7C165.859 70.6 165.809 70.525 165.759 70.45C165.709 70.375 165.659 70.3 165.609 70.2Z" fill="currentColor"/>
<path fill-rule="evenodd" clip-rule="evenodd" d="M468.409 269.19C465.769 235.8 456.649 211.19 436.969 211.8C436.639 211.803 436.332 211.969 436.148 212.242C435.964 212.516 435.927 212.863 436.049 213.17C441.159 225.76 445.729 250.07 445.219 271.24C445.233 271.597 445.056 271.935 444.754 272.126C444.451 272.317 444.07 272.332 443.754 272.166C443.437 272 443.233 271.677 443.219 271.32C441.029 250.11 436.119 230.13 426.999 211.89C391.872 141.436 316.323 100.588 238.136 109.776C159.948 118.964 95.9268 176.212 78.0891 252.89C77.7357 254.519 76.4087 255.759 74.7591 256L66.1091 257.22C48.9091 259.62 39.2091 292.12 44.4091 329.72C49.6091 367.32 67.9091 395.92 85.1091 393.52L98.3491 391.67C99.9068 391.458 101.444 392.178 102.279 393.51C142.44 456.69 216.456 489.773 290.317 477.557C364.178 465.34 423.6 410.187 441.279 337.44C441.685 335.71 443.184 334.455 444.959 334.36L449.359 334.12C464.509 331.59 471.109 302.89 468.409 269.19ZM94.4991 270.42C94.2455 269.981 94.36 269.423 94.7656 269.119C95.1712 268.815 95.7397 268.863 96.0891 269.23C105.719 279.23 116.339 296.88 119.409 319.09C122.649 342.14 117.169 364.29 110.279 376.96C110.032 377.391 109.505 377.575 109.043 377.392C108.581 377.209 108.324 376.714 108.439 376.23C112.509 361.79 113.599 342.4 110.709 321.49C107.909 301.17 101.999 283.22 94.4991 270.42ZM257.859 366.38C258.725 374.241 265.36 380.196 273.269 380.21C279.679 380.202 285.422 376.245 287.71 370.257C289.999 364.27 288.361 357.491 283.59 353.209C278.82 348.928 271.904 348.03 266.198 350.95C260.492 353.871 257.176 360.006 257.859 366.38ZM355.109 375.49C346.644 375.902 339.443 369.383 339.012 360.919C338.582 352.454 345.085 345.239 353.548 344.79C362.012 344.341 369.241 350.828 369.709 359.29C370.146 367.793 363.612 375.043 355.109 375.49Z" fill="currentColor"/>
</svg>
