<svg width="512" height="512" viewBox="0 0 512 512" fill="none" xmlns="http://www.w3.org/2000/svg">
<path d="M295.827 272.103C289.127 288.166 273.405 298.607 256 298.55C244.613 298.537 233.697 293.998 225.659 285.932C217.62 277.867 213.116 266.937 213.14 255.55C213.14 238.145 223.632 222.457 239.717 215.81C255.802 209.163 274.308 212.867 286.595 225.194C298.882 237.521 302.526 256.039 295.827 272.103Z" fill="currentColor"/>
<path fill-rule="evenodd" clip-rule="evenodd" d="M410.66 180.72C405.547 178.973 400.397 177.347 395.21 175.84C396.07 172.34 396.863 168.82 397.59 165.28C409.29 108.38 401.64 62.5399 375.53 47.4499C350.53 32.9699 309.53 48.0599 268.17 84.1399C264.103 87.6999 260.12 91.3666 256.22 95.1399C253.62 92.6333 250.953 90.1799 248.22 87.7799C204.87 49.1999 161.42 32.9499 135.34 48.0899C110.34 62.5999 102.91 105.69 113.44 159.62C114.493 164.953 115.677 170.263 116.99 175.55C110.84 177.3 104.9 179.17 99.22 181.15C48.46 198.9 16 226.73 16 255.59C16 285.41 50.84 315.31 103.77 333.44C108.063 334.9 112.397 336.257 116.77 337.51C115.35 343.17 114.093 348.893 113 354.68C103 407.68 110.8 449.75 135.75 464.17C161.52 479.06 204.75 463.76 246.89 426.86C250.223 423.94 253.557 420.857 256.89 417.61C261.103 421.683 265.437 425.637 269.89 429.47C310.69 464.65 350.98 478.86 375.89 464.4C401.64 449.46 410.01 404.26 399.14 349.27C398.307 345.07 397.347 340.783 396.26 336.41C399.3 335.51 402.277 334.58 405.19 333.62C460.19 315.35 496.02 285.81 496.02 255.62C496 226.62 462.5 198.61 410.66 180.72ZM281.66 99.6399C317.09 68.7299 350.21 56.5299 365.31 65.2499C381.38 74.5399 387.63 112 377.53 161.13C376.863 164.33 376.143 167.52 375.37 170.7C354.226 165.891 332.785 162.496 311.19 160.54C298.825 142.729 285.271 125.773 270.62 109.79C274.207 106.31 277.88 102.927 281.64 99.6399H281.66ZM171.34 305.14C166.607 296.947 162.07 288.65 157.73 280.25C151.63 294.75 146.41 309 142.17 322.72C156.784 325.855 171.551 328.234 186.41 329.85C181.183 321.737 176.16 313.5 171.34 305.14ZM157.73 231.92L157.717 231.888C162.051 223.506 166.573 215.223 171.28 207.04C175.993 198.847 180.9 190.77 186 182.81C170.78 184.71 156.18 187.22 142.48 190.29C146.647 203.76 151.722 217.709 157.717 231.888L157.7 231.92H157.73ZM189.05 217.31C181.757 229.983 174.95 242.91 168.63 256.09H168.6C174.9 269.197 181.727 282.117 189.08 294.85C196.433 307.583 204.253 320.013 212.54 332.14C226.53 333.05 241 333.52 256 333.52C271 333.52 285.75 332.97 300 331.97C308.06 319.81 315.727 307.397 323 294.73C330.333 281.997 337.213 269.017 343.64 255.79C337.127 242.663 330.23 229.797 322.95 217.19C315.67 204.583 307.96 192.25 299.82 180.19C285.55 179.1 270.82 178.53 256.03 178.53C241.24 178.53 226.6 179.1 212.32 180.18C204.093 192.267 196.337 204.643 189.05 217.31ZM340.75 305C345.583 296.613 350.223 288.117 354.67 279.51C360.766 293.331 366.146 307.456 370.79 321.83C356.004 325.159 341.053 327.713 326 329.48C331.08 321.42 335.997 313.26 340.75 305ZM340.66 206.93C345.44 215.163 350.043 223.497 354.47 231.93C360.283 218.399 365.413 204.585 369.84 190.54C356.07 187.39 341.38 184.81 326.07 182.87C331.13 190.79 335.993 198.81 340.66 206.93ZM256.23 124.48C266.215 135.391 275.644 146.799 284.48 158.66C265.58 157.76 246.667 157.76 227.74 158.66C237.07 146.32 246.62 134.87 256.23 124.48ZM234.66 103.13C197.23 69.8599 161.72 56.5399 145.66 65.8599C130.58 74.6099 124.59 109.46 133.64 155.69C134.62 160.663 135.72 165.603 136.94 170.51C158.054 165.792 179.452 162.451 201 160.51C213.484 142.722 227.134 125.781 241.86 109.8C239.46 107.49 237.05 105.26 234.66 103.13ZM122.25 317.71C118.25 316.57 114.3 315.333 110.4 314C87 306 67.67 295.56 54.4 284.19C42.52 274 36.5 263.83 36.5 255.59C36.5 238.08 62.56 215.74 106.02 200.59C111.48 198.69 116.987 196.953 122.54 195.38C128.994 216.123 136.812 236.417 145.94 256.13C136.703 276.115 128.789 296.686 122.25 317.71ZM179.64 445.1C196.09 439.27 214.75 427.7 233.38 411.38C236.49 408.65 239.54 405.83 242.52 402.9C227.688 386.817 213.926 369.781 201.32 351.9C179.569 350.241 157.955 347.104 136.63 342.51C135.317 347.843 134.15 353.177 133.13 358.51C124.54 403.83 130.84 437.62 145.98 446.37C153.09 450.48 164.86 450.33 179.64 445.1ZM256.8 388.16C247.08 377.65 237.38 366.02 227.92 353.52C237.113 353.88 246.473 354.06 256 354.06C265.78 354.06 275.46 353.85 285 353.42C276.196 365.471 266.784 377.066 256.8 388.16ZM365.6 446.61C372.71 442.49 378.46 432.19 381.32 416.75C384.5 399.56 383.81 377.58 379 353.28C378.247 349.48 377.38 345.6 376.4 341.64C354.99 346.479 333.272 349.837 311.4 351.69C299.153 369.639 285.713 386.745 271.17 402.89C275.24 406.76 279.24 410.45 283.24 413.89C318.12 443.98 350.47 455.39 365.6 446.61ZM398.72 314.11C396.1 314.98 393.4 315.82 390.66 316.64C383.947 295.799 375.824 275.439 366.35 255.7C375.469 236.224 383.273 216.159 389.71 195.64C394.62 197.07 399.39 198.57 403.98 200.16C448.4 215.48 475.5 238.16 475.5 255.59C475.5 274.19 446.23 298.33 398.72 314.11Z" fill="currentColor"/>
</svg>
