<svg width="512" height="512" viewBox="0 0 512 512" fill="none" xmlns="http://www.w3.org/2000/svg">
<path fill-rule="evenodd" clip-rule="evenodd" d="M471.05 168.36L263.24 65.69C258.676 63.4393 253.324 63.4393 248.76 65.69L41 168.36C35.5193 171.026 32.0296 176.575 32 182.67V432C32.0238 436.269 33.7432 440.354 36.7798 443.355C39.8163 446.356 43.9209 448.027 48.19 448H463.81C468.079 448.027 472.184 446.356 475.22 443.355C478.257 440.354 479.976 436.269 480 432V182.67C479.98 176.586 476.511 171.041 471.05 168.36ZM256 97.89L429 183.33L253.3 270.11L80.3 184.67L256 97.89Z" fill="currentColor"/>
</svg>
