<svg width="512" height="512" viewBox="0 0 512 512" fill="none" xmlns="http://www.w3.org/2000/svg">
<path fill-rule="evenodd" clip-rule="evenodd" d="M256 48C141.31 48 48 141.31 48 256C48 370.69 141.31 464 256 464C370.69 464 464 370.69 464 256C464 141.31 370.69 48 256 48ZM256 384C233.52 384 216 373.75 216 352H296C295.7 373.37 278.29 384 256 384ZM368 336H144V308L172 272V239.7C172 199.29 187.82 164.35 228 155.43L232 128H280L284 155.43C324 164.35 340 199.43 340 239.7V272L368 308V336Z" fill="currentColor"/>
</svg>
