<svg width="512" height="512" viewBox="0 0 512 512" fill="none" xmlns="http://www.w3.org/2000/svg">
<path fill-rule="evenodd" clip-rule="evenodd" d="M256 48C141.31 48 48 141.31 48 256C48 370.69 141.31 464 256 464C370.69 464 464 370.69 464 256C464 141.31 370.69 48 256 48ZM144 308L172 272V239.7C171.956 231.171 172.74 222.658 174.34 214.28L285.92 336H144V308ZM256.18 384C233.6 384 216 373.75 216 352H296C295.7 373.37 278.55 384 256.18 384ZM349.66 380.26L138.66 153.26L162.34 131.74L373.34 358.74L349.66 380.26ZM368 330.85L367.68 330.47L212.18 160.84C217.23 158.44 222.538 156.625 228 155.43L232 128H280L284 155.43C324 164.35 340 199.43 340 239.7V272L368 308V330.85Z" fill="currentColor"/>
</svg>
