<svg width="512" height="512" viewBox="0 0 512 512" fill="none" xmlns="http://www.w3.org/2000/svg">
<path fill-rule="evenodd" clip-rule="evenodd" d="M400 288L448 352L448.05 380.17L166.05 98.17C178.708 89.4241 192.961 83.2505 208 80L216 32H296L304 80C372.64 95.61 400 157 400 227.47V288ZM63.9975 41.3719L41.3701 63.9993L447.999 470.628L470.626 448.001L63.9975 41.3719ZM329.3 432C316.56 461.131 287.795 479.968 256 480C224.204 479.968 195.439 461.131 182.7 432H329.3ZM112 227.47V288L63.9996 352V400H332.12L115.87 183.75C113.229 198.172 111.933 212.808 112 227.47Z" fill="currentColor"/>
</svg>
