<svg width="512" height="512" viewBox="0 0 512 512" fill="none" xmlns="http://www.w3.org/2000/svg">
<path fill-rule="evenodd" clip-rule="evenodd" d="M256 48C141.31 48 48 141.31 48 256C48 370.69 141.31 464 256 464C370.69 464 464 370.69 464 256C464 141.31 370.69 48 256 48ZM224 320C224 328.837 216.837 336 208 336C199.163 336 192 328.837 192 320V192C192 183.163 199.163 176 208 176C216.837 176 224 183.163 224 192V320ZM320 320C320 328.837 312.837 336 304 336C295.163 336 288 328.837 288 320V192C288 183.163 295.163 176 304 176C312.837 176 320 183.163 320 192V320Z" fill="currentColor"/>
</svg>
