<svg width="512" height="512" viewBox="0 0 512 512" fill="none" xmlns="http://www.w3.org/2000/svg">
<path fill-rule="evenodd" clip-rule="evenodd" d="M256 48C141.31 48 48 141.31 48 256C48 370.69 141.31 464 256 464C370.69 464 464 370.69 464 256C464 141.31 370.69 48 256 48ZM258 144C297.764 144 330 176.236 330 216C330 255.764 297.764 288 258 288C218.236 288 186 255.764 186 216C186 176.236 218.236 144 258 144ZM256 432C206.921 432.02 160.075 411.495 126.82 375.4C135.66 329.62 215.06 320 256 320C296.94 320 376.34 329.62 385.18 375.39C351.929 411.491 305.081 432.021 256 432Z" fill="currentColor"/>
</svg>
