<svg width="512" height="512" viewBox="0 0 512 512" fill="none" xmlns="http://www.w3.org/2000/svg">
<path fill-rule="evenodd" clip-rule="evenodd" d="M288 256C340.79 256 387.43 206.29 392 145.18C394.27 114.48 384.64 85.85 364.88 64.58C345.33 43.57 318 32 288 32C257.76 32 230.41 43.5 211 64.38C191.37 85.49 181.8 114.18 184 145.16C188.49 206.28 235.12 256 288 256ZM495.38 439.76C486.94 392.94 460.59 353.61 419.19 326.01C382.42 301.5 335.83 288 288 288C240.17 288 193.58 301.5 156.81 326C115.41 353.6 89.06 392.93 80.62 439.75C78.69 450.48 81.31 461.09 87.81 468.86C93.7808 476.031 102.669 480.125 112 480H464C473.336 480.133 482.233 476.043 488.21 468.87C494.69 461.1 497.31 450.49 495.38 439.76ZM32 216H144C152.837 216 160 223.163 160 232C160 240.837 152.837 248 144 248H32C23.1634 248 16 240.837 16 232C16 223.163 23.1634 216 32 216Z" fill="currentColor"/>
</svg>
