<svg width="512" height="512" viewBox="0 0 512 512" fill="none" xmlns="http://www.w3.org/2000/svg">
<path fill-rule="evenodd" clip-rule="evenodd" d="M256 48C141.163 48 48 141.163 48 256C48 370.837 141.163 464 256 464C370.837 464 464 370.837 464 256C464 141.163 370.837 48 256 48ZM256 80C353.163 80 432 158.837 432 256C432 353.163 353.163 432 256 432C158.837 432 80 353.163 80 256C80 158.837 158.837 80 256 80ZM208 192C208 183.163 200.837 176 192 176C183.163 176 176 183.163 176 192V320C176 328.837 183.163 336 192 336C200.837 336 208 328.837 208 320V267L319.68 334.44C323.02 336.441 327.18 336.485 330.562 334.556C333.944 332.627 336.023 329.024 336 325.13V186.87C336.03 182.973 333.954 179.363 330.571 177.429C327.187 175.494 323.023 175.537 319.68 177.54L208 245V192Z" fill="currentColor"/>
</svg>
