<svg width="512" height="512" viewBox="0 0 512 512" fill="none" xmlns="http://www.w3.org/2000/svg">
<path fill-rule="evenodd" clip-rule="evenodd" d="M256 48C141.31 48 48 141.31 48 256C48 370.69 141.31 464 256 464C370.69 464 464 370.69 464 256C464 141.31 370.69 48 256 48ZM330.77 265.3L216.32 334.44C212.98 336.441 208.82 336.485 205.438 334.556C202.056 332.627 199.977 329.024 200 325.13V186.87C199.977 182.976 202.056 179.373 205.438 177.444C208.82 175.515 212.98 175.559 216.32 177.56L330.77 246.7C334.014 248.677 335.994 252.201 335.994 256C335.994 259.799 334.014 263.323 330.77 265.3Z" fill="currentColor"/>
</svg>
