<svg width="512" height="512" viewBox="0 0 512 512" fill="none" xmlns="http://www.w3.org/2000/svg">
<path fill-rule="evenodd" clip-rule="evenodd" d="M320 32H192C174.327 32 160 46.3269 160 64V476C160 478.209 161.791 480 164 480H348C350.209 480 352 478.209 352 476V64C352 46.3269 337.673 32 320 32ZM464 192H392C387.582 192 384 195.582 384 200V472C384 476.418 387.582 480 392 480H472C485.255 480 496 469.255 496 456V224C496 206.327 481.673 192 464 192ZM16 160C16 142.327 30.3269 128 48 128H120C124.418 128 128 131.582 128 136V472C128 476.418 124.418 480 120 480H40C26.7452 480 16 469.255 16 456V160Z" fill="currentColor"/>
</svg>
