<svg width="512" height="512" viewBox="0 0 512 512" fill="none" xmlns="http://www.w3.org/2000/svg">
<path fill-rule="evenodd" clip-rule="evenodd" d="M240 240H32V32H240V240ZM76 196H196V76H76V196ZM480 240H272V32H480V240ZM316 196H436V76H316V196ZM336 96H416V176H336V96ZM272 272H336V336H272V272ZM416 416H336V336H416V416ZM416 416H480V480H416V416ZM432 272H480V320H432V272ZM320 432H272V480H320V432ZM96 96H176V176H96V96ZM96 336H176V416H96V336ZM240 480H32V272H240V480ZM76 436H196V316H76V436Z" fill="currentColor"/>
</svg>
