<svg width="512" height="512" viewBox="0 0 512 512" fill="none" xmlns="http://www.w3.org/2000/svg">
<path fill-rule="evenodd" clip-rule="evenodd" d="M256 48C141.163 48 48 141.163 48 256C48 370.837 141.163 464 256 464C370.837 464 464 370.837 464 256C464 141.163 370.837 48 256 48ZM256 80C353.163 80 432 158.837 432 256C432 353.163 353.163 432 256 432C158.837 432 80 353.163 80 256C80 158.837 158.837 80 256 80ZM400 256C400 335.529 335.529 400 256 400C176.471 400 112 335.529 112 256C112 176.471 176.471 112 256 112C335.529 112 400 176.471 400 256Z" fill="currentColor"/>
</svg>
