<svg width="512" height="512" viewBox="0 0 512 512" fill="none" xmlns="http://www.w3.org/2000/svg">
<path fill-rule="evenodd" clip-rule="evenodd" d="M112.213 147.001C125.208 68.0712 183.643 16 256 16C286.979 16 314.809 25.6429 337.706 43.1682C358.131 58.8016 373.847 80.2044 383.07 103.834L384.832 104.132C445.339 114.696 487.149 156.539 487.987 217.333L488 219.2C488 286.434 433.414 336 364 336H130C67.6238 336 24 301.268 24 240.8C24 213.477 34.4609 190.66 53.1387 173.892C68.9019 159.74 89.8419 150.597 112.157 147.039C112.187 147.034 112.211 147.011 112.213 147.001ZM318.257 68.5793C300.882 55.281 279.869 48 256 48C199.645 48 154.289 88.4168 143.784 152.219L143.711 152.644C141.294 166.098 130.602 176.561 117.129 178.65L116.319 178.783C100.146 181.498 85.2158 188.098 74.5163 197.703C62.5122 208.48 56 222.684 56 240.8C56 262.133 63.1662 277.781 76.4034 288.32C89.1881 298.499 107.873 304 130 304H364C416.393 304 456 268.035 456 219.2C456 173.67 425.443 143.163 377.82 135.401L377.351 135.32C366.452 133.373 357.333 125.895 353.292 115.548L352.968 114.729C345.786 96.7244 333.713 80.4099 318.257 68.5793ZM130.687 375.125C135.589 367.772 145.523 365.786 152.875 370.687C160.131 375.524 162.161 385.262 157.503 392.584L157.313 392.875L125.313 440.875C120.411 448.228 110.477 450.214 103.125 445.313C95.8691 440.476 93.8388 430.738 98.4973 423.416L98.6872 423.125L130.687 375.125ZM232.875 370.687C225.523 365.786 215.589 367.772 210.687 375.125L146.687 471.125L146.497 471.416C141.839 478.738 143.869 488.476 151.125 493.313C158.477 498.214 168.411 496.228 173.313 488.875L237.313 392.875L237.503 392.584C242.161 385.262 240.131 375.524 232.875 370.687ZM290.687 375.125C295.589 367.772 305.523 365.786 312.875 370.687C320.131 375.524 322.161 385.262 317.503 392.584L317.313 392.875L285.313 440.875C280.411 448.228 270.477 450.214 263.125 445.313C255.869 440.476 253.839 430.738 258.497 423.416L258.687 423.125L290.687 375.125ZM392.875 370.687C385.523 365.786 375.589 367.772 370.687 375.125L306.687 471.125L306.497 471.416C301.839 478.738 303.869 488.476 311.125 493.313C318.477 498.214 328.411 496.228 333.313 488.875L397.313 392.875L397.503 392.584C402.161 385.262 400.131 375.524 392.875 370.687Z" fill="currentColor"/>
</svg>
