<svg width="512" height="512" viewBox="0 0 512 512" fill="none" xmlns="http://www.w3.org/2000/svg">
<path fill-rule="evenodd" clip-rule="evenodd" d="M416 32L448 48L496 32V424C496 454.93 474.93 480 444 480H432C401.07 480 368 454.93 368 424V288.05H144V288V32L192 48L224 32L256 48L288 32L320 48L352 32L384 48L416 32ZM272 208L272.5 240H432L431.5 208H272ZM208.5 160L208 128H431.5L432 160H208.5ZM336 320V424C336 460 368 480 368 480H112C71.86 480 45.19 466.8 30.46 439.63C21.78 423.62 16 402.55 16 352V320H336Z" fill="currentColor"/>
</svg>
