<svg width="512" height="512" viewBox="0 0 512 512" fill="none" xmlns="http://www.w3.org/2000/svg">
<path fill-rule="evenodd" clip-rule="evenodd" d="M256 48C141.31 48 48 141.32 48 256C48 370.86 141.14 464 256 464C370.69 464 464 370.69 464 256C464 141.13 370.87 48 256 48ZM256 361C204.085 361 162 318.915 162 267C162 215.085 204.085 173 256 173H260.21L246.1 158.9C240.632 153.432 240.632 144.568 246.1 139.1C251.568 133.632 260.432 133.632 265.9 139.1L305.9 179.1C308.526 181.726 310.001 185.287 310.001 189C310.001 192.713 308.526 196.274 305.9 198.9L265.9 238.9C260.432 244.368 251.568 244.368 246.1 238.9C240.632 233.432 240.632 224.568 246.1 219.1L264.1 201.1C261.72 201 259 201 256 201C219.549 201 190 230.549 190 267C190 303.451 219.549 333 256 333C292.451 333 322 303.451 322 267C322 259.268 328.268 253 336 253C343.732 253 350 259.268 350 267C349.939 318.89 307.89 360.939 256 361Z" fill="currentColor"/>
</svg>
