<svg width="512" height="512" viewBox="0 0 512 512" fill="none" xmlns="http://www.w3.org/2000/svg">
<path fill-rule="evenodd" clip-rule="evenodd" d="M256 48C141.163 48 48 141.163 48 256C48 370.837 141.163 464 256 464C370.837 464 464 370.837 464 256C464 141.163 370.837 48 256 48ZM256 80C353.163 80 432 158.837 432 256C432 353.163 353.163 432 256 432C158.837 432 80 353.163 80 256C80 158.837 158.837 80 256 80ZM352 256C352 247.163 344.837 240 336 240H176L175.685 240.003C166.994 240.171 160 247.269 160 256C160 264.837 167.163 272 176 272H336L336.315 271.997C345.006 271.829 352 264.731 352 256Z" fill="currentColor"/>
</svg>
