<svg width="512" height="512" viewBox="0 0 512 512" fill="none" xmlns="http://www.w3.org/2000/svg">
<path fill-rule="evenodd" clip-rule="evenodd" d="M477.637 38.0734C477.264 36.2679 475.88 34.8411 474.087 34.4134C415.517 20.0934 280.187 71.1234 206.867 144.413C193.789 157.385 181.868 171.472 171.237 186.513C148.627 184.513 126.017 186.183 106.747 194.583C52.3767 218.513 36.5467 280.953 32.1367 307.813C31.6296 310.794 32.5501 313.84 34.623 316.04C36.696 318.241 39.6813 319.342 42.6867 319.013L129.997 309.383C130.059 315.966 130.456 322.541 131.187 329.083C131.626 333.627 133.643 337.872 136.887 341.083L170.697 374.813C173.911 378.053 178.155 380.069 182.697 380.513C189.202 381.241 195.741 381.638 202.287 381.703L192.707 468.903C192.383 471.908 193.485 474.89 195.684 476.962C197.884 479.034 200.927 479.956 203.907 479.453C230.717 475.153 293.267 459.323 317.057 404.953C325.457 385.683 327.177 363.183 325.237 340.683C340.315 330.052 354.438 318.127 367.447 305.043C440.997 231.863 491.737 99.5534 477.637 38.0734ZM294.067 217.743C280.332 204.018 276.22 183.37 283.647 165.43C291.075 147.489 308.58 135.791 327.997 135.791C347.414 135.791 364.918 147.489 372.346 165.43C379.774 183.37 375.661 204.018 361.927 217.743C352.932 226.751 340.726 231.812 327.997 231.812C315.268 231.812 303.061 226.751 294.067 217.743ZM143.547 408.703C154.127 406.873 162.917 404.733 168.397 399.243C171.277 396.233 176.367 398.723 175.997 402.903C174.397 416.215 168.363 428.6 158.867 438.063C135.357 461.593 47.9967 463.813 47.9967 463.813C47.9967 463.813 50.2167 376.503 73.7267 352.973C83.198 343.506 95.5643 337.48 108.857 335.853C110.723 335.599 112.542 336.569 113.371 338.261C114.2 339.952 113.852 341.985 112.507 343.303C109.507 346.303 104.687 359.073 103.057 368.183C98.7867 392.213 119.777 412.753 143.547 408.703Z" fill="currentColor"/>
</svg>
