<svg width="25" height="24" viewBox="0 0 25 24" fill="none" xmlns="http://www.w3.org/2000/svg">
<path fill-rule="evenodd" clip-rule="evenodd" d="M2.9375 1.5H22.0625V4.87279L21.8775 5.06368C21.2379 5.7237 20.875 6.6232 20.875 7.56525V16.4348C20.875 17.3768 21.2379 18.2763 21.8775 18.9363L22.0625 19.1272V22.5H2.9375V19.1272L3.12249 18.9363C3.76212 18.2763 4.125 17.3768 4.125 16.4348V7.56525C4.125 6.6232 3.76212 5.7237 3.12249 5.06368L2.9375 4.87279V1.5ZM4.25 2.8125V3.95073H20.75V2.8125H4.25ZM20.1294 5.26323H4.87061C5.23987 5.96501 5.4375 6.75542 5.4375 7.56525V16.4348C5.4375 17.2446 5.23987 18.035 4.87061 18.7368H20.1294C19.7601 18.035 19.5625 17.2446 19.5625 16.4348V7.56525C19.5625 6.75542 19.7601 5.96501 20.1294 5.26323ZM20.75 20.0493H4.25V21.1875H20.75V20.0493Z" fill="currentColor"/>
<path fill-rule="evenodd" clip-rule="evenodd" d="M20.1406 17.6484L19.5187 16.9418C19.3523 16.7441 19.1561 16.5576 18.93 16.3937V16.3881C18.93 16.3881 18.924 16.3881 18.924 16.3937C18.1807 15.8456 17.1521 15.5066 16.0223 15.5066C15.7902 15.5066 15.5642 15.5179 15.3442 15.5462C14.7614 15.0094 13.9468 14.6251 13.0072 14.4726V12.8848C14.4464 12.7774 15.5939 12.2971 16.4207 11.4439C17.8881 9.93095 17.747 7.82004 17.7408 7.72618L17.7407 7.72594L17.6992 7.21739L17.1698 7.17783L17.169 7.17778C17.0639 7.17148 14.8706 7.04006 13.2987 8.4435C12.9301 8.77127 12.6328 9.1555 12.3949 9.58491C12.1628 9.14981 11.8597 8.77127 11.4908 8.4435C9.91891 7.04006 7.7257 7.17148 7.62052 7.17778L7.61978 7.17783L7.0904 7.21739L7.04882 7.72594L7.04874 7.72715C7.04186 7.83366 6.90618 9.93584 8.3689 11.4439C9.18957 12.2971 10.3373 12.7774 11.7824 12.8848V14.4161C10.6525 14.4895 9.65949 14.8964 8.97563 15.5066H8.82697C7.35218 15.5066 6.05579 16.083 5.33036 16.9475H5.1875L4.25 19.0312L21.0078 18.9141L20.1406 17.6484ZM14.1312 9.3137C13.5127 9.87312 13.144 10.6698 13.043 11.6869C14.1073 11.5852 14.9398 11.2349 15.5226 10.6302C16.2244 9.907 16.4325 8.96904 16.492 8.37574C15.8676 8.43225 14.8804 8.63564 14.1312 9.3137ZM9.27877 10.6416C9.86158 11.2349 10.6881 11.5908 11.7466 11.6869C11.6455 10.6642 11.2769 9.86743 10.6525 9.30807C9.89735 8.63564 8.91617 8.43225 8.30363 8.37574C8.36309 8.96904 8.57703 9.91831 9.27877 10.6416Z" fill="currentColor"/>
</svg>
