<svg width="512" height="512" viewBox="0 0 512 512" fill="none" xmlns="http://www.w3.org/2000/svg">
<path fill-rule="evenodd" clip-rule="evenodd" d="M256 64C150.13 64 64 150.13 64 256C64 361.87 150.13 448 256 448C361.87 448 448 361.87 448 256C448 150.13 361.87 64 256 64ZM347.31 347.31C341.062 353.553 330.938 353.553 324.69 347.31L281.85 304.48C244.34 330.291 193.341 323.259 164.216 288.261C135.091 253.262 137.441 201.834 169.638 169.638C201.834 137.441 253.262 135.091 288.261 164.216C323.259 193.341 330.291 244.34 304.48 281.85L347.31 324.69C353.553 330.938 353.553 341.062 347.31 347.31ZM288 232C288 262.928 262.928 288 232 288C201.072 288 176 262.928 176 232C176 201.072 201.072 176 232 176C262.928 176 288 201.072 288 232Z" fill="currentColor"/>
</svg>
