<svg width="512" height="512" viewBox="0 0 512 512" fill="none" xmlns="http://www.w3.org/2000/svg">
<path fill-rule="evenodd" clip-rule="evenodd" d="M398 56.66C439.82 74.11 463.19 98.86 464 126.51V144C464 150.42 458.8 160.49 449.37 168.69C438.24 178.42 421.72 188.02 401.59 196.42C358.76 214.32 304.33 225 256 225C207.67 225 153.24 214.36 110.41 196.46C90.2802 188.06 73.7602 178.46 62.6302 168.73C53.2002 160.48 48.0002 150.41 48.0002 144L48.0902 126.35C48.9402 98.77 72.3102 74.07 114.09 56.66C152.26 40.76 202.66 32 256 32C309.34 32 359.74 40.76 398 56.66ZM98.0702 397C144.61 416.39 203.65 428 256 428C308.35 428 367.38 416.39 413.92 397C429.95 390.252 443.813 379.584 455.336 370.718C455.815 370.349 456.289 369.984 456.76 369.623C457.031 369.414 457.301 369.206 457.57 369C458.779 368.075 460.409 367.917 461.773 368.592C463.138 369.267 464.001 370.658 464 372.18V384.76C464 412.83 440.51 438 397.86 455.58C359.7 471.33 309.33 480 256 480C202.67 480 152.29 471.33 114.14 455.58C71.4902 437.98 48.0002 412.83 48.0002 384.76V372.18C47.9992 370.658 48.8624 369.267 50.227 368.592C51.5916 367.917 53.221 368.075 54.4302 369C55.1304 369.538 55.8397 370.084 56.5582 370.637C68.1018 379.528 82.0004 390.231 98.0702 397ZM413.92 226C367.39 245.43 308.35 257 256 257C203.65 257 144.61 245.43 98.0702 226C81.9301 219.24 67.9804 208.465 56.4069 199.526C55.7401 199.011 55.0812 198.502 54.4302 198C53.2153 197.071 51.5767 196.916 50.2089 197.601C48.8412 198.285 47.9838 199.69 48.0002 201.22V232C48.0002 238.41 53.2002 246.48 62.6302 254.73C73.7602 264.47 90.2802 274.06 110.41 282.47C153.24 300.34 207.67 311 256 311C304.33 311 358.76 300.32 401.59 282.43C421.72 274.02 438.24 264.43 449.37 254.69C458.8 246.47 464 238.41 464 232V201.22C464.001 199.698 463.138 198.307 461.773 197.632C460.409 196.957 458.779 197.115 457.57 198.04C456.84 198.6 456.1 199.17 455.349 199.747L455.349 199.748C443.824 208.616 429.956 219.287 413.92 226ZM256 343C308.35 343 367.38 331.41 413.92 312C429.953 305.269 443.819 294.6 455.343 285.732C456.095 285.153 456.838 284.582 457.57 284.02C458.779 283.095 460.409 282.937 461.773 283.612C463.138 284.287 464.001 285.678 464 287.2V317C464 323.37 458.8 331.44 449.37 339.69C438.24 349.43 421.72 359.02 401.59 367.43C358.76 385.32 304.34 396 256 396C207.66 396 153.24 385.32 110.41 367.45C90.2802 359.04 73.7502 349.45 62.6202 339.71C53.2002 331.47 48.0002 323.41 48.0002 317V287.2C47.9915 285.674 48.8518 284.276 50.218 283.596C51.5842 282.916 53.2181 283.073 54.4302 284C55.1234 284.533 55.8256 285.074 56.5367 285.623C68.0846 294.525 81.9904 305.246 98.0702 312C144.61 331.41 203.65 343 256 343Z" fill="currentColor"/>
</svg>
