<svg width="512" height="512" viewBox="0 0 512 512" fill="none" xmlns="http://www.w3.org/2000/svg">
<path d="M199.577 117.178C206.561 114.288 212.365 108.544 225.614 96.0205C240.873 81.5975 243.63 80 253.25 80C262.87 80 265.627 81.5975 280.886 96.0205C294.135 108.544 299.939 114.288 306.923 117.178C313.316 119.823 320.7 120.076 335.692 120.948C351.304 121.858 367.106 124.034 370.805 125.784C380.813 130.525 383.725 139.42 385.552 170.808C386.424 185.8 386.677 193.184 389.322 199.577C392.212 206.561 397.956 212.365 410.479 225.614C424.903 240.873 426.5 243.63 426.5 253.25C426.5 262.87 424.903 265.627 410.479 280.886C397.956 294.135 392.212 299.939 389.322 306.923C386.677 313.316 386.424 320.7 385.552 335.692C382.956 380.337 380.337 382.956 335.692 385.552C320.7 386.424 313.316 386.677 306.923 389.322C299.939 392.212 294.135 397.956 280.886 410.479C265.627 424.903 262.87 426.5 253.25 426.5C243.63 426.5 240.873 424.903 225.614 410.479C212.365 397.956 206.561 392.212 199.577 389.322C193.184 386.677 185.8 386.424 170.808 385.552C126.163 382.956 123.544 380.337 120.948 335.692C120.076 320.7 119.823 313.316 117.178 306.923C114.288 299.939 108.544 294.135 96.0205 280.886C81.5975 265.627 80 262.87 80 253.25C80 243.63 81.5975 240.873 96.0205 225.614C108.544 212.365 114.288 206.561 117.178 199.577C119.823 193.184 120.076 185.8 120.948 170.808C123.544 126.163 126.163 123.544 170.808 120.948C185.8 120.076 193.184 119.823 199.577 117.178Z" fill="#ED8936"/>
<path d="M301.857 249.243L263.757 211.143L193 281.9V320H231.1L301.857 249.243ZM211.143 300.043V286.436L261.943 235.636L274.643 249.243L223.843 300.043H211.143ZM270.107 204.793L276.457 198.443C283.714 191.186 295.507 191.186 301.857 198.443L314.557 211.143C321.814 218.4 321.814 229.286 314.557 236.543L308.207 242.893L270.107 204.793Z" fill="white"/>
</svg>
