<svg width="512" height="512" viewBox="0 0 512 512" fill="none" xmlns="http://www.w3.org/2000/svg">
<path d="M23 455.913C23 388.215 23 320.518 23 252.729C26.0896 244.914 31.8144 242.279 40.0835 242.37C69.7979 242.642 99.4215 242.37 129.136 242.551C133.588 242.551 134.952 241.733 134.952 236.917C134.77 178.942 134.77 120.968 134.77 62.9018C134.77 50.7252 139.495 46 151.853 46C221.005 46 290.248 46 359.4 46C371.667 46 376.392 50.7252 376.483 62.9018C376.483 120.968 376.574 178.942 376.392 237.008C376.392 241.733 377.755 242.642 382.208 242.642C411.923 242.46 441.546 242.733 471.26 242.46C479.53 242.37 485.345 245.005 488.344 252.82C488.344 320.518 488.344 388.215 488.344 456.004C484.709 463.637 478.621 466 470.352 466C327.232 465.818 184.112 465.818 40.9922 466C32.7231 465.818 26.6348 463.547 23 455.913ZM365.125 438.83C395.748 438.83 426.28 438.739 456.903 438.921C460.447 438.921 461.447 437.921 461.447 434.377C461.356 380.764 461.356 327.06 461.447 273.447C461.447 270.085 460.629 269.085 457.176 269.085C443.727 269.267 430.187 269.358 416.739 269.085C412.74 268.994 412.013 270.357 412.104 273.992C412.286 296.8 412.195 319.609 412.195 342.417C412.195 353.594 407.288 358.592 396.202 358.592C374.121 358.592 351.949 358.683 329.867 358.592C318.872 358.592 313.783 353.503 313.783 342.417C313.783 319.427 313.692 296.437 313.874 273.538C313.874 269.812 312.784 269.085 309.331 269.085C297.518 269.267 285.704 269.267 273.891 269.085C270.166 268.994 269.075 269.903 269.075 273.81C269.166 327.333 269.166 380.764 269.075 434.286C269.075 438.194 270.257 438.921 273.891 438.921C304.333 438.739 334.774 438.83 365.125 438.83ZM145.856 438.83C176.479 438.83 207.011 438.739 237.634 438.921C241.087 438.921 242.632 438.194 242.178 434.468C241.814 431.651 242.087 428.743 242.087 425.836C242.087 375.403 242.087 324.879 242.178 274.447C242.178 270.63 241.633 268.904 237.089 269.085C223.731 269.449 210.464 269.358 197.106 269.085C193.653 268.994 192.836 269.994 192.836 273.356C193.017 296.346 192.926 319.336 192.926 342.235C192.926 353.594 187.929 358.501 176.57 358.501C154.579 358.501 132.68 358.501 110.689 358.501C99.5123 358.501 94.6054 353.503 94.6054 342.508C94.6054 319.427 94.5145 296.255 94.6962 273.174C94.6962 270.085 93.8784 268.994 90.698 269.085C78.7032 269.267 66.7992 269.358 54.8044 269.085C50.7153 268.994 49.8066 270.176 49.8066 274.083C49.8974 327.424 49.8974 380.764 49.8066 434.105C49.8066 437.921 50.8061 438.921 54.6227 438.83C84.9732 438.739 115.415 438.83 145.856 438.83ZM255.717 242.46C285.432 242.46 315.055 242.46 344.77 242.551C347.95 242.551 349.586 242.188 349.586 238.19C349.404 184.395 349.495 130.6 349.586 76.8048C349.586 73.6244 348.768 72.6248 345.497 72.7157C333.502 72.8974 321.598 72.9883 309.603 72.7157C305.423 72.6248 304.696 74.0788 304.696 77.8953C304.878 100.704 304.787 123.512 304.787 146.32C304.787 157.043 299.698 162.041 288.885 162.041C266.804 162.041 244.631 162.041 222.55 162.041C211.373 162.041 206.466 157.134 206.466 146.048C206.466 123.421 206.375 100.704 206.557 78.077C206.557 74.1696 205.83 72.534 201.468 72.6248C189.837 72.9883 178.115 72.8974 166.483 72.6248C162.667 72.534 161.667 73.6244 161.667 77.4409C161.758 130.781 161.758 184.122 161.667 237.463C161.667 241.461 162.667 242.551 166.665 242.551C196.379 242.46 226.094 242.46 255.717 242.46ZM166.211 300.344C166.211 291.257 166.12 282.261 166.302 273.174C166.392 269.994 165.393 269.085 162.212 269.085C149.945 269.267 137.678 269.267 125.41 269.085C122.321 269.085 121.23 269.903 121.321 273.083C121.503 291.348 121.412 309.613 121.321 327.878C121.321 330.877 122.139 331.694 125.138 331.694C137.496 331.513 149.945 331.513 162.394 331.694C165.302 331.694 166.302 330.967 166.302 327.969C166.029 318.791 166.211 309.522 166.211 300.344ZM233.182 103.793C233.182 112.971 233.273 122.24 233.091 131.418C233 134.416 234.09 135.325 236.998 135.325C249.357 135.234 261.806 135.234 274.164 135.325C277.163 135.325 278.071 134.416 278.071 131.418C277.981 113.153 277.981 94.8879 278.071 76.6231C278.071 73.6244 277.072 72.7157 274.164 72.7157C261.806 72.8066 249.357 72.8066 236.998 72.7157C234 72.7157 233.091 73.6244 233.091 76.6231C233.273 85.7101 233.182 94.7062 233.182 103.793ZM385.479 300.799C385.479 291.621 385.389 282.352 385.57 273.174C385.661 270.085 384.752 268.994 381.572 269.085C369.305 269.267 357.037 269.267 344.861 269.085C341.68 269.085 340.681 269.903 340.772 273.174C340.862 291.439 340.862 309.704 340.772 327.969C340.772 330.967 341.68 331.785 344.588 331.785C356.946 331.604 369.395 331.604 381.754 331.785C384.662 331.785 385.661 331.058 385.661 328.06C385.298 318.882 385.479 309.886 385.479 300.799Z" fill="currentColor"/>
<path d="M412.377 385.217C418.011 385.217 423.554 385.126 429.188 385.217C437.457 385.399 443.454 390.942 443.545 398.484C443.727 405.935 437.73 411.933 429.551 412.114C418.102 412.296 406.561 412.296 395.112 412.114C386.752 411.933 381.027 406.299 381.027 398.666C381.027 391.033 386.842 385.489 395.203 385.308C395.475 385.308 395.839 385.308 396.111 385.308C401.473 385.217 406.925 385.217 412.377 385.217Z" fill="currentColor"/>
<path d="M188.383 385.217C194.108 385.217 199.832 385.126 205.648 385.217C213.917 385.399 219.824 391.033 219.824 398.575C219.824 405.935 214.19 411.842 206.102 411.933C194.289 412.205 182.476 412.205 170.754 411.933C162.667 411.751 157.215 405.935 157.396 398.393C157.487 390.851 163.121 385.399 171.208 385.217C176.933 385.126 182.658 385.217 188.383 385.217Z" fill="currentColor"/>
<path d="M300.062 215.563C294.337 215.563 288.612 215.654 282.797 215.563C274.982 215.381 269.348 210.02 269.166 202.75C268.894 195.117 274.255 189.211 282.251 189.029C294.337 188.756 306.423 188.756 318.509 189.029C326.232 189.211 331.776 195.208 331.685 202.387C331.594 209.838 325.687 215.381 317.782 215.563C317.509 215.563 317.145 215.563 316.873 215.563C311.239 215.563 305.696 215.563 300.062 215.563Z" fill="currentColor"/>
</svg>
