<svg width="512" height="512" viewBox="0 0 512 512" fill="none" xmlns="http://www.w3.org/2000/svg">
<path fill-rule="evenodd" clip-rule="evenodd" d="M256 48C141.163 48 48 141.163 48 256C48 370.837 141.163 464 256 464C370.837 464 464 370.837 464 256C464 141.163 370.837 48 256 48ZM256 80C353.163 80 432 158.837 432 256C432 353.163 353.163 432 256 432C158.837 432 80 353.163 80 256C80 158.837 158.837 80 256 80ZM176 310.4C176.011 324.534 187.466 335.989 201.6 336H310.4C324.534 335.989 335.989 324.534 336 310.4V201.6C335.989 187.466 324.534 176.011 310.4 176H201.6C187.466 176.011 176.011 187.466 176 201.6V310.4Z" fill="currentColor"/>
</svg>
