<svg width="512" height="512" viewBox="0 0 512 512" fill="none" xmlns="http://www.w3.org/2000/svg">
<path d="M221.865 255.999L298.665 332.799L268.799 362.666L191.999 285.866L115.199 362.666L85.332 332.799L162.132 255.999L85.332 179.199L115.199 149.333L191.999 226.133L268.799 149.333L298.665 179.199L221.865 255.999ZM411.995 185.045L434.782 160.586C438.963 156.289 442.695 151.895 446.234 147.598C449.642 143.456 452.723 139.055 455.45 134.435C458.003 130.165 460.095 125.636 461.691 120.923C463.206 116.338 463.974 111.539 463.965 106.71C464.029 100.708 462.919 94.7505 460.699 89.1731C458.597 83.9306 455.309 79.2458 451.094 75.4857C446.618 71.5699 441.383 68.6182 435.715 66.8145C422.103 62.7601 407.56 63.0934 394.147 67.7671C388.024 70.0806 382.468 73.6807 377.855 78.3243C373.4 82.774 369.946 88.1232 367.725 94.0145C365.591 99.6995 364.466 105.713 364.4 111.785L364.322 116.841H397.161L397.298 111.999C397.331 109.297 397.717 106.611 398.445 104.008C399.156 101.724 400.291 99.5936 401.789 97.7282C403.305 96.0138 405.194 94.6701 407.311 93.8008C412.102 91.9023 417.417 91.7919 422.283 93.4897C424.036 94.2594 425.602 95.4007 426.871 96.8346C428.168 98.3649 429.164 100.126 429.807 102.026C430.568 104.335 430.962 106.749 430.974 109.18C430.95 111.092 430.722 112.995 430.293 114.858C429.672 117.082 428.784 119.224 427.648 121.235C425.998 124.141 424.119 126.91 422.029 129.517C419.162 133.243 416.106 136.819 412.871 140.23L366.87 190.429V213.333H469.332V185.045H411.995Z" fill="currentColor"/>
</svg>
