<svg width="512" height="512" viewBox="0 0 512 512" fill="none" xmlns="http://www.w3.org/2000/svg">
<path fill-rule="evenodd" clip-rule="evenodd" d="M179.52 40.93L90.15 32C75.68 32.34 64 46.49 64 64C64 81.51 75.78 95.78 90.33 96L181.33 93C194.59 93 208 86.79 208 68.4C208 58.18 204 41.86 179.52 40.93ZM39.94 178L184.1 184.12L184.274 184.133L184.445 184.146C189.598 184.533 208 185.914 208 210C208 233.273 189.679 235.251 184.211 235.842L184.205 235.843C184.083 235.856 183.968 235.868 183.86 235.88L39.94 242C27.27 241.87 16 227.56 16 210C16 192.44 27.27 178.13 39.94 178ZM181.39 309.66L74.65 318C62 318 48 301.31 48 284.12V283.79C48 267.46 59.14 254.16 72.88 254L181.33 255.72C208 259 208 275.16 208 282.12C208 305 186.2 309.26 181.39 309.66ZM55.79 103.5L182.19 109.72C191.58 110.35 208 112.72 208 136.08C208 148.08 203.65 161.7 183 163.61L55.79 167.5C42.65 167.35 32 154 32 136.08C32 118.16 42.65 103.65 55.79 103.5ZM240 480C221 480 205.37 472.67 195.94 459.38C186.59 446.2 184.75 428.56 190.89 411C193.789 402.696 196.92 394.788 199.95 387.134L200.11 386.73C207.18 368.87 213.85 351.92 216.85 332.57C217.482 328.7 217.187 324.734 215.99 321C215.62 319.89 215.24 318.83 214.86 317.83C213.124 313.346 213.545 308.314 216 304.18C222 294.3 224 281.2 224 273C224.146 264.217 222.375 255.508 218.81 247.48C216.74 242.806 216.74 237.474 218.81 232.8C225.69 216.989 225.69 199.031 218.81 183.22C216.84 178.761 216.84 173.679 218.81 169.22C225.723 153.135 225.723 134.915 218.81 118.83C216.83 114.353 216.83 109.247 218.81 104.77C222.248 96.9655 224.016 88.5282 224 80C224 71 222.2 57.59 213.63 45.2L213.53 45.06C211.8 42.6661 211.53 39.514 212.828 36.8608C214.125 34.2077 216.779 32.4851 219.73 32.38C225.81 32.14 232.55 32 240 32C286.66 32 330 46.13 352.94 61.11C355.783 62.9874 359.113 63.992 362.52 64H411.31C458.085 64.0055 496 101.925 496 148.7V187.3C496 234.071 458.091 271.989 411.32 272H386C383.364 272.03 380.777 272.714 378.47 273.99C376.149 275.245 374.164 277.038 372.68 279.22L371.68 281.22C368.21 288.28 358.34 307.73 337.86 343.22L337.73 343.44C322.85 369.17 300.5 401.92 282.5 428.25C269.56 447.15 257.31 465.09 254.31 471.15C251.601 476.572 246.061 479.999 240 480Z" fill="currentColor"/>
</svg>
