<svg width="512" height="512" viewBox="0 0 512 512" fill="none" xmlns="http://www.w3.org/2000/svg">
<path d="M223.71 429.448C195.265 423.848 169.62 412.313 147.11 394.171C110.714 364.83 89.5478 326.754 83.1645 280.39C80.3648 260.008 81.1487 239.626 85.7402 219.468C95.4833 177.361 117.881 143.316 152.486 117.447C178.579 97.9606 208.144 87.2097 240.509 84.186C266.042 81.8342 291.016 85.1939 315.205 93.8171C328.308 98.5206 340.739 104.792 352.498 112.743C348.354 118.791 344.098 124.502 340.403 130.661C339.171 132.677 337.827 136.373 338.835 137.829C339.843 139.396 343.426 139.396 346.002 140.068C346.338 140.18 346.786 139.956 347.234 139.956C364.48 138.389 381.727 136.821 398.973 135.365C408.156 134.581 411.74 129.765 409.276 120.918C404.572 103.672 399.757 86.5378 394.941 69.4035C394.605 68.0596 394.157 66.8277 393.485 65.5959C391.694 62.4602 389.118 62.0122 386.542 64.588C385.422 65.5959 384.638 66.8277 383.742 68.0596C379.823 73.6591 375.903 79.3705 371.984 84.9699C371.424 84.8579 371.2 84.9699 370.976 84.746C369.744 83.962 368.4 83.1781 367.168 82.3942C320.133 53.0531 269.402 43.5341 215.087 54.285C186.418 59.8844 160.101 71.1953 136.247 87.9936C110.154 106.584 89.2119 129.765 73.7574 157.875C62.5585 178.145 54.8313 199.758 51.1357 222.604C49.9038 230.555 49.0079 238.619 48 246.682C48 254.521 48 262.36 48 270.199C48.224 271.207 48.6719 272.215 48.6719 273.335C50.7997 301.892 58.079 329.106 71.7416 354.303C103.658 413.097 152.71 449.158 218.447 462.484C227.966 464.388 236.477 458.677 238.493 449.27C240.397 439.862 234.461 431.575 223.71 429.448Z" fill="currentColor"/>
<path d="M418.123 358.671C413.979 355.759 408.604 355.311 403.9 357.103C401.773 357.887 399.645 358.895 398.077 360.35C393.821 364.382 390.014 369.198 386.878 374.125C382.735 380.732 384.75 389.579 390.798 394.731C396.733 399.77 406.028 400.33 411.628 394.955C416.219 390.587 420.475 385.66 423.498 380.172C427.978 372.557 424.842 363.598 418.123 358.671Z" fill="currentColor"/>
<path d="M299.527 427.096C294.711 427.768 290.008 428.888 285.304 430.231C277.353 432.695 272.65 441.094 274.329 449.046C276.121 457.669 283.848 463.604 292.36 462.484C297.399 461.812 302.439 460.692 307.366 459.237C314.309 457.109 318.677 450.837 318.677 443.558C318.677 433.255 310.054 425.752 299.527 427.096Z" fill="currentColor"/>
<path d="M442.873 298.869C435.369 296.853 427.194 300.1 423.946 307.044C421.483 312.307 419.579 317.795 418.347 323.506C416.667 331.121 421.035 338.401 428.314 341.424C435.033 344.224 443.768 342.544 447.464 336.273C450.488 331.121 452.392 325.41 453.959 321.154C454.855 318.803 455.079 316.339 454.743 313.875C453.623 305.588 449.032 300.436 442.873 298.869Z" fill="currentColor"/>
<path d="M422.267 204.462C424.954 210.957 430.218 214.093 435.593 214.429C447.352 214.765 455.975 205.582 453.959 195.727C452.728 189.679 450.376 183.744 447.576 178.369C443.88 171.089 434.697 168.514 427.194 171.649C419.467 174.785 415.211 183.184 417.563 191.247C418.795 195.727 420.475 200.094 422.267 204.462Z" fill="currentColor"/>
<path d="M463.814 250.153C463.254 240.634 455.975 233.691 447.016 233.803C437.833 233.803 430.778 241.082 430.554 250.713C430.442 252.617 430.554 254.521 430.554 256.425H430.666C430.666 258.441 430.554 260.456 430.666 262.472C431.114 271.767 438.281 278.823 447.352 278.823C456.087 278.823 463.478 271.767 463.926 262.696C464.038 258.553 464.038 254.409 463.814 250.153Z" fill="currentColor"/>
<path d="M354.401 402.458C349.922 404.81 345.442 407.498 341.299 410.521C335.587 414.777 333.459 422.392 335.811 429C338.163 435.607 344.658 440.086 353.617 439.974C361.457 437.623 370.416 433.703 376.015 425.08C379.823 419.145 378.367 411.193 373.551 405.93C368.736 400.778 360.785 399.099 354.401 402.458Z" fill="currentColor"/>
<path d="M242.401 122.869C251.133 122.869 258.231 129.862 258.398 138.554L258.401 138.869V266.869H338.401C347.133 266.869 354.231 273.862 354.398 282.554L354.401 282.869C354.401 291.6 347.407 298.698 338.716 298.866L338.401 298.869H242.401C233.67 298.869 226.572 291.875 226.404 283.183L226.401 282.869V138.869C226.401 130.032 233.565 122.869 242.401 122.869Z" fill="currentColor"/>
</svg>
