<svg width="512" height="512" viewBox="0 0 512 512" fill="none" xmlns="http://www.w3.org/2000/svg">
<path fill-rule="evenodd" clip-rule="evenodd" d="M256 48C141.163 48 48 141.163 48 256C48 370.837 141.163 464 256 464C370.837 464 464 370.837 464 256C464 141.163 370.837 48 256 48ZM256 80C353.163 80 432 158.837 432 256C432 353.163 353.163 432 256 432C158.837 432 80 353.163 80 256C80 158.837 158.837 80 256 80ZM271.997 127.685C271.829 118.994 264.731 112 256 112C247.163 112 240 119.163 240 128V272L240.003 272.315C240.171 281.006 247.269 288 256 288H352L352.315 287.997C361.006 287.829 368 280.731 368 272L367.997 271.685C367.829 262.994 360.731 256 352 256H272V128L271.997 127.685Z" fill="currentColor"/>
</svg>
