<svg width="512" height="512" viewBox="0 0 512 512" fill="none" xmlns="http://www.w3.org/2000/svg">
<path fill-rule="evenodd" clip-rule="evenodd" d="M448 64H400V32H360V64H152V32H112V64H64C46.3269 64 32 78.3269 32 96V448C32 465.673 46.3269 480 64 480H448C465.673 480 480 465.673 480 448V96C480 78.3269 465.673 64 448 64ZM436 436H76V176H436V436ZM121.14 208C116.092 208 112 212.092 112 217.14V326.86C112 331.908 116.092 336 121.14 336H230.86C235.908 336 240 331.908 240 326.86V217.14C240 212.092 235.908 208 230.86 208H121.14Z" fill="currentColor"/>
</svg>
