<svg width="512" height="512" viewBox="0 0 512 512" fill="none" xmlns="http://www.w3.org/2000/svg">
<path fill-rule="evenodd" clip-rule="evenodd" d="M368 112H144C64.471 112 0 176.471 0 256C0 335.529 64.471 400 144 400H368C447.529 400 512 335.529 512 256C512 176.471 447.529 112 368 112ZM368 342C320.504 342 282 303.496 282 256C282 208.504 320.504 170 368 170C415.496 170 454 208.504 454 256C454.032 278.818 444.981 300.711 428.846 316.846C412.711 332.981 390.818 342.032 368 342Z" fill="currentColor"/>
</svg>
