<svg xmlns="http://www.w3.org/2000/svg" width="512" height="512" fill="none"><path fill="currentColor" fill-rule="evenodd" d="M48 256c0-114.837 93.163-208 208-208s208 93.163 208 208-93.163 208-208 208S48 370.837 48 256m384 0c0-97.163-78.837-176-176-176S80 158.837 80 256s78.837 176 176 176 176-78.837 176-176m-176-96c8.731 0 15.829 6.994 15.997 15.685L272 176v64h64c8.837 0 16 7.163 16 16 0 8.731-6.994 15.829-15.685 15.997L336 272h-64v64c0 8.837-7.163 16-16 16-8.731 0-15.829-6.994-15.997-15.685L240 336v-64h-64c-8.837 0-16-7.163-16-16 0-8.731 6.994-15.829 15.685-15.997L176 240h64v-64c0-8.837 7.163-16 16-16" clip-rule="evenodd"/></svg>