<svg xmlns="http://www.w3.org/2000/svg" width="512" height="512" fill="none"><path fill="currentColor" fill-rule="evenodd" d="m111.81 63.999-3.31.095-.252.015c-34.165 2.06-60.269 31.587-60.177 66.932 0 8.466 1.506 15.681 4.601 22.332l.38.801c2.033 4.209 4.19 7.388 8.18 12.495l1.01 1.283a20.55 20.55 0 0 0 14.634 7.994l.656.054h1.682l.54-.014a19.23 19.23 0 0 0 13.467-6.257l.117-.132 60.338-59.264.082-.083a21.38 21.38 0 0 0 6.16-15.896c-.203-5.812-2.853-11.361-7.313-15.23l-.082-.07a62.67 62.67 0 0 0-39.751-15.047zm.335 32.003.297.005a30.7 30.7 0 0 1 8.584 1.42l.092.03-40.442 39.724-.054-.209c-.426-1.718-.552-3.565-.552-5.972l.003-.564c.214-18.386 13.2-33.083 29.597-34.35l.309-.022zM256.071 96c-97.202 0-176 78.798-176 176 0 42.84 15.306 82.105 40.747 112.625l-36.061 36.061-.257.263c-5.99 6.266-5.905 16.203.257 22.365 6.248 6.248 16.379 6.248 22.627 0l36.062-36.062C173.966 432.694 213.231 448 256.071 448a176 176 0 0 0 112.622-40.75l36.064 36.064.263.257c6.266 5.99 16.203 5.904 22.364-.257 6.249-6.249 6.249-16.379 0-22.628l-36.064-36.064A176 176 0 0 0 432.071 272c0-97.202-78.798-176-176-176m0 32c79.529 0 144 64.471 144 144a144 144 0 0 1-144 144c-79.529 0-144-64.471-144-144s64.471-144 144-144m144.121-64.001 3.309.095.252.015c34.166 2.06 60.269 31.587 60.178 66.891 0 8.507-1.507 15.722-4.602 22.373-2.213 4.756-4.448 8.059-8.939 13.781l-.922 1.169a20.55 20.55 0 0 1-13.95 7.577l-.422.038-.642.052h-1.666l-.144-.002a19.24 19.24 0 0 1-13.864-6.269l-.117-.131-60.337-59.255-.392-.402c-3.969-4.184-6.084-9.799-5.854-15.489a21.26 21.26 0 0 1 7.316-15.318l.613-.52A62.67 62.67 0 0 1 399.924 64zm1.83 32.065-2.166-.062-.297.005a30.7 30.7 0 0 0-8.584 1.42l-.091.03 40.441 39.715.054-.212c.405-1.637.539-3.395.551-5.642l.001-.359c.049-18.796-13.3-33.895-30.103-34.908zm-129.954 63.621C271.9 150.994 264.802 144 256.071 144l-.315.003c-8.691.168-15.685 7.266-15.685 15.997v96h-64l-.315.003c-8.691.168-15.685 7.266-15.685 15.997 0 8.837 7.163 16 16 16h80l.315-.003c8.691-.168 15.685-7.266 15.685-15.997V160z" clip-rule="evenodd"/></svg>