<svg xmlns="http://www.w3.org/2000/svg" width="512" height="512" fill="none"><path fill="currentColor" fill-rule="evenodd" d="m108.21 61.11 3.27-.1h.52c14.73 0 28.55 5.91 40.52 15S168 93 168 93l-88 86s-11.25-5.71-17.61-13.85l-.193-.247C55.871 156.808 48.11 146.877 48.071 128 48 92.55 74.4 63.15 108.21 61.11m295.58 0-3.27-.1H400c-14.73 0-28.55 5.91-40.52 15S344 93 344 93l88 86s11.25-5.71 17.61-13.85l.194-.248c6.326-8.094 14.087-18.025 14.126-36.862.07-35.49-26.33-64.89-60.14-66.93M391.3 381.6a.06.06 0 0 1-.014-.049.06.06 0 0 1 .014-.031C425 341 441 285.24 427 226.23c-13.64-57.52-72.67-115.69-130.34-128.66C182 71.79 80.07 158.71 80.07 269a175.15 175.15 0 0 0 40.78 112.52.06.06 0 0 1 0 .08L73 429a.06.06 0 0 0 0 .08l23 22.51a.06.06 0 0 0 .08 0l47.43-47.37a.06.06 0 0 1 .08 0c65.165 54.372 159.886 54.372 225.05 0L416 451.59a.06.06 0 0 0 .08 0L440 429zM272.07 285h-112v-31.9h80V141h32z" clip-rule="evenodd"/></svg>