<svg xmlns="http://www.w3.org/2000/svg" width="512" height="512" fill="none"><path fill="currentColor" fill-rule="evenodd" d="M153.59 110.46A21.407 21.407 0 0 0 152.48 79 62.67 62.67 0 0 0 112 64l-3.27.09h-.48C74.4 66.15 48 95.55 48.07 131c0 18.872 7.893 28.924 14.193 36.947l.128.163a20.6 20.6 0 0 0 14.7 7.8c.08 0 .177.005.312.011.302.015.79.039 1.688.039a19.06 19.06 0 0 0 13.75-5.89zm250.2-46.35-3.27-.1H400a62.67 62.67 0 0 0-40.52 15 21.413 21.413 0 0 0-1.11 31.44l60.77 59.65a19.06 19.06 0 0 0 13.79 5.9c1.28 0 1.72 0 2-.05a20.6 20.6 0 0 0 14.69-7.8c6.36-8.05 14.28-18.08 14.32-37.11.06-35.49-26.34-64.89-60.15-66.93M256.07 96c-97 0-176 78.95-176 176a175.23 175.23 0 0 0 40.81 112.56l-36.12 36.13a16 16 0 1 0 22.63 22.62l36.12-36.12c65.176 54.415 159.945 54.415 225.12 0l36.13 36.12a15.999 15.999 0 0 0 26.955-7.075 16 16 0 0 0-4.325-15.545l-36.13-36.13A175.16 175.16 0 0 0 432.07 272c0-97-78.95-176-176-176m16 176c0 8.837-7.163 16-16 16h-80c-8.836 0-16-7.163-16-16s7.164-16 16-16h64v-96c0-8.837 7.164-16 16-16s16 7.163 16 16z" clip-rule="evenodd"/></svg>