<svg xmlns="http://www.w3.org/2000/svg" width="512" height="512" fill="none"><path fill="currentColor" fill-rule="evenodd" d="M368 65c8.837 0 16 7.163 16 16 0 8.731-6.994 15.83-15.685 15.997L368 97H144c-8.837 0-16-7.163-16-16 0-8.731 6.994-15.83 15.685-15.997L144 65zM92.87 161h326.26c24.781 0 44.87 20.089 44.87 44.87v198.26c0 24.781-20.089 44.87-44.87 44.87H92.87C68.089 449 48 428.911 48 404.13V205.87C48 181.089 68.089 161 92.87 161m326.26 32H92.87C85.762 193 80 198.762 80 205.87v198.26c0 7.108 5.762 12.87 12.87 12.87h326.26c7.108 0 12.87-5.762 12.87-12.87V205.87c0-7.108-5.762-12.87-12.87-12.87M416 129c0-8.837-7.163-16-16-16H112l-.315.003C102.994 113.171 96 120.269 96 129c0 8.837 7.163 16 16 16h288l.315-.003C409.006 144.829 416 137.731 416 129" clip-rule="evenodd"/></svg>