<svg xmlns="http://www.w3.org/2000/svg" width="512" height="512" fill="none"><path fill="currentColor" fill-rule="evenodd" d="M368 96H144c-8.837 0-16-7.163-16-16s7.163-16 16-16h224c8.837 0 16 7.163 16 16s-7.163 16-16 16m32 48H112c-8.837 0-16-7.163-16-16s7.163-16 16-16h288c8.837 0 16 7.163 16 16s-7.163 16-16 16M92.87 448h326.26c24.77-.028 44.842-20.1 44.87-44.87V204.87c-.028-24.77-20.1-44.842-44.87-44.87H92.87c-24.77.028-44.842 20.1-44.87 44.87v198.26c.028 24.77 20.1 44.842 44.87 44.87" clip-rule="evenodd"/></svg>