<svg xmlns="http://www.w3.org/2000/svg" width="512" height="512" fill="none"><path fill="currentColor" fill-rule="evenodd" d="M277.867 90.368c-9.521-16.49-33.324-16.49-42.845 0L74.351 368.658c-9.521 16.491 2.38 37.105 21.423 37.105h321.341c19.042 0 30.944-20.614 21.423-37.105zm-22.549 52.468c-10.143.171-18.857 8.691-18.353 18.974l.007.107 4.66 125.814.004.222c.232 7.289 6.042 13.195 13.341 13.532l.364.012.288.003.232-.002c7.548-.122 13.644-6.218 13.766-13.766l4.657-125.759c.611-10.461-8.325-19.14-18.655-19.14zm.311 186.664c-10.309 0-18.667 8.357-18.667 18.667 0 10.309 8.358 18.666 18.667 18.666s18.667-8.357 18.667-18.666-8.358-18.667-18.667-18.667" clip-rule="evenodd"/></svg>