<svg xmlns="http://www.w3.org/2000/svg" width="512" height="512" fill="none"><path fill="currentColor" fill-rule="evenodd" d="M48 256c0-114.837 93.163-208 208-208s208 93.163 208 208-93.163 208-208 208S48 370.837 48 256m384 0c0-97.163-78.837-176-176-176S80 158.837 80 256s78.837 176 176 176 176-78.837 176-176M256.173 144.051l-.121-.001h-.266a21.742 21.742 0 0 0-21.51 22.725l5.742 121.977c.957 20.331 31.009 20.33 31.964-.001l5.73-121.95a21.76 21.76 0 0 0-6.072-16.108 21.74 21.74 0 0 0-14.803-6.627l-.386-.011zM236 347.91c0 11.046 8.954 20 20 20s20-8.954 20-20-8.954-20-20-20-20 8.954-20 20" clip-rule="evenodd"/></svg>