<svg xmlns="http://www.w3.org/2000/svg" width="512" height="512" fill="none"><path fill="currentColor" fill-rule="evenodd" d="M450 128a46 46 0 0 0-44.11 59l-71.37 71.36a45.9 45.9 0 0 0-29 0l-52.91-52.91c4.77-18.614-2.532-38.232-18.313-49.196-15.78-10.965-36.714-10.965-52.494 0s-23.083 30.582-18.313 49.196L75 293.88c-20.21-5.983-41.904 2.511-52.68 20.625-10.777 18.114-7.89 41.232 7.012 56.138 14.902 14.907 38.018 17.802 56.136 7.031 18.118-10.77 26.618-32.461 20.642-52.674l87.37-87.36a45.84 45.84 0 0 0 29 0l52.92 52.92c-4.77 18.614 2.532 38.232 18.313 49.196 15.78 10.965 36.714 10.965 52.494 0s23.083-30.582 18.313-49.196L437 218.12a46 46 0 0 0 54.863-63.221A46 46 0 0 0 450 128" clip-rule="evenodd"/></svg>