<svg xmlns="http://www.w3.org/2000/svg" width="512" height="512" fill="none"><path fill="currentColor" fill-rule="evenodd" d="M416 168c0-22.091 17.909-40 40-40s40 17.909 40 40-17.909 40-40 40c-5.159 0-10.09-.977-14.618-2.755l-84.137 84.137A39.9 39.9 0 0 1 360 304c0 22.091-17.909 40-40 40s-40-17.909-40-40c0-5.159.977-10.09 2.755-14.618l-60.137-60.137A39.9 39.9 0 0 1 208 232c-5.159 0-10.09-.977-14.618-2.755L93.245 329.382A39.9 39.9 0 0 1 96 344c0 22.091-17.909 40-40 40s-40-17.909-40-40 17.909-40 40-40c5.159 0 10.09.977 14.618 2.755l100.137-100.137A39.9 39.9 0 0 1 168 192c0-22.091 17.909-40 40-40s40 17.909 40 40c0 5.159-.977 10.09-2.755 14.618l60.137 60.137A39.9 39.9 0 0 1 320 264c5.159 0 10.09.977 14.618 2.755l84.137-84.137A39.9 39.9 0 0 1 416 168m48 0a8 8 0 1 0-16 0 8 8 0 0 0 16 0M320 296a8 8 0 1 1 0 16 8 8 0 0 1 0-16M216 192a8 8 0 1 0-16 0 8 8 0 0 0 16 0M56 336a8 8 0 1 1 0 16 8 8 0 0 1 0-16" clip-rule="evenodd"/></svg>