<svg xmlns="http://www.w3.org/2000/svg" width="512" height="512" fill="none"><path fill="currentColor" fill-rule="evenodd" d="M456 128a40 40 0 0 0-37.23 54.6l-84.17 84.17a39.87 39.87 0 0 0-29.2 0l-60.17-60.17c6.554-16.681 1.211-35.686-13.074-46.509s-34.026-10.823-48.311 0c-14.286 10.823-19.628 29.828-13.075 46.509L70.6 306.77c-17.633-6.917-37.7-.518-48.074 15.329s-8.21 36.799 5.183 50.193 34.344 15.556 50.192 5.182 22.246-30.441 15.33-48.074L193.4 229.23a39.85 39.85 0 0 0 29.2 0l60.17 60.17c-6.553 16.681-1.211 35.686 13.075 46.509s34.026 10.823 48.311 0 19.628-29.828 13.074-46.509l84.17-84.17a40.001 40.001 0 0 0 51.481-52.779A40 40 0 0 0 456 128" clip-rule="evenodd"/></svg>