<svg xmlns="http://www.w3.org/2000/svg" width="256" height="256" fill="none"><path fill="currentColor" d="m149.453 12.023.069.001c6.344.11 11.763 4.616 13.042 10.844l.047.249.039.25 3.356 23.93c.001.01.006.017.034.033l.025.013a85.6 85.6 0 0 1 11.196 6.502l.625.434 22.512-9.08.071-.027c6.026-2.3 12.821.028 16.188 5.516l.105.174L238.184 88c3.294 5.677 2.008 12.908-3.04 17.094l-.16.129-19.094 15.022-.007.009-.002.013.008.098c.197 2.477.301 4.711.3 6.931a85 85 0 0 1-.193 5.269l-.064.876-.056.678 19.132 15.037.126.102c4.987 4.142 6.297 11.257 3.149 16.89l-.103.181-3.177 5.507-11.783 1.504-.015-13.087-20.717-16.281a8.02 8.02 0 0 1-3.026-7.073l.02-.18.023-.181a69.5 69.5 0 0 0 .686-9.289c0-1.586-.073-3.269-.216-5.168l-.034-.442-.012-.148a16.08 16.08 0 0 1 5.878-13.693l.193-.154 17.22-13.549-19.101-33.115-20.261 8.173a15.98 15.98 0 0 1-14.7-1.438l-.215-.142-.209-.144a69.5 69.5 0 0 0-8.964-5.325l-.62-.304a16.08 16.08 0 0 1-8.947-12.002l-.037-.242-3.015-21.5h-38.276l-3.04 21.674a16 16 0 0 1-8.408 11.97l-.215.111-.22.11a74 74 0 0 0-9.11 5.252l-.576.393a16.04 16.04 0 0 1-14.909 1.828l-.237-.092-20.262-8.176-19.103 33.118 17.166 13.512c4.113 3.232 6.383 8.265 6.1 13.518l-.015.246-.02.251a60 60 0 0 0-.257 5.463c0 1.594.074 3.265.22 5.076l.056.678a16.09 16.09 0 0 1-5.852 13.711l-.193.156-17.22 13.547 19.1 33.116 20.262-8.172a15.9 15.9 0 0 1 5.861-1.158v16.075l-22.401 9.036-.07.027a13.39 13.39 0 0 1-16.189-5.516l-.105-.175-21.422-37.137c-3.294-5.676-2.008-12.907 3.04-17.094l.16-.129 19.07-15.003.008-.01.002-.012-.006-.064a81 81 0 0 1-.32-6.952c0-2.27.11-4.556.319-6.863l-19.1-15.034a8 8 0 0 1-.223-.182 13.45 13.45 0 0 1-3.049-16.804l.103-.181 21.43-37.15a13.39 13.39 0 0 1 16.102-5.774l.263.099 22.492 9.074c.017.007.037.005.089-.031a90 90 0 0 1 11.087-6.535l.707-.348 3.375-24.053.032-.198c1.102-6.321 6.47-10.995 12.852-11.222l.283-.007z"/><path fill="currentColor" fill-rule="evenodd" d="M139.704 243.976h15.123l-27.844-62.121H112.75l-27.755 62.121h14.767l5.515-13.311h28.912zm-29.801-24.227 9.875-23.783 9.874 23.783zM188.242 181.855h-26.954v62.121h14.411v-17.127h12.543c16.635 0 27.044-8.609 27.044-22.453 0-13.933-10.409-22.541-27.044-22.541m-.8 33.279h-11.743v-21.565h11.743c8.806 0 13.254 3.994 13.254 10.827 0 6.745-4.448 10.738-13.254 10.738" clip-rule="evenodd"/><path fill="currentColor" d="M239.985 243.976h-14.411v-62.121h14.411z"/><path fill="currentColor" fill-rule="evenodd" d="M69.496 197.385H45.497l-14.999-26.551-3.5-15.03c4.833-5.344 14.9-16.231 16.5-17.033 2-1.002 7.499-11.022 7.499-12.524 0-1.203-5-10.855-7.5-15.531L30.498 99.695c-1.167-1.503-3.5-5.611-3.5-10.02s12.333-22.878 18.5-31.561l12.499-4.51 19.498 4.51 19.999-4.51 2-20.54 13.999-17.534 31.998 2.505 10.999 20.54 10 19.539h37.498c4.833 3.172 14.599 9.819 14.999 11.021s8.166 17.534 11.999 25.55l-11.999 16.031-8.5 21.041 10.5 22.043 9.999 12.525 4.017 5.51-2.517 3.507h-12.499v6.513l-10.702-4.509-14.297-4.007h-41.997v20.178l-7.885 2.449-13.162-22.627h-26.109l-18.84 33.064-9.5-6.012zm98.308-74.076c-1.906-19.01-16.9-34.035-35.86-35.943-16.828-1.666-32.872 7.438-40.099 22.742s-4.075 33.508 7.873 45.48c11.947 11.972 30.115 15.129 45.388 7.888s24.359-23.318 22.698-40.167m-56.773 20.943a24.08 24.08 0 0 1-4.724-27.288c4.336-9.183 13.963-14.645 24.052-13.646 11.374 1.145 20.381 10.169 21.525 21.58.995 10.096-4.456 19.743-13.62 24.087a23.96 23.96 0 0 1-27.233-4.733" clip-rule="evenodd"/></svg>