<svg xmlns="http://www.w3.org/2000/svg" width="512" height="512" fill="none"><path fill="currentColor" d="m298.924 23 .138.002c12.69.22 23.529 9.213 26.086 21.644l.094.497.078.5 6.712 47.766c.003.018.013.035.068.066l.051.025a171 171 0 0 1 22.392 12.98l1.251.866 45.027-18.125.141-.054c12.053-4.59 25.644.056 32.378 11.011l.21.348 42.846 74.129c6.59 11.33 4.018 25.764-6.079 34.121l-.321.258-38.189 29.984-.015.019-.004.025.017.196c.394 4.945.601 9.403.6 13.835q-.03 5.267-.387 10.517l-.127 1.75-.112 1.352 38.266 30.015.252.204c9.975 8.269 12.595 22.47 6.298 33.713l-.207.362L470.034 342h-36.961l13.364-23.122-41.436-32.499a16 16 0 0 1-6.052-14.117l.038-.361.048-.361a138 138 0 0 0 1.371-18.541c0-3.166-.145-6.526-.431-10.316l-.069-.882-.024-.295a32.06 32.06 0 0 1 11.757-27.332l.386-.309 34.443-27.044-38.205-66.102-40.525 16.314a32.01 32.01 0 0 1-29.402-2.87l-.428-.283-.419-.286a139 139 0 0 0-17.929-10.631l-1.24-.606c-9.544-4.542-16.226-13.489-17.895-23.957l-.074-.484-6.031-42.917h-76.557l-6.08 43.265a31.95 31.95 0 0 1-16.818 23.894l-.43.221-.44.218a148 148 0 0 0-18.221 10.485l-1.151.784c-8.714 6.073-19.857 7.438-29.82 3.65l-.474-.185-40.526-16.32-38.208 66.106 34.334 26.972c8.226 6.451 12.767 16.498 12.2 26.984l-.03.491-.039.5c-.341 3.767-.514 7.37-.514 10.905 0 3.182.147 6.517.438 10.132l.113 1.354c.827 10.462-3.523 20.668-11.704 27.368l-.387.311-34.443 27.042 38.205 66.102 40.526-16.312a31.9 31.9 0 0 1 11.722-2.311v32.087l-44.806 18.036-.14.054c-12.053 4.59-25.645-.056-32.379-11.011l-.21-.348-42.846-74.129c-6.59-11.33-4.018-25.764 6.08-34.121l.32-.258 38.143-29.947.015-.02.004-.024-.012-.128c-.42-4.869-.64-9.429-.64-13.877 0-4.531.22-9.094.638-13.699l-38.201-30.008a17 17 0 0 1-.447-.365c-9.816-8.3-12.346-22.382-6.099-33.541l.207-.363 42.86-74.155c6.582-11.097 20.118-15.917 32.208-11.526l.527.198 44.986 18.114c.035.014.074.01.177-.062a180.4 180.4 0 0 1 22.176-13.045l1.415-.695 6.748-48.011.065-.396c2.205-12.618 12.941-21.946 25.706-22.4l.565-.015z"/><path fill="currentColor" fill-rule="evenodd" d="M263.905 173.389c37.921 3.809 67.912 33.8 71.723 71.748 3.322 33.632-14.849 65.723-45.398 80.177s-66.886 8.151-90.783-15.746-30.2-60.233-15.746-90.783c14.454-30.549 46.545-48.72 80.204-45.396m-51.278 59.082c-8.672 18.33-4.891 40.131 9.447 54.47 14.339 14.338 36.14 18.119 54.47 9.447s29.232-27.927 27.242-48.08c-2.288-22.777-20.302-40.791-43.053-43.076-20.179-1.993-39.434 8.91-48.106 27.239M279.426 486h30.247l-55.691-124h-28.469L170 486h29.536l11.032-26.571h57.826zm-59.606-48.36 19.75-47.474 19.75 47.474zM376.507 362h-53.912v124h28.824v-34.189h25.088c33.273 0 54.09-17.182 54.09-44.817 0-27.811-20.817-44.994-54.09-44.994m-1.601 66.429h-23.487v-43.046h23.487c17.615 0 26.511 7.971 26.511 21.611 0 13.463-8.896 21.435-26.511 21.435" clip-rule="evenodd"/><path fill="currentColor" d="M480 486h-28.824V362H480z"/></svg>