<svg xmlns="http://www.w3.org/2000/svg" width="512" height="512" fill="none"><path fill="currentColor" fill-rule="evenodd" d="M48 56a8 8 0 0 1 8-8h96a8 8 0 0 1 8 8v96a8 8 0 0 1-8 8H56a8 8 0 0 1-8-8zm152 0a8 8 0 0 1 8-8h96a8 8 0 0 1 8 8v96a8 8 0 0 1-8 8h-96a8 8 0 0 1-8-8zm160-8a8 8 0 0 0-8 8v96a8 8 0 0 0 8 8h96a8 8 0 0 0 8-8V56a8 8 0 0 0-8-8zM48 208a8 8 0 0 1 8-8h96a8 8 0 0 1 8 8v96a8 8 0 0 1-8 8H56a8 8 0 0 1-8-8zm160-8a8 8 0 0 0-8 8v96a8 8 0 0 0 8 8h96a8 8 0 0 0 8-8v-96a8 8 0 0 0-8-8zm144 8a8 8 0 0 1 8-8h96a8 8 0 0 1 8 8v96a8 8 0 0 1-8 8h-96a8 8 0 0 1-8-8zM56 352a8 8 0 0 0-8 8v96a8 8 0 0 0 8 8h96a8 8 0 0 0 8-8v-96a8 8 0 0 0-8-8zm144 8a8 8 0 0 1 8-8h96a8 8 0 0 1 8 8v96a8 8 0 0 1-8 8h-96a8 8 0 0 1-8-8zm160-8a8 8 0 0 0-8 8v96a8 8 0 0 0 8 8h96a8 8 0 0 0 8-8v-96a8 8 0 0 0-8-8z" clip-rule="evenodd"/></svg>