<svg xmlns="http://www.w3.org/2000/svg" width="512" height="512" fill="none"><path fill="currentColor" fill-rule="evenodd" d="M48 104c0-30.928 25.072-56 56-56s56 25.072 56 56-25.072 56-56 56-56-25.072-56-56m80 0c0-13.255-10.745-24-24-24s-24 10.745-24 24 10.745 24 24 24 24-10.745 24-24m72 0c0-30.928 25.072-56 56-56s56 25.072 56 56-25.072 56-56 56-56-25.072-56-56m80 0c0-13.255-10.745-24-24-24s-24 10.745-24 24 10.745 24 24 24 24-10.745 24-24m128-56c-30.928 0-56 25.072-56 56s25.072 56 56 56 56-25.072 56-56-25.072-56-56-56m0 32c13.255 0 24 10.745 24 24s-10.745 24-24 24-24-10.745-24-24 10.745-24 24-24M48 256c0-30.928 25.072-56 56-56s56 25.072 56 56-25.072 56-56 56-56-25.072-56-56m80 0c0-13.255-10.745-24-24-24s-24 10.745-24 24 10.745 24 24 24 24-10.745 24-24m128-56c-30.928 0-56 25.072-56 56s25.072 56 56 56 56-25.072 56-56-25.072-56-56-56m0 32c13.255 0 24 10.745 24 24s-10.745 24-24 24-24-10.745-24-24 10.745-24 24-24m96 24c0-30.928 25.072-56 56-56s56 25.072 56 56-25.072 56-56 56-56-25.072-56-56m80 0c0-13.255-10.745-24-24-24s-24 10.745-24 24 10.745 24 24 24 24-10.745 24-24m-328 96c-30.928 0-56 25.072-56 56s25.072 56 56 56 56-25.072 56-56-25.072-56-56-56m0 32c13.255 0 24 10.745 24 24s-10.745 24-24 24-24-10.745-24-24 10.745-24 24-24m96 24c0-30.928 25.072-56 56-56s56 25.072 56 56-25.072 56-56 56-56-25.072-56-56m80 0c0-13.255-10.745-24-24-24s-24 10.745-24 24 10.745 24 24 24 24-10.745 24-24m128-56c-30.928 0-56 25.072-56 56s25.072 56 56 56 56-25.072 56-56-25.072-56-56-56m0 32c13.255 0 24 10.745 24 24s-10.745 24-24 24-24-10.745-24-24 10.745-24 24-24" clip-rule="evenodd"/></svg>