<svg xmlns="http://www.w3.org/2000/svg" width="24" height="24" fill="none"><path fill="currentColor" d="M3.111 13.111h6.667A1.11 1.11 0 0 0 10.888 12V3.111A1.11 1.11 0 0 0 9.779 2H3.11A1.11 1.11 0 0 0 2 3.111V12a1.11 1.11 0 0 0 1.111 1.111M2 20.89A1.11 1.11 0 0 0 3.111 22h6.667a1.11 1.11 0 0 0 1.11-1.111v-4.445a1.11 1.11 0 0 0-1.11-1.11H3.11A1.11 1.11 0 0 0 2 16.443zm11.111 0A1.11 1.11 0 0 0 14.222 22h6.667A1.11 1.11 0 0 0 22 20.889V13.11A1.11 1.11 0 0 0 20.889 12h-6.667a1.11 1.11 0 0 0-1.11 1.111zm1.111-11.111h6.667A1.11 1.11 0 0 0 22 8.667V3.11A1.11 1.11 0 0 0 20.889 2h-6.667a1.11 1.11 0 0 0-1.11 1.111v5.556a1.11 1.11 0 0 0 1.11 1.11"/></svg>