<svg xmlns="http://www.w3.org/2000/svg" width="512" height="512" fill="none"><path fill="currentColor" fill-rule="evenodd" d="M356.262 125.43C364.93 146.356 385.35 160 408 160c30.914-.033 55.967-25.086 56-56 0-22.65-13.644-43.07-34.57-51.737s-45.012-3.877-61.028 12.139-20.807 40.102-12.14 61.028M104 160c-30.928 0-56-25.072-56-56s25.072-56 56-56 56 25.072 56 56c-.033 30.914-25.086 55.967-56 56m152 0c-30.928 0-56-25.072-56-56s25.072-56 56-56 56 25.072 56 56c-.033 30.914-25.086 55.967-56 56M104 312c-30.928 0-56-25.072-56-56s25.072-56 56-56 56 25.072 56 56c-.033 30.914-25.086 55.967-56 56m96-56c0 30.928 25.072 56 56 56 30.914-.033 55.967-25.086 56-56 0-30.928-25.072-56-56-56s-56 25.072-56 56m208 56c-22.65 0-43.07-13.644-51.738-34.57s-3.876-45.012 12.14-61.028 40.102-20.807 61.028-12.139S464 233.35 464 256c-.033 30.914-25.086 55.967-56 56M52.262 429.43C60.93 450.356 81.35 464 104 464c30.914-.033 55.967-25.086 56-56 0-22.65-13.644-43.07-34.57-51.737s-45.012-3.877-61.028 12.139-20.807 40.102-12.14 61.028M256 464c-22.65 0-43.07-13.644-51.738-34.57s-3.876-45.012 12.14-61.028 40.102-20.807 61.028-12.139S312 385.35 312 408c-.033 30.914-25.086 55.967-56 56m100.262-34.57C364.93 450.356 385.35 464 408 464c30.914-.033 55.967-25.086 56-56 0-22.65-13.644-43.07-34.57-51.737s-45.012-3.877-61.028 12.139-20.807 40.102-12.14 61.028" clip-rule="evenodd"/></svg>