<svg xmlns="http://www.w3.org/2000/svg" width="512" height="512" fill="none"><path fill="currentColor" fill-rule="evenodd" d="M64 48c-17.673 0-32 14.327-32 32v16c0 17.673 14.327 32 32 32h384c17.673 0 32-14.327 32-32V80c0-17.673-14.327-32-32-32zm0 116v244c0 30.928 25.072 56 56 56h272c30.928 0 56-25.072 56-56V164a4 4 0 0 0-4-4H68a4 4 0 0 0-4 4m267 151.63-63.69 63.68c-6.248 6.243-16.372 6.243-22.62 0L181 315.63c-6.09-6.09-6.65-16-.85-22.38a16 16 0 0 1 23.16-.56L240 329.37V224.45c0-8.61 6.62-16 15.23-16.43A16 16 0 0 1 272 224v105.37l36.69-36.68a16 16 0 0 1 23.16.56c5.8 6.37 5.24 16.29-.85 22.38" clip-rule="evenodd"/></svg>