<svg xmlns="http://www.w3.org/2000/svg" width="512" height="512" fill="none"><path fill="currentColor" fill-rule="evenodd" d="M436 48H76c-24.3 0-44 19.7-44 44v24c0 20.14 13.532 37.12 32 42.344V408l.01.926c.583 30.482 25.388 54.983 55.942 55.074H392l.926-.01c30.482-.583 54.983-25.388 55.074-55.942V158.344c18.468-5.224 32-22.204 32-42.344V92c0-24.3-19.699-44-44-44m-20 112H96v247.952c.04 13.132 10.569 23.793 23.604 24.044L120 432h271.952c13.132-.039 23.793-10.569 24.044-23.604L416 408zM76 80h360c6.627 0 12 5.373 12 12v24c0 6.627-5.373 12-12 12H76c-6.627 0-12-5.373-12-12V92c0-6.627 5.373-12 12-12m232.686 212.686c6.249-6.248 16.379-6.248 22.628 0 6.161 6.162 6.247 16.099.256 22.365l-.256.263-64 64c-6.162 6.161-16.099 6.247-22.365.256l-.263-.256-64-64c-6.248-6.249-6.248-16.379 0-22.628 6.162-6.161 16.099-6.247 22.365-.256l.263.256L240 329.373V224c0-8.837 7.163-16 16-16 8.731 0 15.829 6.994 15.997 15.685L272 224v105.373z" clip-rule="evenodd"/></svg>