<svg xmlns="http://www.w3.org/2000/svg" width="513" height="512" fill="none"><path fill="currentColor" fill-rule="evenodd" d="M442.801 22c-20.9 0-38.68 13.357-45.269 32H116.069C109.48 35.357 91.7 22 70.801 22c-26.51 0-48 21.49-48 48 0 20.9 13.357 38.679 32 45.269v281.462c-18.643 6.59-32 24.369-32 45.269 0 26.51 21.49 48 48 48 20.9 0 38.679-13.357 45.268-32h281.463c6.589 18.643 24.369 32 45.269 32 26.509 0 48-21.49 48-48 0-20.9-13.357-38.679-32-45.269V115.269c18.643-6.59 32-24.37 32-45.269 0-26.51-21.491-48-48-48m-372 32c-8.837 0-16 7.163-16 16s7.163 16 16 16 16-7.163 16-16-7.164-16-16-16m16 61.269c13.638-4.821 24.448-15.63 29.268-29.269h281.463c4.821 13.639 15.63 24.448 29.269 29.269v281.462c-13.639 4.821-24.448 15.63-29.269 29.269H273.603V325.475c38.351-2.932 68.821-16.404 90.728-40.164 39.022-42.322 35.222-101.332 35.041-103.823l-1.035-14.265-14.149-1.043c-2.471-.181-61.005-4.015-102.988 35.325-9.771 9.155-17.778 19.799-24.024 31.871-6.246-12.072-14.254-22.716-24.024-31.871-41.982-39.341-100.516-35.506-102.988-35.325l-14.15 1.043-1.035 14.265c-.18 2.491-3.981 61.501 35.042 103.823 21.906 23.76 52.376 37.231 90.727 40.164V426H116.069c-4.82-13.639-15.63-24.448-29.268-29.269zM442.8 54c-8.837 0-16 7.163-16 16s7.163 16 16 16 16-7.163 16-16-7.164-16-16-16m-372 372c-8.837 0-16 7.163-16 16s7.163 16 16 16 16-7.163 16-16-7.164-16-16-16m372 0c-8.837 0-16 7.163-16 16s7.163 16 16 16 16-7.163 16-16-7.164-16-16-16M303.372 225.949c19.999-18.863 46.268-24.548 62.751-26.187-1.577 16.503-7.156 42.718-25.856 62.999-15.468 16.777-37.572 26.631-65.86 29.399 2.733-28.405 12.444-50.628 28.965-66.211m-129.104 37.009c-18.711-20.161-24.35-46.643-25.977-63.258 16.371 1.589 42.375 7.213 62.493 26.065 16.641 15.592 26.417 37.876 29.162 66.393-28.176-2.756-50.221-12.544-65.678-29.2" clip-rule="evenodd"/></svg>