<svg xmlns="http://www.w3.org/2000/svg" width="512" height="512" fill="none"><path fill="currentColor" fill-rule="evenodd" d="M396.731 54C403.321 35.357 421.1 22 442 22c26.51 0 48 21.49 48 48 0 20.9-13.357 38.679-32 45.269v281.462c18.643 6.59 32 24.369 32 45.269 0 26.51-21.49 48-48 48-20.9 0-38.679-13.357-45.269-32H115.269c-6.59 18.643-24.37 32-45.269 32-26.51 0-48-21.49-48-48 0-20.9 13.357-38.679 32-45.269V115.269C35.357 108.679 22 90.899 22 70c0-26.51 21.49-48 48-48 20.9 0 38.679 13.357 45.269 32zM54 70c0-8.837 7.163-16 16-16s16 7.163 16 16-7.163 16-16 16-16-7.163-16-16m61.269 16c-4.821 13.639-15.63 24.448-29.269 29.269v281.462c13.639 4.821 24.448 15.63 29.269 29.269h281.462c4.821-13.639 15.63-24.448 29.269-29.269V115.269c-13.639-4.821-24.448-15.63-29.269-29.269zM426 70c0-8.837 7.163-16 16-16s16 7.163 16 16-7.163 16-16 16-16-7.163-16-16M54 442c0-8.837 7.163-16 16-16s16 7.163 16 16-7.163 16-16 16-16-7.163-16-16m372 0c0-8.837 7.163-16 16-16s16 7.163 16 16-7.163 16-16 16-16-7.163-16-16" clip-rule="evenodd"/></svg>