<svg xmlns="http://www.w3.org/2000/svg" width="512" height="512" fill="none"><path fill="currentColor" fill-rule="evenodd" d="M256 48C141.163 48 48 141.163 48 256s93.163 208 208 208 208-93.163 208-208S370.837 48 256 48m0 32c97.163 0 176 78.837 176 176s-78.837 176-176 176S80 353.163 80 256 158.837 80 256 80m-10.91 210.42v37.32a8.32 8.32 0 0 1-14.09 5.97l-84.42-79.77a8.2 8.2 0 0 1 0-11.94l84.46-79.74a8.32 8.32 0 0 1 14.05 6v37.32c88.73 0 117.42 55.64 122.87 117.09.71 7.75-8.89 12.08-14.29 6.43-24.07-25.21-51.51-38.68-108.58-38.68" clip-rule="evenodd"/></svg>