<svg xmlns="http://www.w3.org/2000/svg" width="512" height="512" fill="none"><path fill="currentColor" fill-rule="evenodd" d="m256 168.394-1.268.059c-74.903 3.724-128.949 32.068-163.086 81.815C61.294 294.498 48 353.384 48 424.032c0 15.218 19.243 21.842 28.61 9.848 26.657-34.131 47.298-53.524 73.317-66.975l.898-.461c26.416-13.441 59.234-20.695 103.871-22.141l1.304-.041v79.77c0 14.076 16.866 21.293 27.048 11.574l176-168c6.603-6.304 6.603-16.845 0-23.148l-176-168C272.866 66.74 256 73.956 256 88.032zm32-42.97 136.827 130.608L288 386.639v-58.607c0-8.837-7.163-16-16-16-58.908 0-101.86 8.399-136.769 26.447l-.924.48c-18.697 9.789-34.81 21.971-51.182 38.525l-.923.937.07-.685c4.58-43.974 16.187-80.841 35.759-109.362 30.478-44.415 80.193-68.342 153.969-68.342 8.837 0 16-7.164 16-16z" clip-rule="evenodd"/></svg>