<svg xmlns="http://www.w3.org/2000/svg" width="512" height="512" fill="none"><path fill="currentColor" fill-rule="evenodd" d="m340.841 186.079-75.506-87.58A13 13 0 0 0 255.493 94a13 13 0 0 0-9.842 4.499l-75.506 87.58c-7.206 8.36-1.232 21.272 9.842 21.272H331.02c11.074 0 17.048-12.912 9.821-21.272M170.159 326.92l75.506 87.58a13 13 0 0 0 9.842 4.498c3.784 0 7.379-1.643 9.842-4.498l75.506-87.58c7.206-8.36 1.232-21.273-9.842-21.273H179.98c-11.074 0-17.048 12.913-9.821 21.273" clip-rule="evenodd"/></svg>