<svg xmlns="http://www.w3.org/2000/svg" width="512" height="512" fill="none"><path fill="currentColor" fill-rule="evenodd" d="m228.952 76.458-176 168c-6.603 6.303-6.603 16.844 0 23.148l176 168 .308.286c10.21 9.288 26.74 2.075 26.74-11.86v-79.77l1.304.041c45.145 1.462 78.2 8.865 104.769 22.602 26.019 13.451 46.66 32.844 73.317 66.975 9.367 11.994 28.61 5.37 28.61-9.848 0-70.648-13.294-129.534-43.646-173.764l-1.108-1.598c-34.194-48.755-87.88-76.533-161.978-80.217l-1.268-.059V88.032c0-14.076-16.866-21.293-27.048-11.574M87.172 256.032 224 125.423v58.609c0 8.836 7.163 16 16 16 73.776 0 123.491 23.927 153.969 68.342l.778 1.145c19.102 28.36 30.461 64.83 34.98 108.217l.07.685-.029-.03c-16.948-17.291-33.565-29.865-52.999-39.912-34.909-18.048-77.861-26.447-136.769-26.447l-.315.003c-8.691.168-15.685 7.265-15.685 15.997v58.608z" clip-rule="evenodd"/></svg>