<svg xmlns="http://www.w3.org/2000/svg" width="512" height="512" fill="none"><path fill="currentColor" fill-rule="evenodd" d="M256 48C141.163 48 48 141.163 48 256s93.163 208 208 208 208-93.163 208-208S370.837 48 256 48m0 32c97.163 0 176 78.837 176 176s-78.837 176-176 176S80 353.163 80 256 158.837 80 256 80m0 74c8.731 0 15.829 6.994 15.997 15.685L272 170v133.584l52.73-52.322c6.273-6.224 16.404-6.184 22.628.088 6.137 6.186 6.184 16.123.169 22.366l-.257.262-80 79.38c-6.151 6.102-16.019 6.188-22.274.257l-.266-.257-80-79.38c-6.272-6.224-6.312-16.355-.088-22.628 6.138-6.185 16.074-6.309 22.364-.343l.264.255L240 303.584V170c0-8.837 7.163-16 16-16" clip-rule="evenodd"/></svg>