<svg xmlns="http://www.w3.org/2000/svg" width="512" height="512" fill="none"><path fill="currentColor" fill-rule="evenodd" d="M279.997 99.603C279.785 86.531 269.122 76 256 76c-13.255 0-24 10.745-24 24v254.059l-103.029-103.03-.292-.286c-9.394-9.085-24.374-8.99-33.65.286-9.372 9.373-9.372 24.569 0 33.942l144 144 .292.286c9.394 9.085 24.374 8.99 33.65-.286l144-144 .286-.292c9.085-9.394 8.99-24.374-.286-33.65l-.292-.286c-9.394-9.085-24.374-8.99-33.65.286L280 354.059V100z" clip-rule="evenodd"/></svg>