<svg xmlns="http://www.w3.org/2000/svg" width="512" height="512" fill="none"><path fill="currentColor" fill-rule="evenodd" d="M256 48C141.163 48 48 141.163 48 256s93.163 208 208 208 208-93.163 208-208S370.837 48 256 48m0 32c97.163 0 176 78.837 176 176s-78.837 176-176 176S80 353.163 80 256 158.837 80 256 80m-17.978 84.73c6.224-6.272 16.355-6.312 22.628-.088 6.185 6.138 6.309 16.074.343 22.364l-.255.264L208.415 240H342c8.837 0 16 7.163 16 16 0 8.731-6.994 15.829-15.685 15.997L342 272H208.415l52.323 52.73c6.137 6.186 6.184 16.123.169 22.366l-.257.262c-6.186 6.137-16.123 6.184-22.366.169l-.262-.257-79.38-80c-6.102-6.151-6.188-16.019-.257-22.274l.257-.266z" clip-rule="evenodd"/></svg>