<svg xmlns="http://www.w3.org/2000/svg" width="512" height="512" fill="none"><path fill="currentColor" fill-rule="evenodd" d="M260.971 95.03c-9.373-9.373-24.569-9.373-33.942 0l-144 143.999-.286.292c-9.085 9.394-8.99 24.374.286 33.65l144 144 .292.286c9.394 9.085 24.374 8.99 33.65-.286l.286-.292c9.085-9.394 8.99-24.374-.286-33.65L157.941 280H412l.397-.003C425.469 279.785 436 269.122 436 256c0-13.255-10.745-24-24-24H157.941l103.03-103.029.286-.292c9.085-9.394 8.99-24.374-.286-33.65" clip-rule="evenodd"/></svg>