<svg xmlns="http://www.w3.org/2000/svg" width="512" height="512" fill="none"><path fill="currentColor" fill-rule="evenodd" d="M256.46 48.74c-114.84 0-208 93.11-208 208s93.12 208 208 208 208-93.12 208-208-93.15-208-208-208M381.28 252c-2.85 32.63-16.79 49.7-28 58.26S328.61 322.58 317 320.5a41.6 41.6 0 0 1-26.82-17.19 62.06 62.06 0 0 1-44 17.57 51.66 51.66 0 0 1-38.55-16.83c-11.38-12.42-17-30.36-15.32-49.23 3-35 30.91-57.39 56.87-61.48 27.2-4.29 52.23 6.54 62.9 19.46l3.85 4.66-6.34 50.38c-1.19 14.34 3.28 23.48 12.29 25.1 2.39.42 8.1-.13 14.37-4.93 6.72-5.15 15.14-16 17.1-38.47 2.35-26.54-4.35-49.19-19.25-65.49-15.49-16.9-39.09-25.84-68.23-25.84-54 0-101.81 44.43-106.58 99-2.28 26.2 5.67 50.68 22.4 68.93 16.36 17.86 39.31 27.74 64.66 27.74 19 0 30.61-2.05 49.48-8.78 7.285-2.596 15.294 1.205 17.89 8.49s-1.205 15.294-8.49 17.89c-21.82 7.77-36.68 10.4-58.88 10.4-33.28 0-63.57-13.06-85.3-36.77C139 321 128.42 288.94 131.4 254.82c2.91-33.33 18.45-64.63 43.77-88.12s57.57-36.49 90.7-36.49c37.2 0 67.93 12.08 88.87 34.93 20.09 21.91 29.51 52.75 26.54 86.86m-161.05 5.26c1.78-20.42 18.51-33.93 33.34-36.26a49.6 49.6 0 0 1 32.93 6.3l-3.2 25.45a14 14 0 0 0-.34 2.07c-2.02 23.12-16.44 38.06-36.75 38.06a23.65 23.65 0 0 1-17.91-7.75c-6.07-6.65-9.07-16.81-8.07-27.87" clip-rule="evenodd"/></svg>