<svg xmlns="http://www.w3.org/2000/svg" width="512" height="512" fill="none"><path fill="currentColor" fill-rule="evenodd" d="M256.08 48.08c-114.837 0-208 93.164-208 208 0 114.837 93.163 208 208 208 114.847 0 208-93.143 208-208 0-114.836-93.163-208-208-208m0 32c97.163 0 176 78.837 176 176 0 97.183-78.826 176-176 176-97.163 0-176-78.836-176-176 0-97.163 78.837-176 176-176m10.06 50.13c75.204 0 121.618 50.664 115.416 121.775-2.127 24.222-10.787 43.017-24.359 55.25-11.898 10.723-27.038 15.581-39.951 13.305-11.284-2.027-20.447-8.035-26.639-17.011l-.169-.248-.011.012c-11.228 10.928-26.175 17.289-42.91 17.539l-1.027.008c-33.898 0-57.022-29.965-53.877-66.055 2.803-32.169 28.08-56.932 56.854-61.402 24.207-3.839 50.35 4.714 62.548 19.012l.366.435 3.855 4.664-6.34 50.373-.021.262c-1.226 15.428 3.892 23.192 12.012 24.794l.263.05c4.043.712 10.587-1.388 16.301-6.537 8.068-7.272 13.68-19.452 15.212-36.892 4.774-54.744-28.746-91.334-87.523-91.334-53.857 0-101.812 44.488-106.573 99.047-4.68 53.635 34.142 96.623 87.053 96.623 18.922 0 30.538-2.026 49.492-8.778 7.284-2.595 15.292 1.207 17.886 8.49 2.595 7.284-1.206 15.292-8.49 17.886-21.956 7.821-36.749 10.402-58.888 10.402-69.431 0-121.047-57.154-114.947-127.057C137.69 185.87 197.689 130.21 266.14 130.21m11.418 92.822c-7.454-2.472-15.74-3.258-23.749-1.988-16.551 2.571-31.664 17.377-33.302 36.171-1.805 20.72 9.697 35.625 25.983 35.625 19.579 0 34.67-14.291 36.743-38.056q.097-1.095.35-2.129l.014-.054 3.181-25.278c-2.333-1.496-5.329-2.957-8.732-4.126z" clip-rule="evenodd"/></svg>