<svg xmlns="http://www.w3.org/2000/svg" width="512" height="512" fill="none"><path fill="currentColor" fill-rule="evenodd" d="M448.668 249.403C458.223 140.986 387.289 64.27 271.51 64.27c-105.525 0-198.218 85.169-207.45 190.605-9.328 106.552 69.843 193.395 176.43 193.395 35.435 0 55.505-3.359 83.739-15.024l1.739-.725c8.146-3.423 11.976-12.802 8.553-20.949-3.423-8.146-12.802-11.976-20.949-8.553-24.175 10.158-39.954 13.076-70.203 13.243l-2.879.008c-87.775 0-152.246-70.718-144.551-158.605C103.725 168.739 182.596 96.27 271.51 96.27c97.068 0 153.181 60.688 145.282 150.325-2.544 28.891-12.11 49.464-26.131 61.97-10.464 9.333-22.812 13.242-31.229 11.751-16.721-2.965-27.057-18.356-24.594-46.343l8.48-96.249.025-.317c.594-8.671-5.862-16.259-14.559-17.025-8.802-.776-16.567 5.731-17.342 14.534l-.798 9.058c-14.619-14.717-34.507-23.704-57.094-23.704-48.701 0-88.856 41.982-93.488 94.597-4.72 53.599 29.455 97.403 79.388 97.403 28.683 0 53.957-11.889 71.511-32.338 8.703 17.129 23.686 28.488 42.886 31.892 18.445 3.269 40.579-3.738 58.114-19.379 20.374-18.172 33.477-46.351 36.707-83.042M253.55 192.27c30.663 0 53.597 27.611 50.512 62.595-3.566 40.412-30.203 65.405-64.612 65.405-29.891 0-50.677-26.643-47.512-62.597 3.252-36.932 30.484-65.403 61.612-65.403" clip-rule="evenodd"/></svg>