<svg xmlns="http://www.w3.org/2000/svg" width="512" height="512" fill="none"><path fill="currentColor" fill-rule="evenodd" d="M367.499 338.094c.148 39.76-20.899 76.632-55.289 96.708-34.737 20.28-77.703 20.28-112.44 0-34.39-20.076-55.437-56.948-55.289-96.708l.009-1.096V147.3l-.005-.712a83.942 83.942 0 0 1 126.204-72.636 83.94 83.94 0 0 1 41.676 72.636l-.005.723-.132 188.792c-.484 30.623-25.446 55.194-56.073 55.194-30.32 0-55.089-24.082-56.051-54.278l-.022-.916L200.08 192c0-8.837 7.163-16 16-16 8.731 0 15.829 6.994 15.997 15.685l.003.315v143.684l.007.307c.409 12.834 10.835 23.097 23.674 23.303l.394.003c13.019 0 23.655-10.341 24.068-23.306l.007-.356.131-188.529a51.94 51.94 0 1 0-103.876-.561l.005.755v189.936l-.002.115a79.511 79.511 0 1 0 159.012.86l-.01-.975V159.74c0-8.837 7.163-16 16-16 8.731 0 15.829 6.994 15.997 15.685l.003.315v177.38z" clip-rule="evenodd"/></svg>