<svg xmlns="http://www.w3.org/2000/svg" width="512" height="512" fill="none"><path fill="currentColor" fill-rule="evenodd" d="m144.49 338.936-.001-189.925.002.183a83.94 83.94 0 0 1 126.198-73.542 83.94 83.94 0 0 1 41.676 72.636l-.005.723-.132 188.792c-.484 30.623-25.446 55.194-56.073 55.194-30.321 0-55.09-24.082-56.051-54.277l-.024-1.044V178h32l-.001 159.341.008.35c.409 12.834 10.835 23.097 23.674 23.303l.394.003c13.019 0 23.655-10.341 24.068-23.306l.007-.356.131-188.529a51.94 51.94 0 1 0-103.876-.561l.005.755-.001 189.633.028 1.257c1.296 42.419 35.738 76.366 78.171 77.048l1.302.01c43.029 0 78.164-34.206 79.472-77.058l.027-1.212.001-193.238h32l-.002 193.612c-.882 60.949-50.542 109.896-111.498 109.896-60.347 0-109.622-47.973-111.457-108.072z" clip-rule="evenodd"/></svg>