<svg xmlns="http://www.w3.org/2000/svg" width="512" height="512" fill="none"><path fill="currentColor" fill-rule="evenodd" d="M421.13 96H174.87a44.9 44.9 0 0 0-33.68 15.27 16 16 0 0 0-1.91 2.7L50 247.75a16 16 0 0 0 0 16.5l89.15 133.57a16.3 16.3 0 0 0 2 2.88 44.89 44.89 0 0 0 33.7 15.3h246.28c24.77-.028 44.842-20.1 44.87-44.87V140.87c-.028-24.77-20.1-44.842-44.87-44.87M366 311a16 16 0 1 1-22.63 22.62L289.67 280 236 333.65c-6.255 6.255-16.395 6.255-22.65 0s-6.255-16.395 0-22.65L267 257.33l-53.69-53.69c-6.252-6.266-6.241-16.413.025-22.665s16.413-6.241 22.665.025l53.69 53.7 53.67-53.7c6.252-6.252 16.388-6.252 22.64 0s6.252 16.388 0 22.64l-53.7 53.69z" clip-rule="evenodd"/></svg>