<svg xmlns="http://www.w3.org/2000/svg" width="512" height="512" fill="none"><path fill="currentColor" fill-rule="evenodd" d="M173.855 96h246.347c24.695.11 44.687 20.103 44.798 44.87v230.332c-.111 24.695-20.103 44.687-44.87 44.798H173.864a44.8 44.8 0 0 1-33.729-15.34 16 16 0 0 1-1.475-1.98l-.193-.315-88.475-133.527a16 16 0 0 1-.206-17.357l.205-.317 88.87-134.16q.63-.95 1.388-1.802l.312-.351.482-.527A44.84 44.84 0 0 1 173.855 96m246.275 32H173.885a12.84 12.84 0 0 0-9.009 3.703l-.054.053-82.3 124.242 82.357 124.296.126.124a12.8 12.8 0 0 0 8.497 3.577l.368.005h246.189c7.134-.032 12.909-5.807 12.941-12.87V140.942c-.032-7.135-5.807-12.91-12.87-12.942m-77.774 53.016c6.249-6.248 16.379-6.248 22.628 0 6.161 6.162 6.247 16.099.257 22.365l-.257.263-53.691 53.691 53.691 53.691c6.248 6.249 6.248 16.379 0 22.628-6.162 6.161-16.099 6.247-22.365.256l-.263-.256-53.691-53.692-53.691 53.692c-6.249 6.248-16.379 6.248-22.628 0-6.161-6.162-6.247-16.099-.256-22.365l.256-.263 53.692-53.691-53.692-53.691c-6.248-6.249-6.248-16.379 0-22.628 6.162-6.161 16.099-6.247 22.365-.256l.263.256 53.691 53.692z" clip-rule="evenodd"/></svg>