<svg xmlns="http://www.w3.org/2000/svg" width="512" height="512" fill="none"><path fill="currentColor" fill-rule="evenodd" d="M496 148.1a39.87 39.87 0 0 0-11.75-28.38l-91-91c-15.674-15.665-41.076-15.665-56.75 0L264 101.28 411.72 249l72.53-72.53A39.85 39.85 0 0 0 496 148.1m-468.29 190c-15.602 15.618-15.602 40.922 0 56.54l90.65 90.65c15.617 15.602 40.922 15.602 56.54 0l75.1-75.1L102.81 263zm361.35-66.91-116 116L125.77 240l116-116zm-78.932-28.973a16 16 0 0 0-17.438 3.473c-6.244 6.247-6.244 16.372 0 22.62a16 16 0 1 0 17.438-26.093M244.69 197.69a16 16 0 1 1 0 22.62c-6.244-6.248-6.244-16.373 0-22.62m17.438 92.527a16 16 0 0 0-17.438 3.473c-6.244 6.247-6.244 16.372 0 22.62a16 16 0 1 0 17.438-26.093M219.31 245.69a16 16 0 1 1-22.62 0c6.247-6.244 16.372-6.244 22.62 0" clip-rule="evenodd"/></svg>