<svg xmlns="http://www.w3.org/2000/svg" width="512" height="512" fill="none"><path fill="currentColor" fill-rule="evenodd" d="M464.61 47.39c-40.721-40.52-106.529-40.52-147.25 0l-69.76 69.89a4 4 0 0 0 4.2 6.58 35.8 35.8 0 0 1 11.69-2.54 47.7 47.7 0 0 1 33.94 14.06l79.19 79.19a47.7 47.7 0 0 1 14.06 33.94 35.7 35.7 0 0 1-2.54 11.69 4 4 0 0 0 6.58 4.2l69.89-69.76c40.52-40.721 40.52-106.53 0-147.25M274.8 158a16.003 16.003 0 0 0-22.63 0l-93.34 93.34a16.003 16.003 0 0 0 0 22.63l79.2 79.2a16.003 16.003 0 0 0 22.63 0L354 259.83a16.003 16.003 0 0 0 0-22.63zm-56.49 110.31a16 16 0 1 1 0-22.62c6.243 6.248 6.243 16.373 0 22.62m30.562 51.473a16 16 0 0 0 17.438-3.473c6.243-6.247 6.243-16.372 0-22.62a16 16 0 1 0-17.438 26.093m17.438-99.473a16 16 0 1 1 0-22.62c6.243 6.248 6.243 16.373 0 22.62m30.562 51.473a16 16 0 0 0 17.438-3.473c6.243-6.247 6.243-16.372 0-22.62a16 16 0 1 0-17.438 26.093M219.4 373.83a47.91 47.91 0 0 0 33.94 14c3.44 0 7.66-1.1 11.84-2.68a4 4 0 0 1 4.21 6.58l-72.75 72.88c-40.662 40.662-106.588 40.662-147.25 0s-40.662-106.588 0-147.25l77.23-77.04a4 4 0 0 1 6.64 4c-3.87 11.9-7.07 27.2-2.48 36.9a47.8 47.8 0 0 0 9.43 13.38z" clip-rule="evenodd"/></svg>