<svg xmlns="http://www.w3.org/2000/svg" width="512" height="512" fill="none"><path fill="currentColor" fill-rule="evenodd" d="M318.366 46.385 46.391 318.36C6.136 358.614 5.734 423.63 45.183 464.38l1.215 1.235c40.662 40.661 106.587 40.661 147.248 0L465.621 193.64c40.254-40.255 40.657-105.27 1.207-146.02l-1.215-1.235c-40.661-40.661-106.586-40.661-147.247 0m-33.306 78.56 55.933-55.932c27.883-27.883 72.917-28.162 101.143-.837l.857.844c28.165 28.164 28.165 73.828 0 101.993l-55.937 55.937a47.9 47.9 0 0 0-9.444-13.374l-79.196-79.196a47.9 47.9 0 0 0-13.356-9.435m-157.299 157.3-58.742 58.742c-28.165 28.165-28.165 73.829 0 101.993l.857.844c28.226 27.325 73.26 27.046 101.143-.837l58.747-58.747a47.9 47.9 0 0 1-13.374-9.443l-79.196-79.196a47.9 47.9 0 0 1-9.435-13.356m148.028-125.237 79.196 79.196c6.248 6.248 6.248 16.379 0 22.627l-93.338 93.338c-6.249 6.249-16.379 6.249-22.628 0l-79.196-79.196c-6.248-6.248-6.248-16.379 0-22.627l93.338-93.338c6.249-6.249 16.379-6.249 22.628 0M256 224c8.837 0 16-7.163 16-16s-7.163-16-16-16-16 7.163-16 16 7.163 16 16 16m64 32c0 8.837-7.163 16-16 16s-16-7.163-16-16 7.164-16 16-16 16 7.163 16 16m-112 16c8.837 0 16-7.163 16-16s-7.163-16-16-16-16 7.163-16 16 7.163 16 16 16m64 32c0 8.836-7.163 16-16 16s-16-7.164-16-16 7.163-16 16-16 16 7.163 16 16" clip-rule="evenodd"/></svg>