<svg xmlns="http://www.w3.org/2000/svg" width="512" height="512" fill="none"><path fill="currentColor" fill-rule="evenodd" d="m127.89 95.89.22 32-48.11.33v255.999l47.89-.329.22 32-64 .44c-8.774.06-15.938-6.951-16.107-15.684L48 400.33v-288c0-8.688 6.927-15.767 15.573-15.994l.317-.006zm320 .11c8.774-.06 15.938 6.951 16.107 15.684L464 112v288c0 8.688-6.927 15.767-15.573 15.994l-.317.006-64 .44-.22-32 48.11-.331V128.11l-47.89.33-.22-32zM400 336V176h-32v160zm-64-192v224h-32V144zm-64 208V160h-32v192zm-64-208v224h-32V144zm-64 192V176h-32v160z" clip-rule="evenodd"/></svg>