<svg xmlns="http://www.w3.org/2000/svg" width="512" height="512" fill="none"><path fill="currentColor" fill-rule="evenodd" d="M48 496h432c8.837 0 16-7.163 16-16s-7.163-16-16-16H48V32c0-8.837-7.163-16-16-16s-16 7.163-16 16v432c0 17.673 14.327 32 32 32m68-64h40c19.882 0 36-16.118 36-36V244c0-19.882-16.118-36-36-36h-40c-19.882 0-36 16.118-36 36v152c0 19.882 16.118 36 36 36m184 0h-40c-19.882 0-36-16.118-36-36V196c0-19.882 16.118-36 36-36h40c19.882 0 36 16.118 36 36v200c0 19.882-16.118 36-36 36m103.64 0h40c19.882 0 36-16.118 36-36V132c0-19.882-16.118-36-36-36h-40c-19.882 0-36 16.118-36 36v264c0 19.882 16.118 36 36 36" clip-rule="evenodd"/></svg>