<svg xmlns="http://www.w3.org/2000/svg" width="512" height="512" fill="none"><path fill="currentColor" fill-rule="evenodd" d="M127.857 96c8.836-.079 16.063 7.02 16.142 15.857.079 8.731-6.851 15.891-15.541 16.137l-.315.005-36.943.331c-6.315 0-11.055 5.048-11.197 12.523L80 141.2v230.27c0 7.546 4.64 12.702 10.91 12.856l.233.003 36.714-.328c8.731-.079 15.891 6.851 16.136 15.541l.006.315c.079 8.731-6.851 15.891-15.541 16.136l-.315.006-36.943.331c-24.461 0-42.83-19.691-43.195-44.118L48 371.47V141.2c0-24.522 18.124-44.467 42.46-44.864zm291.345 0c24.448.11 44.287 19.705 44.789 44.128l.009.742v230.332c-.109 24.448-19.705 44.287-43.983 44.788l-.737.009-35.13.33c-8.836.083-16.066-7.013-16.149-15.849-.082-8.731 6.845-15.894 15.534-16.143l.315-.006 35.208-.331c7.031-.031 12.743-5.641 12.937-12.564l.005-.306V140.942c-.031-7.031-5.641-12.743-12.632-12.937l-.228-.005-34.99.329c-8.731.082-15.894-6.845-16.143-15.534l-.006-.315c-.082-8.731 6.845-15.894 15.534-16.143l.315-.006 35.13-.33zm-19.205 95.685C399.829 182.994 392.731 176 384 176c-8.837 0-16 7.163-16 16v128l.003.315C368.171 329.006 375.269 336 384 336c8.837 0 16-7.163 16-16V192zM320 144c8.731 0 15.829 6.994 15.997 15.685L336 160v192c0 8.837-7.163 16-16 16-8.731 0-15.829-6.994-15.997-15.685L304 352V160c0-8.837 7.163-16 16-16m-48.003 31.685C271.829 166.994 264.731 160 256 160c-8.837 0-16 7.163-16 16v160l.003.315C240.171 345.006 247.269 352 256 352c8.837 0 16-7.163 16-16V176zM192 144c8.731 0 15.829 6.994 15.997 15.685L208 160v192c0 8.837-7.163 16-16 16-8.731 0-15.829-6.994-15.997-15.685L176 352V160c0-8.837 7.163-16 16-16m-48.003 47.685C143.829 182.994 136.731 176 128 176c-8.837 0-16 7.163-16 16v128l.003.315C112.171 329.006 119.269 336 128 336c8.837 0 16-7.163 16-16V192z" clip-rule="evenodd"/></svg>