<svg xmlns="http://www.w3.org/2000/svg" width="512" height="512" fill="none"><path fill="currentColor" fill-rule="evenodd" d="M47.997 31.685C47.829 22.994 40.731 16 32 16c-8.837 0-16 7.163-16 16v432l.004.529C16.287 481.958 30.504 496 48 496h432l.315-.003C489.006 495.829 496 488.731 496 480c0-8.837-7.163-16-16-16H48V32zM156 208h-40c-19.882 0-36 16.118-36 36v152c0 19.882 16.118 36 36 36h40c19.882 0 36-16.118 36-36V244c0-19.882-16.118-36-36-36m-40 32h40a4 4 0 0 1 4 4v152a4 4 0 0 1-4 4h-40a4 4 0 0 1-4-4V244a4 4 0 0 1 4-4m144-80h40c19.882 0 36 16.118 36 36v200c0 19.882-16.118 36-36 36h-40c-19.882 0-36-16.118-36-36V196c0-19.882 16.118-36 36-36m40 32h-40a4 4 0 0 0-4 4v200a4 4 0 0 0 4 4h40a4 4 0 0 0 4-4V196a4 4 0 0 0-4-4m143.64-96h-40c-19.882 0-36 16.118-36 36v264c0 19.882 16.118 36 36 36h40c19.882 0 36-16.118 36-36V132c0-19.882-16.118-36-36-36m-40 32h40a4 4 0 0 1 4 4v264a4 4 0 0 1-4 4h-40a4 4 0 0 1-4-4V132a4 4 0 0 1 4-4" clip-rule="evenodd"/></svg>