<svg xmlns="http://www.w3.org/2000/svg" width="512" height="512" fill="none"><path fill="currentColor" fill-rule="evenodd" d="M419.13 96H419l-35.05.33L128 96h-.16l-36.74.33C66.93 96.38 48 116.07 48 141.2v230.27c0 25.15 19 44.86 43.2 44.86h.15l36.71-.33 255.92.33h.17l35.07-.33c24.737-.072 44.758-20.133 44.78-44.87V140.87c-.028-24.77-20.1-44.842-44.87-44.87M144 320c0 8.837-7.163 16-16 16s-16-7.163-16-16V192c0-8.837 7.163-16 16-16s16 7.163 16 16zm64 32c0 8.837-7.163 16-16 16s-16-7.163-16-16V160c0-8.837 7.163-16 16-16s16 7.163 16 16zm64-16c0 8.837-7.163 16-16 16s-16-7.163-16-16V176c0-8.837 7.163-16 16-16s16 7.163 16 16zm64 16c0 8.837-7.163 16-16 16s-16-7.163-16-16V160c0-8.837 7.163-16 16-16s16 7.163 16 16zm64-32c0 8.837-7.163 16-16 16s-16-7.163-16-16V192c0-8.837 7.163-16 16-16s16 7.163 16 16z" clip-rule="evenodd"/></svg>