<svg xmlns="http://www.w3.org/2000/svg" width="512" height="512" fill="none"><path fill="currentColor" fill-rule="evenodd" d="M268.59 63.125c-6.467-8.257-19.059-8.166-25.389.275l-91.2 121.6H68.417l-.598.004c-19.706.298-35.642 16.273-35.819 36.053v.699l.014.7a34 34 0 0 0 1.302 8.305l.115.38 51.677 182.224.21.73c7.1 23.996 29.226 40.5 54.343 40.405h232.74l.759-.004c25.006-.309 46.927-16.953 53.909-41.042l51.725-182.389.138-.518q.258-1.043.375-2.112l.6-5.5.044-.468q.056-.702.049-1.408c-.176-19.981-16.434-36.079-36.415-36.059h-83.584l-91.2-121.6zM320.001 185l-64-85.333-64 85.333zm123.6 32H68.385c-2.406-.002-4.364 1.936-4.386 4.377-.002.2.026.398.085.586l.11.372 51.709 182.331c2.942 10.456 12.42 17.704 23.309 17.833l.389.001h232.814c10.951.01 20.604-7.139 23.782-17.494l.111-.371 51.333-181.005.314-2.887-.003-.027a4.385 4.385 0 0 0-3.922-3.696l-.217-.015zm-123.6 102.076c0-32.109-25.94-58.092-57.974-58.145s-58.059 25.843-58.166 57.876 25.747 58.103 57.78 58.263c32.156.008 58.208-25.915 58.36-57.994m-58.027-26.146c-14.381-.023-26.065 11.603-26.113 25.984s11.559 26.084 25.864 26.156c14.463.004 26.208-11.683 26.276-26.07 0-14.381-11.646-26.046-26.027-26.07" clip-rule="evenodd"/></svg>