<svg xmlns="http://www.w3.org/2000/svg" width="512" height="512" fill="none"><path fill="currentColor" fill-rule="evenodd" d="M424.11 199H360L268.8 77.4a16 16 0 0 0-25.6 0L152 199H87.89c-17.957-.028-32.548 14.483-32.62 32.44a30.3 30.3 0 0 0 1.31 9l46.27 163.14c6.183 21.849 26.133 36.926 48.84 36.91h208.62c22.697-.07 42.64-15.072 49-36.86l46.33-163.36q.322-1.163.46-2.36l.53-4.93q.09-.772.09-1.55c-.077-17.949-14.661-32.452-32.61-32.43M256 113.67 320 199H192zm0 245c-20.797-.099-37.586-17.022-37.52-37.819s16.962-37.613 37.76-37.581c20.797.033 37.64 16.902 37.64 37.7-.115 20.837-17.043 37.666-37.88 37.66z" clip-rule="evenodd"/></svg>