<svg xmlns="http://www.w3.org/2000/svg" width="512" height="512" fill="none"><path fill="currentColor" fill-rule="evenodd" d="M48 189.7v132.6c.022 16.394 13.306 29.678 29.7 29.7h103.97l-6.5 23.2-.21.73-.15.75a22.6 22.6 0 0 0-.26 7.32H77.7c-34.06-.039-61.661-27.64-61.7-61.7V189.7c.039-34.06 27.64-61.661 61.7-61.7h161.84l-24.4 32H77.7c-16.394.022-29.678 13.306-29.7 29.7M287.66 128h98.64c34.06.039 61.661 27.64 61.7 61.7v132.6c-.039 34.06-27.64 61.661-61.7 61.7H222.58L247 352h139.3c16.394-.022 29.678-13.306 29.7-29.7V189.7c-.022-16.394-13.306-29.678-29.7-29.7H280.49l6.54-23.33.21-.73.15-.74c.473-2.37.564-4.801.27-7.2M162.65 294.16a24.37 24.37 0 0 1-21.56-13 25 25 0 0 1 1.42-25.83l.31-.46.33-.44L197.62 183H89.69c-11.046 0-20 8.954-20 20v106c0 11.046 8.954 20 20 20h98.42l9.78-34.86zm140.49-48.76-27.07 35.49L239.35 329l-17.53 23-23.32 30.45q-.157.225-.36.41l-.11.09-.3.21-.13.07a2 2 0 0 1-.41.16 2.3 2.3 0 0 1-.45.06h-.13q-.165.015-.33 0h-.13a3 3 0 0 1-.41-.14 2.2 2.2 0 0 1-.39-.23.4.4 0 0 0-.1-.08l-.25-.24-.09-.1a4 4 0 0 1-.26-.38 2.2 2.2 0 0 1-.17-.45.6.6 0 0 1 0-.14 2.3 2.3 0 0 1-.06-.38v-.15a4 4 0 0 1 0-.56l29.82-106.42h-61.62a4.3 4.3 0 0 1-2.43-.74 4.86 4.86 0 0 1-2-3.71 4.7 4.7 0 0 1 .08-1.29c.073-.376.19-.742.35-1.09q.188-.417.44-.8L222.77 183l9.85-12.83 13.14-17.22 18-23.63q.157-.225.36-.41l.11-.1.3-.21.13-.07q.202-.1.42-.15.225-.022.45 0h.59q.212.048.41.14.204.106.39.24l.1.08q.133.107.25.23l.09.1q.143.187.26.39.11.215.17.45-.002.024-.011.032c-.011.015-.022.029.011.108.05.12.05.33.05.38v.16a3.5 3.5 0 0 1-.05.55L260 159l-.51 1.84-6.21 22.16-3.23 11.5-12.12 43.21h61.62c.444-.002.886.066 1.31.2.396.125.771.31 1.11.55q.256.168.48.38.452.425.78.95c.333.536.563 1.13.68 1.75.082.425.109.858.08 1.29a5.21 5.21 0 0 1-.85 2.57m16.36 11.53-.46.6L264.51 329h109.8c11.046 0 20-8.954 20-20V203a20 20 0 0 0-20-20H274.05l-9.74 34.73h35.24A24.35 24.35 0 0 1 321 230.5a25.21 25.21 0 0 1-1 25.79zM464 218.67c0-8.837 7.163-16 16-16s16 7.163 16 16v74.66c0 8.837-7.163 16-16 16s-16-7.163-16-16z" clip-rule="evenodd"/></svg>