<svg xmlns="http://www.w3.org/2000/svg" width="512" height="512" fill="none"><path fill="currentColor" fill-rule="evenodd" d="M239.18 237.62h66.5l-70.38 96.56-13 17.82-22.83 31.13a2.6 2.6 0 0 1-.42.45l-.06.05a2.1 2.1 0 0 1-1.31.5h-.57a2.38 2.38 0 0 1-1.52-1.16 2 2 0 0 1-.14-.32v-.06a3 3 0 0 1-.07-.32.3.3 0 0 1 0-.09 2 2 0 0 1 0-.34v-.1q.015-.241.06-.48l30-107H159l31.13-42.74 35.41-48.6 8.36-11.48 18.82-25.55 12.5-17.15a2.25 2.25 0 0 1 1.8-1h.1a2.33 2.33 0 0 1 2 1.35v.05a1 1 0 0 0 .044.093.44.44 0 0 1 .066.197v.14q.007.12 0 .24.007.115 0 .23v.19a4 4 0 0 1-.06.44L264.88 146l-3.94 14-6.43 22.92zm49.46-102.33.14-.74c.434-2.155.552-4.361.35-6.55H448v256H223.72l23.33-32H416V160.02H281.71l6.72-24zM48 160h169.49l23.31-32H16v256h159.49a22.7 22.7 0 0 1 .34-6.67l.15-.75.2-.73 6.69-23.85H48zm346.31 169.08H263.76l58.08-79.68L345 217.62h-79.45l9.73-34.7h119.03zM159 294.26h-39.31l23.15-31.78 57.95-79.56H69.69v146.16h119.6l9.77-34.82zm337-91.59h-32v106.67h32z" clip-rule="evenodd"/></svg>