<svg xmlns="http://www.w3.org/2000/svg" width="512" height="512" fill="none"><path fill="currentColor" fill-rule="evenodd" d="M386.3 128H77.7C43.624 128 16 155.624 16 189.7v132.6c0 34.076 27.624 61.7 61.7 61.7h308.6c34.076 0 61.7-27.624 61.7-61.7V189.7c0-34.076-27.624-61.7-61.7-61.7M77.7 160h308.6c16.403 0 29.7 13.297 29.7 29.7v132.6c0 16.403-13.297 29.7-29.7 29.7H77.7C61.297 352 48 338.703 48 322.3V189.7c0-16.403 13.297-29.7 29.7-29.7m418.297 58.355c-.168-8.691-7.266-15.685-15.997-15.685-8.837 0-16 7.163-16 16v74.66l.003.315c.168 8.691 7.266 15.685 15.997 15.685 8.837 0 16-7.163 16-16v-74.66z" clip-rule="evenodd"/></svg>