<svg xmlns="http://www.w3.org/2000/svg" width="512" height="512" fill="none"><path fill="currentColor" fill-rule="evenodd" d="M77.7 128h308.6c34.076 0 61.7 27.624 61.7 61.7v132.6c0 34.076-27.624 61.7-61.7 61.7H77.7C43.624 384 16 356.376 16 322.3V189.7c0-34.076 27.624-61.7 61.7-61.7m308.6 32H77.7C61.297 160 48 173.297 48 189.7v132.6c0 16.403 13.297 29.7 29.7 29.7h308.6c16.403 0 29.7-13.297 29.7-29.7V189.7c0-16.403-13.297-29.7-29.7-29.7M236 182.93H89.69c-11.046 0-20 8.954-20 20v106.13c0 11.046 8.954 20 20 20H236c11.046 0 20-8.954 20-20V202.93c0-11.046-8.954-20-20-20m259.997 35.425c-.168-8.691-7.266-15.685-15.997-15.685-8.837 0-16 7.163-16 16v74.66l.003.315c.168 8.691 7.266 15.685 15.997 15.685 8.837 0 16-7.163 16-16v-74.66z" clip-rule="evenodd"/></svg>