<svg xmlns="http://www.w3.org/2000/svg" width="512" height="512" fill="none"><path fill="currentColor" d="M497 477.767h-25.946V362.806c7.952-6.564 12.481-15.872 12.481-25.809v-38.673c0-21.07-18.773-38.213-41.849-38.213h-19.582V166.1c0-15.716-12.783-28.502-28.496-28.502h-1.778v-10.287c17.724-6.214 30.474-23.106 30.474-42.931 0-6.656-1.935-17.898-17.022-45.985-7.777-14.478-15.441-26.653-15.765-27.165a15 15 0 0 0-25.374 0c-.323.512-7.987 12.688-15.765 27.165-15.088 28.087-17.022 39.329-17.022 45.985 0 19.824 12.75 36.717 30.474 42.931v10.287h-1.778c-15.713 0-28.496 12.786-28.496 28.502v94.011h-30.281V166.1c0-15.716-12.784-28.502-28.497-28.502H271v-10.287c17.723-6.214 30.473-23.106 30.473-42.931 0-6.656-1.935-17.898-17.022-45.985-7.776-14.478-15.44-26.653-15.763-27.164a15.002 15.002 0 0 0-25.375-.001c-.323.512-7.987 12.688-15.765 27.165-15.088 28.087-17.022 39.329-17.022 45.985 0 19.824 12.75 36.717 30.474 42.931v10.287h-1.778c-15.713 0-28.497 12.786-28.497 28.502v94.011h-30.281V166.1c0-15.716-12.783-28.502-28.496-28.502h-1.778v-10.287c17.724-6.214 30.474-23.106 30.474-42.931 0-6.656-1.935-17.898-17.022-45.985-7.777-14.478-15.441-26.653-15.765-27.165a15 15 0 0 0-25.374 0c-.323.512-7.987 12.688-15.765 27.165C91.63 66.482 89.695 77.724 89.695 84.38c0 19.824 12.75 36.717 30.474 42.931v10.287h-1.778c-15.713 0-28.496 12.786-28.496 28.502v94.011H70.313c-23.075 0-41.849 17.143-41.849 38.213v38.673c0 9.937 4.529 19.245 12.481 25.809v114.961H15c-8.284 0-15 6.716-15 15s6.716 15 15 15h482c8.284 0 15-6.716 15-15s-6.716-15-15-15M361.356 84.391c.093-4.791 6.535-19.256 15.477-35.578 8.937 16.313 15.375 30.772 15.471 35.575-.004 8.535-6.944 15.478-15.474 15.478-8.532 0-15.474-6.947-15.474-15.475m.2 83.207h30.549v92.427h-30.549zm-121.03-83.207c.093-4.791 6.535-19.255 15.476-35.577 8.937 16.312 15.375 30.771 15.471 35.574-.004 8.535-6.943 15.478-15.473 15.478-8.532 0-15.474-6.947-15.474-15.475m.199 83.207h30.55v92.427h-30.55zm-121.03-83.207c.093-4.791 6.535-19.256 15.477-35.578 8.937 16.313 15.375 30.772 15.471 35.575-.004 8.535-6.944 15.478-15.474 15.478-8.532 0-15.474-6.947-15.474-15.475m.2 83.207h30.549v92.427h-30.549zm321.159 310.169H70.945V371.47a41 41 0 0 0 6.988-1.425l37.866-11.209c21.883-6.476 45.983-6.476 67.864 0l29.888 8.848c13.687 4.052 28.067 6.077 42.447 6.077s28.762-2.025 42.448-6.077l29.888-8.848c21.88-6.477 45.982-6.477 67.864 0l37.865 11.209a41 41 0 0 0 6.989 1.425v106.297zm12.481-140.77c0 1.249-1.01 2.266-1.856 2.897-1.892 1.412-5.275 2.517-9.098 1.386l-37.866-11.209c-27.373-8.104-57.522-8.104-84.896 0l-29.888 8.848c-21.88 6.476-45.982 6.478-67.864 0l-29.888-8.848c-13.688-4.053-28.065-6.078-42.448-6.078-14.379 0-28.763 2.026-42.447 6.078L69.417 341.28c-3.822 1.132-7.206.025-9.097-1.386-.847-.632-1.856-1.648-1.856-2.897v-38.673c0-3.885 4.866-8.213 11.849-8.213h371.374c6.982 0 11.849 4.328 11.849 8.213z"/></svg>