<svg xmlns="http://www.w3.org/2000/svg" width="512" height="512" fill="none"><path fill="currentColor" fill-rule="evenodd" d="M165.643 61.537c0 16.836-13.644 30.485-30.474 30.485s-30.474-13.649-30.474-30.485c0-11.22 13.534-36.418 22.563-51.98 3.525-6.076 12.298-6.076 15.822 0 9.03 15.562 22.563 40.76 22.563 51.98m120.831 0c0 16.836-13.644 30.485-30.474 30.485-16.831 0-30.474-13.649-30.474-30.485 0-11.22 13.534-36.418 22.563-51.98 3.525-6.076 12.298-6.076 15.822 0 9.03 15.562 22.563 40.76 22.563 51.98m90.356 30.485c16.83 0 30.474-13.649 30.474-30.485 0-11.22-13.533-36.418-22.563-51.98-3.525-6.076-12.297-6.076-15.822 0-9.029 15.562-22.563 40.76-22.563 51.98 0 16.836 13.644 30.485 30.474 30.485m-271.936 38.551c0-7.457 6.043-13.502 13.497-13.502v.001h33.556c7.455 0 13.497 6.045 13.497 13.502v108.923h-60.55zm134.327-13.502c-7.454 0-13.497 6.045-13.497 13.502v108.924h60.55V130.574c0-7.457-6.043-13.502-13.497-13.502h-33.556zm107.334 13.502c0-7.457 6.043-13.502 13.497-13.502v.001h33.556c7.454 0 13.497 6.045 13.497 13.502v108.923h-60.55zM66.25 356.215a26.1 26.1 0 0 0 7.425-1.08l37.866-11.209c12.377-3.664 25.284-5.496 38.19-5.496s25.813 1.832 38.19 5.496l29.888 8.848c12.377 3.664 25.284 5.496 38.19 5.496s25.813-1.832 38.19-5.496l29.888-8.848c12.377-3.664 25.284-5.496 38.19-5.496s25.813 1.832 38.19 5.496l37.866 11.209a26.2 26.2 0 0 0 7.425 1.08c12.118 0 22.787-8.481 22.787-19.746v-38.672c0-12.82-12.02-23.213-26.848-23.213H70.312c-14.828 0-26.848 10.393-26.848 23.213v38.672c0 11.265 10.67 19.746 22.786 19.746M456.054 477.24H497c8.284 0 15 6.717 15 15.001s-6.716 15-15 15H15c-8.284 0-15-6.716-15-15s6.716-15 15-15h40.947v-91.989c3.37.631 6.818.964 10.305.964 5.392 0 10.755-.779 15.941-2.314l37.866-11.209c9.553-2.828 19.537-4.262 29.674-4.262s20.121 1.434 29.674 4.262l29.888 8.848c15.086 4.466 30.8 6.73 46.706 6.73s31.619-2.264 46.705-6.73l29.888-8.848c9.553-2.828 19.537-4.262 29.674-4.262s20.121 1.434 29.674 4.262l37.866 11.209a56.1 56.1 0 0 0 15.941 2.313c3.486 0 6.934-.333 10.305-.964z" clip-rule="evenodd"/></svg>