<svg xmlns="http://www.w3.org/2000/svg" width="512" height="513" fill="none"><path fill="currentColor" d="m220.129 107.232 20.014 28.215a274.8 274.8 0 0 0-65.936 65.678 118.24 118.24 0 0 0-21.291 65.678V274q7.7-1.018 14.094-1.792c4-.502 8.027-.765 12.058-.788a61.25 61.25 0 0 1 45.161 17.978 60.62 60.62 0 0 1 17.978 44.645 71.94 71.94 0 0 1-18.983 52.331 67.06 67.06 0 0 1-50.294 19.525 72.66 72.66 0 0 1-58.25-27.211 104.78 104.78 0 0 1-22.839-69.792 199.83 199.83 0 0 1 32.344-109.305 314.8 314.8 0 0 1 95.944-92.359m179.038 0 19.987 28.215a274.9 274.9 0 0 0-65.936 65.678 118.23 118.23 0 0 0-21.29 65.678V274a641 641 0 0 1 13.605-1.792c4.172-.514 8.37-.777 12.573-.788a59.83 59.83 0 0 1 44.89 17.707 61.86 61.86 0 0 1 17.19 44.917 73.03 73.03 0 0 1-18.466 52.33 65.35 65.35 0 0 1-49.778 19.525 74.23 74.23 0 0 1-58.766-27.211 103.38 103.38 0 0 1-23.355-69.792 197.5 197.5 0 0 1 32.588-108.015 325.55 325.55 0 0 1 96.758-93.649"/></svg>