<svg xmlns="http://www.w3.org/2000/svg" width="512" height="512" fill="none"><path fill="currentColor" fill-rule="evenodd" d="M388 161.77a20 20 0 0 0-5.85-14.91l-112-112A20 20 0 0 0 236 49v164.52l-79-67.71c-8.418-6.838-20.753-5.72-27.805 2.52s-6.251 20.599 1.805 27.86L225.27 257 131 337.81a19.999 19.999 0 0 0 6.114 34.44A20 20 0 0 0 157 368.19l79-67.71V465a20.002 20.002 0 0 0 34.14 14.14l112-112a20 20 0 0 0-1.14-29.33L286.73 257 381 176.19a20 20 0 0 0 7-14.42m-49.42 192.36L276 416.72V300.49zM276 213.52V97.28l62.59 62.59z" clip-rule="evenodd"/></svg>