<svg xmlns="http://www.w3.org/2000/svg" width="512" height="512" fill="none"><path fill="currentColor" fill-rule="evenodd" d="M240 48c0-14.112 16.892-21.25 27.009-11.61l.305.296 112 112c6.507 6.507 6.185 17.124-.636 23.23l-.265.232L280.585 256l97.828 83.852c6.987 5.989 7.48 16.599 1.148 23.21l-.247.252-112 112c-9.979 9.978-26.97 3.082-27.309-10.888L240 464V290.787l-85.587 73.361c-6.619 5.673-16.538 4.994-22.325-1.467l-.236-.268c-5.673-6.619-4.993-16.538 1.467-22.326l.269-.235L231.414 256l-97.826-83.852c-6.619-5.673-7.464-15.579-1.965-22.287l.229-.274c5.673-6.618 15.58-7.464 22.287-1.965l.274.23L240 221.212zm32 242.788v134.584l72.468-72.468zm0-204.16V221.21l72.468-62.116z" clip-rule="evenodd"/></svg>