<svg xmlns="http://www.w3.org/2000/svg" width="512" height="512" fill="none"><path fill="currentColor" fill-rule="evenodd" d="M248 0c-30.928 0-56 25.072-56 56s25.072 56 56 56 56-25.072 56-56-25.072-56-56-56m0 32c13.255 0 24 10.745 24 24s-10.745 24-24 24-24-10.745-24-24 10.745-24 24-24m176 96.02H88c-22.091 0-40 17.909-40 40s17.909 40 40 40h92.5c4.637 0 7.307 1.449 8.266 3.944l.086.228c2.796 7.703 2.545 32.501-.451 51.197l-4.87 29.518-30.387 172.131a40 40 0 0 0 32.498 46.342 39.74 39.74 0 0 0 29.862-6.68l.446-.32a39.76 39.76 0 0 0 15.74-25.098l21.07-120.302-.377-.066.416.034.176-.983.16-.831c.141-.716.303-1.49.486-2.308l.222-.973a86 86 0 0 1 2.099-7.527l.144-.423-.168-.499c1.001 2.893 1.868 6.111 2.572 9.345l.204.957q.193.935.349 1.765l.152.844.091.538 2.404-.185-2.35.412 21 119.9c2.513 14.09 12.317 25.729 25.729 30.581a39.92 39.92 0 0 0 39.302-7.01l.382-.326a39.92 39.92 0 0 0 13.198-37.214l-30.383-172.104-4.881-29.592-.178-1.136c-2.844-18.672-3.004-42.933-.195-50.166.959-2.492 3.738-3.993 8.286-3.993H424c22.091 0 40-17.909 40-40s-17.909-40-40-40m-336 32h336a8 8 0 0 1 0 16h-92.4c-16.686 0-31.884 8.208-38.134 24.456-5.502 14.165-5.236 43.814-1.364 67.975l4.942 29.951 30.4 172.2a7.92 7.92 0 1 1-15.593 2.809L290.86 353.56h-.015l-.241-1.391-.212-1.137c-.187-.973-.398-2.009-.636-3.097-.955-4.383-2.139-8.782-3.599-12.999-2.058-5.945-4.5-11.094-7.631-15.378-5.136-7.029-12.05-11.638-20.926-11.638h-3.1c-8.871 0-15.74 4.627-20.861 11.664-3.102 4.263-5.539 9.389-7.607 15.311-1.468 4.204-2.668 8.591-3.643 12.963a126 126 0 0 0-.763 3.665l-.242 1.302-.112.637-.032-.002-21.024 120.039a7.76 7.76 0 0 1-3.177 5.066 7.76 7.76 0 0 1-5.837 1.302 8.03 8.03 0 0 1-5.215-3.294 8 8 0 0 1-1.329-5.98l30.429-172.368 4.9-29.7c3.883-24.235 4.149-53.884-1.373-68.098-6.238-16.221-21.324-24.407-38.114-24.407H88a8 8 0 0 1 0-16" clip-rule="evenodd"/></svg>