<svg xmlns="http://www.w3.org/2000/svg" width="512" height="512" fill="none"><path fill="currentColor" fill-rule="evenodd" d="M311.485 55.89c0 30.868-25.023 55.892-55.89 55.892s-55.891-25.023-55.891-55.891S224.727 0 255.595 0s55.89 25.023 55.89 55.89M48 154.699c0-14.883 12.065-26.948 26.947-26.948h361.295v-.029c14.882 0 26.947 12.064 26.947 26.947s-12.065 26.947-26.947 26.947H334.371c-6.358 0-14.692 3.114-19.243 14.971-5.339 13.803-2.724 40.461.569 61.111l4.322 24.402a.46.46 0 0 1 .11.349l34.542 196.427a27.185 27.185 0 0 1-36.05 30.752 27.19 27.19 0 0 1-17.465-21.171l-23.864-136.653s-7.495-32.427-21.697-32.427c-13.973 0-21.628 32.427-21.628 32.427l-23.864 136.533a27.01 27.01 0 0 1-31.358 22.247c-14.833-2.674-24.714-16.834-22.107-31.678l34.532-196.427a.42.42 0 0 0 .12-.349l4.312-24.402c3.293-20.65 5.908-47.308.569-61.111-4.571-11.887-12.646-14.971-19.542-14.971H74.947C60.065 181.645 48 169.58 48 154.698" clip-rule="evenodd"/></svg>