<svg xmlns="http://www.w3.org/2000/svg" width="512" height="512" fill="none"><path fill="currentColor" d="M325.303 251.733A78.5 78.5 0 0 0 362.636 192a83.83 83.83 0 0 0-23.496-59.725 83.84 83.84 0 0 0-58.851-25.608H141.836v298.666h149.333a79.78 79.78 0 0 0 73.188-50.041 79.8 79.8 0 0 0 5.746-30.599v-2.56a77.66 77.66 0 0 0-44.8-70.4m-140.8-102.4h89.6a44.59 44.59 0 0 1 42.666 27.734 44.59 44.59 0 0 1-29.226 55.68 47.6 47.6 0 0 1-13.44 1.92h-89.6zm98.133 213.334h-98.133v-85.334h98.133a44.59 44.59 0 0 1 42.667 27.734 44.6 44.6 0 0 1-3.126 33.87 44.6 44.6 0 0 1-26.101 21.81 47.6 47.6 0 0 1-13.44 1.92"/></svg>