<svg xmlns="http://www.w3.org/2000/svg" width="512" height="512" fill="none"><path fill="currentColor" fill-rule="evenodd" d="M175.752 0h223.564c35.277 0 63.875 28.598 63.875 63.875V430.73a16.38 16.38 0 0 1-6.647 13.394 15.97 15.97 0 0 1-19.302-.499l-21.957-17.566V121.762c0-40.79-33.067-73.856-73.856-73.856H113.873C121.192 19.716 146.627.024 175.752 0m-63.875 79.844h207.595c35.277 0 63.875 28.598 63.875 63.875v350.905a16.37 16.37 0 0 1-6.697 13.414 15.97 15.97 0 0 1-19.562-.789L215.674 388.162 74.261 507.299a15.97 15.97 0 0 1-19.672.709 16.33 16.33 0 0 1-6.587-13.354V143.719c0-35.277 28.598-63.875 63.875-63.875" clip-rule="evenodd"/></svg>