<svg xmlns="http://www.w3.org/2000/svg" width="512" height="513" fill="none"><path fill="currentColor" fill-rule="evenodd" d="M463.988 62.942C463.325 28.107 434.972.102 400.046 0H176l-1.058.012C140.107.675 112.101 29.028 112 63.954V80h32V64l.006-.528c.332-17.388 14.54-31.421 32.04-31.472H400l.528.006c17.388.332 31.421 14.54 31.472 32.04V398.71l-48-38.4V144c-.103-35.324-28.676-63.897-63.954-64H111.954c-35.278.103-63.851 28.676-63.954 63.954V496l.005.406c.313 13.344 16 20.508 26.301 11.833L216 388.917l141.694 119.322C368.1 517.001 384 509.604 384 496v-94.71l54.005 43.204.316.247C448.79 452.725 464 445.282 464 432V64zM112 112h208l.528.006c17.388.332 31.421 14.54 31.472 32.04v317.563L226.306 355.761l-.29-.238a16 16 0 0 0-20.322.238L80 461.608V144c.05-17.455 14.084-31.662 31.517-31.994z" clip-rule="evenodd"/></svg>