<svg xmlns="http://www.w3.org/2000/svg" width="512" height="512" fill="none"><path fill="currentColor" fill-rule="evenodd" d="M464 56a31.33 31.33 0 0 1 17.92 5.3 32 32 0 0 1 14.12 26.61v288c0 17.673-14.327 32-32 32-114.64-.01-159.69 21.31-185.36 46.81a3.93 3.93 0 0 1-6.68-2.81V114.78a15.93 15.93 0 0 1 5.45-12A143.3 143.3 0 0 1 309.76 82C345.89 64.71 396.39 56.3 464 56M48 56c67.61.3 118.11 8.75 154.24 26a143 143 0 0 1 32.3 20.82 15.89 15.89 0 0 1 5.46 12v337.11a4.11 4.11 0 0 1-6.94 3c-42.7-40.36-113.99-47-185.06-47-18.24 0-32-14.59-32-33.93V87.9a32 32 0 0 1 14.08-26.57A31.36 31.36 0 0 1 48 56" clip-rule="evenodd"/></svg>