<svg xmlns="http://www.w3.org/2000/svg" width="512" height="512" fill="none"><path fill="currentColor" fill-rule="evenodd" d="M463.94 48h-.012c-67.439.303-117.863 8.755-154.164 26.1l-1.108.534c-22.812 11.102-40.149 25.88-52.2 44.367l-.456.707-.456-.707c-12.245-18.785-29.948-33.741-53.307-44.902C165.936 56.755 115.512 48.303 48.072 48A31.94 31.94 0 0 0 16 80.06v286.01C16 384.698 29.03 400 48 400c59.757 0 103.498 5.733 135.335 16.855 26.881 9.39 45.152 22.386 60.078 41.024q.215.272.44.535a15.86 15.86 0 0 0 8.862 5.248 16.083 16.083 0 0 0 6.562.002 15.86 15.86 0 0 0 8.863-5.241q.227-.265.444-.54c15.016-18.732 33.275-31.725 60.143-41.097C360.502 405.701 404.188 400 464 400c17.673 0 32-14.327 32-32V80c.032-8.453-3.335-16.626-9.355-22.645A31.94 31.94 0 0 0 463.94 48M272 410.437c38.946-28.825 96.173-42.097 188.414-42.431L464 368V79.999l-1.817.011c-62.16.428-107.604 8.142-138.624 22.963-27.958 13.358-44.295 32.426-51.559 59.092zm-32-248.372c-7.263-26.666-23.6-45.734-51.559-59.092C157.118 88.007 111.086 80.288 47.999 80v-.001h-.059L48 80v286.07c0 .729.1 1.349.26 1.825l.038.105 3.285.006c92.116.335 149.47 13.671 188.417 42.452z" clip-rule="evenodd"/></svg>