<svg xmlns="http://www.w3.org/2000/svg" width="513" height="512" fill="none"><path fill="currentColor" d="M268.217 495.875c-3.881-2.004-7.137-4.883-10.267-8.013-13.147-13.272-26.544-26.544-39.691-39.816-7.512-7.638-7.637-15.276 0-22.913 6.01-6.136 12.145-12.145 18.155-18.281 8.264-8.389 7.638-18.656-1.752-25.792-9.516-7.262-19.157-14.65-28.923-21.536-5.635-4.132-8.514-9.015-8.264-16.152.376-9.641-.125-19.407.125-29.048.125-3.506-1.127-5.259-4.257-6.761-5.759-2.629-11.394-5.634-17.153-8.514-5.76-2.755-8.765-7.387-8.89-13.773-.125-5.133-.25-10.267 0-15.4.125-3.005-1.002-4.383-3.881-5.259-9.892-3.13-19.783-6.511-29.675-9.766-8.138-2.63-11.644-7.388-11.769-15.902 0-5.509-.125-10.893 0-16.402.125-3.38-.877-3.631-3.631-2.254-11.144 5.635-22.287 11.144-33.43 16.778-9.015 4.508-13.773 3.756-20.91-3.38-13.648-13.648-27.295-27.421-41.068-41.068-2.504-2.379-4.132-5.259-6.135-8.139v-8.389c2.63-4.632 6.636-8.138 10.267-11.769 10.517-10.518 20.91-21.035 31.552-31.427 2.504-2.379 3.38-4.758 3.255-8.139-.25-9.515-.125-19.031-.125-28.547.376-26.794 27.17-43.322 50.584-30.55 12.521 6.886 25.793-1.503 25.041-15.15-.751-13.398 2.004-16.278 14.9-20.535 12.521-4.132 25.042-8.388 37.562-12.646 10.643-3.505 17.529-.125 21.035 10.518 3.256 9.766 6.636 19.407 9.641 29.298 1.002 3.13 2.379 4.132 5.634 4.007 7.137-.25 14.399-.125 21.536 0 2.379 0 4.007-.751 5.76-2.379 7.262-7.512 14.774-14.9 22.161-22.162 8.389-8.388 17.78-7.387 24.291 2.505a3809 3809 0 0 1 24.665 37.06c1.378 2.13 3.131 3.632 5.509 4.759 46.828 21.035 93.656 42.195 140.358 63.605 25.167 11.519 34.181 40.317 19.657 62.604-2.003 3.13-4.507 5.884-7.262 8.639-9.265 9.265-18.53 18.656-27.921 27.796-2.504 2.379-3.38 4.883-3.255 8.139.125 15.776 0 31.552.125 47.328 0 5.509-1.878 9.891-5.76 13.773a12402 12402 0 0 0-57.345 57.345c-3.631 3.631-7.888 5.384-12.896 5.759-26.544 1.753-44.198 20.159-44.574 46.953-.375 23.163 1.878 17.654-15.025 34.682-10.141 10.267-20.283 20.284-30.425 30.551-3.13 3.13-6.26 6.01-10.267 7.888-2.254-.125-4.758-.125-7.262-.125M284.744 67.29c-5.759 5.885-11.268 11.394-16.652 16.903-3.381 3.506-7.262 5.134-12.02 5.134-14.399-.126-28.798 0-43.071 0-8.014 0-12.271-3.256-14.9-10.893-3.13-9.015-6.135-17.905-9.015-27.045-.751-2.504-1.628-3.38-4.257-2.38-5.384 1.879-10.893 3.757-16.402 5.51-2.129.626-2.755 2.003-3.13 4.132-5.134 31.302-36.185 47.078-64.482 32.804-6.51-3.255-10.267-1.127-10.392 6.135-.126 11.519-.25 23.164 0 34.683.125 6.385-1.878 11.394-6.511 15.776-10.017 9.641-19.658 19.657-29.549 29.424-2.504 2.379-3.13 3.881-.25 6.51 7.512 7.012 14.774 14.399 21.91 21.786 2.255 2.379 3.882 2.505 6.762 1.127 14.9-7.637 30.05-15.15 45.075-22.662 12.52-6.261 22.787 0 22.913 14.023 0 9.641.125 19.407 0 29.048 0 2.629.751 3.756 3.38 4.633 10.392 3.255 20.659 6.761 31.052 10.267 7.262 2.504 10.767 7.387 10.767 15.15 0 5.634.126 11.269 0 16.903-.125 2.379.752 3.631 2.88 4.632 6.01 2.88 12.02 6.01 18.03 9.015 6.26 3.005 9.265 7.888 9.265 14.9-.125 10.768.126 21.536-.125 32.304-.125 3.255 1.002 5.133 3.631 6.886 8.264 6.01 16.402 11.895 24.29 18.28 20.284 16.653 22.413 44.824 5.009 64.357-2.755 3.13-5.76 6.26-8.89 9.015-2.755 2.379-2.254 3.881.125 6.26 6.511 6.26 13.022 12.646 19.157 19.157 2.379 2.504 3.756 2.003 5.885-.125 7.136-7.388 14.273-14.9 21.911-21.786 4.758-4.257 6.761-8.765 6.135-15.025-.376-3.631.376-7.513.751-11.144 3.381-31.427 32.304-60.099 63.856-62.979 2.504-.25 4.382-1.127 6.135-2.88a8358 8358 0 0 1 47.078-47.078c2.129-2.003 2.88-4.132 2.88-7.011-.125-15.902 0-31.803-.125-47.83 0-5.634 1.753-10.141 5.884-14.148 11.144-10.893 22.162-22.036 33.18-33.055 9.892-9.891 7.763-20.534-5.008-26.293-47.453-21.536-95.032-43.197-142.611-64.732-5.259-2.379-9.14-5.635-12.145-10.393-6.01-9.14-12.145-17.904-18.406-27.295"/></svg>