<svg xmlns="http://www.w3.org/2000/svg" width="512" height="512" fill="none"><path fill="currentColor" fill-rule="evenodd" d="M383.994 95.206C383.57 69.063 362.245 48 336 48H176l-.794.006C149.063 48.43 128 69.756 128 96v16H80c-35.346 0-64 28.654-64 64v224c0 35.346 28.654 64 64 64h352c35.346 0 64-28.654 64-64V176c0-35.346-28.654-64-64-64h-48V96zM48 400V256h128v8l.003.397C176.215 277.469 186.878 288 200 288h112l.397-.003C325.469 287.785 336 277.122 336 264v-8h128v144c0 17.673-14.327 32-32 32H80c-17.673 0-32-14.327-32-32m272-176h144v-48c0-17.673-14.327-32-32-32H80c-17.673 0-32 14.327-32 32v48h272m32-112V96c0-8.731-6.994-15.83-15.685-15.997L336 80H176c-8.731 0-15.829 6.994-15.997 15.685L160 96v16z" clip-rule="evenodd"/></svg>