<svg xmlns="http://www.w3.org/2000/svg" width="20" height="20" fill="none"><path fill="currentColor" fill-rule="evenodd" d="M3.75 1.875h12.5a2.5 2.5 0 0 1 2.5 2.5v11.25a2.5 2.5 0 0 1-2.5 2.5H3.75a2.5 2.5 0 0 1-2.5-2.5V4.375a2.5 2.5 0 0 1 2.5-2.5M2.5 6.797c0-.69.56-1.25 1.25-1.25h12.5c.69 0 1.25.56 1.25 1.25v2.578c0 .69-.56 1.25-1.25 1.25H3.75c-.69 0-1.25-.56-1.25-1.25zm1.25 5.078c-.69 0-1.25.56-1.25 1.25v2.5c0 .69.56 1.25 1.25 1.25h12.5c.69 0 1.25-.56 1.25-1.25v-2.5c0-.69-.56-1.25-1.25-1.25z" clip-rule="evenodd"/></svg>