<svg xmlns="http://www.w3.org/2000/svg" width="512" height="512" fill="none"><path fill="currentColor" fill-rule="evenodd" d="M383.796 49.316q-.304.304-.591.624l-211.11 235.11c-8.181 9.111-3.503 23.607 8.35 26.291l.362.077c16.673 3.396 34.134 20.616 36.545 35.399l.069.447c1.884 13.183 18.107 18.429 27.353 8.845l219.019-227.015c21.705-21.823 21.938-57.013.542-79.115l-.652-.663c-22.06-22.06-57.826-22.06-79.887 0m57.26 22.628.287.292c9.19 9.492 9.17 24.57.002 34.046l-.49.499-202.181 209.562-.151-.23c-6.867-10.418-16.427-19.63-27.247-26.288l-.298-.182L406.686 71.686l.33-.316c9.601-8.985 24.672-8.794 34.04.574M138 321c-38.387 0-69.375 31.09-69.991 69.688l-.01 1.172c0 6.362-2.417 11.378-6.795 15.164-3.826 3.308-8.845 5.28-12.823 5.4l-.381.006c-13.149 0-20.684 14.979-12.848 25.536C54.68 464.274 87.671 481 120 481c48.673 0 88-39.949 88-89.14 0-39.139-31.226-70.86-70-70.86m0 32c20.988 0 38 17.282 38 38.86 0 31.629-25.114 57.14-56 57.14l-.666-.004c-14.423-.154-29.352-5.313-41.692-13.94l-.243-.171.108-.072a54 54 0 0 0 4.629-3.585c11.088-9.589 17.688-23.106 17.86-38.741l.004-.627c0-21.578 17.012-38.86 38-38.86" clip-rule="evenodd"/></svg>