<svg xmlns="http://www.w3.org/2000/svg" width="512" height="512" fill="none"><path fill="currentColor" fill-rule="evenodd" d="M228.23 359.34a15.7 15.7 0 0 0 4.92.77 16 16 0 0 0 11.53-4.9l219-227c21.947-22.083 21.898-57.758-.11-79.78-22.079-22.017-57.811-22.017-79.89 0-.2.2-.4.41-.59.63L172 284.16a16.001 16.001 0 0 0 8.69 26.33c16.67 3.39 34.47 20.85 36.62 35.85a16 16 0 0 0 10.92 13M35.04 437.11c19.4 26.11 52.71 43 84.85 43 48.52 0 88-39.99 88-89.11 0-39.07-31.4-70.86-70-70.86s-70 31.79-70 70.86c0 15.7-14.66 20.57-20 20.57a16 16 0 0 0-12.85 25.54" clip-rule="evenodd"/></svg>