<svg xmlns="http://www.w3.org/2000/svg" width="512" height="512" fill="none"><path fill="currentColor" fill-rule="evenodd" d="m321.711 104.09-.32-.09c-19.3-5.35-41.3-8.07-65.39-8.07-23.77 0-45.85 3.06-65.56 9.06-13.7 4.14-25.68-10.28-18.84-22.86 16.759-30.872 49.061-50.106 84.19-50.13h.42a95.86 95.86 0 0 1 83.7 49.24c6.87 12.3-4.63 26.65-18.2 22.85m78.29 168.04h63.55c8.609 0 16.03 6.62 16.45 15.23a16.003 16.003 0 0 1-16 16.77h-64V320a143.3 143.3 0 0 1-10.39 53.69c25.79 23.08 42.39 48.63 42.39 90.31a16 16 0 0 1-16.91 16c-8.565-.617-15.175-7.784-15.1-16.37-.08-27.43-9.17-44.41-26.17-60.95a144.4 144.4 0 0 1-81.82 56.74 16 16 0 0 1-20-15.49V192a16.003 16.003 0 0 0-16.77-15.98c-8.61.43-15.23 7.82-15.23 16.43v251.48a16.003 16.003 0 0 1-20 15.49 144.37 144.37 0 0 1-81.83-56.74c-17.07 16.61-26.17 33.66-26.17 61.32 0 4.355-1.774 8.522-4.914 11.54a16 16 0 0 1-11.727 4.45c-8.74-.35-15.36-7.91-15.36-16.65.18-41.34 16.74-66.7 42.411-89.65a143.3 143.3 0 0 1-10.39-53.69v-15.87h-64a16 16 0 0 1-16-16.77c.43-8.61 7.82-15.23 16.43-15.23H112v-48.2q.01-5.24.44-10.3c-29.83-27.9-32.44-64-32.44-101.63a16 16 0 0 1 16.8-15.98c8.6.44 15.2 7.83 15.2 16.44 0 28.54 2 48.19 10.87 63.58 7.5-14.81 18.8-27.53 33.7-37.72 25.24-17.26 59.63-26.39 99.43-26.39 68.32 0 114.88 22.76 134.1 63.91 8.04-15.69 9.9-35.84 9.9-63.84a16 16 0 0 1 16.75-15.95c8.61.41 15.25 7.8 15.25 16.41-.02 38.37-2.7 75.12-32.271 103q.27 4.15.271 8.47z" clip-rule="evenodd"/></svg>