<svg xmlns="http://www.w3.org/2000/svg" width="512" height="512" fill="none"><path fill="currentColor" fill-rule="evenodd" d="M352 127.748c-.139-52.823-42.925-95.61-95.748-95.748h-.462l-1.583.017c-52.133.978-94.07 43.437-94.207 95.731q-.001.42.02.841c.117 2.348.362 4.684.731 6.999a119 119 0 0 0-4.986 3.288c-14.37 10.004-25.467 22.521-32.891 37.184-2.677-4.639-4.739-9.677-6.308-15.244-3.256-11.551-4.47-24.925-4.56-46.158L112 112c0-8.837-7.163-16-16-16s-16 7.163-16 16c0 25.513 1.38 41.937 5.766 57.499 4.883 17.319 13.453 31.82 26.667 44.149q-.432 5.043-.433 10.282v48.2H48l-.315.003C38.994 272.301 32 279.399 32 288.13c0 8.837 7.163 16 16 16h64V320c0 18.943 3.702 37.059 10.418 53.661-12.29 10.991-21.288 21.452-28.084 33.139C84.705 423.361 80 441.897 80 464c0 8.837 7.163 16 16 16s16-7.163 16-16c0-25.612 7.344-42.778 26.251-61.329C164.369 439.706 207.47 464 256 464l.267-.002 2.103-.017c47.602-.779 89.702-24.898 115.377-61.311C392.653 421.221 400 438.393 400 464l.003.315C400.171 473.006 407.269 480 416 480c8.837 0 16-7.163 16-16 0-22.099-4.706-40.634-14.334-57.196-6.796-11.689-15.796-22.153-28.086-33.145C396.298 357.052 400 338.935 400 320v-15.87h64l.315-.003c8.691-.168 15.685-7.266 15.685-15.997 0-8.837-7.163-16-16-16h-64v-48.2q0-4.308-.256-8.466c13.129-12.397 21.659-27.281 26.524-45.095 4.171-15.27 5.615-31.389 5.725-55.296L432 112c0-8.837-7.163-16-16-16s-16 7.163-16 16c0 22.979-1.19 37.45-4.601 49.938-1.378 5.045-3.124 9.658-5.308 13.916-7.556-16.164-19.322-29.487-34.923-39.707a112 112 0 0 0-3.651-2.294q.363-2.702.471-5.434.013-.335.012-.671m-26.105 28.737q.282.137.571.263c4 1.857 7.727 3.913 11.166 6.165C357.585 175.986 368 195.695 368 223.93V320l-.015 1.823a110.9 110.9 0 0 1-11.966 48.392q-.279.498-.518 1.009c-16.326 31.462-47.154 54.366-83.501 59.628V192l-.003-.315C271.829 182.994 264.731 176 256 176c-8.837 0-16 7.163-16 16v238.85c-36.301-5.258-67.132-28.121-83.475-59.568q-.263-.57-.575-1.123A110.9 110.9 0 0 1 144 320v-96.07c0-25.601 10.392-45.107 30.049-58.792 3.715-2.587 7.75-4.951 12.074-7.085q.353-.162.695-.339c18.106-8.769 41.195-13.546 67.215-13.775l1.967-.009c27.898 0 51.681 4.241 69.895 12.555m-6.379-36.395c-3.848-31.22-30.173-55.476-62.253-56.079L256.21 64h-.378c-32.958.086-60.056 25.077-63.47 57.149 18.426-5.924 39.203-9.013 61.459-9.21l2.179-.009c23.433 0 44.798 2.662 63.516 8.16" clip-rule="evenodd"/></svg>