<svg xmlns="http://www.w3.org/2000/svg" width="512" height="512" fill="none"><path fill="currentColor" fill-rule="evenodd" d="M160 116c0-84 47.94-84 96-84s96 0 96 84c-5.95-3.29-19.86-9-30.61-12-19.3-5.35-41.3-8-65.39-8-36.65 0-69.88 6-96 20m320 156.13v32l-80-.13c0 19-3.7 53.09-10.39 69.69C415.4 396.77 432 422.32 432 464v16h-32v-16c0-27.65-9.1-44.71-26.17-61.32C352 448 337 464 272 464V176h-32v288c-63 0-80-16-101.83-61.32C121.1 419.29 112 436.34 112 464v16H80v-16c0-41.69 16.6-67.24 42.39-90.31C115.7 357.09 112 323 112 304l-80 .13v-32h80V213.2C82.59 185.36 80 149.44 80 112V96h32v16c0 28.82 2 48.57 10.87 64.04 7.5-14.81 17.8-29.53 32.7-39.72C180.81 119.06 216.2 112 256 112c68.32 0 112 16 134.1 63.84C398.14 160.15 400 140 400 112V96h32v16c0 38.44-2.58 75.25-32 103.2v56.93z" clip-rule="evenodd"/></svg>