<svg xmlns="http://www.w3.org/2000/svg" width="512" height="512" fill="none"><path fill="currentColor" fill-rule="evenodd" d="M470.539 121.52a16 16 0 0 0-25.54-4L383.559 179c-6.275 6.185-16.354 6.185-22.63 0l-26.56-26.6a16 16 0 0 1 0-22.63l61.18-61.19a16 16 0 0 0-4.78-25.92c-46.21-20.66-103.89-9.88-140.26 26.22-30.9 30.68-40.11 78.62-25.25 131.53a15.89 15.89 0 0 1-4.49 16L54.289 368.46a64.17 64.17 0 1 0 90.6 90.64l153.68-166.85a15.9 15.9 0 0 1 15.77-4.57 179.3 179.3 0 0 0 46.22 6.37c33.4 0 62.71-10.81 83.85-31.64 39.15-38.57 45.12-103.99 26.13-140.89m-370.06 326.63a32.001 32.001 0 1 1 28.34-28.35c-1.624 14.929-13.411 26.721-28.34 28.35" clip-rule="evenodd"/></svg>