<svg xmlns="http://www.w3.org/2000/svg" width="512" height="512" fill="none"><path fill="currentColor" fill-rule="evenodd" d="m143.495 459.147.272-.306 153.86-167c3.966-4.27 10.03-6.021 15.723-4.508 49.989 13.389 97.963 6.426 130.07-25.266 35.68-35.142 46.686-98.647 26.898-139.317l-.085-.171a17 17 0 0 0-27.2-4.42l-60.481 60.532c-6.238 6.198-16.376 6.198-22.655-.041l-26.533-26.534c-6.213-6.246-6.213-16.386.03-22.663l59.89-59.923a17 17 0 0 0-5.1-27.88c-45.538-19.52-102.648-8.843-138.675 26.924-32.552 32.307-39.448 81.026-25.252 131.526l.095.353a15.93 15.93 0 0 1-4.35 15.399l-.254.239-166.456 152.02a64.17 64.17 0 1 0 90.203 91.036M352.294 64.781l.437.059-41.997 42.019c-18.687 18.787-18.686 49.095-.028 67.854l26.6 26.601.568.554c18.832 18.119 48.702 17.934 67.273-.518l42.324-42.359.01.094c.935 8.908.608 18.674-1.101 28.537-3.531 20.377-12.486 38.913-25.427 51.659-22.872 22.576-59.296 27.862-99.353 17.134a47.94 47.94 0 0 0-47.464 13.697L120.13 437.271l-.102.114a32.168 32.168 0 0 1-55.305-13.639 32.17 32.17 0 0 1 9.537-31.455l.53-.477 166.674-152.217a47.93 47.93 0 0 0 13.743-47.635l-.143-.52c-11.231-39.951-6.229-76.478 16.301-99.465l.688-.693c20.857-20.706 51.724-30.174 80.241-26.503M112 416c0 8.837-7.163 16-16 16s-16-7.163-16-16 7.164-16 16-16 16 7.163 16 16" clip-rule="evenodd"/></svg>