<svg xmlns="http://www.w3.org/2000/svg" width="512" height="512" fill="none"><path fill="currentColor" fill-rule="evenodd" d="M256 16c43.07 0 83.35 16.58 113.42 46.69A159.16 159.16 0 0 1 416 176c0 47.61-16.92 89-48.94 119.57l-4.91 4.66-.024.023C344.338 317.091 320 340.129 320 360v40h-48V269.29l44.39-26-19.1-25.68L256 240l-42-22.28L195.72 244 240 269.11V400h-48v-40c0-20.36-24.63-43.43-42.64-60.27l-4.36-4.09C113.87 266.23 96 222.62 96 176A159.62 159.62 0 0 1 256 16m-64 432v-32h128v32zm16 48v-32h96v32z" clip-rule="evenodd"/></svg>