<svg xmlns="http://www.w3.org/2000/svg" width="512" height="512" fill="none"><path fill="currentColor" fill-rule="evenodd" d="M256 16c43.07 0 83.35 16.58 113.42 46.69A159.16 159.16 0 0 1 416 176c0 47.61-16.92 89-48.94 119.57l-4.91 4.66-.024.023C344.338 317.091 320 340.129 320 360v24c0 8.837-7.163 16-16 16h-24a8 8 0 0 1-8-8V274.79a8 8 0 0 1 5.13-7.47A130.7 130.7 0 0 0 303.29 253c6.595-5.318 7.901-14.855 2.979-21.751-4.922-6.895-14.366-8.758-21.539-4.249-7.42 5.22-21.67 13-28.73 13s-21.31-7.76-28.71-13a16 16 0 1 0-18.58 26 130.7 130.7 0 0 0 26.16 14.35 8 8 0 0 1 5.13 7.47V392a8 8 0 0 1-8 8h-24c-8.836 0-16-7.163-16-16v-24c0-20.36-24.63-43.43-42.64-60.27l-4.36-4.09C113.87 266.23 96 222.62 96 176A159.62 159.62 0 0 1 256 16m64 416c0-8.837-7.163-16-16-16h-96c-8.836 0-16 7.163-16 16s7.164 16 16 16h96c8.837 0 16-7.163 16-16m-16 48c0-8.837-7.163-16-16-16h-64c-8.836 0-16 7.163-16 16s7.164 16 16 16h64c8.837 0 16-7.163 16-16" clip-rule="evenodd"/></svg>