<svg xmlns="http://www.w3.org/2000/svg" width="512" height="512" fill="none"><path fill="currentColor" fill-rule="evenodd" d="M255.999 16c89.018 0 160 71.074 160 160 0 47.126-16.496 88.041-47.982 118.638l-1.995 1.912-7.445 7.061a536 536 0 0 0-8.286 8.019l-.459.456c-19.732 19.639-29.634 34.792-29.83 47.529l-.003.385v24c0 8.836-7.163 16-16 16-8.731 0-15.829-6.994-15.997-15.685l-.003-.315v-24c0-13.503 4.771-26.68 13.374-39.937 6.495-10.01 14.831-19.655 25.884-30.657l1.994-1.971a514 514 0 0 1 4.266-4.139l3.509-3.348.954-.904c2.085-1.976 5.739-5.439 6.963-6.61 25.652-24.522 39.056-57.384 39.056-96.434 0-71.262-56.665-128-128.044-128a127.6 127.6 0 0 0-90.583 37.373A127.62 127.62 0 0 0 127.999 176c0 37.452 13.988 72.334 38.245 95.662l.738.703c.755.712 2.764 2.596 4.674 4.387 1.633 1.531 3.193 2.994 3.836 3.599l1.959 1.853c2.742 2.6 5.119 4.897 7.438 7.197 10.965 10.868 19.322 20.547 25.809 30.593 8.409 13.02 13.136 26.007 13.297 39.306l.004.7v24c0 8.836-7.163 16-16 16-8.731 0-15.829-6.994-15.997-15.685l-.003-.315v-24c0-12.841-9.715-28.014-29.049-47.288l-1.583-1.567a471 471 0 0 0-6.568-6.321l-2.325-2.191-2.619-2.456c-1.944-1.823-4.037-3.785-4.839-4.542-31.31-29.555-49.017-73.239-49.017-119.591a159.6 159.6 0 0 1 46.745-113.299c30.04-30.04 70.817-46.863 113.255-46.746m32 448c8.837 0 16 7.163 16 16 0 8.731-6.994 15.829-15.685 15.997l-.315.003h-64c-8.836 0-16-7.164-16-16 0-8.731 6.994-15.829 15.685-15.997l.315-.003zm32-32c0-8.837-7.163-16-16-16h-96l-.315.003c-8.691.168-15.685 7.266-15.685 15.997 0 8.836 7.164 16 16 16h96l.315-.003c8.691-.168 15.685-7.266 15.685-15.997m-48-162.678c5.531-1.729 11.13-4.202 16.761-7.23a136 136 0 0 0 13.504-8.329l.406-.288q.57-.406.878-.637l.281-.214c6.848-5.327 8.212-15.178 3.008-22.173-5.274-7.091-15.297-8.563-22.387-3.289l-.911.648q-.58.405-1.262.863l-.706.471a104 104 0 0 1-7.966 4.764c-4.391 2.361-8.581 4.164-12.221 5.189-2.17.611-4.005.903-5.385.903s-3.214-.292-5.385-.903c-3.64-1.025-7.83-2.828-12.221-5.189a105 105 0 0 1-7.966-4.764 92 92 0 0 1-2.25-1.532l-.294-.209-.62-.448c-7.071-5.027-16.898-3.5-22.102 3.496-5.274 7.09-3.801 17.113 3.289 22.387l.11.081q.235.174.586.426l.985.696q.808.565 1.729 1.184l.948.631a136 136 0 0 0 10.43 6.236c5.632 3.028 11.231 5.501 16.761 7.23V384l.003.315c.168 8.691 7.266 15.685 15.997 15.685 8.837 0 16-7.163 16-16z" clip-rule="evenodd"/></svg>