<svg xmlns="http://www.w3.org/2000/svg" width="512" height="512" fill="none"><path fill="currentColor" fill-rule="evenodd" d="M80 16h192c26.51 0 48 21.49 48 48v112h112c26.51 0 48 21.49 48 48v256c0 8.837-7.163 16-16 16H304q-.959 0-1.888-.11A20 20 0 0 1 300 496H48c-8.837 0-16-7.163-16-16V64c0-26.51 21.49-48 48-48m208 448V64c0-8.731-6.994-15.83-15.685-15.997L272 48H80c-8.837 0-16 7.163-16 16v400h96v-48c0-8.837 7.163-16 16-16 8.731 0 15.829 6.994 15.997 15.685L192 416v48zm160 0V224c0-8.731-6.994-15.829-15.685-15.997L432 208H320v256zm-128-48c0-8.837 7.163-16 16-16s16 7.163 16 16-7.163 16-16 16-16-7.163-16-16m0-160c0 8.837 7.163 16 16 16s16-7.163 16-16-7.163-16-16-16-16 7.163-16 16m16 96c-8.837 0-16-7.163-16-16s7.163-16 16-16 16 7.163 16 16-7.163 16-16 16M98.08 431.87a16 16 0 1 1-4.15-31.73 16 16 0 0 1 4.15 31.73m-16.428-88.794a16 16 0 1 0 28.706-14.142 16 16 0 0 0-28.706 14.142M98.08 271.87a16 16 0 1 1-4.15-31.73 16 16 0 0 1 4.15 31.73m-16.428-88.794a16 16 0 1 0 28.706-14.142 16 16 0 0 0-28.706 14.142M98.08 111.87a16 16 0 1 1-4.15-31.73 16 16 0 0 1 4.15 31.73m63.572 231.206a16 16 0 1 0 28.706-14.143 16 16 0 0 0-28.706 14.143m16.428-71.206a16 16 0 1 1-4.15-31.73 16 16 0 0 1 4.15 31.73m-16.428-88.794a16 16 0 1 0 28.706-14.143 16 16 0 0 0-28.706 14.143m16.428-71.206a16 16 0 1 1-4.15-31.73 16 16 0 0 1 4.15 31.73m63.572 311.206a16 16 0 1 0 28.706-14.143 16 16 0 0 0-28.706 14.143m16.428-71.206a16 16 0 1 1-4.15-31.73 16 16 0 0 1 4.15 31.73m-16.428-88.794a16 16 0 1 0 28.706-14.143 16 16 0 0 0-28.706 14.143m25.683-75.75c6.229-6.228 6.204-16.353-.057-22.613-6.26-6.26-16.384-6.285-22.613-.056-6.229 6.228-6.203 16.353.057 22.613s16.384 6.285 22.613.056m-25.683-84.25a16 16 0 1 0 28.706-14.143 16 16 0 0 0-28.706 14.143M400 400c-8.837 0-16 7.163-16 16s7.163 16 16 16 16-7.163 16-16-7.163-16-16-16m-16-64c0-8.837 7.163-16 16-16s16 7.163 16 16-7.163 16-16 16-16-7.163-16-16m16-96c-8.837 0-16 7.163-16 16s7.163 16 16 16 16-7.163 16-16-7.163-16-16-16" clip-rule="evenodd"/></svg>