<svg xmlns="http://www.w3.org/2000/svg" width="512" height="512" fill="none"><path fill="currentColor" fill-rule="evenodd" d="M320 176h112c26.51 0 48 21.49 48 48v256c0 8.837-7.163 16-16 16H200a8 8 0 0 1-8-8v-72a16 16 0 0 0-16.77-15.98c-8.61.43-15.23 7.82-15.23 16.43V488a8 8 0 0 1-8 8H48c-8.837 0-16-7.163-16-16V64c0-26.51 21.49-48 48-48h192c26.51 0 48 21.49 48 48zM81.652 423.076a16 16 0 1 0 28.706-14.142 16 16 0 0 0-28.706 14.142M98.08 351.87a16 16 0 1 1-4.15-31.73 16 16 0 0 1 4.15 31.73m-16.428-88.794a16 16 0 1 0 28.706-14.142 16 16 0 0 0-28.706 14.142M98.08 191.87a16 16 0 1 1-4.15-31.73 16 16 0 0 1 4.15 31.73m-16.428-88.794a16 16 0 1 0 28.706-14.142 16 16 0 0 0-28.706 14.142M178.08 351.87a16 16 0 1 1-4.15-31.73 16 16 0 0 1 4.15 31.73m-16.428-88.794a16 16 0 1 0 28.706-14.143 16 16 0 0 0-28.706 14.143m16.428-71.206a16 16 0 1 1-4.15-31.73 16 16 0 0 1 4.15 31.73m-16.428-88.794a16 16 0 1 0 28.706-14.143 16 16 0 0 0-28.706 14.143M258.08 431.87a16 16 0 1 1-4.15-31.73 16 16 0 0 1 4.15 31.73m-16.428-88.794a16 16 0 1 0 28.706-14.143 16 16 0 0 0-28.706 14.143m16.428-71.206a16 16 0 1 1-4.15-31.73 16 16 0 0 1 4.15 31.73m-16.428-88.794a16 16 0 1 0 28.706-14.143 16 16 0 0 0-28.706 14.143m16.428-71.206a16 16 0 1 1-4.15-31.73 16 16 0 0 1 4.15 31.73M320 464h124a4 4 0 0 0 4-4V224c0-8.837-7.163-16-16-16H320v256m0-48c0-8.837 7.163-16 16-16s16 7.163 16 16-7.163 16-16 16-16-7.163-16-16m0-80c0-8.837 7.163-16 16-16s16 7.163 16 16-7.163 16-16 16-16-7.163-16-16m0-80c0 8.837 7.163 16 16 16s16-7.163 16-16-7.163-16-16-16-16 7.163-16 16m80 144c-8.837 0-16 7.163-16 16s7.163 16 16 16 16-7.163 16-16-7.163-16-16-16m-16-64c0-8.837 7.163-16 16-16s16 7.163 16 16-7.163 16-16 16-16-7.163-16-16m16-96c-8.837 0-16 7.163-16 16s7.163 16 16 16 16-7.163 16-16-7.163-16-16-16" clip-rule="evenodd"/></svg>