<svg xmlns="http://www.w3.org/2000/svg" width="512" height="512" fill="none"><path fill="currentColor" fill-rule="evenodd" d="M320 176V16H32v480h128v-96h32v96h288V176zM112 432H80v-32h32zm-32-80h32v-32H80zm32-80H80v-32h32zm-32-80h32v-32H80zm32-80H80V80h32zm160-32h-32v32h32zm-80 272h-32v-32h32zm-32-80h32v-32h-32zm32-80h-32v-32h32zm-32-80h32V80h-32zm112 320h-32v-32h32zm-32-80h32v-32h-32zm32-80h-32v-32h32zm-32-80h32v-32h-32zm208 16v256H320v-32h32v-32h-32v-48h32v-32h-32v-48h32v-32h-32v-32zm-32 192h-32v32h32zm-32-80h32v32h-32zm32-80h-32v32h32z" clip-rule="evenodd"/></svg>