<svg xmlns="http://www.w3.org/2000/svg" width="512" height="512" fill="none"><path fill="currentColor" fill-rule="evenodd" d="M416 80c-.028-26.498-21.502-47.972-48-48H144c-26.498.028-47.972 21.502-48 48v352c.028 26.498 21.502 47.972 48 48h224c26.498-.028 47.972-21.502 48-48zM168 432c-13.255 0-24-10.745-24-24s10.745-24 24-24 24 10.745 24 24-10.745 24-24 24m0-80c-13.255 0-24-10.745-24-24s10.745-24 24-24 24 10.745 24 24-10.745 24-24 24m0-80c-13.255 0-24-10.745-24-24s10.745-24 24-24 24 10.745 24 24-10.745 24-24 24m88 160c-13.255 0-24-10.745-24-24s10.745-24 24-24 24 10.745 24 24-10.745 24-24 24m0-80c-13.255 0-24-10.745-24-24s10.745-24 24-24 24 10.745 24 24-10.745 24-24 24m0-80c-13.255 0-24-10.745-24-24s10.745-24 24-24 24 10.745 24 24-10.745 24-24 24m112 136c0 13.255-10.745 24-24 24s-24-10.745-24-24v-80c0-13.255 10.745-24 24-24s24 10.745 24 24zm-24-136c-13.255 0-24-10.745-24-24s10.745-24 24-24 24 10.745 24 24-10.745 24-24 24m19.31-100.69A16 16 0 0 1 352 176H160c-8.837 0-16-7.163-16-16V96c0-8.837 7.163-16 16-16h192c8.837 0 16 7.163 16 16v64a16 16 0 0 1-4.69 11.31" clip-rule="evenodd"/></svg>