<svg xmlns="http://www.w3.org/2000/svg" width="512" height="512" fill="none"><path fill="currentColor" fill-rule="evenodd" d="M368 32H144c-26.51 0-48 21.49-48 48v352c0 26.51 21.49 48 48 48h224c26.51 0 48-21.49 48-48V80c0-26.51-21.49-48-48-48M144 64h224c8.837 0 16 7.163 16 16v352c0 8.837-7.163 16-16 16H144c-8.837 0-16-7.163-16-16V80c0-8.837 7.163-16 16-16m208 32H160.01c-8.837 0-16 7.163-16 16v64c0 8.837 7.163 16 16 16H352c8.837 0 16-7.163 16-16v-64c0-8.837-7.163-16-16-16m-16 32v32H176.01v-32zM168 272c13.255 0 24-10.745 24-24s-10.745-24-24-24-24 10.745-24 24 10.745 24 24 24m112-24c0 13.255-10.745 24-24 24s-24-10.745-24-24 10.745-24 24-24 24 10.745 24 24m64 24c13.255 0 24-10.745 24-24s-10.745-24-24-24-24 10.745-24 24 10.745 24 24 24m-152 56c0 13.255-10.745 24-24 24s-24-10.745-24-24 10.745-24 24-24 24 10.745 24 24m64 24c13.255 0 24-10.745 24-24s-10.745-24-24-24-24 10.745-24 24 10.745 24 24 24m-64 56c0 13.255-10.745 24-24 24s-24-10.745-24-24 10.745-24 24-24 24 10.745 24 24m64 24c13.255 0 24-10.745 24-24s-10.745-24-24-24-24 10.745-24 24 10.745 24 24 24m88-128c-13.255 0-24 10.745-24 24v80c0 13.255 10.745 24 24 24s24-10.745 24-24v-80c0-13.255-10.745-24-24-24" clip-rule="evenodd"/></svg>