<svg xmlns="http://www.w3.org/2000/svg" width="512" height="512" fill="none"><path fill="currentColor" fill-rule="evenodd" d="M416 64h-16V48.45c0-8.61-6.62-16-15.23-16.43A16 16 0 0 0 368 48v16H144V48.45c0-8.61-6.62-16-15.23-16.43A16 16 0 0 0 112 48v16H96c-35.346 0-64 28.654-64 64v288c0 35.346 28.654 64 64 64h320c35.346 0 64-28.654 64-64V128c0-35.346-28.654-64-64-64M136 416c-13.255 0-24-10.745-24-24s10.745-24 24-24 24 10.745 24 24-10.745 24-24 24m0-80c-13.255 0-24-10.745-24-24s10.745-24 24-24 24 10.745 24 24-10.745 24-24 24m80 80c-13.255 0-24-10.745-24-24s10.745-24 24-24 24 10.745 24 24-10.745 24-24 24m0-80c-13.255 0-24-10.745-24-24s10.745-24 24-24 24 10.745 24 24-10.745 24-24 24m80 80c-13.255 0-24-10.745-24-24s10.745-24 24-24 24 10.745 24 24-10.745 24-24 24m0-80c-13.255 0-24-10.745-24-24s10.745-24 24-24 24 10.745 24 24-10.745 24-24 24m0-80c-13.255 0-24-10.745-24-24s10.745-24 24-24 24 10.745 24 24-10.745 24-24 24m80 80a24 24 0 1 1 24-24c0 13.255-10.745 24-24 24m0-80a24 24 0 1 1 24-24c0 13.255-10.745 24-24 24m72-120v16a8 8 0 0 1-8 8H72a8 8 0 0 1-8-8v-24c.05-17.653 14.347-31.95 32-32h320c17.653.05 31.951 14.347 32 32z" clip-rule="evenodd"/></svg>