<svg xmlns="http://www.w3.org/2000/svg" width="512" height="512" fill="none"><path fill="currentColor" fill-rule="evenodd" d="M143.997 47.685C143.829 38.994 136.731 32 128 32c-8.837 0-16 7.163-16 16v16H96c-35.346 0-64 28.654-64 64v288c0 35.346 28.654 64 64 64h320c35.346 0 64-28.654 64-64V128c0-35.346-28.654-64-64-64h-16V48l-.003-.315C399.829 38.994 392.731 32 384 32c-8.837 0-16 7.163-16 16v16H144V48zM448 208c0-16-16-32-32-32H96c-16 0-32 16-32 32v208c0 17.673 14.327 32 32 32h320c17.673 0 32-14.327 32-32zm-79.293 40.208c5.637-5.638 5.637-14.778 0-20.415s-14.777-5.637-20.415 0L211.26 364.826l-47.053-47.053c-5.637-5.637-14.777-5.637-20.415 0-5.637 5.637-5.637 14.777 0 20.415l57.26 57.26a14.44 14.44 0 0 0 20.415 0z" clip-rule="evenodd"/></svg>