<svg xmlns="http://www.w3.org/2000/svg" width="512" height="512" fill="none"><path fill="currentColor" fill-rule="evenodd" d="M448 64h-48V32h-40v32H152V32h-40v32H64c-17.673 0-32 14.327-32 32v352c0 17.673 14.327 32 32 32h384c17.673 0 32-14.327 32-32V96c0-17.673-14.327-32-32-32m-12 372H76V176h360zM276 208a4 4 0 0 0-4 4v40a4 4 0 0 0 4 4h40a4 4 0 0 0 4-4v-40a4 4 0 0 0-4-4zm80 0a4 4 0 0 0-4 4v40a4 4 0 0 0 4 4h40a4 4 0 0 0 4-4v-40a4 4 0 0 0-4-4zm-84 84a4 4 0 0 1 4-4h40a4 4 0 0 1 4 4v40a4 4 0 0 1-4 4h-40a4 4 0 0 1-4-4zm84-4a4 4 0 0 0-4 4v40a4 4 0 0 0 4 4h40a4 4 0 0 0 4-4v-40a4 4 0 0 0-4-4zm-244 4a4 4 0 0 1 4-4h40a4 4 0 0 1 4 4v40a4 4 0 0 1-4 4h-40a4 4 0 0 1-4-4zm84-4a4 4 0 0 0-4 4v40a4 4 0 0 0 4 4h40a4 4 0 0 0 4-4v-40a4 4 0 0 0-4-4zm-84 84a4 4 0 0 1 4-4h40a4 4 0 0 1 4 4v40a4 4 0 0 1-4 4h-40a4 4 0 0 1-4-4zm84-4a4 4 0 0 0-4 4v40a4 4 0 0 0 4 4h40a4 4 0 0 0 4-4v-40a4 4 0 0 0-4-4zm76 4a4 4 0 0 1 4-4h40a4 4 0 0 1 4 4v40a4 4 0 0 1-4 4h-40a4 4 0 0 1-4-4z" clip-rule="evenodd"/></svg>