<svg xmlns="http://www.w3.org/2000/svg" width="512" height="512" fill="none"><path fill="currentColor" fill-rule="evenodd" d="M128 32c8.731 0 15.829 6.994 15.997 15.685L144 48v16h224V48c0-8.837 7.163-16 16-16 8.731 0 15.829 6.994 15.997 15.685L400 48v16h16c35.346 0 64 28.654 64 64v288c0 35.346-28.654 64-64 64H96c-35.346 0-64-28.654-64-64V128c0-35.346 28.654-64 64-64h16V48c0-8.837 7.163-16 16-16m288 144c16 0 32 16 32 32v208c0 17.673-14.327 32-32 32H96c-17.673 0-32-14.327-32-32V208c0-16 16-32 32-32zm-96 56c0 13.255-10.745 24-24 24s-24-10.745-24-24 10.745-24 24-24 24 10.745 24 24m56 24c13.255 0 24-10.745 24-24s-10.745-24-24-24-24 10.745-24 24 10.745 24 24 24m-56 56c0 13.255-10.745 24-24 24s-24-10.745-24-24 10.745-24 24-24 24 10.745 24 24m56 24c13.255 0 24-10.745 24-24s-10.745-24-24-24-24 10.745-24 24 10.745 24 24 24m-216-24c0 13.255-10.745 24-24 24s-24-10.745-24-24 10.745-24 24-24 24 10.745 24 24m56 24c13.255 0 24-10.745 24-24s-10.745-24-24-24-24 10.745-24 24 10.745 24 24 24m-56 56c0 13.255-10.745 24-24 24s-24-10.745-24-24 10.745-24 24-24 24 10.745 24 24m56 24c13.255 0 24-10.745 24-24s-10.745-24-24-24-24 10.745-24 24 10.745 24 24 24m104-24c0 13.255-10.745 24-24 24s-24-10.745-24-24 10.745-24 24-24 24 10.745 24 24" clip-rule="evenodd"/></svg>