<svg xmlns="http://www.w3.org/2000/svg" width="512" height="512" fill="none"><path fill="currentColor" fill-rule="evenodd" d="M118.199 32.083c-3.037.237-5.589.951-8.508 2.131l-.589.243c-.747.312-3.825 1.69-5.11 2.24l-.368.155a176 176 0 0 0-28.41 15.146c-18.858 12.528-29.377 23.465-36.796 39.32-5.195 11.101-6.84 25.875-4.148 43.629 3.149 20.767 12.115 45.209 27.693 73.509l1.95 3.53c31.687 57.11 55.063 87.859 101.908 134.574 44.896 44.77 80.572 71.074 138.202 103.395l1.924 1.072c30.35 16.809 54.704 25.786 74.671 28.276 16.627 2.074 28.881-.202 40.897-5.799 15.937-7.424 26.934-17.92 39.394-36.638 5.7-8.64 10.6-17.712 14.673-27.158l.855-2.001c.634-1.451 1.799-4.044 2.084-4.723 1.329-3.161 2.129-5.842 2.387-9.076.503-6.282-1.428-11.822-5.315-17.377l-.393-.554c-2.543-3.526-6.08-7.425-11.831-13.234-15.086-15.2-51.002-38.491-76.399-51.401l-5.805-2.915c-5.2-2.59-7.755-3.777-10.778-5.011-5.821-2.376-10.78-3.607-16.021-3.612-5.729-.006-11.008 1.492-16.478 4.368l-.688.368c-3.328 1.809-6.719 4.081-11.584 7.655l-2.128 1.578c-2.103 1.579-6.446 4.897-6.717 5.101l-1.197.896c-1.646 1.22-2.947 2.133-4.131 2.893l-.272.173c-4.245 2.683-6.629 3.25-10.354 2.456-5.679-1.211-16.13-6.027-27.671-13.215-13.699-8.533-27.668-19.515-40.051-31.859-12.405-12.366-23.66-26.555-32.483-40.497l-.716-1.139c-7.082-11.358-11.835-21.522-12.983-26.87-.772-3.598-.226-5.884 2.407-10.047l.506-.782c.765-1.158 1.688-2.452 2.922-4.106l1.174-1.559 2.686-3.534a268 268 0 0 0 2.346-3.142l.836-1.144c8.602-11.855 11.94-18.865 11.924-28.642-.008-4.879-1.026-9.595-2.999-15.064l-.434-1.176c-1.436-3.812-3.096-7.542-6.794-15.493-10.704-22.964-35.565-60.835-51.7-76.976l-.487-.483c-6.088-6.013-10.087-9.605-13.762-12.17-5.546-3.873-11.073-5.8-17.339-5.31m-3.379 34.782 2.138-.91 2.074-.909.472.402c1.614 1.39 3.756 3.392 6.579 6.164l.752.741c13.121 12.908 36.333 48.205 45.642 68.177l1.918 4.147c2.134 4.648 3.217 7.168 4.066 9.456l.248.687c.39 1.102.657 2.001.822 2.73.135.6.183.997.183 1.259l-.005.131c-.028.32-.172.759-.664 1.746l-.189.37c-.96 1.831-2.608 4.326-5.399 8.143l-.937 1.271c-.44.592-.908 1.214-1.446 1.925l-3.293 4.338-1.171 1.568c-1.733 2.342-3.075 4.267-4.335 6.259-6.811 10.769-9.338 21.342-6.649 33.868 4.475 20.846 27.387 57.05 54.878 84.454 27.366 27.279 62.585 49.216 83.638 53.706 12.619 2.691 23.277.154 34.124-6.701 2.112-1.334 4.168-2.774 6.671-4.638l7.458-5.656.749-.562c4.679-3.476 7.454-5.363 9.461-6.442l.175-.093c1.088-.573 1.419-.681 1.534-.691l.126.001c1.541.068 5.113 1.554 17.362 7.724 22.39 11.291 55.877 32.923 68.466 45.367l.724.727 1.418 1.446c2.249 2.307 3.929 4.114 5.143 5.521l.378.444-1.017 2.321-.287.674a143 143 0 0 1-12.393 23.158c-9.414 14.144-16.231 20.65-26.231 25.308-6.814 3.175-13.096 4.341-23.425 3.053l-.994-.131c-15.678-2.17-36.587-10.072-63.916-25.378-55.183-30.948-88.52-55.528-131.251-98.139-45.657-45.53-67.19-74.141-98.421-130.877-13.867-25.191-21.55-46.134-24.087-62.874-1.793-11.823-.855-20.254 1.492-25.268 4.633-9.9 11.168-16.695 25.452-26.185a144 144 0 0 1 21.967-11.832" clip-rule="evenodd"/></svg>