<svg xmlns="http://www.w3.org/2000/svg" width="512" height="512" fill="none"><path fill="currentColor" fill-rule="evenodd" d="M210 80h92c13.21 0 25.324 6.014 34.064 16.203q.755.88 1.376 1.86L363.349 139l.211.223c2.861 2.939 6.296 4.66 9.147 4.771L373 144h59c26.51 0 48 21.49 48 48v192c0 26.51-21.49 48-48 48H80c-26.51 0-48-21.49-48-48V192c0-26.51 21.49-48 48-48h4v-8c0-8.731 6.994-15.829 15.685-15.997L100 120h24c8.731 0 15.829 6.994 15.997 15.685L140 136v8c2.534 0 5.373-1.47 8.44-4.756l.184-.202 25.936-40.979q.497-.784 1.079-1.504l.297-.356C184.676 86.014 196.79 80 210 80m92.339 32.005L302 112h-92c-3.163 0-6.244 1.378-8.927 4.112l-.191.197-25.902 40.928a16 16 0 0 1-1.073 1.497l-.295.354C164.613 169.595 153.193 176 140 176H80c-8.837 0-16 7.163-16 16v192c0 8.837 7.163 16 16 16h352c8.837 0 16-7.163 16-16V192c0-8.837-7.163-16-16-16h-59c-13.214 0-25.772-6.59-34.612-16.912q-.75-.876-1.368-1.851l-25.903-40.928-.19-.197c-2.587-2.636-5.545-4.012-8.588-4.107m48.243 144.936c5.648-2.027 12.207-.779 16.732 3.745 6.161 6.162 6.247 16.099.256 22.365l-.256.263-20 20c-6.162 6.161-16.099 6.247-22.365.256l-.263-.256-20-20c-6.248-6.249-6.248-16.379 0-22.628a15.97 15.97 0 0 1 13.083-4.588 64.005 64.005 0 0 0-102.809-33.461c-6.808 5.634-16.894 4.681-22.527-2.127s-4.681-16.894 2.127-22.527c28.646-23.703 68.404-28.733 102.051-12.912 29.065 13.668 49.055 40.771 53.971 71.87M144.949 283.57c4.452 4.257 10.758 5.446 16.245 3.567 4.934 30.992 24.837 58.005 53.777 71.685 33.542 15.857 73.218 10.966 101.905-12.56 6.833-5.604 7.829-15.685 2.226-22.518-5.604-6.833-15.685-7.829-22.518-2.226l-.576.467a64 64 0 0 1-67.36 7.907 64 64 0 0 1-34.659-42.018 15.98 15.98 0 0 0 13.325-4.56c6.248-6.249 6.248-16.379 0-22.628l-20-20-.263-.256c-6.266-5.991-16.203-5.905-22.365.256l-20 20-.256.263c-5.991 6.266-5.905 16.203.256 22.365z" clip-rule="evenodd"/></svg>