<svg xmlns="http://www.w3.org/2000/svg" width="512" height="512" fill="none"><path fill="currentColor" fill-rule="evenodd" d="M432 144h-59c-3 0-6.72-1.94-9.62-5l-25.94-40.94q-.616-.976-1.37-1.85C327.11 85.76 315 80 302 80h-92c-13 0-25.11 5.76-34.07 16.21q-.754.874-1.37 1.85l-25.94 41c-2.22 2.42-5.34 5-8.62 5v-8c0-8.837-7.163-16-16-16h-24c-8.837 0-16 7.163-16 16v8h-4c-26.498.028-47.972 21.502-48 48V384c.028 26.498 21.502 47.972 48 48h352c26.498-.028 47.972-21.502 48-48V192c-.028-26.498-21.502-47.972-48-48M256 368c-53.019 0-96-42.981-96-96s42.981-96 96-96 96 42.981 96 96c-.061 52.994-43.006 95.939-96 96m64-96c0 35.346-28.654 64-64 64s-64-28.654-64-64 28.654-64 64-64 64 28.654 64 64" clip-rule="evenodd"/></svg>