<svg xmlns="http://www.w3.org/2000/svg" width="512" height="512" fill="none"><path fill="currentColor" fill-rule="evenodd" d="M456 144h-83c-3 0-6.72-1.94-9.62-5L336.1 96.2C325 80 320 80 302 80h-92c-18 0-24 0-34.07 16.21L148.62 139c-2.22 2.42-5.34 5-8.62 5v-16a8 8 0 0 0-8-8H92a8 8 0 0 0-8 8v16H56c-13.255 0-24 10.745-24 24v240c0 13.255 10.745 24 24 24h400c13.255 0 24-10.745 24-24V168c0-13.255-10.745-24-24-24M260.51 367.9c-39.606 1.86-76.281-20.82-92.31-57.085s-8.113-78.655 19.923-106.692c28.037-28.036 70.426-35.952 106.692-19.923s58.945 52.704 57.085 92.31c-2.375 49.456-41.934 89.015-91.39 91.39M320 272c0 35.346-28.654 64-64 64s-64-28.654-64-64 28.654-64 64-64 64 28.654 64 64" clip-rule="evenodd"/></svg>