<svg xmlns="http://www.w3.org/2000/svg" width="512" height="512" fill="none"><path fill="currentColor" fill-rule="evenodd" d="M210 80h92c13.21 0 25.324 6.014 34.064 16.203q.755.88 1.376 1.86L363.349 139l.211.223c2.861 2.939 6.296 4.66 9.147 4.771L373 144h59c26.51 0 48 21.49 48 48v192c0 26.51-21.49 48-48 48H80c-26.51 0-48-21.49-48-48V192c0-26.51 21.49-48 48-48h4v-8c0-8.731 6.994-15.829 15.685-15.997L100 120h24c8.731 0 15.829 6.994 15.997 15.685L140 136v8c2.534 0 5.373-1.47 8.44-4.756l.184-.202 25.936-40.979q.497-.784 1.079-1.504l.297-.356C184.676 86.014 196.79 80 210 80m92.339 32.005L302 112h-92c-3.163 0-6.244 1.378-8.927 4.112l-.191.197-25.902 40.928a16 16 0 0 1-1.073 1.497l-.295.354C164.613 169.595 153.193 176 140 176H80c-8.837 0-16 7.163-16 16v192c0 8.837 7.163 16 16 16h352c8.837 0 16-7.163 16-16V192c0-8.837-7.163-16-16-16h-59c-13.214 0-25.772-6.59-34.612-16.912q-.75-.876-1.368-1.851l-25.903-40.928-.19-.197c-2.587-2.636-5.545-4.012-8.588-4.107M160 272c0-53.019 42.981-96 96-96s96 42.981 96 96-42.981 96-96 96-96-42.981-96-96m160 0c0-35.346-28.654-64-64-64s-64 28.654-64 64 28.654 64 64 64 64-28.654 64-64" clip-rule="evenodd"/></svg>