<svg xmlns="http://www.w3.org/2000/svg" width="512" height="512" fill="none"><path fill="currentColor" fill-rule="evenodd" d="M432 144h-59c-3 0-6.72-1.94-9.62-5l-25.94-40.94q-.616-.976-1.37-1.85C327.11 85.76 315 80 302 80h-92c-13 0-25.11 5.76-34.07 16.21q-.754.874-1.37 1.85l-25.94 41c-2.22 2.42-5.34 5-8.62 5v-8c0-8.837-7.163-16-16-16h-24c-8.837 0-16 7.163-16 16v8h-4c-26.498.028-47.972 21.502-48 48V384c.028 26.498 21.502 47.972 48 48h352c26.498-.028 47.972-21.502 48-48V192c-.028-26.498-21.502-47.972-48-48M316.84 346.3a96.061 96.061 0 0 1-155.66-59.18 16 16 0 0 1-16.49-26.43l20-20c6.248-6.243 16.372-6.243 22.62 0l20 20A16 16 0 0 1 196 288a17 17 0 0 1-2-.14 64.07 64.07 0 0 0 102.66 33.63 16 16 0 1 1 20.21 24.81zm50.47-63-20 20c-6.248 6.243-16.372 6.243-22.62 0l-20-20a16 16 0 0 1 13.09-27.2A64 64 0 0 0 215 222.64a16.002 16.002 0 0 1-26.406-9.486A16 16 0 0 1 194.61 198a96 96 0 0 1 156 59 16 16 0 0 1 18.881 6.499 16 16 0 0 1-2.161 19.851z" clip-rule="evenodd"/></svg>