<svg xmlns="http://www.w3.org/2000/svg" width="512" height="512" fill="none"><path fill="currentColor" fill-rule="evenodd" d="M104 80h304c39.764 0 72 32.235 72 72v208c0 39.764-32.236 72-72 72H104c-39.764 0-72-32.236-72-72V152c0-39.765 32.236-72 72-72m304 32H104c-22.091 0-40 17.909-40 40v10h384v-10c0-22.091-17.909-40-40-40M64 360V222h384v138c0 22.091-17.909 40-40 40H104c-22.091 0-40-17.909-40-40m64-90h48c16.569 0 30 13.431 30 30v20c0 16.569-13.431 30-30 30h-48c-16.569 0-30-13.431-30-30v-20c0-16.569 13.431-30 30-30" clip-rule="evenodd"/></svg>