<svg xmlns="http://www.w3.org/2000/svg" width="512" height="512" fill="none" viewBox="0 0 34 34"><path fill="currentColor" d="M33.498 11.57c.504-2.915-2.096-3.691-2.096-3.691C32.695 5.45 30.92 3.8 30.92 3.8c-2.147-1.775-4.076-.511-4.076-.511-1.08-3.025-3.921-2.204-3.921-2.204-3.445.982-2.51 4.98-2.51 4.98-4.883-1.51-7.85 1.768-7.85 1.768C.07 19.079.424 29.267.443 29.65c0 0 .105 3.447 3.543 3.364 1.794 0 11.269-.583 21.61-12.055 1.223-1.192 2.726-3.826 2.059-7.014-.002 0 5.016 1.622 5.844-2.376m-10.2-.82c4.515 5.103.591 8.57.591 8.57a47 47 0 0 1-3.002 3.026l-3.855-3.85a1.184 1.184 0 0 0-1.674 1.672l3.744 3.74c-2.579 2.127-5.005 3.605-7.125 4.6l-3.32-3.318a1.184 1.184 0 0 0-1.674 1.673l2.62 2.617c-3.07 1.093-5.168 1.168-5.617 1.168-1.216.046-1.176-1.064-1.176-1.064-.002-.068-.123-4.83 3.935-11.325l3.04 3.035s.53.748 1.675 0c.547-.358.463-1.21 0-1.672l-3.368-3.364c1.428-1.969 3.246-4.057 5.548-6.194l4.519 4.537s.503.747 1.674 0c.55-.351.463-1.21 0-1.672l-4.297-4.295c4.114-2.153 7.762 2.117 7.762 2.117m.957-7.257c.414.203.555 1.067.524 2.149a1.184 1.184 0 0 0 2.194.651c.112-.183.653-.944 1.301-1.029 1.24-.162 1.223.916 1.223.916-.01.443-.388.988-1.067 1.534-.39.314-.538.838-.373 1.31.166.474.613.791 1.112.795.577.003 1.607.186 1.916.618.423.592-.156 1.201-.156 1.201-.243.17-1.29.617-4.409-.5 0 0-1.298-2.272-3.259-3.566 0 0-.952-2.34-.401-3.702-.001-.002.465-.832 1.395-.377"/></svg>