<svg xmlns="http://www.w3.org/2000/svg" width="512" height="512" fill="none"><path fill="currentColor" fill-rule="evenodd" d="M121 64a16 16 0 0 1 15.693 12.879l.064.34L142.894 112h304.335a24 24 0 0 1 23.634 28.267l-.084.441-28.8 144.002c-2.221 11.098-11.887 19.118-23.158 19.287l-.381.003H176.776l5.647 32H425c8.731 0 15.829 6.994 15.997 15.685L441 352c0 8.731-6.994 15.829-15.685 15.997L425 368H169a16 16 0 0 1-15.693-12.878l-.064-.341L107.576 96H57c-8.731 0-15.83-6.994-15.997-15.685L41 80c0-8.731 6.994-15.83 15.685-15.997L57 64zm50.129 208h240.757l25.601-128.001-288.946.001zM153 416c0-17.673 14.327-32 32-32s32 14.327 32 32-14.327 32-32 32-32-14.327-32-32m224 0c0-17.673 14.327-32 32-32s32 14.327 32 32-14.327 32-32 32-32-14.327-32-32" clip-rule="evenodd"/></svg>