<svg xmlns="http://www.w3.org/2000/svg" width="512" height="512" fill="none"><path fill="currentColor" fill-rule="evenodd" d="M447.24 112a23.92 23.92 0 0 1 18.56 8.78 24 24 0 0 1 5 19.93l-28.8 144c-2.272 11.212-12.121 19.275-23.56 19.29H176.78l5.64 32H425c8.837 0 16 7.163 16 16s-7.163 16-16 16H169a16 16 0 0 1-15.76-13.22L107.58 96H57c-8.837 0-16-7.163-16-16s7.163-16 16-16h64a16 16 0 0 1 15.76 13.22l6.13 34.78zM185 448c17.673 0 32-14.327 32-32s-14.327-32-32-32-32 14.327-32 32 14.327 32 32 32m224 0c17.673 0 32-14.327 32-32s-14.327-32-32-32-32 14.327-32 32 14.327 32 32 32" clip-rule="evenodd"/></svg>