<svg xmlns="http://www.w3.org/2000/svg" width="512" height="513" fill="none"><path fill="currentColor" d="m354.118 264.664-192-189.867-29.867 29.867 51.2 51.2L72.518 266.797c-12.8 12.8-12.8 32 0 44.8L189.851 428.93c6.4 6.4 14.934 8.534 23.467 8.534s17.067-2.134 23.467-8.534l117.333-117.333c12.8-12.8 12.8-34.133 0-46.933m-243.2 23.466 102.4-102.4 102.4 102.4zm294.4 32s-42.667 46.934-42.667 74.667c0 23.467 19.2 42.667 42.667 42.667s42.667-19.2 42.667-42.667c0-27.733-42.667-74.667-42.667-74.667"/></svg>