<svg xmlns="http://www.w3.org/2000/svg" width="512" height="513" fill="none"><path fill="currentColor" d="m426.668 424.664 19.2 76.8-68.267-40.534-70.4 40.534 17.067-76.8-61.867-61.867h81.067l36.267-74.667 29.866 74.667h81.067zm0-317.867H85.335c-23.467 0-42.667 19.2-42.667 42.667v213.333c0 23.467 19.2 42.667 42.667 42.667h160l-12.8-12.8-19.2-19.2h-10.667V320.13h115.2l23.467-49.066V224.13h96v64h-10.667l12.8 32h29.867V149.464c0-23.467-19.2-42.667-42.667-42.667m-352 42.667c0-6.4 4.267-10.667 8.533-10.667h87.467v53.333h-96zm0 74.666h96v64h-96zm10.667 149.334c-6.4 0-10.667-4.267-10.667-8.534v-44.8h96v53.334zm224-181.334H202.668v-53.333h106.667zm128 0h-96v-53.333h85.333c6.4 0 10.667 4.267 10.667 8.533v44.8"/></svg>