<svg xmlns="http://www.w3.org/2000/svg" width="512" height="512" fill="none"><path fill="currentColor" fill-rule="evenodd" d="M424 432h48c13.255 0 24-10.745 24-24V104c0-13.255-10.745-24-24-24h-48c-13.255 0-24 10.745-24 24v304c0 13.255 10.745 24 24 24m-128 0h48c13.255 0 24-10.745 24-24V184c0-13.255-10.745-24-24-24h-48c-13.255 0-24 10.745-24 24v224c0 13.255 10.745 24 24 24m-80 0h-48c-13.255 0-24-10.745-24-24V248c0-13.255 10.745-24 24-24h48c13.255 0 24 10.745 24 24v160c0 13.255-10.745 24-24 24m-176 0h48c13.255 0 24-10.745 24-24v-96c0-13.255-10.745-24-24-24H40c-13.255 0-24 10.745-24 24v96c0 13.255 10.745 24 24 24" clip-rule="evenodd"/></svg>