<svg xmlns="http://www.w3.org/2000/svg" width="512" height="512" fill="none"><path fill="currentColor" fill-rule="evenodd" d="M472 80h-48c-13.255 0-24 10.745-24 24v304c0 13.255 10.745 24 24 24h48c13.255 0 24-10.745 24-24V104c0-13.255-10.745-24-24-24m-8 320h-32V112h32zM344 160h-48c-13.255 0-24 10.745-24 24v224c0 13.255 10.745 24 24 24h48c13.255 0 24-10.745 24-24V184c0-13.255-10.745-24-24-24m-8 32v208h-32V192zm-168 32h48c13.255 0 24 10.745 24 24v160c0 13.255-10.745 24-24 24h-48c-13.255 0-24-10.745-24-24V248c0-13.255 10.745-24 24-24m40 176V256h-32v144zM88 288H40c-13.255 0-24 10.745-24 24v96c0 13.255 10.745 24 24 24h48c13.255 0 24-10.745 24-24v-96c0-13.255-10.745-24-24-24m-8 32v80H48v-80z" clip-rule="evenodd"/></svg>