<svg xmlns="http://www.w3.org/2000/svg" width="512" height="513" fill="none"><path fill="currentColor" d="M426.668 106.797H85.335c-23.467 0-42.667 19.2-42.667 42.667v213.333c0 23.467 19.2 42.667 42.667 42.667h341.333c23.467 0 42.667-19.2 42.667-42.667V149.464c0-23.467-19.2-42.667-42.667-42.667m-224 32h106.667v53.333H202.668zm-32 234.667H85.335c-6.4 0-10.667-4.267-10.667-8.534v-44.8h96zm0-85.334h-96v-64h96zm0-96h-96v-42.666c0-6.4 4.267-10.667 8.533-10.667h87.467zm138.667 181.334H202.668V320.13h106.667zm128-10.667c0 6.4-4.267 10.667-8.534 10.667h-87.466V320.13h96zm0-74.667h-96v-64h96zm0-96h-96v-53.333h85.333c6.4 0 10.667 4.267 10.667 8.533z"/></svg>