<svg xmlns="http://www.w3.org/2000/svg" width="512" height="512" fill="none"><path fill="currentColor" fill-rule="evenodd" d="M430.311 403.6a26.8 26.8 0 0 0 9.59 2 24 24 0 0 0 17-7.03 24 24 0 0 0 7.03-17 26.4 26.4 0 0 0-1.12-7.11l-15.74-55.94q.483-1.075 1.08-2.09l.15-.27q.169-.24.347-.475l.153-.205.74-1 .19-.28a177.87 177.87 0 0 0 30.3-99.15c.15-47.54-18.57-92.6-52.73-126.87C391.161 52 342.511 32 290.301 32a194.76 194.76 0 0 0-120.39 41.52c-33.48 26.43-56.76 63.38-65.55 104a176 176 0 0 0-4.06 37.58 183.38 183.38 0 0 0 54.11 130.51c35.21 35.23 82.41 54.63 132.89 54.63 19.75 0 44.36-6.33 51.43-8.27 13.04-3.58 25.47-8.25 26.85-8.77a10.3 10.3 0 0 1 3.62-.66 9.9 9.9 0 0 1 3.91.76l.42.17zm-140.73 13.69a15.74 15.74 0 0 1 10.29 8.1 15 15 0 0 1-1.95 16.39c-4.02 4.647-10.328 7.354-15.484 9.568-1.257.54-2.446 1.05-3.516 1.552a176 176 0 0 1-74.91 16.66c-20.78 0-42.71-4.16-63.78-12a8.05 8.05 0 0 0-5.72 0l-53.51 20.65a23.4 23.4 0 0 1-9 1.79 24.34 24.34 0 0 1-15.12-5.28l-.46-.39a24 24 0 0 1-8-22.92l3.646-18.935c2.22-11.539 4.675-24.296 6.354-32.975.58-4.5.58-6.5-2.02-10.83a162.09 162.09 0 0 1-11-150.06C49.12 230 57 221.42 57 221.42A16 16 0 0 1 85 232s0 2.42 1.4 12.16a199.2 199.2 0 0 0 56.69 112.73 201.78 201.78 0 0 0 128.82 58.75c1.424.105 2.97.161 4.584.22 4.221.153 8.905.323 13.086 1.43" clip-rule="evenodd"/></svg>