<svg xmlns="http://www.w3.org/2000/svg" width="512" height="512" fill="none"><path fill="currentColor" fill-rule="evenodd" d="M456 48H56c-13.255 0-24 10.745-24 24v288c0 13.255 10.745 24 24 24h72v80l117.74-80H456c13.255 0 24-10.745 24-24V72c0-13.255-10.745-24-24-24M160 248c-17.673 0-32-14.327-32-32s14.327-32 32-32 32 14.327 32 32-14.327 32-32 32m96 0c-17.673 0-32-14.327-32-32s14.327-32 32-32 32 14.327 32 32-14.327 32-32 32m96 0c-17.673 0-32-14.327-32-32s14.327-32 32-32 32 14.327 32 32-14.327 32-32 32" clip-rule="evenodd"/></svg>