<svg xmlns="http://www.w3.org/2000/svg" width="512" height="512" fill="none"><path fill="currentColor" fill-rule="evenodd" d="M255.83 32C131.97 32 31.622 130.186 32 251.39a215.8 215.8 0 0 0 34.948 117.698l.947 1.442.273.367.432.596q.424.6.817 1.223l.323.524.119.212c.75 1.35 1.34 2.625 1.69 3.645l.077.238-19.106 69.12a32 32 0 0 0-1.205 6.611l-.036.48-.007.481A25.6 25.6 0 0 0 76.792 480l.858.003.853-.09.643-.073c2.55-.319 5.05-.943 7.449-1.86l.721-.286 67.863-24.491.399-.169a14.7 14.7 0 0 1 5.791-1.164c1.889.002 3.718.343 5.44 1.005 8.273 3.194 20.601 7.443 31.819 10.583 17.501 4.898 42.934 8.962 60.782 8.962 122.987 0 220.59-98.722 220.59-220.93a215 215 0 0 0-4.775-44.993C453.809 105.532 362.433 32 255.83 32m0 32c91.532 0 169.821 63.001 188.098 149.17A183 183 0 0 1 448 251.496c0 104.61-83.359 188.924-188.59 188.924-14.663 0-37.279-3.614-52.158-7.778l-1.648-.468c-9.673-2.781-20.27-6.449-27.29-9.16a47.1 47.1 0 0 0-16.866-3.144l-.697.003a46.7 46.7 0 0 0-17.001 3.424l-.193.079-57.162 20.631 16.517-59.744c1.504-5.537.993-10.95-.745-16.484-1.047-3.334-2.531-6.621-4.32-9.839l-.492-.873-.615-1.012a61 61 0 0 0-2.298-3.438l-.278-.38.194.295A183.8 183.8 0 0 1 63.999 251.34C63.678 147.979 149.506 64 255.83 64" clip-rule="evenodd"/></svg>