<svg xmlns="http://www.w3.org/2000/svg" width="512" height="512" fill="none"><path fill="currentColor" fill-rule="evenodd" d="M475.219 206.52c-10.34-48.65-37.76-92.93-77.22-124.68A227.4 227.4 0 0 0 255.819 32c-60.92 0-117.82 23.47-160.36 66.09C54.35 139.33 31.82 193.78 32 251.37a215.66 215.66 0 0 0 35.65 118.76l4.35 6.05L48 480l114.8-28.56s2.3.77 4 1.42 16.33 6.26 31.85 10.6c12.9 3.6 39.74 9 60.77 9 59.65 0 115.35-23.1 156.83-65.06 41.11-41.63 63.75-96.98 63.75-155.91a213.5 213.5 0 0 0-4.78-44.97" clip-rule="evenodd"/></svg>