<svg xmlns="http://www.w3.org/2000/svg" width="512" height="512" fill="none"><path fill="currentColor" fill-rule="evenodd" d="M255.82 32C131.958 32 31.612 130.188 32 251.391c0 41.765 12.145 82.67 34.948 117.697l.959 1.46.287.384.42.577q.413.583.794 1.187l.322.528.129.227c.75 1.35 1.339 2.623 1.687 3.64l.074.228-19.11 69.136a32 32 0 0 0-1.205 6.611l-.037.488-.006.489A25.607 25.607 0 0 0 76.792 480l.858.003.854-.09.643-.074a31.9 31.9 0 0 0 7.502-1.883l.644-.257 67.886-24.496.4-.17a14.7 14.7 0 0 1 5.784-1.163c1.89.002 3.724.343 5.451 1.006l1.338.513c8.225 3.124 19.848 7.094 30.476 10.069 17.506 4.9 42.927 8.962 60.782 8.962 122.987 0 220.59-98.722 220.59-220.93a215 215 0 0 0-4.786-44.997C453.811 105.536 362.427 32 255.82 32m0 32c91.536 0 169.831 63.004 188.098 149.168A183 183 0 0 1 448 251.499c0 104.607-83.358 188.921-188.59 188.921-14.67 0-37.274-3.612-52.157-7.778l-1.649-.468c-9.673-2.781-20.27-6.449-27.29-9.16a47.2 47.2 0 0 0-16.876-3.144l-.697.003a46.7 46.7 0 0 0-16.992 3.425l-.174.071-57.19 20.638 16.517-59.744c1.51-5.512 1.004-10.935-.734-16.477-1.046-3.337-2.53-6.625-4.32-9.846l-.482-.854-.61-1.008a59 59 0 0 0-2.329-3.485l-.278-.379.209.318A183.8 183.8 0 0 1 63.999 251.34C63.67 147.98 149.494 64 255.82 64M192 256c0 17.673-14.327 32-32 32s-32-14.327-32-32 14.327-32 32-32 32 14.327 32 32m64 32c17.673 0 32-14.327 32-32s-14.327-32-32-32-32 14.327-32 32 14.327 32 32 32m128-32c0 17.673-14.327 32-32 32s-32-14.327-32-32 14.327-32 32-32 32 14.327 32 32" clip-rule="evenodd"/></svg>