<svg xmlns="http://www.w3.org/2000/svg" width="512" height="512" fill="none"><path fill="currentColor" fill-rule="evenodd" d="M449.047 310.887c-.346.515-.693 1.033-1.047 1.543-4.92 7.2-4.76 8.14-3.53 13.14l17.72 67.49a4 4 0 0 1-5 4.86l-77.42-22.38c-3.89-1.12-8.77.1-11.89 1.29s-15.18 5.6-27.35 8.94-34.36 8.29-50.83 8.29c-103.6 0-184.16-82.71-184.16-182.11a173 173 0 0 1 4-36.83C127.2 93.49 202.58 32 292.94 32c103.6 0 187.38 80.55 187.06 179.85a174.55 174.55 0 0 1-29.73 97.24 94 94 0 0 0-1.223 1.797M289.28 417.43a165 165 0 0 0 23.26-2.05 4.29 4.29 0 0 1 3.66 7.31 169.45 169.45 0 0 1-116.63 46c-22.51 0-45.02-4.92-65.37-12.92a16.85 16.85 0 0 0-12.92-.22l-68 24.24a4 4 0 0 1-5.22-4.53L62.15 403c.43-1.94-.97-4.85-3.44-8.62-40.547-60.75-34.414-141.326 14.86-195.24a4.341 4.341 0 0 1 7.54 3.12v.029c-.11 3.01-.22 6.011-.22 9.131 0 45.98 14.22 89.92 40.3 124.49a184.1 184.1 0 0 0 53.09 49.32c32.5 21 72.57 32.2 115 32.2" clip-rule="evenodd"/></svg>