<svg xmlns="http://www.w3.org/2000/svg" width="512" height="512" fill="none"><path fill="currentColor" fill-rule="evenodd" d="M290.301 32c-90.26 0-167.703 61.232-185.938 145.517a176.6 176.6 0 0 0-4.062 37.574c0 102.129 82.946 185.109 187 185.109 14.659 0 34.226-3.55 51.433-8.27 9.489-2.603 19.738-6.076 26.841-8.77a10.4 10.4 0 0 1 3.643-.66 10.1 10.1 0 0 1 3.929.769l.4.167 56.76 20.121.629.244a29.5 29.5 0 0 0 7.343 1.717l.809.082h.813c13.255 0 24-10.745 24-24v-.609l-.046-.607-.061-.684a29 29 0 0 0-.873-4.717l-15.876-56.434.1-.224c.218-.477.494-1.015.813-1.579l.097-.17-.029.047q.506-.844 1.102-1.627l.285-.373.262-.39a178 178 0 0 0 30.327-99.218C480.33 113.839 395.208 32 290.301 32m0 32c87.491 0 157.971 67.761 157.701 150.948l-.004.947a146.04 146.04 0 0 1-24.346 79.686l-.317.473a49 49 0 0 0-2.759 4.123l-.096.161c-1.755 3.009-3.213 6.103-4.232 9.289l-.158.506c-1.491 4.894-1.893 9.755-.505 14.749l12.343 43.88-42.922-15.215a42 42 0 0 0-15.866-3.047 42.4 42.4 0 0 0-14.884 2.729l-1.25.469c-6.218 2.313-14.906 5.224-22.738 7.372l-1.641.444c-14.297 3.809-30.556 6.686-41.326 6.686-86.378 0-155-68.65-155-153.1a144.7 144.7 0 0 1 3.331-30.786C150.661 114.854 214.977 64 290.301 64m94.705 289.547q.225.09.449.184l-.471-.192zm38.329-57.493q.168-.226.338-.45l-.349.466zM74.243 218.02c-7.721-4.298-17.464-1.523-21.762 6.198l-.88 1.603c-28.441 52.47-25.768 116.338 6.958 166.248l1.013 1.528-11.234 58.352c-1.494 8.375 1.628 17.005 8.225 22.534l.152.127.552.433a24.17 24.17 0 0 0 14.363 4.956h.33l.567-.004a23.3 23.3 0 0 0 8.232-1.699l.115-.049 55.999-21.917.161.07 1.421.55c21.357 8.175 43.756 12.65 65.496 12.65a175.2 175.2 0 0 0 88.078-23.65c7.643-4.433 10.246-14.224 5.812-21.868-4.433-7.644-14.224-10.246-21.868-5.812a143.2 143.2 0 0 1-72.005 19.33l-1.04-.004c-17.339-.142-35.488-3.826-52.951-10.5l-.877-.339-.101-.043a31.7 31.7 0 0 0-23.746-.199L82.6 443.208l7.425-38.558 1.757-8.996c.89-4.513.126-8.553-1.566-12.568-.989-2.346-2.296-4.638-4.023-7.247l-.873-1.315c-26.539-40.474-28.458-92.383-4.88-134.742 4.299-7.721 1.524-17.464-6.197-21.762" clip-rule="evenodd"/></svg>