<svg xmlns="http://www.w3.org/2000/svg" width="512" height="512" fill="none"><path fill="currentColor" fill-rule="evenodd" d="M408.046 48H103.954C64.262 48.113 32.113 80.262 32 119.954V312l.013 1.19c.744 39.188 32.646 70.698 71.941 70.81h24.045l.001 64 .005.405c.311 13.309 15.925 20.485 26.241 11.884l91.5-76.29L408 384c39.738-.113 71.887-32.262 72-71.955V120c-.113-39.738-32.262-71.887-71.954-72m-304 32H408c22.045.063 39.937 17.955 40 40.045V312c-.063 22.045-17.955 39.937-40.046 40H242.85l-.496.005a24 24 0 0 0-14.891 5.575l-67.464 56.248L160 368c0-8.837-7.163-16-16-16h-40c-22.045-.063-39.937-17.955-40-40.046V120c.063-22.045 17.955-39.937 40.046-40" clip-rule="evenodd"/></svg>