<svg xmlns="http://www.w3.org/2000/svg" width="512" height="512" fill="none"><path fill="currentColor" fill-rule="evenodd" d="M408 48H104c-39.746.044-71.956 32.254-72 72v192c.044 39.746 32.254 71.956 72 72h24v64a16 16 0 0 0 26.25 12.29L245.74 384H408c39.746-.044 71.956-32.254 72-72V120c-.044-39.746-32.254-71.956-72-72M160 248c-17.673 0-32-14.327-32-32s14.327-32 32-32 32 14.327 32 32-14.327 32-32 32m96 0c-17.673 0-32-14.327-32-32s14.327-32 32-32 32 14.327 32 32-14.327 32-32 32m96 0c-17.673 0-32-14.327-32-32s14.327-32 32-32 32 14.327 32 32-14.327 32-32 32" clip-rule="evenodd"/></svg>