<svg xmlns="http://www.w3.org/2000/svg" width="512" height="512" fill="none"><path fill="currentColor" fill-rule="evenodd" d="M259.9 48C142.92 46.42 47.42 141.92 49 258.9c1.56 112.19 92.91 203.54 205.1 205.1 117 1.6 212.48-93.9 210.88-210.88C463.44 140.91 372.09 49.56 259.9 48m-16.79 192.47 51.55-59c5.815-6.655 15.925-7.336 22.58-1.52s7.335 15.925 1.52 22.58l-51.55 59a16.004 16.004 0 0 1-24.1-21.06m-38.86 90.85c-6.248 6.243-16.373 6.243-22.62 0l-47.95-48a16 16 0 1 1 22.64-22.62l48 48c6.224 6.267 6.193 16.392-.07 22.62m176.8-128.79-111.88 128a16 16 0 0 1-11.51 5.47h-.54a16 16 0 0 1-11.32-4.69l-47.94-48c-6.247-6.252-6.242-16.384.01-22.63s16.383-6.242 22.63.01l29.8 29.83a8.003 8.003 0 0 0 11.68-.39l95-108.66c5.815-6.655 15.925-7.336 22.58-1.52s7.335 15.925 1.52 22.58z" clip-rule="evenodd"/></svg>