<svg xmlns="http://www.w3.org/2000/svg" width="512" height="512" fill="none"><path fill="currentColor" fill-rule="evenodd" d="M256 48C141.163 48 48 141.163 48 256s93.163 208 208 208 208-93.163 208-208S370.837 48 256 48m0 32c97.163 0 176 78.837 176 176s-78.837 176-176 176S80 353.163 80 256 158.837 80 256 80m122.529 99.953c-6.653-5.815-16.761-5.136-22.576 1.518L255.349 296.579 219.5 260.692l-.263-.257c-6.263-5.993-16.2-5.913-22.365.245-6.251 6.246-6.257 16.376-.012 22.628l47.95 48 .254.248c6.567 6.294 17.096 5.858 23.113-1.027l111.87-128 .236-.275c5.56-6.655 4.809-16.566-1.754-22.301M132.692 260.68c6.165-6.158 16.102-6.238 22.365-.245l.263.257 47.95 48c6.245 6.252 6.239 16.382-.012 22.628-6.165 6.158-16.102 6.238-22.365.245l-.263-.257-47.95-48c-6.245-6.252-6.239-16.382.012-22.628m183.545-80.729c-6.654-5.814-16.762-5.133-22.576 1.522l-51.55 59-.235.275c-5.559 6.655-4.807 16.566 1.757 22.301 6.654 5.814 16.762 5.133 22.576-1.522l51.55-59 .235-.275c5.559-6.655 4.807-16.566-1.757-22.301" clip-rule="evenodd"/></svg>