<svg xmlns="http://www.w3.org/2000/svg" width="512" height="512" fill="none"><path fill="currentColor" fill-rule="evenodd" d="M256 48C141.163 48 48 141.163 48 256s93.163 208 208 208 208-93.163 208-208S370.837 48 256 48m0 32c97.163 0 176 78.837 176 176s-78.837 176-176 176S80 353.163 80 256 158.837 80 256 80m106.291 83.749c-6.766-5.684-16.859-4.806-22.542 1.96l-122.566 145.91-45.29-50.322-.246-.267c-5.942-6.315-15.872-6.753-22.35-.923-6.569 5.912-7.101 16.028-1.19 22.596l57.6 64 .235.255c6.538 6.965 17.732 6.687 23.909-.667l134.4-160 .227-.276c5.432-6.762 4.488-16.659-2.187-22.266" clip-rule="evenodd"/></svg>