<svg xmlns="http://www.w3.org/2000/svg" width="512" height="512" fill="none"><path fill="currentColor" fill-rule="evenodd" d="M400 48H112c-35.33.039-63.961 28.67-64 64v288c.039 35.33 28.67 63.961 64 64h288c35.33-.039 63.961-28.67 64-64V112c-.039-35.33-28.67-63.961-64-64m-35.75 138.29-134.4 160a16 16 0 0 1-12 5.71h-.27a16 16 0 0 1-11.89-5.3l-57.6-64a16.002 16.002 0 0 1 8.44-26.653 16 16 0 0 1 15.34 5.253l45.29 50.32 122.59-145.91c5.722-6.615 15.695-7.41 22.392-1.784 6.698 5.625 7.636 15.586 2.108 22.364" clip-rule="evenodd"/></svg>