<svg xmlns="http://www.w3.org/2000/svg" width="512" height="512" fill="none"><path fill="currentColor" fill-rule="evenodd" d="M400 48H112c-35.346 0-64 28.654-64 64v288c0 35.346 28.654 64 64 64h288c35.346 0 64-28.654 64-64V112c0-35.346-28.654-64-64-64M112 80h288c17.673 0 32 14.327 32 32v288c0 17.673-14.327 32-32 32H112c-17.673 0-32-14.327-32-32V112c0-17.673 14.327-32 32-32m250.291 83.749c-6.766-5.684-16.859-4.806-22.542 1.96l-122.566 145.91-45.29-50.322-.246-.267c-5.942-6.315-15.872-6.753-22.35-.923-6.569 5.912-7.101 16.028-1.19 22.596l57.6 64 .235.255c6.538 6.965 17.732 6.687 23.909-.667l134.4-160 .227-.276c5.432-6.762 4.488-16.659-2.187-22.266" clip-rule="evenodd"/></svg>