<svg xmlns="http://www.w3.org/2000/svg" width="512" height="512" fill="none"><path fill="currentColor" fill-rule="evenodd" d="M378.514 115.94c-6.661-5.807-16.768-5.115-22.574 1.546l-136 156-.235.275c-5.552 6.662-4.789 16.572 1.781 22.299 6.661 5.807 16.768 5.115 22.574-1.546l136-156 .235-.275c5.552-6.662 4.789-16.572-1.781-22.299m73.445 1.524c5.819-6.65 15.927-7.324 22.577-1.505 6.559 5.739 7.305 15.651 1.741 22.302l-.236.275-224 256c-6.016 6.876-16.536 7.312-23.101 1.026l-.254-.248-96-96c-6.248-6.249-6.248-16.379 0-22.628 6.162-6.161 16.099-6.247 22.365-.256l.263.256 83.906 83.907zM36.686 276.686c6.162-6.161 16.099-6.247 22.365-.256l.263.256 96 96c6.248 6.249 6.248 16.379 0 22.628-6.162 6.161-16.099 6.247-22.365.256l-.263-.256-96-96c-6.248-6.249-6.248-16.379 0-22.628" clip-rule="evenodd"/></svg>