<svg xmlns="http://www.w3.org/2000/svg" width="512" height="512" fill="none"><path fill="currentColor" fill-rule="evenodd" d="M256 48C141.163 48 48 141.163 48 256s93.163 208 208 208 208-93.163 208-208S370.837 48 256 48m0 32c97.163 0 176 78.837 176 176s-78.837 176-176 176S80 353.163 80 256 158.837 80 256 80m-28.949 68.43c-6.266-5.991-16.203-5.905-22.365.256l-.256.263c-5.991 6.266-5.905 16.203.256 22.365L289.373 256l-84.687 84.686-.256.263c-5.991 6.266-5.905 16.203.256 22.365 6.249 6.248 16.379 6.248 22.628 0l96-96 .256-.263c5.991-6.266 5.905-16.203-.256-22.365l-96-96z" clip-rule="evenodd"/></svg>