<svg xmlns="http://www.w3.org/2000/svg" width="512" height="512" fill="none"><path fill="currentColor" fill-rule="evenodd" d="M48 256c0-114.837 93.163-208 208-208s208 93.163 208 208-93.163 208-208 208S48 370.837 48 256m384 0c0-97.163-78.837-176-176-176S80 158.837 80 256s78.837 176 176 176 176-78.837 176-176m-164.949-67.57c-6.266-5.991-16.203-5.905-22.365.256l-96 96-.256.263c-5.991 6.266-5.905 16.203.256 22.365l.263.256c6.266 5.991 16.203 5.905 22.365-.256L256 222.627l84.686 84.687.263.256c6.266 5.991 16.203 5.905 22.365-.256 6.248-6.249 6.248-16.379 0-22.628l-96-96z" clip-rule="evenodd"/></svg>