<svg xmlns="http://www.w3.org/2000/svg" width="24" height="24" fill="none"><path fill="currentColor" fill-rule="evenodd" d="M10.08 4.455a1.125 1.125 0 0 1 1.604 1.577l-.013.013L5.716 12l5.955 5.954c.434.435.439 1.137.013 1.578l-.013.014a1.125 1.125 0 0 1-1.578.013l-.014-.014-6.75-6.75a1.125 1.125 0 0 1-.013-1.577l.014-.014z" clip-rule="evenodd"/><path fill="currentColor" fill-rule="evenodd" d="M19.08 4.455a1.125 1.125 0 0 1 1.604 1.577l-.014.013L14.717 12l5.955 5.954c.434.435.439 1.137.013 1.578l-.014.014a1.125 1.125 0 0 1-1.577.013l-.014-.014-6.75-6.75a1.125 1.125 0 0 1-.013-1.577l.013-.014z" clip-rule="evenodd"/></svg>