<svg xmlns="http://www.w3.org/2000/svg" width="24" height="24" fill="none"><path fill="currentColor" fill-rule="evenodd" d="M13.92 4.455a1.125 1.125 0 0 0-1.604 1.577l.013.013L18.285 12l-5.954 5.954a1.125 1.125 0 0 0-.014 1.578l.013.014c.435.434 1.137.439 1.578.013l.014-.014 6.75-6.75c.434-.434.439-1.136.013-1.577l-.014-.014z" clip-rule="evenodd"/><path fill="currentColor" fill-rule="evenodd" d="M4.92 4.455a1.125 1.125 0 0 0-1.604 1.577l.014.013L9.284 12 3.33 17.954a1.125 1.125 0 0 0-.014 1.578l.014.014c.434.434 1.136.439 1.577.013l.013-.014 6.75-6.75c.435-.434.44-1.136.014-1.577l-.013-.014z" clip-rule="evenodd"/></svg>