<svg xmlns="http://www.w3.org/2000/svg" width="512" height="512" fill="none"><path fill="currentColor" d="M353.933 288.557c-10.624 0-20.231 3.981-27.057 11.217-6.827 7.236-10.237 17.241-9.467 27.979 1.563 21.147 17.947 38.388 36.524 38.388s34.929-17.241 36.524-38.383c.798-10.635-2.586-20.549-9.525-27.919-6.854-7.274-16.444-11.282-26.999-11.282"/><path fill="currentColor" fill-rule="evenodd" d="M153.428 56.855q-.398.23-.78.486l-93.235 62.558-.292.169A26.55 26.55 0 0 0 46 142.973v245.432a26.552 26.552 0 0 0 38.98 23.463l.352-.193q.35-.199.685-.418l80.567-52.54.154-.073a13.28 13.28 0 0 1 11.046-.09l.068.031 85.023 55.486c20.097 27.963 52.718 46.384 89.496 46.895 63.037.862 114.48-50.591 113.618-113.618-.513-37.39-19.535-70.481-48.274-90.488V87.332a26.55 26.55 0 0 0-38.98-23.463l-.35.192q-.348.197-.683.416l-80.714 52.595-.161.078a13.28 13.28 0 0 1-10.917.131l-.084-.038-94.332-60.352a13 13 0 0 0-1.222-.693 39.83 39.83 0 0 0-36.441.435zm237.736 186.356V87.395l-80.279 52.313q-.338.22-.688.419l-.353.194a40 40 0 0 1-4.971 2.209l1.671 104.82c14.843-6.956 31.451-10.753 48.952-10.516a111.2 111.2 0 0 1 35.668 6.377m-112.842 23.043V142.795a40 40 0 0 1-4.87-2.038 14 14 0 0 1-1.231-.698l-86.828-55.551v248.529a40 40 0 0 1 5.036 2.142q.636.324 1.232.713l52.655 36.354a111.6 111.6 0 0 1-2.449-21.784c-.45-33.304 13.705-63.377 36.455-84.208M73.733 142.265l85.109-57.107v248.05a40 40 0 0 0-5.128 2.27l-.352.193q-.348.2-.684.418L72.551 388.34V142.972l.402-.222q.399-.23.78-.485m348.181 271.574c.639.033 1.26-.22 1.694-.689a94.46 94.46 0 0 0 25.151-64.25c0-52.364-42.607-94.955-95.057-94.825s-95.472 44.013-94.594 96.441a94.46 94.46 0 0 0 25.15 62.628 2.158 2.158 0 0 0 3.308-.172 66.9 66.9 0 0 1 17.43-15.937c13.717-8.804 31.098-13.653 48.937-13.653s35.22 4.849 48.938 13.653a67 67 0 0 1 17.429 15.942c.384.513.975.828 1.614.862" clip-rule="evenodd"/></svg>