<svg xmlns="http://www.w3.org/2000/svg" width="512" height="512" fill="none"><path fill="currentColor" fill-rule="evenodd" d="M309.87 16H202.13c-19.776 0-36.369 13.625-40.904 32H144l-1.058.009C108.084 48.574 80 77.007 80 112v320l.009 1.058C80.574 467.916 109.007 496 144 496h224l1.058-.009C403.916 495.426 432 466.993 432 432V112l-.009-1.058C431.426 76.084 402.993 48 368 48h-17.226c-4.535-18.375-21.128-32-40.904-32m40.904 64c-4.535 18.375-21.128 32-40.904 32H202.13c-19.776 0-36.369-13.625-40.904-32H144c-17.496 0-31.713 14.042-31.996 31.471L112 112v320c0 17.496 14.042 31.713 31.471 31.996L144 464h224c17.496 0 31.713-14.042 31.996-31.471L400 432V112c0-17.496-14.042-31.713-31.471-31.996L368 80zM202.13 48h107.74c5.595 0 10.13 4.535 10.13 10.13v11.74c0 5.595-4.535 10.13-10.13 10.13H202.13C196.535 80 192 75.465 192 69.87V58.13c0-5.595 4.535-10.13 10.13-10.13" clip-rule="evenodd"/><path fill="currentColor" d="M344 151H168c-8.837 0-16 7.163-16 16v2c0 8.837 7.163 16 16 16h176c8.837 0 16-7.163 16-16v-2c0-8.837-7.163-16-16-16M344 233H168c-8.837 0-16 7.163-16 16v2c0 8.837 7.163 16 16 16h176c8.837 0 16-7.163 16-16v-2c0-8.837-7.163-16-16-16M344 315H168c-8.837 0-16 7.163-16 16v2c0 8.837 7.163 16 16 16h176c8.837 0 16-7.163 16-16v-2c0-8.837-7.163-16-16-16M344 397H168c-8.837 0-16 7.163-16 16v2c0 8.837 7.163 16 16 16h176c8.837 0 16-7.163 16-16v-2c0-8.837-7.163-16-16-16"/></svg>