<svg xmlns="http://www.w3.org/2000/svg" width="512" height="512" fill="none"><path fill="currentColor" fill-rule="evenodd" d="M155.051 132.43c-6.266-5.991-16.203-5.905-22.365.256-6.248 6.249-6.248 16.379 0 22.628L233.373 256 132.686 356.686l-.256.263c-5.991 6.266-5.905 16.203.256 22.365 6.249 6.248 16.379 6.248 22.628 0L256 278.627l100.686 100.687.263.256c6.266 5.991 16.203 5.905 22.365-.256 6.248-6.249 6.248-16.379 0-22.628L278.627 256l100.687-100.686.256-.263c5.991-6.266 5.905-16.203-.256-22.365-6.249-6.248-16.379-6.248-22.628 0L256 233.373 155.314 132.686z" clip-rule="evenodd"/></svg>