<svg xmlns="http://www.w3.org/2000/svg" width="512" height="512" fill="none"><path fill="currentColor" fill-rule="evenodd" d="M48 256c0-114.837 93.163-208 208-208s208 93.163 208 208-93.163 208-208 208S48 370.837 48 256m384 0c0-97.163-78.837-176-176-176S80 158.837 80 256s78.837 176 176 176 176-78.837 176-176m-251.314-75.314c6.162-6.161 16.099-6.247 22.365-.256l.263.256L256 233.373l52.686-52.687c6.249-6.248 16.379-6.248 22.628 0 6.161 6.162 6.247 16.099.256 22.365l-.256.263L278.627 256l52.687 52.686c6.248 6.249 6.248 16.379 0 22.628-6.162 6.161-16.099 6.247-22.365.256l-.263-.256L256 278.627l-52.686 52.687c-6.249 6.248-16.379 6.248-22.628 0-6.161-6.162-6.247-16.099-.256-22.365l.256-.263L233.373 256l-52.687-52.686c-6.248-6.249-6.248-16.379 0-22.628" clip-rule="evenodd"/></svg>