<svg xmlns="http://www.w3.org/2000/svg" width="512" height="512" fill="none"><path fill="currentColor" fill-rule="evenodd" d="M256 48C141.31 48 48 141.31 48 256s93.31 208 208 208 208-93.31 208-208S370.69 48 256 48m75.31 260.69a16 16 0 1 1-22.62 22.62L256 278.63l-52.69 52.68c-6.291 5.976-16.199 5.85-22.334-.286-6.136-6.136-6.262-16.043-.286-22.334L233.37 256l-52.68-52.69c-5.976-6.291-5.85-16.199.286-22.334 6.135-6.136 16.043-6.262 22.334-.286L256 233.37l52.69-52.68c6.291-5.976 16.198-5.85 22.334.286s6.262 16.043.286 22.334L278.63 256z" clip-rule="evenodd"/></svg>