<svg xmlns="http://www.w3.org/2000/svg" width="512" height="512" fill="none"><path fill="currentColor" fill-rule="evenodd" d="M424.3 187.89c18.16 4.11 35.36 11.73 49.36 22.11 25.08 18.58 38.34 44.25 38.34 74.19 0 30.83-12.29 56.73-35.55 74.83-20.54 15.97-49.11 24.77-80.45 24.77H272V230.42l36.71 36.69a16 16 0 0 0 22.68-.06c6.25-6.31 5.89-16.62-.39-22.91l-63.69-63.66c-6.248-6.243-16.372-6.243-22.62 0L181 244.16c-6.09 6.09-6.65 16.02-.85 22.39a16 16 0 0 0 23.16.56L240 230.42v153.37H136c-36.27 0-70.09-11.95-95.21-33.64C14.49 327.39 0 295.91 0 261.39c0-34.15 13.46-64.06 38.92-86.56 18.44-16.25 42.59-27.72 69.34-33.12a16 16 0 0 0 11.31-8.87 150.1 150.1 0 0 1 42.06-53C188 58.87 220.65 47.79 256 47.79c40.21 0 78.15 14.46 106.84 40.75 24.68 22.58 41.47 52.38 49.27 87.13a16.11 16.11 0 0 0 12.19 12.22M240 383.79v64.42c0 8.837 7.163 16 16 16s16-7.163 16-16v-64.42z" clip-rule="evenodd"/></svg>