<svg xmlns="http://www.w3.org/2000/svg" width="512" height="512" fill="none"><path fill="currentColor" fill-rule="evenodd" d="M450.2 256.27c-18.65-17.02-42.15-29.41-68.65-36.34a173 173 0 0 0-42.78-53.68 162.6 162.6 0 0 0-79.52-36.12c11.52-44.94 52.11-84.6 92.52-98.13-7.07 16.24-9.85 35.31-9.85 54.15 0 73.42 42.51 115.93 115.93 115.93 18.84 0 37.91-2.78 54.15-9.85-8.86 26.46-28.92 52.98-54.33 71.38a147 147 0 0 0-7.47-7.34M106 480h234c33.2 0 64.11-11.46 87-32.28 23.87-21.65 37-51.67 37-84.52 0-33.38-12.23-62.2-35.37-83.28-17.97-16.4-42.38-27.6-69.56-32.08a142.4 142.4 0 0 0-40.83-57.05C294.15 170.65 264.33 160 232 160a139.82 139.82 0 0 0-97.51 39.06c-24.37 23.47-40.23 55.08-46.29 92-19.79 3.13-38.65 10.87-53.2 22-22.91 17.49-35 42.3-35 71.74 0 30.55 11.23 55.64 32.47 72.56C51.08 472.17 76.5 480 106 480" clip-rule="evenodd"/></svg>