<svg xmlns="http://www.w3.org/2000/svg" width="512" height="512" fill="none"><path fill="currentColor" fill-rule="evenodd" d="M256 32c79.819 0 143.781 54.86 158.074 137.81l.024.143.711.087c21.133 2.654 41.045 8.947 57.145 18.985l.752.473C497.645 205.345 512 229.448 512 260.4c0 31.28-12.893 55.748-36.491 71.503-20.136 13.444-47.19 19.959-78.508 20.095L396 352h-76c-8.837 0-16-7.163-16-16 0-8.731 6.994-15.829 15.685-15.997L320 320h76c25.927 0 47.314-5.078 61.741-14.71C472.385 295.512 480 281.06 480 260.4c0-19.558-8.427-33.708-24.456-43.893-14.544-9.242-34.87-14.663-56.336-15.727a16 16 0 0 1-15.082-13.977l-.039-.34C376.336 112.306 323.529 64 256 64c-28.905 0-54.14 8.955-74.463 25.1-18.156 14.423-31.615 34.134-38.301 54.985a16 16 0 0 1-13.723 11.043c-28.597 2.717-53.106 11.2-70.141 24.556C41.48 193.712 32 212.81 32 237.6c0 25.089 10.212 45.46 29.025 59.978 18.475 14.257 44.62 22.258 74.063 22.419L136 320h56c8.837 0 16 7.163 16 16 0 8.731-6.994 15.829-15.685 15.997L192 352h-56C58.183 352 0 307.099 0 237.6c0-34.714 14.07-63.061 39.628-83.099 19.807-15.529 45.875-25.528 75.45-29.857l1.259-.181.131-.323c9.247-22.653 24.578-43.529 44.427-59.507l.738-.59C187.569 43.44 219.805 32 256 32m52.695 356.777c6.253-6.243 16.384-6.235 22.628.018 6.156 6.167 6.234 16.103.239 22.365l-.257.263-64 63.9c-6.16 6.15-16.083 6.235-22.347.256l-.263-.256-64-63.9c-6.253-6.244-6.261-16.375-.018-22.628 6.157-6.166 16.094-6.26 22.365-.274l.263.256L240 425.415V224c0-8.837 7.163-16 16-16 8.731 0 15.829 6.994 15.997 15.685L272 224v201.415z" clip-rule="evenodd"/></svg>