<svg xmlns="http://www.w3.org/2000/svg" width="512" height="512" fill="none"><path fill="currentColor" fill-rule="evenodd" d="M253.606 80.017c-78.049 1.131-140.835 57.534-155.427 142.8l-.422 2.557.05-.007c-24.603 3.664-47.896 13.589-65.422 29.078C11.635 272.785 0 297.851 0 328c0 66.108 47.595 104 116 104h260c76.182 0 136-54.318 136-128 0-68.72-47.385-115.718-116.04-126.622a.11.11 0 0 1-.087-.07c-10.045-26.177-27.313-49.9-49.817-67.226C320.857 90.682 290.187 80 256 80zM256 112c27.044 0 50.87 8.298 70.534 23.438 17.499 13.472 31.112 32.03 39.122 52.454l.326.84c4.075 10.707 13.601 18.447 24.959 20.25 25.643 4.073 47.853 14.5 63.483 30.002C471.008 255.432 480 277.256 480 304c0 55.283-44.84 96-104 96H116c-24.963 0-46.112-6.226-60.66-17.807C40.2 370.137 32 352.235 32 328c0-20.844 7.605-37.229 21.577-49.578 12.396-10.956 29.612-18.377 48.105-21.276l.855-.131c13.641-2.045 24.402-12.591 26.744-26.136l.07-.424C140.823 158.065 192.13 112 256 112" clip-rule="evenodd"/></svg>