<svg xmlns="http://www.w3.org/2000/svg" width="512" height="512" fill="none"><path fill="currentColor" fill-rule="evenodd" d="M75.051 52.43c-6.266-5.99-16.203-5.905-22.365.256-6.248 6.249-6.248 16.38 0 22.628l384 384 .263.256c6.266 5.991 16.203 5.905 22.365-.256 6.248-6.249 6.248-16.379 0-22.628l-384-384zM256 64c80.008 0 143.857 57.627 158.091 144.469l.141.896.769.117c21.169 3.263 41.704 11.321 58.16 23.698l.683.518C498.108 252.253 512 279.045 512 312c0 33.025-11.915 59.777-33.969 78.058-6.803 5.64-16.89 4.696-22.529-2.107-5.563-6.711-4.72-16.618 1.834-22.298l.273-.231C472.138 353.378 480 335.726 480 312c0-22.75-9.073-40.249-25.594-52.883-14.783-11.304-35.084-18.089-55.238-19.139a16 16 0 0 1-15.052-14.056l-.038-.341C376.274 146.977 323.332 96 256 96c-22.108 0-42.056 5.543-59.409 15.884-7.591 4.524-17.412 2.038-21.935-5.553-4.524-7.59-2.038-17.412 5.553-21.935C202.495 71.114 228.099 64 256 64M88.643 168.077c8.38-2.804 17.446 1.716 20.25 10.096s-1.716 17.446-10.096 20.25C57 212.409 32 243.835 32 288c0 54.731 43.947 95.184 102.23 95.988L136 384h184.37c8.837 0 16 7.163 16 16 0 8.731-6.994 15.829-15.685 15.997l-.315.003H136C59.819 416 0 361.682 0 288c0-58.585 34.34-101.752 88.643-119.923" clip-rule="evenodd"/></svg>