<svg xmlns="http://www.w3.org/2000/svg" width="512" height="512" fill="none"><path fill="currentColor" fill-rule="evenodd" d="m41.37 64 22.628-22.628L470.627 448l-22.628 22.627zm-2.65 148.78C13.39 235.88 0 267.42 0 304c0 36 14.38 68.88 40.49 92.59C65.64 419.43 99.56 432 136 432h228.12L110.51 178.39c-28.01 5.39-53.09 17.33-71.79 34.39M512 328c0 33.39-12.24 60.78-35.41 79.23-.13.106-.272.207-.411.307a7 7 0 0 0-.429.323L172.93 105c24.17-16.38 52.6-25 83.07-25a153.57 153.57 0 0 1 107.14 42.9c27.06 26.06 44.59 61.28 51.11 102.46C463.56 232.66 512 266.15 512 328" clip-rule="evenodd"/></svg>