<svg xmlns="http://www.w3.org/2000/svg" width="512" height="512" fill="none"><path fill="currentColor" fill-rule="evenodd" d="M414.11 169.96c22.38 2.75 42.83 9.54 58.59 19.54 25.71 16.33 39.3 40.85 39.3 70.9 0 57.36-43.36 91.6-116 91.6H272V208h-32v144H136C55.92 352 0 305 0 237.6c0-34.04 13.7-62.77 39.63-83.18 19.71-15.39 46.04-25.68 76.71-30A149.7 149.7 0 0 1 161.63 64C188 43.08 220.65 32 256 32c40.21 0 78.15 14.45 106.84 40.7 27.05 24.74 44.62 58.16 51.27 97.26M240 352v67.42L191.98 371l-22.61 23L256 480l86.63-86-22.61-23L272 419.42V352z" clip-rule="evenodd"/></svg>