<svg xmlns="http://www.w3.org/2000/svg" width="513" height="512" fill="none"><path fill="currentColor" fill-rule="evenodd" d="M355.592 54.381c5.795-13.325-7.738-26.852-21.06-21.05C287.067 54 256 102.103 256 155.69q-.003 3.176.147 6.346C248.346 160.69 240.286 160 232 160c-72.357 0-130.792 52.071-143.787 131.001-.001.006-.01.017-.023.025a.1.1 0 0 1-.033.013c-22.315 3.558-43.255 12.701-59.018 26.853C10.46 334.66 0 357.477 0 384.8 0 445.268 43.624 480 106 480h234c69.414 0 124-49.566 124-116.8l-.013-1.867c-.452-32.804-12.834-60.09-33.645-79.922 35.673-11.507 65.275-37.377 80.327-71.943 5.802-13.322-7.725-26.855-21.05-21.06-11.151 4.849-25.27 7.282-40.999 7.282-55.4 0-100.31-44.91-100.31-100.31 0-15.729 2.433-29.848 7.282-40.999m33.91 201.612c26.971-.302 51.953-10.842 70.173-28.316l.361-.352-.945.06q-4.644.275-9.411.302l-1.06.003c-73.073 0-132.31-59.237-132.31-132.31q0-5.311.305-10.471l.059-.945-.351.361c-17.467 18.213-28.005 43.185-28.316 70.152l-.007 1.227a100 100 0 0 0 1.386 16.704 131.2 131.2 0 0 1 24.32 14.76c20.425 15.634 36.141 37.036 45.364 60.666l1.762.298c10.114 1.766 19.705 4.405 28.67 7.861m-120.396-57.429q.588.254 1.199.461c8.596 3.377 16.599 7.927 23.952 13.554 15.456 11.831 27.529 28.145 34.711 46.15l.324.819a31.84 31.84 0 0 0 24.059 19.772l.469.081C401.443 287.163 432 317.669 432 363.2c0 48.835-39.607 84.8-92 84.8H106c-22.127 0-40.812-5.501-53.597-15.68C39.166 421.781 32 406.133 32 384.8c0-18.116 6.512-32.32 18.516-43.097 10.7-9.605 25.63-16.205 41.803-18.92l.81-.133c13.473-2.089 24.165-12.552 26.582-26.006l.073-.425C130.289 232.417 175.645 192 232 192c13.3 0 25.714 2.261 37.106 6.564" clip-rule="evenodd"/></svg>