<svg xmlns="http://www.w3.org/2000/svg" width="512" height="512" fill="none"><path fill="currentColor" fill-rule="evenodd" d="M509.18 193.99a16.34 16.34 0 0 1 1.35 15.8 129.1 129.1 0 0 1-46.69 55.43 4 4 0 0 1-5.16-.57q-4.04-4.35-8.48-8.42c-17.15-15.64-38.36-27.37-62.25-34.54a16.35 16.35 0 0 1-9.54-7.64 172.6 172.6 0 0 0-39.64-47.84 162.55 162.55 0 0 0-76.31-35.59 4.003 4.003 0 0 1-3.19-4.79c9.09-41.03 36.64-75.72 75.27-92.54a16 16 0 0 1 19.1 5 16.3 16.3 0 0 1 1.85 16.33c-4.7 10.92-7.18 25.01-7.18 40.76 0 55.31 46.08 100.71 101.38 100.31 15.44-.11 29.22-2.63 39.92-7.28a16 16 0 0 1 19.57 5.58M106 480h234c33.2 0 64.11-11.46 87-32.28 23.87-21.65 37-51.67 37-84.52 0-33.38-12.23-62.2-35.37-83.31-16.2-14.78-37.62-25.34-61.62-30.56a16.06 16.06 0 0 1-11.12-9 142.2 142.2 0 0 0-37.65-49.54C294.15 170.65 264.33 160 232 160a139.82 139.82 0 0 0-97.53 39.05c-22.08 21.26-37.18 49.21-44.33 81.75a16 16 0 0 1-11.81 12.21C62.2 296.89 47.1 303.8 35 313.06c-22.91 17.49-35 42.3-35 71.74 0 30.55 11.23 55.64 32.47 72.56C51.08 472.17 76.5 480 106 480" clip-rule="evenodd"/></svg>