<svg xmlns="http://www.w3.org/2000/svg" width="512" height="512" fill="none"><path fill="currentColor" fill-rule="evenodd" d="M256 47.79c79.819 0 143.781 54.859 158.074 137.81l.056.336.795.122c20.899 3.238 41.495 11.283 58.044 23.377l.697.513C497.89 227.942 512 253.51 512 284.19c0 60.717-48.211 98.832-114.001 99.589l-1.999.011h-76c-8.837 0-16-7.163-16-16 0-8.731 6.994-15.829 15.685-15.997l.315-.003h76c24.47 0 45.887-6.429 60.8-18.032 15.061-11.718 23.2-28.365 23.2-49.568 0-20.068-8.984-36.348-25.416-48.553-15.084-11.205-35.645-18.089-55.376-19.067a16 16 0 0 1-15.082-13.977l-.039-.34C376.336 128.096 323.529 79.79 256 79.79c-28.905 0-54.14 8.955-74.463 25.099-18.156 14.424-31.615 34.135-38.301 54.986a16 16 0 0 1-13.723 11.043c-27.257 2.59-51.894 12.505-69.432 27.967C41.907 214.906 32 236.144 32 261.39c0 51.223 43.87 89.626 102.227 90.388l1.773.012h56c8.837 0 16 7.163 16 16 0 8.731-6.994 15.829-15.685 15.997l-.315.003h-56c-75.955 0-136-51.859-136-122.4 0-34.58 13.96-64.505 38.92-86.509 20.325-17.919 47.128-29.778 76.546-34.428l.843-.131.159-.392c9.247-22.653 24.578-43.529 44.427-59.507l.738-.59C187.569 59.23 219.805 47.79 256 47.79m-11.314 132.686c6.162-6.161 16.099-6.247 22.365-.256l.263.256 64 64c6.248 6.249 6.248 16.379 0 22.628-6.162 6.161-16.099 6.247-22.365.256l-.263-.256L272 230.417V448.21c0 8.837-7.163 16-16 16-8.731 0-15.829-6.994-15.997-15.685l-.003-.315V230.417l-36.686 36.687c-6.162 6.161-16.099 6.247-22.365.256l-.263-.256c-6.161-6.162-6.247-16.099-.256-22.365l.256-.263z" clip-rule="evenodd"/></svg>