<svg xmlns="http://www.w3.org/2000/svg" width="512" height="512" fill="none"><path fill="currentColor" fill-rule="evenodd" d="M424.62 171.57c18.25 3.37 34.82 9.5 48.08 17.93 25.71 16.33 39.3 40.85 39.3 70.9 0 57.36-43.36 91.6-116 91.6H272V224a16 16 0 0 0-16.77-15.98c-8.61.43-15.23 7.82-15.23 16.43V352H136C55.93 352 0 305 0 237.6c0-34.04 13.7-62.77 39.59-83.1 17.88-14.02 41.28-23.8 68.41-28.7a16.05 16.05 0 0 0 11.68-8.97A150.1 150.1 0 0 1 161.63 64C188 43.08 220.65 32 256 32c40.21 0 78.15 14.45 106.85 40.7 24.55 22.45 41.29 52.07 49.15 86.58a16 16 0 0 0 12.62 12.29M240 352v73.42l-36.7-36.64c-6.28-6.086-16.284-6.002-22.461.189s-6.239 16.194-.139 22.461l64 63.89c6.245 6.23 16.355 6.23 22.6 0l64-63.89c6.1-6.267 6.038-16.271-.139-22.461-6.177-6.191-16.181-6.275-22.461-.189L272 425.42V352z" clip-rule="evenodd"/></svg>