<svg xmlns="http://www.w3.org/2000/svg" width="512" height="512" fill="none"><path fill="currentColor" fill-rule="evenodd" d="M256 48C141.163 48 48 141.163 48 256s93.163 208 208 208 208-93.163 208-208S370.837 48 256 48m0 32c97.163 0 176 78.837 176 176s-78.837 176-176 176S80 353.163 80 256 158.837 80 256 80m71.22 153.93a8 8 0 0 0 6.66 6.66C354 243.58 376 256.77 376 283.99c0 30.28-22.5 44-50 44H193.01c-31.49 0-57.52-25.58-57-57.11.53-31.74 23.68-49.95 51.35-54.3a7.92 7.92 0 0 0 6.16-5C202.07 189.22 223.63 168 256 168c34.82 0 64.68 24.78 71.22 65.93" clip-rule="evenodd"/></svg>