<svg xmlns="http://www.w3.org/2000/svg" width="512" height="512" fill="none"><path fill="currentColor" fill-rule="evenodd" d="M414.14 186c21.82 3.25 42.96 11.7 59.52 24 25.08 18.58 38.34 44.25 38.34 74.19 0 30.83-12.29 56.73-35.55 74.83-20.54 15.97-49.11 24.77-80.45 24.77H272V230.42l48 48 22.63-22.63L256 169.17l-86.63 86.62L192 278.42l48-48v153.37H136c-36.27 0-70.09-11.95-95.21-33.64C14.49 327.39 0 295.91 0 261.39c0-34.15 13.46-64.06 38.92-86.51 20.27-17.87 47.45-29.95 77.39-34.55a149.6 149.6 0 0 1 45.32-60.49C188 58.87 220.65 47.79 256 47.79c40.21 0 78.15 14.46 106.84 40.76 27.09 24.78 44.68 58.27 51.3 97.45M240 383.79v80.41h32v-80.41z" clip-rule="evenodd"/></svg>