<svg xmlns="http://www.w3.org/2000/svg" width="512" height="512" fill="none"><path fill="currentColor" fill-rule="evenodd" d="M448 464a15.92 15.92 0 0 1-11.31-4.69l-384-384c-5.976-6.29-5.85-16.199.286-22.334 6.136-6.136 16.043-6.262 22.334-.286l384 384A16 16 0 0 1 448 464M38.72 196.78C13.39 219.88 0 251.42 0 288c0 36 14.38 68.88 40.49 92.59C65.64 403.43 99.56 416 136 416h192.8a7.999 7.999 0 0 0 5.66-13.66L100.88 168.76a8 8 0 0 0-8-2C72 173.15 53.4 183.38 38.72 196.78M512 312c0 33.39-12.24 60.78-35.41 79.23a86 86 0 0 1-4.71 3.5 8 8 0 0 1-10.2-.93L170.24 102.36a8 8 0 0 1 1.14-12.26C195.88 73 224.88 64 256 64a153.57 153.57 0 0 1 107.14 42.86c24.73 23.85 41.5 55.32 49.18 92a16 16 0 0 0 12.12 12.39C470 221.42 512 254.43 512 312" clip-rule="evenodd"/></svg>