<svg xmlns="http://www.w3.org/2000/svg" width="512" height="512" fill="none"><path fill="currentColor" fill-rule="evenodd" d="M256 80c-36.356 0-68.71 12.085-94.679 33.801l-.727.612c-19.816 16.789-35.085 38.687-44.265 62.405l-.226.586-.836.135c-29.694 4.828-56.388 16.846-76.55 35.236C13.748 235.551 0 266.861 0 304c0 73.682 59.819 128 136 128h260c68.405 0 116-37.892 116-104 0-32.955-13.892-59.747-38.156-78.302l-.683-.518c-16.456-12.377-36.991-20.435-58.16-23.698l-.769-.117-.141-.896C399.857 137.627 336.008 80 256 80m0 32c66.659 0 119.214 49.963 127.831 127.231l.247 2.35a16 16 0 0 0 15.09 14.397c20.154 1.05 40.455 7.835 55.238 19.139C470.927 287.751 480 305.25 480 328c0 24.235-8.199 42.137-23.341 54.193C442.112 393.774 420.963 400 396 400H136c-59.16 0-104-40.717-104-96 0-28.164 9.977-50.885 28.282-67.583 17.28-15.761 41.704-25.736 69.31-28.496a16 16 0 0 0 13.714-11.259c6.752-22.166 20.309-43.065 38.543-58.313C202.139 121.382 227.256 112 256 112m71.307 83.762c-6.759-5.692-16.853-4.828-22.545 1.931l-95.979 113.963-33.904-37.575-.246-.266c-5.951-6.307-15.881-6.733-22.352-.894-6.56 5.92-7.08 16.037-1.16 22.598l46.2 51.2.234.254c6.537 6.944 17.707 6.668 23.883-.666l107.8-128 .227-.276c5.441-6.755 4.509-16.654-2.158-22.269" clip-rule="evenodd"/></svg>