<svg xmlns="http://www.w3.org/2000/svg" width="512" height="512" fill="none"><path fill="currentColor" fill-rule="evenodd" d="M146.171 128.196c8.729-7.637 21.996-6.753 29.633 1.975 7.553 8.632 6.772 21.702-1.687 29.377l-.288.256L63.89 256l109.939 96.196c8.631 7.552 9.592 20.61 2.227 29.34l-.252.293c-7.552 8.631-20.61 9.592-29.34 2.227l-.293-.252-128-112c-9.465-8.282-9.56-22.942-.286-31.353l.286-.255zM135 256c0-17.121 13.879-31 31-31s31 13.879 31 31-13.879 31-31 31-31-13.879-31-31m121-31c-17.121 0-31 13.879-31 31s13.879 31 31 31 31-13.879 31-31-13.879-31-31-31m90 0c-17.121 0-31 13.879-31 31s13.879 31 31 31 31-13.879 31-31-13.879-31-31-31m19.536-97.055c-8.73-7.366-21.788-6.405-29.34 2.226l-.252.293c-7.365 8.73-6.404 21.788 2.227 29.34l109.938 96.195-109.938 96.197-.288.257c-8.459 7.675-9.24 20.744-1.687 29.376 7.637 8.728 20.904 9.612 29.633 1.975l128-112 .286-.255c9.274-8.411 9.179-23.071-.286-31.353l-128-112z" clip-rule="evenodd"/></svg>