<svg xmlns="http://www.w3.org/2000/svg" width="512" height="512" fill="none"><path fill="currentColor" fill-rule="evenodd" d="M149.464 131.959c6.65-5.819 16.758-5.145 22.577 1.505 5.739 6.559 5.163 16.482-1.235 22.336l-.27.241L56.298 256l114.238 99.959c6.559 5.739 7.305 15.651 1.741 22.302l-.236.275c-5.739 6.559-15.651 7.305-22.302 1.741l-.275-.236-128-112c-7.197-6.298-7.284-17.435-.26-23.85l.26-.232zM192 256c0 14.359-11.641 26-26 26s-26-11.641-26-26 11.641-26 26-26 26 11.641 26 26m64 26c14.359 0 26-11.641 26-26s-11.641-26-26-26-26 11.641-26 26 11.641 26 26 26m90 0c14.359 0 26-11.641 26-26s-11.641-26-26-26-26 11.641-26 26 11.641 26 26 26m16.261-150.277c-6.651-5.564-16.563-4.818-22.302 1.741l-.236.275c-5.564 6.651-4.818 16.563 1.741 22.302L455.701 256l-114.237 99.959-.27.241c-6.397 5.854-6.974 15.777-1.235 22.336 5.819 6.65 15.927 7.324 22.577 1.505l128-112 .26-.232c7.024-6.415 6.938-17.552-.26-23.85l-128-112z" clip-rule="evenodd"/></svg>