<svg xmlns="http://www.w3.org/2000/svg" width="512" height="512" fill="none"><path fill="currentColor" fill-rule="evenodd" d="M172.041 133.464c-5.819-6.65-15.927-7.324-22.577-1.505l-128 112-.26.233c-7.024 6.414-6.937 17.552.26 23.849l128 112 .275.236c6.651 5.564 16.563 4.818 22.302-1.741l.236-.275c5.564-6.651 4.818-16.563-1.741-22.302L56.298 256l114.238-99.959.27-.241c6.398-5.854 6.974-15.777 1.235-22.336m190.22-1.74c-6.651-5.564-16.563-4.819-22.302 1.74l-.236.275c-5.564 6.651-4.818 16.563 1.741 22.302L455.701 256l-114.237 99.959-.27.242c-6.397 5.853-6.974 15.776-1.235 22.335 5.819 6.65 15.927 7.324 22.577 1.505l128-112 .26-.232c7.024-6.414 6.938-17.552-.26-23.85l-128-112zm-53.566 145.054c6.253-6.244 16.384-6.236 22.628.017 6.156 6.167 6.234 16.104.239 22.365l-.257.263-64 63.9c-6.16 6.15-16.083 6.235-22.347.256l-.263-.256-64-63.9c-6.253-6.244-6.261-16.374-.018-22.628 6.157-6.166 16.094-6.259 22.365-.274l.263.257L240 313.416V160c0-8.836 7.163-16 16-16 8.731 0 15.829 6.994 15.997 15.685L272 160v153.415z" clip-rule="evenodd"/></svg>