<svg xmlns="http://www.w3.org/2000/svg" width="512" height="512" fill="none"><path fill="currentColor" fill-rule="evenodd" d="M191.166 429.548A21 21 0 0 0 208 438a21 21 0 0 0 20.11-15l96-320a21 21 0 1 0-40.23-12l-96 320a21 21 0 0 0 3.286 18.548M160 390a20.9 20.9 0 0 1-13.82-5.2l-128-112a21 21 0 0 1 0-31.6l128-112c8.729-7.638 21.997-6.754 29.635 1.975s6.754 21.997-1.975 29.635L63.89 257l109.94 96.19A21 21 0 0 1 160 390m192 0a21 21 0 0 1-13.84-36.81L448.11 257l-109.94-96.19c-8.729-7.638-9.613-20.906-1.975-29.635s20.906-9.613 29.635-1.975l128 112a21 21 0 0 1 7.167 15.8 21 21 0 0 1-7.167 15.8l-128 112A20.9 20.9 0 0 1 352 390" clip-rule="evenodd"/></svg>