<svg xmlns="http://www.w3.org/2000/svg" width="512" height="512" fill="none"><path fill="currentColor" fill-rule="evenodd" d="M146.18 383.8A20.9 20.9 0 0 0 160 389a21 21 0 0 0 13.83-36.81L63.89 256l109.95-96.19c8.729-7.638 9.613-20.906 1.975-29.635s-20.906-9.613-29.635-1.975l-128 112a21 21 0 0 0 0 31.6zm186.146-8.409A21 21 0 0 0 352 389a20.9 20.9 0 0 0 13.83-5.2l128-112a21 21 0 0 0 0-31.6l-128-112c-8.728-7.638-21.997-6.754-29.635 1.975s-6.753 21.997 1.975 29.635L448.11 256l-109.95 96.19a21 21 0 0 0-5.834 23.201" clip-rule="evenodd"/></svg>