<svg xmlns="http://www.w3.org/2000/svg" width="512" height="512" fill="none"><path fill="currentColor" fill-rule="evenodd" d="M172.041 133.464c-5.819-6.65-15.927-7.324-22.577-1.505l-128 112-.26.232c-7.024 6.415-6.937 17.552.26 23.85l128 112 .275.236c6.651 5.564 16.563 4.818 22.302-1.741l.236-.275c5.564-6.651 4.818-16.563-1.741-22.302L56.298 256l114.238-99.959.27-.241c6.398-5.854 6.974-15.777 1.235-22.336m190.22-1.741c-6.651-5.564-16.563-4.818-22.302 1.741l-.236.275c-5.564 6.651-4.818 16.563 1.741 22.302L455.701 256l-114.237 99.959-.27.241c-6.397 5.854-6.974 15.777-1.235 22.336 5.819 6.65 15.927 7.324 22.577 1.505l128-112 .26-.232c7.024-6.415 6.938-17.552-.26-23.85l-128-112z" clip-rule="evenodd"/></svg>