<svg xmlns="http://www.w3.org/2000/svg" width="512" height="512" fill="none"><path fill="currentColor" fill-rule="evenodd" d="M308.598 80.675c-8.464-2.54-17.384 2.264-19.923 10.728l-96 319.999-.09.31c-2.332 8.371 2.457 17.105 10.817 19.613 8.464 2.539 17.384-2.263 19.923-10.727l96-320 .09-.31c2.332-8.37-2.457-17.105-10.817-19.613m-159.134 51.284c6.65-5.819 16.758-5.145 22.577 1.505 5.739 6.559 5.163 16.482-1.235 22.336l-.27.241L56.298 256l114.238 99.959c6.559 5.739 7.305 15.651 1.741 22.302l-.236.275c-5.739 6.559-15.651 7.305-22.302 1.741l-.275-.236-128-112c-7.197-6.297-7.284-17.435-.26-23.85l.26-.232zm190.495 1.505c5.739-6.559 15.651-7.304 22.302-1.741l.275.236 128 112c7.198 6.298 7.284 17.435.26 23.85l-.26.232-128 112c-6.65 5.819-16.758 5.145-22.577-1.505-5.739-6.559-5.162-16.482 1.235-22.336l.27-.241L455.701 256l-114.237-99.959c-6.559-5.739-7.305-15.651-1.741-22.302z" clip-rule="evenodd"/></svg>