<svg xmlns="http://www.w3.org/2000/svg" width="512" height="512" fill="none"><path fill="currentColor" fill-rule="evenodd" d="m161.975 114.367 27.658 31.609L63.89 256l125.743 110.025-27.658 31.608L.109 256zM135 256c0-17.121 13.879-31 31-31s31 13.879 31 31-13.879 31-31 31-31-13.879-31-31m121-31c-17.121 0-31 13.879-31 31s13.879 31 31 31 31-13.879 31-31-13.879-31-31-31m90 0c-17.121 0-31 13.879-31 31s13.879 31 31 31 31-13.879 31-31-13.879-31-31-31m4.024-110.633-27.657 31.609 125.742 110.023-125.742 110.026 27.657 31.608L511.89 256z" clip-rule="evenodd"/></svg>