<svg xmlns="http://www.w3.org/2000/svg" width="512" height="512" fill="none"><path fill="currentColor" fill-rule="evenodd" d="M175.804 130.171c-7.637-8.728-20.904-9.612-29.633-1.975l-128 112-.286.255c-9.274 8.411-9.179 23.071.286 31.353l128 112 .293.252c8.73 7.365 21.788 6.404 29.34-2.227l.252-.293c7.365-8.73 6.404-21.788-2.227-29.34L63.89 256l109.939-96.196.288-.256c8.459-7.675 9.24-20.745 1.687-29.377m189.732-2.226c-8.73-7.366-21.788-6.405-29.34 2.226l-.252.293c-7.365 8.73-6.404 21.788 2.227 29.34l109.938 96.195-109.938 96.197-.288.257c-8.459 7.675-9.24 20.744-1.687 29.376 7.637 8.728 20.904 9.612 29.633 1.975l128-112 .286-.255c9.274-8.411 9.179-23.071-.286-31.353l-128-112zM177.139 273.262c8.103-8.115 21.193-8.216 29.42-.296l.279.273L235 301.358V160c0-11.598 9.402-21 21-21 11.481 0 20.81 9.213 20.997 20.649L277 160v141.358l28.162-28.119c8.116-8.102 21.206-8.183 29.421-.25l.278.273c8.102 8.116 8.183 21.206.25 29.421l-.273.278-64 63.9c-8.107 8.093-21.18 8.184-29.397.273l-.279-.273-64-63.9c-8.207-8.195-8.217-21.491-.023-29.699" clip-rule="evenodd"/></svg>