<svg xmlns="http://www.w3.org/2000/svg" width="512" height="512" fill="none"><path fill="currentColor" d="M46 319.939c.924-5.65 1.54-11.402 2.876-16.949 13.25-55.774 47.352-91.93 103.229-104.975 43.757-10.271 84.021-.205 118.226 29.377 35.745 30.917 51.358 71.079 46.119 117.815-5.341 48.173-30.917 83.61-73.955 106.207-15.818 8.32-32.766 12.737-50.536 13.867-.822 0-1.541.411-2.363.616h-14.791c-.821-.205-1.54-.513-2.362-.616-23.727-1.438-45.503-8.731-65.225-21.776-27.425-18.18-45.913-43.14-55.569-74.674-2.978-9.861-4.211-20.029-5.649-30.096zm136.817-27.117c.616.102 1.952.308 3.287.616 5.444 1.438 8.936 5.444 12.737 9.244 4.93 4.828 12.12 5.033 16.948.514 5.033-4.622 5.444-11.915.822-17.256-5.444-6.266-11.607-11.607-19.516-14.483-2.26-.822-2.774-2.157-2.671-4.314.103-3.801.205-7.704 0-11.504-.308-6.78-5.547-11.915-12.12-12.018-6.78-.103-12.121 5.033-12.429 12.12a108 108 0 0 0 0 11.504c.103 2.363-.616 3.595-2.876 4.52-9.758 4.211-16.332 11.709-19.824 21.673-6.882 19.31 5.752 45.708 28.247 48.173 3.081.309 6.265.617 9.347 1.438 7.19 1.747 11.298 8.731 9.244 15.305-2.157 7.087-9.039 10.58-16.229 8.217-3.595-1.13-6.368-3.595-9.244-5.854-5.752-4.623-13.045-4.109-17.565 1.232-4.416 5.239-3.8 12.223 1.541 17.256q6.47 6.163 14.791 9.245c2.054.719 2.671 1.849 2.568 3.903-.103 4.109-.205 8.217 0 12.326.308 6.779 5.649 11.915 12.223 11.915s11.915-5.033 12.326-11.812a79 79 0 0 0 0-9.861c-.205-3.39.514-5.341 4.109-6.985 14.072-6.471 22.392-22.289 20.235-37.388-2.26-16.127-15.1-29.89-30.404-32.458-3.184-.514-6.574-.617-9.656-1.438-5.854-1.438-9.552-7.19-8.833-13.045.822-5.958 6.06-10.683 12.942-10.785"/><path fill="currentColor" d="M330.625 465.897c-7.601-.821-15.202-1.438-22.803-2.362-9.655-1.233-19.105-3.39-28.452-6.06.102-1.541 1.438-1.952 2.362-2.671 20.338-15.613 35.129-35.745 46.119-58.651 1.644-3.492 3.493-4.416 7.088-4.211 29.068.925 57.418-3.081 84.843-13.045 6.676-2.465 13.147-5.341 19.105-9.244 1.438-.925 2.465-1.746 2.465-3.801-.103-10.477-.103-21.056-.103-31.944-8.833 13.661-22.597 19.413-36.566 24.241-20.749 7.19-42.422 8.833-64.198 9.039-2.362 0-2.773-.822-2.362-2.876 3.287-14.483 4.519-29.172 3.492-43.963-.205-3.492 1.849-2.876 3.801-2.978 23.624-.617 46.838-3.698 69.23-11.299 8.32-2.773 16.332-6.163 23.83-10.785 1.952-1.233 2.876-2.363 2.773-4.828-.205-7.806 0-15.613-.102-23.316 0-1.027.616-2.465-.514-2.979-1.335-.616-2.67.514-3.595 1.438-5.444 5.033-11.607 9.039-18.283 12.326-16.127 7.704-33.177 11.401-50.844 13.353-8.937 1.027-17.976.822-27.015 1.232-1.746.103-3.389.309-4.006-2.259-4.108-16.538-10.887-31.945-20.132-46.325-.308-.411-.308-1.027-.513-1.746 14.791 1.643 29.376 1.849 43.962.616 23.933-1.951 47.249-6.471 69.333-16.434 11.607-5.239 11.709-5.239 11.607-17.976v-17.256c0-.308-.103-.513-.206-.822-1.643-.41-2.979.411-4.006 1.439-13.147 12.634-29.684 18.18-46.838 21.981-32.047 6.984-64.197 7.19-96.347-.103-2.363-.514-4.314-1.541-6.06-3.082-15.921-14.277-33.794-25.473-54.234-32.047-4.006-1.335-8.115-2.465-12.223-3.492-1.849-.411-2.363-1.335-2.363-3.082.103-21.981-.308-43.962.206-66.046.411-15.612 9.963-26.09 22.084-34.512 15.715-10.888 33.279-16.743 51.563-20.338 38.826-7.703 77.447-6.779 115.555 4.314 17.05 4.93 33.074 12.12 45.811 25.166 7.909 8.114 11.915 17.667 11.812 29.068-.103 72.312 0 144.624 0 216.935 0 24.447-.411 48.893.103 73.339.411 17.154-7.19 29.582-20.543 39.135-16.64 11.915-35.745 17.872-55.569 21.981-10.786 2.26-21.776 3.8-32.869 4.314-.925 0-1.952 0-2.671.719-7.909-.103-15.818-.103-23.727-.103m11.504-395.25c-18.181.206-36.259 1.747-53.926 6.575-13.661 3.8-26.809 8.525-37.594 18.078-9.141 8.217-9.039 16.126 0 24.24 9.245 8.32 20.441 13.148 32.15 16.538 37.902 10.888 75.907 11.196 114.015 1.335 13.661-3.595 26.911-8.32 37.696-17.975 8.936-7.807 8.936-16.024.103-23.933-6.266-5.65-13.764-9.347-21.468-12.531-22.802-9.347-46.632-12.12-70.976-12.326"/></svg>