<svg xmlns="http://www.w3.org/2000/svg" width="512" height="512" fill="none"><path fill="currentColor" d="M355.962 466h-27.833c-1.643-.924-3.492-.616-5.238-.822-23.93-1.746-47.244-6.367-68.914-17.049-2.26-1.129-3.903-.821-6.06.309-11.914 6.778-24.546 11.605-38.001 14.378-5.957 1.233-12.016 2.054-17.973 3.081h-18.898c-6.573-1.027-13.248-1.643-19.719-2.978-21.157-4.519-40.26-13.454-57-27.217-21.774-17.665-36.769-40.157-44.883-67.168-2.875-9.655-4.108-19.617-5.443-29.579v-16.433c.205-1.13.514-2.362.616-3.492 1.849-23.109 9.346-44.266 22.082-63.471 32.043-48.271 89.353-70.558 145.635-56.693 3.697.924 4.827.616 4.724-3.595-.205-28.552 0-57.104-.103-85.655 0-11.503 4.108-21.26 12.119-29.476 12.633-12.941 28.552-20.028 45.396-24.958 38.309-11.092 77.028-11.81 115.953-3.903 20.027 4.109 39.336 10.682 55.563 23.725 10.99 8.935 17.871 20.028 17.871 34.714-.103 97.57 0 195.139 0 292.708 0 3.697-.308 7.395-1.335 10.989-3.595 13.044-12.633 21.774-23.52 28.86-19.514 12.53-41.39 18.076-63.985 21.363-6.983.924-13.967 1.54-21.054 2.362m-63.163-135.467c-.206-61.315-50.223-111.229-111.435-111.332-60.903-.102-111.126 50.531-110.715 111.845.308 60.904 50.12 110.51 110.818 110.408 61.315-.206 111.537-50.12 111.332-110.921m50.325-259.842c-23.006.205-44.368 2.567-64.909 9.757-10.784 3.697-21.157 8.319-29.271 16.638-7.087 7.292-6.984 13.865 0 21.054 6.265 6.573 14.173 10.681 22.39 13.968 17.973 7.395 36.87 10.681 56.179 11.811 26.806 1.643 53.201-.616 78.774-9.243 11.092-3.698 21.671-8.422 29.887-17.049 6.676-6.882 6.573-13.147 0-20.13-4.93-5.238-10.989-8.936-17.46-11.914-24.34-11.298-50.325-14.481-75.59-14.892m-99.521 74.974c0 11.297.308 21.773-.102 32.249-.308 7.6 2.875 13.044 8.421 17.665 7.601 6.265 16.33 10.579 25.574 13.557 40.671 13.044 81.65 13.249 122.629 2.157 12.016-3.287 23.519-8.114 33.276-16.227 5.341-4.417 8.422-9.655 8.011-17.049s-.103-14.79-.103-22.082v-10.476c-30.914 18.179-64.293 23.52-98.596 23.52-34.611.102-68.093-5.033-99.11-23.314m197.604 222.971c-4.725 2.465-8.833 4.93-13.146 6.881-24.752 11.401-51.045 15.509-77.953 16.536a231.5 231.5 0 0 1-41.287-2.157c-3.287-.514-5.444-.103-7.087 3.389-3.595 7.498-8.422 14.379-13.557 20.952-4.314 5.546-9.449 10.373-14.379 15.919 12.633 4.827 25.266 7.498 38.104 9.141 29.271 3.8 58.336 2.773 86.888-5.238 12.427-3.492 24.341-8.114 34.406-16.535 4.108-3.492 7.908-7.395 8.011-13.249.102-11.709 0-23.314 0-35.639m0-147.791c-52.38 26.805-106.505 27.524-162.479 15.2 14.892 15.611 25.779 33.173 32.249 53.406.514 1.438 1.541 1.643 2.876 1.849 29.066 3.286 57.823 2.157 86.067-5.957 12.119-3.492 23.827-8.114 33.584-16.433 3.8-3.184 7.497-6.881 7.703-12.119.205-12.016 0-24.033 0-35.946m0 73.33c-.925.411-1.644.514-2.157.925-17.665 10.681-37.179 16.124-57.412 19.411a245.2 245.2 0 0 1-61.314 2.157c-2.876-.206-3.903.308-3.595 3.389 1.54 14.379.205 28.655-3.287 42.622-.513 2.054-.308 3.081 2.363 3.39 28.038 3.081 55.665 1.746 82.882-5.855 12.53-3.492 24.649-8.216 34.817-16.74 3.8-3.184 7.497-6.882 7.703-12.12.205-12.324 0-24.546 0-37.179"/><path fill="currentColor" d="M159.488 357.75c3.287 0 6.06 1.335 8.525 3.389 2.876 2.465 5.957 4.827 9.757 5.751 7.497 1.849 14.276-2.362 15.611-9.757 1.232-7.189-4.006-13.659-11.811-14.07-9.449-.514-17.665-3.698-24.855-9.963-19.205-16.946-14.892-49.811 8.319-60.595 3.287-1.541 4.417-3.287 4.109-6.779-.309-3.286-.206-6.573 0-9.859.308-6.779 5.546-11.914 12.119-12.017 6.675-.102 12.119 5.136 12.427 12.119.205 4.006.103 7.909 0 11.914-.103 1.952.513 2.979 2.362 3.595 7.498 2.773 13.454 7.703 18.795 13.557 5.443 5.957 5.649 13.146.411 18.178-5.135 4.93-12.222 4.622-17.871-.924-2.875-2.773-5.648-5.546-9.14-7.497-5.033-2.671-10.579-2.465-14.584 1.129-3.903 3.492-5.444 7.806-3.903 12.941 1.643 5.546 5.751 9.244 11.503 9.552 14.584.821 25.881 7.086 32.865 20.13 9.654 17.87 1.951 41.184-16.535 49.709-3.081 1.438-4.211 3.081-3.903 6.367.308 3.39.205 6.882 0 10.271-.308 6.778-5.649 11.914-12.222 11.914s-11.914-5.033-12.222-11.811c-.205-4.622 1.13-9.86-.513-13.763-1.644-3.8-7.6-4.005-11.092-6.881-2.568-2.054-5.341-3.903-7.395-6.47-3.287-3.903-3.8-8.319-1.746-13.044 1.849-4.416 6.265-7.086 10.989-7.086"/></svg>