<svg xmlns="http://www.w3.org/2000/svg" width="512" height="512" fill="none"><path fill="currentColor" fill-rule="evenodd" d="M416 352c-12.6-.84-21-4-28-12-14-16-14-36 5.49-52.48l32.82-29.14c50.27-44.41 50.27-117.21 0-161.63C389.26 64.14 339.54 48 287.86 48c-60.34 0-123.39 22-172 65.11-90.46 80-90.46 210.92 0 290.87 45 39.76 105.63 59.59 165.64 60h1.84c60 0 119.07-19.5 161.2-56.77C464 390 464 385 444.62 355.56 440 348 431 353 416 352M112 208c0-17.673 14.327-32 32-32s32 14.327 32 32-14.327 32-32 32-32-14.327-32-32m40 135c-17.673 0-32-14.327-32-32s14.327-32 32-32 32 14.327 32 32-14.327 32-32 32m40-199c0-17.673 14.327-32 32-32s32 14.327 32 32-14.327 32-32 32-32-14.327-32-32m64 271a48 48 0 0 1-33.941-81.941A48 48 0 0 1 304 367c0 26.51-21.49 48-48 48m72-239c-17.673 0-32-14.327-32-32s14.327-32 32-32 32 14.327 32 32-14.327 32-32 32" clip-rule="evenodd"/></svg>