<svg xmlns="http://www.w3.org/2000/svg" width="512" height="512" fill="none"><path fill="currentColor" fill-rule="evenodd" d="M166.435 47.562c-9.651-9.452-22.712-14.79-36.325-14.79a52 52 0 0 0-36.833 15.294l-5.13 5.13-.442.445a51.99 51.99 0 0 0-14.833 36.37l.004.648.014.743.02.624a52 52 0 0 0 15.256 34.817l41.507 41.507-84.649 84.528-.408.412a44 44 0 0 0-12.54 31.091 44 44 0 0 0 13.443 31.332L176.747 441.74l.517.487c17.137 15.897 43.747 15.666 60.59-.627l62.722-60.734c32.078-31.075 52.923-51.308 61.082-59.309l2.942-2.901.157-.091q.211-.118.542-.263c.947-.415 2.275-.814 3.922-1.151 3.463-.708 7.873-1.051 12.909-1.051l.709-.003a22.53 22.53 0 0 0 20.457-14.015l.156-.393.15-.4a22.53 22.53 0 0 0-5.119-23.534L224.712 105.371l-16.037-15.91zm42.321 87.057L361.45 286.092l-.501.116-.628.151c-7.293 1.795-13.427 4.75-18.205 9.527-3.188 3.189-16.938 16.564-39.843 38.773L215.6 418.605c-4.648 4.497-12.028 4.516-16.705.038L67.713 292.66l-.242-.24a12 12 0 0 1-3.397-8.279l.003-.357a12 12 0 0 1 3.536-8.239l84.55-84.431.05.051zM130.11 64.772c-5.169 0-10.131 2-13.869 5.59l-.317.312-5.17 5.17a20 20 0 0 0-5.878 13.724l-.004.394.003.4.01.39a20 20 0 0 0 5.258 12.787l.316.337.315.32 41.543 41.543 33.713-33.666-41.753-41.419a20 20 0 0 0-13.27-5.862l-.455-.015zm285.533 256.236a19.95 19.95 0 0 0-14.768 7.001l-.458.534c-1.516 1.748-5.701 6.449-7.536 8.512l-.008.009-.859.966c-4.758 5.394-8.747 10.133-12.63 15.109-12.876 16.5-21.721 32.037-25.491 47.689-1.242 5.157-1.893 10.254-1.893 15.282 0 35.37 27.981 64.304 62.942 64.881L416 481c35.374 0 64-29.198 64-64.89 0-5.021-.647-10.112-1.881-15.263-3.76-15.702-12.616-31.304-25.489-47.826-3.629-4.658-7.365-9.123-11.688-14.05l-1.653-1.871-1.561-1.753-.008-.008-.019-.022a2062 2062 0 0 1-4.999-5.621l-1.427-1.627-.317-.367a19.94 19.94 0 0 0-14.908-6.698zm.42 38.13.008.008c4.301 4.877 7.897 9.154 11.316 13.542 10.312 13.235 17.13 25.247 19.613 35.612q1.002 4.195 1 7.81l-.004.544c-.282 17.727-14.326 32.054-31.47 32.342l-.463.003-.592-.003C398.096 448.709 384 434.132 384 416.11q-.002-3.605 1.004-7.79c2.441-10.137 9.055-21.857 19.068-34.8l.54-.695c3.232-4.141 6.611-8.173 10.639-12.763z" clip-rule="evenodd"/></svg>