<svg xmlns="http://www.w3.org/2000/svg" width="24" height="24" fill="none"><path fill="currentColor" fill-rule="evenodd" d="M7.983 2.275A10.6 10.6 0 0 1 11.29 1.5v5.318a5.25 5.25 0 0 0-2.425 1.001L5.094 4.06a10.6 10.6 0 0 1 2.889-1.784" clip-rule="evenodd"/><path fill="currentColor" fill-rule="evenodd" d="M7.983 2.275A10.6 10.6 0 0 1 11.29 1.5v5.318a5.25 5.25 0 0 0-2.425 1.001L5.094 4.06a10.6 10.6 0 0 1 2.889-1.784" clip-rule="evenodd"/><path fill="currentColor" d="M7.182 9.99c-.17.408-.286.835-.347 1.272H1.5a10.5 10.5 0 0 1 2.567-6.178l3.772 3.76a5.2 5.2 0 0 0-.657 1.145M6.835 12.713H1.5a10.5 10.5 0 0 0 2.567 6.178l3.772-3.76a5.2 5.2 0 0 1-1.004-2.418"/><path fill="currentColor" fill-rule="evenodd" d="m18.904 19.915-3.772-3.76a5.25 5.25 0 0 1-2.425 1v5.319a10.56 10.56 0 0 0 6.197-2.56" clip-rule="evenodd"/><path fill="currentColor" fill-rule="evenodd" d="m18.904 19.915-3.772-3.76a5.25 5.25 0 0 1-2.425 1v5.319a10.56 10.56 0 0 0 6.197-2.56" clip-rule="evenodd"/><path fill="currentColor" fill-rule="evenodd" d="m18.904 19.915-3.772-3.76a5.25 5.25 0 0 1-2.425 1v5.319a10.56 10.56 0 0 0 6.197-2.56" clip-rule="evenodd"/><path fill="currentColor" fill-rule="evenodd" d="m18.904 19.915-3.772-3.76a5.25 5.25 0 0 1-2.425 1v5.319a10.56 10.56 0 0 0 6.197-2.56" clip-rule="evenodd"/><path fill="currentColor" d="M17.165 12.713h5.334a10.5 10.5 0 0 1-2.567 6.178l-3.772-3.76a5.2 5.2 0 0 0 1.005-2.418M16.817 9.99c.17.408.286.835.348 1.272h5.334a10.5 10.5 0 0 0-2.567-6.178l-3.772 3.76c.266.352.487.737.657 1.145M16.015 2.275a10.6 10.6 0 0 0-3.308-.775v5.318a5.25 5.25 0 0 1 2.425 1.001l3.772-3.76a10.6 10.6 0 0 0-2.889-1.784"/><path fill="currentColor" fill-rule="evenodd" d="m5.123 19.94 3.772-3.76c.71.533 1.545.878 2.425 1.001v5.318a10.56 10.56 0 0 1-6.197-2.559" clip-rule="evenodd"/><path fill="currentColor" fill-rule="evenodd" d="m5.123 19.94 3.772-3.76c.71.533 1.545.878 2.425 1.001v5.318a10.56 10.56 0 0 1-6.197-2.559" clip-rule="evenodd"/><path fill="currentColor" fill-rule="evenodd" d="m5.123 19.94 3.772-3.76c.71.533 1.545.878 2.425 1.001v5.318a10.56 10.56 0 0 1-6.197-2.559" clip-rule="evenodd"/><path fill="currentColor" fill-rule="evenodd" d="m5.123 19.94 3.772-3.76c.71.533 1.545.878 2.425 1.001v5.318a10.56 10.56 0 0 1-6.197-2.559" clip-rule="evenodd"/></svg>