<svg xmlns="http://www.w3.org/2000/svg" width="512" height="512" fill="none"><path fill="currentColor" fill-rule="evenodd" d="M285.427 48c-61.272 0-122.777 22.788-169.413 64.127-90.688 80.153-90.688 212.293.017 292.462 42.71 37.77 100.969 58.55 161.544 59.391l1.952.02h1.7c60.565 0 118.456-20.008 159.432-56.443 20.912-18.443 19.789-53.239.387-71.353-6.435-5.947-13.934-9.187-23.452-11.324l-1.742-.377c-1.937-.405-3.515-.68-7.664-1.38l-1.324-.224c-7.178-1.24-8.976-2.107-13.022-5.703l-.241-.215c-7.182-6.379-7.182-13.583-.049-19.918l30.298-26.898c53.579-47.344 53.579-125.786-.028-173.155C387.412 64.966 338.215 48 285.427 48m0 32c45.305 0 86.95 14.361 117.229 41.011 39.169 34.61 39.169 90.568-.023 125.199l-30.328 26.925c-21.47 19.067-21.47 48.663-.002 67.728l.854.756c8.5 7.417 15.585 10.595 28.455 12.845l5.121.875c1.444.255 2.288.423 3.415.668 4.756 1.033 7.591 2.231 9.119 3.643 6.009 5.61 6.423 18.441.177 23.95l-1.051.927C383.552 414.966 333.741 432 281.227 432h-1.584c-53.782-.388-105.302-18.564-142.417-51.386-76.297-67.434-76.297-177.094-.003-244.525C177.955 99.983 231.89 80 285.427 80m-109.41 128c0 17.673-14.327 32-32 32s-32-14.327-32-32 14.327-32 32-32 32 14.327 32 32m-24 135c17.673 0 32-14.327 32-32s-14.327-32-32-32-32 14.327-32 32 14.327 32 32 32m104-199c0 17.673-14.327 32-32 32s-32-14.327-32-32 14.327-32 32-32 32 14.327 32 32m0 271c26.51 0 48-21.49 48-48s-21.49-48-48-48-48 21.49-48 48 21.49 48 48 48m104-271c0 17.673-14.327 32-32 32s-32-14.327-32-32 14.327-32 32-32 32 14.327 32 32" clip-rule="evenodd"/></svg>