<svg xmlns="http://www.w3.org/2000/svg" width="512" height="512" fill="none"><path fill="currentColor" fill-rule="evenodd" d="M205.997 45.685C205.829 36.994 198.731 30 190 30c-8.837 0-16 7.163-16 16v48l.003.315C174.171 103.006 181.269 110 190 110c8.837 0 16-7.163 16-16V46zM76.867 76.866c6.16-6.161 16.098-6.247 22.364-.256l.263.256 33.94 33.94c6.248 6.249 6.248 16.379 0 22.628-6.162 6.161-16.099 6.247-22.365.256l-.263-.256-33.94-33.94c-6.248-6.249-6.248-16.38 0-22.628M149.76 180.19l30.427-30.426c10.154-10.154 26.616-10.154 36.769 0l253.286 253.285c10.154 10.154 10.154 26.616 0 36.77l-30.427 30.427c-10.153 10.153-26.616 10.153-36.769 0L149.76 216.959c-10.154-10.154-10.154-26.616 0-36.77m293.612 241.244L254.594 232.655l-21.941 21.942L421.43 443.374zM110 190c0-8.837-7.163-16-16-16H46l-.315.003C36.994 174.171 30 181.269 30 190c0 8.837 7.163 16 16 16h48l.315-.003C103.006 205.829 110 198.731 110 190M280.506 76.866c6.249-6.248 16.379-6.248 22.628 0 6.161 6.162 6.247 16.099.256 22.365l-.256.263-33.94 33.94c-6.249 6.248-16.379 6.248-22.628 0-6.161-6.162-6.247-16.099-.256-22.365l.256-.263zm-147.072 169.7c-6.249-6.248-16.379-6.248-22.628 0l-33.94 33.94-.256.263c-5.99 6.266-5.905 16.203.256 22.365 6.249 6.248 16.38 6.248 22.628 0l33.94-33.94.256-.263c5.991-6.266 5.905-16.203-.256-22.365" clip-rule="evenodd"/></svg>