<svg xmlns="http://www.w3.org/2000/svg" width="512" height="512" fill="none"><path fill="currentColor" fill-rule="evenodd" d="M258.28 202.53a151.88 151.88 0 0 1 128.44-20.41 4 4 0 0 0 5.15-4C388.8 105.86 329 48 256 48s-132.8 57.86-135.87 130.15a4 4 0 0 0 5.15 4 151.88 151.88 0 0 1 128.44 20.41v-.03a4 4 0 0 0 4.56 0m147.03 10.03a152.53 152.53 0 0 1-83.08 108.23 4 4 0 0 0-2.28 3.69c0 .584.012 1.168.025 1.753v.002c.012.586.025 1.174.025 1.765a151.58 151.58 0 0 1-47.15 109.94 3.999 3.999 0 0 0 .64 6.31A135.24 135.24 0 0 0 344 464c72.07 0 134.1-60.28 136-132.34 1.324-50.199-25.108-97.047-68.76-121.87a4 4 0 0 0-5.93 2.77m-17.43-13.29a4 4 0 0 1 2.69 4.4 136.3 136.3 0 0 1-67.32 98.5 4 4 0 0 1-5.94-2.72 151.9 151.9 0 0 0-44.47-81.4 4 4 0 0 1 .64-6.29 135.84 135.84 0 0 1 114.4-12.49M192 328zc0-1.18 0-2.349.05-3.519a4 4 0 0 0-2.28-3.69 152.53 152.53 0 0 1-83.08-108.23 4 4 0 0 0-5.88-2.77c-43.652 24.823-70.084 71.671-68.76 121.87C34 403.72 96 464 168.05 464a135.24 135.24 0 0 0 70.46-19.75 4 4 0 0 0 .64-6.31A151.58 151.58 0 0 1 192 328m-67.88-128.73A135.3 135.3 0 0 1 168 192a135.2 135.2 0 0 1 70.52 19.76 4 4 0 0 1 .64 6.29 151.9 151.9 0 0 0-44.47 81.4 4 4 0 0 1-5.94 2.72 136.3 136.3 0 0 1-67.32-98.5 4 4 0 0 1 2.69-4.4M256 336a151.4 151.4 0 0 1-42.72-6.12 4 4 0 0 0-5.15 4 135.7 135.7 0 0 0 45.18 95.4 4 4 0 0 0 5.38 0 135.7 135.7 0 0 0 45.18-95.4 4 4 0 0 0-5.15-4A151.4 151.4 0 0 1 256 336m2.7-109.25a135.94 135.94 0 0 1 43.87 81.58 4 4 0 0 1-2.69 4.4 136.06 136.06 0 0 1-87.76 0 4 4 0 0 1-2.69-4.4 135.94 135.94 0 0 1 43.87-81.58 4.06 4.06 0 0 1 5.4 0" clip-rule="evenodd"/></svg>