<svg xmlns="http://www.w3.org/2000/svg" width="512" height="512" fill="none"><path fill="currentColor" fill-rule="evenodd" d="M120 184c0-75.111 60.889-136 136-136s136 60.889 136 136c0 5.533-.33 10.99-.973 16.35C442.963 219.49 480 269.42 480 328c0 75.111-60.889 136-136 136-33.56 0-64.281-12.156-88-32.305C232.281 451.844 201.56 464 168 464c-75.11 0-136-60.889-136-136 0-58.58 37.037-108.51 88.973-127.65A137 137 0 0 1 120 184m8.607 47.72C90.702 247.245 64 284.504 64 328c0 57.438 46.562 104 104 104 25.14 0 48.196-8.92 66.176-23.767C217.717 385.742 208 358.006 208 328c0-5.533.33-10.99.973-16.35-37.049-13.654-66.517-42.976-80.366-79.93m149.217 176.513C295.804 423.08 318.86 432 344 432c57.438 0 104-46.562 104-104 0-43.496-26.702-80.755-64.607-96.28-13.849 36.954-43.317 66.276-80.366 79.93.643 5.36.973 10.817.973 16.35 0 30.006-9.717 57.742-26.176 80.233m-6.198-89.121q.372 4.396.374 8.888c0 20.385-5.865 39.401-16 55.451-10.135-16.05-16-35.066-16-55.451q.002-4.492.374-8.888c5.128.587 10.342.888 15.626.888s10.498-.301 15.626-.888m23.767-38.832c25.454-10.425 45.855-30.651 56.512-55.984A106 106 0 0 0 344 224c-25.14 0-48.196 8.92-66.176 23.767a135.7 135.7 0 0 1 17.569 32.513M256 272.549a103.7 103.7 0 0 1 7.905 15.155 105.5 105.5 0 0 1-15.81 0A103.7 103.7 0 0 1 256 272.549m-21.824-24.782a135.7 135.7 0 0 0-17.569 32.513c-25.454-10.425-45.855-30.651-56.512-55.984q3.914-.295 7.905-.296c25.14 0 48.196 8.92 66.176 23.767M256 224.305C232.281 204.156 201.56 192 168 192c-5.284 0-10.498.301-15.626.888q-.372-4.396-.374-8.888c0-57.438 46.562-104 104-104s104 46.562 104 104q-.001 4.492-.374 8.888A137 137 0 0 0 344 192c-33.56 0-64.281 12.156-88 32.305" clip-rule="evenodd"/></svg>