<svg xmlns="http://www.w3.org/2000/svg" width="512" height="512" fill="none"><path fill="currentColor" fill-rule="evenodd" d="M399.23 276.64 167.89 47.22c-20.337-20.293-53.263-20.293-73.6 0l-4.51 4.51a53.2 53.2 0 0 0-15.89 37.33A51.66 51.66 0 0 0 89.14 126l41.51 41.5L46 252a44.52 44.52 0 0 0-13 32 42.8 42.8 0 0 0 13.5 30.84l131.24 126c17.092 16.383 44.084 16.304 61.08-.18l124.11-120.28a15.6 15.6 0 0 1 8.23-4.29 69 69 0 0 1 11.93-.86h.3a22.53 22.53 0 0 0 20.881-13.975 22.53 22.53 0 0 0-5.041-24.615M153.29 144.85l-41.53-41.52a20 20 0 0 1 0-28.34l5.16-5.15a20.07 20.07 0 0 1 28.39 0L187 111.21zM353 415.12c0 35.77 28.71 64.88 64 64.88s64-29.11 64-64.85c0-33.54-28.83-65.75-44.33-83.05-1.73-1.93-3.23-3.62-4.36-4.93a19.942 19.942 0 0 0-30.55 0c-1.054 1.24-2.446 2.803-4.05 4.603l-.63.707C381.67 349.72 353 381.83 353 415.12" clip-rule="evenodd"/></svg>