<svg xmlns="http://www.w3.org/2000/svg" width="512" height="512" fill="none"><path fill="currentColor" fill-rule="evenodd" d="M219 151.83a26 26 0 0 0-36.77 0l-30.43 30.43a26 26 0 0 0 0 36.77L208.76 276a4 4 0 0 0 5.66 0L276 214.42a4 4 0 0 0 0-5.66zM75.467 300.017a16 16 0 0 0 14.783 9.873 16 16 0 0 0 11.31-4.68l33.94-33.94c6.094-6.272 6.023-16.276-.159-22.461-6.183-6.185-16.186-6.26-22.461-.169l-33.95 33.94a16 16 0 0 0-3.463 17.437M304.24 237l168.07 168.11a26 26 0 0 1 0 36.77l-30.43 30.43c-10.152 10.147-26.607 10.147-36.76 0L237 304.24a4 4 0 0 1 0-5.66L298.58 237a4 4 0 0 1 5.66 0" clip-rule="evenodd"/></svg>