<svg xmlns="http://www.w3.org/2000/svg" width="512" height="512" fill="none"><path fill="currentColor" fill-rule="evenodd" d="M256 185a167.85 167.85 0 0 1 134.9-18.28C382.36 99.83 325.12 48 256 48S129.64 99.83 121.1 166.67A167.85 167.85 0 0 1 256 185m80 146.73a167.5 167.5 0 0 1-52.37 118.08A135 135 0 0 0 344 464c75 0 136-61 136-136a136 136 0 0 0-59.06-112.08A168.53 168.53 0 0 1 336 331.73m-3.06-35.65a167.87 167.87 0 0 0-49.36-89.89h-.01A135.87 135.87 0 0 1 391 200.38a136.14 136.14 0 0 1-58.06 95.7m-156.89 35.65a168.53 168.53 0 0 1-85-115.81A136 136 0 0 0 32 328c0 75 61 136 136 136a135 135 0 0 0 60.42-14.19 167.5 167.5 0 0 1-52.37-118.08m52.37-125.54a167.87 167.87 0 0 0-49.36 89.89 136.14 136.14 0 0 1-58.06-95.7 135.87 135.87 0 0 1 107.42 5.81m74.48 139.14a168.2 168.2 0 0 1-93.8 0A135.9 135.9 0 0 0 256 431.6a135.9 135.9 0 0 0 46.9-86.27m.1-33.71a136 136 0 0 1-94 0 135.93 135.93 0 0 1 47-87.22 135.93 135.93 0 0 1 47 87.22" clip-rule="evenodd"/></svg>