<svg xmlns="http://www.w3.org/2000/svg" width="512" height="512" fill="none"><path fill="#F05FC7" fill-rule="evenodd" d="M170.338 48.537A225.6 225.6 0 0 1 240.913 32v113.448a112 112 0 0 0-27.234 7.397 111.9 111.9 0 0 0-24.504 13.966l-80.472-80.22a225 225 0 0 1 61.635-38.054" clip-rule="evenodd"/><path fill="#F05FC7" fill-rule="evenodd" d="M170.338 48.537A225.6 225.6 0 0 1 240.913 32v113.448a112 112 0 0 0-27.234 7.397 111.9 111.9 0 0 0-24.504 13.966l-80.472-80.22a225 225 0 0 1 61.635-38.054" clip-rule="evenodd"/><path fill="#775DD0" d="M153.225 213.117a111.1 111.1 0 0 0-7.42 27.143H32a223.7 223.7 0 0 1 16.589-70.349 224.1 224.1 0 0 1 38.174-61.441l80.472 80.22a111.3 111.3 0 0 0-14.01 24.427"/><path fill="#0083F5" d="M145.805 271.197H32a223.7 223.7 0 0 0 16.589 70.349 224.2 224.2 0 0 0 38.173 61.44l80.472-80.221a111.137 111.137 0 0 1-21.429-51.568"/><path fill="#98DF00" fill-rule="evenodd" d="m403.285 424.866-80.472-80.22a111.9 111.9 0 0 1-51.737 21.362v113.448c48.848-3.364 95.282-22.537 132.209-54.59" clip-rule="evenodd"/><path fill="#98DF00" fill-rule="evenodd" d="m403.285 424.866-80.472-80.22a111.9 111.9 0 0 1-51.737 21.362v113.448c48.848-3.364 95.282-22.537 132.209-54.59" clip-rule="evenodd"/><path fill="#98DF00" fill-rule="evenodd" d="m403.285 424.866-80.472-80.22a111.9 111.9 0 0 1-51.737 21.362v113.448c48.848-3.364 95.282-22.537 132.209-54.59" clip-rule="evenodd"/><path fill="#98DF00" fill-rule="evenodd" d="m403.285 424.866-80.472-80.22a111.9 111.9 0 0 1-51.737 21.362v113.448c48.848-3.364 95.282-22.537 132.209-54.59" clip-rule="evenodd"/><path fill="#F9E213" d="M366.194 271.197H480a223.7 223.7 0 0 1-16.589 70.349 224.2 224.2 0 0 1-38.173 61.44l-80.472-80.221a111.3 111.3 0 0 0 14.009-24.425 111 111 0 0 0 7.419-27.143"/><path fill="#FEB019" d="M358.774 213.117a111 111 0 0 1 7.419 27.143h113.806a223.7 223.7 0 0 0-16.589-70.349 224.1 224.1 0 0 0-38.174-61.441l-80.472 80.22a111.3 111.3 0 0 1 14.01 24.427"/><path fill="#FF4560" d="M341.661 48.537A225.6 225.6 0 0 0 271.086 32v113.448a112 112 0 0 1 27.233 7.397 111.8 111.8 0 0 1 24.504 13.966l80.473-80.22a225.1 225.1 0 0 0-61.635-38.054"/><path fill="#00DF8F" fill-rule="evenodd" d="m109.25 425.41 80.473-80.221a111.9 111.9 0 0 0 51.736 21.363V480c-48.848-3.364-95.281-22.537-132.209-54.59" clip-rule="evenodd"/><path fill="#00DF8F" fill-rule="evenodd" d="m109.25 425.41 80.473-80.221a111.9 111.9 0 0 0 51.736 21.363V480c-48.848-3.364-95.281-22.537-132.209-54.59" clip-rule="evenodd"/><path fill="#00DF8F" fill-rule="evenodd" d="m109.25 425.41 80.473-80.221a111.9 111.9 0 0 0 51.736 21.363V480c-48.848-3.364-95.281-22.537-132.209-54.59" clip-rule="evenodd"/><path fill="#00DF8F" fill-rule="evenodd" d="m109.25 425.41 80.473-80.221a111.9 111.9 0 0 0 51.736 21.363V480c-48.848-3.364-95.281-22.537-132.209-54.59" clip-rule="evenodd"/></svg>