<svg xmlns="http://www.w3.org/2000/svg" width="512" height="515" fill="none"><path fill="currentColor" d="M426.664 107.377H85.331c-23.467 0-42.667 19.304-42.667 42.898v214.493c0 23.594 19.2 42.899 42.667 42.899h341.333c23.467 0 42.667-19.305 42.667-42.899V150.275c0-23.594-19.2-42.898-42.667-42.898m-256 268.116H85.331c-6.4 0-10.667-4.29-10.667-8.58v-45.044h96zm0-85.797h-96v-64.348h96zm0-96.522h-96v-42.899c0-6.435 4.267-10.724 8.533-10.724h87.467zm266.667 171.594c0 6.435-4.267 10.725-8.534 10.725h-87.466v-53.624h96zm0-75.072h-96v-64.348h96zm0-96.522h-96v-53.623h85.333c6.4 0 10.667 4.289 10.667 8.579z"/></svg>