<svg xmlns="http://www.w3.org/2000/svg" width="512" height="512" fill="none"><path fill="currentColor" d="M91.5 52C81.835 52 74 59.835 74 69.5S81.835 87 91.5 87h.5v201H81.5c-9.665 0-17.5 7.835-17.5 17.5v136c0 9.665 7.835 17.5 17.5 17.5h138c9.665 0 17.5-7.835 17.5-17.5V352h-17.5c-9.665 0-17.5 7.835-17.5 17.5V424H99V319h10.5c9.665 0 17.5-7.835 17.5-17.5V87h258v148.432a137.3 137.3 0 0 1 35 7.42V87h.5c9.665 0 17.5-7.835 17.5-17.5S430.165 52 420.5 52z"/><path fill="currentColor" fill-rule="evenodd" d="M374 256c-64.513 0-117 52.487-117 117s52.487 117 117 117 117-52.487 117-117-52.487-117-117-117m1.125 54c22.368 0 40.5 18.132 40.5 40.5s-18.132 40.5-40.5 40.5-40.5-18.132-40.5-40.5 18.132-40.5 40.5-40.5M374 472a98.75 98.75 0 0 1-72.664-31.837C306.309 414.411 350.971 409 374 409s67.691 5.411 72.664 31.157A98.73 98.73 0 0 1 374 472" clip-rule="evenodd"/><path fill="currentColor" d="M161 135a8 8 0 0 1 8-8h25a8 8 0 0 1 8 8v27a8 8 0 0 1-8 8h-25a8 8 0 0 1-8-8zM161 212a8 8 0 0 1 8-8h25a8 8 0 0 1 8 8v27a8 8 0 0 1-8 8h-25a8 8 0 0 1-8-8zM169 277a8 8 0 0 0-8 8v27a8 8 0 0 0 8 8h25a8 8 0 0 0 8-8v-27a8 8 0 0 0-8-8zM235 285a8 8 0 0 1 8-8h25c1.943 0 3.724.693 5.11 1.844A138.1 138.1 0 0 0 246.544 320H243a8 8 0 0 1-8-8zM350 212v25.08a137 137 0 0 0-32.369 9.92H317a8 8 0 0 1-8-8v-27a8 8 0 0 1 8-8h25a8 8 0 0 1 8 8M130 360a8 8 0 0 1 8-8h25a8 8 0 0 1 8 8v27a8 8 0 0 1-8 8h-25a8 8 0 0 1-8-8zM243 127a8 8 0 0 0-8 8v27a8 8 0 0 0 8 8h25a8 8 0 0 0 8-8v-27a8 8 0 0 0-8-8zM235 212a8 8 0 0 1 8-8h25a8 8 0 0 1 8 8v27a8 8 0 0 1-8 8h-25a8 8 0 0 1-8-8zM317 127a8 8 0 0 0-8 8v27a8 8 0 0 0 8 8h25a8 8 0 0 0 8-8v-27a8 8 0 0 0-8-8z"/></svg>