<svg xmlns="http://www.w3.org/2000/svg" width="512" height="512" fill="none"><path fill="currentColor" fill-rule="evenodd" d="M256 48C141.31 48 48 141.31 48 256s93.31 208 208 208 208-93.31 208-208S370.69 48 256 48m105.07 113.33-46.88 117.2a64 64 0 0 1-35.66 35.66l-117.2 46.88a8 8 0 0 1-8.63-1.77 8 8 0 0 1-1.77-8.63l46.88-117.2a64 64 0 0 1 35.66-35.66l117.2-46.88a8 8 0 0 1 8.63 1.77 8 8 0 0 1 1.77 8.63M280 256c0 13.255-10.745 24-24 24s-24-10.745-24-24 10.745-24 24-24 24 10.745 24 24" clip-rule="evenodd"/></svg>