<svg xmlns="http://www.w3.org/2000/svg" width="512" height="512" fill="none"><path fill="currentColor" fill-rule="evenodd" d="M256 48C141.163 48 48 141.163 48 256s93.163 208 208 208 208-93.163 208-208S370.837 48 256 48m0 32c97.163 0 176 78.837 176 176s-78.837 176-176 176S80 353.163 80 256 158.837 80 256 80m94.67 70.93-117.2 46.88a64 64 0 0 0-35.66 35.66l-46.88 117.2a8 8 0 0 0 10.4 10.4l117.2-46.88a64 64 0 0 0 35.66-35.66l46.88-117.2a8 8 0 0 0-10.4-10.4M256 280c-13.255 0-24-10.745-24-24s10.745-24 24-24 24 10.745 24 24-10.745 24-24 24" clip-rule="evenodd"/></svg>