<svg xmlns="http://www.w3.org/2000/svg" width="513" height="512" fill="none"><path fill="currentColor" fill-rule="evenodd" d="m82.799 258.155 29.489-28.798a20.6 20.6 0 0 0 6.225-14.767l-.005-.439a20.63 20.63 0 0 0-5.629-13.729l-.237-.244.325-.092a14.8 14.8 0 0 1 4.929-.479l.365.031.328.044c.896.134 2.092.416 3.504.883 2.405.796 5.02 1.997 7.793 3.681l.664.409c9.186 5.717 22.842 17.018 40.06 34.126l1.018 1.015a34.23 34.23 0 0 0 10.095 25.265l19.792 19.37-86.812 80.669a56.76 56.76 0 0 0 24.335 97.257l.613.148a56.76 56.76 0 0 0 54.931-16.93l.271-.3 80.275-85.795c34.584 36.368 70.307 74.928 85.588 92.47l1.617 1.865.329.368a30 30 0 0 0 43.15 1.261l33.51-33.499.336-.34a29.461 29.461 0 0 0-2.411-43.241l-.539-.45c-16.485-13.791-56.574-50-97.011-87.442l17.216-18.4c2.812-3.026 7.008-4.233 10.944-3.178 43.106 11.518 84.529 5.502 112.442-21.996 30.948-30.487 40.459-85.359 23.26-120.725l-.092-.186a16.85 16.85 0 0 0-26.96-4.361l-51.153 51.172c-4.317 4.29-11.351 4.29-15.707-.038l-22.441-22.451c-4.297-4.321-4.297-11.347.029-15.697l50.859-50.858a16.848 16.848 0 0 0-4.821-27.2l-.456-.203c-39.069-16.726-87.868-7.853-119.1 22.373l-.939.92c-28.275 28.068-34.235 70.158-22.001 113.685l.083.315a11 11 0 0 1-3.208 10.744l-19.573 18.189-22.792-22.183a34 34 0 0 0-21.849-9.328 19 19 0 0 0-.833-.898l-1.586-1.591c-14.918-14.993-22.893-24.062-26.832-30.306l-.135-.216c-2.665-4.281-3.122-6.281-2.881-11.295.765-15.452 5.254-25.412 14.758-32.933 6.205-4.869 19.381-9.783 29.375-10.6l.86-.065c4.59-.308 9.18-.019 13.674.858l.66.134-.164-.04a63 63 0 0 1 7.343 2.209c14.907 5.494 27.844-11.749 18.399-24.524a105.5 105.5 0 0 0-12.117-13.72l-.288-.268-.378-.338c-12.054-10.696-33.454-19.292-55.913-19.47l-.694-.003a123.3 123.3 0 0 0-46.332 8.986c-19.064 7.676-36.067 17.209-51.02 27.879l-1.668 1.2c-9.32 6.765-16.436 12.919-22.415 18.778a223 223 0 0 0-20.322 23.033l-1.032 1.358q-.1.132-.197.267l-.282.397c-4.06 5.802-5.106 11.388-4.862 18.652l.024.613-.143-.063a20.8 20.8 0 0 0-7.988-1.689l.078.003a20.71 20.71 0 0 0-14.994 5.936L6.157 182.057q-.214.209-.42.427c-7.65 8.057-7.65 20.695 0 28.752q.21.221.427.434l47.679 46.535a20.86 20.86 0 0 0 14.178 5.794h.104a20.7 20.7 0 0 0 14.674-5.844m120.86-17.828q.138-.13.273-.262l17.084-16.88a2.1 2.1 0 0 1 2.27.448l21.322 20.753-19.625 18.237-5.18-5.059-15.51-15.19-.14-.148a2.24 2.24 0 0 1-.494-1.899m-10.75-34.681-1.476-1.516c-26.725-27.557-33.018-39.317-32.252-58.296l.029-.635c1.195-24.16 9.596-42.802 26.913-56.507 3.945-3.095 8.836-5.978 14.214-8.479l-.34.023a91.4 91.4 0 0 0-27.671 6.426c-16.632 6.697-31.435 14.996-44.405 24.251-8.165 5.826-14.293 11.021-19.301 15.841l-.926.899a191 191 0 0 0-16.263 18.265l-.901 1.162.002.113c.005.318.02.711.048 1.19l.014.246.173 2.477c.272 3.945.295 5.939-.072 8.867-.707 5.65-2.945 10.784-7.245 14.941l-.48.451c-5.311 4.862-12.06 7.257-19.466 8.07l-.153.018a25.86 25.86 0 0 1-11.34-1.277l-.14-.051-15.072 14.73 31.493 30.738 14.28-13.945-.053-.098a30.1 30.1 0 0 1-3.496-13.006l-.014-.492a30.14 30.14 0 0 1 8.472-21.587l.086-.088a27.4 27.4 0 0 1 6.348-4.81l.358-.2a46.85 46.85 0 0 1 26.566-5.627l.629.058.67.075c7.192.869 15.618 3.715 24.356 9.021 10.464 6.353 24.338 17.542 41.136 33.764l.07.068zm191.475 224.757c-16.148-18.487-52.444-57.642-87.356-94.329l20.805-22.235c39.511 36.588 78.649 71.966 96.66 87.202l.258.219-29.801 29.792zM277.443 257.558l-141.15 131.163-.437.397a24.762 24.762 0 0 0 10.885 42.18 24.76 24.76 0 0 0 24.414-7.525l.119-.134 162.591-173.768a42.99 42.99 0 0 1 42.265-11.889l.993.262c32.749 8.506 62.233 4.069 80.719-14.142 15.037-14.813 22.899-39.309 22.191-60.503l-.01-.228-32.076 32.089c-16.668 16.561-43.475 16.726-60.384.459l-.509-.498-22.509-22.519c-16.739-16.831-16.739-44.023.031-60.886l31.843-31.843-.714-.045c-21.809-1.248-44.616 6.57-60.381 22.226l-.561.564c-18.365 18.743-22.468 48.706-13.18 81.751l.136.497c4.137 15.416-.606 31.875-12.318 42.695l-29.42 27.339a16.2 16.2 0 0 1-2.538 2.358" clip-rule="evenodd"/></svg>