<svg xmlns="http://www.w3.org/2000/svg" width="512" height="512" fill="none"><path fill="currentColor" fill-rule="evenodd" d="M115.54 203.79a20.47 20.47 0 0 1 3 10.76 20.5 20.5 0 0 1-6.17 14.76L82.91 258.1a20.65 20.65 0 0 1-14.59 5.9 21 21 0 0 1-14.65-6l-47.5-46.33c-.195-.185-.37-.371-.556-.565l-.014-.015c-7.557-8.119-7.452-20.729.24-28.72l.32-.32 29.45-28.71a20.65 20.65 0 0 1 14.59-5.9h1.09a7.33 7.33 0 0 0 7.71-6.17 27 27 0 0 1 4.7-11.77 222 222 0 0 1 21.51-24.62l.09-.09C96.84 93.58 121.94 72.45 160.31 57a123.1 123.1 0 0 1 46.3-9c27.73 0 48.85 12.41 57 19.77a92 92 0 0 1 9.6 10.36c1.482 1.83 2.509 3.216 2.839 3.66l.051.07a16.001 16.001 0 0 1-16.38 25.06 15.5 15.5 0 0 1-2.15-.63 66 66 0 0 0-7.06-2.13 53 53 0 0 0-15.19-.94c-10.91.9-23.75 6.21-29.44 10.62a35.23 35.23 0 0 0-11.78 16.35 28.45 28.45 0 0 0 4 26.11l24.54 33.84.65.69q.097.137.21.26a33.73 33.73 0 0 1 21.6 9.2l-66.23 61.55a34.23 34.23 0 0 1-7.22-22.12c-23.5-23.46-37-32.67-41.73-35.54-6.37-3.87-10.86-4.52-11.7-4.61h-.06a2.76 2.76 0 0 0-2.62 4.22m388.04-77.59a16.85 16.85 0 0 0-27.07-4.55l-51.15 51.15c-4.341 4.282-11.318 4.282-15.66 0l-22.48-22.48c-4.278-4.347-4.278-11.323 0-15.67l50.88-50.89a16.85 16.85 0 0 0-5.27-27.4c-39.71-17-89.08-7.45-120 23.29-26.81 26.61-34.83 68-22 113.7a11 11 0 0 1-3.16 11.1L114.77 365.1a56.76 56.76 0 1 0 80.14 80.18L357 272.08a11 11 0 0 1 10.9-3.17c45 12 86 4 112.43-22 15.2-15 25.81-36.17 29.89-59.71 3.83-22.2 1.41-44.44-6.64-61m-66.25 252.21c-13.94-11.59-43.72-38.4-74.07-66.22l-66.07 70.61c28.24 30 53.8 57.85 65 70.88l.07.08A30 30 0 0 0 383.72 464h1.1a30.1 30.1 0 0 0 21-8.62l.07-.07 33.43-33.37a29.46 29.46 0 0 0-2-43.53z" clip-rule="evenodd"/></svg>