<svg xmlns="http://www.w3.org/2000/svg" width="513" height="512" fill="none"><path fill="currentColor" fill-rule="evenodd" d="M111.55 199.22C115 202.67 119 207.13 119 212c0 4.86-4 9.56-7.44 13L74.5 262a6.72 6.72 0 0 1-9.5 0L2 199.22a6.79 6.79 0 0 1 0-9.6l37-36.89a18 18 0 0 1 12.91-5.33 18.4 18.4 0 0 1 10.78 3.5c-.07-.33-.07-.68-.07-1-.39-5.5-.97-13.81 4.38-21.34a219.4 219.4 0 0 1 20.89-24.31l.07-.07c11.23-11.1 35.67-32.01 73.11-47.35a117.4 117.4 0 0 1 44.77-8.82c26.59 0 46.81 12.05 54.59 19.2 1.88 1.73 3.6 3.44 5.19 5.1a88.4 88.4 0 0 1 13.4 17.7l-12 19a68.5 68.5 0 0 0-11-4c-1.09-.26-3.92-.9-7.39-1.4a52.7 52.7 0 0 0-11.61-.6c-11.12.92-23.16 4.38-29 9-9.86 8-18.42 20.53-14 36 2 7 8 17.77 31 42.45 4.254-4.187 11.089-4.16 15.31.06l8.25 7.84-65.66 65.17-7.43-7.86c-4.199-4.233-4.261-11.041-.14-15.35-3.449-3.196-8.572-8.039-14.121-13.285-12.627-11.938-27.461-25.963-29.809-27.415-6.49-4.01-11.13-4.78-12.4-4.91a16.16 16.16 0 0 0-9.52 2c-.027.291.067.581.26.8l1.54 1.47zm385.59-87.84-81.09 80.84-48.58-48.41L448.56 63c-45.22-22-108.65-22.09-146.2 15.35-35.32 35.2-39.73 90.61-22.54 134.2L99.57 391.37a12 12 0 0 0 0 17l52.27 52.11a12 12 0 0 0 17 0l180-180.5c43.16 16.21 98 11.64 132.74-23 37.5-37.45 37.42-100.34 15.56-145.6M365.45 308.62l-71.83 72 75.53 79.92a10.883 10.883 0 0 0 15.65.21l60-60.46a11 11 0 0 0-.24-15.69z" clip-rule="evenodd"/></svg>