<svg xmlns="http://www.w3.org/2000/svg" width="512" height="512" fill="none"><path fill="currentColor" fill-rule="evenodd" d="M91.05 68.428c-6.268-5.99-16.204-5.903-22.365.26-6.248 6.249-6.247 16.38.003 22.627L169.398 192H96l-.315.003C86.994 192.171 80 199.269 80 208c0 8.837 7.163 16 16 16h112l.315-.003C217.006 223.829 224 216.731 224 208V96l-.003-.315C223.829 86.994 216.731 80 208 80l-.315.003C198.994 80.171 192 87.269 192 96v73.347L91.312 68.685zM432 304c0-8.837-7.163-16-16-16H304l-.315.003C294.994 288.171 288 295.269 288 304v112l.003.315C288.171 425.006 295.269 432 304 432l.315-.003C313.006 431.829 320 424.731 320 416v-73.347l100.688 100.662.262.257c6.268 5.989 16.204 5.903 22.365-.26 6.248-6.249 6.246-16.38-.003-22.627L342.602 320H416l.315-.003C425.006 319.829 432 312.731 432 304M304 80c8.731 0 15.829 6.994 15.997 15.685L320 96v73.398l100.685-100.71c6.247-6.25 16.378-6.25 22.627-.003 6.163 6.16 6.249 16.097.26 22.365l-.257.262L342.653 192H416c8.731 0 15.829 6.994 15.997 15.685L432 208c0 8.731-6.994 15.829-15.685 15.997L416 224H304c-8.731 0-15.829-6.994-15.997-15.685L288 208V96c0-8.837 7.163-16 16-16m-96 208c8.731 0 15.829 6.994 15.997 15.685L224 304v112c0 8.837-7.163 16-16 16-8.731 0-15.829-6.994-15.997-15.685L192 416v-73.398L91.315 443.312c-6.247 6.249-16.378 6.251-22.627.003-6.163-6.161-6.25-16.097-.26-22.365l.257-.262L169.347 320H96c-8.731 0-15.83-6.994-15.997-15.685L80 304c0-8.731 6.994-15.829 15.685-15.997L96 288z" clip-rule="evenodd"/></svg>