<svg xmlns="http://www.w3.org/2000/svg" width="512" height="513" fill="none"><path fill="currentColor" d="M264.508 107.232c-87.467 0-160 72.533-160 160s72.533 160 160 160h81.066v-32h-81.066c-70.4 0-128-57.6-128-128s57.6-128 128-128 128 57.6 128 128v23.467c0 12.8-10.667 25.6-23.467 25.6s-23.467-12.8-23.467-25.6v-23.467c0-44.8-36.266-81.067-81.066-81.067s-78.934 36.267-78.934 81.067 36.267 81.067 81.067 81.067c21.333 0 42.667-8.534 57.6-23.467 10.667 14.933 27.733 23.467 46.933 23.467 32 0 55.467-25.6 55.467-57.6v-23.467c-2.133-87.467-72.533-160-162.133-160m0 206.933c-25.6 0-49.067-21.333-49.067-46.933s21.333-49.067 49.067-49.067c27.733 0 49.066 21.334 49.066 49.067s-23.466 46.933-49.066 46.933"/></svg>