<svg xmlns="http://www.w3.org/2000/svg" width="512" height="512" fill="none"><path fill="currentColor" fill-rule="evenodd" d="M400 103.954c-.113-39.692-32.262-71.841-71.954-71.954H112l-1.322.015C67.139 32.845 32.129 68.29 32 111.953V328l.013 1.19c.744 39.188 32.646 70.698 71.941 70.81H112v7c0 40.317 32.683 73 73 73h222c40.317 0 73-32.683 73-73V185c0-40.317-32.683-73-73-73h-7.164l.163-7.856zM383.554 144H185c-22.644 0-41 18.356-41 41v222c0 22.644 18.356 41 41 41h222c22.644 0 41-18.356 41-41V185c0-22.644-18.356-41-41-41zM112 368V185c0-40.317 32.683-73 73-73h182.829l.169-8.104-.005-.512c-.41-21.565-17.812-38.967-39.333-39.377L328 64H112.047c-26.238.078-47.539 21.117-48.038 47.208L64 112v215.954c.062 21.87 17.599 39.625 39.34 40.039l.66.007z" clip-rule="evenodd"/></svg>