<svg xmlns="http://www.w3.org/2000/svg" width="512" height="512" fill="none"><path fill="currentColor" fill-rule="evenodd" d="M86.781 36.865c-6.263 1.042-17.004 4.708-21.73 7.418C41.127 58 31.036 84.861 36.408 120.525c6.256 41.524 31.717 91.691 71.218 140.327 9.636 11.865 31.179 35.909 39.789 44.409l6.496 6.412-8.626 4.134c-36.137 17.316-59.643 45.52-67.002 80.394-2.99 14.167-1.44 41.56 2.827 49.996 3.108 6.143 9.956 8.841 16.294 6.422 3.916-1.496 6.058-3.803 11.901-12.819 4.354-6.718 15.48-17.655 21.63-21.262 8.268-4.851 13.684-6.304 25.22-6.769 20.78-.837 34.668 3.45 86.836 26.801 47.701 21.353 72.587 29.859 103.146 35.253 15.286 2.699 46.061 2.936 57.426.444 26.447-5.801 45.197-17.821 57.527-36.882 20.121-31.105 20.905-76.563 2.315-134.219-4.161-12.906-13.493-35.856-26.162-64.334-13.628-30.636-19.171-44.769-22.551-57.495-2.38-8.968-2.745-11.795-2.829-21.952-.098-11.99 1.181-18.354 5.285-26.295 4.403-8.519 13.978-18.23 25.794-26.16 8.495-5.701 10.707-8.694 10.707-14.483 0-3.935-2.824-9.173-5.936-11.012-7.479-4.418-35.786-5.858-51.058-2.597-34.172 7.297-62.637 30.515-80.485 65.648l-5.372 10.576-12.557-12.303c-33.493-32.816-60.926-54.025-97.136-75.1-35.794-20.834-70.398-31.907-98.922-31.655-5.936.052-12.867.44-15.402.861M124.62 65.23c8.564 1.865 26.936 7.816 31.744 10.28l2.801 1.437-15.971 15.952-15.97 15.953L105.67 87.31C93.814 75.462 84.301 65.582 84.529 65.354s2.642-.92 5.364-1.537c6.862-1.556 24.37-.843 34.727 1.413m-38.203 40.824c11.521 11.514 20.948 21.346 20.948 21.849 0 .501-7.159 7.792-15.908 16.2L75.55 159.39l-3.084-7.99c-7.127-18.469-10.256-32.747-10.363-47.282-.068-9.13 1.392-18.998 2.811-18.998.306 0 9.982 9.42 21.503 20.934m123.188-1.568c9.572 6.336 24.324 17.161 29.703 21.795l2.841 2.448-23.782 23.742-23.784 23.741-24.242-24.173-24.242-24.174 19.641-19.088 19.641-19.09 7.317 4.226c4.025 2.324 11.632 7.082 16.907 10.573m190.36 4.025c-5.139 6.299-6.83 8.88-10.341 15.788-5.161 10.15-6.927 17.907-7.009 30.768-.145 22.993 5.466 40.94 29.881 95.558 19.125 42.784 26.404 62.16 31.584 84.061 8.361 35.356 7.635 62.247-2.232 82.644-4.581 9.47-15.255 20.145-24.725 24.725-24.902 12.045-59.669 10.767-104.233-3.833-14.179-4.645-32.687-12.205-62.472-25.519-54.618-24.415-72.565-30.026-95.558-29.881-18.367.117-31.374 4.963-46.549 17.344l-3.52 2.873.547-2.873c1.335-7.005 6.071-17.889 10.971-25.216 16.021-23.951 45.586-41.47 80.433-47.665 10.771-1.914 33.382-2.563 45.425-1.303 46.12 4.827 88.584 25.672 127.508 62.593 4.152 3.94 8.399 7.61 9.436 8.156s3.996.994 6.576.994c7.538 0 11.842-4.624 11.819-12.694-.014-4.79-1.104-6.359-14.874-21.402-32.805-35.84-52.063-76.803-56.845-120.911-1.546-14.255-.561-37.098 2.162-50.183 8.993-43.213 34.559-75.86 66.978-85.53 3.563-1.062 6.801-1.952 7.197-1.977.397-.026-.575 1.541-2.159 3.483m-113.092 60.816c14.072 14.384 14.932 15.452 14.496 18.003-.255 1.491-.943 6.084-1.527 10.206l-1.063 7.495-18.854 18.839-18.853 18.838-23.958-23.956-23.956-23.958 24.55-24.561 24.549-24.561 4.829 4.182c2.655 2.3 11.559 11.064 19.787 19.473m-135.689 1.494 23.538 23.527-23.877 23.887-23.876 23.888-5.749-7.474c-9.553-12.422-17.83-24.382-25.561-36.94l-7.342-11.923 19.232-19.245c10.577-10.585 19.426-19.246 19.665-19.246.238 0 11.024 10.587 23.97 23.526m72.011 110.637-18.887 18.887-7.237 1.121c-3.981.617-8.5 1.396-10.045 1.735-2.749.601-3.221.198-22.237-18.949-10.685-10.759-19.428-20.053-19.428-20.652s10.895-11.938 24.21-25.199l24.209-24.11 24.15 24.14 24.152 24.14zm77.065-25.713c1.344 9.364 5.111 26.366 7.063 31.877.336.95-5.555-4.39-13.093-11.867l-13.703-13.594 8.609-8.643c4.735-4.753 8.824-8.641 9.087-8.641s1.179 4.891 2.037 10.868m-13.264 52.023c-.478.159-2.716-.315-4.974-1.054-8.014-2.622-20.679-5.156-35.138-7.034l-4.263-.553 9.444-8.923 9.444-8.922 13.177 13.099c7.247 7.203 12.786 13.228 12.31 13.387" clip-rule="evenodd"/></svg>