<svg xmlns="http://www.w3.org/2000/svg" width="513" height="512" fill="none"><path fill="currentColor" d="M357.103 16.125c8.015 3.883 10.395 10.521 10.27 19.163-.376 16.032-.125 32.19-.125 48.221 0 11.022-5.762 16.658-16.784 16.784-25.049 0-49.974.125-75.024-.126-3.632 0-4.759.877-4.634 4.635.25 20.29.125 40.58 0 60.871 0 3.131.626 4.258 3.883 4.634 10.521 1.002 20.916 3.256 31.061 6.513 2.881 1.002 4.008-.877 5.511-2.255 29.684-29.558 59.243-59.242 88.802-88.801l4.008-4.008c6.763-6.513 14.779-6.638 21.543 0 8.016 7.89 15.906 15.906 23.922 23.797l41.082 41.082c8.642 8.642 8.642 15.781-.125 24.549l-35.446 35.445c-8.016 7.891-15.531 7.891-23.547-.125-17.534-17.535-35.195-35.07-52.604-52.73-2.63-2.63-4.008-3.131-6.889-.251-10.771 11.148-21.793 22.044-32.815 32.816-2.38 2.254-3.131 3.382.501 5.511 42.459 25.801 69.263 63.125 78.03 111.972 16.032 89.929-43.336 170.339-125.875 188.375-89.303 19.414-175.975-37.449-195.013-126.126-14.529-67.76 16.533-138.275 76.527-173.72 3.883-2.38 3.758-3.382.752-6.388a1350 1350 0 0 1-32.816-32.815c-2.379-2.38-3.632-2.13-5.886.125a10316 10316 0 0 1-52.354 52.354c-9.269 9.269-16.158 9.269-25.551-.125-10.772-10.772-21.668-21.668-32.565-32.44-3.131-3.006-6.012-6.262-8.141-9.894v-8.392c2.004-2.505 3.507-5.386 5.887-7.64 21.542-21.418 43.085-43.086 64.628-64.503 7.765-7.64 15.406-7.64 23.171 0 9.143 9.143 18.286 18.286 27.555 27.429 21.543 21.543 43.086 43.086 64.503 64.629 2.129 2.254 4.008 2.755 6.889 1.753 9.394-3.131 18.913-5.135 28.682-6.012 3.632-.376 4.759-1.503 4.759-5.386-.125-43.712 0-87.423-.25-131.135 0-8.517 2.63-14.404 10.396-17.911 34.694.125 69.388.125 104.082.125M215.446 330c.501 14.279.877 25.927 1.753 37.7.251 3.507 1.378 4.635 4.635 4.76 8.892.376 17.785 1.002 26.678 1.252 14.528.501 29.057-.25 43.461-1.252 2.255-.125 4.008-.501 4.258-3.632 2.13-24.048 2.004-47.971 0-72.019-.25-2.505-1.127-3.131-3.381-3.256-6.638-.376-13.402-1.127-20.04-1.378-17.535-.877-34.945-.25-52.354 1.378-2.129.25-2.881.877-3.006 3.006-.752 12.024-1.503 24.048-2.004 33.441m75.775-66.382c-3.256-15.781-7.64-31.688-15.53-46.592-2.881-5.386-6.012-10.521-10.521-14.78-6.137-5.761-10.897-5.761-17.034.126-3.883 3.757-6.764 8.141-9.394 12.775-7.891 14.278-12.274 29.809-15.906 45.716-.877 3.632.125 4.258 3.381 3.883 12.275-1.378 24.674-1.002 36.949-1.002 9.393-.126 18.662-.126 28.055-.126m33.943 96.818v1.628c-.125 5.511-.125 5.511 5.135 4.384 12.65-2.881 25.05-6.388 36.823-11.899 8.142-3.757 16.032-7.89 21.794-15.03 4.133-5.135 4.133-8.767-.125-13.777-3.758-4.509-8.517-7.765-13.527-10.646-14.404-8.016-30.06-12.65-46.092-16.283-3.507-.751-4.258-.25-4.008 3.257 1.253 19.539 1.628 38.827 0 58.366m-136.647-54.984c0-1.503-.125-3.132 0-4.635.126-1.753-.375-2.63-2.379-2.129-18.412 4.259-36.573 9.143-52.605 19.664-3.632 2.38-7.014 5.261-9.644 8.768q-4.321 5.823 0 11.648c2.505 3.382 5.761 6.137 9.268 8.517 16.032 10.646 34.068 15.656 52.48 19.789 3.757.877 2.88-1.628 2.755-3.507-1.127-19.539-1.628-38.827.125-58.115m36.323 95.565c-2.631-.126-2.756 0-2.255 2.379 3.507 16.784 8.266 33.191 16.783 48.221 2.756 4.885 6.012 9.519 10.396 13.151 5.261 4.134 8.642 4.134 13.777.126 3.132-2.38 5.511-5.511 7.641-8.768 10.646-16.157 15.656-34.443 19.789-52.98.501-2.38-.501-2.255-2.129-2.129-21.293 1.628-42.71 1.753-64.002 0m158.44-22.044c-19.289 8.767-39.579 14.028-60.245 17.785-2.38.376-2.255 2.129-2.63 3.758-3.633 19.664-8.643 38.827-17.285 56.988-.376.626-.751 1.378.376 2.255 38.326-15.156 65.004-41.834 79.784-80.786m-253.004-.626c5.01 29.433 52.104 76.527 80.536 80.785-.126-.501 0-1.002-.251-1.377-8.893-18.162-13.777-37.575-17.41-57.365-.375-2.379-1.127-3.381-3.632-3.882-9.644-1.754-19.163-3.883-28.682-6.513-10.395-3.006-20.541-6.889-30.561-11.648m0-91.683c19.038-8.391 38.828-13.902 59.118-17.409 2.254-.376 3.256-1.503 3.757-4.008 3.507-19.79 8.643-39.203 17.41-57.49.125-.375 0-.876-.125-2.004-38.827 15.406-65.505 42.084-80.16 80.911m253.254.752c-9.268-33.692-55.861-79.784-80.66-80.661 0 .251-.126.627 0 .877 8.767 18.412 14.028 37.825 17.535 57.865.501 2.505 1.753 3.257 3.882 3.758 6.889 1.377 13.778 2.755 20.541 4.383 13.151 3.132 25.801 7.641 38.702 13.778M70.282 178.198c.752-.627 1.378-1.128 1.879-1.754 14.654-14.654 29.308-29.308 44.088-43.962 1.628-1.629 1.503-2.631-.126-4.134-5.135-5.01-10.27-10.019-15.155-15.28-1.753-1.879-2.88-1.378-4.509.125a7046 7046 0 0 1-43.336 43.336c-1.628 1.629-2.13 2.631-.25 4.509 5.135 5.01 10.145 10.146 15.28 15.156.626.876 1.378 1.377 2.13 2.004m392.03-19.164c-.626-.751-1.127-1.377-1.628-1.878-14.655-14.654-29.309-29.309-43.963-44.088-1.628-1.628-2.63-1.378-4.133.125-5.01 5.136-10.02 10.271-15.281 15.155-2.004 1.879-1.377 2.881.251 4.509a7054 7054 0 0 1 43.336 43.337c1.628 1.628 2.63 2.254 4.509.25 4.885-5.26 10.145-10.145 15.155-15.28.627-.627 1.128-1.378 1.754-2.13m-158.19-87.423c10.271 0 20.541-.126 30.811 0 2.881 0 3.758-.877 3.758-3.758a542 542 0 0 1 0-20.165c.125-2.88-.877-3.758-3.632-3.632-20.291.125-40.581.125-60.746 0-2.63 0-3.507.751-3.382 3.382.125 6.638.251 13.401 0 20.165-.125 3.006.752 4.008 3.883 4.008 9.644-.126 19.414 0 29.308 0"/></svg>