<svg xmlns="http://www.w3.org/2000/svg" width="512" height="512" fill="none"><path fill="currentColor" fill-rule="evenodd" d="M459.94 53.25a16.06 16.06 0 0 0-23.22-.56L424.35 65a8 8 0 0 0 0 11.31l11.34 11.32a8 8 0 0 0 11.34 0l12.06-12c6.1-6.09 6.67-16.01.85-22.38M271.48 112c8.837 0 16 7.164 16 16 0 8.732-6.994 15.83-15.685 15.997l-.315.003H104c-13.122 0-23.785 10.532-23.997 23.603L80 168v240c0 13.123 10.531 23.785 23.603 23.997L104 432h240a24 24 0 0 0 23.996-23.546L368 408V224c0-8.836 7.163-16 16-16 8.731 0 15.829 6.994 15.997 15.685L400 224v184a56 56 0 0 1-55.355 55.997L344 464H104c-30.619 0-55.498-24.573-55.992-55.074L48 408V168c0-30.618 24.573-55.498 55.074-55.992L104 112zm-52.66 158.2L399.34 90a9 9 0 0 1 12.71 0l9.95 10a9 9 0 0 1 0 12.66L241.8 293.2a9 9 0 0 1-3.93 2.31l-24.85 8.35a3.908 3.908 0 0 1-4.86-4.86l8.35-24.87a9 9 0 0 1 2.31-3.93" clip-rule="evenodd"/></svg>