<svg xmlns="http://www.w3.org/2000/svg" width="512" height="512" fill="none"><path fill="currentColor" fill-rule="evenodd" d="M459.94 53.25a16.06 16.06 0 0 0-23.22-.56L424.35 65a8 8 0 0 0 0 11.31l11.34 11.32a8 8 0 0 0 11.34 0l12.06-12c6.1-6.09 6.67-16.01.85-22.38M399.34 90 218.82 270.2a9 9 0 0 0-2.31 3.93L208.16 299a3.91 3.91 0 0 0 4.86 4.86l24.85-8.35a9 9 0 0 0 3.93-2.31L422 112.66a9 9 0 0 0 0-12.66l-9.95-10a9 9 0 0 0-12.71 0M264.45 315.79l121.89-122.13a8 8 0 0 1 13.66 5.65V408c0 30.928-25.072 56-56 56H104c-30.928 0-56-25.072-56-56V168c0-30.928 25.072-56 56-56h208.69a8 8 0 0 1 5.65 13.66L196.21 247.57a41.1 41.1 0 0 0-10.19 16.87l-8.67 25.9a35.921 35.921 0 0 0 44.33 44.33l25.9-8.67a41.1 41.1 0 0 0 16.87-10.21" clip-rule="evenodd"/></svg>