<svg xmlns="http://www.w3.org/2000/svg" width="512" height="512" fill="none"><path fill="currentColor" fill-rule="evenodd" d="M159.997 47.685C159.829 38.994 152.731 32 144 32c-8.837 0-16 7.163-16 16v80H48l-.315.003C38.994 128.171 32 135.269 32 144c0 8.837 7.163 16 16 16h80v160l.009 1.058C128.574 355.916 157.007 384 192 384h160v80l.003.315C352.171 473.006 359.269 480 368 480c8.837 0 16-7.163 16-16v-80h80l.315-.003C473.006 383.829 480 376.731 480 368c0-8.837-7.163-16-16-16H192l-.529-.004C174.042 351.713 160 337.496 160 320V48zm223.994 143.257C383.426 156.084 354.993 128 320 128H208l-.315.003C198.994 128.171 192 135.269 192 144c0 8.837 7.163 16 16 16h112l.529.004C337.958 160.287 352 174.504 352 192v112l.003.315C352.171 313.006 359.269 320 368 320c8.837 0 16-7.163 16-16V192z" clip-rule="evenodd"/></svg>