<svg xmlns="http://www.w3.org/2000/svg" width="512" height="512" fill="none"><path fill="currentColor" fill-rule="evenodd" d="M192 346h266c12.15 0 22 9.85 22 22s-9.85 22-22 22h-68v68c0 12.15-9.85 22-22 22s-22-9.85-22-22v-68H192c-38.642-.044-69.956-31.358-70-70V166H54c-12.15 0-22-9.85-22-22s9.85-22 22-22h68V54c0-12.15 9.85-22 22-22s22 9.85 22 22v266c0 14.359 11.641 26 26 26m128-180H214c-12.15 0-22-9.85-22-22s9.85-22 22-22h106c38.642.044 69.956 31.358 70 70v106c0 12.15-9.85 22-22 22s-22-9.85-22-22V192c0-14.359-11.641-26-26-26" clip-rule="evenodd"/></svg>