<svg xmlns="http://www.w3.org/2000/svg" width="512" height="512" fill="none"><path fill="currentColor" fill-rule="evenodd" d="M71.835 129.175 223.82 40.713a63.94 63.94 0 0 1 64.338-.002l152.007 88.464A48.01 48.01 0 0 1 464 170.61v170.76a48 48 0 0 1-23.822 41.459L288.17 471.293a63.96 63.96 0 0 1-31.026 8.657 17 17 0 0 1-2.296-.001 64 64 0 0 1-31.006-8.66L71.835 382.824A48 48 0 0 1 48 341.37V170.59a48 48 0 0 1 23.835-41.415M272 443.679l.082-.048 151.983-88.45A16 16 0 0 0 432 341.37V179.023l-160 94.118zm-32-170.538v170.526l-.07-.04-151.992-88.456A16 16 0 0 1 80 341.36V179.023zm32.06-204.774 143.233 83.358L256 245.427 96.706 151.725 239.92 68.368a31.94 31.94 0 0 1 32.141 0" clip-rule="evenodd"/></svg>