<svg xmlns="http://www.w3.org/2000/svg" width="512" height="512" fill="none"><path fill="currentColor" fill-rule="evenodd" d="M440.9 136.3a4 4 0 0 0 0-6.91L288.16 40.65a64.14 64.14 0 0 0-64.33 0L71.12 129.39a4 4 0 0 0 0 6.91L254 243.88a4 4 0 0 0 4.06 0zM54 163.51a4.002 4.002 0 0 0-6 3.49v173.89a48 48 0 0 0 23.84 41.39L234 479.51a4 4 0 0 0 6-3.46V274.3a4 4 0 0 0-2-3.46zM272 476V275a4 4 0 0 1 2-3.45l184-108a4 4 0 0 1 6 3.45v173.89a48 48 0 0 1-23.85 41.34L278 479.46a4 4 0 0 1-6-3.46" clip-rule="evenodd"/></svg>