<svg xmlns="http://www.w3.org/2000/svg" width="512" height="512" fill="none"><path fill="currentColor" fill-rule="evenodd" d="M149.24 208.34A71.64 71.64 0 0 1 104.48 224c-30.49-.001-57.673-19.206-67.86-47.944-10.187-28.737-1.169-60.775 22.513-79.98 23.681-19.203 56.891-21.409 82.905-5.506 26.013 15.904 39.189 46.468 32.892 76.3l41.17 24.94-14.22 14.42a39 39 0 0 0-4.32 6.37l-6.82 12.63zM144.48 152c0-22.091-17.908-40-40-40s-40 17.909-40 40 17.909 40 40 40 40-17.909 40-40M481 169l-5.52-12.58c-4.48-10.42-14.74-16-32.78-17.85-10.12-1-26.95-1.24-49.69 3.81-20 4.45-122.14 28.2-164.95 58.62-20.25 14.39-24.06 33.67-27.06 49.16-2.78 14.14-5 25.31-18 35-15 11.14-27.27 16.38-33.58 18.6-27.557-21.878-66.913-20.541-92.922 3.156-26.01 23.696-30.994 62.758-11.77 92.227 19.225 29.47 56.985 40.647 89.153 26.391s49.249-49.738 40.329-83.774zm-224.52 87c-8.836 0-16-7.163-16-16s7.164-16 16-16 16 7.163 16 16a16.003 16.003 0 0 1-16 16m-192 104c0 22.091 17.909 40 40 40s40-17.909 40-40-17.908-40-40-40-40 17.909-40 40m196.57-51.95 83.74-48.18L481 336l-20.25 14c-6.75 4-17.75 9.31-38.44 9.34-3.31 0-6.89-.11-10.78-.34-50.771-2.999-100.493-27.062-119.209-36.12l-.021-.01-3.62-1.74z" clip-rule="evenodd"/></svg>