<svg xmlns="http://www.w3.org/2000/svg" width="512" height="512" fill="none"><path fill="currentColor" fill-rule="evenodd" d="M106 80c-39.764 0-72 32.235-72 72s32.236 72 72 72c16.923 0 32.482-5.838 44.773-15.611l41.507 16.827 6.805-12.625c.093-.174.323-.582.657-1.145l.103-.174c.657-1.1 1.36-2.194 2.046-3.156l.305-.419c.493-.668.913-1.176 1.181-1.447l14.26-14.421-41.175-24.955A72.3 72.3 0 0 0 178 152c0-39.765-32.235-72-72-72m0 32c22.091 0 40 17.909 40 40s-17.909 40-40 40-40-17.909-40-40 17.909-40 40-40m0 176c-39.764 0-72 32.236-72 72s32.236 72 72 72 72-32.236 72-72a72 72 0 0 0-2.321-18.202L481.772 169.22l-4.782-12.813c-7.043-18.877-42.282-22.72-81.278-14.285l-1.182.259-2.77.62c-22.356 5.047-49.348 12.092-74.79 20.056l-2.298.723c-37.383 11.825-66.704 24.157-85.099 37.227-9.336 6.631-15.831 14.752-20.178 24.524-2.921 6.563-4.375 11.939-6.453 22.286l-1.282 6.438a143 143 0 0 1-.91 4.19c-2.91 12.504-7.007 19.814-16.291 26.711-10.149 7.53-19.764 12.959-28.488 16.634a89 89 0 0 1-5.035 1.951C138.62 293.89 122.998 288 106 288m0 32c22.091 0 40 17.909 40 40s-17.909 40-40 40-40-17.909-40-40 17.909-40 40-40m199.33-88.037 107.144-60.409-.398.061c-3.445.534-6.989 1.2-10.605 2.004l-2.671.598c-21.567 4.87-47.743 11.701-72.27 19.379l-1.062.333c-12.328 3.879-23.699 7.809-33.918 11.743 7.101 6.941 12.057 16.067 13.78 26.291m-15.179 89.167-27.642-13.092 83.8-48.159 136.729 75.417-20.775 14.75c-11.554 8.203-26.449 10.152-47.685 9.012l-1.528-.086c-26.463-1.574-54.124-8.742-82.599-19.866-8.559-3.343-16.749-6.874-25.024-10.7a600 600 0 0 1-7.181-3.381zm108.41 4.115-51.93-28.644-14.81 8.511 1.746.737q3.166 1.326 6.379 2.603l2.15.848c19.213 7.506 37.853 12.968 55.523 15.798zM258 224c8.837 0 16 7.163 16 16s-7.163 16-16 16-16-7.163-16-16 7.163-16 16-16" clip-rule="evenodd"/></svg>