<svg xmlns="http://www.w3.org/2000/svg" width="512" height="512" fill="none"><path fill="currentColor" fill-rule="evenodd" d="M79 114c0-19.33 15.67-35 35-35h89c19.33 0 35 15.67 35 35v124c0 19.33-15.67 35-35 35h-89c-19.33 0-35-15.67-35-35zm35-1h89c.201 0 .306.034.379.065.095.04.213.113.328.228s.188.233.228.328A.9.9 0 0 1 204 114v124a.9.9 0 0 1-.065.379c-.04.095-.113.213-.228.328a1.1 1.1 0 0 1-.328.228.9.9 0 0 1-.379.065h-89a.9.9 0 0 1-.379-.065 1.1 1.1 0 0 1-.328-.228 1.1 1.1 0 0 1-.228-.328A.9.9 0 0 1 113 238V114c0-.201.034-.306.065-.379.04-.095.113-.213.228-.328s.233-.188.328-.228A.9.9 0 0 1 114 113M273 273c0-19.33 15.67-35 35-35h89c19.33 0 35 15.67 35 35v124c0 19.33-15.67 35-35 35h-89c-19.33 0-35-15.67-35-35zm35-1h89c.201 0 .306.034.379.065.095.04.213.113.328.228s.188.233.228.328A.9.9 0 0 1 398 273v124a.9.9 0 0 1-.065.379c-.04.095-.113.213-.228.328a1.1 1.1 0 0 1-.328.228.9.9 0 0 1-.379.065h-89a.9.9 0 0 1-.379-.065 1.1 1.1 0 0 1-.328-.228 1.1 1.1 0 0 1-.228-.328A.9.9 0 0 1 307 397V273c0-.201.034-.306.065-.379.04-.095.113-.213.228-.328s.233-.188.328-.228A.9.9 0 0 1 308 272M114 309c-19.33 0-35 15.67-35 35v53c0 19.33 15.67 35 35 35h89c19.33 0 35-15.67 35-35v-53c0-19.33-15.67-35-35-35zm89 34h-89a.9.9 0 0 0-.379.065c-.095.04-.213.113-.328.228a1.1 1.1 0 0 0-.228.328.9.9 0 0 0-.065.379v53c0 .201.034.306.065.379.04.095.113.213.228.328s.233.188.328.228A.9.9 0 0 0 114 398h89a.9.9 0 0 0 .379-.065c.095-.04.213-.113.328-.228s.188-.233.228-.328A.9.9 0 0 0 204 397v-53a.9.9 0 0 0-.065-.379 1.1 1.1 0 0 0-.228-.328 1.1 1.1 0 0 0-.328-.228A.9.9 0 0 0 203 343M273 114c0-19.33 15.67-35 35-35h89c19.33 0 35 15.67 35 35v53c0 19.33-15.67 35-35 35h-89c-19.33 0-35-15.67-35-35zm35-1h89c.201 0 .306.034.379.065.095.04.213.113.328.228s.188.233.228.328A.9.9 0 0 1 398 114v53a.9.9 0 0 1-.065.379c-.04.095-.113.213-.228.328a1.1 1.1 0 0 1-.328.228.9.9 0 0 1-.379.065h-89a.9.9 0 0 1-.379-.065 1.1 1.1 0 0 1-.328-.228 1.1 1.1 0 0 1-.228-.328A.9.9 0 0 1 307 167v-53c0-.201.034-.306.065-.379.04-.095.113-.213.228-.328s.233-.188.328-.228A.9.9 0 0 1 308 113" clip-rule="evenodd"/></svg>