<svg xmlns="http://www.w3.org/2000/svg" width="512" height="512" fill="none"><path fill="currentColor" fill-rule="evenodd" d="M448 48c26.498.028 47.972 21.502 48 48v192H16V96c.028-26.498 21.502-47.972 48-48zM16 352c.028 26.498 21.502 47.972 48 48h133.88l-4 32H144c-8.837 0-16 7.163-16 16s7.163 16 16 16h224c8.837 0 16-7.163 16-16s-7.163-16-16-16h-49.88l-4-32H448c26.498-.028 47.972-21.502 48-48v-48H16zm240-16c8.837 0 16 7.163 16 16s-7.163 16-16 16-16-7.163-16-16 7.163-16 16-16" clip-rule="evenodd"/></svg>