<svg xmlns="http://www.w3.org/2000/svg" width="512" height="512" fill="none"><path fill="currentColor" fill-rule="evenodd" d="M448 48H64c-26.51 0-48 21.49-48 48v256c0 26.51 21.49 48 48 48h133.876l-4 32H144l-.315.003C134.994 432.171 128 439.269 128 448c0 8.837 7.163 16 16 16h224l.315-.003C377.006 463.829 384 456.731 384 448c0-8.837-7.163-16-16-16h-49.875l-4-32H448c26.51 0 48-21.49 48-48V96c0-26.51-21.49-48-48-48M281.875 400l4 32h-59.751l4-32zM464 304H48V96c0-8.837 7.163-16 16-16h384c8.837 0 16 7.163 16 16zm-208 64c-8.837 0-16-7.163-16-16s7.163-16 16-16 16 7.163 16 16-7.163 16-16 16" clip-rule="evenodd"/></svg>