<svg xmlns="http://www.w3.org/2000/svg" width="512" height="512" fill="none" viewBox="0 0 347 416"><path fill="currentColor" fill-rule="evenodd" d="m38.95 1.986-7.137 1.86-6.263 3.766-6.263 3.763-5.484 5.958-5.483 5.959-3.053 6.504-3.054 6.505-1.106 5.83L0 47.963v320.076l1.107 5.83 1.106 5.831 3.054 6.505 3.053 6.504 5.483 5.959 5.484 5.958 6.263 3.764 6.263 3.764 7.137 1.861 7.136 1.861 150.457.062L347 416V0L196.543.063 46.086.125zM312.3 173.333V312l-132.565.026-132.565.026-3.795.889-3.795.891-2.44.782-2.44.782V48.891l1.157-3.05 1.156-3.05 2.368-2.574 2.367-2.577 3.254-1.444 3.253-1.445 132.022-.042 132.023-.042zM88.578 154.409 69.4 204.816v37.851h34.7v-17.334h34.7v17.334h34.7v-37.915l-20.17-50.376L133.159 104h-25.402zm135.612-14.635-4.071 1.027-5.559 2.814-5.559 2.815-5.342 5.336-5.342 5.337-3.462 7.303-3.463 7.302v37.917l3.463 7.303 3.462 7.302 5.493 5.489 5.494 5.488 7.31 3.459 7.309 3.459h20.864l7.773-3.983 7.771-3.985 5.832 2.667 5.831 2.667 7.411 1.569 7.412 1.569 4.067.019 4.066.019v-34.364l-6.048-.624-6.048-.623-2.507-1.642-2.508-1.641-.41-16.032-.41-16.033-3.443-7.302-3.443-7.303-5.493-5.488-5.494-5.488-7.04-3.291-7.039-3.291-8.403-.399-8.403-.4zm-98.021 39.796 3.956 10.029v1.068h-18.324l1.422-3.521 1.423-3.521 2.988-7.942 2.989-7.943.794.901.796.901zm114.069-3.577 2.662 2.658v24.031l-2.662 2.658-2.661 2.66h-6.704l-2.661-2.66-2.662-2.658v-24.031l2.662-2.658 2.661-2.66h6.704zM312.3 364v17.333H48.727l-3.54-1.477-3.54-1.478-2.888-3.429-2.888-3.43-.707-3.759-.706-3.76.706-3.76.707-3.759 2.885-3.426 2.885-3.425 3.306-1.439 3.308-1.44 132.022-.042 132.023-.042z" clip-rule="evenodd"/></svg>