<svg xmlns="http://www.w3.org/2000/svg" width="512" height="512" fill="none"><path fill="currentColor" fill-rule="evenodd" d="M414.39 97.61C357.896 40.558 275.188 18.105 197.6 38.758 120.011 59.411 59.411 120.012 38.758 197.6s1.8 160.296 58.852 216.79c56.493 57.053 139.201 79.505 216.79 58.852 77.588-20.653 138.188-81.254 158.842-158.842 20.653-77.588-1.8-160.296-58.852-216.79M256 336c-44.183 0-80-35.817-80-80s35.817-80 80-80 80 35.817 80 80c-.05 44.162-35.838 79.95-80 80m32-80c0 17.673-14.327 32-32 32s-32-14.327-32-32 14.327-32 32-32 32 14.327 32 32" clip-rule="evenodd"/></svg>