<svg xmlns="http://www.w3.org/2000/svg" width="512" height="512" fill="none"><path fill="currentColor" fill-rule="evenodd" d="M32 256C32 132.288 132.288 32 256 32s224 100.288 224 224-100.288 224-224 224S32 379.712 32 256m416 0c0-106.039-85.961-192-192-192S64 149.961 64 256s85.961 192 192 192 192-85.961 192-192m-304 0c0-61.856 50.144-112 112-112s112 50.144 112 112-50.144 112-112 112-112-50.144-112-112m192 0c0-44.183-35.817-80-80-80s-80 35.817-80 80 35.817 80 80 80 80-35.817 80-80m-48 0c0 17.673-14.327 32-32 32s-32-14.327-32-32 14.327-32 32-32 32 14.327 32 32" clip-rule="evenodd"/></svg>