<svg xmlns="http://www.w3.org/2000/svg" width="512" height="512" fill="none"><path fill="currentColor" fill-rule="evenodd" d="M272 240a8 8 0 0 0 8 8h184v228c0 6.627-5.373 12-12 12H140c-6.627 0-12-5.373-12-12V327.66c-46.81-3.9-80-42.02-80-93.53V152h32v82.13c0 17.45 5.47 33.23 15.41 44.46C105.5 290 119.53 296 136 296s30.5-6 40.59-17.41c9.94-11.23 15.41-27.01 15.41-44.46V95.38c0-9.23-2.31-39.38-32-39.38-23.59 0-32 20.66-32 40v144c0 6.56 5.77 8 8 8a7.75 7.75 0 0 0 8-8V88h32v152a39.58 39.58 0 0 1-11.587 28.413A39.58 39.58 0 0 1 136 280c-19.66 0-40-15-40-40V96c0-42.39 26.32-72 64-72 19.59 0 36.72 7.88 48.25 22.19a65.5 65.5 0 0 1 6.5 9.81H272zm182.31-24H308a4 4 0 0 1-4-4V65.69a2 2 0 0 1 3.41-1.42l148.32 148.32a2 2 0 0 1-1.42 3.41" clip-rule="evenodd"/></svg>