<svg xmlns="http://www.w3.org/2000/svg" width="512" height="512" fill="none"><path fill="currentColor" fill-rule="evenodd" d="M242.75 32H144c-35.346 0-64 28.654-64 64v320c0 35.346 28.654 64 64 64h224c35.346 0 64-28.654 64-64V221.25a48 48 0 0 0-14.055-33.932L276.684 46.056A48 48 0 0 0 242.75 32M240 64h-96c-17.673 0-32 14.327-32 32v320c0 17.673 14.327 32 32 32h224c17.673 0 32-14.327 32-32V224H288c-26.245 0-47.57-21.063-47.994-47.206L240 176zm137.373 128L272 86.627V176c0 8.731 6.994 15.829 15.685 15.997L288 192z" clip-rule="evenodd"/></svg>