<svg xmlns="http://www.w3.org/2000/svg" width="512" height="512" fill="none"><path fill="currentColor" fill-rule="evenodd" d="M328 108c.185 24.223 19.777 43.815 44 44h91.99v188c0 33.08-26.44 60-58.95 60h-53.05V264.14a41.1 41.1 0 0 0-11.83-29L231 124.14A40.8 40.8 0 0 0 202.12 112H160V76c.039-33.121 26.879-59.961 60-60h108zm44 12h70.39a4.002 4.002 0 0 0 2.86-6.8l-78.4-79.72a4 4 0 0 0-6.85 2.81V108c0 6.627 5.373 12 12 12M184 236a43.67 43.67 0 0 0 13 31 43.6 43.6 0 0 0 31 13h92v152c0 35.346-28.654 64-64 64H112c-35.346 0-64-28.654-64-64V208c.104-35.303 28.697-63.896 64-64h72zm118.081 9.551A4 4 0 0 1 298.39 248H228c-6.627 0-12-5.373-12-12v-71.71a4 4 0 0 1 6.85-2.81l78.4 79.72a4 4 0 0 1 .831 4.351" clip-rule="evenodd"/></svg>