<svg xmlns="http://www.w3.org/2000/svg" width="513" height="512" fill="none"><path fill="currentColor" fill-rule="evenodd" d="M144.801 32h98.75a48 48 0 0 1 33.933 14.056l141.262 141.262a48 48 0 0 1 14.055 33.932V416c0 35.346-28.654 64-64 64h-224c-35.346 0-64-28.654-64-64V96c0-35.346 28.654-64 64-64m0 32h96v112l.006.794c.424 26.143 21.749 47.206 47.994 47.206h112v192c0 17.673-14.327 32-32 32h-224c-17.673 0-32-14.327-32-32V96c0-17.673 14.327-32 32-32m128 22.627L378.173 192h-89.372l-.315-.003c-8.691-.168-15.685-7.266-15.685-15.997zM178.325 297q10.843 0 18.833 3.657 7.989 3.543 12.327 10.286 4.337 6.629 4.337 15.657t-4.337 15.657q-4.338 6.629-12.327 10.286-7.99 3.543-18.833 3.543H164.4V377h-22.599v-80zm-1.37 41.257q6.963 0 10.501-2.971 3.538-3.086 3.538-8.686t-3.538-8.686q-3.538-3.085-10.501-3.085H164.4v23.428zM224.841 297h37.78q13.125 0 23.284 4.914t15.751 13.943T307.249 337t-5.593 21.143-15.751 13.943Q275.746 377 262.621 377h-37.78zm36.867 61.943q10.272 0 16.436-5.829 6.277-5.828 6.277-16.114t-6.277-16.114q-6.164-5.829-16.436-5.829H247.44v43.886zm80.03-26.857v-17.6h40.063V297h-62.662v80h22.599v-27.429h35.269v-17.485z" clip-rule="evenodd"/></svg>