<svg xmlns="http://www.w3.org/2000/svg" width="512" height="512" fill="none"><path fill="currentColor" fill-rule="evenodd" d="M314.022 16a40.86 40.86 0 0 1 28.596 11.743l.4.399 109.125 110.974a41.1 41.1 0 0 1 11.853 28.315L464 168v172c0 32.774-25.656 59.461-57.969 59.992l-.981.008H352v36c0 33.105-26.177 60-58.95 60H107c-32.812 0-59-26.884-59-60V171.906c.194-33.004 26.902-59.712 60-59.906h52V75.906c.192-32.674 26.37-59.178 59.009-59.892L220 16h94.022M296 48h-75.906c-15.324.09-27.753 12.366-28.088 27.54L192 76v36h10.144a40.54 40.54 0 0 1 28.874 12.142l109.181 111.031A41.4 41.4 0 0 1 352 263.978V368h53.05c14.754 0 26.709-12.131 26.946-27.532L432 340V184h-92l-.191-.001c-23.834-.284-43.131-19.347-43.794-43.087l-.014-.721zm123.933 104h-79.782l-.268-.006c-6.455-.236-11.641-5.422-11.877-11.877l-.006-.231V58.509zM184 144h-75.906c-15.478.09-28.004 12.616-28.094 28v264c0 15.628 12.052 28 27 28h186.05c14.903 0 26.95-12.377 26.95-28V280h-92l-.191-.001c-23.834-.284-43.131-19.347-43.794-43.087l-.014-.721zm123.933 104L216 154.509v81.377l.006.231c.236 6.455 5.422 11.641 11.877 11.877l.268.006z" clip-rule="evenodd"/></svg>