<svg xmlns="http://www.w3.org/2000/svg" width="513" height="512" fill="none"><path fill="currentColor" d="M238.927 165.479c5.777-.015 11.555-.031 17.333-.031q25.572-.021 51.167.064c4.173 0 8.197-.448 11.74-2.945a16.26 16.26 0 0 0 6.297-18.038 16.06 16.06 0 0 0-5.775-8.484 16.06 16.06 0 0 0-9.733-3.256c-10.517-.05-21.035-.034-31.549-.017h-.009c-5.253.008-10.505.017-15.756.017h-58.403c-7.845 0-13.811 4.045-16.234 10.747-4.024 11.132 3.746 21.774 16.255 21.912 11.556.093 23.111.062 34.667.031M135.648 203.639c3.126-.019 6.255-.038 9.378.019 9.99.224 17.184 7.012 17.312 16.245.128 8.986-6.703 16.169-16.49 16.522s-19.905.362-29.885 0c-9.733-.353-16.703-7.674-16.49-16.544.214-9.264 7.376-16.009 17.366-16.212 3.225-.058 6.434-.042 9.64-.026h.009q2.236.013 4.471.015 2.34-.002 4.684-.019zM126.153 307.587c1.612-.013 3.224-.026 4.835-.026q2.238.008 4.477.026c3.196.023 6.39.047 9.569-.004 9.798-.214 16.906-6.842 17.269-15.839s-6.35-16.437-16.084-16.853a351 351 0 0 0-30.696 0c-9.488.416-16.234 7.781-16.01 16.511.224 9.094 7.279 15.871 16.97 16.159 3.224.079 6.447.052 9.67.026M135.831 132.767h.002c3.318-.021 6.64-.043 9.97.021 9.286.214 16.362 7.141 16.554 16.01a16.06 16.06 0 0 1-4.531 11.62 16.08 16.08 0 0 1-11.478 4.881 540 540 0 0 1-31.123 0 16.084 16.084 0 0 1-15.743-16.309 16.435 16.435 0 0 1 16.447-16.202c3.315-.106 6.63-.071 9.948-.035h.002c1.66.018 3.32.035 4.982.035 1.656 0 3.313-.01 4.97-.021M125.844 378.537c1.603-.011 3.205-.022 4.813-.022 1.611 0 3.22.01 4.825.02 3.382.021 6.752.042 10.117-.03 9.542-.235 16.672-7.375 16.714-16.298.043-8.923-6.799-16.031-16.212-16.287a597 597 0 0 0-30.269 0c-9.414.181-16.351 7.321-16.351 16.191-.032 9.051 7.161 16.18 16.682 16.404 3.259.064 6.472.043 9.681.022"/><path fill="currentColor" fill-rule="evenodd" d="m450.854 166.304.005.005c6.659 6.67 13.319 13.339 19.993 19.995 2.258 2.248 2.98 5.003 3.714 7.798l.084.322.151.568v7.674c-.555 4.803-3.394 8.218-6.682 11.495-9.081 9.054-18.147 18.124-27.213 27.193-16.069 16.075-32.137 32.15-48.288 48.137a16.97 16.97 0 0 0-5.411 13.182c.08 19.624.064 39.25.048 58.876v.012c-.02 24.743-.04 49.487.133 74.227a34.17 34.17 0 0 1-10.024 24.506 34.15 34.15 0 0 1-24.525 9.979H70.813c-11.357 0-20.226-4.643-27.366-13.278-3.928-4.76-4.91-10.417-5.646-16.212V70.426a28.99 28.99 0 0 1 10.043-20.888A33.5 33.5 0 0 1 67.846 41h284.961c16.607 0 28.775 9.21 33.556 25.071a27.5 27.5 0 0 1 .95 8.016v47.378c0 2.565 0 3.827.56 4.167.543.33 1.61-.204 3.709-1.254 7.141-3.522 14.367-2.743 20.077 2.882 13.128 12.938 26.159 25.989 39.191 39.04l.002.002zm-321.99 270.178q110.104-.096 220.186.096c3.81.01 4.675-.94 4.622-4.633-.179-9.291-.149-18.583-.119-27.875.011-3.516.023-7.032.023-10.548v-65.746a9214 9214 0 0 1-8.829 8.702l-.016.016c-7.856 7.736-15.528 15.293-23.121 22.917a26.2 26.2 0 0 1-12.669 7.332c-6.263 1.54-12.513 3.229-18.763 4.918a1333 1333 0 0 1-11.677 3.119l-6.111 1.595-.009.002c-14.291 3.73-28.585 7.462-42.912 11.03a13.2 13.2 0 0 1-14.185-4.761c-2.69-3.628-5.582-4.568-9.606-4.151a18.5 18.5 0 0 1-3.831-.086 16.27 16.27 0 0 1-14.751-16.426 15.904 15.904 0 0 1 15.049-16.009 96 96 0 0 1 11.09-.118c2.54.107 3.703-.608 4.354-3.255a939 939 0 0 1 8.443-32.094c.832-2.914-.256-2.967-2.498-2.967-6.542.096-13.085.149-19.628 0-7.641-.171-13.512-4.291-15.849-10.791-4.045-11.335 3.864-21.816 16.735-22.008 10.951-.171 21.912-.096 32.863 0a7.04 7.04 0 0 0 5.614-2.305c3.254-3.357 6.574-6.652 9.892-9.944l.001-.002c1.83-1.816 3.659-3.631 5.476-5.455 6.35-6.381 12.68-12.772 19.115-19.269l.003-.003.681-.687c-1.306-.678-2.531-.6-3.698-.526a17 17 0 0 1-1.062.045h-66.569a39.6 39.6 0 0 1-6.403-.405 15.34 15.34 0 0 1-12.712-10.609c-3.992-11.26 4.173-21.848 16.981-21.848q51.839-.128 103.689 0a7.48 7.48 0 0 0 5.924-2.412 5047 5047 0 0 1 36.555-36.46 7.46 7.46 0 0 0 2.498-5.912 8379 8379 0 0 1 0-80.22c.01-3.073-.587-4.034-3.896-4.034q-137.62.14-275.228 0c-3.138 0-4.056.662-4.056 3.938q.118 177.078 0 354.156c0 2.999.822 3.757 3.79 3.757 13.492-.103 27.015-.089 40.497-.074h.059q7.039.009 14.058.01m140.168-93.156q3.062-.822 6.075-1.622c-4.158-4.158-8.222-8.231-12.311-12.329l-6.282-6.295q-.772 2.9-1.547 5.788c-1.464 5.465-2.923 10.911-4.312 16.38a6 6 0 0 1-.203.596v.001c-.403 1.079-.957 2.562 1.526 1.943 5.736-1.432 11.448-2.961 17.054-4.462m40.933-18.773a23011 23011 0 0 1 83.475-83.624c2.113-2.113 1.707-3.106-.182-4.867-10.438-10.268-20.834-20.589-31.037-31.08-2.231-2.284-3.277-1.815-5.23.17-6.821 6.933-13.714 13.782-20.608 20.631l-.001.001a6269 6269 0 0 0-8.956 8.912l-53.781 53.579-.169.161-.216.202c-1.183 1.103-2.12 1.977-.192 3.906 7.937 7.767 15.779 15.629 23.623 23.493l.025.025q4.486 4.5 8.98 8.992c.414.376.864.752 1.539 1.315l.006.005.974.815a16.4 16.4 0 0 1 1.75-2.636M420.87 213.381c4.013-4.226 8.068-8.389 12.338-12.38 1.782-1.697 1.633-2.658-.043-4.387-7.435-7.337-14.817-14.732-22.198-22.126a8500 8500 0 0 0-9.491-9.498c-.39-.398-.8-.777-1.251-1.194l-.002-.002-.002-.002-.182-.168-.155-.144-.371-.348q-.71.494-1.356 1.068a1651 1651 0 0 0-4.781 4.762l-.008.009c-3.031 3.026-6.062 6.054-9.139 9.04-1.467 1.421-.596 2.176.259 2.917.165.144.33.287.477.434q5.696 5.717 11.402 11.434c6.846 6.862 13.693 13.724 20.5 20.585 1.569 1.623 2.498 1.58 4.003 0" clip-rule="evenodd"/></svg>