<svg xmlns="http://www.w3.org/2000/svg" width="512" height="512" fill="none"><path fill="currentColor" fill-rule="evenodd" d="M214.784 48C204.241 28.411 185.138 16 160 16c-39.395 0-64 31.022-64 72v144l.005.691C96.369 255.421 114.614 272 136 272l.343.002a39.7 39.7 0 0 0 28.034-11.625l.389-.394a39.7 39.7 0 0 0 11.236-27.64L176 232V80l-.003-.315C175.829 70.994 168.731 64 160 64c-8.837 0-16 7.163-16 16l-.001 152.521a7.69 7.69 0 0 1-7.788 7.48l-.465-.004c-4.378-.119-7.746-3.304-7.746-7.997V88l.003-.659c.114-11.822 3.282-21.98 8.746-28.87C142.16 51.65 149.782 48 160 48c20.037 0 32 14.855 32 39.38v138.75l-.007 1.086C191.546 262.931 169.02 288 136 288c-33.357 0-56-25.572-56-61.87V144l-.003-.315C79.829 134.994 72.731 128 64 128c-8.837 0-16 7.163-16 16v82.13l.01 1.591c.675 49.622 32.874 88.039 79.99 91.951V432l.009 1.058C128.574 467.916 157.007 496 192 496h208l1.058-.009C435.916 495.426 464 466.993 464 432V237.25l-.004-.606a48 48 0 0 0-14.051-33.326L308.684 62.056l-.431-.425A48 48 0 0 0 274.75 48zm8.942 32q.229 3.035.267 6.157L224 87.38v138.75c0 44.511-25.275 80.298-64 90.761V432c0 17.496 14.042 31.713 31.471 31.996L192 464h208c17.496 0 31.713-14.042 31.996-31.471L432 432V240H320c-26.245 0-47.57-21.063-47.994-47.206L272 192V80zM304 102.627 409.373 208H320l-.315-.003C310.994 207.829 304 200.731 304 192z" clip-rule="evenodd"/></svg>