<svg xmlns="http://www.w3.org/2000/svg" width="512" height="512" fill="none"><path fill="currentColor" fill-rule="evenodd" d="M328 140c0 6.627 5.373 12 12 12h124v236c0 6.627-5.373 12-12 12H351.99V264.14a41.1 41.1 0 0 0-11.83-29L231 124.14A40.8 40.8 0 0 0 202.12 112H160V28c0-6.627 5.373-12 12-12h156zm38-20h85.94L360 26.52V114a6 6 0 0 0 6 6m-182 24v124c0 6.627 5.373 12 12 12h124v204c0 6.627-5.373 12-12 12H60c-6.627 0-12-5.373-12-12V156c0-6.627 5.373-12 12-12zm32 10.52L307.94 248H222a6 6 0 0 1-6-6z" clip-rule="evenodd"/></svg>