<svg xmlns="http://www.w3.org/2000/svg" width="512" height="512" fill="none"><path fill="currentColor" fill-rule="evenodd" d="M320 240h140a4 4 0 0 1 4 4v188c0 35.346-28.654 64-64 64H192c-35.346 0-64-28.654-64-64V319.66c-46.81-3.9-80-42.02-80-93.53V144c0-8.837 7.163-16 16-16s16 7.163 16 16v82.13c0 17.45 5.47 33.23 15.41 44.46C105.5 282 119.53 288 136 288s30.5-6 40.59-17.41c9.94-11.23 15.41-27.01 15.41-44.46V87.38c0-9.23-2.31-39.38-32-39.38-23.59 0-32 20.66-32 40v144c0 6.56 5.77 8 8 8a7.75 7.75 0 0 0 8-8V80c0-8.837 7.163-16 16-16s16 7.163 16 16v152a39.58 39.58 0 0 1-11.587 28.413A39.58 39.58 0 0 1 136 272c-19.66 0-40-15-40-40V88c0-42.39 26.32-72 64-72 19.59 0 36.72 7.88 48.25 22.19a65.5 65.5 0 0 1 6.5 9.81H268a4 4 0 0 1 4 4v140c0 26.51 21.49 48 48 48m129.81-32H320c-8.837 0-16-7.163-16-16V62.19a2 2 0 0 1 3.41-1.41l143.81 143.81a2 2 0 0 1-1.41 3.41" clip-rule="evenodd"/></svg>