<svg xmlns="http://www.w3.org/2000/svg" width="256" height="256" fill="none"><path fill="currentColor" fill-rule="evenodd" d="M107.515 47.515c4.686-4.687 12.284-4.687 16.97 0 4.638 4.638 4.686 12.128.144 16.824l-.144.146L60.971 128l63.514 63.515c4.638 4.638 4.686 12.128.144 16.824l-.144.146c-4.638 4.638-12.128 4.686-16.824.144l-.146-.144-72-72c-4.638-4.638-4.686-12.128-.144-16.824l.144-.146z" clip-rule="evenodd"/><path fill="currentColor" fill-rule="evenodd" d="M203.515 47.515c4.686-4.687 12.284-4.687 16.97 0 4.638 4.638 4.686 12.128.144 16.824l-.144.146L156.97 128l63.515 63.515c4.638 4.638 4.686 12.128.144 16.824l-.144.146c-4.638 4.638-12.128 4.686-16.824.144l-.146-.144-72-72c-4.638-4.638-4.686-12.128-.144-16.824l.144-.146z" clip-rule="evenodd"/></svg>