<svg xmlns="http://www.w3.org/2000/svg" width="256" height="256" fill="none"><path fill="currentColor" fill-rule="evenodd" d="M148.485 208.485c-4.686 4.687-12.284 4.687-16.97 0-4.638-4.638-4.686-12.128-.144-16.824l.144-.146L195.03 128l-63.515-63.515c-4.638-4.638-4.686-12.128-.144-16.824l.144-.146c4.638-4.638 12.128-4.686 16.824-.144l.146.144 72 72c4.638 4.638 4.686 12.128.144 16.824l-.144.146z" clip-rule="evenodd"/><path fill="currentColor" fill-rule="evenodd" d="M52.485 208.485c-4.686 4.687-12.284 4.687-16.97 0-4.638-4.638-4.686-12.128-.144-16.824l.144-.146L99.03 128 35.515 64.485c-4.638-4.638-4.686-12.128-.144-16.824l.144-.146c4.638-4.638 12.128-4.686 16.824-.144l.146.144 72 72c4.638 4.638 4.686 12.128.144 16.824l-.144.146z" clip-rule="evenodd"/></svg>