<svg xmlns="http://www.w3.org/2000/svg" width="512" height="512" fill="none"><path fill="currentColor" fill-rule="evenodd" d="M256 32c8.837 0 16 7.163 16 16v112h-32V48c0-8.837 7.163-16 16-16m-16 128H136c-30.914.033-55.967 25.086-56 56v208c.033 30.914 25.086 55.967 56 56h240c30.914-.033 55.967-25.086 56-56V216c-.033-30.914-25.086-55.967-56-56H272v153.37l52.69-52.68c6.291-5.976 16.198-5.85 22.334.286s6.262 16.043.286 22.334l-80 80c-6.248 6.243-16.372 6.243-22.62 0l-80-80c-5.976-6.291-5.85-16.199.286-22.334 6.136-6.136 16.043-6.262 22.334-.286L240 313.37z" clip-rule="evenodd"/></svg>