<svg xmlns="http://www.w3.org/2000/svg" width="512" height="512" fill="none"><path fill="currentColor" fill-rule="evenodd" d="M271.997 47.685C271.829 38.994 264.731 32 256 32c-8.837 0-16 7.163-16 16v265.373l-52.686-52.687-.263-.256c-6.266-5.991-16.203-5.905-22.365.256-6.248 6.249-6.248 16.379 0 22.628l80 80 .263.256c6.266 5.991 16.203 5.905 22.365-.256l80-80 .256-.263c5.991-6.266 5.905-16.203-.256-22.365-6.249-6.248-16.379-6.248-22.628 0L272 313.373V48zM176 160c8.837 0 16 7.163 16 16 0 8.731-6.994 15.829-15.685 15.997L176 192h-40c-13.122 0-23.785 10.531-23.997 23.603L112 216v208c0 13.122 10.531 23.785 23.603 23.997L136 448h240c13.122 0 23.785-10.531 23.997-23.603L400 424V216c0-13.122-10.531-23.785-23.603-23.997L376 192h-40c-8.837 0-16-7.163-16-16 0-8.731 6.994-15.829 15.685-15.997L336 160h40c30.619 0 55.498 24.573 55.992 55.074L432 216v208c0 30.619-24.573 55.498-55.074 55.992L376 480H136c-30.619 0-55.498-24.573-55.993-55.074L80 424V216c0-30.619 24.573-55.498 55.074-55.992L136 160z" clip-rule="evenodd"/></svg>