<svg xmlns="http://www.w3.org/2000/svg" width="512" height="512" fill="none"><path fill="currentColor" fill-rule="evenodd" d="M112.678 36.603c-18.42 2.843-37.003 12.33-50.42 25.741-11.651 11.649-19.797 26.054-24.152 42.714-2.759 10.555-2.818 31.799-.115 41.711 4.76 17.456 12.638 31.433 24.268 43.06 11.63 11.626 25.612 19.5 43.074 24.258 9.944 2.71 31.165 2.644 41.784-.13 4.262-1.112 8.184-2.189 8.715-2.393 1.488-.571 8.825 9.694 12.419 17.373 4.122 8.809 5.987 17.252 5.987 27.111s-1.865 18.302-5.987 27.111c-3.594 7.679-10.931 17.943-12.419 17.372-.531-.204-4.453-1.28-8.715-2.393-10.619-2.773-31.84-2.84-41.784-.13-34.472 9.393-58.408 33.239-67.226 66.972-2.76 10.555-2.818 31.799-.116 41.711 4.76 17.457 12.638 31.433 24.268 43.06 11.63 11.626 25.612 19.5 43.074 24.259 9.916 2.701 31.167 2.643 41.727-.116 33.776-8.822 57.59-32.71 66.995-67.203 2.711-9.939 2.645-31.153-.13-41.769-1.113-4.26-2.19-8.18-2.394-8.711-.571-1.488 9.697-8.822 17.379-12.415 8.812-4.121 17.258-5.985 27.121-5.985s18.308 1.864 27.12 5.985c7.682 3.593 17.95 10.927 17.379 12.415-.204.531-1.281 4.451-2.394 8.711-2.774 10.616-2.841 31.83-.13 41.769 4.76 17.457 12.637 31.433 24.267 43.06 11.631 11.626 25.613 19.5 43.075 24.259 9.916 2.701 31.167 2.643 41.726-.116 33.776-8.822 57.55-32.667 67.003-67.203 2.564-9.367 2.564-31.998 0-41.365-4.764-17.402-12.532-31.233-24.071-42.857-11.787-11.873-26.034-19.958-42.874-24.33-11.206-2.909-31-2.908-42.188.005-4.262 1.109-8.184 2.183-8.715 2.387-1.488.571-8.825-9.693-12.418-17.372-4.123-8.809-5.988-17.252-5.988-27.111s1.865-18.302 5.988-27.111c3.593-7.679 10.93-17.944 12.418-17.373.531.204 4.453 1.278 8.715 2.387 11.171 2.909 30.992 2.916 42.13.015 33.745-8.787 57.55-32.66 67.003-67.197 2.564-9.367 2.564-31.998 0-41.365-4.835-17.665-12.695-31.528-24.565-43.33-11.835-11.767-25.519-19.471-42.38-23.863-10.625-2.768-31.852-2.831-41.784-.125-34.474 9.394-58.439 33.27-67.221 66.972-2.901 11.134-2.894 30.948.015 42.115 1.11 4.26 2.184 8.181 2.388 8.712.571 1.487-9.697 8.822-17.379 12.414-8.812 4.121-17.258 5.985-27.12 5.985s-18.309-1.864-27.121-5.985c-7.682-3.592-17.95-10.927-17.379-12.414.204-.531 1.281-4.452 2.394-8.712 2.775-10.616 2.841-31.829.13-41.769-4.806-17.625-12.683-31.523-24.558-43.33-11.752-11.684-25.63-19.53-41.949-23.716-8.376-2.148-26.434-3.057-34.87-1.755m25.984 26.284c12.9 2.663 23.692 8.523 32.925 17.878 11.764 11.918 17.677 25.13 18.766 41.937.923 14.232 1.387 14.293-15.084-1.977-7.907-7.809-15.938-14.991-17.846-15.959-6.717-3.406-13.088-4.722-21.035-4.341-6.334.303-8.428.817-13.917 3.424-8.529 4.049-14.643 10.161-18.694 18.686-5.271 11.098-4.757 24.687 1.341 35.396 1.212 2.131 8.379 10.114 15.925 17.742 10.59 10.704 13.395 13.994 12.293 14.416-2.616 1.004-13.332.564-20.047-.822-34.802-7.186-57.556-41.404-50.479-75.911 7.135-34.783 41.401-57.583 75.852-50.47m260.015 0c12.899 2.663 23.692 8.523 32.925 17.878 8.458 8.568 13.906 17.948 17.027 29.314 1.831 6.666 2.036 23.964.364 30.639-6.133 24.494-25.802 43.507-50.221 48.549-6.715 1.386-17.431 1.826-20.047.822-1.101-.422 1.704-3.712 12.294-14.416 7.545-7.628 14.712-15.611 15.924-17.742 3.701-6.498 5.166-13.107 4.766-21.484-.302-6.32-.82-8.427-3.407-13.874-4.123-8.679-9.996-14.587-18.526-18.636-5.687-2.701-7.724-3.207-14.102-3.512-8.38-.4-14.992 1.065-21.492 4.764-2.131 1.211-10.117 8.376-17.748 15.919-10.708 10.586-13.999 13.39-14.422 12.289-1-2.607-.566-13.317.813-20.041 7.134-34.783 41.401-57.583 75.852-50.47m-254.844 64.119c1.332.506 14.628 13.021 29.544 27.811 15.205 15.077 29.315 28.32 32.116 30.141 7.554 4.912 19.967 10.451 28.152 12.563 9.316 2.403 26.622 3.244 35.966 1.747 12.883-2.063 25.873-7.11 37.14-14.431 2.646-1.721 17.017-15.229 31.933-30.02 14.917-14.79 28.212-27.305 29.545-27.811 10.852-4.117 21.007 6.035 16.889 16.884-.506 1.332-13.025 14.622-27.821 29.533-15.082 15.2-28.33 29.305-30.152 32.105-5.114 7.86-10.624 20.233-12.747 28.624-2.817 11.135-2.817 32.657 0 43.791 2.123 8.392 7.633 20.765 12.747 28.624 1.822 2.8 15.07 16.905 30.152 32.105 14.796 14.911 27.315 28.201 27.821 29.534 4.118 10.847-6.013 20.979-16.889 16.892-1.333-.501-14.241-12.637-28.684-26.969s-27.809-27.223-29.703-28.646c-9.862-7.411-22.8-13.127-35.752-15.796-11.561-2.383-29.058-2.021-40.407.835-8.016 2.016-20.444 7.578-28.19 12.615-2.801 1.821-16.911 15.065-32.116 30.141-14.916 14.79-28.212 27.305-29.544 27.812-10.853 4.116-21.008-6.035-16.89-16.884.506-1.333 13.026-14.623 27.821-29.534s28.281-29.241 29.967-31.845c7.368-11.38 12.452-24.422 14.5-37.204 1.497-9.341.656-26.64-1.748-35.953-2.112-8.182-7.654-20.59-12.567-28.142-1.822-2.8-15.07-16.905-30.152-32.105-14.795-14.911-27.315-28.201-27.821-29.533-4.118-10.849 6.037-21.001 16.89-16.884m103.157 91.535c-7.249 1.813-12.676 4.91-18.142 10.353-15.278 15.215-15.268 39.017.024 54.303 22.248 22.239 59.858 10.125 65.198-21 2.093-12.202-1.838-24.241-10.881-33.322-9.709-9.751-23.169-13.593-36.199-10.334m15.09 26.329c3.82 1.949 6.865 6.907 6.865 11.178 0 6.578-6.365 12.91-12.978 12.91-4.004 0-9.324-3.347-11.218-7.06-3.179-6.23-1.184-13.032 4.904-16.716 4.123-2.495 7.958-2.591 12.427-.312m-128.744 77.136c1.102.422-1.703 3.712-12.293 14.416-7.546 7.628-14.713 15.612-15.925 17.742-3.701 6.498-5.166 13.107-4.766 21.484.303 6.331.818 8.424 3.425 13.912 4.051 8.526 10.165 14.637 18.694 18.687 10.795 5.124 23.707 4.785 34.952-.918 1.908-.968 9.939-8.149 17.846-15.959 16.471-16.269 16.007-16.208 15.084-1.977-1.072 16.55-6.935 29.844-18.317 41.535-25.491 26.184-66.754 26.06-92.207-.277-35.398-36.629-16.747-97.073 33.28-107.85 5.865-1.263 17.785-1.732 20.227-.795m265.436.823c24.419 5.042 44.088 24.055 50.221 48.548 1.672 6.676 1.467 23.973-.364 30.639-6.597 24.027-25.814 42.208-49.857 47.173-34.466 7.117-68.748-15.66-75.937-50.451-1.387-6.712-1.827-17.424-.823-20.04.423-1.101 3.714 1.703 14.422 12.29 7.631 7.543 15.617 14.707 17.748 15.919 6.5 3.699 13.112 5.164 21.492 4.763 14.353-.686 26.277-8.78 32.628-22.148 5.253-11.058 4.73-24.665-1.359-35.358-1.212-2.13-8.386-10.122-15.942-17.76-8.854-8.949-13.326-14.05-12.579-14.348 2.449-.975 14.009-.537 20.35.773" clip-rule="evenodd"/></svg>