<svg xmlns="http://www.w3.org/2000/svg" width="512" height="512" fill="none"><path fill="currentColor" fill-rule="evenodd" d="M328 32c30.5.037 57.679 19.256 67.88 48H160c-44.183 0-80 35.817-80 80v235.88C51.256 385.679 32.037 358.5 32 328V104c0-39.764 32.236-72 72-72zm80 80H184c-39.765 0-72 32.235-72 72v224c0 39.764 32.235 72 72 72h224c39.764 0 72-32.236 72-72V184c0-39.765-32.236-72-72-72m-32.45 200H312v63.55c0 8.61-6.62 16-15.23 16.43A16 16 0 0 1 280 376v-64h-63.55c-8.61 0-16-6.62-16.43-15.23A16 16 0 0 1 216 280h64v-63.55c0-8.61 6.62-16 15.23-16.43A16 16 0 0 1 312 216v64h64a16 16 0 0 1 16 16.77c-.42 8.61-7.84 15.23-16.45 15.23" clip-rule="evenodd"/></svg>