<svg xmlns="http://www.w3.org/2000/svg" width="512" height="512" fill="none"><path fill="currentColor" fill-rule="evenodd" d="M256 33C132.293 33 32 133.293 32 257s100.293 224 224 224 224-100.293 224-224S379.707 33 256 33m188.127 185.445A192.8 192.8 0 0 1 448 257c0 25.543-4.989 49.922-14.045 72.215a67 67 0 0 0-.605-5.775c-.615-4-2.045-7.884-3.468-11.749-1.634-4.434-3.258-8.845-3.632-13.381-.276-3.382-.361-6.618-.442-9.745-.301-11.491-.563-21.513-10.138-31.905-11.76-12.75-29-15.81-45.47-13.22l-.156.024c-8.554 1.341-41.471 6.499-28.144-12.354 1.468-2.066 3.543-3.927 5.609-5.779 1.664-1.491 3.322-2.977 4.651-4.561 1.055-1.259 2.053-2.947 3.072-4.669 1.482-2.506 3.006-5.083 4.808-6.511 3.04-2.41 17-5.18 21-3.95 2.541.781 5.151 3.395 7.606 5.854 1.41 1.412 2.768 2.772 4.034 3.706a49.9 49.9 0 0 0 21.81 9.36c7.743 1.134 20.274-.927 29.637-6.115m-11.338-36.467q-.568.82-1.124 1.64c-4.696 6.908-9.059 13.325-20.585 5.272-2.536-1.768-4.738-3.809-6.911-5.823-4.193-3.886-8.273-7.669-14.419-9.177-7.044-1.729-14.237-.409-21.257.878-1.102.202-2.2.403-3.293.592-1.303.225-2.64.432-3.995.642l-.001.001c-8.165 1.265-16.992 2.634-22.944 8.577-3.217 3.197-5.707 6.919-8.215 10.666-2.724 4.07-5.468 8.171-9.185 11.664-13.81 13-19.64 27.19-10.7 45.57 8.6 17.67 26.59 27.26 46 26 4.107-.274 8.249-1.001 12.214-1.698 14.445-2.538 26.548-4.664 26.116 17.078-.2 9.8 1.85 16.6 4.86 25.71 2.197 6.613 2.546 13.065 2.908 19.741v.002c.097 1.804.196 3.623.332 5.467.714 9.801 2.087 20.319 4.84 30.268C372.291 420.058 317.523 449 256 449c-10.886 0-21.56-.906-31.952-2.647q.032-.803.06-1.578c.075-2.097.144-4.006.362-5.445 2.43-15.9 10.39-31.45 21.13-43.35 4.39-4.858 9.453-9.066 14.515-13.274 7.172-5.962 14.342-11.923 19.595-19.726 8.73-12.98 11.36-30.49 7.74-45.68-3.734-15.719-19.813-24.107-34.761-31.905-6.391-3.334-12.575-6.56-17.499-10.205-2.458-1.821-4.845-3.899-7.251-5.993l-.001-.001c-6.844-5.958-13.836-12.045-23.018-12.696-2.177-.156-4.22-.073-6.228.009-3.267.132-6.44.261-9.952-.649-1.64-.423-3.168-.99-4.667-1.547-3.252-1.208-6.36-2.363-10.153-1.863-4.548.598-8.358 3.068-12.144 5.523-4.831 3.131-9.622 6.238-15.856 5.397-10.55-1.42-21.42-13.76-23.82-23.81-3.08-12.92 7.14-17.11 18.09-18.26 4.57-.48 9.7-1 14.09.67 3.208 1.193 5.476 3.468 7.747 5.744 1.821 1.826 3.643 3.653 5.953 4.926 9.73 5.33 11.7-3.19 10.21-11.83a270 270 0 0 0-.719-3.949l-.001-.005-.001-.005v-.002c-1.907-10.169-2.855-15.226 7.431-23.159q.716-.548 1.416-1.081l.013-.01c7.364-5.607 13.334-10.152 12.131-20.519-.25-2.133-.803-3.881-1.313-5.497-1.041-3.293-1.907-6.036.313-10.363 2.462-4.815 9.136-9.169 13.628-12.099l.262-.171c3.435-2.241 9.196-3.768 15.197-5.359 14.245-3.777 29.844-7.913 18.903-22.801-4.57-6.21-13-17.31-21-18.83-6.8-1.285-11.029 3.463-15.23 8.181-1.978 2.221-3.949 4.434-6.18 6.009-7.2 5.09-21.22 10.87-28.43 3-6.455-7.047-1.472-10.945 3.636-14.943 2.569-2.01 5.17-4.044 6.364-6.517 1.652-3.42.004-8.248-2.871-12.8a191 191 0 0 1 10.981-4.216c2.332 1.627 4.922 2.785 8.01 2.986 2.256.152 4.469-.16 6.635-.464 4.257-.598 8.334-1.172 12.205 1.844 1.7 1.312 3.276 2.715 4.831 4.1 4.37 3.894 8.576 7.64 14.919 8.79 8.32 1.51 17.13-3.35 19.19-11.86 1.224-4.964.085-10.193-1.044-15.37l-.077-.354-.074-.342c39.006.262 75.251 12.157 105.438 32.389-2.066-.937-4.599-.926-7.743.537-6.07 2.82-14.67 10-15.38 17.12-.81 8.08 11.11 9.22 16.77 9.22 8.49 0 17.11-3.8 14.37-13.62-1.243-4.447-2.958-9.098-5.778-11.734a193 193 0 0 1 18.396 14.431 27 27 0 0 0-.338.343c-1.686 1.756-3.452 3.406-5.205 5.043-4.236 3.957-8.398 7.844-11.185 13.007-2.78 5.13-5.91 7.58-11.54 8.91-.667.157-1.354.293-2.048.43-2.531.5-5.151 1.017-7.192 2.65-7.24 5.7-3.12 19.39 3.74 23.51 8.67 5.19 21.53 2.75 28.07-4.66 1.415-1.606 2.669-3.539 3.937-5.495 3.314-5.109 6.727-10.372 13.373-10.365a15.4 15.4 0 0 1 10.82 4.41c2.881 2.979 3.147 5.821 3.46 9.164.099 1.067.204 2.186.4 3.376 1.437 8.773 9.203 4.013 13.888-.464a191 191 0 0 1 9.221 18.772M64 257c0 83.849 53.758 155.15 128.686 181.314l-.086-.334a305 305 0 0 1-7.45-41.28 266 266 0 0 1-.529-5.202c-.969-10.185-1.94-20.394-9.551-28.158-3.329-3.435-7.228-5.952-11.076-8.434-6.233-4.021-12.33-7.955-15.644-15.566-3.452-7.934-2.985-16.645-2.52-25.328.53-9.878 1.057-19.72-4.19-28.342-5.264-8.653-13.684-11.907-22.083-15.154-9.326-3.605-18.627-7.201-23.557-18.166-3.764-8.324-8.402-15.974-13.018-23.587-4.378-7.223-8.737-14.412-12.311-22.114C66.32 222.696 64 239.577 64 257m28.174-80.667c-1.495-4.144-2.954-8.192-4.727-11.349 13.023-23.804 30.943-44.549 52.404-60.878a41.52 41.52 0 0 0 8.679 28.974c2.041 2.626 4.497 4.638 6.859 6.573 4.501 3.687 8.659 7.093 8.941 13.927.42 10-1.14 15.12-7.68 22.15-1.344 1.424-2.5 3.133-3.653 4.835-1.275 1.883-2.544 3.759-4.057 5.235l-.483.471c-1.293 1.26-1.836 1.789-2.487 2.064-.471.198-.999.263-1.909.375-.686.084-1.59.195-2.851.41-8.648 1.461-16.223 3.584-24.313 5.851-1.601.449-3.223.903-4.877 1.359-11.489 3.175-15.795-8.765-19.846-19.997m144.281 184.953c6.759-5.288 13.723-10.736 17.605-17.666 6.3-11.25 3.4-18.16-6.46-23.62-12.73-6.98-25.24-14.03-36.6-23.14-.846-.676-1.643-1.35-2.417-2.006h-.001v-.001c-3.18-2.692-5.996-5.076-10.402-5.993-3.45-.72-14.89-2.73-17.66-2.11-2.296.507-2.999.116-3.197.005a.4.4 0 0 0-.048-.024q-.01-.004-.016-.001c-.01.007-.007.035-.001.096.028.261.118 1.117-.508 3.414-.84 3.097-.224 7.757.361 12.192l.001.001c.376 2.854.741 5.615.698 7.807-.019 1.057-.17 2.454-.336 3.997-.437 4.065-.984 9.145.466 11.703 1.168 2.12 4.877 4.169 8.184 5.994v.001h.002l.001.001c1.76.972 3.406 1.881 4.493 2.704a61.17 61.17 0 0 1 21.71 29.95c.243.752.481 2.304.758 4.113.599 3.916 1.383 9.039 2.812 9.887 2.188 1.296 5.521-2.87 8.035-6.012v-.001c.841-1.051 1.591-1.988 2.175-2.567 3.032-3.004 6.658-5.84 10.345-8.724" clip-rule="evenodd"/></svg>