<svg xmlns="http://www.w3.org/2000/svg" width="512" height="512" fill="none"><path fill="currentColor" fill-rule="evenodd" d="M256 32C132.3 32 32 132.3 32 256s100.3 224 224 224 224-100.3 224-224S379.7 32 256 32m140.96 342.3v-35.05a5.54 5.54 0 0 0-2.85-4.83l-23.26-12.87a5.53 5.53 0 0 1-2.85-4.75l-.27-23.49a5.55 5.55 0 0 0-2.92-4.8l-57.89-30.9a5.51 5.51 0 0 1-2.92-4.87V211a5.52 5.52 0 0 1 2.46-4.64l44.15-29.43a5.5 5.5 0 0 1 3.06-.93h35.8a5.5 5.5 0 0 1 2.84.79l22.38 13.42a5.5 5.5 0 0 0 2.84.79h10.638a183 183 0 0 0-15.157-31H351.66a4 4 0 0 1-2.83-1.17l-12-12a4 4 0 0 1 0-5.66l12-12a4 4 0 0 1 2.83-1.17h14.93a4 4 0 0 0 2.51-.89l9.882-7.987a184 184 0 0 0-12.153-10.012L354.23 120.06a4 4 0 0 1-4.74.38l-10.46-6.54a4 4 0 0 1-1.49-5.11l6.797-14.218a183.4 183.4 0 0 0-77.012-22.228L269 80l-21 12-24-12h-21.98a183 183 0 0 0-13.005 4.523 3.8 3.8 0 0 1-1.275 1.647L177 94.08a3.802 3.802 0 0 0-.1 6l13.22 10.45a3.78 3.78 0 0 0 4 .41L222 97a3.83 3.83 0 0 1 3.83.22l20.48 13.62A3.8 3.8 0 0 1 248 114v11.4a3.79 3.79 0 0 1-2.46 3.55l-20.43 7.67a3.75 3.75 0 0 0-1.78 1.38l-14.6 21.02a3.8 3.8 0 0 0-.68 2.17v12.5a3.79 3.79 0 0 1-2.05 3.37l-27.47 14.14a4 4 0 0 0-2 2.47l-6.89 24.5a8 8 0 0 1-7.7 5.83h-32.37a3.78 3.78 0 0 0-2.68 1.11l-8.42 8.42a3.79 3.79 0 0 0 2.68 6.47h53.19a4 4 0 0 1 2.83 1.17l13.72 13.72a3.78 3.78 0 0 0 2.68 1.11h29.1c.865 0 1.708.281 2.4.8l61.33 46a4 4 0 0 1 1.55 3.2v59.96a4 4 0 0 1-1.69 3.27l-45 31.9a4 4 0 0 0-1.6 2.42l-7.529 34.901c31.152 4.093 63.622.252 94.31-12.462 28.104-11.643 52.001-29.604 70.519-51.689m-208.534 52.839L176.31 369.6a4 4 0 0 0-1.65-2.48l-29.3-20.14a3.82 3.82 0 0 1-1.61-2.61l-7.52-54.54a3.78 3.78 0 0 0-1.81-2.73l-37.55-22.54a3.74 3.74 0 0 1-1.38-1.44l-20.822-38.26c-7.746 45.176 1.378 92.993 28.364 133.375 21.436 32.077 51.52 55.536 85.394 68.904" clip-rule="evenodd"/></svg>