<svg xmlns="http://www.w3.org/2000/svg" width="512" height="512" fill="none"><path fill="currentColor" fill-rule="evenodd" d="M432 64H272V48c0-8.837-7.163-16-16-16s-16 7.163-16 16v16H80c-26.498.028-47.972 21.502-48 48v208c.028 26.498 21.502 47.972 48 48h42.79l-26.17 91.6a15.999 15.999 0 0 0 19.275 20.194A16 16 0 0 0 127.38 468.4L156.07 368H240v48c0 8.837 7.163 16 16 16s16-7.163 16-16v-48h83.93l28.69 100.4a16 16 0 1 0 30.76-8.8L389.21 368H432c26.498-.028 47.972-21.502 48-48V112c-.028-26.498-21.502-47.972-48-48m16 256c0 8.837-7.163 16-16 16H80c-8.837 0-16-7.163-16-16V112c0-8.837 7.163-16 16-16h352c8.837 0 16 7.163 16 16zM92 112c-6.627 0-12 5.373-12 12v184c0 6.627 5.373 12 12 12h328c6.627 0 12-5.373 12-12V124c0-6.627-5.373-12-12-12z" clip-rule="evenodd"/></svg>