<svg xmlns="http://www.w3.org/2000/svg" width="512" height="512" fill="none"><path fill="currentColor" fill-rule="evenodd" d="M271.997 47.685C271.829 38.994 264.731 32 256 32c-8.837 0-16 7.163-16 16v16H80c-26.51 0-48 21.49-48 48v208c0 26.51 21.49 48 48 48h42.788l-26.172 91.604-.086.311c-2.221 8.401 2.682 17.071 11.074 19.469 8.497 2.428 17.353-2.492 19.78-10.988L156.069 368H240v48l.003.315C240.171 425.006 247.269 432 256 432c8.837 0 16-7.163 16-16v-48h83.931l28.685 100.396.091.309c2.552 8.306 11.296 13.077 19.689 10.679 8.496-2.427 13.416-11.283 10.988-19.78L389.212 368H432c26.51 0 48-21.49 48-48V112c0-26.51-21.49-48-48-48H272V48zM144.353 336h223.293q.363-.007.723 0H432c8.837 0 16-7.163 16-16V112c0-8.837-7.163-16-16-16H80c-8.837 0-16 7.163-16 16v208c0 8.837 7.163 16 16 16h63.631q.36-.007.722 0" clip-rule="evenodd"/></svg>