<svg xmlns="http://www.w3.org/2000/svg" width="512" height="512" fill="none"><path fill="currentColor" d="M24.906 76.45c2.266-8.497 4.532-16.993 9.516-24.583C47.336 32.27 71.692 22.074 94.574 27.06c23.563 5.097 41.914 24.468 45.086 47.918.34 2.718 1.246 3.851 4.078 4.304 12.688 1.926 25.262 4.192 37.836 6.23 2.153.34 3.738.567 3.172 3.512a706 706 0 0 0-3.738 22.317c-.34 2.605-1.246 3.398-4.078 2.945-12.575-2.266-25.262-4.191-37.836-6.457-2.832-.566-3.965.34-5.098 2.719-5.891 11.328-14.613 19.824-26.168 25.262-2.832 1.359-3.738 2.718-3.285 5.777 3.285 24.922 6.344 49.957 9.402 74.879 3.739 30.133 7.59 60.379 11.328 90.625 2.719 21.41 5.438 42.707 7.93 64.117.34 2.605 1.586 3.172 3.625 3.512 16.426 3.172 29.113 11.894 37.949 25.941 1.586 2.606 3.399 1.926 5.325 1.36 34.664-9.176 69.214-18.239 103.878-27.415 18.465-4.871 36.93-9.855 55.508-14.613 2.946-.68 3.739-1.926 3.852-4.758 1.586-25.828 20.164-47.464 45.765-52.562 4.192-.906 5.325-2.492 5.891-6.57 4.078-32.625 8.496-65.137 12.914-97.649.34-2.266-.113-3.398-2.265-4.531-18.465-9.063-29.454-23.903-32.512-44.293-.453-2.945-2.266-3.059-4.418-3.399-14.16-2.378-28.207-4.871-42.367-7.023-2.946-.453-3.399-1.586-2.946-4.191 1.36-7.25 2.493-14.5 3.739-21.864.339-2.265 1.019-3.172 3.851-2.718 14.047 2.492 28.207 4.644 42.254 7.25 3.172.566 4.531-.34 5.891-2.946 11.894-22.09 35.23-33.644 60.265-29.906 22.883 3.398 42.141 21.863 47.239 45.312 6.57 30.247-13.368 61.059-43.953 67.629-3.739.793-6.004 1.586-6.571 6.457-3.965 32.286-8.269 64.571-12.801 96.743-.566 3.738.68 4.871 3.625 6.343 21.864 11.668 32.739 30.02 31.946 54.829-.793 24.242-18.465 45.652-42.367 52.222-23.79 6.457-49.731-3.058-62.985-23.562-2.152-3.286-4.078-3.739-7.476-2.832-52.223 13.82-104.446 27.64-156.668 41.234-3.625.906-5.211 2.266-5.551 6.344-2.266 27.301-21.863 48.031-49.051 52.562-.68.114-1.359.453-2.152.68h-13.594c-.68-.227-1.359-.68-2.039-.793-26.508-4.758-44.52-23.902-48.371-51.43-3.172-22.769 10.648-47.238 32.965-57.773 2.832-1.36 3.285-2.832 2.945-5.551-1.699-13.141-3.285-26.281-4.984-39.422-4.078-32.625-8.157-65.137-12.235-97.762-3.738-30.132-7.59-60.378-11.215-90.625-.453-3.851-1.925-5.097-5.55-5.89-16.54-3.399-28.887-12.688-37.723-27.074-4.305-7.25-6.004-15.293-7.93-23.336zm375.981 253.296c-15.746.113-28.66 13.141-28.66 28.887 0 15.859 13.367 29.113 29.113 29 15.633-.113 28.66-13.254 28.773-28.887 0-15.973-13.367-29.113-29.226-29M111.68 83.699c0-15.746-13.028-28.66-28.774-28.887-15.746-.113-29.113 13.254-29.113 29 .227 15.633 13.254 28.774 28.887 28.774 15.86.113 29.113-13.028 29-28.887m318.547 86.774c15.746-.114 28.66-13.141 28.773-28.774.113-15.859-13.254-29.113-29.113-29-15.746.113-28.66 13.141-28.774 28.887 0 15.859 13.254 29 29.114 28.887M155.18 431.133c.113-15.746-12.688-28.774-28.434-29.113-15.859-.227-29.226 12.687-29.34 28.66-.226 15.746 13.141 29.113 28.887 29.113 15.633.113 28.66-12.914 28.887-28.66"/><path fill="currentColor" d="M266.422 126.746c1.359-8.043 2.605-15.973 3.851-23.789.34-1.926 1.36-2.379 3.172-2.152 7.816 1.359 15.746 2.605 23.563 3.851 2.152.34 2.152 1.699 1.812 3.285-1.246 7.59-2.605 15.067-3.738 22.657-.34 2.265-1.36 2.945-3.625 2.492-7.363-1.36-14.84-2.492-22.203-3.738-1.586-.114-3.512-.34-2.832-2.606M235.27 123.801c-8.157-1.36-15.86-2.719-23.563-3.852-2.266-.34-2.719-1.359-2.379-3.285 1.359-7.816 2.606-15.746 3.852-23.562.34-1.813 1.246-2.04 2.832-1.813 7.816 1.36 15.633 2.719 23.562 3.965 1.926.34 2.606.906 2.266 2.945-1.36 7.703-2.719 15.406-3.965 23.11-.34 1.699-.566 3.398-2.605 2.492"/></svg>