<svg xmlns="http://www.w3.org/2000/svg" width="512" height="512" fill="none"><path fill="currentColor" fill-rule="evenodd" d="M96 208c-26.51 0-48 21.49-48 48s21.49 48 48 48 48-21.49 48-48-21.49-48-48-48m0 32c8.837 0 16 7.163 16 16s-7.163 16-16 16-16-7.163-16-16 7.163-16 16-16m112 16c0-26.51 21.49-48 48-48s48 21.49 48 48-21.49 48-48 48-48-21.49-48-48m64 0c0-8.837-7.163-16-16-16s-16 7.163-16 16 7.163 16 16 16 16-7.163 16-16m96 0c0-26.51 21.49-48 48-48s48 21.49 48 48-21.49 48-48 48-48-21.49-48-48m64 0c0-8.837-7.163-16-16-16s-16 7.163-16 16 7.163 16 16 16 16-7.163 16-16" clip-rule="evenodd"/></svg>