<svg xmlns="http://www.w3.org/2000/svg" width="512" height="512" fill="none"><path fill="currentColor" fill-rule="evenodd" d="M424 80c30.619 0 55.498 24.573 55.992 55.074L480 136v240c0 30.619-24.573 55.498-55.074 55.992L424 432H216c-30.619 0-55.498-24.573-55.992-55.074L160 376v-40c0-8.837 7.163-16 16-16 8.731 0 15.829 6.994 15.997 15.685L192 336v40c0 13.122 10.531 23.785 23.603 23.997L216 400h208c13.122 0 23.785-10.531 23.997-23.603L448 376V136c0-13.122-10.531-23.785-23.603-23.997L424 112H216c-13.122 0-23.785 10.531-23.997 23.603L192 136v40c0 8.837-7.163 16-16 16-8.731 0-15.829-6.994-15.997-15.685L160 176v-40c0-30.619 24.573-55.498 55.074-55.993L216 80zm-163.314 84.686c6.162-6.161 16.099-6.247 22.365-.256l.263.256 80 80c6.161 6.162 6.247 16.099.256 22.365l-.256.263-80 80c-6.249 6.248-16.379 6.248-22.628 0-6.161-6.162-6.247-16.099-.256-22.365l.256-.263L313.373 272H48c-8.837 0-16-7.163-16-16 0-8.731 6.994-15.829 15.685-15.997L48 240h265.373l-52.687-52.686c-6.161-6.162-6.247-16.099-.256-22.365z" clip-rule="evenodd"/></svg>