<svg xmlns="http://www.w3.org/2000/svg" width="512" height="512" fill="none"><path fill="currentColor" d="m383.463 35.303-50.911 50.912a8 8 0 0 0 0 11.313 8 8 0 0 0 11.313 0l37.255-37.254v83.686a8 8 0 0 0 16 0V60.274l37.255 37.254a8 8 0 1 0 11.314-11.313l-50.912-50.912a8 8 0 0 0-11.314 0M177 114s-23.323-6.208-42.021-13.38c-25.457-9.763-47.492-24.293-68.359-46.387-2.597-2.754-5.761-4.847-9.814-5.777-5.342-1.227-10.708.074-14.879 3.27-4.533 3.473-6.715 7.91-8.242 13.685-1.808 6.843-2.66 16.747-2.685 29.233-.05 25.709 3.415 60.22 9.983 95.526 7.74 41.614 19.283 82.185 34.357 118.011 17.657 41.963 39.629 76.299 66.157 100.816l.805.74c40.302 36.785 93.189 55.694 144.587 53.71 49.731-1.92 92.865-23.314 116.122-59.637 18.865 4.909 38.341 8.895 58.544 12.003 8.734 1.344 16.903-4.647 18.247-13.381s-4.647-16.903-13.381-18.247c-16.866-2.595-33.179-5.83-49.024-9.741 10.949-29.92 12.568-62.624 4.544-94.673-8.58 8.229-18.36 14.475-28.763 18.736 3.821 23.068 1.515 46.096-6.706 67.256-74.389-23.507-138.972-63.622-203.514-124.411-6.433-6.059-16.559-5.755-22.617.677-6.059 6.433-5.756 16.559.677 22.617 66.161 62.314 133.048 104.345 209.462 129.581-18.298 22.31-48.9 35.857-84.825 37.244-42.646 1.646-86.858-13.993-120.752-44.438l-1.024-.927c-43.787-40.001-75.251-114.78-91.436-201.788-6.06-32.578-9.318-64.312-9.44-87.765L63 94.828l.62.522c18.46 15.449 38.181 26.818 59.9 35.148l1.996.758C146.476 139.129 172.5 146 172.5 146z"/><path fill="currentColor" d="m201.867 170.282 76.367-76.367c4.687-4.687 12.285-4.687 16.971 0l76.368 76.367c4.686 4.686 4.686 12.284 0 16.971-4.687 4.686-12.285 4.686-16.971 0L298.72 131.37V260.4c0 6.627-5.373 12-12 12-6.628 0-12-5.373-12-12V131.37l-55.883 55.883c-4.686 4.686-12.284 4.686-16.97 0-4.686-4.687-4.686-12.285 0-16.971"/></svg>