<svg xmlns="http://www.w3.org/2000/svg" width="512" height="512" fill="none"><path fill="currentColor" d="M235.375 68.709c-1.601-.052-3.225.046-4.875.374L59.833 103.25c-9.984 2.006-17.166 10.741-17.166 20.917v263.667c0 10.176 7.182 18.911 17.166 20.916L230.5 442.917c13.205 2.645 25.5-7.497 25.5-20.958V90.042c0-11.779-9.423-20.976-20.625-21.333m63.291 37.958v42.667h42.667V192h-42.667v42.667h42.667v42.667h-42.667V320h42.667v42.667h-42.667v42.667H448c11.776 0 21.333-9.558 21.333-21.334V128c0-11.776-9.557-21.333-21.333-21.333zM384 149.334h42.666V192H384zM116 177c6.656 0 12.69 4.023 15.25 10.167l15.458 37.083c1.6 3.862 2.804 8.34 4.042 13.417h.541c.704-3.051 2.137-7.712 4.292-13.792l17.917-38.208A15.03 15.03 0 0 1 187.125 177c11.349 0 18.624 12.057 13.333 22.084l-29.625 56.208 30 56.167c5.632 10.666-2.05 23.541-14.125 23.541-6.229 0-11.939-3.617-14.542-9.291l-19.458-42.25c-.896-1.814-1.959-5.423-2.833-10.5h-.334c-.533 2.432-1.608 6.073-3.208 10.958l-19.875 42.417c-2.475 5.29-7.821 8.666-13.667 8.666h-1.833c-11.498 0-18.776-12.368-13.208-22.416l31.541-56.709L101.292 201c-5.59-10.986 2.377-24 14.708-24m268 57.667h42.666v42.667H384zM384 320h42.666v42.667H384z"/></svg>