<svg xmlns="http://www.w3.org/2000/svg" width="512" height="512" fill="none"><path fill="currentColor" fill-rule="evenodd" d="M192 64c8.837 0 16 7.163 16 16 0 8.731-6.994 15.83-15.685 15.997L192 96h-73.398l100.71 100.685c6.249 6.247 6.251 16.378.003 22.627-6.161 6.163-16.097 6.249-22.365.26l-.262-.257L96 118.653V192c0 8.731-6.994 15.829-15.685 15.997L80 208c-8.731 0-15.83-6.994-15.997-15.685L64 192V80c0-8.731 6.994-15.83 15.685-15.997L80 64zm123.05 228.428c-6.268-5.99-16.204-5.903-22.365.26-6.248 6.249-6.246 16.38.003 22.627L393.398 416H320l-.315.003C310.994 416.171 304 423.269 304 432c0 8.837 7.163 16 16 16h112l.315-.003C441.006 447.829 448 440.731 448 432V320l-.003-.315C447.829 310.994 440.731 304 432 304l-.315.003C422.994 304.171 416 311.269 416 320v73.347L315.312 292.685zM432 64c8.731 0 15.829 6.994 15.997 15.685L448 80v112c0 8.837-7.163 16-16 16-8.731 0-15.829-6.994-15.997-15.685L416 192v-73.398l-100.685 100.71c-6.247 6.249-16.378 6.251-22.627.003-6.163-6.161-6.25-16.097-.26-22.365l.257-.262L393.347 96H320c-8.731 0-15.829-6.994-15.997-15.685L304 80c0-8.731 6.994-15.83 15.685-15.997L320 64zM80 304c8.731 0 15.83 6.994 15.997 15.685L96 320v73.398l100.685-100.71c6.247-6.249 16.378-6.251 22.627-.003 6.163 6.161 6.249 16.097.26 22.365l-.257.262L118.653 416H192c8.731 0 15.829 6.994 15.997 15.685L208 432c0 8.731-6.994 15.829-15.685 15.997L192 448H80c-8.731 0-15.83-6.994-15.997-15.685L64 432V320c0-8.837 7.163-16 16-16" clip-rule="evenodd"/></svg>