<svg xmlns="http://www.w3.org/2000/svg" width="512" height="512" fill="none"><path fill="currentColor" fill-rule="evenodd" d="M461.05 51a65 65 0 0 0-45.71-19h-.76a61.8 61.8 0 0 0-44.36 19.25q-.575.59-1.07 1.25l-54 69.76c-5.62 7.1-12.74 8.68-16.78 4.64l-1.9-1.9c-18.756-18.756-49.164-18.756-67.92 0s-18.756 49.164 0 67.92l9.91 9.91a2 2 0 0 1 0 2.83L58.7 385.38C54 390.05 46.9 399.85 38.85 431c-4.06 15.71-6.51 29.66-6.61 30.24a16 16 0 0 0 18.4 18.54c.58-.1 14.44-2.43 30.13-6.44 31.07-7.94 41.05-15.24 45.85-20l179.77-179.79a2 2 0 0 1 2.82 0l9.92 9.92c18.758 18.756 49.169 18.753 67.925-.005s18.753-49.169-.005-67.925l-1.59-1.54c-5-5-2.52-12.11 4.32-17.14l69.75-53.94a18 18 0 0 0 1.47-1.32 63.2 63.2 0 0 0 19-45A63.88 63.88 0 0 0 461.05 51M250.78 283.9c-2.92 2.92-16.18 7.92-23.39.71s-2.24-20.42.69-23.35l33-33a2 2 0 0 1 2.83 0l19.84 19.83a2 2 0 0 1 0 2.83z" clip-rule="evenodd"/></svg>