<svg xmlns="http://www.w3.org/2000/svg" width="512" height="512" fill="none"><path fill="currentColor" fill-rule="evenodd" d="m358.28 186.795-32.96-32.959q.645-.33 1.287-.68c4.236-2.315 8.203-5.288 11.837-8.922l.353-.364q.52-.555.986-1.156l54.108-69.905.22-.218c12.051-11.806 31.895-11.415 44.313 1.01l.377.383c12.063 12.446 12.312 31.583.441 44.093l-.142.145-69.829 54.012-.397.317q-.587.486-1.127 1.025c-3.978 3.979-7.126 8.422-9.467 13.219m28.752 28.752-1.55-1.549c-.663-4.173-.41-8.539 1.152-12.276l.173-.397a16.8 16.8 0 0 1 2.915-4.436l.058-.063 69.75-53.95.379-.303q.563-.463 1.08-.975c25.472-25.182 25.201-65.486.065-90.622-25.184-25.198-66.271-25.498-90.835.275l-.371.403q-.364.41-.7.842l-53.965 69.719-.11.104a19.5 19.5 0 0 1-3.811 2.756c-4.07 2.224-8.638 2.585-12.997 1.706l-1.814-1.814c-18.755-18.755-49.162-18.755-67.917 0s-18.755 49.162 0 67.917l11.341 11.342L58.926 385.137a16 16 0 0 0-.56.566l-.012.012c-7.107 7.337-12.323 19.754-17.363 37.399l-.472 1.67c-2.243 8.014-4.266 16.526-6.047 25.028a435 435 0 0 0-1.64 8.211l-.273 1.458-.32 1.772c-1.895 10.868 7.519 20.347 18.4 18.528a156 156 0 0 0 1.786-.311l3.79-.699q1.995-.378 4.171-.813l1.765-.358c8.55-1.748 17.112-3.756 25.176-6.008 18.325-5.119 31.322-10.512 38.992-17.977q.28-.264.544-.54l180.931-180.931 11.32 11.321c18.755 18.755 49.163 18.755 67.918 0s18.755-49.163 0-67.918M105.438 429.245l179.728-179.728-22.663-22.664L82.76 406.558a40 40 0 0 0-1.736 3.64c-2.129 5.103-2.999 10.045-2.235 13.835.443 2.197 1.433 4.083 3.272 5.92 1.835 1.834 3.716 2.823 5.904 3.267 3.788.767 8.728-.103 13.831-2.235a40 40 0 0 0 3.642-1.74m214.068-190.643a17 17 0 0 0-.797-.798l-44.493-44.492-.126-.134-.264-.271a21 21 0 0 0-.408-.393l-22.257-22.257c-6.258-6.258-6.258-16.405 0-22.663s16.405-6.258 22.663 0l90.58 90.581c6.258 6.258 6.258 16.404 0 22.662s-16.404 6.258-22.662 0z" clip-rule="evenodd"/></svg>