<svg xmlns="http://www.w3.org/2000/svg" width="512" height="512" fill="none"><path fill="currentColor" fill-rule="evenodd" d="M491.84 238.6c-26.46-40.92-60.79-75.68-99.27-100.53C350 110.55 303 96 256.66 96c-42.52 0-84.33 12.15-124.27 36.11-40.73 24.43-77.63 60.12-109.68 106.07a31.92 31.92 0 0 0-.64 35.54c26.41 41.33 60.4 76.14 98.28 100.65C163 402 208.9 416 256.66 416c46.71 0 93.81-14.43 136.2-41.72 38.46-24.77 72.72-59.66 99.08-100.92a32.2 32.2 0 0 0-.1-34.76M257 352c-53.019 0-96-42.981-96-96s42.981-96 96-96c53.02 0 96 42.981 96 96-.06 52.994-43.005 95.939-96 96m64-96c0 35.346-28.653 64-64 64-35.346 0-64-28.654-64-64s28.654-64 64-64 64 28.654 64 64" clip-rule="evenodd"/></svg>