<svg xmlns="http://www.w3.org/2000/svg" width="512" height="512" fill="none"><path fill="currentColor" fill-rule="evenodd" d="M255.659 96c-85.94 0-169.908 50.373-233.952 142.176-7.394 10.715-7.607 24.74-.587 35.607C76.62 360.657 162.151 416 255.66 416c92.916 0 179.988-56.061 235.275-142.639 6.788-10.546 6.788-24.146-.03-34.74-26.209-40.479-60.499-75.477-99.328-100.548C349.372 110.823 303.057 96 255.659 96m0 32c80.07 0 158.135 50.404 208.36 127.976.006.009.006.069-.024.115C414.164 334.123 336.697 384 255.659 384c-80.782 0-156.032-48.167-206.106-125.171l-1.554-2.412C106.364 172.753 180.965 128 255.659 128m.34 32c-53.019 0-96 42.981-96 96s42.981 96 96 96c53.02 0 96-42.981 96-96s-42.98-96-96-96m0 32c35.347 0 64 28.654 64 64s-28.653 64-64 64c-35.346 0-64-28.654-64-64s28.654-64 64-64" clip-rule="evenodd"/></svg>