<svg xmlns="http://www.w3.org/2000/svg" width="512" height="512" fill="none"><path fill="currentColor" fill-rule="evenodd" d="m63.998 86.004 21.998-21.998L448 426.01l-21.998 21.998zM259.34 192.09l60.57 60.57c-1.743-32.703-27.867-58.827-60.57-60.57m-6.68 127.82-60.57-60.57c1.743 32.703 27.867 58.827 60.57 60.57M256 352a96 96 0 0 1-92.6-121.34l-69.07-69.08C66.12 187.42 39.24 221.14 16 256c26.42 44 62.56 89.24 100.2 115.18C159.38 400.92 206.33 416 255.76 416A233.5 233.5 0 0 0 335 402.2l-53.61-53.6A95.9 95.9 0 0 1 256 352m76.321-154.24A96 96 0 0 0 256 160a95.9 95.9 0 0 0-25.34 3.4l-53.11-53.11A222.9 222.9 0 0 1 255.76 96c48.55 0 95.34 15.2 139.06 45.18C433.1 167.44 469.62 212.57 496 256c-20.67 34.44-47.59 69.75-76.74 96l-70.66-70.66a96 96 0 0 0-16.279-83.58" clip-rule="evenodd"/></svg>