<svg xmlns="http://www.w3.org/2000/svg" width="512" height="512" fill="none"><path fill="currentColor" fill-rule="evenodd" d="M432 448a15.92 15.92 0 0 1-11.31-4.69l-352-352c-5.976-6.29-5.85-16.198.286-22.334s16.043-6.262 22.334-.286l352 352A16 16 0 0 1 432 448M248 315.85l-51.79-51.79a2 2 0 0 0-3.39 1.69c4.29 27.57 25.92 49.2 53.49 53.49a2 2 0 0 0 1.69-3.39M315.87 248 264 196.15a2 2 0 0 1 1.72-3.39c27.609 4.28 49.27 25.941 53.55 53.55a1.999 1.999 0 0 1-3.4 1.69M491 273.36a32.2 32.2 0 0 0-.1-34.76c-26.46-40.92-60.79-75.68-99.27-100.53C349 110.55 302 96 255.68 96a226.5 226.5 0 0 0-71.82 11.79 4 4 0 0 0-1.56 6.63l47.24 47.24a4 4 0 0 0 3.82 1.05 96 96 0 0 1 116 116 4 4 0 0 0 1.05 3.81l67.95 68a4 4 0 0 0 5.4.24 343.8 343.8 0 0 0 67.24-77.4m-310.464 41.987A96 96 0 0 0 256 352a96 96 0 0 0 22.65-2.7 4 4 0 0 1 3.81 1.05l47.47 47.46a4 4 0 0 1-1.61 6.64A238.2 238.2 0 0 1 255.68 416c-47.76 0-93.62-14-136.31-41.63-37.89-24.51-71.87-59.32-98.28-100.65a31.92 31.92 0 0 1 .64-35.54c20.67-29.59 43.28-54.91 67.67-75.72a4 4 0 0 1 5.41.23l66.84 66.87a4 4 0 0 1 1.05 3.81 96 96 0 0 0 17.836 81.977" clip-rule="evenodd"/></svg>