<svg xmlns="http://www.w3.org/2000/svg" width="512" height="512" fill="none"><path fill="currentColor" fill-rule="evenodd" d="M433 448a15.92 15.92 0 0 1-11.31-4.69l-352-352c-5.976-6.29-5.85-16.198.286-22.334s16.044-6.262 22.334-.286l352 352A15.998 15.998 0 0 1 433 448m-176.34-64c-41.49 0-81.5-12.28-118.92-36.5-34.07-22-64.74-53.51-88.7-91v-.08c19.94-28.57 41.78-52.73 65.24-72.21a2 2 0 0 0 .14-2.94L94.5 161.38a2 2 0 0 0-2.71-.12c-24.92 21-48.05 46.76-69.08 76.92a31.92 31.92 0 0 0-.64 35.54c26.41 41.33 60.4 76.14 98.28 100.65C163 402 208.9 416 256.66 416a239.1 239.1 0 0 0 75.8-12.58 2 2 0 0 0 .77-3.31l-21.58-21.58a4 4 0 0 0-3.83-1 204.8 204.8 0 0 1-51.16 6.47m135.91-245.93c38.48 24.85 72.81 59.61 99.27 100.53a32.2 32.2 0 0 1 .1 34.78 343.5 343.5 0 0 1-68.64 78.48 2 2 0 0 1-2.7-.13l-19.9-19.89a2 2 0 0 1 .15-2.95 310.7 310.7 0 0 0 64.12-72.73.13.13 0 0 0 0-.16c-24.02-37.12-55.05-68.6-89.76-91-37.97-24.57-77.86-37-118.55-37a192.8 192.8 0 0 0-50.21 6.69 4 4 0 0 1-3.88-1l-21.55-21.55a2.003 2.003 0 0 1 .75-3.31A227.4 227.4 0 0 1 256.66 96C303 96 350 110.55 392.57 138.07M257 160a96 96 0 0 0-21.37 2.4 2 2 0 0 0-1 3.38l112.59 112.56a2.001 2.001 0 0 0 3.38-1A96 96 0 0 0 257 160m-92.209 73.149a2 2 0 0 1 1.989.511L279.4 346.28a2 2 0 0 1-1 3.38 96 96 0 0 1-89.302-25.698A96 96 0 0 1 163.4 234.66a2 2 0 0 1 1.391-1.511" clip-rule="evenodd"/></svg>