<svg xmlns="http://www.w3.org/2000/svg" width="512" height="512" fill="none"><path fill="currentColor" fill-rule="evenodd" d="M394.82 141.18C351.1 111.2 304.31 96 255.76 96c-43.69 0-86.28 13-126.59 38.48C88.52 160.23 48.67 207 16 256c26.42 44 62.56 89.24 100.2 115.18C159.38 400.92 206.33 416 255.76 416c49 0 95.85-15.07 139.3-44.79C433.31 345 469.71 299.82 496 256c-26.38-43.43-62.9-88.56-101.18-114.82M256 352c-53.019 0-96-42.981-96-96s42.981-96 96-96 96 42.981 96 96c-.061 52.994-43.006 95.939-96 96m64-96c0 35.346-28.654 64-64 64s-64-28.654-64-64 28.654-64 64-64 64 28.654 64 64" clip-rule="evenodd"/></svg>