<svg xmlns="http://www.w3.org/2000/svg" width="512" height="512" fill="none"><path fill="#1877F2" d="M512 256C512 114.615 397.385 0 256 0S0 114.615 0 256c0 127.777 93.615 233.685 216 252.89V330h-65v-74h65v-56.4c0-64.16 38.219-99.6 96.695-99.6 28.009 0 57.305 5 57.305 5v63h-32.281C305.918 168 296 187.734 296 207.979V256h71l-11.35 74H296v178.89C418.385 489.685 512 383.777 512 256"/><path fill="#fff" d="M355.65 330 367 256h-71v-48.022c0-20.244 9.917-39.978 41.719-39.978H370v-63s-29.296-5-57.305-5C254.219 100 216 135.44 216 199.6V256h-65v74h65v178.89a258 258 0 0 0 40 3.11c13.608 0 26.966-1.065 40-3.11V330z"/></svg>