<svg xmlns="http://www.w3.org/2000/svg" width="513" height="512" fill="none"><path fill="currentColor" fill-rule="evenodd" d="M196.121 46.284c-31.675 8.345-58.776 15.884-60.224 16.753-3.651 2.193-101.043 112.996-102.774 116.926-5.357 12.167 6.596 25.701 17.324 19.615 1.547-.877 6.077-5.237 10.066-9.687l7.253-8.091v143.665c0 139.094.053 143.782 1.668 147.367.979 2.173 3.117 4.625 5.175 5.935L78.116 481h178.609c173.633 0 178.699-.053 181.877-1.889 1.919-1.108 4.083-3.53 5.24-5.861l1.971-3.973V181.8l7.253 8.091c3.989 4.45 8.52 8.81 10.067 9.687 10.402 5.901 21.95-6.427 17.802-19.002-1.337-4.049-100.531-116.268-104.495-118.215-4.109-2.018-117.305-31.507-120.381-31.36-1.29.061-28.263 6.94-59.938 15.283m115.178 29.07 52.311 13.6 27.914 31.458 27.914 31.457v299.256h-70.334v-83.688c0-81.91-.038-83.773-1.77-87.619-1.14-2.53-3.007-4.645-5.241-5.936-3.403-1.967-5.022-2.004-85.303-2.004-80.282 0-81.9.037-85.303 2.004-2.234 1.291-4.102 3.406-5.241 5.936-1.732 3.846-1.77 5.709-1.77 87.619v83.688H94.142V151.869l27.659-31.316 27.659-31.318 51.687-13.625c28.428-7.494 53.071-13.677 54.764-13.74 1.692-.064 26.617 6.005 55.388 13.484m-87.249 69.12c-3.712 2.22-6.823 8.095-6.823 12.884 0 4.942 3.109 10.678 7.01 12.933 3.271 1.889 5.14 2.005 32.553 2.005s29.282-.116 32.552-2.005c3.901-2.255 7.011-7.991 7.011-12.933 0-4.941-3.11-10.678-7.011-12.932-3.277-1.894-5.096-2.003-32.737-1.961-27.401.042-29.478.169-32.555 2.009m0 59.75c-3.712 2.219-6.823 8.095-6.823 12.883 0 4.942 3.109 10.679 7.01 12.933 3.271 1.889 5.14 2.005 32.553 2.005s29.282-.116 32.552-2.005c3.901-2.254 7.011-7.991 7.011-12.933 0-4.941-3.11-10.678-7.011-12.932-3.277-1.893-5.096-2.003-32.737-1.961-27.401.042-29.478.169-32.555 2.01m56.256 124.164-23.516 26.636-23.517-26.636-23.515-26.636h94.063zm-65.938 74.687-23.517 26.635V323.167l23.517 26.636 23.515 26.636zm108.36-26.389v53.024l-23.513-26.633-23.515-26.633 23.289-26.392c12.807-14.516 23.389-26.392 23.513-26.392s.226 23.861.226 53.026m-42.2 48.05 23.285 26.389h-94.047l23.286-26.389c12.807-14.514 23.489-26.389 23.738-26.389s10.931 11.875 23.738 26.389" clip-rule="evenodd"/></svg>