<svg xmlns="http://www.w3.org/2000/svg" width="512" height="512" fill="none"><path fill="currentColor" fill-rule="evenodd" d="m447.66 116.89 32 151.81c.223 1.086.337 2.191.34 3.3v112c0 35.346-28.654 64-64 64H96c-35.346 0-64-28.654-64-64V272a16.7 16.7 0 0 1 .32-3.3l32-151.87c3.21-16.58 10.48-29.64 21.58-38.89S111.2 64 128 64h256c33.68 0 57.48 19.77 63.66 52.89m-352 6.13v.28L68.73 251.18a4 4 0 0 0 3.92 4.82H192a15.923 15.923 0 0 1 16 15.84c0 26.51 21.49 48 48 48s48-21.49 48-48c.055-8.785 7.215-15.864 16-15.82h119.35a4 4 0 0 0 3.92-4.82l-26.93-127.88a2 2 0 0 0-.031-.146v-.001c-.019-.081-.039-.162-.039-.243-3.4-18.36-13.66-26.91-32.27-26.91H127.95c-18.48 0-28.74 8.57-32.29 27M368 160H144c-8.836 0-16-7.163-16-16s7.164-16 16-16h224c8.837 0 16 7.163 16 16s-7.163 16-16 16m-240 64h256c8.837 0 16-7.163 16-16s-7.163-16-16-16H128c-8.836 0-16 7.163-16 16s7.164 16 16 16" clip-rule="evenodd"/></svg>