<svg xmlns="http://www.w3.org/2000/svg" width="512" height="512" fill="none"><path fill="currentColor" d="M279.335 346.635h-46.667c-7.75 0-14-7.583-14-17v-119h-51.167c-10.333 0-15.583-15.25-8.25-24.166l88.75-107.833c4.417-5.25 11.584-5.25 15.917 0l88.833 107.833c7.334 8.916 2.084 24.166-8.25 24.166h-51.166v119c0 9.417-6.25 17-14 17m126-5.666v79.333c0 9.417-6.25 17-14 17H120.668c-7.75 0-14-7.583-14-17v-79.333c0-9.417 6.25-17 14-17h79.333v5.666c0 21.917 14.667 39.667 32.667 39.667h46.667c18 0 32.666-17.75 32.666-39.667v-5.666h79.334c7.75 0 14 7.583 14 17m-72.334 62.333c0-7.833-5.25-14.166-11.666-14.166s-11.667 6.333-11.667 14.166 5.25 14.167 11.667 14.167 11.666-6.333 11.666-14.167m37.334 0c0-7.833-5.25-14.166-11.667-14.166s-11.667 6.333-11.667 14.166 5.25 14.167 11.667 14.167 11.667-6.333 11.667-14.167"/></svg>