<svg xmlns="http://www.w3.org/2000/svg" width="512" height="512" fill="none"><path fill="currentColor" d="M368 128c8.837 0 16 7.163 16 16 0 8.731-6.994 15.829-15.685 15.997L368 160H144c-8.837 0-16-7.163-16-16 0-8.731 6.994-15.829 15.685-15.997L144 128zM400 208c0-8.837-7.163-16-16-16H128l-.315.003C118.994 192.171 112 199.269 112 208c0 8.837 7.163 16 16 16h256l.315-.003C393.006 223.829 400 216.731 400 208"/><path fill="currentColor" fill-rule="evenodd" d="m128 64-1.01.006c-32.888.382-55.867 19.474-62.504 51.973l-.166.835-31.907 151.559A16 16 0 0 0 32 272v112c.102 35.324 28.676 63.897 63.954 64H416c35.324-.103 63.897-28.676 64-63.954V272c0-1.247-.143-2.461-.413-3.627L447.7 116.909C441.381 83.173 417.447 64 384 64zm192 192h124.281l-27.938-132.704-.18-.933C412.64 104.3 402.123 96 384 96H128c-18.384 0-28.747 8.61-32.288 27.022l-.027.137L67.718 256H192c8.731 0 15.829 6.994 15.997 15.685l.002.114v.064l.001.077v.06c0 26.51 21.49 48 48 48 26.245 0 47.57-21.063 47.994-47.206L304 272c0-8.731 6.994-15.829 15.685-15.997zm14.4 32c-7.413 36.516-39.697 64-78.4 64s-70.987-27.484-78.4-64H64v95.954c.05 17.5 14.084 31.708 31.472 32.04L96 416h319.954c17.677-.051 31.995-14.369 32.046-32v-96z" clip-rule="evenodd"/></svg>