<svg xmlns="http://www.w3.org/2000/svg" width="512" height="512" fill="none"><path fill="currentColor" fill-rule="evenodd" d="m479.66 268.7-32-151.81C441.48 83.77 417.68 64 384 64H128c-16.8 0-31 4.69-42.1 13.94s-18.37 22.31-21.58 38.89l-32 151.87A16.7 16.7 0 0 0 32 272v112c0 35.346 28.654 64 64 64h320c35.346 0 64-28.654 64-64V272a16.6 16.6 0 0 0-.34-3.3m-384-145.4v-.28c3.55-18.43 13.81-27 32.29-27H384c18.61 0 28.87 8.55 32.27 26.91 0 .13.05.26.07.39l26.93 127.88a4 4 0 0 1-3.92 4.82H320c-8.785-.044-15.945 7.035-16 15.82 0 26.51-21.49 48-48 48s-48-21.49-48-48A15.923 15.923 0 0 0 192 256H72.65a4.002 4.002 0 0 1-3.92-4.82z" clip-rule="evenodd"/></svg>