<svg xmlns="http://www.w3.org/2000/svg" width="512" height="512" fill="none"><path fill="currentColor" fill-rule="evenodd" d="M479.46 187.88 447.61 68.45C441.27 35.59 417.54 16 384 16H128c-16.8 0-31 4.69-42.1 13.94S67.66 52 64.4 68.4L32.54 187.88A16 16 0 0 0 32 192v48c0 35.29 28.71 80 64 80h320c35.29 0 64-44.71 64-80v-48a16 16 0 0 0-.54-4.12M440.57 176H320c-8.785-.044-15.945 7.035-16 15.82 0 26.51-21.49 48-48 48s-48-21.49-48-48c-.055-8.785-7.215-15.864-16-15.82H71.43a1.998 1.998 0 0 1-1.93-2.52L95.71 75c3.55-18.41 13.81-27 32.29-27h256c18.59 0 28.84 8.53 32.25 26.85l26.25 98.63a2 2 0 0 1-1.93 2.52M320 352h144c8.837 0 16 7.163 16 16v64c-.039 35.33-28.67 63.961-64 64H96c-35.33-.039-63.961-28.67-64-64v-64c0-8.837 7.163-16 16-16h144c8.837 0 16 7.163 16 16 0 26.51 21.49 48 48 48s48-21.49 48-48c0-8.837 7.163-16 16-16" clip-rule="evenodd"/></svg>