<svg xmlns="http://www.w3.org/2000/svg" width="512" height="512" fill="none"><path fill="currentColor" fill-rule="evenodd" d="M436 80H76c-24.29.028-43.972 19.71-44 44v264c.028 24.289 19.71 43.972 44 44h360c24.289-.028 43.972-19.711 44-44V124c-.028-24.29-19.711-43.972-44-44M112 388c0 6.627-5.373 12-12 12H76c-6.627 0-12-5.373-12-12v-24c0-6.627 5.373-12 12-12h24c6.627 0 12 5.373 12 12zm0-80c0 6.627-5.373 12-12 12H76c-6.627 0-12-5.373-12-12v-24c0-6.627 5.373-12 12-12h24c6.627 0 12 5.373 12 12zm0-80c0 6.627-5.373 12-12 12H76c-6.627 0-12-5.373-12-12v-24c0-6.627 5.373-12 12-12h24c6.627 0 12 5.373 12 12zm0-80c0 6.627-5.373 12-12 12H76c-6.627 0-12-5.373-12-12v-24c0-6.627 5.373-12 12-12h24c6.627 0 12 5.373 12 12zm241.68 124H158.32c-8.837 0-16-7.163-16-16s7.163-16 16-16h195.36c8.837 0 16 7.163 16 16s-7.163 16-16 16M448 388c0 6.627-5.373 12-12 12h-24c-6.627 0-12-5.373-12-12v-24c0-6.627 5.373-12 12-12h24c6.627 0 12 5.373 12 12zm0-80c0 6.627-5.373 12-12 12h-24c-6.627 0-12-5.373-12-12v-24c0-6.627 5.373-12 12-12h24c6.627 0 12 5.373 12 12zm0-80c0 6.627-5.373 12-12 12h-24c-6.627 0-12-5.373-12-12v-24c0-6.627 5.373-12 12-12h24c6.627 0 12 5.373 12 12zm0-80c0 6.627-5.373 12-12 12h-24c-6.627 0-12-5.373-12-12v-24c0-6.627 5.373-12 12-12h24c6.627 0 12 5.373 12 12z" clip-rule="evenodd"/></svg>