<svg xmlns="http://www.w3.org/2000/svg" width="512" height="512" fill="none"><path fill="currentColor" fill-rule="evenodd" d="M100 80h336c24.301 0 44 19.7 44 44v264c0 24.301-19.699 44-44 44H76c-24.3 0-44-19.699-44-44V124c0-24.3 19.7-44 44-44zm12 308v-24c0-6.627-5.373-12-12-12H76c-6.627 0-12 5.373-12 12v24c0 6.627 5.373 12 12 12h24c6.627 0 12-5.373 12-12m0-80v-24c0-6.627-5.373-12-12-12H76c-6.627 0-12 5.373-12 12v24c0 6.627 5.373 12 12 12h24c6.627 0 12-5.373 12-12m44-68h200c6.627 0 12-5.373 12-12V124c0-6.627-5.373-12-12-12H156c-6.627 0-12 5.373-12 12v104c0 6.627 5.373 12 12 12m244 44v24c0 6.627 5.373 12 12 12h24c6.627 0 12-5.373 12-12v-24c0-6.627-5.373-12-12-12h-24c-6.627 0-12 5.373-12 12m0 80v24c0 6.627 5.373 12 12 12h24c6.627 0 12-5.373 12-12v-24c0-6.627-5.373-12-12-12h-24c-6.627 0-12 5.373-12 12m0-216v-24c0-6.627 5.373-12 12-12h24c6.627 0 12 5.373 12 12v24c0 6.627-5.373 12-12 12h-24c-6.627 0-12-5.373-12-12m0 80v-24c0-6.627 5.373-12 12-12h24c6.627 0 12 5.373 12 12v24c0 6.627-5.373 12-12 12h-24c-6.627 0-12-5.373-12-12m-256 56v104c0 6.627 5.373 12 12 12h200c6.627 0 12-5.373 12-12V284c0-6.627-5.373-12-12-12H156c-6.627 0-12 5.373-12 12m-32-80v24c0 6.627-5.373 12-12 12H76c-6.627 0-12-5.373-12-12v-24c0-6.627 5.373-12 12-12h24c6.627 0 12 5.373 12 12m0-80v24c0 6.627-5.373 12-12 12H76c-6.627 0-12-5.373-12-12v-24c0-6.627 5.373-12 12-12h24c6.627 0 12 5.373 12 12" clip-rule="evenodd"/></svg>