<svg xmlns="http://www.w3.org/2000/svg" width="512" height="512" fill="none"><path fill="currentColor" fill-rule="evenodd" d="M480 128c8.837 0 16 7.163 16 16 0 8.731-6.994 15.829-15.685 15.997L480 160H32c-8.837 0-16-7.163-16-16 0-8.731 6.994-15.829 15.685-15.997L32 128zm-80 112c8.837 0 16 7.163 16 16 0 8.731-6.994 15.829-15.685 15.997L400 272H112c-8.837 0-16-7.163-16-16 0-8.731 6.994-15.829 15.685-15.997L112 240zm-80 128c0-8.837-7.163-16-16-16h-96l-.315.003C198.994 352.171 192 359.269 192 368c0 8.837 7.163 16 16 16h96l.315-.003C313.006 383.829 320 376.731 320 368" clip-rule="evenodd"/></svg>