<svg xmlns="http://www.w3.org/2000/svg" width="512" height="512" fill="none"><path fill="currentColor" fill-rule="evenodd" d="M132.47 71.66c11.08-6.72 50.27-26.77 123.53-26.77 84.393 0 123.581 26.692 126.674 28.8q.172.118.196.13l13.9 8.86L413 57.47l-13.22-8.56c-.52-.38-1.06-.76-1.6-1.12C385.5 39.54 340.54 15 256 15c-87.71 0-132.75 26.48-143.41 33.71L99 57.52l16.2 25.21zM56.79 199.58l12.36 7.5 7.35-13.58C93.07 165.75 143.78 101 256 101c115 0 164 70.32 180.1 93.46l8.16 12.7L469.88 191l-8.54-13.36c-8.88-12.85-27.52-39.53-60.78-63.1C360.15 85.82 311.5 71.25 256 71.25c-128.07 0-186.69 75.11-206 107.25L42.63 191 54 197.86q.777.607 1.63 1.1.564.34 1.16.62m322.43-28.26c-35.54-28.93-78.12-44.25-123.22-44.25-97.52 0-162.31 66-183.33 131.47-19.034 59.781 3.63 146.106 5.088 151.662l.042.158 4.38 13.81 29.93-6.43-4.74-15c-.21-.75-22.1-82.93-5.41-135.21 9-28.08 27.73-55.4 51.35-74.79C181.81 169.39 217.35 157 256 157c90.58 0 141.93 70.61 156.45 108.11 11.27 28.93 8.67 61.82-6.28 82-5.53 7.39-15.28 16.07-30.12 15.32-33.81-1.72-39.66-18.43-47.79-50.25l-.065-.254c-3.879-15.241-7.89-30.997-17.805-43.746-12.14-15.75-29.8-23.36-54.28-23.36-26.33 0-46.27 8.68-59.38 25.72-28.6 37.28-10 100.93-9.21 103.61l.22.85c1.41 3.86 36.08 96.65 128.93 119.68l14.77 3.21 8.09-28.71-15.27-3.43c-74.22-18.43-105.21-94.39-107.59-100.39a152.4 152.4 0 0 1-5.1-29.79c-1.08-14.46-.32-34.39 9.43-47.14 7.15-9.32 18.64-13.82 35-13.82 29.79 0 34.78 14.57 42.58 44.79 7.58 29.46 18 69.85 75.84 72.75 22.21 1.07 42.26-8.79 56.34-27.65 21.13-28.28 25.14-71.57 10.19-110.14-11.68-30.36-34.21-60.54-61.73-83.04m-198.49 72.11c-25.14 27.78-30.02 70.5-26.55 98.78 6.93 48.22 25.46 86.58 58.18 120.86l10.34 9.79-20.95 21.79-11.6-11.22c-37.15-39-58.15-82.61-66.12-137.14v-.33c-4.44-36.1 2.06-87.21 33.91-122.35 23.51-25.93 56.56-39.11 98.06-39.11 49.11 0 87.68 22.82 111.74 65.93 17.43 31.29 20.89 62.47 21 63.75a113 113 0 0 1 1 15.6l-30 2.2-1.43-14.69a154 154 0 0 0-17.88-53.25c-18.64-32.89-47.02-49.61-84.51-49.61-32.4 0-57.75 9.71-75.19 29m129.15 151.93c20.26 16.18 47.34 22.6 80.71 18.85l13.96-2.16 6.1 29.71-16.59 2.09a187 187 0 0 1-21.56 1.29c-32.5 0-60.13-9-82.24-26.89-44.197-35.61-49.349-93.495-49.616-96.499l-.004-.041-1.31-15 30.53-2.23 1.23 14.88.013.118c.297 2.775 5.259 49.031 38.777 75.882" clip-rule="evenodd"/></svg>