<svg xmlns="http://www.w3.org/2000/svg" width="512" height="512" fill="none"><path fill="currentColor" fill-rule="evenodd" d="M256 16c84.54 0 129.5 24.54 142.18 32.79a14.9 14.9 0 0 1 9.32 13.82 15.06 15.06 0 0 1-15.29 14.89 15.25 15.25 0 0 1-9.21-3q-.021-.011-.177-.117c-2.955-1.994-42.224-28.493-126.793-28.493-87.55 0-126.34 28.5-126.77 28.82a15.56 15.56 0 0 1-8.88 2.79 15.06 15.06 0 0 1-15.31-14.85 14.87 14.87 0 0 1 5.09-11.15.36.36 0 0 0 .22-.1 11.6 11.6 0 0 1 1.84-1.4c9.97-6.89 55.04-34 143.78-34M63.28 202a15.3 15.3 0 0 1-7.7-2 14.84 14.84 0 0 1-5.52-20.46C69.34 147.36 128 72.25 256 72.25c55.47 0 104.12 14.57 144.53 43.29 33.26 23.57 51.9 50.25 60.78 63.1a14.787 14.787 0 0 1-4 20.79c-6.997 4.626-16.404 2.854-21.24-4C420 172.32 371 102 256 102c-112.25 0-163 64.71-179.53 92.46A15 15 0 0 1 63.28 202m257.21 294a15.3 15.3 0 0 1-3.79-.43c-92.85-23-127.52-115.82-128.93-119.68l-.22-.85-.033-.116c-1.147-4.019-19.029-66.641 9.243-103.494 13.11-17 33.05-25.72 59.38-25.72 24.48 0 42.14 7.61 54.28 23.36 9.975 12.828 13.98 28.641 17.841 43.886l.029.114c8.13 31.82 14 48.53 47.79 50.25 14.84.75 24.59-7.93 30.12-15.32 14.95-20.15 17.55-53 6.28-82C398 228.57 346.61 158 256 158c-38.68 0-74.22 12.43-102.72 35.79-23.59 19.35-42.28 46.67-51.28 74.75-16.69 52.28 5.2 134.46 5.41 135.21a14.83 14.83 0 0 1-1.586 11.417A14.82 14.82 0 0 1 96.54 422c-8.09 2.151-16.415-2.558-18.74-10.6v-.002c-1.008-3.781-24.376-91.409-5.1-151.818 21-65.47 85.81-131.47 183.33-131.47 45.07 0 87.65 15.32 123.19 44.25 27.52 22.5 50 52.72 61.76 82.93 14.95 38.57 10.94 81.86-10.19 110.14-14.08 18.86-34.13 28.72-56.34 27.65-57.86-2.9-68.26-43.29-75.84-72.75-7.8-30.22-12.79-44.79-42.58-44.79-16.36 0-27.85 4.5-35 13.82-9.75 12.75-10.51 32.68-9.43 47.14a152.5 152.5 0 0 0 5.1 29.79c2.38 6 33.37 82 107.59 100.39a14.88 14.88 0 0 1 11 18.11 15.36 15.36 0 0 1-14.8 11.21m-130.34-11.57a15.5 15.5 0 0 0 11.16 4.71 15.44 15.44 0 0 0 10.29-4 14.7 14.7 0 0 0 .76-21.11c-32.72-34.28-51.25-72.64-58.18-120.86-3.45-28.28 1.41-71.03 26.55-98.78 17.44-19.25 42.79-29 75.19-29 37.51 0 65.87 16.72 84.51 49.61a154 154 0 0 1 17.86 53.29c1.028 8.272 8.503 14.189 16.79 13.29a15.072 15.072 0 0 0 13.65-16.4c-.09-1.28-3.55-32.46-21-63.75-24.05-43.07-62.62-65.89-111.7-65.89-41.5 0-74.55 13.18-98.06 39.11-31.85 35.14-38.35 86.25-33.91 122.35v.29c7.91 54.53 28.93 98.14 66.09 137.14m182.35-38.25c-32.5 0-60.13-9-82.24-26.89-44.197-35.61-49.349-93.495-49.616-96.499l-.004-.041a15.272 15.272 0 0 1 21.816-14.955 15.27 15.27 0 0 1 8.634 12.595l.014.125.001.005c.312 2.882 5.312 49.033 38.775 75.87 20.26 16.18 47.34 22.6 80.71 18.85 8.303-1.007 15.86 4.883 16.91 13.18a14.92 14.92 0 0 1-13.44 16.5 187 187 0 0 1-21.56 1.26" clip-rule="evenodd"/></svg>