<svg xmlns="http://www.w3.org/2000/svg" width="512" height="512" fill="none"><path fill="currentColor" fill-rule="evenodd" d="m259.73 276.76-48-160L150.11 240H56.94A211.2 211.2 0 0 1 48 176.65C48.63 114.54 98.46 64 159.08 64c48.11 0 80.1 28 96.92 48.21C272.82 92 304.81 64 352.92 64c60.62 0 110.45 50.54 111.08 112.65A213.14 213.14 0 0 1 442.66 272h-96.77L304 188.22zM424.41 304H480v-32h-37.34a261 261 0 0 1-18.25 32M69.34 272h100.55l34.38-68.76 48 160L304 259.78 326.11 304h98.3a323 323 0 0 1-22.44 29.68c-34.773 41.165-80.108 70.918-119.438 96.729l-.001.001c-6.014 3.946-11.887 7.801-17.561 11.59l-9 6-9-6c-5.704-3.812-11.611-7.69-17.659-11.662-39.286-25.795-84.574-55.53-119.341-96.658-17.13-20.27-30.63-40.76-40.63-61.68m0 0H32v-32h24.94a225 225 0 0 0 12.4 32" clip-rule="evenodd"/></svg>