<svg xmlns="http://www.w3.org/2000/svg" width="512" height="512" fill="none"><path fill="currentColor" fill-rule="evenodd" d="M352.92 64c-33.077 0-61.161 13.892-84.078 36.646l-.937.938a158 158 0 0 0-11.174 12.566l-.731.923-.731-.923a158 158 0 0 0-12.111-13.504C220.241 77.892 192.157 64 159.08 64 97.942 64 48.635 114.781 48 176.646c-.22 21.867 2.82 42.942 8.969 63.354H48l-.315.003C38.994 240.171 32 247.269 32 256c0 8.837 7.163 16 16 16h21.381c9.425 19.775 21.887 38.953 37.235 57.664 31.486 38.385 73.511 73.516 131.399 112.805 10.847 7.38 25.123 7.38 35.985-.01 57.87-39.281 99.891-74.411 131.377-112.795 6.935-8.456 13.282-17.006 19.025-25.664H464l.315-.003C473.006 303.829 480 296.731 480 288l-.003-.315C479.829 278.994 472.731 272 464 272h-21.388c14.411-30.235 21.721-61.864 21.387-95.35C463.365 114.781 414.058 64 352.92 64m53.618 208c17.174-30.283 25.796-61.648 25.463-95.026C431.544 132.376 396.223 96 352.92 96c-23.728 0-44.162 10.108-61.532 27.354-6.245 6.201-11.618 12.881-16.076 19.543a107 107 0 0 0-3.924 6.302 65 65 0 0 0-.878 1.576l-.379.731c-6.052 11.441-22.604 11.324-28.442-.351l-.199-.38a56 56 0 0 0-.45-.821l-.701-1.228a110 110 0 0 0-3.651-5.829c-4.458-6.662-9.831-13.342-16.076-19.543C203.242 106.108 182.808 96 159.08 96c-43.303 0-78.624 36.376-79.08 80.971-.22 21.782 3.374 42.705 10.668 63.029h59.443l43.578-87.155c6.415-12.831 25.094-11.352 29.507 2.145l.129.412 36.407 121.356 29.957-59.913c5.838-11.675 22.39-11.792 28.442-.351l.18.351L345.888 272zm-301.083 0c7.158 12.622 15.801 25.055 25.902 37.369 28.586 34.849 67.47 67.574 121.327 104.374l3.316 2.258 1.676-1.139c54.698-37.253 94.082-70.288 122.96-105.493a307 307 0 0 0 4.305-5.369H336a16 16 0 0 1-14.148-8.528l-.163-.317L304 259.776l-33.689 67.379c-6.415 12.831-25.094 11.352-29.507-2.145l-.129-.412-36.408-121.357-29.956 59.914a16 16 0 0 1-13.955 8.841L160 272z" clip-rule="evenodd"/></svg>