<svg xmlns="http://www.w3.org/2000/svg" width="512" height="512" fill="none"><path fill="currentColor" fill-rule="evenodd" d="M209.38 144.051a16 16 0 0 0-15.69 8.789L150.11 240H56.93A211.1 211.1 0 0 1 48 176.65C48.63 114.54 98.46 64 159.08 64c48.09 0 80.04 29.51 96.92 51 16.92-21.46 48.83-51 96.92-51 60.62 0 110.45 50.54 111.08 112.65A213.1 213.1 0 0 1 442.65 272h-96.76l-27.54-55.16a16 16 0 0 0-28.62 0l-30 59.92-36.4-121.36a16 16 0 0 0-13.95-11.349M424.4 304a260 260 0 0 0 18.25-32H464c8.837 0 16 7.163 16 16s-7.163 16-16 16zM69.35 272H48c-8.837 0-16-7.163-16-16s7.163-16 16-16h8.93a225 225 0 0 0 12.42 32m0 0q14 29.29 37.27 57.66c18.77 22.88 52.8 59.46 131.39 112.81a31.84 31.84 0 0 0 36 0c78.59-53.35 112.62-89.93 131.39-112.81a317 317 0 0 0 19-25.66H336a16 16 0 0 1-14.31-8.84L304 259.78l-33.69 67.38a16 16 0 0 1-15.69 8.78 16 16 0 0 1-14-11.34l-36.4-121.36-30 59.92A16 16 0 0 1 160 272z" clip-rule="evenodd"/></svg>