<svg xmlns="http://www.w3.org/2000/svg" width="512" height="512" fill="none"><path fill="currentColor" fill-rule="evenodd" d="M76.387 47.16C92.352 37.99 119.325 32 160 32c21.176 0 44.262 4.51 72.463 13.146l2.646.817c9.275 2.888 18.761 6.092 31.647 10.618l25.198 8.846c13.811 4.821 15.491 5.284 23.759 7.731l1.674.49C332.041 77.9 343.297 80 351.958 80a183.6 183.6 0 0 0 71.112-14.537 18 18 0 0 1 24.926 16.234l.004.383v219.407a20.01 20.01 0 0 1-11.969 18.258l-1.293.558c-7.441 3.165-16.888 6.383-28.081 9.133C389.708 333.602 371.39 336 352 336c-11.841 0-25.41-1.659-42.22-4.889l-7.653-1.509c-4.971-1.001-8.952-1.872-18.297-4.045l-31.608-7.414c-10.019-2.333-17.793-4.073-25.363-5.652l-2.519-.521-2.474-.503C197.279 306.52 177.439 304 160 304c-26.369 0-45.679 2.759-58.94 7.179a67 67 0 0 0-4.55 1.689l-.51.214V464c0 8.731-6.994 15.829-15.685 15.997L80 480c-8.731 0-15.83-6.994-15.997-15.685L64 464V68.084A24 24 0 0 1 75.632 47.6l.368-.217zM160 64c-20.241 0-36.515 1.648-49.206 4.51-6.096 1.375-10.892 2.912-14.518 4.459l-.276.118v206.171l.142-.04c15.92-4.529 36.607-7.145 62.75-7.216L160 272c20.221 0 42.363 2.851 69.414 8.346l3.356.689c9.114 1.894 18.35 3.977 31.016 6.949l28.006 6.57c11.353 2.636 14.233 3.21 22.046 4.747l1.859.361C330.739 302.556 342.507 304 352 304c16.704 0 32.478-2.065 47.02-5.639 6.168-1.516 11.643-3.178 16.341-4.846l.639-.23V102.117l-.057.018a215.6 215.6 0 0 1-62.638 9.858L352 112c-12.716 0-27.201-2.78-45.369-8.158l-2.338-.7c-6.29-1.904-13.057-4.12-21.03-6.857l-5.12-1.77-21.076-7.421c-13.922-4.896-23.694-8.19-33.345-11.158l-.629-.193C197.663 67.956 177.413 64 160 64" clip-rule="evenodd"/></svg>