<svg xmlns="http://www.w3.org/2000/svg" width="512" height="512" fill="none"><path fill="currentColor" fill-rule="evenodd" d="M208 32c-10.377 0-17.979 9.713-15.555 19.746l.076.304c6.195 23.673 4.294 46.457-4.848 71.031l-.321.858c-7.348 19.429-16.703 35.805-37.414 67.643l-9.206 14.139a899 899 0 0 0-4.472 6.968l-1.276 2.012c-11.993 18.962-20.149 33.659-26.464 48.605C100.309 282.741 96 301.273 96 320c0 88.366 71.634 160 160 160s160-71.634 160-160c0-84.497-27.885-157.772-75.144-212.461C300.587 60.937 248.638 32 208 32m19.543 34.838.054.015c27.798 7.515 61.312 29.512 89.047 61.608C358.932 177.399 384 243.271 384 320c0 47.78-26.179 89.446-64.977 111.435C330.146 415.226 336 393.828 336 368c0-65.181-59.624-144-112-144-9.933 0-17.439 8.947-15.772 18.689l.055.305c1.722 9.044.59 17.757-3.423 28.842-1.197 3.307-2.644 6.83-4.545 11.118l-1.807 4.002a3329 3329 0 0 1-3.408 7.44l-1.944 4.251c-5.2 11.511-8.555 20.03-11.346 29.561C178.005 341.203 176 354.202 176 368c0 25.828 5.854 47.226 16.977 63.435C154.179 409.446 128 367.78 128 320c0-25.796 10.16-50.36 33.792-87.817l3.721-5.845c1.362-2.123 2.794-4.332 5.471-8.441l6.5-9.976c21.454-33.027 31.475-50.653 39.799-72.662 8.6-22.741 12.27-44.902 10.357-67.335zm-4.864 244.188 6.402-14.007.137-.305c2.349-5.266 4.169-9.669 5.732-13.987l.298-.83c2.548-7.185 4.298-14.024 5.176-20.766l.049-.395.109.057c11.118 5.806 23.388 16.651 34.408 31.218C292.857 315.631 304 344.284 304 368c0 23.354-5.753 40.129-15.667 50.692C280.087 427.479 268.751 432 256 432s-24.087-4.521-32.333-13.308C213.753 408.129 208 391.354 208 368c0-19.175 4.276-34.022 14.679-56.974" clip-rule="evenodd"/></svg>