<svg xmlns="http://www.w3.org/2000/svg" width="512" height="512" fill="none"><path fill="currentColor" fill-rule="evenodd" d="M304 33h32c8.837 0 16 7.163 16 16 0 8.731-6.994 15.83-15.685 15.997L336 65h-16v77.482a48.1 48.1 0 0 0 7.057 25.086l.342.549 124.92 197.83c31.22 49.442-3.634 113.752-61.634 115.034l-1.765.019H123.08c-58.464 0-94.214-63.816-64.325-113.549l.926-1.503 124.906-197.823a48.1 48.1 0 0 0 7.409-24.997l.004-.648V65h-16c-8.837 0-16-7.163-16-16 0-8.731 6.994-15.83 15.685-15.997L176 33h128m-80 32v77.482a80.1 80.1 0 0 1-11.93 42.045l-.421.675L146.111 289h219.773l-65.55-103.809a80.1 80.1 0 0 1-12.33-41.916l-.004-.795V65zm162.091 256H125.906l-39.167 62.033c-17.901 28.348 2.082 65.221 35.329 65.956l1.012.011h265.84c33.513 0 54.01-36.59 36.872-65.106l-.531-.861z" clip-rule="evenodd"/></svg>