<svg xmlns="http://www.w3.org/2000/svg" width="512" height="512" fill="none"><path fill="currentColor" fill-rule="evenodd" d="M316.826 16.004a18.41 18.41 0 0 0-14.039 6.984l-.064.081L83.561 293.936l-.249.315C75.246 304.708 82.677 320 96 320h108.827l-28.079 154.367c-.959 5.436.517 10.932 4.016 15.092a18.36 18.36 0 0 0 12.596 6.483l.317.022.508.023q.317.013.635.013l.395-.004a18.36 18.36 0 0 0 13.841-6.765l.203-.255 219.18-270.912.249-.316C436.753 207.291 429.322 192 416 192H307.188l28.211-154.374q.084-.456.141-.917a18.454 18.454 0 0 0-16.902-20.655l-.306-.02-.498-.022a16 16 0 0 0-.614-.012zm-22.488 68.302-22.077 120.818-.054.307C270.623 215.137 278.116 224 288 224h94.474L217.786 427.56l21.956-120.697.052-.306C241.371 296.854 233.879 288 224 288h-94.473z" clip-rule="evenodd"/></svg>