<svg xmlns="http://www.w3.org/2000/svg" width="512" height="512" fill="none"><path fill="currentColor" fill-rule="evenodd" d="m294.34 85.28-22.08 120.84a16 16 0 0 0 6.17 15.71 16.5 16.5 0 0 0 9.93 3.17h94.12l-38.37 47.42a4 4 0 0 0 .28 5.34l17.07 17.07a4 4 0 0 0 5.94-.31l60.8-75.16a16.37 16.37 0 0 0 3.3-14.36 16 16 0 0 0-15.5-12H307.19L335.4 38.63l.011-.065c.046-.277.091-.547.119-.825A18.45 18.45 0 0 0 302.73 24l-92.58 114.46a4 4 0 0 0 .28 5.35l17.07 17.06a4 4 0 0 0 5.94-.31zM432 449a15.92 15.92 0 0 1-11.31-4.69l-352-352c-5.977-6.29-5.85-16.199.286-22.334 6.135-6.136 16.043-6.262 22.334-.286l352 352A16 16 0 0 1 432 449M239.78 307.86l-22 120.71 60.78-75.13a4 4 0 0 1 5.94-.31l17.07 17.06a4 4 0 0 1 .28 5.35L209.24 490a18.37 18.37 0 0 1-32.5-14.53v-.11L204.83 321H96a16 16 0 0 1-15.5-12 16.37 16.37 0 0 1 3.3-14.36l60.85-75.16a4 4 0 0 1 5.93-.31l17.07 17.07a4 4 0 0 1 .28 5.34L129.57 289h94.1a16.54 16.54 0 0 1 9.92 3.16 16 16 0 0 1 6.19 15.7" clip-rule="evenodd"/></svg>