<svg xmlns="http://www.w3.org/2000/svg" width="512" height="512" fill="none"><path fill="currentColor" fill-rule="evenodd" d="M431.5 205a16 16 0 0 0-15.5-12H307.19L335.4 38.63l.01-.063c.047-.278.092-.548.12-.827A18.45 18.45 0 0 0 302.73 24l-92.58 114.46a4 4 0 0 0 .29 5.35l151 151a4 4 0 0 0 5.94-.31l60.8-75.16A16.37 16.37 0 0 0 431.5 205m.5 244a15.92 15.92 0 0 1-11.31-4.69l-352-352c-5.977-6.29-5.85-16.199.286-22.334 6.135-6.136 16.043-6.262 22.334-.286l352 352A16 16 0 0 1 432 449M150.57 219.19l151 151a4 4 0 0 1 .28 5.35L209.24 490a18.37 18.37 0 0 1-32.5-14.53v-.11L204.83 321H96a16 16 0 0 1-15.5-12 16.37 16.37 0 0 1 3.3-14.36l60.84-75.14a4 4 0 0 1 5.93-.31" clip-rule="evenodd"/></svg>