<svg xmlns="http://www.w3.org/2000/svg" width="512" height="512" fill="none"><path fill="currentColor" fill-rule="evenodd" d="M210.39 73.035A56 56 0 0 0 179.89 64H104l-.926.007C72.574 64.503 48 89.381 48 120v58.745a48 48 0 0 0-31.894 48.473l.057.75 16.163 164.884.024.994c.973 30.036 25.6 54.101 55.872 54.154H423.75l.926-.009c29.88-.536 54.021-24.425 54.975-54.163l.022-.976 16.164-164.884.012-.143A48 48 0 0 0 464 178.744V152l-.008-.926C463.498 120.573 438.619 96 408 96H252.11l-.507-.005a24 24 0 0 1-12.807-4.027l-27.841-18.56zM432 176v-24c0-13.122-10.531-23.785-23.603-23.997L408 128H252.11a56 56 0 0 1-30.5-9.035l-.565-.372-27.841-18.561a24 24 0 0 0-12.807-4.027L179.89 96H104c-13.122 0-23.785 10.531-23.997 23.603L80 120v56zM64 208h384.071c4.449.019 8.69 1.89 11.703 5.164l.27.301a16 16 0 0 1 3.934 11.406l-.023.332-16.199 165.236q-.05.52-.068 1.04l-.008.521c0 13.238-10.72 23.977-23.958 24H88.25c-13.078-.023-23.715-10.548-23.927-23.604l-.011-.917a16 16 0 0 0-.068-1.04l-16.2-165.236.005.072A16 16 0 0 1 64 208" clip-rule="evenodd"/></svg>