<svg xmlns="http://www.w3.org/2000/svg" width="512" height="512" fill="none"><path fill="currentColor" fill-rule="evenodd" d="M147.89 64H72c-30.928 0-56 25.072-56 56v272c0 30.928 25.072 56 56 56h368c30.928 0 56-25.072 56-56V152c0-30.928-25.072-56-56-56H220.11a24 24 0 0 1-13.314-4.032l-27.841-18.56A56 56 0 0 0 147.89 64M464 176v-24c0-13.255-10.745-24-24-24H220.11a56 56 0 0 1-31.065-9.407l-27.841-18.561A24 24 0 0 0 147.89 96H72c-13.255 0-24 10.745-24 24v56zM48 208h416v184c0 13.255-10.745 24-24 24H72c-13.255 0-24-10.745-24-24z" clip-rule="evenodd"/></svg>