<svg xmlns="http://www.w3.org/2000/svg" width="513" height="512" fill="none"><path fill="currentColor" d="M213.183 475.39H84.137c-11.842 0-17.336-5.494-17.336-17.337v-39.8c0-8.668 3.784-13.674 12.208-15.749 1.832-.488 2.564-1.099 2.442-2.93-.122-1.221 0-2.442 0-3.663V81.905c0-22.098 13.063-39.434 33.452-44.562 3.907-.977 7.813-1.343 11.842-1.343h172.997c26.371 0 45.294 19.045 45.416 45.294 0 85.583.122 171.165-.122 256.87 0 4.762 1.343 5.616 5.738 5.616 26.615-.244 45.538-19.045 45.661-45.66 0-28.324 0-56.77.122-85.094 0-2.931-.611-4.518-3.419-6.105-15.383-8.668-22.097-26.248-16.848-42.73s21.121-27.103 38.458-25.272c3.296.366 3.906-.366 3.784-3.296-.244-6.105 1.709-13.186-.854-17.947-2.442-4.639-9.279-6.959-14.162-10.377l-21.243-14.285c-7.814-5.25-10.012-13.795-5.372-20.876 4.761-7.326 13.551-8.669 21.609-3.297 13.674 9.035 27.347 18.313 41.143 27.348 5.616 3.662 8.18 8.546 8.058 15.383a5296 5296 0 0 0 0 62.264c0 15.016-6.349 26.493-19.534 33.818-2.442 1.343-2.442 3.052-2.442 5.249 0 28.813.122 57.625 0 86.56-.122 35.771-24.173 65.194-59.212 72.519-5.982 1.221-12.086 1.587-18.191 1.343-2.319-.122-3.296.489-3.174 3.052.122 7.814.122 15.505 0 23.319 0 1.953.366 2.686 2.564 3.296 8.058 1.954 12.087 7.203 12.087 15.505v41.632c0 9.889-6.105 15.871-16.116 15.871-43.585-.488-87.048-.61-130.51-.61m102.552-235.75V82.149c0-11.232-5.616-16.97-16.848-16.97H127.722c-11.476 0-17.092 5.616-17.092 17.092 0 104.994 0 209.989-.122 314.983 0 4.029.976 5.006 5.005 5.006 64.95-.122 130.023-.122 194.973 0 4.028 0 5.371-.855 5.249-5.128 0-52.497.122-104.994 0-157.492M213.427 431.56H105.38c-9.4 0-9.278 0-9.523 9.523-.122 4.151.855 5.25 5.128 5.25 73.008-.122 146.138-.122 219.145-.122 10.134 0 10.012 0 10.256-10.133.122-3.541-.733-4.64-4.518-4.518zm197.536-263.707c-4.029 0-7.203 3.419-7.203 7.326 0 4.029 3.418 7.203 7.325 7.203s7.203-3.419 7.203-7.325c0-4.029-3.418-7.326-7.325-7.204"/><path fill="currentColor" d="M213.183 94.602h56.77c10.621 0 16.482 5.86 16.482 16.359v55.427c0 10.256-5.983 16.116-16.238 16.116H156.168c-10.255 0-16.237-5.86-16.237-16.116v-55.793c0-10.011 5.982-15.871 15.993-15.871 19.168-.245 38.213-.122 57.259-.122m-.122 58.479c13.429 0 26.859-.122 40.288.122 3.297 0 4.151-.854 4.029-4.029-.244-7.325-.122-14.65 0-21.975 0-2.564-.61-3.419-3.296-3.419-27.104.122-54.329.122-81.432 0-2.686 0-3.418.855-3.296 3.419.122 7.325.244 14.65 0 21.975-.122 3.175.732 4.151 4.028 4.151 13.064-.244 26.371-.244 39.679-.244"/></svg>