<svg xmlns="http://www.w3.org/2000/svg" width="512" height="512" fill="currentColor"><path fill-rule="evenodd" d="M466.025 48H46.082a30 30 0 0 0-22.821 49.543l168.722 196.524a.07.07 0 0 1 .017.045l.001 119.051a23.93 23.93 0 0 0 16.265 22.904l80.222 26.695a23.93 23.93 0 0 0 21.62-3.326l.345-.255a23.94 23.94 0 0 0 9.546-18.854L320 440l-.001-145.83q0-.026.018-.046L488.741 97.541A29.999 29.999 0 0 0 466.025 48M50.374 80h411.252L295.641 273.39a32.07 32.07 0 0 0-7.64 20.439L288 428.874l-64-21.296v-113.69l-.008-.522a32.07 32.07 0 0 0-7.536-19.916z" clip-rule="evenodd"/><path fill-rule="evenodd" d="M388.656 195C329.295 195 281 243.295 281 302.656s48.295 107.656 107.656 107.656 107.656-48.295 107.656-107.656S448.017 195 388.656 195m38.979 134.927a8.281 8.281 0 1 1-11.708 11.708l-27.271-27.266-27.271 27.266a8.282 8.282 0 0 1-11.708-11.708l27.266-27.271-27.266-27.271a8.283 8.283 0 0 1 11.708-11.708l27.271 27.266 27.271-27.266a8.283 8.283 0 0 1 11.708 11.708l-27.266 27.271z" clip-rule="evenodd"/></svg>