<svg xmlns="http://www.w3.org/2000/svg" width="512" height="512" fill="none"><path fill="currentColor" fill-rule="evenodd" d="M129.556 83.959a115.1 115.1 0 0 1 30.525-3.96l1.001.007c5.046.064 10.071.58 15.35 1.516 3.898.691 7.831 1.585 12.481 2.799l1.673.442c1.734.464 6.221 1.712 9.642 2.664l5.311 1.466C223.683 93.78 237.625 96 256 96c18.782 0 32.922-2.32 51.661-7.436.546-.149 2.049-.567 3.889-1.08l.008-.002h.004c2.975-.83 6.826-1.901 8.933-2.475l2.488-.663c4.624-1.21 8.533-2.1 12.408-2.793C341.111 80.53 346.53 80 351.923 80a107.7 107.7 0 0 1 30.693 4.317c25.778 7.62 46.733 26.469 63.539 55.587 15.101 26.163 27.148 61.035 36.977 105.47l.312 1.416c10.236 46.622 14.418 84.033 11.797 112.967-3.237 35.729-17.272 60.13-43.997 69.258-16.791 5.725-33.79 3.139-50.157-6.377-13.178-7.661-25.886-19.691-38.905-35.912l-.638-.788C340.467 360.12 315.721 351.91 256 351.91c-60.701 0-86.313 8.571-107.35 34.825l-.684.847c-12.975 16.021-25.109 27.589-37.815 35.065-16.32 9.602-33.369 12.104-50.483 6.18-24.989-8.666-38.67-33.241-42.508-68.83-3.278-30.394.493-69.69 10.557-114.662 9.966-44.518 22.003-79.303 37.038-105.402 16.796-29.156 37.716-48.002 63.515-55.618zM160 111.999l-.08-.001a83.2 83.2 0 0 0-22.811 3.071l.141-.039-.947.29c-33.48 10.603-58.463 53.983-76.8 134.527l-.559 2.477c-18.57 82.989-12.637 138 11.2 146.266 15.003 5.194 31.583-4.561 53.55-31.885l.848-1.049C152.599 331.27 187.234 319.91 256 319.91c69.088 0 102.784 11.456 131.138 46.785l.644.799c21.22 26.207 38.612 36.184 53.127 31.235 26.082-8.908 30.535-58.064 10.979-146.443-18.289-82.676-43.935-127.111-78.289-137.266A75.7 75.7 0 0 0 352 111.999c-3.475 0-7.033.348-10.98 1.053-2.979.533-6.153 1.258-10.088 2.289l-1.341.355c-1.557.417-5.816 1.602-9.19 2.542l-2.752.765-2.806.769C294.161 125.348 277.57 128 256 128c-22.002 0-38.833-2.76-60.103-8.565-.632-.173-2.295-.636-4.27-1.185l-.002-.001c-2.684-.747-5.943-1.654-7.973-2.21l-2.011-.543c-4.263-1.127-7.64-1.906-10.796-2.465-3.896-.691-7.412-1.032-10.845-1.032M292 244c11.046 0 20-8.954 20-20s-8.954-20-20-20-20 8.954-20 20 8.954 20 20 20m25.518 31.642A20 20 0 0 0 336 288c11.026 0 19.973-8.924 20-19.95a20 20 0 1 0-38.482 7.592M336 200c11.046 0 20-8.954 20-20s-8.954-20-20-20-20 8.954-20 20 8.954 20 20 20m64 24c0 11.046-8.954 20-20 20s-20-8.954-20-20 8.954-20 20-20 20 8.954 20 20m-240-64c8.731 0 15.829 6.994 15.997 15.685L176 176v32h32c8.837 0 16 7.163 16 16 0 8.731-6.994 15.829-15.685 15.997L208 240h-32v32c0 8.837-7.163 16-16 16-8.731 0-15.829-6.994-15.997-15.685L144 272v-32h-32c-8.836 0-16-7.163-16-16 0-8.731 6.994-15.829 15.685-15.997L112 208h32v-32c0-8.837 7.164-16 16-16" clip-rule="evenodd"/></svg>