<svg xmlns="http://www.w3.org/2000/svg" width="512" height="512" fill="none"><path fill="currentColor" fill-rule="evenodd" d="M240 252V144h32v108a4 4 0 0 0 4 4h140a47.9 47.9 0 0 0 16-2.75c19.16-6.802 31.971-24.919 32-45.25v-16c0-26.51-21.49-48-48-48h-40.54a1.998 1.998 0 0 1-1.7-3c19.204-32.424 10.159-74.17-20.744-95.736C322.112 23.698 279.808 29.609 256 58.82c-23.808-29.211-66.112-35.122-97.016-13.556C128.081 66.83 119.036 108.576 138.24 141a1.998 1.998 0 0 1-1.7 3H96c-26.51 0-48 21.49-48 48v16c.029 20.331 12.84 38.448 32 45.25A47.9 47.9 0 0 0 96 256h140a4 4 0 0 0 4-4m32-108v-40c0-22.091 17.909-40 40-40s40 17.909 40 40-17.909 40-40 40zm-32 0h-40c-21.495-.055-39.103-17.088-39.872-38.569-.769-21.48 15.576-39.729 37.012-41.321v-.01A40 40 0 0 1 240 104zM80 416c0 35.346 28.654 64 64 64h92a4 4 0 0 0 4-4V292a4 4 0 0 0-4-4H88a8 8 0 0 0-8 8zm288 64h-92a4 4 0 0 1-4-4V292a4 4 0 0 1 4-4h148a8 8 0 0 1 8 8v120c0 35.346-28.654 64-64 64" clip-rule="evenodd"/></svg>