<svg xmlns="http://www.w3.org/2000/svg" width="512" height="512" fill="none"><path fill="currentColor" fill-rule="evenodd" d="M278 144v112h164c12.15 0 22-9.85 22-22v-68c0-12.15-9.85-22-22-22h-59.82c16.734-34.465 5.942-75.982-25.459-97.934S282.622 28.236 256 55.79c-26.663-27.398-69.253-31.433-100.587-9.53S113.239 109.548 129.81 144H70c-12.15 0-22 9.85-22 22v68a21.997 21.997 0 0 0 22 22h164V144zm0 0v-34c0-18.778 15.222-34 34-34s34 15.222 34 34-15.222 34-34 34zm-44 0h-34c-18.778 0-34-15.222-34-34s15.222-34 34-34 34 15.222 34 34zm44 336h132c12.15 0 22-9.85 22-22V288H278zm-176 0c-12.15 0-22-9.85-22-22V288h154v192z" clip-rule="evenodd"/></svg>