<svg xmlns="http://www.w3.org/2000/svg" width="512" height="512" fill="none"><path fill="currentColor" fill-rule="evenodd" d="M128 104c0-39.764 32.235-72 72-72 22.618 0 42.8 10.43 56 26.741C269.2 42.43 289.382 32 312 32c39.764 0 72 32.236 72 72 0 14.801-4.466 28.559-12.124 40H416c26.51 0 48 21.49 48 48v48c0 20.9-13.357 38.679-32 45.269V416c0 34.993-28.084 63.426-62.942 63.991L368 480H144c-34.993 0-63.426-28.084-63.991-62.942L80 416V285.269C61.357 278.679 48 260.9 48 240v-48c0-26.51 21.49-48 48-48h44.124C132.466 132.559 128 118.801 128 104m144 344h96c17.496 0 31.713-14.042 31.996-31.471L400 416V288H272zm-32-160v160h-96l-.529-.004C126.042 447.713 112 433.496 112 416V288zm32-32h144c8.837 0 16-7.163 16-16v-48c0-8.837-7.163-16-16-16H272zm-32-80H96c-8.837 0-16 7.163-16 16v48c0 8.837 7.163 16 16 16h144zm-40-32c-22.091 0-40-17.909-40-40s17.909-40 40-40l.661.005C222.448 64.36 240 82.13 240 104v39.999zm112 0c21.87 0 39.641-17.552 39.995-39.339L352 104c0-22.091-17.909-40-40-40s-40 17.909-40 40v39.999z" clip-rule="evenodd"/></svg>