<svg xmlns="http://www.w3.org/2000/svg" width="512" height="512" fill="none"><path fill="currentColor" fill-rule="evenodd" d="M416 160c.014-31.023-22.223-57.589-52.765-63.035-30.541-5.446-60.59 11.796-71.3 40.912s1.005 61.721 27.795 77.363c-2.29 29.08-20.08 37-75 48.42-17.76 3.68-35.93 7.45-52.71 13.93v-126.2c25.086-14.483 37.317-44.01 29.82-71.99s-32.853-47.436-61.82-47.436S105.698 51.42 98.201 79.4s4.733 57.507 29.819 71.99v209.22c-25.045 14.463-37.28 43.925-29.845 71.875 7.434 27.95 32.69 47.44 61.611 47.548s54.321-19.194 61.964-47.088c7.642-27.893-4.372-57.446-29.31-72.095 2.39-18 16-24.33 65.26-34.52 27.43-5.67 55.78-11.54 79.78-26.95 29-18.58 44.53-46.78 46.36-83.89A64 64 0 0 0 416 160M160 64c17.674 0 32 14.327 32 32s-14.326 32-32 32c-17.673 0-32-14.327-32-32s14.327-32 32-32m0 384c-17.673 0-32-14.327-32-32s14.327-32 32-32 32 14.327 32 32-14.326 32-32 32m192-256c-17.673 0-32-14.327-32-32s14.327-32 32-32 32 14.327 32 32-14.326 32-32 32" clip-rule="evenodd"/></svg>