<svg xmlns="http://www.w3.org/2000/svg" width="512" height="512" fill="none"><path fill="currentColor" fill-rule="evenodd" d="M353 96a64.002 64.002 0 0 0-58.86 89.11l-101.14 88V151.39c25.086-14.483 37.316-44.01 29.819-71.99S189.967 31.964 161 31.964 106.678 51.42 99.18 79.4s4.734 57.507 29.82 71.99v209.22c-25.086 14.483-37.317 44.01-29.82 71.99 7.498 27.98 32.853 47.436 61.82 47.436s54.322-19.456 61.819-47.436-4.733-57.507-29.819-71.99V358l154.25-134.27c1.9.17 3.81.27 5.75.27 35.346 0 64-28.654 64-64s-28.654-64-64-64M161 64c17.673 0 32 14.327 32 32s-14.327 32-32 32-32-14.327-32-32 14.327-32 32-32m0 384c-17.673 0-32-14.327-32-32s14.327-32 32-32 32 14.327 32 32-14.327 32-32 32m192-256c-17.673 0-32-14.327-32-32s14.327-32 32-32 32 14.327 32 32-14.327 32-32 32" clip-rule="evenodd"/></svg>