<svg xmlns="http://www.w3.org/2000/svg" width="512" height="512" fill="none"><path fill="currentColor" fill-rule="evenodd" d="M96 96c0-35.346 28.654-64 64-64s64 28.654 64 64c0 29.821-20.396 54.879-48 61.984V303.63a87 87 0 0 1 3.515-2.268c8.949-5.479 19.291-9.735 31.73-13.4l1.91-.554c8.801-2.517 16.804-4.344 32.297-7.561l7.285-1.511c31.597-6.582 47.351-11.528 60.261-20.313 12.221-8.317 19.588-19.595 22.063-36.289C307.935 214.309 288 189.482 288 160c0-35.346 28.654-64 64-64s64 28.654 64 64c0 30.093-20.769 55.335-48.756 62.173-3.069 27.665-15.437 48.145-36.242 62.304-9.84 6.697-21.294 11.843-34.96 16.132l-1.653.513c-9.182 2.809-18.462 5.037-32.539 8l-12.095 2.517c-29.167 6.128-42.103 10.018-53.532 17.015-10.136 6.205-16.347 14.141-18.89 25.721C204.258 361.933 224 386.661 224 416c0 35.346-28.654 64-64 64s-64-28.654-64-64c0-29.821 20.396-54.879 48-61.984V157.984C116.396 150.879 96 125.821 96 96m256 96c17.673 0 32-14.327 32-32s-14.327-32-32-32-32 14.327-32 32 14.327 32 32 32M160 384c-17.673 0-32 14.327-32 32s14.327 32 32 32 32-14.327 32-32-14.327-32-32-32m0-256c17.673 0 32-14.327 32-32s-14.327-32-32-32-32 14.327-32 32 14.327 32 32 32" clip-rule="evenodd"/></svg>