<svg xmlns="http://www.w3.org/2000/svg" width="512" height="512" fill="none"><path fill="currentColor" fill-rule="evenodd" d="M315.314 20.686c-6.249-6.248-16.379-6.248-22.628 0l-64 64-.256.263c-5.991 6.266-5.905 16.203.256 22.365l64 64 .263.256c6.266 5.991 16.203 5.905 22.365-.256l.256-.263c5.991-6.266 5.905-16.203-.256-22.365L278.627 112H340l.728.006C364.693 112.394 384 131.942 384 156v198.016c-27.604 7.105-48 32.163-48 61.984 0 35.346 28.654 64 64 64s64-28.654 64-64c0-29.821-20.396-54.879-48-61.984V156l-.01-1.257C415.319 113.349 381.554 80 340 80h-61.373l36.687-36.686.256-.263c5.991-6.266 5.905-16.203-.256-22.365M368 416c0-17.673 14.327-32 32-32s32 14.327 32 32-14.327 32-32 32-32-14.327-32-32m-149.949-75.57c-6.266-5.991-16.203-5.905-22.365.256l-.256.263c-5.991 6.266-5.905 16.203.256 22.365L232.373 400H171l-.728-.006C146.307 399.606 127 380.058 127 356V158.232c28.11-6.75 49-32.052 49-62.232 0-35.346-28.654-64-64-64S48 60.654 48 96c0 29.46 19.905 54.271 47 61.718V356l.01 1.257C95.681 398.651 129.446 432 171 432h61.373l-36.687 36.686-.256.263c-5.991 6.266-5.905 16.203.256 22.365 6.249 6.248 16.379 6.248 22.628 0l64-64 .256-.263c5.991-6.266 5.905-16.203-.256-22.365l-64-64zM144 96c0-17.673-14.327-32-32-32S80 78.327 80 96s14.327 32 32 32 32-14.327 32-32" clip-rule="evenodd"/></svg>