<svg xmlns="http://www.w3.org/2000/svg" width="512" height="512" fill="none"><path fill="currentColor" fill-rule="evenodd" d="M432 360.61V156c-.055-50.787-41.212-91.945-92-92h-20V32a16 16 0 0 0-27.31-11.31l-64 64c-6.243 6.248-6.243 16.372 0 22.62l64 64A16 16 0 0 0 320 160v-32h20c15.464 0 28 12.536 28 28v204.61c-25.085 14.483-37.316 44.01-29.819 71.99s32.853 47.436 61.819 47.436 54.323-19.456 61.82-47.436-4.734-57.507-29.82-71.99M400 448c-17.673 0-32-14.327-32-32s14.327-32 32-32 32 14.327 32 32-14.326 32-32 32M218.31 340.69A15.999 15.999 0 0 0 191 352v32h-20c-15.463 0-28-12.536-28-28V152c25.342-14.028 38.103-43.328 31.113-71.438s-31.987-48.02-60.948-48.545-54.664 18.467-62.668 46.305C42.493 106.159 54.184 135.903 79 150.84V356c.055 50.787 41.212 91.945 91.999 92h20v32a16 16 0 0 0 27.31 11.31l64-64c6.244-6.248 6.244-16.372 0-22.62zM112 64c17.674 0 32 14.327 32 32s-14.326 32-32 32c-17.673 0-32-14.327-32-32s14.327-32 32-32" clip-rule="evenodd"/></svg>