<svg xmlns="http://www.w3.org/2000/svg" width="512" height="512" fill="none"><path fill="currentColor" fill-rule="evenodd" d="M431 360.61V156c-.055-50.787-41.212-91.945-92-92h-35V9.93L216.14 96 304 182.07V128h35c15.464 0 28 12.536 28 28v204.61c-25.085 14.483-37.316 44.01-29.819 71.99s32.853 47.436 61.819 47.436 54.323-19.456 61.82-47.436-4.734-57.507-29.82-71.99M399 448c-17.673 0-32-14.327-32-32s14.327-32 32-32 32 14.327 32 32-14.326 32-32 32m-191-64h-37c-15.463 0-28-12.536-28-28V152c25.342-14.028 38.103-43.328 31.113-71.438s-31.987-48.02-60.948-48.545-54.664 18.467-62.668 46.305C42.493 106.159 54.184 135.903 79 150.84V356c.055 50.787 41.212 91.945 91.999 92h37v55.21L293.39 416 208 328.79zM112 64c17.674 0 32 14.327 32 32s-14.326 32-32 32c-17.673 0-32-14.327-32-32s14.327-32 32-32" clip-rule="evenodd"/></svg>