<svg xmlns="http://www.w3.org/2000/svg" width="512" height="512" fill="none"><path fill="currentColor" fill-rule="evenodd" d="M48 272h97.134c7.764 54.277 54.442 96 110.866 96s103.102-41.723 110.866-96H464l.315-.003C473.006 271.829 480 264.731 480 256c0-8.837-7.163-16-16-16h-97.134c-7.764-54.277-54.442-96-110.866-96s-103.102 41.723-110.866 96H48l-.315.003C38.994 240.171 32 247.269 32 256c0 8.837 7.163 16 16 16m288-16c0-44.183-35.817-80-80-80s-80 35.817-80 80 35.817 80 80 80 80-35.817 80-80" clip-rule="evenodd"/></svg>