<svg xmlns="http://www.w3.org/2000/svg" width="512" height="512" fill="none"><path fill="currentColor" fill-rule="evenodd" d="M384 224a63.66 63.66 0 0 0-37.95 12.5L160 153.36v-2c25.086-14.483 37.316-44.01 29.819-71.99S156.967 31.934 128 31.934 73.678 51.39 66.18 79.37s4.734 57.507 29.82 71.99v209.25c-25.086 14.483-37.316 44.01-29.82 71.99 7.498 27.98 32.853 47.436 61.82 47.436s54.322-19.456 61.819-47.436-4.733-57.507-29.819-71.99V223.46l160.41 71.69c3.845 34.203 34.052 59.24 68.375 56.672s60.467-31.822 59.179-66.216S418.418 223.995 384 224M128 64c17.673 0 32 14.327 32 32s-14.327 32-32 32-32-14.327-32-32 14.327-32 32-32m0 384c-17.673 0-32-14.327-32-32s14.327-32 32-32 32 14.327 32 32-14.327 32-32 32m256-128c-17.673 0-32-14.327-32-32s14.327-32 32-32 32 14.327 32 32-14.327 32-32 32" clip-rule="evenodd"/></svg>