<svg xmlns="http://www.w3.org/2000/svg" width="512" height="512" fill="none"><path fill="currentColor" fill-rule="evenodd" d="M384 224a64 64 0 0 0-55.33 31.89c-42.23-1.21-85.19-12.72-116.21-31.33-32.2-19.32-49.71-44-52.15-73.35 24.976-14.607 37.045-44.154 29.439-72.07s-32.995-47.256-61.928-47.175c-28.933.08-54.214 19.564-61.663 47.522-7.45 27.958 4.785 57.436 29.842 71.903v209.22c-25.086 14.483-37.316 44.01-29.82 71.99 7.498 27.98 32.853 47.436 61.82 47.436s54.322-19.456 61.819-47.436-4.733-57.507-29.819-71.99v-94.46c44.76 34 107.28 52.38 168.56 53.76 15.495 26.938 48.101 38.853 77.313 28.25s46.586-40.659 41.194-71.264S415.077 223.982 384 224M128 64c17.673 0 32 14.327 32 32s-14.327 32-32 32-32-14.327-32-32 14.327-32 32-32m0 384c-17.673 0-32-14.327-32-32s14.327-32 32-32 32 14.327 32 32-14.327 32-32 32m256-128c-17.673 0-32-14.327-32-32s14.327-32 32-32 32 14.327 32 32-14.327 32-32 32" clip-rule="evenodd"/></svg>