<svg xmlns="http://www.w3.org/2000/svg" width="512" height="512" fill="none"><path fill="currentColor" fill-rule="evenodd" d="M64 96c0-35.346 28.654-64 64-64s64 28.654 64 64c0 29.488-19.943 54.319-47.078 61.739 4.48 32.743 25.146 60.043 59.31 80.541 32.436 19.462 75.152 31.252 117.875 33.373C329.331 244.226 354.304 224 384 224c35.346 0 64 28.654 64 64s-28.654 64-64 64c-29.936 0-55.071-20.553-62.065-48.318-48.231-2.176-96.632-15.441-134.167-37.962-17.327-10.397-32.044-22.527-43.768-36.2v124.496c27.604 7.105 48 32.163 48 61.984 0 35.346-28.654 64-64 64s-64-28.654-64-64c0-29.821 20.396-54.879 48-61.984V157.984C84.396 150.879 64 125.821 64 96m64 32c17.673 0 32-14.327 32-32s-14.327-32-32-32-32 14.327-32 32 14.327 32 32 32m224 160c0 17.673 14.327 32 32 32s32-14.327 32-32-14.327-32-32-32-32 14.327-32 32m-224 96c-17.673 0-32 14.327-32 32s14.327 32 32 32 32-14.327 32-32-14.327-32-32-32" clip-rule="evenodd"/></svg>