<svg xmlns="http://www.w3.org/2000/svg" width="512" height="512" fill="none"><path fill="currentColor" fill-rule="evenodd" d="M447.999 96c.018-31.018-22.21-57.584-52.745-63.038-30.535-5.455-60.586 11.772-71.309 40.878-10.723 29.105.969 61.711 27.744 77.37-1.79 20.87-11.47 38.1-28.87 51.29-17.75 13.5-42.73 21.5-66.82 21.5s-49.07-8-66.82-21.5c-17.4-13.19-27.08-30.42-28.87-51.29 24.996-14.616 37.065-44.193 29.43-72.123s-33.07-47.255-62.025-47.124c-28.954.13-54.214 19.685-61.596 47.683S71.073 137.111 96.2 151.5c2.08 40.87 21.17 76.87 54.31 102 20.79 15.76 46.49 26.69 73.49 31.59v75.52c-25.086 14.483-37.316 44.01-29.819 71.99s32.853 47.436 61.819 47.436 54.322-19.456 61.82-47.436-4.734-57.507-29.82-71.99v-75.52c27-4.9 52.7-15.83 73.49-31.59 33.14-25.13 52.23-61.13 54.31-102a64 64 0 0 0 32.2-55.5m-320-32c17.673 0 32 14.327 32 32s-14.327 32-32 32-32-14.327-32-32 14.327-32 32-32m128 384c-17.673 0-32-14.327-32-32s14.327-32 32-32 32 14.327 32 32-14.327 32-32 32m128-320c-17.673 0-32-14.327-32-32s14.327-32 32-32 32 14.327 32 32a32 32 0 0 1-32 32" clip-rule="evenodd"/></svg>