<svg xmlns="http://www.w3.org/2000/svg" width="512" height="512" fill="none"><path fill="currentColor" fill-rule="evenodd" d="M128 32c-35.346 0-64 28.654-64 64 0 30.093 20.769 55.334 48.755 62.173 3.667 33.868 20.545 62.195 47.422 82.577 22.459 17.031 50.939 27.578 79.823 30.451v82.815c-27.604 7.105-48 32.163-48 61.984 0 35.346 28.654 64 64 64s64-28.654 64-64c0-29.821-20.396-54.879-48-61.984v-82.815c28.884-2.873 57.364-13.42 79.823-30.451 26.877-20.382 43.755-48.709 47.422-82.577C427.231 151.334 448 126.093 448 96c0-35.346-28.654-64-64-64s-64 28.654-64 64c0 29.48 19.932 54.305 47.055 61.733-3.334 23.575-15.387 42.974-34.568 57.519C311.62 231.077 283.377 240 256 240l-.856-.003c-27.109-.184-54.981-9.085-75.631-24.745-19.181-14.545-31.234-33.944-34.568-57.519C172.068 150.305 192 125.48 192 96c0-35.346-28.654-64-64-64m256 96c17.673 0 32-14.327 32-32s-14.327-32-32-32-32 14.327-32 32 14.327 32 32 32M160 96c0 17.673-14.327 32-32 32s-32-14.327-32-32 14.327-32 32-32 32 14.327 32 32m64 320c0-17.673 14.327-32 32-32s32 14.327 32 32-14.327 32-32 32-32-14.327-32-32" clip-rule="evenodd"/></svg>