<svg xmlns="http://www.w3.org/2000/svg" width="512" height="512" fill="none"><path fill="currentColor" fill-rule="evenodd" d="M385.001 32a64 64 0 0 0-57.67 91.73l-70.83 80.82-70.19-80.1c12.711-25.614 6.889-56.552-14.264-75.793s-52.502-22.116-76.801-7.043c-24.3 15.073-35.652 44.436-27.811 71.935C75.275 141.047 100.406 160.008 129 160c1.1 0 2.2 0 3.29-.08l92.71 105.78v94.91c-25.086 14.483-37.317 44.01-29.819 71.99 7.497 27.98 32.852 47.436 61.819 47.436s54.322-19.456 61.819-47.436-4.733-57.507-29.819-71.99v-96.05l91.78-104.71c1.39.09 2.8.15 4.22.15 35.346 0 64-28.654 64-64s-28.654-64-64-64m-288 64c0-17.673 14.327-32 32-32s32 14.327 32 32-14.327 32-32 32-32-14.327-32-32m160 352c-17.673 0-32-14.327-32-32s14.327-32 32-32 32 14.327 32 32-14.327 32-32 32m128-320c-17.673 0-32-14.327-32-32s14.327-32 32-32 32 14.327 32 32a32 32 0 0 1-32 32" clip-rule="evenodd"/></svg>