<svg xmlns="http://www.w3.org/2000/svg" width="512" height="512" fill="none"><path fill="currentColor" fill-rule="evenodd" d="M417 371.61V167c-.055-50.787-41.213-91.945-92-92h-35V20.93L202.14 107 290 193.07V139h35c15.464 0 28 12.536 28 28v204.61c-25.086 14.483-37.316 44.01-29.819 71.99s32.852 47.436 61.819 47.436 54.322-19.456 61.819-47.436-4.733-57.507-29.819-71.99M385 459c-17.673 0-32-14.327-32-32s14.327-32 32-32 32 14.327 32 32-14.327 32-32 32M140.511 44.018C170.923 49.578 193.013 76.084 193 107a64.06 64.06 0 0 1-33 56v208.61c25.086 14.483 37.316 44.01 29.819 71.99S156.967 491.036 128 491.036 73.678 471.58 66.18 443.6s4.734-57.507 29.82-71.99v-209.8c-26.49-15.941-37.797-48.539-26.868-77.46S110.1 38.458 140.51 44.019M161 107c0-17.673-14.327-32-32-32s-32 14.327-32 32 14.327 32 32 32 32-14.327 32-32m-33 352c-17.673 0-32-14.327-32-32s14.327-32 32-32 32 14.327 32 32-14.327 32-32 32" clip-rule="evenodd"/></svg>