<svg xmlns="http://www.w3.org/2000/svg" width="512" height="512" fill="none"><path fill="currentColor" fill-rule="evenodd" d="M417 368.61V164c-.055-50.787-41.212-91.945-92-92h-20V40a16 16 0 0 0-27.31-11.31l-64 64c-6.243 6.248-6.243 16.372 0 22.62l64 64A16 16 0 0 0 305 168v-32h20c15.464 0 28 12.536 28 28v204.61c-25.086 14.483-37.316 44.01-29.819 71.99s32.853 47.436 61.819 47.436 54.323-19.456 61.82-47.436-4.734-57.507-29.82-71.99M385 456c-17.673 0-32-14.327-32-32s14.327-32 32-32 32 14.327 32 32-14.326 32-32 32M140.137 40.94C170.727 46.347 193.018 72.938 193 104a64 64 0 0 1-32 55.39v209.22c25.086 14.483 37.317 44.01 29.82 71.99s-32.853 47.436-61.82 47.436S74.678 468.58 67.181 440.6s4.734-57.507 29.82-71.99V159.39c-26.902-15.532-38.767-48.138-28.137-77.326s40.684-46.529 71.273-41.123M161 104c0-17.673-14.326-32-32-32-17.673 0-32 14.327-32 32s14.327 32 32 32 32-14.327 32-32m-32 352c-17.673 0-32-14.327-32-32s14.327-32 32-32 32 14.327 32 32-14.326 32-32 32" clip-rule="evenodd"/></svg>