<svg xmlns="http://www.w3.org/2000/svg" width="512" height="512" fill="none"><path fill="currentColor" fill-rule="evenodd" d="M276.686 28.686c6.249-6.248 16.379-6.248 22.628 0 6.161 6.162 6.247 16.099.256 22.365l-.256.263L262.627 88H324c41.554 0 75.319 33.349 75.99 74.743L400 164v198.016c27.604 7.105 48 32.163 48 61.984 0 35.346-28.654 64-64 64s-64-28.654-64-64c0-29.821 20.396-54.879 48-61.984V164c0-24.058-19.307-43.606-43.272-43.994L324 120h-61.373l36.687 36.686c6.161 6.162 6.247 16.099.256 22.365l-.256.263c-6.162 6.161-16.099 6.247-22.365.256l-.263-.256-64-64c-6.161-6.162-6.247-16.099-.256-22.365l.256-.263zM384 392c-17.673 0-32 14.327-32 32s14.327 32 32 32 32-14.327 32-32-14.327-32-32-32M128 136c17.673 0 32-14.327 32-32s-14.327-32-32-32-32 14.327-32 32 14.327 32 32 32m16 226.016V165.984c27.604-7.105 48-32.163 48-61.984 0-35.346-28.654-64-64-64s-64 28.654-64 64c0 29.821 20.396 54.879 48 61.984v196.032C84.396 369.121 64 394.179 64 424c0 35.346 28.654 64 64 64s64-28.654 64-64c0-29.821-20.396-54.879-48-61.984M128 392c-17.673 0-32 14.327-32 32s14.327 32 32 32 32-14.327 32-32-14.327-32-32-32" clip-rule="evenodd"/></svg>