<svg xmlns="http://www.w3.org/2000/svg" width="512" height="512" fill="none"><path fill="currentColor" fill-rule="evenodd" d="M414.39 97.61C357.896 40.558 275.188 18.105 197.6 38.758 120.011 59.411 59.411 120.012 38.758 197.6s1.8 160.296 58.852 216.79c56.493 57.053 139.201 79.505 216.79 58.852 77.588-20.653 138.188-81.254 158.842-158.842 20.653-77.588-1.8-160.296-58.852-216.79M176.6 430.85a219 219 0 0 1-12.48-19.66c-2-3.69-4.84-9.26-6.73-13.13a7.29 7.29 0 0 0-10.31-3.16c-4.3 2.41-10 5.72-14.13 8.43a147.3 147.3 0 0 1-23.57-22.43 249 249 0 0 1 30.41-18.36c1.86-1 2.77-2.14 2.18-4.18a374.8 374.8 0 0 1-14.09-82.17 4.36 4.36 0 0 0-4.3-4.17H66.84a2 2 0 0 1-2-1.7A98 98 0 0 1 64 256a96 96 0 0 1 .86-14.29 2 2 0 0 1 2-1.7h56.74c2.29 0 4.17-1.32 4.29-3.63a372.7 372.7 0 0 1 14-81.83 4.36 4.36 0 0 0-2.19-5.11 260.5 260.5 0 0 1-29.84-17.9 170 170 0 0 1 23.14-22.8c4.08 2.68 9.4 5.71 13.66 8.11a7.887 7.887 0 0 0 11-3.42c1.88-3.87 4-8.18 6.06-11.88a222 222 0 0 1 12.54-19.91A185 185 0 0 1 256 64c28.94 0 55.9 7 80.53 18.46a202 202 0 0 1 12 19c2.59 4.66 5.34 10.37 7.66 15.32a4.29 4.29 0 0 0 5.92 1.94c5.38-2.91 11.21-6.26 16.34-9.63a171.3 171.3 0 0 1 23.2 23 245 245 0 0 1-29.06 17.31 4.35 4.35 0 0 0-2.18 5.12 348.7 348.7 0 0 1 13.85 81.4 4.33 4.33 0 0 0 4.3 4.12l56.62-.07a2 2 0 0 1 2 1.7 117.5 117.5 0 0 1 0 28.62 2 2 0 0 1-2 1.72h-56.67a4.35 4.35 0 0 0-4.3 4.17 367.4 367.4 0 0 1-13.87 81.3 4.45 4.45 0 0 0 2.19 5.19c5 2.59 10.57 5.48 15.37 8.42s9.55 6.08 14.13 9.34a172.7 172.7 0 0 1-23 22.93c-2.44-1.61-5.34-3.44-7.84-4.94a499 499 0 0 0-5.415-3.066l-1.235-.694c-3.82-2.14-7.88-.54-9.79 3.4s-4.83 9.59-6.87 13.25a213 213 0 0 1-12.35 19.53C310.91 442.37 284.94 448 256 448s-54.77-5.63-79.4-17.15m146.9-296.21a236 236 0 0 1-46.5 9.14 4.43 4.43 0 0 1-4.91-4.3V74.25a4.48 4.48 0 0 1 6.76-3.7c15.1 8.65 28.95 24 41.24 46 1.479 2.655 3.31 6.341 4.894 9.528l.001.004h.001v.001c.449.904.878 1.768 1.274 2.557a4.302 4.302 0 0 1-2.76 6M235.6 272h-71.06a4.41 4.41 0 0 0-4.46 4.64c1.48 23.06 5.37 47.16 11.26 67.84a4.457 4.457 0 0 0 5.59 3 272.2 272.2 0 0 1 59-11.36 4.44 4.44 0 0 0 4.15-4.38V276.4a4.43 4.43 0 0 0-4.48-4.4m105.15 72.49c5.91-20.7 9.82-44.75 11.31-67.84a4.414 4.414 0 0 0-4.46-4.65h-71.06a4.43 4.43 0 0 0-4.47 4.39v55.3a4.44 4.44 0 0 0 4.14 4.38 273.5 273.5 0 0 1 59 11.39 4.45 4.45 0 0 0 5.54-2.97m-17.17 32.82a260 260 0 0 0-46.6-9.09 4.42 4.42 0 0 0-4.91 4.29v65.24a4.47 4.47 0 0 0 2.321 3.784c1.39.76 3.079.728 4.439-.084 15.9-9.27 29-24.84 40.84-45.43 1.94-3.36 4.89-9.15 6.67-12.69a4.293 4.293 0 0 0-2.76-6.02m-134.85-.09a257 257 0 0 1 46.56-8.82 4.162 4.162 0 0 1 4.78 4.08v65.27a4.472 4.472 0 0 1-6.76 3.7c-14.4-8.43-28.24-22.93-41.24-45.93-1.466-2.637-3.124-5.965-4.63-8.987v-.001c-.436-.874-.859-1.723-1.26-2.522-1.2-2.39-.09-6.03 2.55-6.79M276.54 240h71.06a4.39 4.39 0 0 0 4.46-4.58c-1.48-22.77-5.27-47.8-11.16-68.22a4.46 4.46 0 0 0-5.59-2.95c-19 5.74-38.79 10.43-59.09 12a4.4 4.4 0 0 0-4.15 4.32v55.11a4.4 4.4 0 0 0 4.47 4.32m-84.7-123.07c12.3-21.94 26.05-37.8 41.47-46.37a4.49 4.49 0 0 1 6.74 3.7v65.22a4.43 4.43 0 0 1-4.91 4.29 225.4 225.4 0 0 1-46.54-9.17 4.312 4.312 0 0 1-2.76-6 635 635 0 0 0 1.539-3.058c1.465-2.926 3.062-6.115 4.461-8.612m44.08 59.33c-20.3-1.55-40.11-6.24-59.09-12a4.457 4.457 0 0 0-5.59 2.95c-5.89 20.42-9.68 45.45-11.16 68.22a4.39 4.39 0 0 0 4.46 4.58h71.06a4.398 4.398 0 0 0 4.47-4.34v-55.09a4.4 4.4 0 0 0-4.15-4.32" clip-rule="evenodd"/></svg>