<svg xmlns="http://www.w3.org/2000/svg" width="512" height="512" fill="none"><path fill="currentColor" fill-rule="evenodd" d="M256 26C128.98 26 26 128.98 26 256s102.98 230 230 230 230-102.98 230-230S383.02 26 256 26m-96.744 71.111a186 186 0 0 0-18.847 13.162 209 209 0 0 0 9.405 5.517 246 246 0 0 1 9.442-18.679M71.288 234c4.045-34.324 17.437-65.788 37.561-91.776a251 251 0 0 0 25.788 15.338c-6.722 23.755-11.107 49.572-12.669 76.438zm0 44c4.045 34.324 17.437 65.788 37.561 91.776a251 251 0 0 1 25.788-15.338c-6.722-23.755-11.107-49.572-12.669-76.438zm94.76 0c1.363 20.809 4.634 40.9 9.56 59.573 18.741-5.895 38.322-9.732 58.392-11.356V278zM278 278v48.217c20.07 1.624 39.651 5.461 58.392 11.356 4.926-18.673 8.197-38.764 9.56-59.573zm67.952-44H278v-48.217c20.07-1.624 39.651-5.461 58.392-11.356 4.926 18.673 8.197 38.764 9.56 59.573m44.08 44c-1.562 26.866-5.947 52.683-12.669 76.438a251 251 0 0 1 25.788 15.338c20.124-25.988 33.516-57.452 37.561-91.776zm50.68-44h-50.68c-1.562-26.866-5.947-52.683-12.669-76.438a251 251 0 0 0 25.788-15.338c20.124 25.988 33.516 57.452 37.561 91.776M234 234h-67.952c1.363-20.809 4.634-40.9 9.56-59.573 18.741 5.895 38.322 9.732 58.392 11.356zm-93.591 167.727a186 186 0 0 0 18.847 13.162 246 246 0 0 1-9.442-18.679 209 209 0 0 0-9.405 5.517m49.951-22.663a203 203 0 0 0 6.761 13.329c11.268 20.286 24.139 34.691 36.879 42.58v-64.584c-14.986 1.45-29.603 4.374-43.64 8.675m124.519 13.329c-11.268 20.286-24.139 34.691-36.879 42.58v-64.584c14.986 1.45 29.603 4.374 43.64 8.675a203 203 0 0 1-6.761 13.329m6.761-259.457c-14.037 4.301-28.654 7.225-43.64 8.675V77.027c12.74 7.89 25.611 22.294 36.879 42.58a203 203 0 0 1 6.761 13.329M234 141.611V77.027c-12.74 7.89-25.611 22.294-36.879 42.58a203 203 0 0 0-6.761 13.329c14.037 4.301 28.654 7.225 43.64 8.675M362.186 396.21a246 246 0 0 1-9.442 18.679 186 186 0 0 0 18.847-13.162 209 209 0 0 0-9.405-5.517m0-280.42a209 209 0 0 0 9.405-5.517 186 186 0 0 0-18.847-13.162 246 246 0 0 1 9.442 18.679" clip-rule="evenodd"/></svg>