<svg xmlns="http://www.w3.org/2000/svg" width="512" height="512" fill="none"><path fill="currentColor" fill-rule="evenodd" d="M256 32C132.293 32 32 132.293 32 256s100.293 224 224 224 224-100.293 224-224S379.707 32 256 32m-79.552 49.206a192 192 0 0 0-43.507 27.413 214 214 0 0 0 21.198 12.234c6.487-14.696 13.985-28.033 22.309-39.647M64.658 240c3.399-41.202 19.81-78.717 45.113-108.425a245.5 245.5 0 0 0 33.101 19.404c-8.488 27.13-13.839 57.365-15.199 89.021zm0 32c3.399 41.202 19.81 78.717 45.113 108.425a245.5 245.5 0 0 1 33.101-19.404c-8.488-27.13-13.839-57.365-15.199-89.021zm95.045 0c1.266 27.155 5.729 53.262 12.866 76.872 21.471-7.228 44.137-11.666 67.431-13.063V272zM272 272v63.809c23.294 1.397 45.96 5.835 67.431 13.063 7.137-23.61 11.6-49.717 12.866-76.872zm80.297-32H272v-63.809c23.294-1.397 45.96-5.835 67.431-13.063 7.137 23.61 11.6 49.717 12.866 76.872m32.03 32c-1.36 31.656-6.711 61.891-15.199 89.021a245.5 245.5 0 0 1 33.101 19.404c25.303-29.708 41.714-67.223 45.114-108.425zm63.016-32h-63.016c-1.36-31.656-6.711-61.891-15.199-89.021a245.5 245.5 0 0 0 33.101-19.404c25.303 29.708 41.714 67.223 45.114 108.425M240 240h-80.297c1.266-27.155 5.729-53.262 12.866-76.872 21.471 7.228 44.137 11.666 67.431 13.063zM132.941 403.381a192.1 192.1 0 0 0 43.507 27.413c-8.324-11.614-15.822-24.951-22.309-39.647a214 214 0 0 0-21.198 12.234m50.751-24.487a212 212 0 0 0 8.184 16.413c14.273 25.696 31.314 42.69 48.124 49.427v-76.86c-19.455 1.328-38.367 5.067-56.308 11.02m136.432 16.413c-14.273 25.696-31.314 42.69-48.124 49.427v-76.86c19.455 1.328 38.367 5.067 56.308 11.02a212 212 0 0 1-8.184 16.413m8.184-262.201c-17.941 5.953-36.853 9.692-56.308 11.02v-76.86c16.81 6.737 33.851 23.731 48.124 49.427a212 212 0 0 1 8.184 16.413M240 144.126v-76.86c-16.81 6.737-33.851 23.731-48.124 49.427a212 212 0 0 0-8.184 16.413c17.941 5.953 36.853 9.692 56.308 11.02m117.861 247.021c-6.487 14.696-13.985 28.033-22.309 39.647a192.1 192.1 0 0 0 43.507-27.413 214 214 0 0 0-21.198-12.234m0-270.294a214 214 0 0 0 21.198-12.234 192 192 0 0 0-43.507-27.413c8.324 11.614 15.822 24.951 22.309 39.647" clip-rule="evenodd"/></svg>