<svg xmlns="http://www.w3.org/2000/svg" width="24" height="24" fill="none"><path fill="currentColor" d="M12 24c6.627 0 12-5.373 12-12S18.627 0 12 0c-1.642 0-3.207.33-4.633.927l1.62 1.535C9.938 2.162 10.95 2 12 2c5.523 0 10 4.477 10 10s-4.477 10-10 10S2 17.523 2 12a10 10 0 0 1 .5-3.133L.96 7.29A12 12 0 0 0 0 12c0 6.627 5.373 12 12 12"/><path fill="currentColor" d="M4.297 9.219a8.188 8.188 0 1 0 5.06-4.97l.729 1.865a6.187 6.187 0 1 1-4.017 4.116L5.188 9.22z"/><path fill="currentColor" d="M7.375 12q0-.391.063-.766l2.277 2.06A2.624 2.624 0 0 0 14.625 12 2.62 2.62 0 0 0 13.6 9.919l-1.952-2.53A4.625 4.625 0 1 1 7.375 12"/><path fill="currentColor" d="m1.375 1.313.656-.344 1.625 1.5.156-1.313.97-.187L7.5 3.938v2.375l5.438 5.343v.813l-.47.219-.78.187-5.47-5.469H3.657L.97 4.72l.219-.969h1.5L.968 2.125z"/></svg>