<svg xmlns="http://www.w3.org/2000/svg" width="512" height="512" fill="none"><path fill="currentColor" fill-rule="evenodd" d="M240 32c0-11.52 11.788-19.226 22.302-14.707l.318.141 176 80c12.381 5.628 12.505 23.093.372 28.958l-.372.174L272 202.301v118.156c41.563 2.376 81.794 13.966 114.549 33.615 40.689 24.409 68.059 59.987 76.789 103.524C467.343 477.583 453.329 496 432 496H80c-21.324 0-35.333-18.421-31.328-38.404 8.724-43.536 36.09-79.115 76.779-103.524 32.754-19.649 72.985-31.239 114.549-33.615V192.368l-.004-.249.001-.311.003-.133zm0 320.516c-35.901 2.319-70.404 12.39-98.087 28.997-33.331 19.996-55.015 48.186-61.865 82.371l-.021.116h351.955l-.02-.114c-6.786-33.844-28.11-61.813-60.878-81.771l-.997-.602C342.404 364.906 307.9 354.835 272 352.516V400c0 8.731-6.994 15.829-15.686 15.997L256 416c-8.732 0-15.83-6.994-15.997-15.685L240 400zm32-295.669v110.305L393.335 112z" clip-rule="evenodd"/></svg>