<svg xmlns="http://www.w3.org/2000/svg" width="512" height="512" fill="none"><path fill="currentColor" fill-rule="evenodd" d="M272 202.3V320c41.88 2.4 82.05 14.15 114.55 33.7 41.67 25.06 68.22 60.95 76.78 103.8a32.5 32.5 0 0 1-6.43 27.08C450.88 491.95 442 496 432 496H80c-10 0-18.87-4-24.89-11.42a32.49 32.49 0 0 1-6.44-27.08c8.56-42.85 35.11-78.74 76.78-103.8 32.5-19.55 72.67-31.3 114.55-33.7V32a16 16 0 0 1 22.62-14.57l176 80a16 16 0 0 1 0 29.14zm-32 118.16v79.29c0 8.837 7.163 16 16 16s16-7.163 16-16v-79.29a267 267 0 0 0-16-.46q-8 .01-16 .46" clip-rule="evenodd"/></svg>