<svg xmlns="http://www.w3.org/2000/svg" width="512" height="512" fill="none"><g clip-path="url(#a)"><path fill="#4285F4" d="M506.538 261.76c0-16.854-1.493-32.854-4.053-48.427H261.418v96.213h138.027c-6.187 31.574-24.32 58.24-51.2 76.374v64h82.346c48.214-44.587 75.947-110.294 75.947-188.16"/><path fill="#34A853" d="M261.398 512.001c69.12 0 126.933-23.04 169.173-62.08l-82.346-64c-23.04 15.36-52.267 24.747-86.827 24.747-66.773 0-123.307-45.014-143.573-105.814H32.918v65.92c42.027 83.627 128.427 141.227 228.48 141.227"/><path fill="#FBBC05" d="M117.845 304.856c-5.334-15.36-8.107-31.787-8.107-48.853s2.987-33.494 8.107-48.854v-65.92H32.938c-17.493 34.56-27.52 73.387-27.52 114.774s10.027 80.213 27.52 114.773z"/><path fill="#EA4335" d="M261.398 101.333c37.76 0 71.467 13.014 98.133 38.4l72.96-72.96C388.331 25.387 330.518 0 261.398 0 161.345 0 74.945 57.6 32.918 141.227l84.907 65.92c20.266-60.8 76.8-105.814 143.573-105.814"/></g><defs><clipPath id="a"><path fill="#fff" d="M0 0h512v512H0z"/></clipPath></defs></svg>