<svg xmlns="http://www.w3.org/2000/svg" width="512" height="512" fill="none"><path fill="currentColor" fill-rule="evenodd" d="M68 240h136c19.882 0 36-16.118 36-36V68c0-19.882-16.118-36-36-36H68c-19.882 0-36 16.118-36 36v136c0 19.882 16.118 36 36 36m240 0h136c19.882 0 36-16.118 36-36V68c0-19.882-16.118-36-36-36H308c-19.882 0-36 16.118-36 36v136c0 19.882 16.118 36 36 36M204 480H68c-19.882 0-36-16.118-36-36V308c0-19.882 16.118-36 36-36h136c19.882 0 36 16.118 36 36v136c0 19.882-16.118 36-36 36m104 0h136c19.882 0 36-16.118 36-36V308c0-19.882-16.118-36-36-36H308c-19.882 0-36 16.118-36 36v136c0 19.882 16.118 36 36 36" clip-rule="evenodd"/></svg>