<svg xmlns="http://www.w3.org/2000/svg" width="512" height="512" fill="none"><path fill="currentColor" fill-rule="evenodd" d="M204 32H68c-19.882 0-36 16.118-36 36v136c0 19.882 16.118 36 36 36h136c19.882 0 36-16.118 36-36V68c0-19.882-16.118-36-36-36M68 64h136a4 4 0 0 1 4 4v136a4 4 0 0 1-4 4H68a4 4 0 0 1-4-4V68a4 4 0 0 1 4-4m376-32H308c-19.882 0-36 16.118-36 36v136c0 19.882 16.118 36 36 36h136c19.882 0 36-16.118 36-36V68c0-19.882-16.118-36-36-36M308 64h136a4 4 0 0 1 4 4v136a4 4 0 0 1-4 4H308a4 4 0 0 1-4-4V68a4 4 0 0 1 4-4M68 272h136c19.882 0 36 16.118 36 36v136c0 19.882-16.118 36-36 36H68c-19.882 0-36-16.118-36-36V308c0-19.882 16.118-36 36-36m136 32H68a4 4 0 0 0-4 4v136a4 4 0 0 0 4 4h136a4 4 0 0 0 4-4V308a4 4 0 0 0-4-4m240-32H308c-19.882 0-36 16.118-36 36v136c0 19.882 16.118 36 36 36h136c19.882 0 36-16.118 36-36V308c0-19.882-16.118-36-36-36m-136 32h136a4 4 0 0 1 4 4v136a4 4 0 0 1-4 4H308a4 4 0 0 1-4-4V308a4 4 0 0 1 4-4" clip-rule="evenodd"/></svg>