<svg xmlns="http://www.w3.org/2000/svg" width="24" height="25" fill="none"><path fill="currentColor" d="M8.517 9.596a5.1 5.1 0 0 1 2.098 0l.712-.712a.73.73 0 1 1 1.032 1.032l-.25.25c.902.519 1.625 1.3 2.072 2.24h1.221a.73.73 0 1 1 0 1.46h-.78q.05.356.05.729v.73h.73a.73.73 0 1 1 0 1.46h-.73v.728q0 .371-.05.73h.78a.73.73 0 0 1 0 1.46h-1.221a5.107 5.107 0 0 1-9.23-.002H3.73a.73.73 0 1 1 0-1.46h.78a5 5 0 0 1-.05-.728v-.73h-.73a.73.73 0 1 1 0-1.46h.73v-.728q0-.372.05-.73h-.78a.73.73 0 0 1 0-1.46h1.22a5.13 5.13 0 0 1 2.073-2.24l-.25-.25a.73.73 0 1 1 1.032-1.032zm1.049 1.35a3.65 3.65 0 0 0-3.648 3.649v2.918a3.648 3.648 0 0 0 7.296 0v-2.918a3.65 3.65 0 0 0-3.648-3.648m-2.189 6.567a.73.73 0 0 1 .73-.73h2.918a.73.73 0 1 1 0 1.46H8.107a.73.73 0 0 1-.73-.73m0-2.918a.73.73 0 0 1 .73-.73h2.918a.73.73 0 1 1 0 1.46H8.107a.73.73 0 0 1-.73-.73M16.908 3.556a2.8 2.8 0 0 1 1.127 0l.383-.383a.392.392 0 0 1 .555.555l-.134.134c.484.279.873.699 1.113 1.204h.656a.392.392 0 1 1 0 .784h-.42q.028.192.028.392v.392h.392a.392.392 0 1 1 0 .784h-.392v.392q0 .2-.027.392h.42a.392.392 0 0 1 0 .784h-.657a2.744 2.744 0 0 1-4.96 0h-.657a.392.392 0 0 1 0-.784h.42a3 3 0 0 1-.028-.392v-.392h-.392a.392.392 0 0 1 0-.784h.393v-.392q0-.2.027-.392h-.42a.392.392 0 0 1 0-.784h.657c.24-.505.628-.925 1.113-1.204l-.134-.135a.392.392 0 1 1 .555-.554zm.564.726a1.96 1.96 0 0 0-1.96 1.96V7.81a1.96 1.96 0 0 0 3.92 0V6.242a1.96 1.96 0 0 0-1.96-1.96M16.296 7.81c0-.216.175-.392.392-.392h1.568a.392.392 0 0 1 0 .784h-1.568a.39.39 0 0 1-.392-.392m0-1.568c0-.216.175-.392.392-.392h1.568a.392.392 0 0 1 0 .784h-1.568a.39.39 0 0 1-.392-.392M9.782 3.292c.223-.046.454-.046.678 0l.23-.23a.236.236 0 1 1 .333.333l-.08.081c.29.168.524.42.669.724h.394a.236.236 0 1 1 0 .471h-.252q.016.116.017.236v.236h.235a.236.236 0 1 1 0 .471h-.236v.236q0 .12-.016.235h.252a.236.236 0 1 1 0 .471h-.394a1.65 1.65 0 0 1-2.982 0h-.394a.236.236 0 1 1 0-.471h.252a2 2 0 0 1-.017-.235v-.236h-.235a.236.236 0 0 1 0-.471h.235v-.236q0-.12.017-.236h-.252a.236.236 0 1 1 0-.471h.394c.145-.304.378-.556.67-.724l-.081-.08a.236.236 0 1 1 .333-.333zm.339.437a1.18 1.18 0 0 0-1.178 1.178v.943a1.178 1.178 0 1 0 2.356 0v-.943a1.18 1.18 0 0 0-1.178-1.178m-.707 1.885h1.414v.471H9.414zm0-.943h1.414v.472H9.414z"/></svg>