<svg xmlns="http://www.w3.org/2000/svg" width="512" height="512" fill="none"><path fill="currentColor" fill-rule="evenodd" d="M347.54 198.25v-16.712c0-34.677-19.383-64.912-47.883-80.441C309.778 90.351 316.001 75.893 316.001 60c0-33.084-26.916-60-60-60s-60 26.916-60 60c0 15.893 6.223 30.351 16.345 41.097-28.5 15.529-47.883 45.764-47.883 80.441v16.712c0 8.284 6.716 15 15 15H332.54c8.284 0 15-6.716 15-15M226.001 60c0-16.542 13.458-30 30-30s30 13.458 30 30-13.458 30-30 30-30-13.458-30-30m-31.539 123.25c0-37.859 29.23-63.25 61.539-63.25 32.135 0 61.539 25.19 61.539 63.25zM168.077 512H15c-8.284 0-15-6.716-15-15v-16.712c0-34.677 19.383-64.912 47.884-80.441-10.122-10.746-16.345-25.204-16.345-41.097 0-33.084 26.916-60 60-60s60 26.916 60 60c0 15.893-6.223 30.351-16.345 41.097 28.5 15.529 47.883 45.764 47.883 80.441V497c0 8.284-6.716 15-15 15M91.539 328.75c-16.542 0-30 13.458-30 30s13.458 30 30 30 30-13.458 30-30-13.458-30-30-30M153.077 482c0-38.057-29.401-63.25-61.538-63.25C59.23 418.75 30 444.141 30 482zM480.462 358.75c0 15.893-6.223 30.351-16.345 41.097 28.5 15.529 47.883 45.764 47.883 80.441V497c0 8.284-6.716 15-15 15H343.924c-8.284 0-15-6.716-15-15v-16.712c0-34.678 19.383-64.912 47.883-80.441-10.122-10.746-16.345-25.204-16.345-41.097 0-33.084 26.916-60 60-60s60 26.916 60 60m-60.001-30c-16.542 0-30 13.458-30 30s13.458 30 30 30 30-13.458 30-30-13.458-30-30-30M358.923 482H482c0-38.06-29.403-63.25-61.539-63.25-32.308 0-61.538 25.391-61.538 63.25" clip-rule="evenodd"/><path fill="currentColor" d="M255.181 388.75c21.156 0 41.821-3.263 61.418-9.701 7.871-2.587 16.347 1.699 18.932 9.569s-1.699 16.347-9.57 18.932c-22.624 7.431-46.438 11.199-70.781 11.199-23.488 0-46.523-3.519-68.463-10.458-7.898-2.498-12.276-10.927-9.778-18.825s10.924-12.273 18.825-9.778c19.011 6.013 39.002 9.062 59.417 9.062M117.73 124.31c-16.566 15.969-30.65 34.533-41.858 55.178-11.617 21.395-19.668 44.121-23.932 67.548-1.671 9.181 5.374 17.688 14.775 17.688 7.108 0 13.422-5.075 14.74-12.316 3.694-20.293 10.686-40.011 20.781-58.605 9.743-17.943 21.96-34.057 36.314-47.893 5.964-5.749 6.139-15.245.39-21.21-5.75-5.964-15.245-6.139-21.21-.39M373.06 124.7c5.749-5.964 15.245-6.14 21.21-.39 16.566 15.968 30.649 34.533 41.858 55.178 11.616 21.395 19.668 44.121 23.932 67.548 1.483 8.149-3.922 15.96-12.072 17.443-8.161 1.484-15.961-3.93-17.443-12.071-3.694-20.292-10.685-40.01-20.781-58.605-9.742-17.944-21.96-34.057-36.314-47.893-5.965-5.749-6.139-15.245-.39-21.21"/></svg>