<svg xmlns="http://www.w3.org/2000/svg" width="512" height="512" fill="none"><g fill="currentColor" clip-path="url(#a)"><path d="M183.272 209.548c-7.931 0-14.353-6.45-14.354-14.413v-15.707c0-41.248 32.771-76.769 77.285-76.769-23.539-4.706-41.286-25.557-41.286-50.584 0-28.485 23.004-51.574 51.372-51.574s51.372 23.089 51.372 51.574c0 25.027-17.747 45.878-41.286 50.584 44.572 0 77.285 35.576 77.285 76.769v15.707c0 7.964-6.423 14.413-14.354 14.413zM67.218 250.013q-1.337.001-2.7-.246c-8.14-1.488-13.54-9.321-12.059-17.496 4.26-23.498 12.302-46.292 23.905-67.75 11.196-20.706 25.264-39.326 41.811-55.343 5.958-5.766 15.443-5.591 21.186.391s5.569 15.508-.389 21.274c-14.337 13.877-26.541 30.039-36.273 48.036-10.084 18.649-17.068 38.426-20.757 58.78-1.317 7.264-7.624 12.354-14.724 12.354M409.88 178.878c10.084 18.65 17.068 38.426 20.757 58.78 1.317 7.265 7.623 12.354 14.724 12.354.89 0 1.793-.08 2.7-.246 8.141-1.488 13.54-9.321 12.058-17.496-4.259-23.498-12.302-46.293-23.905-67.75-11.196-20.706-25.264-39.327-41.811-55.343-5.958-5.767-15.443-5.591-21.186.391s-5.568 15.507.389 21.274c14.338 13.877 26.542 30.039 36.274 48.036M256.29 374.4c20.846-.07 41.203-3.34 60.531-9.719 7.861-2.598 16.332 1.705 18.909 9.597 2.587 7.894-1.698 16.399-9.559 18.987-22.345 7.372-45.848 11.144-69.881 11.234h-.819c-23.464 0-46.468-3.53-68.383-10.491-7.891-2.507-12.266-10.952-9.769-18.876s10.908-12.317 18.799-9.809c18.989 6.028 38.966 9.087 59.353 9.087l.356-.001q.234 0 .463-.009M97.455 404.61c23.54-4.707 41.288-25.565 41.288-50.584 0-28.485-23.004-51.584-51.372-51.584s-51.372 23.099-51.372 51.584c0 25.019 17.748 45.877 41.288 50.584C32.811 404.61 0 440.095 0 481.38v15.707c0 7.954 6.423 14.413 14.354 14.413h146.034c7.931 0 14.354-6.459 14.354-14.413V481.38c0-41.111-32.624-76.77-77.287-76.77M476.002 354.026c0 25.019-17.748 45.877-41.288 50.584 44.572 0 77.287 35.573 77.286 76.77v15.706c0 7.954-6.433 14.413-14.354 14.413H351.612c-7.931 0-14.354-6.459-14.354-14.413v-15.707c0-41.201 32.707-76.769 77.285-76.769-23.544-4.707-41.285-25.565-41.285-50.584 0-28.485 22.994-51.584 51.372-51.584 28.368 0 51.372 23.099 51.372 51.584"/></g><defs><clipPath id="a"><path fill="#fff" d="M0 0h512v512H0z"/></clipPath></defs></svg>