<svg xmlns="http://www.w3.org/2000/svg" width="512" height="512" fill="none"><path fill="currentColor" d="M122.074 140.443a1 1 0 0 0-.158-.214z"/><path fill="currentColor" fill-rule="evenodd" d="M332.288 277.292c17.014-23.369 26.512-54.937 20.331-92.219 17.947-4.162 33.034-9.499 43.926-15.747C407.915 162.803 416 154.511 416 144.5c0-5.491-2.475-10.49-6.461-14.868-3.966-4.355-9.594-8.295-16.43-11.828-13.162-6.802-31.494-12.448-53.156-16.53C329.163 58.542 297.335 24 255 24c-42.401 0-74.261 34.648-85.003 77.473-21.374 4.099-39.449 9.729-52.424 16.496-6.742 3.517-12.293 7.435-16.204 11.765-3.933 4.353-6.37 9.318-6.37 14.766 0 9.972 8.024 18.238 19.315 24.745 10.81 6.23 25.783 11.556 43.599 15.719-6.217 37.329 3.283 68.936 20.313 92.328 19.755 27.134 50.094 43.597 76.757 43.707h.011l.5.001h.020999999999999998c26.667-.104 57.014-16.569 76.773-43.708M122.074 140.443c-.088-.141-.148-.212-.158-.214zm-.158 8.327c.008 0 .069-.07.158-.213-.09.144-.15.214-.158.213m184.502 109.687C291.477 278.979 269.96 289 255.263 289h-.012c-14.697 0-36.214-10.021-51.155-30.543-11.873-16.309-19.353-39.076-14.698-67.758C209.533 193.462 231.923 195 255.5 195c23.391 0 45.615-1.514 65.626-4.236 4.633 28.651-2.843 51.397-14.708 67.693M198 134c0-47.029 29.009-78 57-78 27.99 0 57 30.971 57 78 0 8.837 7.163 16 16 16 8.576 0 15.576-6.747 15.981-15.223 5.065 1.144 9.812 2.377 14.206 3.683 6.769 2.011 12.285 4.074 16.639 6.04-4.354 1.966-9.87 4.029-16.639 6.04C333.109 157.991 296.796 163 255.5 163s-77.609-5.009-102.687-12.46c-6.769-2.011-12.285-4.074-16.639-6.04 4.354-1.966 9.87-4.029 16.639-6.04a219 219 0 0 1 13.218-3.458C166.548 143.372 173.5 150 182 150c8.836 0 16-7.163 16-16M416.965 476.001c12.957 0 23.824-6.674 29.569-16.167 5.787-9.564 6.322-21.949-1.291-32.788-42.94-61.14-111.908-100.866-189.743-100.866-77.836 0-146.803 39.726-189.744 100.866-7.612 10.839-7.078 23.224-1.29 32.788 5.745 9.493 16.611 16.167 29.568 16.167zM255.5 358.18c65.895 0 124.936 33.256 162.464 85.716a4.5 4.5 0 0 1-.999.105H94.035c-.395 0-.725-.042-1-.105 37.529-52.46 96.57-85.716 162.465-85.716" clip-rule="evenodd"/></svg>