<svg xmlns="http://www.w3.org/2000/svg" width="512" height="512" fill="none"><path fill="currentColor" d="M186.115 102.808C196.105 66.225 223.174 40 255 40c31.782 0 58.82 26.152 68.843 62.656C376.03 110.195 412 126.1 412 144.5c0 16.904-30.359 31.702-75.76 39.842C350.643 259.148 294.027 305 255.5 305h-.248c-38.541 0-95.39-45.886-80.957-120.742C129.151 176.101 99 161.347 99 144.5c0-18.278 35.492-34.092 87.115-41.692M441.97 429.345c13.279 18.906-1.9 42.656-25.005 42.656H94.035c-23.105 0-38.284-23.75-25.005-42.656 42.257-60.166 110.047-99.165 186.47-99.165s144.213 38.999 186.47 99.165"/></svg>