<svg xmlns="http://www.w3.org/2000/svg" width="512" height="512" fill="none"><path fill="currentColor" fill-rule="evenodd" d="m258.602 32.923-1.065-.004c-25.884 0-50.557 9.953-64.372 22.322l-.729.661-.525.489a86 86 0 0 0-4.962 5.111 135 135 0 0 0-5.873 7.025l-.641.824a107 107 0 0 0-1.853 2.464c-9.255 12.778 3.615 29.821 18.439 24.417l1.096-.39a75 75 0 0 1 6.688-1.98l1.041-.248a63.5 63.5 0 0 1 18.454-1.16l.571.051c11.856 1.124 27.059 6.848 34.875 12.791l.308.237-.064-.051c11.773 9.441 17.372 22.026 18.299 41.124.407 8.486-8.977 23.835-26.438 43.558a23.75 23.75 0 0 0-5.754 12.416 36.92 36.92 0 0 0-31.868 9.871l-26.175 25.767-13.139 12.971C139.237 286.485 66.782 351.886 27.404 385.052c-6.831 5.716-10.977 14.08-11.391 23.028a32 32 0 0 0 9.25 24.019l38.982 39.412c6.369 6.389 15.054 9.805 24.006 9.469a32.13 32.13 0 0 0 23.187-11.197l2.172-2.547c36.029-42.153 99.003-111.193 132.927-144.715l7.539-7.437 30.913-30.666a37.76 37.76 0 0 0 10.155-33.627 23.85 23.85 0 0 0 12.205-5.998l.401-.378 1.546-1.492c14.12-13.57 29.028-26.214 36.523-30.828l.498-.303c5.623-3.387 10.485-5.038 13.896-5.471l.207-.024.357-.03a19.7 19.7 0 0 1 10.905 2.365l.121.068.01.052c.027.205-.037.565-.282.863l-.059.064-1.801 1.702q-.117.111-.233.225a21.5 21.5 0 0 0 0 30.648l34.27 33.961.325.313a21.53 21.53 0 0 0 14.879 5.905l-.15-.003a21.66 21.66 0 0 0 15.308-6.056l55.612-54.998q.188-.186.371-.379c7.96-8.414 7.96-21.58 0-29.994l-.174-.181-.128-.129-.058-.058-34.31-34-.312-.305c-3.99-3.826-9.375-5.965-14.963-5.922l-.091.002-.102-.001a21.6 21.6 0 0 0-12.329 3.944l-.293.211.217-3.159.021-.343c.551-9.154-.349-15.739-5.046-22.533l-.286-.407-.13-.179-.062-.084a259 259 0 0 0-24.6-28.48l-1.121-1.104c-7.164-7-15.597-14.257-26.718-22.295-17.268-12.48-36.915-23.635-58.986-32.636a139.8 139.8 0 0 0-51.98-10.42M257.55 64.92a107.8 107.8 0 0 1 40.925 8.046c19.63 8.005 37.068 17.905 52.348 28.949l1.594 1.161c9.431 6.926 16.483 13.101 22.408 18.976l1.156 1.165a227 227 0 0 1 19.363 22.423l.296.394.018.308c.024.58.01 1.383-.051 2.487l-.143 2.151-.132 1.939c-.248 3.91-.246 6.056.125 9.045.726 5.86 2.951 11.151 7.204 15.493l.454.452c5.644 5.46 13.003 8.225 21.159 9.202l.71.083a27.4 27.4 0 0 0 13.41-1.865l.339-.142 20.996 20.805-40.751 40.303-20.146-19.963.262-.43c7.372-12.322 6.165-28.525-4.156-39.359l-.378-.389-.371-.375a29.7 29.7 0 0 0-5.665-4.377l-.442-.258a51.7 51.7 0 0 0-30.843-6.69l-.188.02c-8.171.888-17.896 4.145-28.008 10.371l-.389.241c-8.739 5.464-22.211 16.66-35.805 29.341l-1.63 1.527-10.379-10.376.355-.418c7.111-8.409 12.876-16.118 17.51-23.698 7.875-12.881 12.103-24.803 11.547-36.398-1.347-27.727-10.785-48.943-30.241-64.546l-.628-.49c-7.557-5.803-18.048-10.962-29.051-14.545l-.484-.156.573-.06a73 73 0 0 1 7.129-.347m-15.627 169.562a5.6 5.6 0 0 1 1.663 1.17l.179.179 18.225 17.976.208.22q.582.637 1.026 1.376l.061.104.016.034a5.76 5.76 0 0 1-.953 6.254l-.186.195-29.431 29.197a4818 4818 0 0 1-8.661 8.547l-2.159 2.142c-35.827 35.68-99.399 105.506-134.807 147.126.01-.011 0-.009-.016-.005q-.017.004-.039.005a.13.13 0 0 1-.097-.038L47.98 409.561l2.44-2.062c39.673-33.581 108.513-95.733 144.771-131.363l41.25-40.648a4.93 4.93 0 0 1 5.483-1.006" clip-rule="evenodd"/></svg>