<svg xmlns="http://www.w3.org/2000/svg" width="512" height="512" fill="none"><path fill="currentColor" fill-rule="evenodd" d="m456.44 151.75 43.89 43.58a8 8 0 0 1-.06 11.36l-74.68 74.2a8 8 0 0 1-11.28 0l-43.95-43.68a21.523 21.523 0 0 1-.05-30.54l.3-.28 1.82-1.73c.232-.259.344-.604.31-.95a19.2 19.2 0 0 0-11.29-2.38c-1.51.16-7.01 1.07-14.7 5.8-3.659 2.267-18.228 15.575-29.899 26.235l-4.771 4.355a8 8 0 0 1-11-.25l-45.37-45.37a8 8 0 0 1-.61-10.62c14.64-18.49 24.36-35.61 24.16-39.84-.93-19-6.56-31.68-18.26-41.09-6.9-5.45-22.5-12-35.69-13.09a62.7 62.7 0 0 0-18.45 1.15C201.06 90 193 92 193 92l-16-9.83a53.4 53.4 0 0 1 16.81-31.49C203 42.24 227 28 258.56 28a139.6 139.6 0 0 1 53.1 10.43c44.41 18.11 73.4 42.82 86.72 55.94q.044.035.08.08a258 258 0 0 1 24.8 28.74c6.332 8.874 5.654 18.664 5.204 25.164l-.004.056q-.014.161-.032.334c-.028.281-.058.581-.058.886a21.9 21.9 0 0 1 12.79-4.14 21.46 21.46 0 0 1 15.28 6.26m-215.58 46.74 54.42 54.41a12 12 0 0 1-.02 16.99L96.45 480.25a12 12 0 0 1-17.22.23L13.18 414.2a12 12 0 0 1 .27-17.2l210.41-198.51a12 12 0 0 1 17 0" clip-rule="evenodd"/></svg>