<svg xmlns="http://www.w3.org/2000/svg" width="512" height="512" fill="none"><path fill="currentColor" fill-rule="evenodd" d="m489.691 189.69.31.31c7.881 8.32 8.003 21.313.28 29.78-.18.2-.37.4-.56.59l-55.5 54.82a21.7 21.7 0 0 1-15.22 6.2 21.45 21.45 0 0 1-15.28-6.25l-34.26-33.91a21.523 21.523 0 0 1-.05-30.54l.3-.28 1.82-1.73c.232-.259.344-.604.31-.95a19.2 19.2 0 0 0-11.29-2.38c-1.51.16-7.01 1.07-14.7 5.8-5.18 3.21-20 16.31-29.73 25-6.334 5.671-15.996 5.398-22-.62l-34.41-34.41a16 16 0 0 1-1.45-21c12.28-16.34 20.18-30.66 20-34.48-.93-19-6.56-31.68-18.26-41.09-6.9-5.45-22.5-12-35.69-13.09a63.5 63.5 0 0 0-18.45 1.15 74 74 0 0 0-8.58 2.63 16 16 0 0 1-18.65-24.34 120 120 0 0 1 14.18-16.22c9.19-8.44 33.19-22.68 64.75-22.68a139.6 139.6 0 0 1 53.08 10.45c44.41 18.11 73.4 42.82 86.72 55.94q.044.035.08.08a258 258 0 0 1 24.8 28.74c6.331 8.874 5.654 18.664 5.203 25.164l-.003.056q-.014.161-.032.334c-.028.281-.058.581-.058.886a21.9 21.9 0 0 1 12.79-4.14 21.46 21.46 0 0 1 15.28 6.26zm-235.64 26.98 26.11 26.12a32 32 0 0 1-.11 45.34l-168.7 180.7c-6.32 6.67-14.28 10.84-23.17 11.17H87a32.3 32.3 0 0 1-22.69-9.42.5.5 0 0 1-.07-.07l-39-39.43a32.1 32.1 0 0 1-9.21-23.94c.4-8.89 4.74-16.83 11.35-23.06l181.53-167.53c12.516-12.387 32.689-12.334 45.14.12" clip-rule="evenodd"/></svg>