<svg xmlns="http://www.w3.org/2000/svg" width="512" height="512" fill="none"><path fill="currentColor" fill-rule="evenodd" d="M271.999 0c22.136 0 40.771 14.984 46.319 35.361A47.9 47.9 0 0 1 335.999 32c26.245 0 47.57 21.063 47.994 47.206l.006.794v18.731a47.9 47.9 0 0 1 16-2.731c26.245 0 47.57 21.063 47.994 47.206l.006.794v176c0 60.609-16.316 109.287-47.229 142.862C370.965 495.234 328.925 512 279.999 512c-44.836 0-79.81-9.744-106.654-28.804-23.276-16.527-39.603-39.194-52.102-69.01l-.139-.343-.131-.347-52.655-143.957c-9.489-25.718-3.415-50.331 18.976-63.05 23.492-13.35 53.8-5.752 66.374 18.139q.227.43.426.873l.193.446 5.712 13.763V96c0-26.51 21.49-48 48-48 5.61 0 10.996.962 16 2.731V48c0-26.51 21.49-48 48-48m-80.19 322.472c.147-.934.212-1.886.19-2.843V96l.003-.315C192.17 86.994 199.268 80 207.999 80c8.837 0 16 7.163 16 16v145l.003.315c.168 8.691 7.266 15.685 15.997 15.685 8.837 0 16-7.163 16-16V48l.003-.315C256.17 38.994 263.268 32 271.999 32c8.837 0 16 7.163 16 16v192l.003.315c.168 8.691 7.266 15.685 15.997 15.685 8.837 0 16-7.163 16-16V80l.003-.315C320.17 70.994 327.268 64 335.999 64c8.837 0 16 7.163 16 16v176l.003.315c.168 8.691 7.266 15.685 15.997 15.685 8.837 0 16-7.163 16-16V144l.003-.315c.168-8.691 7.266-15.685 15.997-15.685 8.837 0 16 7.163 16 16v176l-.016 3.088C414.953 424.516 363.038 480 279.999 480c-38.557 0-67.07-7.944-88.128-22.896l-.636-.455c-17.333-12.511-29.936-29.987-40.109-53.955l-.23-.543-52.703-144.093c-4.302-11.973-2.336-19.631 4.909-23.746l.306-.17c7.987-4.343 17.616-2.013 21.644 4.853l.014.026 36.013 86.769c.347.894.772 1.749 1.267 2.557a15.9 15.9 0 0 0 4.766 4.96 15.9 15.9 0 0 0 6.414 2.503c1.83.288 3.725.261 5.603-.116a16.004 16.004 0 0 0 12.68-13.222" clip-rule="evenodd"/></svg>