<svg xmlns="http://www.w3.org/2000/svg" width="512" height="512" fill="none"><path fill="currentColor" fill-rule="evenodd" d="M432.801 211.44c-15.52-8.82-34.91-2.28-43.31 13.68l-41.38 84.41a7 7 0 0 1-8.93 3.43 7 7 0 0 1-4.41-6.52V72c0-13.91-12.85-24-26.77-24s-26 10.09-26 24v156.64c.07 6.083-4.712 11.117-10.79 11.36a11 11 0 0 1-11.21-11V24c0-13.91-10.94-24-24.86-24s-25.14 10.09-25.14 24v204.64c.07 6.083-4.712 11.117-10.79 11.36a11 11 0 0 1-11.21-11V56c0-13.91-12.08-24-26-24s-26 11.09-26 25v187.64c.07 6.083-4.712 11.117-10.79 11.36a11 11 0 0 1-11.21-11V120c0-13.91-11.08-24-25-24s-25.12 10.22-25 24v216c0 117.41 72 176 160 176h16c88 0 115.71-39.6 136-88l68.71-169c6.62-18 3.6-34.75-11.91-43.56" clip-rule="evenodd"/></svg>