<svg xmlns="http://www.w3.org/2000/svg" width="512" height="512" fill="none"><path fill="currentColor" fill-rule="evenodd" d="M82.42 209.08c15.06-6.62 32.381 1.31 38.501 17.62l35.08 85.3h11.27V80c0-17.6 13.3-32 29.55-32 16.26 0 29.55 14.4 29.55 32v151.75l14.78.25V32c0-17.6 13.3-32 29.55-32 16.3 0 29.55 14.4 29.55 32v199.75l14.75.25V64c0-17.6 13.3-32 29.55-32 16.26 0 29.55 14.4 29.55 32v183.75l14.78.25V128c0-17.6 13.3-32 29.55-32 16.27 0 29.57 14.4 29.57 32v216c0 75.8-37.13 168-169 168-40.8 0-79.42-7-100.66-21a121.4 121.4 0 0 1-33.72-33.31 138 138 0 0 1-16-31.78l-62.46-175.14c-6.11-16.31 1.2-35.06 16.26-41.69" clip-rule="evenodd"/></svg>