<svg xmlns="http://www.w3.org/2000/svg" width="512" height="512" fill="none"><path fill="currentColor" fill-rule="evenodd" d="M240 0c26.245 0 47.57 21.063 47.994 47.206L288 48v2.731A47.9 47.9 0 0 1 304 48c26.245 0 47.57 21.063 47.994 47.206L352 96v143.791l5.755-13.85q.278-.67.616-1.313c12.574-23.891 42.883-31.489 66.371-18.14 22.17 12.593 28.345 36.842 19.273 62.242l-.28.77-52.71 144a16 16 0 0 1-.269.686c-12.499 29.816-28.826 52.483-52.102 69.01C311.81 502.256 276.836 512 232 512c-48.926 0-90.966-16.766-120.771-49.138C80.316 429.287 64 380.609 64 320V144c0-26.51 21.49-48 48-48 5.61 0 10.996.963 16 2.731V80c0-26.51 21.49-48 48-48a47.9 47.9 0 0 1 17.681 3.361C199.229 14.984 217.865 0 240 0M96 320c0 103.39 52.122 160 136 160 38.557 0 67.07-7.944 88.128-22.896 17.662-12.54 30.448-30.15 40.745-54.41l.229-.543 52.597-143.69c4.442-12.037 2.619-19.792-4.498-23.996l-.266-.154c-7.939-4.512-17.614-2.329-21.786 4.415l-.177.294-36.054 86.776a16.05 16.05 0 0 1-6.036 7.514 15.9 15.9 0 0 1-6.415 2.501 15.9 15.9 0 0 1-5.597-.117A16.01 16.01 0 0 1 320 319.629V96c0-8.837-7.163-16-16-16-8.731 0-15.829 6.994-15.997 15.685L288 96v145c0 8.837-7.163 16-16 16-8.731 0-15.829-6.994-15.997-15.685L256 241V48c0-8.837-7.163-16-16-16-8.731 0-15.829 6.994-15.997 15.685L224 48v192c0 8.837-7.163 16-16 16-8.731 0-15.829-6.994-15.997-15.685L192 240V80c0-8.837-7.163-16-16-16-8.731 0-15.829 6.994-15.997 15.685L160 80v176c0 8.837-7.163 16-16 16-8.731 0-15.829-6.994-15.997-15.685L128 256V144c0-8.837-7.163-16-16-16-8.731 0-15.83 6.994-15.997 15.685L96 144z" clip-rule="evenodd"/></svg>