<svg xmlns="http://www.w3.org/2000/svg" width="512" height="512" fill="none"><path fill="currentColor" fill-rule="evenodd" d="M256 32C132.288 32 32 132.288 32 256s100.288 224 224 224 224-100.288 224-224S379.712 32 256 32m0 32c106.039 0 192 85.961 192 192s-85.961 192-192 192S64 362.039 64 256 149.961 64 256 64m-48 168c0 13.255-10.745 24-24 24s-24-10.745-24-24 10.745-24 24-24 24 10.745 24 24m-47.66 82.17c12.09 40.3 50.29 69.83 95.71 69.83s83.63-29.53 95.62-69.83a7.998 7.998 0 0 0-7.82-10.17H168.16a8 8 0 0 0-7.82 10.17M328 256c13.255 0 24-10.745 24-24s-10.745-24-24-24-24 10.745-24 24 10.745 24 24 24" clip-rule="evenodd"/></svg>