<svg xmlns="http://www.w3.org/2000/svg" width="512" height="512" fill="none"><path fill="currentColor" fill-rule="evenodd" d="M414.39 97.61C357.896 40.558 275.188 18.105 197.6 38.758 120.011 59.411 59.411 120.012 38.758 197.6s1.8 160.296 58.852 216.79c56.493 57.053 139.201 79.505 216.79 58.852 77.588-20.653 138.188-81.254 158.842-158.842 20.653-77.588-1.8-160.296-58.852-216.79M184 208c13.255 0 24 10.745 24 24s-10.745 24-24 24-24-10.745-24-24a23.94 23.94 0 0 1 7.012-16.988A23.94 23.94 0 0 1 184 208m167.67 106.17c-12 40.3-50.2 69.83-95.62 69.83s-83.62-29.53-95.72-69.83a7.998 7.998 0 0 1 7.83-10.17h175.69a8 8 0 0 1 7.82 10.17M328 256c-13.255 0-24-10.745-24-24s10.745-24 24-24 24 10.745 24 24a23.94 23.94 0 0 1-24 24" clip-rule="evenodd"/></svg>