<svg xmlns="http://www.w3.org/2000/svg" width="512" height="512" fill="none"><path fill="currentColor" fill-rule="evenodd" d="M256 32.022q-.435-.022-.875-.022c-9.666 0-17.5 7.835-17.5 17.5V67h-78.75V49.5c0-9.665-7.835-17.5-17.5-17.5s-17.5 7.835-17.5 17.5V67H102c-38.598 0-70 31.402-70 70v273c0 38.598 31.402 70 70 70h308c38.598 0 70-31.402 70-70V137c0-38.598-31.402-70-70-70h-21.875V49.5c0-9.665-7.835-17.5-17.5-17.5s-17.5 7.835-17.5 17.5V67h-78.75V49.5c0-9.665-7.834-17.5-17.5-17.5q-.44 0-.875.022M239.572 445V340.809c-38.351-2.934-68.821-16.404-90.728-40.165-39.022-42.321-35.222-101.331-35.041-103.823l1.035-14.264 14.15-1.044c2.472-.181 61.005-4.015 102.988 35.326 9.77 9.155 17.778 19.799 24.023 31.871 6.246-12.072 14.254-22.716 24.024-31.871 41.984-39.34 100.518-35.507 102.988-35.326l14.15 1.044 1.035 14.264c.181 2.492 3.981 61.502-35.041 103.823-21.907 23.761-52.377 37.232-90.728 40.165V445H410c19.299 0 35-15.701 35-35V137c0-19.299-15.701-35-35-35h-21.875v17.5c0 9.665-7.835 17.5-17.5 17.5s-17.5-7.835-17.5-17.5V102h-78.75v17.5c0 9.665-7.834 17.5-17.5 17.5q-.44 0-.875-.022-.435.022-.875.022c-9.666 0-17.5-7.835-17.5-17.5V102h-78.75v17.5c0 9.665-7.835 17.5-17.5 17.5s-17.5-7.835-17.5-17.5V102H102c-19.3 0-35 15.701-35 35v273c0 19.299 15.7 35 35 35zm62.624-203.717c19.999-18.863 46.268-24.548 62.75-26.187-1.577 16.503-7.156 42.718-25.856 62.999-15.467 16.776-37.572 26.631-65.859 29.399 2.732-28.405 12.443-50.629 28.965-66.211m-129.104 37.009c-18.712-20.162-24.351-46.643-25.977-63.258 16.371 1.588 42.375 7.212 62.493 26.064 16.641 15.593 26.417 37.877 29.162 66.394-28.176-2.756-50.221-12.545-65.678-29.2" clip-rule="evenodd"/></svg>