<svg xmlns="http://www.w3.org/2000/svg" width="512" height="512" fill="none"><path fill="currentColor" fill-rule="evenodd" d="M256 32c56.527 0 112.72 24.14 155.162 65.455C454.61 139.75 480 196.334 480 256c0 17.684-4.938 41.282-13.695 70.024-5.336 17.516-11.52 35.18-18.697 54.126a174 174 0 0 1-1.982 5.202q-.844 2.2-1.705 4.424c-.346.894-.764 1.74-1.244 2.533a187 187 0 0 1-8.094 15.93c-31.818 55.861-87.049 86.606-126.803 64.737l-1.097-.621-13.866-8.101-.562-.339c-14.695-9.073-19.62-28.184-11.048-43.263l86.862-152.521a31.737 31.737 0 0 1 43.577-11.837l13.735 8.027c7.908 4.627 14.307 10.9 19.227 18.426C446.828 272.104 448 263.076 448 256c0-50.759-21.725-99.175-59.159-135.615C352.219 84.735 303.952 64 256 64s-96.219 20.735-132.841 56.385C85.725 156.825 64 205.241 64 256c0 7.452 1.149 16.537 3.275 26.937 4.933-7.609 11.37-13.947 19.34-18.614l13.739-8.029a31.74 31.74 0 0 1 24.261-3.183c8.188 2.224 15.144 7.633 19.289 14.971L230.8 420.673c8.652 15.221 3.539 34.565-11.503 43.524l-13.98 8.168-1.097.622c-39.762 21.872-95.038-8.891-126.808-64.746a187 187 0 0 1-8.071-15.903 16 16 0 0 1-1.227-2.474c-8.742-22.19-16.537-43.911-22.803-64.619l-.657-2.184C36.544 295.879 32 273.273 32 256c0-59.666 25.39-116.25 68.838-158.545C143.28 56.14 199.473 32 256 32m161.694 336.786c12.552-34.903 8.603-66.853-8.467-76.842l-13.427-7.846-86.78 152.379a.16.16 0 0 0 .057.216l13.477 7.875.693.394.588.311c20.778 10.599 58.154-10.266 82.21-51.6l.732-1.272a153 153 0 0 0 8.988-18.552q.976-2.549 1.929-5.063m-214.708 67.712-86.787-152.4-13.415 7.839c-20.878 12.225-22.114 57.306 2.444 100.482 24.222 42.587 62.707 64.005 83.568 52.53l.649-.371 13.48-7.878.037-.029a.16.16 0 0 0 .039-.131z" clip-rule="evenodd"/></svg>