<svg xmlns="http://www.w3.org/2000/svg" width="512" height="512" fill="none"><path fill="currentColor" fill-rule="evenodd" d="M352.921 64c-33.077 0-61.161 13.892-84.079 36.646l-.937.938a158 158 0 0 0-11.174 12.566l-.73.923-.731-.923a158 158 0 0 0-12.111-13.504C220.242 77.892 192.157 64 159.081 64c-61.138 0-110.445 50.781-111.08 112.646-.557 55.389 19.8 105.697 58.615 153.018 31.487 38.385 73.512 73.516 131.399 112.805 10.848 7.38 25.123 7.38 35.986-.01 57.869-39.281 99.89-74.411 131.376-112.795 38.816-47.321 59.175-97.629 58.623-153.014C463.365 114.781 414.058 64 352.921 64m0 32c43.303 0 78.623 36.376 79.08 80.974.472 47.29-17.03 90.537-51.365 132.395-28.877 35.205-68.261 68.24-122.959 105.493l-1.676 1.139-3.317-2.258c-53.856-36.8-92.74-69.525-121.327-104.374C97.023 267.512 79.524 224.265 80 176.971 80.457 132.376 115.777 96 159.08 96c23.728 0 44.161 10.108 61.531 27.354 6.245 6.201 11.619 12.881 16.076 19.543a109 109 0 0 1 3.652 5.829l.701 1.228q.282.506.45.821l.199.38c5.837 11.675 22.389 11.792 28.441.351l.379-.731c.187-.348.479-.879.878-1.576a108 108 0 0 1 3.925-6.302c4.457-6.662 9.831-13.342 16.076-19.543C308.759 106.108 329.193 96 352.921 96" clip-rule="evenodd"/></svg>