<svg xmlns="http://www.w3.org/2000/svg" width="512" height="512" fill="none"><path fill="currentColor" fill-rule="evenodd" d="m32 67.45 389.47 389.94 22.84-22.47L54.85 45zm30.67 128.46c-.56 55.63 19.77 106.94 62.16 156.88 34.893 41.108 80.351 70.816 119.789 96.589 6.056 3.958 11.969 7.822 17.681 11.621l9 6 9-6c5.704-3.794 11.61-7.656 17.658-11.609 13.556-8.863 27.825-18.192 42.132-28.281L71.74 152.28a114.6 114.6 0 0 0-9.07 43.63m417.32 0c.56 55.63-19.77 106.94-62.16 156.88-1.62 1.91-3.28 3.8-4.99 5.69L142.84 88a108.2 108.2 0 0 1 31.26-4.63c48.23 0 80.35 27.97 97.23 48.17 16.88-20.17 48.97-48.17 97.23-48.17 60.82 0 110.8 50.54 111.43 112.54" clip-rule="evenodd"/></svg>