<svg xmlns="http://www.w3.org/2000/svg" width="512" height="512" fill="none"><path fill="currentColor" fill-rule="evenodd" d="M256 48C141.163 48 48 141.163 48 256s93.163 208 208 208 208-93.163 208-208S370.837 48 256 48m0 32c97.163 0 176 78.837 176 176s-78.837 176-176 176S80 353.163 80 256 158.837 80 256 80m103.99 144.32c.27 25.94-8.51 49.98-26.79 73.37a3.92 3.92 0 0 1-5.95.36l-124-123.21A4 4 0 0 1 206 168l1.54-.01c20.4 0 35 10.64 44.11 20.42a5.93 5.93 0 0 0 8.7 0c9.11-9.78 23.71-20.42 44.11-20.42 30.31 0 55.22 25.27 55.53 56.33M158.84 221a4 4 0 0 0-6.82 2.72v.64c-.28 27.1 9.31 52.13 29.3 76.5 9.38 11.44 26.4 29.73 65.7 56.41a15.93 15.93 0 0 0 18 0c5.15-3.49 9.9-6.84 14.31-10a4.002 4.002 0 0 0 .46-6.07zm165.85 142.31A15.92 15.92 0 0 0 336 368a16 16 0 0 0 11.31-27.31l-176-176c-6.291-5.976-16.198-5.85-22.334.286s-6.262 16.043-.286 22.334z" clip-rule="evenodd"/></svg>