<svg xmlns="http://www.w3.org/2000/svg" width="512" height="512" fill="none"><path fill="currentColor" fill-rule="evenodd" d="M417.842 448a16 16 0 0 1-11.35-4.72l-365.84-368c-6.23-6.268-6.199-16.4.07-22.63 6.268-6.23 16.4-6.198 22.63.07l365.83 368a16.001 16.001 0 0 1-11.34 27.28m-52.92-368c-44.09 0-74.61 24.82-92.39 45.5a6 6 0 0 1-9.06 0c-17.78-20.68-48.31-45.5-92.39-45.5a107.7 107.7 0 0 0-31 4.54l269.13 270.7c3-3.44 5.7-6.64 8.14-9.6 40-48.75 59.15-98.79 58.61-153-.59-62.11-50.42-112.64-111.04-112.64M60.002 192.64a115.1 115.1 0 0 1 9-43.49l269.58 271.17c-14.88 11.62-32.23 24.3-52.58 38.12a31.88 31.88 0 0 1-36 0c-78.59-53.35-112.62-89.93-131.39-112.8-39.98-48.75-59.15-98.79-58.61-153" clip-rule="evenodd"/></svg>