<svg xmlns="http://www.w3.org/2000/svg" width="512" height="512" fill="none"><path fill="currentColor" fill-rule="evenodd" d="M256 48C141.31 48 48 141.31 48 256s93.31 208 208 208 208-93.31 208-208S370.69 48 256 48m23.3 299.19c-4.41 3.2-9.16 6.55-14.31 10a15.93 15.93 0 0 1-18 0c-39.3-26.68-56.32-45-65.7-56.41-20-24.37-29.58-49.4-29.3-76.5v-.64a4 4 0 0 1 6.82-2.72l120.95 120.2a4.002 4.002 0 0 1-.46 6.07m68 16.12c-6.248 6.243-16.372 6.243-22.62 0l-176-176c-5.976-6.291-5.85-16.198.286-22.334s16.043-6.262 22.334-.286l176 176c6.246 6.245 6.251 16.37.01 22.62zm-14.1-65.62a3.92 3.92 0 0 1-6 .37l-124-123.21A3.999 3.999 0 0 1 206 168h1.55c20.4 0 35 10.64 44.11 20.42a5.93 5.93 0 0 0 8.7 0c9.11-9.78 23.71-20.42 44.11-20.42 30.31 0 55.22 25.27 55.53 56.33.26 25.93-8.52 49.97-26.8 73.36" clip-rule="evenodd"/></svg>