<svg xmlns="http://www.w3.org/2000/svg" width="512" height="512" fill="none"><path fill="currentColor" fill-rule="evenodd" d="M352.919 64c-48.09 0-80 29.54-96.92 51-16.88-21.49-48.83-51-96.92-51-60.62 0-110.45 50.54-111.08 112.65-.54 54.21 18.63 104.27 58.61 153 18.77 22.88 52.8 59.46 131.39 112.81a31.84 31.84 0 0 0 36 0c78.59-53.35 112.62-89.93 131.39-112.81 40-48.74 59.15-98.8 58.61-153-.63-62.11-50.46-112.65-111.08-112.65m-96.92 352V207.58c0-19.63 5.23-38.76 14.21-56.22q.035-.083.08-.16a123 123 0 0 1 21.77-28.51C310.189 105 330.659 96 352.919 96c43.15 0 78.62 36.32 79.07 81 1.01 104.61-88.36 179.51-175.99 239" clip-rule="evenodd"/></svg>