<svg xmlns="http://www.w3.org/2000/svg" width="512" height="512" fill="none"><path fill="currentColor" fill-rule="evenodd" d="M256 48C141.163 48 48 141.163 48 256s93.163 208 208 208 208-93.163 208-208S370.837 48 256 48m0 32c97.163 0 176 78.837 176 176s-78.837 176-176 176S80 353.163 80 256 158.837 80 256 80m-9 277.22a16 16 0 0 0 9 2.78 16 16 0 0 0 8.98-2.78c39.3-26.68 56.32-44.97 65.7-56.41 19.99-24.37 29.58-49.4 29.3-76.5-.31-31.06-25.22-56.33-55.53-56.33-20.4 0-34.99 10.63-44.1 20.41a6 6 0 0 1-8.72 0c-9.1-9.78-23.7-20.41-44.1-20.41-30.31 0-55.22 25.27-55.53 56.33-.28 27.1 9.3 52.13 29.3 76.5 9.38 11.41 26.4 29.73 65.7 56.41" clip-rule="evenodd"/></svg>