<svg xmlns="http://www.w3.org/2000/svg" width="512" height="512" fill="none"><path fill="currentColor" fill-rule="evenodd" d="M417.842 448a15.94 15.94 0 0 1-11.35-4.72L40.652 75.26c-6.23-6.268-6.199-16.4.07-22.63 6.268-6.23 16.4-6.198 22.63.07l365.83 368a16.001 16.001 0 0 1-11.34 27.3m-52.92-368c-48.09 0-80 29.55-96.92 51-16.88-21.48-48.83-51-96.92-51a107.4 107.4 0 0 0-31 4.55l27.92 27.45c22.26 0 45.81 9 63.94 26.67a123 123 0 0 1 21.75 28.47 15.998 15.998 0 0 0 28.6 0 123 123 0 0 1 21.77-28.51c18.13-17.63 38.6-26.63 60.86-26.63 43.15 0 78.62 36.33 79.07 81 .54 53.69-22.75 99.55-57.38 139.52l22.63 22.77c3-3.44 5.7-6.64 8.14-9.6 40-48.75 59.15-98.8 58.61-153-.62-62.17-50.45-112.69-111.07-112.69M92.002 193c-1 104.6 88.38 179.51 176 239 16.09-10.95 32.25-22.4 47.92-34.49l22.66 22.81c-14.88 11.61-32.23 24.3-52.58 38.11a31.84 31.84 0 0 1-36 0c-78.59-53.35-112.62-89.93-131.39-112.8-39.98-48.73-59.15-98.78-58.61-153a115.1 115.1 0 0 1 9-43.49l25.24 25.47a83.7 83.7 0 0 0-2.24 18.39" clip-rule="evenodd"/></svg>