<svg xmlns="http://www.w3.org/2000/svg" width="512" height="512" fill="none"><path fill="currentColor" fill-rule="evenodd" d="M159.128 182.981c10.921.476 20.177-7.897 20.835-18.765l.008-.142.039-.403q.045-.425.121-.973l.086-.577c.347-2.237.927-4.821 1.792-7.661 2.545-8.358 6.867-16.781 13.405-24.693 3.145-3.807 6.747-7.415 10.848-10.794 13.081-10.783 29.806-15.699 50.011-15.975 15.258-.187 29.223 2.279 36.443 5.799 10.111 4.952 18.75 10.831 25.623 18.413C327.187 136.97 332 148.505 332 163c0 16.608-4.613 28.969-14.103 40.362l-.242.29c-7.533 8.971-16.313 16.087-35.493 29.394l-4.909 3.392C242.308 260.807 228 287.757 228 323c0 11.046 8.955 20 20 20s20-8.954 20-20l.003-.666c.159-21.919 8.249-36.668 32.98-53.674 24.63-16.938 35.979-25.876 46.975-38.895l.673-.802C364.021 210.487 372 189.107 372 163c0-24.839-8.748-45.803-24.026-62.655-10.795-11.908-23.39-20.48-37.697-27.486-13.518-6.59-33.476-10.116-54.522-9.857-28.615.39-54.006 7.854-74.935 25.105-6.08 5.012-11.486 10.425-16.242 16.181-10.081 12.201-16.818 25.328-20.835 38.519-1.432 4.703-2.423 9.122-3.052 13.17-.41 2.638-.609 4.717-.672 6.151l-.012.344c-.291 10.885 8.201 20.032 19.121 20.509M280 398.99c0 17.673-14.327 32-32 32s-32-14.327-32-32 14.327-32 32-32 32 14.327 32 32" clip-rule="evenodd"/></svg>