<svg xmlns="http://www.w3.org/2000/svg" width="512" height="512" fill="none"><path fill="currentColor" fill-rule="evenodd" d="M64 256c0-106.039 85.961-192 192-192a192 192 0 0 1 192 192c0 106.039-85.961 192-192 192S64 362.039 64 256m305.137-113.137A160 160 0 0 0 256 96c-88.366 0-160 71.634-160 160s71.634 160 160 160 160-71.634 160-160a160 160 0 0 0-46.863-113.137m-113.316 1.138c12.567-.161 24.518 1.901 32.726 5.808 8.579 4.084 16.183 9.131 22.728 16.179C320.618 176.052 326 188.649 326 203.54c0 15.55-4.893 28.364-14.267 39.361l-.604.701c-6.247 7.177-12.715 12.249-25.761 21.06l-1.94 1.305C269.719 275.161 265 283.964 265 296c0 7.732-6.268 14-14 14s-14-6.268-14-14c0-21.178 9.202-38.556 30.193-52.855l2.864-1.931c11.095-7.508 16.128-11.504 20.367-16.477 5.129-6.017 7.576-12.425 7.576-21.197 0-13.379-8.056-22.056-21.487-28.449-3.888-1.851-11.723-3.202-20.303-3.093-11.403.171-20.675 2.838-27.864 8.63a48 48 0 0 0-4.718 4.327c-4.192 4.406-6.907 9.007-8.482 13.517-.518 1.484-.859 2.814-1.059 3.94q-.07.398-.101.658l-.014.105-.032.408c-.682 7.419-7.097 13.052-14.611 12.691-7.723-.371-13.684-6.932-13.313-14.655.048-.999.197-2.379.5-4.089.454-2.564 1.168-5.345 2.195-8.288 2.842-8.14 7.592-16.188 14.632-23.588a76 76 0 0 1 7.444-6.836c12.641-10.184 27.853-14.559 45.034-14.817M270 348c0 11.046-8.954 20-20 20s-20-8.954-20-20 8.954-20 20-20 20 8.954 20 20" clip-rule="evenodd"/></svg>