<svg xmlns="http://www.w3.org/2000/svg" width="512" height="512" fill="none"><path fill="currentColor" fill-rule="evenodd" d="M256 64C150 64 64 150 64 256s86 192 192 192 192-86 192-192S362 64 256 64m10.44 302h-30.21a2.57 2.57 0 0 1-2.56-2.57v-30.2a2.57 2.57 0 0 1 2.56-2.57h30.21a2.57 2.57 0 0 1 2.56 2.57v30.2a2.57 2.57 0 0 1-2.56 2.57m17-99C267.23 277.88 265 287.85 265 297v11a3 3 0 0 1-3 3h-22a3 3 0 0 1-3-3v-11c0-21.91 10.08-39.33 30.82-53.26C287.1 230.8 298 222.6 298 204.57c0-12.26-7-21.57-21.49-28.46-3.41-1.62-11-3.2-20.34-3.09-11.72.15-20.82 2.95-27.83 8.59C215.12 192.25 214 203.84 214 204a65.7 65.7 0 0 0-.84 10.28 3 3 0 0 1-3 3h-21.25a3 3 0 0 1-3-2.69c-.36-3.993-.33-8.012.09-12 .22-2.43 1.8-24.32 24.77-42.8 11.91-9.58 27.06-14.56 45-14.78 12.7-.15 24.63 2 32.72 5.82 24.21 11.51 37.51 30.6 37.51 53.74 0 33.83-22.61 49.02-42.56 62.43" clip-rule="evenodd"/></svg>