<svg xmlns="http://www.w3.org/2000/svg" width="512" height="512" fill="none"><path fill="currentColor" fill-rule="evenodd" d="M256 32C132.288 32 32 132.288 32 256s100.288 224 224 224 224-100.288 224-224S379.712 32 256 32m62.787 42.501c55.531 19.207 99.505 63.181 118.712 118.712l-103.872 6.295a96.6 96.6 0 0 0-21.135-21.135zm29.833 156.157 96.856-5.87A193.3 193.3 0 0 1 448 256c0 10.628-.863 21.054-2.524 31.212l-96.856-5.87A96 96 0 0 0 352 256a96 96 0 0 0-3.38-25.342m-14.993 81.834a96.6 96.6 0 0 1-21.135 21.135l6.295 103.872c55.531-19.207 99.505-63.181 118.712-118.712zm-52.285 36.128A96 96 0 0 1 256 352a96 96 0 0 1-25.342-3.38l-5.87 96.856A193.3 193.3 0 0 0 256 448c10.628 0 21.054-.863 31.212-2.524zM74.501 318.787c19.207 55.531 63.181 99.505 118.712 118.712l6.295-103.872a96.6 96.6 0 0 1-21.135-21.135zm-7.977-31.575 96.856-5.87A96 96 0 0 1 160 256a96 96 0 0 1 3.38-25.342l-96.856-5.87A193.4 193.4 0 0 0 64 256c0 10.628.864 21.054 2.524 31.212m132.984-108.839a96.6 96.6 0 0 0-21.135 21.135l-103.872-6.295c19.207-55.531 63.181-99.505 118.712-118.712zm87.704-111.849-5.87 96.856A96 96 0 0 0 256 160a96 96 0 0 0-25.342 3.38l-5.87-96.856A193.4 193.4 0 0 1 256 64c10.628 0 21.054.864 31.212 2.524M256 192c35.346 0 64 28.654 64 64s-28.654 64-64 64-64-28.654-64-64 28.654-64 64-64" clip-rule="evenodd"/></svg>