<svg xmlns="http://www.w3.org/2000/svg" width="512" height="512" fill="none"><path fill="currentColor" fill-rule="evenodd" d="M310.277 76.859c-13.518-6.59-33.476-10.116-54.523-9.858-28.614.391-54.006 7.855-74.935 25.106-16.891 13.923-28.127 28.504-34.498 43.525C141.542 146.898 140 156.527 140 167v20h40v-20l.003-.589c.051-5.263.805-9.651 3.141-15.158 3.773-8.894 11.041-18.325 23.117-28.28 13.082-10.783 29.806-15.699 50.012-15.975 15.257-.187 29.223 2.279 36.443 5.799 10.111 4.952 18.749 10.831 25.623 18.413C327.187 140.97 332 152.505 332 167c0 16.608-4.613 28.969-14.103 40.362l-.243.29c-7.694 9.164-16.69 16.392-36.744 30.261l-3.707 2.557C240.68 265.805 228 285.663 228 319v20h40l.002-20.603c.059-9.569 1.554-15.426 5.157-20.975 4.432-6.823 12.856-14.47 27.823-24.762l2.225-1.534c23.1-15.955 34.091-24.741 44.751-37.361l.673-.802C364.021 214.487 372 193.107 372 167c0-24.839-8.748-45.803-24.026-62.655-10.795-11.908-23.391-20.48-37.697-27.486M223.5 371a3.5 3.5 0 0 0-3.5 3.5v49a3.5 3.5 0 0 0 3.5 3.5h49a3.5 3.5 0 0 0 3.5-3.5v-49a3.5 3.5 0 0 0-3.5-3.5z" clip-rule="evenodd"/></svg>