<svg xmlns="http://www.w3.org/2000/svg" width="512" height="512" fill="none"><path fill="currentColor" fill-rule="evenodd" d="M414.39 97.61C357.896 40.558 275.188 18.105 197.6 38.758 120.011 59.411 59.411 120.012 38.758 197.6s1.8 160.296 58.852 216.79c56.493 57.053 139.201 79.505 216.79 58.852 77.588-20.653 138.188-81.254 158.842-158.842 20.653-77.588-1.8-160.296-58.852-216.79M192.13 260.18c-1.738-26.591 13.182-51.476 37.456-62.472 24.273-10.995 52.82-5.799 71.662 13.043 18.843 18.843 24.039 47.39 13.043 71.663-10.995 24.273-35.88 39.194-62.471 37.456-32.045-2.125-57.565-27.646-59.69-59.69m240-66.64-96.37 5.84a4.06 4.06 0 0 1-3.44-1.59 96 96 0 0 0-18.07-18.07 4.06 4.06 0 0 1-1.59-3.44l5.84-96.37a3.998 3.998 0 0 1 5.42-3.51A193 193 0 0 1 435.6 188.12a4 4 0 0 1-3.51 5.42zM193.54 79.91l5.84 96.37a4.06 4.06 0 0 1-1.59 3.44 96 96 0 0 0-18.07 18.07 4.06 4.06 0 0 1-3.44 1.59l-96.37-5.84a4 4 0 0 1-3.51-5.42A193 193 0 0 1 188.12 76.4a4 4 0 0 1 5.42 3.51M79.91 318.46l96.37-5.84a4.06 4.06 0 0 1 3.44 1.59 96 96 0 0 0 18.07 18.07 4.06 4.06 0 0 1 1.59 3.44l-5.84 96.37a4 4 0 0 1-5.42 3.51A193 193 0 0 1 76.4 323.88a4 4 0 0 1 3.51-5.42m238.55 113.63-5.84-96.37a4.06 4.06 0 0 1 1.59-3.44 96 96 0 0 0 18.07-18.07 4.06 4.06 0 0 1 3.44-1.59l96.37 5.84a4 4 0 0 1 3.51 5.42A193 193 0 0 1 323.88 435.6a4 4 0 0 1-5.42-3.51" clip-rule="evenodd"/></svg>