<svg xmlns="http://www.w3.org/2000/svg" width="512" height="512" fill="none"><path fill="currentColor" d="M477.8 358.333h-34.133v-68.267c0-9.426-7.641-17.067-17.067-17.067H273V153.533h85.333c9.426 0 17.067-7.641 17.067-17.067v-102.4c0-9.425-7.641-17.066-17.067-17.066h-204.8c-9.426 0-17.067 7.641-17.067 17.067v102.4c0 9.426 7.641 17.067 17.067 17.067h85.333V273h-153.6c-9.426 0-17.067 7.641-17.067 17.067v68.267H34.067C24.641 358.333 17 365.974 17 375.4v102.4c0 9.426 7.641 17.067 17.067 17.067h102.4c9.426 0 17.067-7.641 17.067-17.067V375.4c0-9.426-7.641-17.067-17.067-17.067h-34.134v-51.2h136.533v51.2h-34.133c-9.426 0-17.067 7.641-17.067 17.067v102.4c0 9.426 7.641 17.067 17.067 17.067h102.4c9.426 0 17.067-7.641 17.067-17.067V375.4c0-9.426-7.641-17.067-17.067-17.067H273v-51.2h136.533v51.2H375.4c-9.426 0-17.067 7.641-17.067 17.067v102.4c0 9.426 7.641 17.067 17.067 17.067h102.4c9.426 0 17.067-7.641 17.067-17.067V375.4c0-9.426-7.641-17.067-17.067-17.067"/></svg>