<svg xmlns="http://www.w3.org/2000/svg" width="512" height="512" fill="none"><path fill="currentColor" fill-rule="evenodd" d="M233.873 40.606c11.259-11.36 32.551-11.438 43.943-.31l.348.347L336 96.007V64c0-8.731 6.994-15.83 15.685-15.997L352 48h48c8.731 0 15.829 6.994 15.997 15.685L416 64v108.587l75.064 71.855c6.295 6.026 6.597 15.958.745 22.354l-.251.268c-6.026 6.295-15.958 6.597-22.354.745l-.268-.251L448 247.517V448c0 17.496-14.042 31.713-31.471 31.996L416 480h-96c-8.731 0-15.829-6.994-15.997-15.685L304 464V328a8 8 0 0 0-7.751-7.996L296 320h-80a8 8 0 0 0-7.996 7.751L208 328v136c0 8.731-6.994 15.829-15.685 15.997L192 480H96c-17.496 0-31.713-14.042-31.996-31.471L64 448V247.517l-20.936 20.041c-6.295 6.026-16.23 5.894-22.365-.232l-.257-.262c-6.026-6.295-5.894-16.231.232-22.365l.262-.257zM384 141.955V80h-16v46.639zM256.32 64.031 416 216.885V448h-80V328l-.005-.661C335.641 305.552 317.87 288 296 288h-80l-.661.005C193.552 288.359 176 306.13 176 328v120H96V216.885L255.679 64.031l.18-.011.146-.002.215.006z" clip-rule="evenodd"/></svg>