<svg xmlns="http://www.w3.org/2000/svg" width="512" height="512" fill="none"><path fill="currentColor" fill-rule="evenodd" d="m416.11 172.59 74.8 71.56c6.39 6.11 6.9 16.61.76 22.97-6.122 6.347-16.225 6.544-22.59.44L261.56 69.28a8 8 0 0 0-11.06 0L43 267.56a16 16 0 0 1-23.18-1.06c-5.66-6.5-4.88-16.37 1.34-22.37l212.7-203.5C239.28 35.14 247.32 32 256 32c8.71 0 16.77 3.14 22.19 8.62L336.11 96V64c0-8.837 7.164-16 16-16h48c8.837 0 16 7.163 16 16zM250.5 101.28a8 8 0 0 1 11.06 0l184.03 175.87a8 8 0 0 1 2.47 5.79V448c0 17.673-14.327 32-32 32H320c-8.836 0-16-7.163-16-16V328a8 8 0 0 0-8-8h-80a8 8 0 0 0-8 8v136c0 8.837-7.163 16-16 16H95.9c-17.673 0-32-14.327-32-32l.03-165.06a8 8 0 0 1 2.47-5.79z" clip-rule="evenodd"/></svg>