<svg xmlns="http://www.w3.org/2000/svg" width="13" height="10" fill="none"><path fill="currentColor" d="M0 .531a.469.469 0 0 1 .938 0v8.907a.469.469 0 0 1-.938 0zM12.063.531a.469.469 0 0 1 .937 0v8.907a.469.469 0 0 1-.937 0zM10.875 1.063a.5.5 0 1 0 0-1 .5.5 0 0 0 0 1M11.375 9.406a.5.5 0 1 1-1 0 .5.5 0 0 1 1 0M9.125 1.063a.5.5 0 1 0 0-1 .5.5 0 0 0 0 1M9.625 9.406a.5.5 0 1 1-1 0 .5.5 0 0 1 1 0M7.375 1.063a.5.5 0 1 0 0-1 .5.5 0 0 0 0 1M7.875 9.406a.5.5 0 1 1-1 0 .5.5 0 0 1 1 0M5.625 1.063a.5.5 0 1 0 0-1 .5.5 0 0 0 0 1M6.125 9.406a.5.5 0 1 1-1 0 .5.5 0 0 1 1 0M3.875 1.063a.5.5 0 1 0 0-1 .5.5 0 0 0 0 1M4.375 9.406a.5.5 0 1 1-1 0 .5.5 0 0 1 1 0M2.125 1.063a.5.5 0 1 0 0-1 .5.5 0 0 0 0 1M2.625 9.406a.5.5 0 1 1-1 0 .5.5 0 0 1 1 0M1.7 4.64a.46.46 0 0 0-.137.34.46.46 0 0 0 .136.338l1.728 1.723a.47.47 0 0 0 .66 0 .465.465 0 0 0 0-.66l-.905-.902h6.646l-.916.913a.465.465 0 0 0 0 .659.47.47 0 0 0 .661 0l1.728-1.723a.46.46 0 0 0 .136-.339.46.46 0 0 0-.136-.338L9.573 2.928a.47.47 0 0 0-.66 0 .465.465 0 0 0 0 .659l.962.96h-6.76l.973-.97a.465.465 0 0 0 0-.66.47.47 0 0 0-.661 0z"/></svg>