<svg xmlns="http://www.w3.org/2000/svg" width="512" height="512" fill="none"><path fill="currentColor" fill-rule="evenodd" d="M366.389 32h-220.78c-29.107 0-52.29 24.3-49.323 52.72 2.921 28.073 9.532 51.61 19.59 71.745 8.412 16.84 18.798 30.661 32.06 44.019l.851.846c4.995 4.916 15.241 14.208 21.82 20.174 3.016 2.735 5.262 4.772 5.878 5.367 11.339 10.968 15.514 18.519 15.514 29.129 0 10.539-4.049 18.145-14.902 28.945l-.627.618c-.83.801-3.121 2.912-6.103 5.662l-.003.003-.001.001c-6.993 6.448-17.788 16.401-22.481 21.177l-.203.207c-13.019 13.338-23.267 27.118-31.613 43.806-9.967 19.93-16.631 43.135-19.765 70.715C93.057 455.587 116.43 480 145.61 480h220.78c29.176 0 52.547-24.407 49.318-52.864-3.135-27.576-9.798-50.818-19.757-70.81-8.17-16.4-18.168-30.033-30.781-43.172l-.808-.838c-4.561-4.702-15.411-14.754-22.679-21.488h-.001c-3.478-3.223-6.135-5.685-6.891-6.437l-.932-.938c-10.067-10.223-13.859-17.556-13.859-27.453 0-9.973 3.919-17.262 14.461-27.657l.624-.609c.866-.827 3.253-3.002 6.343-5.818l.001-.001c7.16-6.524 18.098-16.491 22.67-21.125 13.237-13.418 23.627-27.324 32.036-44.227 10.049-20.199 16.658-43.775 19.579-71.847C418.737 56.323 395.513 32 366.389 32m-220.78 32h220.78c10.542 0 18.466 8.299 17.5 17.366-2.539 24.397-8.109 44.268-16.405 60.944-6.784 13.636-15.171 24.861-26.167 36.006l-.826.825c-4.143 4.085-12.812 11.994-19.468 18.067l-.002.003-.002.001c-4.061 3.706-7.373 6.727-8.448 7.778-16.486 16.1-24.572 30.845-24.572 51.01 0 19.87 7.8 34.573 23.681 50.535l.532.533c1.146 1.14 4.64 4.382 8.885 8.32 7.215 6.693 16.596 15.395 20.294 19.208 10.834 11.17 19.151 22.417 25.917 35.999 8.252 16.565 13.88 36.2 16.604 60.152 1.014 8.939-6.948 17.253-17.523 17.253h-220.78c-10.575 0-18.532-8.312-17.513-17.248 2.721-23.95 8.345-43.532 16.59-60.019 6.753-13.503 15.051-24.661 25.893-35.768l.822-.83c4.166-4.153 12.918-12.232 19.541-18.347l.001-.001c3.815-3.522 6.924-6.392 8.044-7.485l.098-.096c16.746-16.508 24.914-31.548 24.914-52.206 0-20.507-8.103-35.378-24.727-51.606l-.743-.718c-1.135-1.077-4-3.68-7.523-6.878-6.897-6.263-16.311-14.812-20.169-18.667l-.192-.192c-11.003-11.084-19.37-22.217-26.142-35.774-8.29-16.596-13.856-36.411-16.39-60.761-.95-9.108 6.965-17.404 17.496-17.404m23.52 368h174.17c15.57 0 19.05-17.09 9.1-29.13-9.873-11.944-24.706-21.746-38.954-31.161-21.382-14.129-41.446-27.387-41.446-45.709V224c0-10.95 11.694-20.423 26.076-32.074 11.823-9.578 25.461-20.626 35.914-35.176 3.83-5.32 2.01-12.75-6.4-12.75h-142.73c-9.86 0-10.25 7.49-6.37 12.8 10.498 14.378 23.885 25.356 35.487 34.872 14.382 11.795 26.023 21.341 26.023 32.328v102c0 19.958-22.472 35.056-45.493 50.522-12.483 8.387-25.127 16.881-34.437 26.318-10.94 11.16-6.54 29.16 9.06 29.16" clip-rule="evenodd"/></svg>