<svg xmlns="http://www.w3.org/2000/svg" width="512" height="512" fill="none"><path fill="currentColor" fill-rule="evenodd" d="m170.056 40.195-152 272C12.096 322.86 19.806 336 32.023 336h144.8c6.556 65.449 52.857 120.948 117.405 138.415 69.748 18.875 143.492-11.34 179.943-73.729s26.565-141.466-24.125-192.959c-46.782-47.524-117.603-60.667-177.732-34.532l-74.324-133c-6.106-10.927-21.828-10.927-27.934 0m117.966 161.11 61.968 110.89C355.95 322.86 348.241 336 336.023 336H209.025c6.406 50.959 42.981 93.838 93.562 107.526 55.799 15.1 114.793-9.072 143.955-58.983 29.161-49.911 21.252-113.173-19.3-154.368-36.659-37.24-91.77-48.091-139.22-28.87M184.023 80.799 308.752 304H59.293z" clip-rule="evenodd"/></svg>