<svg xmlns="http://www.w3.org/2000/svg" width="512" height="512" fill="none"><path fill="currentColor" d="M250.607 362.19a13.11 13.11 0 0 0 10.241-4.723c2.751-3.293 3.859-7.791 3.038-12.339-3.571-19.846-14.717-36.518-32.237-48.217-15.564-10.386-35.279-16.108-55.519-16.108-20.241 0-39.956 5.718-55.52 16.108-17.519 11.703-28.666 28.375-32.237 48.221-.821 4.549.287 9.046 3.038 12.34a13.11 13.11 0 0 0 10.241 4.718zM176.13 172.287c12.695 0 24.196 4.904 32.431 13.81 8.337 9.017 12.399 21.152 11.439 34.166-1.909 25.904-21.557 46.975-43.87 46.975-22.314 0-41.996-21.075-43.875-46.984-.948-13.132 3.09-25.293 11.375-34.241 8.197-8.851 19.737-13.726 32.5-13.726M289.62 184.539c0-6.767 5.797-12.252 12.948-12.252h109.195c7.151 0 12.948 5.485 12.948 12.252 0 6.766-5.797 12.252-12.948 12.252H302.568c-7.151 0-12.948-5.486-12.948-12.252M302.568 254.987c-7.151 0-12.948 5.485-12.948 12.252 0 6.766 5.797 12.252 12.948 12.252h109.195c7.151 0 12.948-5.486 12.948-12.252s-5.797-12.252-12.948-12.252zM289.62 349.939c0-6.767 5.797-12.252 12.948-12.252h109.195c7.151 0 12.948 5.485 12.948 12.252 0 6.766-5.797 12.252-12.948 12.252H302.568c-7.151 0-12.948-5.486-12.948-12.252"/><path fill="currentColor" fill-rule="evenodd" d="M83.792 111C55.188 111 32 134.188 32 162.792v208.894c0 28.604 23.188 51.792 51.792 51.792h344.416c28.604 0 51.792-23.188 51.792-51.792V162.792C480 134.188 456.812 111 428.208 111zm344.416 25.896H83.792c-14.302 0-25.896 11.594-25.896 25.896v208.894c0 14.302 11.594 25.896 25.896 25.896h344.416c14.302 0 25.896-11.594 25.896-25.896V162.792c0-14.302-11.594-25.896-25.896-25.896" clip-rule="evenodd"/></svg>