<svg xmlns="http://www.w3.org/2000/svg" width="512" height="513" fill="none"><g clip-path="url(#a)"><path fill="currentColor" d="m302.935 235.014 81.066 106.667h-256l64-83.2 44.8 57.6 61.867-81.067zm-121.6 0c17.066 0 32-14.933 32-32 0-17.066-14.934-32-32-32s-32 14.934-32 32 14.933 32 32 32m288-106.666v256c0 23.466-19.2 42.666-42.667 42.666H85.335c-23.467 0-42.667-19.2-42.667-42.666v-256c0-23.467 19.2-42.667 42.667-42.667h341.333c23.467 0 42.667 19.2 42.667 42.667m-42.667 59.733v-59.733H85.335v256h341.333zm42.667 281.6H42.668v42.667h426.667z"/></g><defs><clipPath id="a"><path fill="#fff" d="M0 .348h512v512H0z"/></clipPath></defs></svg>