<svg xmlns="http://www.w3.org/2000/svg" width="512" height="512" fill="none"><path fill="currentColor" fill-rule="evenodd" d="M416 64H96c-35.346 0-64 28.654-64 64v256c0 35.346 28.654 64 64 64h320c35.346 0 64-28.654 64-64V128c0-35.346-28.654-64-64-64m32 269.822V128c0-17.673-14.327-32-32-32H96c-17.673 0-32 14.327-32 32v188.365l94.848-84.33c18.805-16.696 47.265-16.025 65.253 1.407l.542.534 87.459 87.295 23.913-23.913c17.361-17.396 45.018-18.845 64.107-3.457l.576.471zm-158.525 10.076-87.447-87.283c-5.9-5.898-15.321-6.262-21.645-.902l-.282.244-116.1 103.227V384c0 17.673 14.326 32 32 32h121.372zM262.628 416H416c17.673 0 32-14.327 32-32v-8.51l-67.78-56.528c-6.267-5.211-15.431-4.868-21.302.753l-.264.259zM336 128c-26.509 0-48 21.49-48 48s21.491 48 48 48c26.51 0 48-21.49 48-48s-21.49-48-48-48m0 32c8.837 0 16 7.163 16 16s-7.163 16-16 16-16-7.163-16-16 7.164-16 16-16" clip-rule="evenodd"/></svg>