<svg xmlns="http://www.w3.org/2000/svg" width="512" height="512" fill="none"><path fill="currentColor" fill-rule="evenodd" d="M64 32h320c29.183.024 54.667 19.754 62 48H120c-39.764 0-72 32.235-72 72v262C19.754 406.667.024 381.183 0 352V96c0-35.346 28.654-64 64-64m386.29 80H142c-34 0-62 27.51-62 61.33v245.34c0 33.82 28 61.33 62 61.33h308c34 0 62-26.18 62-60V173.33c0-33.82-27.68-61.33-61.71-61.33m-77.15 61.34c25.368.154 45.822 20.817 45.72 46.186-.103 25.368-20.724 45.864-46.093 45.813-25.368-.051-45.907-20.63-45.907-45.999.099-25.475 20.805-46.06 46.28-46.01zM111.73 418.68c0 16.91 12.86 30.66 29.86 30.66l73.68-.01 113-112.33-62.64-62.11c-17.387-17.17-45.092-17.969-63.44-1.83l-90.46 80.79zm368.27-.01a30.67 30.67 0 0 1-30.71 30.66H259L376.08 333c17.15-14.468 42.212-14.535 59.44-.16L480 370.59z" clip-rule="evenodd"/></svg>