<svg xmlns="http://www.w3.org/2000/svg" width="512" height="512" fill="none"><path fill="currentColor" fill-rule="evenodd" d="M0 52c0-11.046 8.954-20 20-20h408c11.046 0 20 8.954 20 20v28H68c-11.046 0-20 8.954-20 20v316H20c-11.046 0-20-8.954-20-20zm80 80v328c0 11.046 8.954 20 20 20h392c11.046 0 20-8.954 20-20V132c0-11.046-8.954-20-20-20H100c-11.046 0-20 8.954-20 20m293.14 41.33c25.368.154 45.822 20.817 45.72 46.186-.103 25.368-20.724 45.864-46.093 45.813-25.368-.051-45.907-20.63-45.907-45.999.105-25.471 20.809-46.05 46.28-46M111.73 353.85v95.48h103.54l113-112.33-93.78-93.35zM480 449.33H259l144.58-144L480 370.59z" clip-rule="evenodd"/></svg>