<svg xmlns="http://www.w3.org/2000/svg" width="512" height="512" fill="none"><path fill="currentColor" fill-rule="evenodd" d="M384.046 32c34.926.102 63.279 28.107 63.942 62.942L448 96v16h2.01c34.236 0 61.99 27.754 61.99 61.99v244.02c0 34.236-27.754 61.99-61.99 61.99H141.99C107.754 480 80 452.246 80 418.01V416H63.953C29.029 415.899.675 387.893.012 353.058L0 352V95.954c.101-34.926 28.107-63.28 62.942-63.942L64 32zM480 368.906V173.99c0-16.563-13.427-29.99-29.99-29.99H141.99c-16.563 0-29.99 13.427-29.99 29.99v178.196l90.246-79.624c18.318-16.131 45.902-15.507 63.488 1.339l.53.516 83.674 82.944 22.647-22.483c16.965-16.731 43.729-18.098 62.333-3.26l.561.454zm-152.772 11.001-83.473-82.745c-5.494-5.428-14.201-5.759-20.076-.829l-.273.235L112 394.861v23.149c0 16.563 13.427 29.99 29.99 29.99h116.647zM304.057 448l91.035-90.375.257-.248c5.445-5.12 13.928-5.423 19.767-.62L480 410.439v7.571c0 16.563-13.427 29.99-29.99 29.99zM416 96.047V112H141.99C107.754 112 80 139.754 80 173.99V384H64l-.528-.006c-17.388-.332-31.421-14.54-31.472-32.04V96l.006-.528c.332-17.388 14.54-31.421 32.04-31.472H384l.528.006c17.388.332 31.421 14.54 31.472 32.04m-43.08 77.043c-25.805 0-46.77 20.815-46.77 46.55s20.965 46.55 46.77 46.55 46.77-20.815 46.77-46.55-20.965-46.55-46.77-46.55m0 32c8.183 0 14.77 6.54 14.77 14.55s-6.587 14.55-14.77 14.55-14.77-6.54-14.77-14.55 6.587-14.55 14.77-14.55" clip-rule="evenodd"/></svg>