<svg xmlns="http://www.w3.org/2000/svg" width="512" height="516" fill="none"><path fill="currentColor" d="M360.531 86.145c-6.4 0-10.667 4.29-17.067 6.435L70.397 279.188c-19.2 12.87-23.466 40.754-10.666 60.058l46.933 70.783c8.533 15.015 25.6 21.449 42.667 17.159 6.4 0 10.666-4.289 17.066-6.434l275.2-184.464c19.2-12.87 23.467-40.754 10.667-60.058l-46.933-70.783c-10.667-15.014-27.734-21.449-44.8-19.304m0 126.551 25.6-19.305-42.667-62.203 19.2-10.724c2.133 0 2.133-2.145 4.267-2.145 4.266 0 8.533 0 10.666 4.29l46.934 70.782c4.266 4.29 2.133 10.725-2.134 15.015L149.331 395.015c-2.134 0-2.134 2.144-4.267 2.144-4.267 0-8.533 0-10.667-4.289l-46.933-70.783c-4.267-4.29-2.133-10.725 2.133-15.014l17.067-12.87 42.667 62.203 25.6-17.16-42.667-62.202 27.733-19.305 23.467 36.464 25.6-17.159-23.467-36.464 25.6-17.16 42.667 62.203 25.6-17.159-42.667-62.203 25.6-17.159 23.467 36.463 25.6-17.159-23.467-36.464 29.867-21.449z"/></svg>