<svg xmlns="http://www.w3.org/2000/svg" width="512" height="512" fill="none"><path fill="currentColor" fill-rule="evenodd" d="M416 64H96c-35.33.039-63.961 28.67-64 64v256c.039 35.33 28.67 63.961 64 64h320c35.33-.039 63.961-28.67 64-64V128c-.039-35.33-28.67-63.961-64-64m-80 64c26.51 0 48 21.49 48 48s-21.49 48-48 48-48-21.49-48-48c.028-26.498 21.502-47.972 48-48M96 416c-17.673 0-32-14.327-32-32v-67.63l94.84-84.3c18.993-16.845 47.811-16.012 65.8 1.9l64.95 64.81L172.37 416zm352-32c0 17.673-14.327 32-32 32H217.63l121.42-121.42c17.752-15.096 43.81-15.164 61.64-.16L448 333.84z" clip-rule="evenodd"/></svg>