<svg xmlns="http://www.w3.org/2000/svg" width="512" height="512" fill="none"><path fill="currentColor" fill-rule="evenodd" d="M456 64H56c-13.255 0-24 10.745-24 24v336c0 13.255 10.745 24 24 24h400c13.255 0 24-10.745 24-24V88c0-13.255-10.745-24-24-24m-124.38 64.2c20.131-1.845 39.26 9.121 47.841 27.425 8.581 18.303 4.774 40.022-9.52 54.316s-36.013 18.101-54.316 9.52-29.27-27.71-27.425-47.841c2.112-23.049 20.371-41.308 43.42-43.42M76 416c-6.627 0-12-5.373-12-12v-87.63L192.64 202l96.95 96.75L172.37 416zm372-12c0 6.627-5.373 12-12 12H217.63l149.53-149.53L448 333.84z" clip-rule="evenodd"/></svg>