<svg xmlns="http://www.w3.org/2000/svg" width="55" height="56" fill="none"><path fill="currentColor" d="M45.833 14.247H29.791l-4.583-4.583H9.166a4.597 4.597 0 0 0-4.583 4.583v27.5a4.597 4.597 0 0 0 4.583 4.584h36.667a4.597 4.597 0 0 0 4.583-4.584V18.831a4.597 4.597 0 0 0-4.583-4.584m0 27.5H9.166v-27.5h14.209l4.583 4.584h17.875zm-4.583-4.583L32.54 25.706h-.458l-6.646 8.708-4.812-6.187-6.875 8.937zM22.916 22.268c0-1.833-1.604-3.437-3.437-3.437-1.834 0-3.438 1.604-3.438 3.437 0 1.834 1.604 3.438 3.438 3.438 1.833 0 3.437-1.604 3.437-3.438"/></svg>