<svg xmlns="http://www.w3.org/2000/svg" width="512" height="512" fill="none"><path fill="currentColor" fill-rule="evenodd" d="M190.64 161.17C171.554 150.066 151.271 144 130 144c-62.878 0-114 50.084-114 112s51.122 112 114 112c39.083 0 76.626-20.734 105.9-53.305 5.907-6.572 5.368-16.688-1.205-22.595-6.572-5.907-16.688-5.368-22.595 1.205C188.389 319.686 158.849 336 130 336c-45.35 0-82-35.905-82-80s36.65-80 82-80c28.841 0 55.952 15.774 80.394 42.744 8.859 9.775 16.693 20.309 23.383 30.837 2 3.148 3.767 6.092 5.293 8.773l.743 1.318q.543.971.983 1.788l.588 1.106.336.651.145.285.739 1.415q.715 1.347 1.639 3.005l.4.713a242 242 0 0 0 6.571 10.946c7.608 11.972 16.508 23.938 26.68 35.163 13.268 14.641 27.741 26.937 43.466 36.086C340.446 361.934 360.729 368 382 368c62.878 0 114-50.084 114-112s-51.122-112-114-112c-39.083 0-76.626 20.734-105.9 53.305-5.907 6.572-5.368 16.688 1.205 22.595 6.572 5.907 16.688 5.368 22.595-1.205C323.611 192.314 353.151 176 382 176c45.351 0 82 35.905 82 80s-36.649 80-82 80c-28.841 0-55.952-15.774-80.394-42.744-8.859-9.775-16.693-20.309-23.383-30.837-2-3.148-3.767-6.092-5.293-8.773l-.743-1.318q-.543-.971-.983-1.788l-.588-1.106-.335-.65-.146-.286-.739-1.415a170 170 0 0 0-1.639-3.005l-.4-.713a242 242 0 0 0-6.571-10.946c-7.608-11.972-16.508-23.938-26.68-35.163-13.268-14.641-27.741-26.937-43.466-36.086" clip-rule="evenodd"/></svg>