<svg xmlns="http://www.w3.org/2000/svg" width="512" height="512" fill="none"><path fill="currentColor" fill-rule="evenodd" d="M194.663 154.256C174.413 142.474 152.767 136 130 136 62.74 136 8 189.628 8 256s54.74 120 122 120c34.265 0 66.16-13.796 93.787-37.923 9.983-8.719 11.009-23.88 2.29-33.864s-23.88-11.009-33.864-2.29l-.634.55C172.336 319.079 151.478 328 130 328c-40.969 0-74-32.361-74-72s33.031-72 74-72c26.199 0 51.397 14.661 74.466 40.116 8.531 9.413 16.099 19.589 22.559 29.755a199 199 0 0 1 5.802 9.699q.513.919.925 1.683l.528.992.326.633.129.253.803 1.537q.754 1.42 1.719 3.152l.414.739a249 249 0 0 0 6.791 11.312c7.837 12.334 17.003 24.658 27.504 36.245 13.785 15.212 28.874 28.03 45.371 37.628C337.587 369.526 359.233 376 382 376c67.26 0 122-53.628 122-120s-54.74-120-122-120c-33.454 0-65.961 14.125-93.599 37.76-10.073 8.615-11.255 23.765-2.641 33.839s23.765 11.255 33.839 2.641C339.139 193.529 361.069 184 382 184c40.969 0 74 32.361 74 72s-33.031 72-74 72c-26.199 0-51.397-14.661-74.466-40.116-8.531-9.413-16.099-19.589-22.559-29.755a199 199 0 0 1-5.802-9.699q-.513-.919-.925-1.683l-.528-.992-.327-.634-.128-.252-.803-1.537a174 174 0 0 0-1.719-3.152l-.414-.739a249 249 0 0 0-6.791-11.312c-7.837-12.334-17.003-24.658-27.504-36.245-13.785-15.212-28.874-28.03-45.371-37.628" clip-rule="evenodd"/></svg>