<svg xmlns="http://www.w3.org/2000/svg" width="512" height="512" fill="none"><path fill="currentColor" fill-rule="evenodd" d="M256 56C145.553 56 56 145.553 56 256s89.553 200 200 200 200-89.553 200-200S366.447 56 256 56m0 32c92.773 0 168 75.227 168 168s-75.227 168-168 168S88 348.773 88 256 163.227 88 256 88m-26 76c0-14.359 11.641-26 26-26s26 11.641 26 26-11.641 26-26 26-26-11.641-26-26m30 48c8.731 0 15.829 6.994 15.997 15.685L276 228v104h28c8.837 0 16 7.163 16 16 0 8.731-6.994 15.829-15.685 15.997L304 364h-88c-8.837 0-16-7.163-16-16 0-8.731 6.994-15.829 15.685-15.997L216 332h28v-88h-16c-8.731 0-15.829-6.994-15.997-15.685L212 228c0-8.731 6.994-15.829 15.685-15.997L228 212z" clip-rule="evenodd"/></svg>