<svg xmlns="http://www.w3.org/2000/svg" width="512" height="512" fill="none"><path fill="currentColor" fill-rule="evenodd" d="M224 128c0 17.673 14.327 32 32 32a32 32 0 0 0 22.627-9.373A32 32 0 0 0 288 128c0-17.673-14.327-32-32-32s-32 14.327-32 32m36 72c10.931 0 19.813 8.769 19.997 19.656L280 220v156h45c11.046 0 20 8.954 20 20 0 10.931-8.769 19.813-19.656 19.997L325 416H187c-11.046 0-20-8.954-20-20 0-10.931 8.769-19.813 19.656-19.997L187 376h53V240h-44c-10.931 0-19.813-8.769-19.997-19.656L176 220c0-10.931 8.769-19.813 19.656-19.997L196 200z" clip-rule="evenodd"/></svg>