<svg xmlns="http://www.w3.org/2000/svg" width="512" height="512" fill="none"><path fill="currentColor" d="M211.175 284.011a25.6 25.6 0 0 1 1.451-6.678h-78.741l39.68-110.933 39.274 109.824A27.54 27.54 0 0 1 239.165 256h9.088l-53.334-149.333h-42.666L45.586 405.333h42.667L118.759 320h92.416zM267.73 427.52a61.52 61.52 0 0 1-13.973-43.051v-57.813a27.9 27.9 0 0 1 8.179-19.81 27.92 27.92 0 0 1 19.81-8.179h66.411a64.83 64.83 0 0 1 42.666 23.296s36.864 38.784 63.232 62.464a29.505 29.505 0 0 1 11.548 30.705 29.5 29.5 0 0 1-4.764 10.489 30.7 30.7 0 0 1-4.053 4.587l-71.403 70.613a27.923 27.923 0 0 1-39.082 5.504 27.3 27.3 0 0 1-5.504-5.482l-36.48-36.864zm52.907-84.48a16.493 16.493 0 0 0-16.406 16.533 16.495 16.495 0 0 0 16.491 16.448 16.491 16.491 0 0 0 .085-32.981z"/></svg>