<svg xmlns="http://www.w3.org/2000/svg" width="512" height="513" fill="none"><path fill="currentColor" d="M442.441 330.711a74.17 74.17 0 0 0-56.75-31.357 74.16 74.16 0 0 0-59.722 25.243l-121.88-56.833a74.7 74.7 0 0 0-.187-21.618l122.064-56.919a75.9 75.9 0 0 0 98.519 13.418 75.9 75.9 0 1 0-116.551-52.087l-122.116 56.945a74.85 74.85 0 0 0-117.52 92.311 74.845 74.845 0 0 0 79.715 29.877 74.86 74.86 0 0 0 38.042-23.259l121.881 56.834a74.62 74.62 0 0 0 23.525 65.978 74.61 74.61 0 0 0 67.849 17.406 74.61 74.61 0 0 0 52.381-46.505 74.62 74.62 0 0 0-9.25-69.434m-58.27-222.906a32 32 0 0 1 27.938 21.991 31.99 31.99 0 0 1-9.625 34.227 31.998 31.998 0 1 1-18.313-56.218M127.849 288.814a31.995 31.995 0 0 1-28.315-40.563 31.99 31.99 0 0 1 27.018-23.111 32 32 0 0 1 31.69 16.118 31.99 31.99 0 0 1 .615 30.161 31.994 31.994 0 0 1-31.008 17.395M379.201 406.02a32 32 0 0 1-27.939-21.991 32 32 0 0 1 26.639-41.685 31.995 31.995 0 0 1 31.692 16.117 32 32 0 0 1 .616 30.162 32 32 0 0 1-18.611 15.919 32 32 0 0 1-12.397 1.477z"/></svg>