<svg xmlns="http://www.w3.org/2000/svg" width="512" height="513" fill="none"><path fill="currentColor" d="M320 171.232v170.667H106.667V171.232zm42.667 53.333v-74.666a21.33 21.33 0 0 0-21.334-21.334h-256A21.333 21.333 0 0 0 64 149.899v213.333a21.334 21.334 0 0 0 21.333 21.333h256a21.33 21.33 0 0 0 21.334-21.333v-74.667l48.853 48.854a21.332 21.332 0 0 0 32.924-3.23A21.33 21.33 0 0 0 448 322.272V190.645a21.33 21.33 0 0 0-3.556-11.917 21.325 21.325 0 0 0-21.973-9.123 21.33 21.33 0 0 0-10.951 5.894z"/></svg>