<svg xmlns="http://www.w3.org/2000/svg" width="512" height="513" fill="none"><path fill="currentColor" d="M426.668 106.797H85.335c-23.467 0-42.667 19.2-42.667 42.667v213.333c0 23.467 19.2 42.667 42.667 42.667h341.333c23.467 0 42.667-19.2 42.667-42.667V149.464c0-23.467-19.2-42.667-42.667-42.667m-224 181.333v-64h106.667v64zm106.667 32v53.334H202.668V320.13zm-106.667-128v-53.333h106.667v53.333zm-128-42.666c0-6.4 4.267-10.667 10.667-10.667h85.333v53.333h-96zm0 74.666h96v64h-96zm0 138.667V320.13h96v53.334H85.335c-6.4 0-10.667-4.267-10.667-10.667m362.667 0c0 6.4-4.267 10.667-10.667 10.667h-85.333V320.13h96zm0-74.667h-96v-64h96zm-96-96v-53.333h85.333c6.4 0 10.667 4.267 10.667 10.667v42.666z"/></svg>