<svg xmlns="http://www.w3.org/2000/svg" width="512" height="512" fill="none"><path fill="currentColor" fill-rule="evenodd" d="M340 64c-58.715 0-104.967 44.946-105.886 101.451l-.014 1.716.006 3.852c.067 13.82.739 20.869 2.982 27.635l.226.665a16 16 0 0 1-2.692 15.336l-.551.653-40.274 47.266-35.376 41.432-20.027 23.398c-42.152 49.187-67.269 78.065-72.6 83.195q-.2.194-.409.38A4.16 4.16 0 0 0 64 414.07c0 2.735 2.225 7.169 5.162 10.24l.563.582c4.02 4.112 11.566 10.986 17.884 16.039l.46.366c1.652 1.311 3.199 2.481 4.602 3.485l.58.412 1.518-1.52q1.34-1.347 2.584-2.617l1.828-1.874 4.14-4.319c1.8-1.888 3.545-3.723 3.927-4.119l.718-.743c.545-.562 1.078-1.105 1.612-1.644l.874-.875.011-.116c.058-.791.017-1.939-.152-3.461l-.041-.358-.108-.836a100 100 0 0 0-.536-3.39l-.691-4.024c-.451-2.698-.608-3.933-.766-5.888-.399-4.925-.033-9.207 1.825-13.543 5.126-11.961 12.324-17.315 23.91-19.754 3.466-.73 6.839-.711 10.649-.226l1.065.145c1.459.21 2.616.417 4.607.825l5.042 1.057 1.151.229c2.193.421 3.68.616 4.675.628h.385c1.861-.029 2.787-.537 6.448-3.915l1.625-1.511c1.546-1.45 2.42-2.423 2.863-3.1l.098-.157-.168-.473a38 38 0 0 0-.833-2.005l-1.476-3.327c-1.008-2.297-1.642-3.891-2.274-5.805-3.634-11-2.332-21.646 6.544-30.339 5.907-5.786 13.359-8.212 21.192-7.524 4.755.418 8.82 1.734 14.08 4.074l1.47.665 3.685 1.705c1.343.612 2.148.954 2.854 1.214l.232.083.256.088.122-.058q.208-.103.439-.231l.237-.135.247-.147c1.421-.863 3.035-2.151 4.602-3.688a34 34 0 0 0 2.381-2.587l.348-.429.208-.267-2.996-6.132a149 149 0 0 1-1.133-2.394c-4.109-8.914-5.921-15.527-4.343-23.137l.133-.605c2.185-9.367 13.256-20.754 23.582-22.999 3.87-.841 7.097-.551 11.733.428l1.529.335c1.496.339 2.916.695 4.939 1.237l8.269 2.258c1.336.357 2.321.608 3.211.818l.951.216.352-.209.541-.338.289-.186a72 72 0 0 0 2.615-1.797l3.382-2.426.429-.305a76 76 0 0 1 3.702-2.478 16 16 0 0 1 14.805-1.105c13.312 5.754 25.226 8.087 41.352 8.087 59.783 0 108-46.363 108-103.2C448 110.187 399.838 64 340 64M204.596 370.325l-.01.435c-.3 10.597-4.683 17.929-12.981 25.772l-.432.406-1.296 1.202c-4.2 3.871-7.244 6.244-11.082 8.318-5.499 2.972-11.412 4.391-18.098 4.311-3.34-.043-6.559-.467-10.611-1.258l-1.52-.305-4.934-1.034c-1.328-.269-2.043-.393-2.841-.504l-.391-.051-.262-.029.077.608c.077.56.187 1.257.357 2.267l.753 4.388c.25 1.492.431 2.677.595 3.92l.044.34c.649 5.067.747 9.472.026 13.897-1.003 6.151-3.576 11.7-7.974 16.174l-.393.392c-.722.71-1.422 1.412-2.148 2.155l-1.87 1.938c-1.593 1.672-5.336 5.608-7.017 7.345l-2.307 2.369a674 674 0 0 1-10.252 10.216l-1.339 1.306c-5.019 4.826-11.143 5.841-17.078 4.69-3.057-.593-5.965-1.755-9.046-3.395-4.094-2.179-8.662-5.33-13.746-9.326l-.638-.504c-7.87-6.244-17.21-14.78-22.144-19.938C37.89 437.913 32 426.17 32 414.07a36.15 36.15 0 0 1 11.236-26.189l.526-.492.355-.357c6.145-6.271 37.044-41.947 83.943-96.761l25.134-29.41 51.287-60.164-.086-.398c-1.739-8.071-2.245-16.754-2.291-29.713l-.004-1.642v-1.774C202.1 92.07 263.132 32 340 32c77.219 0 140 60.207 140 134.97 0 74.797-62.818 135.2-140 135.2-16.576 0-30.407-2.102-44.371-6.939l-.891-.313-.323-.116-.329.232a97 97 0 0 1-2.201 1.51l-.739.486c-4.446 2.888-8.405 4.823-12.847 5.775-3.87.841-7.097.551-11.733-.428l-1.529-.335a125 125 0 0 1-4.939-1.237l-8.269-2.258-.496-.131.258.565c.362.786.761 1.62 1.283 2.687l2.03 4.134.239.495c.86 1.793 1.538 3.3 2.13 4.774 2.164 5.397 3.12 9.865 1.976 15.234-2.958 13.879-21.71 32.272-37.897 34.157-4.629.54-8.989-.163-13.576-1.719l-.743-.257c-1.447-.511-2.694-1.016-4.416-1.785l-1.192-.539.071.167c.39.925.675 1.657.981 2.508l.229.65c1.272 3.655 1.973 7.112 1.89 10.838M368 96c26.51 0 48 21.49 48 48s-21.49 48-48 48-48-21.49-48-48 21.49-48 48-48m0 32c-8.837 0-16 7.163-16 16s7.163 16 16 16 16-7.163 16-16-7.163-16-16-16" clip-rule="evenodd"/></svg>