<svg xmlns="http://www.w3.org/2000/svg" width="512" height="512" fill="none"><path fill="currentColor" fill-rule="evenodd" d="M88 16a8 8 0 0 0-8 8v80a8 8 0 0 0 8 8h80a8 8 0 0 0 8-8V24a8 8 0 0 0-8-8zm128 0a8 8 0 0 0-8 8v80a8 8 0 0 0 8 8h80a8 8 0 0 0 8-8V24a8 8 0 0 0-8-8zm120 8a8 8 0 0 1 8-8h80a8 8 0 0 1 8 8v80a8 8 0 0 1-8 8h-80a8 8 0 0 1-8-8zM88 144a8 8 0 0 0-8 8v80a8 8 0 0 0 8 8h80a8 8 0 0 0 8-8v-80a8 8 0 0 0-8-8zm120 8a8 8 0 0 1 8-8h80a8 8 0 0 1 8 8v80a8 8 0 0 1-8 8h-80a8 8 0 0 1-8-8zm136-8a8 8 0 0 0-8 8v80a8 8 0 0 0 8 8h80a8 8 0 0 0 8-8v-80a8 8 0 0 0-8-8zM80 280a8 8 0 0 1 8-8h80a8 8 0 0 1 8 8v80a8 8 0 0 1-8 8H88a8 8 0 0 1-8-8zm136-8a8 8 0 0 0-8 8v80a8 8 0 0 0 8 8h80a8 8 0 0 0 8-8v-80a8 8 0 0 0-8-8zm-8 136a8 8 0 0 1 8-8h80a8 8 0 0 1 8 8v80a8 8 0 0 1-8 8h-80a8 8 0 0 1-8-8zm136-136a8 8 0 0 0-8 8v80a8 8 0 0 0 8 8h80a8 8 0 0 0 8-8v-80a8 8 0 0 0-8-8z" clip-rule="evenodd"/></svg>