<svg xmlns="http://www.w3.org/2000/svg" width="512" height="512" fill="none"><path fill="currentColor" fill-rule="evenodd" d="M207.997 63.685C207.829 54.994 200.731 48 192 48c-8.837 0-16 7.163-16 16v32H48l-.315.003C38.994 96.171 32 103.269 32 112c0 8.837 7.163 16 16 16h211.697a516 516 0 0 1-5.769 16.351c-10.247 27.585-22.982 55.162-38.294 80.794-5.731 9.593-11.723 18.733-17.976 27.361q-.494-.635-.986-1.274c-15.828-20.534-29.481-40.51-40.917-59.111-3.984-6.481-7.4-12.315-10.244-17.4l-.573-1.028a288 288 0 0 1-1.51-2.755l-.637-1.188-.714-1.355c-4.124-7.642-13.625-10.614-21.386-6.628-7.861 4.037-10.961 13.681-6.924 21.542l.188.364 1.317 2.471q1.014 1.876 2.31 4.197l.421.749c2.966 5.279 6.464 11.238 10.492 17.789l.882 1.431c11.818 19.113 25.808 39.516 41.951 60.458a520 520 0 0 0 5.796 7.38c-23.067 26.615-47.718 49.578-72.343 68.826-8.783 6.866-16.916 12.744-24.183 17.629a269 269 0 0 1-5.726 3.752l-.896.567q-.645.405-1.168.727l-1.23.747c-7.384 4.567-9.79 14.224-5.357 21.736 4.49 7.61 14.3 10.139 21.911 5.647.48-.283 1.258-.755 2.318-1.417l1.576-.993a293 293 0 0 0 5.159-3.362l1.266-.847c7.886-5.301 16.637-11.626 26.037-18.974 25.042-19.575 50.059-42.715 73.627-69.432a496 496 0 0 0 24.72 25.327c5.524 5.266 10.677 9.921 15.363 13.95l1.391 1.19a255 255 0 0 0 4.776 3.968l.414.333c.655.527 1.141.91 1.448 1.147l.282.212c6.982 5.149 16.834 3.795 22.16-3.108 5.397-6.997 4.101-17.044-2.896-22.442l-.695-.549-1.718-1.394q-.983-.807-2.114-1.761l-.929-.786c-4.598-3.909-9.775-8.558-15.402-13.922a466 466 0 0 1-26.193-27.102c8.606-11.323 16.728-23.445 24.383-36.261 16.403-27.459 29.938-56.765 40.82-86.063 3.68-9.906 6.801-19.141 9.384-27.493H336l.315-.003C345.006 127.829 352 120.731 352 112c0-8.837-7.163-16-16-16h-54.36a16 16 0 0 0-.702 0H208V64zm145.297 154.012c5.486-12.8 23.506-12.928 29.242-.384l.17.384 96 224c3.481 8.122-.281 17.528-8.403 21.009-8.021 3.438-17.293-.188-20.876-8.101l-.133-.302L426.021 400H309.979l-23.273 54.303c-3.437 8.02-12.652 11.789-20.704 8.53l-.305-.127c-8.02-3.437-11.789-12.652-8.53-20.704l.127-.305zM412.307 368 368 264.617 323.693 368z" clip-rule="evenodd"/></svg>