<svg xmlns="http://www.w3.org/2000/svg" width="512" height="512" fill="none"><path fill="currentColor" fill-rule="evenodd" d="M226.58 277.33c24.83 26.9 45.17 42.48 45.42 42.67l-17 42-12.4-8.58c-1.08-.84-19.78-15.39-44.3-41.67-45.86 51.39-82.267 74.56-90.397 79.734-.853.543-1.394.887-1.603 1.046L87 404l-23-36 15.7-10.53q.039-.028.362-.221c4.098-2.457 42.052-25.218 89.298-79.249-.93-1.18-1.86-2.36-2.78-3.57-34.184-44.343-50.754-78.45-54.103-85.345a38 38 0 0 0-.607-1.225L105 174l38-22 7.13 14.14q.013.025.127.269c1.496 3.217 16.095 34.6 47.203 75.951 26.74-38.86 44.27-81.41 53.79-108.36H32V90h138V48h44v42h138v44h-54.27c-9.15 28.72-31.57 89.69-71.15 143.33M432.76 464H480L363 176 246 464h47.24l24.49-58h90.54zm-96.45-102L363 279.85 389.69 362z" clip-rule="evenodd"/></svg>