<svg xmlns="http://www.w3.org/2000/svg" width="512" height="512" fill="none"><path fill="currentColor" fill-rule="evenodd" d="M262.95 312.22c9.819 7.133 12.007 20.87 4.89 30.7v-.01a22 22 0 0 1-30.75 4.9c-.93-.66-16.41-12.02-38.93-36.1-53.03 58.7-99.47 84.41-101.63 85.59a22.001 22.001 0 0 1-21.07-38.63c16.11-8.88 54.61-36.39 93.85-80.74-.91-1.16-1.82-2.32-2.74-3.51-38.31-49.7-52.28-82.55-52.86-83.93-4.526-11.168.774-23.899 11.889-28.555s23.906.496 28.691 11.555c.09.22 11.76 27.19 43.17 68.87 26.74-38.86 44.27-81.41 53.79-108.36H54c-12.15 0-22-9.85-22-22s9.85-22 22-22h116V70c0-12.15 9.85-22 22-22s22 9.85 22 22v20h116c12.15 0 22 9.85 22 22s-9.85 22-22 22h-32.27c-9.16 28.74-31.62 89.81-71.27 143.49 21.291 23.381 36.015 34.375 36.481 34.723zM478.33 433.6l-90-218a22 22 0 0 0-40.67 0l-90 218a22 22 0 1 0 40.67 16.79L316.66 406h102.67l18.33 44.39A22 22 0 0 0 458 464a22 22 0 0 0 20.32-30.4zM334.83 362 368 281.65 401.17 362z" clip-rule="evenodd"/></svg>