<svg xmlns="http://www.w3.org/2000/svg" width="512" height="512" fill="none"><path fill="currentColor" fill-rule="evenodd" d="M431.86 80H80.14C53.553 80 32 101.553 32 128.14v239.72c0 12.352 4.652 23.618 12.3 32.14H16l-.315.003C6.994 400.171 0 407.269 0 416c0 8.837 7.163 16 16 16h480l.315-.003C505.006 431.829 512 424.731 512 416c0-8.837-7.163-16-16-16h-28.3c7.648-8.522 12.3-19.788 12.3-32.14V128.14C480 101.553 458.447 80 431.86 80M80.14 112h351.72c8.914 0 16.14 7.226 16.14 16.14v239.72c0 8.914-7.226 16.14-16.14 16.14H80.14C71.226 384 64 376.774 64 367.86V128.14c0-8.914 7.226-16.14 16.14-16.14" clip-rule="evenodd"/></svg>