<svg xmlns="http://www.w3.org/2000/svg" width="512" height="512" fill="none"><path fill="currentColor" fill-rule="evenodd" d="m70.68 123.084 149.229-68.086c20.414-9.33 51.768-9.33 72.169-.006l149.336 68.089c30.08 13.656 30.139 44.503.105 58.216l-50.622 23.088 50.604 22.689c29.846 13.566 30.072 43.978.813 57.81l-.895.414-48.784 22.246 49.161 23.657.599.279c28.913 13.744 28.914 43.656.018 57.392l-.894.415-148.009 67.505c-20.891 9.511-53.086 9.606-74.213.281l-.636-.286-147.982-67.491c-29.804-13.548-30.102-43.932-.826-57.847l.897-.417 50.454-22.64-50.625-23.086c-29.804-13.548-30.102-43.932-.826-57.847l.896-.416 50.56-22.691-50.53-23.046c-30.105-13.684-30.105-44.538 0-58.222m89.291 98.946-76.117 34.16 147.983 67.482c12.505 5.7 35.022 5.776 47.792.228l.512-.228 148.033-67.505-76.051-34.097-58.606 26.728c-21.106 9.623-53.748 9.622-74.856-.001zm186.612-32.605c-.831.299-1.638.667-2.411 1.099l-63.931 29.159-.513.228c-12.769 5.547-35.286 5.471-47.791-.229L83.966 152.194l149.235-68.087c11.976-5.474 33.622-5.474 45.588-.005l149.384 68.111zM159.971 326.07l-76.016 34.109 147.975 67.489c12.509 5.696 35.031 5.772 47.798.232l.513-.227 147.984-67.494-.283-.132-73.197-35.225-61.328 27.966c-20.895 9.526-53.096 9.622-74.219.286l-.637-.286z" clip-rule="evenodd"/></svg>