<svg xmlns="http://www.w3.org/2000/svg" width="256" height="256" fill="none"><path fill="currentColor" d="M212.612 25.711a6.996 6.996 0 0 1 7.903 3.682 283 283 0 0 1 2.219 4.557 6.996 6.996 0 0 1-12.267 6.689 6.997 6.997 0 0 1-2.771-13.695q2.426-.632 4.916-1.233M222.469 50.433a6.996 6.996 0 0 1 8.976 4.162 206 206 0 0 1 3.218 9.475 6.997 6.997 0 0 1-13.357 4.17q-1.352-4.335-2.999-8.83a6.997 6.997 0 0 1 4.162-8.977M195.247 37.75a6.996 6.996 0 0 1-4.195 8.962 191 191 0 0 0-8.689 3.385 6.997 6.997 0 0 1-5.401-12.908 205 205 0 0 1 9.324-3.633 6.996 6.996 0 0 1 8.961 4.195M231.967 80.447a6.996 6.996 0 0 1 8.087 5.7 148 148 0 0 1 1.394 10.083 6.996 6.996 0 1 1-13.919 1.43q-.456-4.454-1.263-9.126a6.996 6.996 0 0 1 5.701-8.087M166.158 49.788a6.996 6.996 0 0 1-2.524 9.567 134 134 0 0 0-7.799 4.904 6.996 6.996 0 1 1-7.86-11.576 148 148 0 0 1 8.616-5.419 6.997 6.997 0 0 1 9.567 2.524M235.359 111.794a6.997 6.997 0 0 1 6.419 7.53 113 113 0 0 1-1.285 10.244 6.997 6.997 0 0 1-13.789-2.379c.501-2.904.88-5.895 1.125-8.976a6.996 6.996 0 0 1 7.53-6.419"/><path fill="currentColor" fill-rule="evenodd" d="M139.977 67.357a6.996 6.996 0 0 1-.07 9.894 101 101 0 0 0-2.996 3.082c9.405 12.624 15.304 26.359 18.429 40.513 2.641 11.967 3.261 24.067 2.433 35.832a6.97 6.97 0 0 1 3.374.706 6.98 6.98 0 0 1 3.652 4.355 7 7 0 0 1 4.615-6.987l3.682-1.326a6.996 6.996 0 1 1 4.741 13.165l-3.681 1.325a6.995 6.995 0 0 1-9.097-4.654 6.97 6.97 0 0 1-.7 3.481l-3.255 6.656a7 7 0 0 1-6.243 3.924c-4.015 19.121-11.244 36.454-18.821 49.675a7 7 0 0 1-7.37 3.395c-28.984-5.481-68.835-21.965-93.228-54.305-24.914-33.03-32.547-81.018.396-146.458a6.996 6.996 0 0 1 7.918-3.648c38.967 9.574 66.046 24.998 84.035 43.629q1.122-1.17 2.292-2.324a6.996 6.996 0 0 1 9.894.07M45.862 40.969c-28.146 59.008-19.713 99.562.75 126.693 19.353 25.657 50.418 40.603 76.094 47.088l-15.851-34.402-51.281-18.931a5.997 5.997 0 0 1 4.153-11.252l40.03 14.778-25.734-55.855-23.89-8.819a5.997 5.997 0 0 1 4.154-11.252l12.638 4.666-12.456-27.036a5.997 5.997 0 1 1 10.892-5.019L96.19 128.54l7.001-18.267a5.997 5.997 0 1 1 11.199 4.292l-11.188 29.193 28.212 61.232c9.957-22.992 16.505-52.849 10.262-81.127-7.326-33.183-32.673-65.945-95.814-82.893" clip-rule="evenodd"/><path fill="currentColor" d="M230.252 142.83a6.996 6.996 0 0 1 3.798 9.136 105 105 0 0 1-4.434 9.388 6.996 6.996 0 1 1-12.34-6.597 90 90 0 0 0 3.84-8.129 6.996 6.996 0 0 1 9.136-3.798M215.693 170.703a6.996 6.996 0 0 1 .809 9.861 120 120 0 0 1-6.994 7.555 6.996 6.996 0 0 1-9.854-9.934 106 106 0 0 0 6.178-6.672 6.996 6.996 0 0 1 9.861-.81M193.549 193.071a6.997 6.997 0 0 1-1.729 9.742 151 151 0 0 1-8.53 5.536 6.997 6.997 0 1 1-7.222-11.985 137 137 0 0 0 7.739-5.022 6.997 6.997 0 0 1 9.742 1.729M166.697 209.518a6.996 6.996 0 0 1-3.672 9.187 177 177 0 0 1-9.407 3.717 6.997 6.997 0 0 1-4.768-13.155c2.869-1.04 5.763-2.18 8.66-3.422a6.995 6.995 0 0 1 9.187 3.673M206.715 64.2a6.997 6.997 0 0 1 3.212 9.358l-1.628 3.328a6.996 6.996 0 1 1-12.57-6.146l1.628-3.328a6.996 6.996 0 0 1 9.358-3.212M167.951 75.287a6.997 6.997 0 0 1 6.996 6.996v3.621a6.997 6.997 0 0 1-13.993 0v-3.62a6.997 6.997 0 0 1 6.997-6.997M196.544 85a6.996 6.996 0 0 1 3.211 9.358l-3.254 6.656a6.997 6.997 0 0 1-12.571-6.146l3.255-6.656A6.997 6.997 0 0 1 196.544 85M167.951 97.918a6.996 6.996 0 0 1 6.996 6.996v3.621a6.997 6.997 0 0 1-13.993 0v-3.621a6.996 6.996 0 0 1 6.997-6.996M184.745 109.128a6.996 6.996 0 0 1 3.212 9.358l-3.255 6.656a6.997 6.997 0 0 1-12.57-6.146l3.254-6.656a6.997 6.997 0 0 1 9.359-3.212M172.946 133.256a6.997 6.997 0 0 1 3.212 9.359l-3.255 6.656a6.996 6.996 0 0 1-12.57-6.147l3.255-6.656a6.996 6.996 0 0 1 9.358-3.212M205.058 149.351a6.996 6.996 0 0 1-4.212 8.953l-3.681 1.326a6.997 6.997 0 0 1-4.741-13.165l3.681-1.326a6.997 6.997 0 0 1 8.953 4.212"/></svg>