<svg xmlns="http://www.w3.org/2000/svg" width="512" height="512" fill="none"><path fill="currentColor" fill-rule="evenodd" d="M171.519 237.974A16 16 0 0 0 160.35 243a16 16 0 0 0 .65 22.65c76.06 71.61 152.51 115.88 242 139.16-19.57 30.48-54.29 51.43-96 57.75a186 186 0 0 1-27.77 2.04c-49.31 0-98.93-19.21-136.93-53.9-29.41-26.87-69.77-81.59-95.06-189.73C31.49 153.66 27.89 89.9 33.49 67.15c2.39-9.72 7.38-15.6 14.82-17.6 6.51-1.71 13.32.4 18.32 5.66 44.91 47.55 91.97 55.47 141.79 63.85 39.49 6.64 80.31 13.51 121.15 39.89 45.75 29.55 77.05 69.27 90.49 114.86 10.13 34.36 9.09 69.58-2.64 101.58-86.94-21.51-160.82-63.71-234.45-133.07a16 16 0 0 0-11.451-4.346M417.43 375.42c15.87 3.93 32.17 7.18 49 9.77h.01a16 16 0 1 1-4.87 31.62 584 584 0 0 1-58.56-12c.79-1.22 1.56-2.46 2.29-3.71a158 158 0 0 0 12.13-25.68" clip-rule="evenodd"/></svg>