<svg xmlns="http://www.w3.org/2000/svg" width="256" height="256" fill="none"><path fill="currentColor" d="m191.732 17.652-25.456 25.456a4 4 0 0 0 5.657 5.657l18.627-18.628v41.844a4 4 0 0 0 8 0V30.137l18.627 18.628a4 4 0 0 0 5.657-5.657l-25.456-25.456a4 4 0 0 0-5.656 0M88.5 57s-11.662-3.104-21.01-6.69C54.76 45.43 43.743 38.165 33.31 27.118c-1.298-1.377-2.88-2.423-4.907-2.889-2.671-.613-5.354.038-7.44 1.635-2.266 1.737-3.357 3.956-4.12 6.843-.905 3.421-1.33 8.373-1.343 14.617-.025 12.854 1.708 30.11 4.991 47.763 3.87 20.806 9.642 41.092 17.18 59.005 8.828 20.982 19.813 38.15 33.077 50.408l.403.37c20.151 18.392 46.595 27.847 72.293 26.855 24.866-.96 46.433-11.657 58.061-29.819 9.433 2.455 19.171 4.448 29.273 6.002a8 8 0 0 0 2.432-15.814c-8.433-1.297-16.589-2.915-24.511-4.87 5.474-14.96 6.283-31.313 2.271-47.337a45.9 45.9 0 0 1-14.381 9.368c1.91 11.534.758 23.048-3.353 33.628-37.195-11.754-69.486-31.811-101.757-62.206a8 8 0 0 0-10.97 11.648c33.08 31.157 66.524 52.172 104.731 64.79-9.149 11.155-24.45 17.929-42.413 18.622-21.322.823-43.429-6.996-60.375-22.219l-.512-.463c-21.894-20.001-37.626-57.39-45.718-100.894-3.03-16.29-4.66-32.156-4.72-43.883l-.002-.862.31.26C41.04 55.4 50.9 61.086 61.76 65.25l.998.379C73.238 69.565 86.25 73 86.25 73z"/><path fill="currentColor" d="m100.933 85.142 38.184-38.184a6 6 0 0 1 8.486 0l38.183 38.184a6 6 0 0 1-8.485 8.485L149.36 65.686V130.2a6 6 0 1 1-12 0V65.686l-27.941 27.94a6 6 0 0 1-8.486-8.484"/></svg>