<svg xmlns="http://www.w3.org/2000/svg" width="512" height="512" fill="none"><path fill="currentColor" fill-rule="evenodd" d="m171.32 239.38-21.94 23.3L161 273.65c76.05 71.61 152.5 115.88 242 139.16-19.57 30.48-54.28 51.43-96 57.75a186 186 0 0 1-27.78 2.07c-49.31 0-98.93-19.21-136.93-53.9C95.46 375.95 62.8 309.1 45.22 220.1 28.58 135.9 30.9 74.89 31 72.33l1.4-33.18 25.08 21.76.03.026c1.405 1.2 46.805 39.965 90.12 53.104 23.796 7.214 45.63 10.873 66.706 14.406l.144.024.008.001c38.487 6.45 74.835 12.541 115.082 38.539 45.75 29.55 77.05 69.27 90.49 114.86 10.127 34.349 9.091 69.558-2.629 101.55 15.87 3.93 32.169 7.18 48.999 9.77l15.81 2.43-4.86 31.63-15.82-2.44a583 583 0 0 1-58.55-12c.78-1.22 1.55-2.46 2.29-3.71a158.6 158.6 0 0 0 12.119-25.65C330.48 361.94 256.6 319.74 182.97 250.38z" clip-rule="evenodd"/></svg>