<svg xmlns="http://www.w3.org/2000/svg" width="512" height="512" fill="none"><path fill="currentColor" fill-rule="evenodd" d="M42.94 51.727c-4.534 3.473-6.717 7.91-8.242 13.684-1.809 6.843-2.661 16.748-2.685 29.234-.05 25.709 3.414 60.219 9.982 95.526 7.74 41.613 19.283 82.184 34.357 118.01 17.657 41.964 39.629 76.3 66.157 100.817l.805.74c40.302 36.784 93.189 55.694 144.587 53.71 49.731-1.92 92.865-23.314 116.122-59.638 18.865 4.91 38.34 8.896 58.544 12.004 8.734 1.344 16.903-4.647 18.247-13.381s-4.647-16.903-13.381-18.247c-16.866-2.595-33.179-5.83-49.024-9.741 11.739-32.081 12.753-67.364 2.654-101.607-13.216-44.808-44.539-85.18-90.492-114.859-25.918-16.741-52.616-26.514-86.865-33.658l-2.889-.594c-6.635-1.346-12.542-2.428-22.158-4.073l-14.892-2.524c-33.386-5.706-49.078-9.337-67.776-16.509-25.457-9.764-47.492-24.293-68.359-46.387-2.597-2.754-5.762-4.847-9.814-5.777-5.342-1.227-10.708.074-14.879 3.27m344.544 314.037c10.198-26.247 11.293-55.367 2.886-83.874-10.989-37.258-37.481-71.402-77.162-97.03-22.462-14.51-45.903-23.016-77.163-29.447l-.4-.082c-7.045-1.445-13.026-2.541-23.714-4.363l-10.379-1.755c-36.464-6.172-54.064-10.083-75.024-17.956l-1.996-.758c-21.719-8.33-41.44-19.699-59.9-35.148l-.62-.522.004 1.725c.121 23.453 3.38 55.187 9.44 87.765 16.184 87.008 47.648 161.787 91.435 201.788l1.024.927c33.894 30.445 78.106 46.084 120.752 44.438 35.925-1.387 66.527-14.934 84.825-37.244-76.415-25.237-143.302-67.267-209.462-129.581-6.433-6.058-6.736-16.185-.677-22.617s16.184-6.736 22.617-.677c64.542 60.789 129.124 100.904 203.514 124.411" clip-rule="evenodd"/></svg>