<svg xmlns="http://www.w3.org/2000/svg" width="512" height="512" fill="none"><path fill="currentColor" fill-rule="evenodd" d="M320 474h-32c-17.673 0-32-14.327-32-32V58c0-17.673 14.327-32 32-32h32c17.673 0 32 14.327 32 32v384c0 17.673-14.327 32-32 32m-272 0h16c17.673 0 32-14.327 32-32V106c0-17.673-14.327-32-32-32H48c-17.673 0-32 14.327-32 32v336c0 17.673 14.327 32 32 32m160-336c17.673 0 32 14.327 32 32v28a4 4 0 0 1-4 4H116a4 4 0 0 1-4-4v-28c0-17.673 14.327-32 32-32zm-96 304c0 17.673 14.327 32 32 32h64c17.673 0 32-14.327 32-32v-30a2 2 0 0 0-2-2H114a2 2 0 0 0-2 2zm2-208a2 2 0 0 0-2 2v140a2 2 0 0 0 2 2h124a2 2 0 0 0 2-2V236a2 2 0 0 0-2-2zM463.66 99.45l32.23 340c1.48 15.65-11.58 29.69-29.17 31.36l-31.85 3c-17.59 1.69-33.05-9.66-34.53-25.31l-32.23-340c-1.48-15.65 11.58-29.69 29.17-31.36l31.85-3c17.59-1.69 33.05 9.66 34.53 25.31" clip-rule="evenodd"/></svg>