<svg xmlns="http://www.w3.org/2000/svg" width="512" height="512" fill="none"><path fill="currentColor" fill-rule="evenodd" d="M340 480h-72c-6.627 0-12-5.373-12-12V44c0-6.627 5.373-12 12-12h72c6.627 0 12 5.373 12 12v424c0 6.627-5.373 12-12 12m-312 0h56c6.627 0 12-5.373 12-12V92c0-6.627-5.373-12-12-12H28c-6.627 0-12 5.373-12 12v376c0 6.627 5.373 12 12 12m212-324v52H112v-52c0-6.627 5.373-12 12-12h104c6.627 0 12 5.373 12 12M112 416v52c0 6.627 5.373 12 12 12h104c6.627 0 12-5.373 12-12v-52zm128-176H112v144h128zm159 228.53L369 100.7c-.537-6.488 4.198-12.22 10.67-12.92l72.13-7.51A12 12 0 0 1 465 91.21l30.08 366.34c.532 6.411-4.086 12.102-10.47 12.9l-72.16 9A12 12 0 0 1 399 468.53" clip-rule="evenodd"/></svg>