<svg xmlns="http://www.w3.org/2000/svg" width="512" height="512" fill="none"><path fill="currentColor" fill-rule="evenodd" d="M272 32h64c17.673 0 32 14.327 32 32v24.103a35.4 35.4 0 0 1 12.386-3.655l40.4-4.25c20.009-2.105 37.831 12.834 40.121 33.077l34.87 321.54c2.19 20.206-12.1 38.626-32.163 40.737l-40.414 4.252c-20.011 2.087-37.853-12.859-40.057-33.027L368 307.316V448c0 17.673-14.327 32-32 32h-64c-9.558 0-18.136-4.19-24-10.833C242.136 475.81 233.558 480 224 480h-96c-9.558 0-18.136-4.19-24-10.833C98.136 475.81 89.558 480 80 480H48c-17.673 0-32-14.327-32-32V112c0-17.673 14.327-32 32-32h32c17.673 0 32 14.327 32 32v36.281A31.85 31.85 0 0 1 128 144h96a31.85 31.85 0 0 1 16 4.281V64c0-17.673 14.327-32 32-32m64 32h-64v384h64zM128 384V240h96v144zm0 32v32h96v-32zm96-208h-96v-32h96zM48 112h32v336H48zm381.101 4.799 34.862 321.466c.311 2.863-1.529 5.235-3.697 5.463l-40.4 4.25c-2.214.231-4.593-1.762-4.911-4.666l-34.919-321.579c-.31-2.861 1.53-5.233 3.698-5.461l40.4-4.25c2.225-.234 4.628 1.78 4.967 4.777" clip-rule="evenodd"/></svg>