<svg xmlns="http://www.w3.org/2000/svg" width="512" height="512" fill="none"><path fill="currentColor" fill-rule="evenodd" d="M208 142c9.941 0 18 8.059 18 18 0 9.831-7.881 17.821-17.669 17.997L208 178h-64c-43.078 0-78 34.922-78 78 0 42.647 34.227 77.301 76.71 77.99l1.29.01h64c9.941 0 18 8.059 18 18 0 9.831-7.881 17.821-17.669 17.997L208 370h-64c-62.96 0-114-51.04-114-114 0-62.331 50.024-112.978 112.115-113.985L144 142zm160 0c62.96 0 114 51.04 114 114 0 62.331-50.024 112.978-112.115 113.985L368 370h-64c-9.941 0-18-8.059-18-18 0-9.831 7.881-17.821 17.669-17.997L304 334h64c43.078 0 78-34.922 78-78 0-42.647-34.227-77.301-76.71-77.99L368 178h-64c-9.941 0-18-8.059-18-18 0-9.831 7.881-17.821 17.669-17.997L304 142zm.71 114c0-9.941-8.059-18-18-18H163.29l-.331.003c-9.788.176-17.669 8.166-17.669 17.997 0 9.941 8.059 18 18 18h187.42l.331-.003c9.788-.176 17.669-8.166 17.669-17.997" clip-rule="evenodd"/></svg>