<svg xmlns="http://www.w3.org/2000/svg" width="512" height="512" fill="none"><path fill="currentColor" fill-rule="evenodd" d="M223.41 136v48H144c-39.765 0-72 32.235-72 72 0 39.367 31.594 71.355 70.809 71.99L144 328h80.66v48H144c-66.274 0-120-53.726-120-120 0-65.611 52.657-118.924 118.016-119.984L144 136zM368 136c66.274 0 120 53.726 120 120 0 65.611-52.657 118.924-118.016 119.984L368 376h-80.66v-48H368c39.764 0 72-32.236 72-72 0-39.367-31.594-71.355-70.809-71.99L368 184h-79.41v-48zM145.07 280h223.86v-48H145.07z" clip-rule="evenodd"/></svg>