<svg xmlns="http://www.w3.org/2000/svg" width="512" height="512" fill="none"><path fill="currentColor" d="m405.335 381.867 19.2 76.8-68.267-40.534-70.4 40.534 17.067-76.8L241.068 320h81.067l36.266-74.667L388.268 320h81.067zM426.668 256c0 6.4-2.133 14.933-4.267 21.333h44.8c2.134-6.4 2.134-12.8 2.134-21.333 0-59.733-46.934-106.667-106.667-106.667h-85.333V192h85.333c36.267 0 64 27.733 64 64m-110.933-21.333H170.668v42.666h123.733zm-104.534 115.2L181.335 320h-32c-36.267 0-64-27.733-64-64s27.733-64 64-64h85.333v-42.667h-85.333c-59.734 0-106.667 46.934-106.667 106.667s46.933 106.667 106.667 106.667h74.666z"/></svg>