<svg xmlns="http://www.w3.org/2000/svg" width="512" height="512" fill="none"><path fill="currentColor" fill-rule="evenodd" d="M199.41 136c13.255 0 24 10.745 24 24 0 13.122-10.531 23.785-23.603 23.997l-.397.003H144c-39.765 0-72 32.235-72 72 0 39.367 31.594 71.355 70.809 71.99L144 328h56.66c13.255 0 24 10.745 24 24 0 13.122-10.531 23.785-23.603 23.997l-.397.003H144c-66.274 0-120-53.726-120-120 0-65.611 52.657-118.924 118.016-119.984L144 136zM368 136c66.274 0 120 53.726 120 120 0 65.611-52.657 118.924-118.016 119.984L368 376h-56.66c-13.255 0-24-10.745-24-24 0-13.122 10.531-23.785 23.603-23.997l.397-.003H368c39.764 0 72-32.236 72-72 0-39.367-31.594-71.355-70.809-71.99L368 184h-55.41c-13.255 0-24-10.745-24-24 0-13.122 10.531-23.785 23.603-23.997l.397-.003zm.93 120c0-13.255-10.745-24-24-24H169.07l-.397.003c-13.072.212-23.603 10.875-23.603 23.997 0 13.255 10.745 24 24 24h175.86l.397-.003c13.072-.212 23.603-10.875 23.603-23.997" clip-rule="evenodd"/></svg>