<svg xmlns="http://www.w3.org/2000/svg" width="512" height="512" fill="none"><path fill="currentColor" fill-rule="evenodd" d="M44 144c0-17.673 14.327-32 32-32s32 14.327 32 32-14.327 32-32 32-32-14.327-32-32m424 0c0-13.255-10.745-24-24-24H156l-.397.003C142.531 120.215 132 130.878 132 144c0 13.255 10.745 24 24 24h288l.397-.003C457.469 167.785 468 157.122 468 144m0 112c0-13.255-10.745-24-24-24H156l-.397.003C142.531 232.215 132 242.878 132 256c0 13.255 10.745 24 24 24h288l.397-.003C457.469 279.785 468 269.122 468 256m-24 88c13.255 0 24 10.745 24 24 0 13.122-10.531 23.785-23.603 23.997L444 392H156c-13.255 0-24-10.745-24-24 0-13.122 10.531-23.785 23.603-23.997L156 344zM76 224c-17.673 0-32 14.327-32 32s14.327 32 32 32 32-14.327 32-32-14.327-32-32-32M44 368c0-17.673 14.327-32 32-32s32 14.327 32 32-14.327 32-32 32-32-14.327-32-32" clip-rule="evenodd"/></svg>