<svg xmlns="http://www.w3.org/2000/svg" width="512" height="512" fill="none"><path fill="currentColor" fill-rule="evenodd" d="M48 144c0-17.673 14.327-32 32-32s32 14.327 32 32-14.327 32-32 32-32-14.327-32-32m416 0c0-8.837-7.163-16-16-16H160l-.315.003C150.994 128.171 144 135.269 144 144c0 8.837 7.163 16 16 16h288l.315-.003C457.006 159.829 464 152.731 464 144m0 112c0-8.837-7.163-16-16-16H160l-.315.003C150.994 240.171 144 247.269 144 256c0 8.837 7.163 16 16 16h288l.315-.003C457.006 271.829 464 264.731 464 256m-16 96c8.837 0 16 7.163 16 16 0 8.731-6.994 15.829-15.685 15.997L448 384H160c-8.837 0-16-7.163-16-16 0-8.731 6.994-15.829 15.685-15.997L160 352zM80 224c-17.673 0-32 14.327-32 32s14.327 32 32 32 32-14.327 32-32-14.327-32-32-32M48 368c0-17.673 14.327-32 32-32s32 14.327 32 32-14.327 32-32 32-32-14.327-32-32" clip-rule="evenodd"/></svg>