<svg xmlns="http://www.w3.org/2000/svg" width="512" height="512" fill="none"><path fill="currentColor" fill-rule="evenodd" d="M48 256c0-114.837 93.163-208 208-208s208 93.163 208 208-93.163 208-208 208S48 370.837 48 256m384 0c0-97.163-78.837-176-176-176S80 158.837 80 256s78.837 176 176 176 176-78.837 176-176m-80-90c8.837 0 16 7.163 16 16 0 8.731-6.994 15.829-15.685 15.997L352 198H224c-8.837 0-16-7.163-16-16 0-8.731 6.994-15.829 15.685-15.997L224 166zm0 72c8.837 0 16 7.163 16 16 0 8.731-6.994 15.829-15.685 15.997L352 270H224c-8.837 0-16-7.163-16-16 0-8.731 6.994-15.829 15.685-15.997L224 238zm16 87c0-8.837-7.163-16-16-16H224l-.315.003C214.994 309.171 208 316.269 208 325c0 8.837 7.163 16 16 16h128l.315-.003C361.006 340.829 368 333.731 368 325M168 158c-13.255 0-24 10.745-24 24s10.745 24 24 24 24-10.745 24-24-10.745-24-24-24m0 16a8 8 0 1 1 0 16 8 8 0 0 1 0-16m-24 81c0-13.255 10.745-24 24-24s24 10.745 24 24-10.745 24-24 24-24-10.745-24-24m32 0a8 8 0 1 0-16 0 8 8 0 0 0 16 0m-8 47c-13.255 0-24 10.745-24 24s10.745 24 24 24 24-10.745 24-24-10.745-24-24-24m0 16a8 8 0 1 1 0 16 8 8 0 0 1 0-16" clip-rule="evenodd"/></svg>