<svg xmlns="http://www.w3.org/2000/svg" width="512" height="512" fill="none"><path fill="currentColor" fill-rule="evenodd" d="M64 112h32c8.837 0 16 7.163 16 16v32c0 8.837-7.163 16-16 16H64c-8.837 0-16-7.163-16-16v-32c0-8.837 7.163-16 16-16m400 56v-48H144v48zm0 112v-48H144v48zm0 64v48H144v-48zM96 224H64c-8.837 0-16 7.163-16 16v32c0 8.837 7.163 16 16 16h32c8.837 0 16-7.163 16-16v-32c0-8.837-7.163-16-16-16M64 336h32c8.837 0 16 7.163 16 16v32c0 8.837-7.163 16-16 16H64c-8.837 0-16-7.163-16-16v-32c0-8.837 7.163-16 16-16" clip-rule="evenodd"/></svg>