<svg xmlns="http://www.w3.org/2000/svg" width="512" height="512" fill="none"><path fill="currentColor" fill-rule="evenodd" d="M256 48C141.31 48 48 141.31 48 256s93.31 208 208 208 208-93.31 208-208S370.69 48 256 48m-88 302c-13.255 0-24-10.745-24-24s10.745-24 24-24 24 10.745 24 24-10.745 24-24 24m0-71c-13.255 0-24-10.745-24-24s10.745-24 24-24 24 10.745 24 24-10.745 24-24 24m0-73a24 24 0 0 1-16.971-40.971A24 24 0 0 1 192 182c0 13.255-10.745 24-24 24m184 135H224c-8.837 0-16-7.163-16-16s7.163-16 16-16h128c8.837 0 16 7.163 16 16s-7.163 16-16 16m0-71H224c-8.837 0-16-7.163-16-16s7.163-16 16-16h128c8.837 0 16 7.163 16 16s-7.163 16-16 16m0-72H224c-8.837 0-16-7.163-16-16s7.163-16 16-16h128c8.837 0 16 7.163 16 16s-7.163 16-16 16" clip-rule="evenodd"/></svg>