<svg xmlns="http://www.w3.org/2000/svg" width="512" height="512" fill="none"><path fill="currentColor" fill-rule="evenodd" d="M256 32c13.122 0 23.785 10.531 23.997 23.603L280 56v33.701C353.577 100.226 411.774 158.423 422.299 232H456c13.255 0 24 10.745 24 24 0 13.122-10.531 23.785-23.603 23.997L456 280h-33.701C411.774 353.577 353.577 411.774 280 422.299V456c0 13.255-10.745 24-24 24-13.122 0-23.785-10.531-23.997-23.603L232 456v-33.701C158.423 411.774 100.226 353.577 89.701 280H56c-13.255 0-24-10.745-24-24 0-13.122 10.531-23.785 23.603-23.997L56 232h33.701C100.226 158.423 158.423 100.226 232 89.701V56c0-13.255 10.745-24 24-24m0 104c66.274 0 120 53.726 120 120s-53.726 120-120 120-120-53.726-120-120 53.726-120 120-120" clip-rule="evenodd"/></svg>