<svg xmlns="http://www.w3.org/2000/svg" width="512" height="512" fill="none"><path fill="currentColor" fill-rule="evenodd" d="M256 32c13.122 0 23.785 10.531 23.997 23.603L280 56v40q0 .897-.065 1.778c69.204 10.381 123.906 65.083 134.287 134.287q.685-.05 1.381-.062L416 232h40c13.255 0 24 10.745 24 24 0 13.122-10.531 23.785-23.603 23.997L456 280h-40q-.897 0-1.778-.065c-10.381 69.204-65.083 123.906-134.287 134.287q.05.685.062 1.381L280 416v40c0 13.255-10.745 24-24 24-13.122 0-23.785-10.531-23.997-23.603L232 456v-40q0-.897.065-1.778c-69.204-10.381-123.906-65.083-134.287-134.287q-.685.05-1.381.062L96 280H56c-13.255 0-24-10.745-24-24 0-13.122 10.531-23.785 23.603-23.997L56 232h40q.897 0 1.778.065c10.381-69.204 65.083-123.906 134.287-134.287a24 24 0 0 1-.062-1.381L232 96V56c0-13.255 10.745-24 24-24m0 96c70.692 0 128 57.308 128 128s-57.308 128-128 128-128-57.308-128-128 57.308-128 128-128" clip-rule="evenodd"/></svg>