<svg xmlns="http://www.w3.org/2000/svg" width="512" height="512" fill="none"><path fill="currentColor" fill-rule="evenodd" d="M256 32c-88.154 0-160 68.362-160 153 0 42.483 19.891 96.432 54.409 158.764l1.241 2.233c23.234 41.67 50.539 82.767 77.307 119.071l1.357 1.838A31.77 31.77 0 0 0 256 479.979l.491-.003a31.77 31.77 0 0 0 24.903-12.675l.214-.289c27.704-37.41 56.07-80.04 79.982-123.214C396.109 281.474 416 227.514 416 185c0-84.638-71.846-153-160-153m0 32c70.827 0 128 54.401 128 121 0 35.673-18.317 85.361-50.403 143.294l-1.201 2.161c-22.486 40.322-49.081 80.338-75.11 115.627l-1.287 1.738.111.151c-26.935-36.388-54.57-77.931-77.707-119.71C146.317 270.321 128 220.641 128 185c0-66.599 57.173-121 128-121m49 127.5c0-27.338-22.162-49.5-49.5-49.5S206 164.162 206 191.5s22.162 49.5 49.5 49.5 49.5-22.162 49.5-49.5" clip-rule="evenodd"/></svg>