<svg xmlns="http://www.w3.org/2000/svg" width="512" height="512" fill="none"><path fill="currentColor" fill-rule="evenodd" d="M352 112c0-53.02-42.981-96-96-96s-96 42.98-96 96v80h-16c-35.346 0-64 28.654-64 64v176c0 35.346 28.654 64 64 64h224c35.346 0 64-28.654 64-64V256c0-35.346-28.654-64-64-64H192v-80l.009-1.058C192.574 76.084 221.007 48 256 48c35.346 0 64 28.654 64 64l.003.315C320.171 121.006 327.269 128 336 128c8.837 0 16-7.163 16-16M176 224h-32c-17.673 0-32 14.327-32 32v176c0 17.673 14.327 32 32 32h224c17.673 0 32-14.327 32-32V256c0-17.673-14.327-32-32-32z" clip-rule="evenodd"/></svg>