<svg xmlns="http://www.w3.org/2000/svg" width="512" height="512" fill="none"><path fill="currentColor" fill-rule="evenodd" d="M351.987 111.412C351.139 59.125 308.489 17 256 17c-53.019 0-96 42.98-96 96v79h-16c-35.346 0-64 28.654-64 64v176c0 35.346 28.654 64 64 64h224c35.346 0 64-28.654 64-64V256c0-35.346-28.654-64-64-64h-16v-79zM320 192v-79c0-35.346-28.654-64-64-64-34.993 0-63.426 28.084-63.991 62.942L192 113v79zm-144 32h-32c-17.673 0-32 14.327-32 32v176c0 17.673 14.327 32 32 32h224c17.673 0 32-14.327 32-32V256c0-17.673-14.327-32-32-32H176" clip-rule="evenodd"/></svg>