<svg xmlns="http://www.w3.org/2000/svg" width="512" height="512" fill="none"><path fill="currentColor" fill-rule="evenodd" d="M392 80c30.619 0 55.498 24.573 55.992 55.074L448 136v240c0 30.619-24.573 55.498-55.074 55.992L392 432H240c-31.398 0-63.354-24.793-63.99-55.081L176 376v-40c0-8.837 7.163-16 16-16 8.731 0 15.829 6.994 15.997 15.685L208 336v40c0 10.974 16.155 23.742 31.534 23.996L240 400h152c13.122 0 23.785-10.531 23.997-23.603L416 376V136c0-13.122-10.531-23.785-23.603-23.997L392 112H232c-13.122 0-23.785 10.531-23.997 23.603L208 136v40c0 8.837-7.163 16-16 16-8.731 0-15.829-6.994-15.997-15.685L176 176v-40c0-30.619 24.573-55.498 55.074-55.993L232 80zm-115.314 84.686c6.162-6.161 16.099-6.247 22.365-.256l.263.256 80 80c6.161 6.162 6.247 16.099.256 22.365l-.256.263-80 80c-6.249 6.248-16.379 6.248-22.628 0-6.161-6.162-6.247-16.099-.256-22.365l.256-.263L329.373 272H80c-8.837 0-16-7.163-16-16 0-8.731 6.994-15.829 15.685-15.997L80 240h249.373l-52.687-52.686c-6.161-6.162-6.247-16.099-.256-22.365z" clip-rule="evenodd"/></svg>