<svg xmlns="http://www.w3.org/2000/svg" width="512" height="512" fill="none"><path fill="currentColor" fill-rule="evenodd" d="M508.655 148.625c0-44.913-33.036-81.042-73.856-81.042C379.507 64.998 323.117 64 265.49 64h-17.965c-57.488 0-113.978.998-169.27 3.593-40.72 0-73.756 36.329-73.756 81.241-2.495 35.521-3.553 71.052-3.493 106.582A1545 1545 0 0 0 4.4 362.108c0 44.912 33.036 81.341 73.756 81.341 58.087 2.695 117.671 3.892 178.252 3.792q91.023.3 178.252-3.792c40.82 0 73.856-36.429 73.856-81.341 2.395-35.631 3.493-71.161 3.393-106.792q.34-53.295-3.253-106.691m-301.052 204.7V157.208l144.717 98.009z" clip-rule="evenodd"/></svg>