<svg xmlns="http://www.w3.org/2000/svg" width="24" height="24" fill="none"><path fill="currentColor" d="M15 6.6a.97.97 0 0 1-.617-.898c0-.536.448-.972 1-.972q.175.001.332.055.001-.005.004-.003C18.834 6.158 21 9.208 21 12.752c0 4.83-4.03 8.748-9 8.748s-9-3.917-9-8.749C3 9.232 5.137 6.2 8.218 4.81c.124-.05.258-.077.392-.076.552 0 1 .435 1 .971a.97.97 0 0 1-.61.896c-2.365 1.092-4 3.436-4 6.15 0 3.758 3.134 6.805 7 6.805s7-3.047 7-6.805c0-2.714-1.635-5.058-4-6.15zm-3-4.1a1 1 0 0 1 1 1v6a1 1 0 0 1-2 0v-6a1 1 0 0 1 1-1"/></svg>