<svg xmlns="http://www.w3.org/2000/svg" width="512" height="512" fill="none"><path fill="currentColor" fill-rule="evenodd" d="M330 65.23c26.42 16.46 46 41.48 54.22 70.77a94.5 94.5 0 0 1 3.72 23.97H124.08a94.4 94.4 0 0 1 3.72-24c8.2-29.26 27.8-54.28 54.2-70.74a91 91 0 0 1 4.48-2.72q2.27-1.29 4.6-2.51L186 50.92l-15.81-28.61a4.22 4.22 0 0 1 7.38-4.09l21.18 38.15c1.6-.67 3.22-1.34 4.86-2a151 151 0 0 1 4.95-1.86 143.1 143.1 0 0 1 95 0c1.176.416 2.338.861 3.495 1.305q.728.28 1.455.555c1.64.62 3.26 1.29 4.86 2l21.18-38.2a4.21 4.21 0 0 1 3.69-2.17 4.14 4.14 0 0 1 2 .53 4.207 4.207 0 0 1 1.65 5.73L326 50.92 320.92 60q2.3 1.25 4.58 2.55t4.5 2.68M184 108c0 6.627 5.373 12 12 12s12-5.373 12-12-5.373-12-12-12-12 5.373-12 12m132 12c-6.627 0-12-5.373-12-12s5.373-12 12-12 12 5.373 12 12-5.373 12-12 12" clip-rule="evenodd"/><path fill="currentColor" d="M48 204c0-15.464 12.536-28 28-28s28 12.536 28 28v128c0 15.464-12.536 28-28 28s-28-12.536-28-28zM408 204c0-15.464 12.536-28 28-28s28 12.536 28 28v128c0 15.464-12.536 28-28 28s-28-12.536-28-28zM124 176v192c0 17.673 14.327 32 32 32h20v68c0 15.464 12.536 28 28 28s28-12.536 28-28v-68h48v68c0 15.464 12.536 28 28 28s28-12.536 28-28v-68h20c17.673 0 32-14.327 32-32V176z"/></svg>