<svg xmlns="http://www.w3.org/2000/svg" width="512" height="512" fill="none"><path fill="currentColor" fill-rule="evenodd" d="M0 256c0 141.385 114.615 256 256 256s256-114.615 256-256S397.385 0 256 0 0 114.615 0 256m416.662-9.797c-.033 83.912-68.294 152.19-152.224 152.224h-.063c-25.477-.009-50.51-6.401-72.745-18.528l-80.697 21.168 21.596-78.882c-13.322-23.086-20.331-49.273-20.32-76.103.034-83.931 68.322-152.215 152.227-152.215 40.722.017 78.943 15.871 107.683 44.644s44.56 67.018 44.543 107.692" clip-rule="evenodd"/><path fill="currentColor" fill-rule="evenodd" d="m147.487 364.898 47.887-12.562 4.62 2.742c19.426 11.528 41.694 17.627 64.398 17.637h.051c69.737 0 126.494-56.76 126.523-126.525.013-33.808-13.135-65.596-37.023-89.512s-55.656-37.093-89.45-37.105c-69.791 0-126.549 56.754-126.577 126.514-.009 23.908 6.68 47.19 19.345 67.334l3.008 4.787zm188.437-85.925c2.652 1.282 4.444 2.147 5.209 3.424.951 1.586.951 9.202-2.217 18.088-3.172 8.885-18.366 16.993-25.675 18.085-6.553.98-14.845 1.388-23.956-1.508-5.526-1.752-12.609-4.092-21.685-8.011-35.657-15.398-59.755-49.958-64.309-56.49a42 42 0 0 0-.667-.943l-.03-.041c-2.013-2.686-15.501-20.682-15.501-39.306 0-17.52 8.607-26.704 12.568-30.931q.408-.434.745-.8c3.486-3.808 7.607-4.76 10.143-4.76 2.535 0 5.073.024 7.289.135.273.014.558.011.853.01 2.216-.014 4.979-.03 7.705 6.519 1.049 2.52 2.584 6.256 4.202 10.195 3.272 7.969 6.889 16.773 7.525 18.047.952 1.904 1.585 4.125.317 6.664q-.284.57-.534 1.083c-.952 1.945-1.653 3.375-3.269 5.262-.635.742-1.293 1.542-1.95 2.341-1.307 1.594-2.616 3.187-3.755 4.322-1.904 1.897-3.887 3.956-1.669 7.764s9.853 16.262 21.161 26.348c12.155 10.842 22.719 15.424 28.074 17.748 1.045.453 1.892.82 2.514 1.131 3.801 1.904 6.021 1.586 8.24-.952 2.218-2.538 9.508-11.106 12.043-14.914 2.535-3.806 5.072-3.173 8.558-1.903 3.487 1.27 22.187 10.47 25.991 12.374.742.372 1.436.707 2.08 1.019" clip-rule="evenodd"/></svg>