<svg xmlns="http://www.w3.org/2000/svg" width="512" height="512" fill="none"><path fill="currentColor" fill-rule="evenodd" d="M504.584 234.319c-3.273-3.524-26.767-32.227-39.433-47.697-6.736-8.224-12.056-14.721-14.292-17.416l-.179-.22-.2-.209c-5.21-5.819-12.615-12.486-23.734-12.486-1.807.023-3.611.17-5.399.439-.369.05-.749.11-1.148.15-2.445.269-10.04 1.497-28.085 4.471-13.973 2.286-35.041 5.759-38.235 6.058l-.709.06-.688.13c-9.981 1.776-16.588 6.208-19.522 13.164-1.547 3.673-3.214 11.128 2.934 19.821 1.527 2.216 6.817 9.542 15.909 22.127 6.048 8.384 12.845 17.786 18.713 25.95L259.393 274.62 150.366 96.019l-.199-.34-.23-.329-.439-.649C145.037 88.154 139.488 80 123.459 80c-1.128 0-2.306 0-3.623.11-4.591.25-21.378 1.567-40.81 3.104-21.448 1.686-50.801 3.992-54.614 4.092h-.728l-.789.08c-9.122.888-15.739 4.59-19.661 10.978-6.538 10.669-1.418 22.646.26 26.578 3.363 7.955 33.993 72.529 61.01 129.527 17.965 37.866 36.509 77.02 38.026 80.493a34.78 34.78 0 0 0 32.876 21.548 46.5 46.5 0 0 0 9.84-1.098h.21l.199-.05c13.833-3.373 57.718-14.511 89.027-22.546 1.896 3.314 3.892 6.817 5.988 10.42 21.887 38.425 37.826 66.221 43.076 73.317 2.694 3.782 10.679 14.761 25.71 14.761 5.449 0 10.439-1.397 15.709-2.885l1.527-.429h.12c10.509-2.994 150.396-52.058 157.562-55.242l.22-.1c5.429-2.405 13.633-6.038 16.148-15.37 1.647-6.108.18-12.306-4.372-18.424l-.139-.179c-.849-1.098-3.992-5.2-8.254-10.879-9.112-12.046-23.834-31.508-36.768-48.445 17.336-4.492 38.724-10.091 43.295-11.528 11.448-3.423 14.911-10.669 15.969-14.701.788-3.144 1.816-11.178-5.889-18.813m-319.376 58.076c-17.775 4.162-30.161 7.066-37.816 8.883-6.657-13.314-19.701-39.573-32.437-65.203-29.682-59.803-45.012-90.593-53.076-106.691l8.134-.699a19699 19699 0 0 1 41.699-3.563c16.727 28.205 74.175 125.056 96.112 161.983zm177.813 66.51c-24.163 7.985-37.257 12.346-44.333 14.712-6.288-10.32-20.121-33.455-32.407-54.085l115.474-29.422c4.991 6.796 14.542 19.681 33.395 44.842-18.035 6.028-48.106 15.989-72.129 23.953m55.761-121.393-23.714-31.468c13.644-2.386 21.498-3.763 26.099-4.591l23.894 29.642c-8.184 1.986-17.706 4.311-26.279 6.417" clip-rule="evenodd"/></svg>