<svg xmlns="http://www.w3.org/2000/svg" width="512" height="512" fill="none"><path fill="currentColor" d="M295.827 272.103A43 43 0 0 1 256 298.55a42.909 42.909 0 0 1-42.86-43 43 43 0 1 1 82.687 16.553"/><path fill="currentColor" fill-rule="evenodd" d="M410.66 180.72a349 349 0 0 0-15.45-4.88q1.29-5.25 2.38-10.56c11.7-56.9 4.05-102.74-22.06-117.83-25-14.48-66 .61-107.36 36.69a326 326 0 0 0-11.95 11 234 234 0 0 0-8-7.36c-43.35-38.58-86.8-54.83-112.88-39.69-25 14.51-32.43 57.6-21.9 111.53a337 337 0 0 0 3.55 15.93 321 321 0 0 0-17.77 5.6C48.46 198.9 16 226.73 16 255.59c0 29.82 34.84 59.72 87.77 77.85a279 279 0 0 0 13 4.07 297 297 0 0 0-3.77 17.17c-10 53-2.2 95.07 22.75 109.49 25.77 14.89 69-.41 111.14-37.31a258 258 0 0 0 10-9.25 305 305 0 0 0 13 11.86c40.8 35.18 81.09 49.39 106 34.93 25.75-14.94 34.12-60.14 23.25-115.13q-1.25-6.3-2.88-12.86 4.56-1.35 8.93-2.79c55-18.27 90.83-47.81 90.83-78-.02-29-33.52-57.01-85.36-74.9m-129-81.08c35.43-30.91 68.55-43.11 83.65-34.39 16.07 9.29 22.32 46.75 12.22 95.88q-1 4.8-2.16 9.57a488 488 0 0 0-64.18-10.16 481 481 0 0 0-40.57-50.75q5.38-5.22 11.02-10.15zm-110.32 205.5a604 604 0 0 1-13.61-24.89c-6.1 14.5-11.32 28.75-15.56 42.47a435 435 0 0 0 44.24 7.13 587 587 0 0 1-15.07-24.71m-13.61-73.22-.013-.032a632 632 0 0 1 13.563-24.848A593 593 0 0 1 186 182.81c-15.22 1.9-29.82 4.41-43.52 7.48 4.167 13.47 9.242 27.419 15.237 41.598l-.017.032zm31.32-14.61a584 584 0 0 0-20.42 38.78h-.03a580 580 0 0 0 20.48 38.76 581 581 0 0 0 23.46 37.29c13.99.91 28.46 1.38 43.46 1.38s29.75-.55 44-1.55a683 683 0 0 0 23-37.24 628 628 0 0 0 20.64-38.94 694 694 0 0 0-20.69-38.6 623 623 0 0 0-23.13-37c-14.27-1.09-29-1.66-43.79-1.66s-29.43.57-43.71 1.65a580 580 0 0 0-23.27 37.13M340.75 305a633 633 0 0 0 13.92-25.49 440 440 0 0 1 16.12 42.32 435 435 0 0 1-44.79 7.65q7.62-12.09 14.75-24.48m-.09-98.07a670 670 0 0 1 13.81 25 440 440 0 0 0 15.37-41.39c-13.77-3.15-28.46-5.73-43.77-7.67q7.59 11.88 14.59 24.06m-84.43-82.45a440 440 0 0 1 28.25 34.18q-28.35-1.35-56.74 0c9.33-12.34 18.88-23.79 28.49-34.18m-21.57-21.35c-37.43-33.27-72.94-46.59-89-37.27-15.08 8.75-21.07 43.6-12.02 89.83q1.47 7.46 3.3 14.82a499 499 0 0 1 64.06-10 491.5 491.5 0 0 1 40.86-50.71c-2.4-2.31-4.81-4.54-7.2-6.67M122.25 317.71q-6-1.71-11.85-3.71c-23.4-8-42.73-18.44-56-29.81-11.88-10.19-17.9-20.36-17.9-28.6 0-17.51 26.06-39.85 69.52-55q8.19-2.85 16.52-5.21a493.5 493.5 0 0 0 23.4 60.75 502.5 502.5 0 0 0-23.69 61.58m57.39 127.39c16.45-5.83 35.11-17.4 53.74-33.72 3.11-2.73 6.16-5.55 9.14-8.48a501 501 0 0 1-41.2-51 481 481 0 0 1-64.69-9.39 312 312 0 0 0-3.5 16c-8.59 45.32-2.29 79.11 12.85 87.86 7.11 4.11 18.88 3.96 33.66-1.27m77.16-56.94c-9.72-10.51-19.42-22.14-28.88-34.64q13.79.54 28.08.54c9.78 0 19.46-.21 29-.64a440 440 0 0 1-28.2 34.74m108.8 58.45c7.11-4.12 12.86-14.42 15.72-29.86 3.18-17.19 2.49-39.17-2.32-63.47q-1.13-5.7-2.6-11.64a478 478 0 0 1-65 10.05 485 485 0 0 1-40.23 51.2c4.07 3.87 8.07 7.56 12.07 11 34.88 30.09 67.23 41.5 82.36 32.72m33.12-132.5c-2.62.87-5.32 1.71-8.06 2.53a483 483 0 0 0-24.31-60.94 482 482 0 0 0 23.36-60.06c4.91 1.43 9.68 2.93 14.27 4.52 44.42 15.32 71.52 38 71.52 55.43 0 18.6-29.27 42.74-76.78 58.52" clip-rule="evenodd"/></svg>