<svg xmlns="http://www.w3.org/2000/svg" width="512" height="512" fill="none"><path fill="currentColor" d="M430.2 175.4a188 188 0 0 0-15.1-26.6c-1.067-1.6-2.222-3.2-3.378-4.8-.577-.8-1.155-1.6-1.722-2.4A193 193 0 0 0 325.1 77a189.2 189.2 0 0 0-69.2-13 191.51 191.51 0 0 0-149.4 71.7A196 196 0 0 0 89 161.3c14.2.1 31.8.1 33.8.1 18.1 0 46-2.2 46-2.2 9.4-.6 10.4 13.1 1.1 14.2 0 0-9.4 1.1-19.8 1.6L213 362l37.8-113.3-26.8-73.6c-9.4-.5-18.1-1.6-18.1-1.6-9.4-.5-8.2-14.8 1-14.2 0 0 28.5 2.2 45.5 2.2 18.1 0 46-2.2 46-2.2 9.3-.6 10.5 13.1 1.1 14.2 0 0-9.3 1.1-19.7 1.6l62.3 185.6 17.3-57.6c8.7-22.4 13.1-40.9 13.1-55.7 0-21.3-7.7-36.1-14.3-47.6q-1.142-1.874-2.265-3.7l-.007-.012c-7.803-12.709-14.628-23.825-14.628-36.688 0-15.9 12-30.7 29-30.7h2.2c26.2-.7 34.8 25.3 35.9 43v.6c.279 5.026.217 9.126.155 13.287v.003a349 349 0 0 0-.055 5.51c0 17.4-3.3 37.1-13.1 61.8l-39 112.8-22.3 65.7c1.8-.8 3.5-1.6 5.3-2.5 56.7-27.4 98-82 106.7-146.7a172 172 0 0 0 1.9-26 191.1 191.1 0 0 0-17.8-80.8M64 256c0-25.1 6.8-52.9 16.8-75.5 2.765.146 4.542.103 6.551.054A125 125 0 0 1 96 180.6l93 255.3c-2.7-1-5.4-2.1-8-3.2C117.8 405.8 71.8 346 64.9 274.8c-.6-6.2-.9-12.5-.9-18.8"/><path fill="currentColor" d="m226.2 367 32.8-95.7 52.9 145.3c.114.228 1.048 2.283 2.316 5.074 2.076 4.566 5.046 11.102 6.784 14.826l-.002.001c-2.6.9-5.199 1.799-7.798 2.599a184.3 184.3 0 0 1-32.5 7.1 157 157 0 0 1-24.9 1.8 192.5 192.5 0 0 1-49.5-6.5h-.3c-.9-.25-1.775-.475-2.65-.7s-1.75-.45-2.65-.7l25.4-73.1z"/><path fill="currentColor" fill-rule="evenodd" d="M256 32C132.29 32 32 132.29 32 256s100.29 224 224 224 224-100.29 224-224S379.71 32 256 32m0 16c98.937.051 184.155 69.767 203.807 166.732S428.11 409.092 337 447.66C231.149 492.395 109.075 442.851 64.34 337S69.15 109.075 175 64.34A206.7 206.7 0 0 1 256 48" clip-rule="evenodd"/></svg>