<svg xmlns="http://www.w3.org/2000/svg" width="512" height="512" fill="none"><path fill="currentColor" d="M201.2 80.9c29.3 13.1 54.6 34.6 54.6 34.6s25.5-21.4 54.8-34.6c36.8-16.5 64.9-11.3 72.3-9.5-76.445-52.533-177.355-52.533-253.8 0 7.2-1.8 35.2-7.1 72.1 9.5M204.7 155.5s-38.2 34.2-77.9 92.8c-49 72.4-49.6 138.3-49.6 142.7-70.765-93.812-57.062-226.351 31.4-303.7l3.3.8c50.7 18.5 92.8 67.4 92.8 67.4M403.4 87.3A223.7 223.7 0 0 1 480 256a222.8 222.8 0 0 1-45.3 135.1c.1-4.4-.5-70.3-49.5-142.7-39.7-58.6-77.9-92.8-77.9-92.8s42.2-48.9 92.9-67.4zM255.8 199s56.6 37 102.9 93.9c39.8 48.9 54.7 84.8 62.7 107.8l1.4 4.8a224 224 0 0 1-333.6 0l1.3-4.8c8-23 22.8-58.9 62.6-107.8C199.5 236 255.8 199 255.8 199"/></svg>