<svg xmlns="http://www.w3.org/2000/svg" width="512" height="512" fill="none"><path fill="currentColor" d="m168.642 238.82-77.35-133.25-.01.01-.14-.24a223.93 223.93 0 0 1 344.19 17.4q.164.144.35.26a246 246 0 0 1 25.66 44h-.17a245.3 245.3 0 0 0-25.66-43.86l-.12-.08a246.5 246.5 0 0 1 25.78 43.94h-205.17c-42.516.058-79.08 30.118-87.36 71.82"/><path fill="currentColor" d="M256.002 346.5c-33.6 0-61.6-17.91-77.29-44.79L76.002 124.05l-.14-.24c-45.028 60.962-56.177 140.559-29.63 211.546 26.547 70.988 87.189 123.737 161.17 140.194v-.05l77.69-134.6a84.1 84.1 0 0 1-29.09 5.6"/><path fill="currentColor" d="M230.272 319.029c-25.111-10.408-41.478-34.917-41.47-62.099.11-37.065 30.135-67.081 67.2-67.18 27.181 0 51.686 16.375 62.086 41.488 10.4 25.114 4.647 54.019-14.576 73.237s-48.13 24.961-73.24 14.554"/><path fill="currentColor" d="M469.752 190a207 207 0 0 1 7 28.84v-.05a225.3 225.3 0 0 1 3.25 38.15c0 106.46-74.32 195.58-173.92 218.32a223 223 0 0 1-29.78 4.74c-6.69.61-13.46 1-20.3 1a224 224 0 0 1-25-1.26v-.02q.007-.135 0-.27l102.29-177.67a86.56 86.56 0 0 0 12.31-44.73c0-26.88-12.31-50.05-31.36-67.05h155.4a203.6 203.6 0 0 1 7.07 29 202 202 0 0 0-7.07-29z"/></svg>