<svg xmlns="http://www.w3.org/2000/svg" width="512" height="512" fill="none"><path fill="currentColor" d="M367.57 282.84v.77c0 17.93-11.11 28.49-25.95 28.49s-24.84-11.88-26.27-28.49c0 0-1.31-8.69-1.31-26.29a229.5 229.5 0 0 1 1.53-28.6c2.64-18.7 11.77-28.49 26.6-28.49s26.49 12.76 26.49 32.12v.55h49.58c0-24.09-6.05-45.76-18.25-59.4S369.76 153 345.8 153a108 108 0 0 0-33 4.73 58.8 58.8 0 0 0-25.94 16.61c-7.23 7.96-12.86 18.52-16.86 31.83s-6 30-6 50.27c0 19.8 1.65 36.3 4.84 49.61s8 23.87 14.4 31.79a49.75 49.75 0 0 0 24 16.5q14.5 4.62 34 4.62c27.47 0 47.26-7 59.13-20.57S418 305.06 418 279.1h-50.65c.22 0 .22 2.75.22 3.74M197.3 283.61v-.77c0-.99 0-3.74-.22-3.78h50.78c0 25.96-5.94 45.72-17.81 59.29s-31.66 20.57-59.14 20.57q-19.49 0-34-4.62a49.75 49.75 0 0 1-24-16.5c-6.4-7.92-11.21-18.48-14.4-31.79s-4.84-29.81-4.84-49.61c0-20.27 1.93-36.96 6-50.27s9.67-23.87 16.93-31.79a58.8 58.8 0 0 1 25.94-16.61 108 108 0 0 1 33-4.73c23.96 0 41.96 6.86 54.21 20.5S248 208.81 248 232.9h-49.6v-.55c0-19.35-11.66-32.12-26.49-32.12s-23.96 9.79-26.6 28.49a229.5 229.5 0 0 0-1.53 28.6c0 17.6 1.31 26.29 1.31 26.29 1.43 16.61 11.43 28.49 26.27 28.49s25.94-10.56 25.94-28.49"/><path fill="currentColor" fill-rule="evenodd" d="M0 432V80h512v352zm460.996-110.153c1.77-25.613 3.004-43.465 3.004-66.067 0-25.63-.11-42.58-3.77-77.22s-22.95-54.12-59.09-57.64-98.28-3.52-145.14-3.52-109.05 0-145.14 3.52-55.43 22.88-59.09 57.64S48 230.04 48 255.78c0 24.826 1.377 43.958 3.529 73.87l.241 3.35c2.29 31.86 19.09 54.23 59.09 57.86S207 394.71 256 394.6c49.37.11 105.25-.22 145.14-3.74s56.92-25.96 59.09-57.86c.265-3.89.521-7.596.766-11.153" clip-rule="evenodd"/></svg>