<svg xmlns="http://www.w3.org/2000/svg" width="512" height="512" fill="none"><path fill="currentColor" fill-rule="evenodd" d="M478.8 208.2c0 19.882-16.118 36-36 36s-36-16.118-36-36 16.117-36 36-36 36 16.118 36 36M442.6 139c-38.053.009-69.006 30.65-69.4 68.7l-43.2 62q-2.692-.3-5.4-.3a51.27 51.27 0 0 0-26.4 7.3L102.4 198c-5.82-26.531-31.147-44.061-58.028-40.164C17.49 161.732-1.816 185.731.137 212.824c1.952 27.092 24.5 48.074 51.663 48.076a51.3 51.3 0 0 0 26.4-7.3L274 332.2c5.395 24.913 28.125 42.189 53.573 40.719 25.448-1.471 46.037-21.25 48.527-46.619l66.5-48.6c38.301 0 69.35-31.049 69.35-69.35S480.901 139 442.6 139m0 22.9c25.64.028 46.409 20.826 46.4 46.467s-20.793 46.424-46.434 46.433-46.439-20.759-46.466-46.4c.022-25.672 20.827-46.478 46.5-46.5m-390.8 9a38.18 38.18 0 0 1 33.7 20.2l-18.9-7.6v.1c-15.31-5.61-32.307 1.94-38.41 17.06-6.101 15.119.895 32.353 15.81 38.94v.1l16.1 6.4a36.8 36.8 0 0 1-8.2.9c-21.015.028-38.073-16.986-38.1-38s16.985-38.072 38-38.1m272.8 112.2c18.667.007 34.581 13.538 37.588 31.962 3.008 18.424-7.777 36.314-25.474 42.256S299.621 355.505 290.9 339c6.3 2.5 12.5 5 18.8 7.6a30.27 30.27 0 1 0 22.5-56.2l-15.9-6.4a47 47 0 0 1 8.3-.9" clip-rule="evenodd"/></svg>