<svg xmlns="http://www.w3.org/2000/svg" width="512" height="512" fill="none"><path fill="currentColor" fill-rule="evenodd" d="M256 0C114.615 0 0 114.615 0 256s114.615 256 256 256 256-114.615 256-256S397.385 0 256 0M122.897 212.03h58.015v174.312h-58.015zm61.837-53.921C184.357 141.018 172.135 128 152.288 128s-32.821 13.018-32.821 30.109c0 16.737 12.592 30.129 32.068 30.129h.371c20.229 0 32.828-13.392 32.828-30.129m138.606 49.828c38.177 0 66.798 24.92 66.798 78.46l-.003 99.945h-58.012v-93.257c0-23.424-8.396-39.408-29.398-39.408-16.027 0-25.574 10.775-29.767 21.184-1.534 3.729-1.911 8.926-1.911 14.135v97.351h-58.022s.765-157.956 0-174.312h58.022v24.689c7.7-11.869 21.491-28.787 52.293-28.787" clip-rule="evenodd"/></svg>