<svg xmlns="http://www.w3.org/2000/svg" width="512" height="512" fill="none"><path fill="currentColor" d="m274.331 36.85 155.43 93.22a38.21 38.21 0 0 1 18.24 32.76V349a38.37 38.37 0 0 1-18.24 32.83l-155.43 93.13a35.9 35.9 0 0 1-17.83 5.07h-.58a35.66 35.66 0 0 1-18.3-5.07l-51.9-31.87c-3.22-1.87-6.84-4.55-6.51-8.32s4.14-5.18 5.76-5.77c9.94-3.62 12.82-5.27 23.54-11.62l.34-.2a7.8 7.8 0 0 1 7.83.41l38.83 23.06c.259.09.54.09.8 0L408.371 350c.292-.249.457-.616.45-1V165.5c.005-.434-.2-.844-.55-1.1l-151.93-93a.82.82 0 0 0-.73 0l-151.84 93a1.32 1.32 0 0 0-.59 1.06V349c-.004.368.176.713.48.92l39.06 23.51c9.67 4.99 18.24 5.75 24.14 2.15a15 15 0 0 0 6.85-13.07V182a8.51 8.51 0 0 1 8.42-8.58h22.38a8.51 8.51 0 0 1 8.42 8.58v180.51c0 33.49-19.97 54.29-52.11 54.29-9.13 0-17.01 0-37.59-10.53l-.23-.13-40.76-24.34A38.26 38.26 0 0 1 64 349V162.83a38.2 38.2 0 0 1 18.24-32.77l155.44-93.21a37 37 0 0 1 36.65 0"/><path fill="currentColor" d="M260.281 290.81c2.36 16.82 10.31 27.24 47.6 27.24 37.27 0 41.58-13.85 41.55-24.23 0-6.66 0-14.2-50-19.37-42.8-4.46-71.29-15.23-71.29-53.33 0-34.75 27.49-55.5 73.55-55.5 50.68 0 76.67 18.03 79.24 53.58a8.91 8.91 0 0 1-2.12 6.44 8.24 8.24 0 0 1-6.16 2.86h-19.87a8.35 8.35 0 0 1-8.06-6.67c-4.32-16.81-17.83-20-43.06-20-35.46 0-35.46 12.81-35.46 18.28 0 7.6 0 11.07 49.05 17.89 48.25 6.72 72.75 17 72.75 54.55 0 18.71-7.48 34.41-21.45 45.2s-34.25 16.49-58.63 16.49c-78.8 0-83.92-47.59-83.92-62.17a8.44 8.44 0 0 1 8.26-8.58h19.8a8.43 8.43 0 0 1 8.22 7.32"/></svg>