<svg xmlns="http://www.w3.org/2000/svg" width="512" height="512" fill="none"><path fill="currentColor" fill-rule="evenodd" d="M80.44 286.09H48.79V352H0V160h79.59q33.95 0 51.53 19.48a55.7 55.7 0 0 1 6 7.82l-31.06 95.58a93.4 93.4 0 0 1-25.62 3.21m17.13-63.4q.01-11.6-6.88-18.52t-23.48-6.92H48.79v51.58h18.34q17.8.01 24.44-7.61 5.99-6.93 6-18.53" clip-rule="evenodd"/><path fill="currentColor" d="m376.85 317.61 14.79-37.25h42.69l-20.26-56.51L439.41 160 512 352h-53.53l-12.4-34.39zM408.42 160 330.7 352h-50.81l-35-111.27L208.21 352h-50.7l-26.3-45 25.9-79.46 28.63 56.53L226.32 160h39.61l37.81 124.07L356.9 160z"/></svg>