<svg xmlns="http://www.w3.org/2000/svg" width="512" height="512" fill="none"><path fill="currentColor" fill-rule="evenodd" d="M178.12 298a76.8 76.8 0 0 0 18.73 52.64 85.8 85.8 0 0 0 20.54 17.5 121.7 121.7 0 0 0 25 12.11 153.7 153.7 0 0 0 27.6 7.14 176.6 176.6 0 0 0 28.3 2.31 187.6 187.6 0 0 0 33.41-2.8 241 241 0 0 0 30.74-7.84A271 271 0 0 0 392 367.37c9.79-4.48 19.71-9.38 29.91-14.84v94.92a336 336 0 0 1-33.75 14.35 345 345 0 0 1-33.75 10.08 261 261 0 0 1-34.78 6.12 343 343 0 0 1-36.48 2 202 202 0 0 1-48.57-5.81 190 190 0 0 1-43.88-16.66 183.9 183.9 0 0 1-37.6-26.46 167.3 167.3 0 0 1-29.35-35 170 170 0 0 1-19-42.42 175 175 0 0 1-6.64-48.72 181.6 181.6 0 0 1 7.55-52.64 168.3 168.3 0 0 1 21.8-46.06 166.5 166.5 0 0 1 34.6-37.31 182.8 182.8 0 0 1 46-26.6 97.3 97.3 0 0 0-21.67 33.11 143.5 143.5 0 0 0-10 38.36h159.17c0-16.1-1.61-30.1-4.89-42.14s-8.53-22.05-15.87-30-16.63-14-28.16-17.92-25.43-6-41.72-6a198.2 198.2 0 0 0-57.65 8.61 242.5 242.5 0 0 0-54.78 23.8 265.4 265.4 0 0 0-47.8 36.26A225.8 225.8 0 0 0 48 231.78a262 262 0 0 1 12.09-54.39 232 232 0 0 1 22.71-48.3 216.4 216.4 0 0 1 32.43-40.18 193 193 0 0 1 41.22-30.8 208.6 208.6 0 0 1 48.71-19.74A249.3 249.3 0 0 1 260.79 32 194.6 194.6 0 0 1 295 35.08a242 242 0 0 1 33.33 8.54 196.08 196.08 0 0 1 100.28 76.65 205 205 0 0 1 26.28 57.19 232.5 232.5 0 0 1 9.11 64.89V298z" clip-rule="evenodd"/></svg>