<svg xmlns="http://www.w3.org/2000/svg" width="512" height="512" fill="none"><path fill="currentColor" fill-rule="evenodd" d="M399.77 203c-.8-17.1-3.301-34.5-10.801-50.1a82.4 82.4 0 0 0-16.5-23.2 105.6 105.6 0 0 0-21.3-16.3c-17.1-10.2-37.5-17-84.399-31-46.901-14-74.771-18.4-74.771-18.4v358.3L271.9 448s.1-198.8.1-299.5v-3.8c0-9.3 7.499-16.8 16.099-16.8h.5c8.5 0 15.5 7.5 15.5 16.8V278c11 5.3 29.2 9.3 41.8 9.1a47.8 47.8 0 0 0 24-5.7 49.1 49.1 0 0 0 18.4-17.8 78.6 78.6 0 0 0 9.9-27.3c1.87-10.8 1.97-22.1 1.571-33.3M86.67 357.8c27.399-9.8 89.299-29.5 89.299-29.5v-47.2s-76.5 24.8-111.3 37.1c-2.323.838-4.654 1.653-6.984 2.469-6.294 2.202-12.585 4.404-18.716 7.031-9.8 4.1-19.4 8.7-28.1 14.8a26.3 26.3 0 0 0-9.2 10.1 17.36 17.36 0 0 0-.5 13.6c2 5.1 5.8 9.3 10.1 12.6 7.8 5.9 17.1 9.5 26.4 12.2a262.4 262.4 0 0 0 88.4 13.3c14.5-.2 36.001-1.9 50.001-4.4v-42s-11 2.5-41.3 12.5c-1.181.385-2.362.79-3.546 1.196h-.001c-3.429 1.175-6.886 2.361-10.453 3.104a105 105 0 0 1-21.6 2.2c-6.5-.3-13.2-.7-19.3-3.1-2.2-1-4.6-2.2-5.5-4.6-.8-2 .3-4 1.7-5.4 2.8-2.9 6.8-4.5 10.6-6m417.43-26.9c4.2 3.8 7.8 9 7.9 15a19.75 19.75 0 0 1-5 13.1c-6 6.7-13.9 11.3-21.8 15.3-6.444 3.26-13.175 5.657-19.931 8.064a540 540 0 0 0-6.47 2.336C405.2 403.9 288 443.5 288 443.5v-47s91.7-30.2 132.7-44.7c1.207-.461 2.439-.893 3.676-1.327 4.396-1.543 8.855-3.107 12.524-6.073 2-1.5 3.8-3.9 2.899-6.5-1-2.3-3.299-3.6-5.5-4.5-6.199-2.4-12.899-2.9-19.399-3.1a94.4 94.4 0 0 0-30.3 4.6c-29 10.2-96.5 31.8-96.5 31.8v-48.8s45.4-12.9 67.3-15.4c5.929-.676 15.916-.957 23.912-1.182 2.656-.075 5.093-.143 7.088-.218 26.399.1 53.1 3.1 78.3 11.3 3.953 1.245 7.05 2.329 10.583 3.566 1.293.452 2.644.925 4.117 1.434 8.799 3.2 17.6 7.2 24.7 13.5" clip-rule="evenodd"/></svg>