<svg xmlns="http://www.w3.org/2000/svg" width="512" height="512" fill="none"><path fill="currentColor" d="M172.86 290.12c-9.75 0-18.11 4.56-24.86 13.87s-10.07 20.58-10.07 34 3.43 24.91 10.07 34.12S163 386 172.86 386c9.1 0 17-4.66 23.68-13.87s10.07-20.58 10.07-34.12-3.43-24.81-10.07-34-14.54-13.89-23.68-13.89M340.32 290.12c-9.64 0-18.11 4.56-24.86 13.87s-10.07 20.58-10.07 34 3.43 24.91 10.07 34.12S330.57 386 340.32 386c9.11 0 17-4.66 23.79-13.87s10.07-20.58 10.07-34.12-3.43-24.81-10.07-34-14.57-13.89-23.79-13.89"/><path fill="currentColor" fill-rule="evenodd" d="M459.36 165c-.013 0 .017-.21.074-.623.439-3.139 2.517-18.008.246-41.847-2.36-27-8-51.78-17.25-74.53 0 0-4.72.87-13.72 3.14S405 58 384.89 67.18c-19.82 9.2-40.71 21.44-62.46 36.29-14.79-4.23-36.86-6.39-66.43-6.39-28.18 0-50.25 2.16-66.43 6.39Q117.9 53.25 69.46 48q-13.81 34.13-17.14 74.75c-2.57 27 .43 42.58.43 42.58C26.71 193.82 16 234.88 16 268.78c0 26.22.75 49.94 6.54 71 6 20.91 13.6 38 22.6 51.14A147.5 147.5 0 0 0 79 425.43c13.39 10.08 25.71 17.34 36.86 21.89 11.25 4.76 24 8.23 38.57 10.72a279 279 0 0 0 32.68 4.34s30 1.62 69 1.62 68.89-1.62 68.89-1.62a285 285 0 0 0 32.68-4.38 179 179 0 0 0 38.46-10.72c11.15-4.66 23.47-11.81 37-21.89a145 145 0 0 0 33.75-34.55c9-13.11 16.6-30.23 22.6-51.14s6.51-44.81 6.51-71.03c0-32.82-10.71-74.42-36.64-103.67m-70.07 253.07C359.39 432.26 315.46 438 257.18 438h-2.25c-58.29 0-102.22-5.63-131.57-19.93s-44.25-43.45-44.25-87.43c0-26.32 9.21-47.66 27.32-64 7.93-7 17.57-11.92 29.57-14.84s22.93-3 33.21-2.71c5.489.234 12.182.919 20.029 1.722h.001c6.563.672 13.932 1.426 22.08 2.068 5.631.444 10.827.93 15.722 1.388 10.656.998 19.886 1.862 29.068 1.862 8.186 0 18.113-.926 31.452-2.171 7.079-.66 15.119-1.41 24.368-2.159 26.68-2.16 46.61-3.25 59.46-1.09 13.18 2.17 24.65 6.72 34.4 15.93q28.44 25.67 28.5 64c-.11 43.98-15.22 73.24-45 87.43" clip-rule="evenodd"/></svg>