<svg xmlns="http://www.w3.org/2000/svg" width="512" height="512" fill="none"><path fill="currentColor" d="m457.91 158.92 1.95 4.28A222.2 222.2 0 0 1 480 256c0 123.51-100.49 224-224 224S32 379.51 32 256 132.49 32 256 32a221.6 221.6 0 0 1 102.71 25l4.17 2.07-3.67 2.93a70.2 70.2 0 0 0-20.66 27.08L337.3 92l-2.87-1.3A180.94 180.94 0 0 0 256 73C155.08 73 73 155.08 73 256s82.1 183 183 183 183-82.08 183-183a181.4 181.4 0 0 0-14.04-70.21l-1.22-2.93 3-1.1a70 70 0 0 0 28.06-19.32z"/><path fill="currentColor" d="M402.59 162.97c25.692 0 46.52-20.828 46.52-46.52s-20.828-46.52-46.52-46.52-46.52 20.828-46.52 46.52 20.828 46.52 46.52 46.52M256 153.9c-56.388 0-102.1 45.712-102.1 102.1S199.612 358.1 256 358.1 358.1 312.388 358.1 256c-.072-56.359-45.741-102.028-102.1-102.1"/></svg>