<svg xmlns="http://www.w3.org/2000/svg" width="512" height="512" fill="none"><path fill="currentColor" d="M174.226 258.739c18.369-7.609 39.428 1.114 47.036 19.483s-1.114 39.427-19.483 47.036-39.428-1.114-47.036-19.483 1.114-39.428 19.483-47.036M288 292c0-19.882 16.117-36 36-36s36 16.118 36 36-16.118 36-36 36-36-16.118-36-36M323.221 362.229l.009-.009.05-.01a4.13 4.13 0 0 1 5.81 0l13.71 13.47a4.16 4.16 0 0 1 0 5.9c-3.4 3.4-34.84 34.23-86.78 34.45-52.08-.22-83.38-31.05-86.78-34.45a4.15 4.15 0 0 1 0-5.89l13.7-13.47a4.14 4.14 0 0 1 5.83 0l.036.037c1.469 1.489 25.683 26.035 67.274 26.233 41.296-.199 66.542-25.657 67.141-26.261"/><path fill="currentColor" fill-rule="evenodd" d="M496 253.77c0-31.19-25.14-56.56-56-56.56a55.72 55.72 0 0 0-35.61 12.86c-35-23.77-80.78-38.32-129.65-41.27l22-79 66.41 13.2c1.9 26.48 24 47.49 50.65 47.49 28 0 50.78-23 50.78-51.21S441 48 413 48c-19.53 0-36.31 11.19-44.85 28.77l-90-17.89-31.1 109.52-4.63.13c-50.63 2.21-98.34 16.93-134.77 41.53A55.38 55.38 0 0 0 72 197.21c-30.89 0-56 25.37-56 56.56a56.43 56.43 0 0 0 28.11 49.06 99 99 0 0 0-.89 13.34c.11 39.74 22.49 77 63 105C146.36 448.77 199.51 464 256 464s109.76-15.23 149.83-42.89c40.53-28 62.85-65.27 62.85-105.06-.01-4.446-.29-8.888-.84-13.3A56.32 56.32 0 0 0 496 253.77M414 75c13.254 0 24 10.745 24 24s-10.746 24-24 24c-13.255 0-24-10.745-24-24s10.745-24 24-24M72.14 224.06c-16.32.099-29.481 13.39-29.42 29.71a30.23 30.23 0 0 0 8.97 21.4c7.14-17.27 18.57-33.27 34.07-47.68a29 29 0 0 0-13.62-3.43M390.82 399c-35.74 24.59-83.6 38.14-134.77 38.14S157 423.61 121.29 399c-33-22.79-51.24-52.26-51.24-83A78.5 78.5 0 0 1 75 288.72c5.68-15.74 16.16-30.48 31.15-43.79a155 155 0 0 1 14.76-11.53l.3-.21.24-.17c35.72-24.52 83.52-38 134.61-38s98.9 13.51 134.62 38l.23.17.34.25A157 157 0 0 1 406 244.92c15 13.32 25.48 28.05 31.16 43.81a85.5 85.5 0 0 1 4.31 17.67 77 77 0 0 1 .6 9.65c-.01 30.72-18.21 60.19-51.25 82.95m35.53-171.64c15.51 14.43 26.94 30.44 34.07 47.72v.02a30.07 30.07 0 0 0 8.99-21.39c.066-16.319-13.092-29.611-29.41-29.71a29.1 29.1 0 0 0-13.65 3.36" clip-rule="evenodd"/></svg>