<svg xmlns="http://www.w3.org/2000/svg" width="512" height="512" fill="none"><path fill="currentColor" d="M112 304h129.6l-48-48H112zM360 256h16v48h-16zM352 256h-34l34 34zM400 256h-16v48h16zM360.1 212.7c-8.8-4.1-22-5.7-45.6-5.7h-3.6c-12.7.1-15.9-.1-20-6.1-2.8-4.2-1-14.8 3.7-21.9a8 8 0 0 0 .4-8.2 8.26 8.26 0 0 0-7-4.3 53.7 53.7 0 0 1-18.3-3.9c-10.6-4.5-15.6-12.1-15.6-23.1 0-25.8 21.8-27.7 22.8-27.7v-16c-12 0-38.8 11-38.8 43.7 0 17.5 9 31 25.7 38a66.5 66.5 0 0 0 12 3.6c-3.3 9.8-3.6 20.9 1.7 28.7 8.991 13.287 20.278 13.2 33.262 13.1h3.538c26.3 0 34.6 2.3 38.9 4.3 5.7 2.6 6.8 7.5 6.6 15.7v1h16v-1.385c.006-7.268.017-22.546-15.7-29.815"/><path fill="currentColor" d="M390.9 194.4c6.092 10.386 9.092 23.865 9.1 49.5h-16c0-27.9-3.8-36.1-6.9-41.4-5.7-9.7-14.2-14.6-25.1-14.6h-29.5a8.06 8.06 0 0 1-6.9-3.9 8 8 0 0 1-.1-7.9l.015-.029c.424-.82 9.339-18.039 6.885-32.271-1.3-7.6-6.4-16.7-27.4-16.7v-16c24 0 39.9 11.2 43.1 30 1.9 11.1-.6 22.6-3.5 30.9H352c16.5 0 30.3 8 38.9 22.4"/><path fill="currentColor" fill-rule="evenodd" d="M363.5 59.5q.48.333 1 .6C435.787 99.51 480.026 174.545 480 256c0 123.7-100.3 224-224 224a222.7 222.7 0 0 1-67.7-10.9l-5.4-1.8a219 219 0 0 1-34.4-14.8 4 4 0 0 1-.55-.35 4 4 0 0 0-.55-.35C76.175 412.389 31.98 337.401 32 256 32 132.3 132.3 32 256 32a223.2 223.2 0 0 1 67.7 10.9l5.4 1.8a219 219 0 0 1 34.4 14.8M228.8 424a162 162 0 0 0 27.2 2.4c37.2 0 71.4-12.4 99.5-32.7L118.3 156.5c-20.3 28-32.7 62.2-32.7 99.4-.018 62.892 34.622 120.676 90.1 150.3a162.5 162.5 0 0 0 19 8.6c1.8.7 3.7 1.3 5.6 1.9a170 170 0 0 0 28.5 7.3m165-68.6L156.6 118.2c28-20.2 62.1-32.6 99.4-32.6 9.118.037 18.217.84 27.2 2.4a170 170 0 0 1 28.5 7.3l1.353.447h.002c1.386.456 2.816.926 4.245 1.453a162 162 0 0 1 18 8.1c56.076 29.398 91.206 87.486 91.2 150.8-.1 37.2-12.5 71.3-32.7 99.3" clip-rule="evenodd"/></svg>