<svg xmlns="http://www.w3.org/2000/svg" width="512" height="512" fill="none"><path fill="currentColor" d="m39.932 149.25 197.4 95.32c5.14 2.45 12 3.73 18.79 3.73s13.65-1.28 18.78-3.73l197.4-95.32c10.38-5 10.38-13.18 0-18.2l-197.4-95.32c-5.13-2.45-12-3.73-18.78-3.73s-13.65 1.28-18.79 3.73l-197.4 95.32c-10.38 5.02-10.38 13.18 0 18.2"/><path fill="currentColor" d="M472.302 246.9s-36.05-17.38-40.83-19.72-6.07-2.21-11.09.12-145.6 70.23-145.6 70.23a45.7 45.7 0 0 1-18.78 3.74c-6.77 0-13.65-1.29-18.78-3.74 0 0-136.85-66-143.27-69.18-6.95-3.35-8.95-3.35-15.28-.35l-39 18.78c-10.38 5-10.38 13.19 0 18.2l197.43 95.32c5.13 2.45 12 3.73 18.78 3.73s13.65-1.28 18.79-3.73l197.4-95.3c10.61-4.92 10.61-13.08.23-18.1"/><path fill="currentColor" d="M431.472 343c4.78 2.37 40.83 19.75 40.83 19.75 10.38 5.02 10.38 13.18-.12 18.25l-197.44 95.27c-5.13 2.45-12 3.73-18.78 3.73s-13.65-1.17-18.78-3.73l-197.4-95.32c-10.39-5.02-10.39-13.2 0-18.2l39-18.78c6.29-3.04 8.29-3.04 15.29.35 6.41 3.18 143.26 69.18 143.26 69.18 5.14 2.45 12.02 3.73 18.79 3.73a45.75 45.75 0 0 0 18.78-3.73s140.46-68.05 145.48-70.38 6.31-2.49 11.09-.12"/></svg>