<svg xmlns="http://www.w3.org/2000/svg" width="512" height="512" fill="none"><path fill="currentColor" d="M377.33 162.67c-15.464 0-28-12.536-28-28s12.536-28 28-28 28 12.536 28 28a27.94 27.94 0 0 1-8.183 19.817 27.94 27.94 0 0 1-19.817 8.183"/><path fill="currentColor" fill-rule="evenodd" d="M256 144c-61.856 0-112 50.144-112 112s50.144 112 112 112 112-50.144 112-112a112 112 0 0 0-112-112m0 37.33c30.201 0 57.429 18.193 68.986 46.095s5.169 60.019-16.186 81.375c-21.356 21.355-53.473 27.744-81.375 16.186S181.33 286.201 181.33 256c.044-41.221 33.449-74.626 74.67-74.67" clip-rule="evenodd"/><path fill="currentColor" fill-rule="evenodd" d="M162.67 32h186.66C421.2 32 480 90.8 480 162.67v186.66C480 421.2 421.2 480 349.33 480H162.67C90.8 480 32 421.2 32 349.33V162.67C32 90.8 90.8 32 162.67 32m280 130.67c-.154-51.486-41.854-93.186-93.34-93.34H162.67c-51.486.154-93.186 41.854-93.34 93.34v186.66c.154 51.486 41.854 93.186 93.34 93.34h186.66c51.486-.154 93.186-41.854 93.34-93.34z" clip-rule="evenodd"/></svg>