<svg xmlns="http://www.w3.org/2000/svg" width="512" height="512" fill="none"><path fill="currentColor" fill-rule="evenodd" d="M256 0C114.615 0 0 114.615 0 256s114.615 256 256 256 256-114.615 256-256S397.385 0 256 0m-56.285 120.291c14.563-.662 19.217-.824 56.298-.824h-.043c37.092 0 41.728.162 56.292.824 14.536.666 24.462 2.968 33.167 6.344 8.988 3.484 16.583 8.149 24.177 15.744 7.596 7.589 12.261 15.206 15.759 24.186 3.357 8.682 5.661 18.603 6.344 33.138.654 14.565.824 19.218.824 56.298 0 37.081-.17 41.723-.824 56.287-.683 14.529-2.987 24.453-6.344 33.138-3.498 8.977-8.163 16.594-15.759 24.184-7.586 7.594-15.191 12.271-24.168 15.759-8.688 3.376-18.621 5.676-33.155 6.342-14.565.663-19.204.826-56.287.826-37.078 0-41.728-.163-56.293-.826-14.532-.666-24.456-2.966-33.143-6.342-8.975-3.488-16.592-8.165-24.178-15.759-7.593-7.59-12.257-15.207-15.747-24.187-3.374-8.682-5.675-18.603-6.344-33.138-.659-14.563-.824-19.203-.824-56.284 0-37.08.17-41.736.822-56.301.654-14.529 2.958-24.453 6.342-33.138 3.499-8.977 8.165-16.594 15.759-24.183 7.59-7.592 15.207-12.257 24.187-15.744 8.682-3.376 18.603-5.678 33.138-6.344" clip-rule="evenodd"/><path fill="currentColor" fill-rule="evenodd" d="M243.765 144.075c2.378-.003 4.937-.002 7.698-.001l4.551.001c36.454 0 40.775.132 55.171.785 13.312.61 20.537 2.834 25.35 4.702 6.372 2.475 10.914 5.434 15.69 10.213 4.779 4.778 7.737 9.33 10.218 15.701 1.869 4.807 4.096 12.032 4.702 25.344.654 14.394.795 18.717.795 55.154s-.141 40.762-.795 55.155c-.609 13.312-2.833 20.537-4.702 25.344-2.475 6.371-5.439 10.909-10.218 15.685-4.778 4.778-9.316 7.737-15.69 10.212-4.807 1.877-12.038 4.096-25.35 4.704-14.393.655-18.717.797-55.171.797-36.458 0-40.779-.142-55.172-.797-13.312-.615-20.537-2.839-25.353-4.707-6.371-2.475-10.922-5.434-15.701-10.213s-7.737-9.318-10.218-15.692c-1.869-4.807-4.096-12.032-4.702-25.344-.653-14.393-.785-18.717-.785-55.178s.132-40.761.785-55.154c.609-13.312 2.833-20.537 4.702-25.35 2.475-6.372 5.439-10.922 10.218-15.701s9.33-7.737 15.701-10.217c4.813-1.878 12.041-4.096 25.353-4.709 12.595-.568 17.477-.739 42.923-.768zm85.13 22.671c-9.045 0-16.385 7.33-16.385 16.379 0 9.045 7.34 16.384 16.385 16.384s16.384-7.339 16.384-16.384-7.339-16.384-16.384-16.384zm-142.997 89.26c0-38.721 31.392-70.115 70.113-70.116 38.722 0 70.108 31.394 70.108 70.116s-31.384 70.102-70.105 70.102-70.116-31.38-70.116-70.102" clip-rule="evenodd"/><path fill="currentColor" d="M256.012 210.49c25.133 0 45.511 20.375 45.511 45.511 0 25.134-20.378 45.512-45.511 45.512-25.136 0-45.512-20.378-45.512-45.512 0-25.136 20.376-45.511 45.512-45.511"/></svg>