<svg xmlns="http://www.w3.org/2000/svg" width="512" height="512" fill="none"><path fill="currentColor" fill-rule="evenodd" d="M256 0C114.615 0 0 114.615 0 256s114.615 256 256 256 256-114.615 256-256S397.385 0 256 0m106.684 167.993c11.749 3.224 21.002 12.724 24.143 24.788 5.706 21.864 5.706 67.486 5.706 67.486s0 45.619-5.706 67.486c-3.141 12.064-12.394 21.563-24.143 24.789C341.391 358.4 256 358.4 256 358.4s-85.391 0-106.685-5.858c-11.75-3.226-21.004-12.725-24.144-24.789-5.704-21.867-5.704-67.486-5.704-67.486s0-45.622 5.704-67.486c3.14-12.064 12.394-21.564 24.144-24.788 21.294-5.86 106.685-5.86 106.685-5.86s85.391 0 106.684 5.86" clip-rule="evenodd"/><path fill="currentColor" d="M230.415 307.198v-85.333l68.267 42.668z"/></svg>