<svg xmlns="http://www.w3.org/2000/svg" width="512" height="512" fill="none"><path fill="currentColor" fill-rule="evenodd" d="M511.781 327.586c-1.467-11.896-7.496-22.216-17.965-30.71a3.6 3.6 0 0 0-.429-.439l-.529-.379-.17-.12-5.559-3.992-.19-.14-.708-.499a3.5 3.5 0 0 0-.829-.349c-17.586-10.47-46.699-17.805-91.242-2.086-10.629-17.885-11.837-32.217-4.72-54.174 1.267-3.823.089-6.348-3.703-7.985-7.625-3.243-18.065-1.587-25.47.37-3.454.898-5.53 2.854-6.188 5.818-4.691 21.957-18.325 42.018-31.509 61.38l-.778 1.138c-8.124-17.226-6.438-30.57-.779-47.287 1.128-3.334.24-5.55-2.884-7.206-8.723-4.502-21.808-1.408-27.017.129-6.607 1.927-13.694 19.782-21.608 41.16-1.996 5.379-3.713 9.98-4.741 12.126-2.445 4.991-4.781 10.679-7.256 16.718-5.589 13.663-11.887 29.043-20.889 38.704-3.274-7.236 1.876-18.644 6.877-29.712 5.918-13.084 11.507-25.45 5.07-33.345a11.8 11.8 0 0 0-8.314-4.311c-2.096-.16-4.2.182-6.138.998.669-5.639.699-10.091-.948-15.47-2.356-7.675-8.474-11.977-16.897-11.747-19.183.559-35.411 14.851-45.661 26.748-6.827 7.984-21.957 14.072-35.241 19.412-5.25 2.225-10.24 4.221-14.402 6.218-6.637-5.61-15.071-11.268-23.953-17.247-24.951-16.747-53.226-35.74-54.204-61.49-1.398-38.035 41.918-65.013 79.724-84.265 28.654-14.572 53.565-24.233 76.161-29.512 31.738-7.416 58.546-5.919 79.665 4.431 11.557 5.659 16.966 17.965 13.533 30.62-8.982 32.886-46.2 55.422-78.027 65.562-19.173 6.108-35.491 8.663-49.903 7.825-18.065-1.048-32.816-10.111-39.124-13.973a21 21 0 0 0-3.193-1.796l-.29-.07a3.2 3.2 0 0 0-3.184.998c-1.297 1.547-.838 3.992-.369 5.229 6.138 16.039 18.813 26.169 37.667 30.112a92 92 0 0 0 18.743 1.786c44.124 0 100.424-25.44 121.103-46.389 14.103-14.272 24.373-28.944 28.625-54.244 4.441-26.499-13.524-44.913-31.828-53.396-44.483-20.53-95.005-12.416-129.557-1.996-40.421 12.186-82.24 34.343-114.716 60.811C7.795 184.156-6.677 214.427 4.8 241.624c11.787 27.876 40.53 45.312 68.326 62.179 8.983 5.439 17.526 10.619 25.221 15.969-2.315 1.127-4.68 2.275-7.086 3.423-23.335 11.308-49.803 24.033-64.484 45.062-10.66 15.32-12.655 30.57-5.928 45.331 3.592 7.855 9.98 13.185 18.853 15.839a50 50 0 0 0 14.192 1.887c17.276 0 36.29-6.987 46.639-13.444 18.284-11.478 30.131-26.887 35.221-45.801 4.531-16.827 3.443-33.544-3.144-48.465l22.406-11.298c-10.808 35.93-2.525 57.388 6.578 69.225 3.353 4.361 9.401 6.986 16.158 7.106s12.975-2.425 16.488-6.757c6.647-8.234 11.557-17.865 16.078-27.496-.239 6.288.06 12.655 2.206 18.055 1.926 4.86 5.1 8.084 9.192 9.322 4.352 1.327 9.452.209 14.362-3.144 22.127-15.141 37.257-51.48 49.414-80.693 1.726-4.152 3.383-8.144 4.99-11.877a152.2 152.2 0 0 0 12.475 31.01c1.178 2.136 1.078 3.074-.518 4.83-2.406 2.635-5.759 5.819-9.312 9.193-10.759 10.21-24.153 22.955-25.95 34.163-.698 4.491 2.396 8.583 7.196 9.511 14.442 2.875 31.838-1.327 46.549-11.228 13.374-8.982 18.404-21.508 14.971-37.117-3.323-15.031 4.262-33.695 22.546-55.512 2.994 12.506 6.986 22.616 12.496 31.469l-.15.119c-13.314 11.628-31.558 27.547-28.724 46.859a13.33 13.33 0 0 0 5.569 9.202 14.2 14.2 0 0 0 11.178 2.056c17.436-3.663 30.561-11.039 40.102-22.526s6.058-24.223 2.845-34.104c24.951-6.766 47.167-6.597 67.967.499 11.677 3.993 20.051 10.55 24.881 19.602 6.078 11.388 2.795 21.897-9.272 29.592-3.702 2.366-5.489 3.813-5.599 5.639a2.65 2.65 0 0 0 .998 2.226c1.398 1.148 5.709 3.144 15.46-2.994 8.983-5.639 14.252-13.314 15.6-22.955a39 39 0 0 0-.01-7.995M112.83 352.598l-.1 1.277c-1.557 14.611-8.982 27.347-22.107 37.926-8.244 6.647-17.196 10.729-25.2 11.507-5.59.539-9.652-.219-12.067-2.265-1.806-1.527-2.775-3.813-2.994-6.986-1.637-25.431 38.245-50.701 60.691-59.015a51.3 51.3 0 0 1 1.777 17.556m102.15-71.72c-3.692 21.048-14.461 60.781-31.388 76.201-.809.738-1.487.998-1.797.928s-.549-.439-.798-.998c-5.649-13.095-3.563-35.211 4.99-52.587 6.577-13.394 15.969-22.267 26.468-24.952.436-.12.886-.184 1.338-.189.353-.025.705.07.998.269.25.395.319.878.189 1.328m83.328 76.73c-3.184 3.323-7.546 2.874-6.518 1.656l16.209-17.206c-1.308 5.919-5.17 10.819-9.691 15.55m67.238-14.881a14 14 0 0 1-4.92 1.387c-.459-9.052 8.314-19.242 16.967-26.039 2.325 9.441-2.436 19.422-12.047 24.652" clip-rule="evenodd"/></svg>