<svg xmlns="http://www.w3.org/2000/svg" width="512" height="512" fill="none"><path fill="currentColor" d="M315.1 243.96c25.991 0 47.06-21.069 47.06-47.06V79.06c0-25.99-21.069-47.06-47.06-47.06s-47.06 21.07-47.06 47.06V196.9c0 25.991 21.069 47.06 47.06 47.06M196.9 126.12c-25.985-.022-47.035-21.101-47.02-47.087.015-25.985 21.088-47.04 47.073-47.033C222.939 32.007 244 53.075 244 79.06v47.06zM79.033 362.12c25.986.015 47.065-21.035 47.087-47.02V268H79.06c-25.985 0-47.053 21.061-47.06 47.047s21.048 47.058 47.033 47.073M196.9 268.04c-25.991 0-47.06 21.069-47.06 47.06v117.84c0 25.991 21.069 47.06 47.06 47.06s47.06-21.069 47.06-47.06V315.1c0-25.991-21.069-47.06-47.06-47.06M243.96 196.9c0-25.991-21.069-47.06-47.06-47.06H79.06C53.07 149.84 32 170.909 32 196.9s21.07 47.06 47.06 47.06H196.9c25.991 0 47.06-21.069 47.06-47.06M385.88 196.9c.022-25.985 21.101-47.035 47.087-47.02 25.985.015 47.04 21.088 47.033 47.073-.007 25.986-21.075 47.047-47.06 47.047h-47.06zM315.1 385.88c25.985.022 47.035 21.101 47.02 47.087-.015 25.985-21.088 47.04-47.073 47.033-25.986-.007-47.047-21.075-47.047-47.06v-47.06zM268.04 315.1c0 25.991 21.069 47.06 47.06 47.06h117.84c25.991 0 47.06-21.069 47.06-47.06s-21.069-47.06-47.06-47.06H315.1c-25.991 0-47.06 21.069-47.06 47.06"/></svg>