<svg xmlns="http://www.w3.org/2000/svg" width="512" height="512" fill="none"><path fill="currentColor" d="M48 134.56V48c229.67 0 416 186.66 416 416h-86.78c0-185.36-143.97-329.44-329.22-329.44"/><path fill="currentColor" d="M48 186.67v86.55c52 0 101.94 15.39 138.67 52.11s52 86.56 52 138.67h86.66c0-151.56-125.66-277.33-277.33-277.33"/><path fill="currentColor" d="M108.56 342.78c-33.283.121-60.182 27.17-60.12 60.453s27.063 60.23 60.347 60.227c33.283-.004 60.278-26.957 60.333-60.24-.105-33.384-27.176-60.402-60.56-60.44"/></svg>