<svg xmlns="http://www.w3.org/2000/svg" width="512" height="512" fill="none"><path fill="currentColor" fill-rule="evenodd" d="M176 240c-8.837 0-16 7.163-16 16s7.163 16 16 16h144v104c-.033 30.914-25.086 55.967-56 56H104c-30.914-.033-55.967-25.086-56-56V136c.033-30.914 25.086-55.967 56-56h152c30.21 0 64 24 64 56v104zm144 0v32h89.37l-52.68 52.69a16 16 0 1 0 22.62 22.62l80-80c6.243-6.248 6.243-16.372 0-22.62l-80-80c-6.291-5.976-16.198-5.85-22.334.286s-6.262 16.043-.286 22.334L409.37 240z" clip-rule="evenodd"/></svg>