<svg xmlns="http://www.w3.org/2000/svg" width="512" height="512" fill="none"><path fill="currentColor" d="M269.84 209.35a4291 4291 0 0 0 47.63 31.82 4.3 4.3 0 0 0 3.83 0l39.76-26.47L268 152.48v53.35a4.8 4.8 0 0 0 1.84 3.52M241.2 209.81a3306 3306 0 0 1-46.11 30.86c-1.17.76-3.55 1.14-4.57.48-10.474-6.815-20.859-13.77-31.598-20.963l-.002-.002q-4.051-2.714-8.18-5.475C182 193.89 244 152.77 244 152.77v51.7a7.54 7.54 0 0 1-2.8 5.34M218.211 288.476a5639 5639 0 0 1 23.029 15.464c1.21.81 2.76 2.37 2.76 3.59v53.79s-62-41.42-93.2-62.19l38.88-26.12c2.07-1.48 3.5-1.38 5.5 0 7.66 5.18 15.346 10.323 23.031 15.466M253.37 230.54a5.27 5.27 0 0 1 4.74-.17c5.77 3.83 39.84 26.49 39.84 26.49l-39 26a6.18 6.18 0 0 1-6.26-.11l-38.84-25.86s17.1-11.47 25.35-17q1.481-.993 2.958-1.99c3.704-2.496 7.405-4.99 11.212-7.36M141 237.12v39.61l29.62-19.84zM316.25 273.23a3728 3728 0 0 1-45.39 30.34c-2.41 1.58-2.89 3.31-2.86 6.19v51.34l93-62-38.53-25.88c-2.3-1.61-3.89-1.57-6.22.01M370 237.06v39.62l-29.59-19.75z"/><path fill="currentColor" fill-rule="evenodd" d="M256 32C132.29 32 32 132.29 32 256s100.29 224 224 224 224-100.29 224-224S379.71 32 256 32m139 265c0 5.78-2.65 9.86-7.51 13.09a47545 47545 0 0 0-123.29 82.19c-5.85 3.92-11.17 3.75-17-.14a24944 24944 0 0 0-122.63-81.67c-5.11-3.39-7.59-7.56-7.59-13.73V217c0-6.14 2.52-10.34 7.62-13.72 40.91-27.13 81.94-54.36 122.73-81.68 5.82-3.89 11.09-4 16.94-.09a37737 37737 0 0 0 123.26 82.19c4.68 3.11 7.45 6.95 7.45 12.66z" clip-rule="evenodd"/></svg>