<svg xmlns="http://www.w3.org/2000/svg" width="512" height="512" fill="none"><path fill="currentColor" fill-rule="evenodd" d="M282.731 82.51a32.23 32.23 0 0 1-26.53 13.81c-17.706-.009-32.104-14.27-32.283-31.974s13.929-32.253 31.63-32.619c17.702-.366 32.399 13.586 32.953 31.283 23.01 12.76 42.73 38.68 57.14 75.16 14.7 37.23 22.47 81.83 22.47 129 0 39.15-5.51 76.35-15.93 109.49a9.89 9.89 0 0 1-12.34 6.44 9.82 9.82 0 0 1-5.8-4.84 9.72 9.72 0 0 1-.66-7.49c9.81-31.25 15-66.42 15-103.6 0-43.16-6.84-84.15-19.84-118.54-11.81-31.12-27.92-54.43-45.81-66.12M268.61 64.22c.033-6.892-5.518-12.51-12.409-12.56-6.925-.016-12.557 5.575-12.59 12.5 0 6.892 5.578 12.483 12.47 12.5s12.496-5.549 12.529-12.44" clip-rule="evenodd"/><path fill="currentColor" d="M86.76 255a9.9 9.9 0 0 0 4.87-1.29 9.82 9.82 0 0 0 3.65-13.43c-16.46-28.56-17.81-52.12-7.45-70 14.261-24.57 53.611-33.65 105.271-24.29 5.34.967 10.458-2.564 11.45-7.9a9.84 9.84 0 0 0-7.93-11.44c-29.19-5.28-56-5.18-77.39.3-22.3 5.71-39 17.28-48.45 33.48-14 24.19-12.7 54.73 7.42 89.62a9.85 9.85 0 0 0 8.56 4.95M361.611 143.73c32.24.42 52.61 9.31 62.79 26.86 14.21 24.48 2.52 62.81-31.27 102.52a9.82 9.82 0 0 0 7.51 16.18 9.88 9.88 0 0 0 7.52-3.46c19.12-22.47 32.35-45.54 38.25-66.71 6.14-22 4.43-42.21-5-58.38-13.8-23.78-40.13-36.15-79.59-36.67h-.14c-5.429-.033-9.857 4.341-9.89 9.77s4.341 9.857 9.77 9.89zM312.971 418.24c2.818-4.632 8.843-6.127 13.5-3.35v.04a9.814 9.814 0 0 1 3.38 13.5c-20.11 33.28-46.27 51.61-73.65 51.61-18.77 0-37.21-8.66-53.32-25-15.53-15.71-29-38.69-39-66.46a9.83 9.83 0 0 1 6-12.58c5.11-1.823 10.733.822 12.59 5.92 17.73 49.11 45.24 78.42 73.73 78.42 20.2 0 40.36-14.95 56.77-42.1"/><path fill="currentColor" fill-rule="evenodd" d="M404.893 352.708a32.14 32.14 0 0 1 26.808-14.168h.04a32.2 32.2 0 1 1-16.7 59.68c-15.51 8.49-35.39 12.79-58.51 12.79a225.6 225.6 0 0 1-35-2.91c-39.16-6.18-81.15-21.68-121.43-44.81-34.65-19.9-65.54-44.18-89.33-70.18a9.8 9.8 0 0 1 .65-13.9c4.031-3.632 10.235-3.342 13.91.65 22.44 24.53 51.69 47.49 84.6 66.39 72.07 41.41 150.07 56.12 191.87 36.62a32.14 32.14 0 0 1 3.092-30.162m18.988 27.772a12.6 12.6 0 0 0 7.81 2.72 12.61 12.61 0 1 0-10.01-4.93 10 10 0 0 1 2.2 2.21" clip-rule="evenodd"/><path fill="currentColor" fill-rule="evenodd" d="M82.09 338.59c.57-21.26 12.41-47 33.681-73.16 23.19-28.45 56.69-56 94.34-77.65 33.25-19.1 65.2-31.9 98.07-38.91a9.83 9.83 0 1 0-4.12-19.22c-34.85 7.43-68.78 21-103.79 41.09-84.18 48.35-140.37 119.14-137.81 173.16-13.232 8.749-18.159 25.806-11.63 40.262s22.583 22.038 37.895 17.896 25.355-18.783 23.705-34.559c-1.649-15.776-14.503-28.023-30.34-28.909M80.3 383.2c-6.891-.05-12.442-5.668-12.41-12.559.034-6.892 5.639-12.457 12.53-12.441 6.892.017 12.47 5.608 12.47 12.5-.032 6.925-5.664 12.517-12.59 12.5" clip-rule="evenodd"/><path fill="currentColor" d="M231.888 269.764c-1.328-12.396 6.922-23.793 19.113-26.404a24.361 24.361 0 0 1 28.642 31.274 24.36 24.36 0 0 1-18.322 16.336 24.7 24.7 0 0 1-5.16.55c-12.468.031-22.944-9.359-24.273-21.756"/></svg>