<svg xmlns="http://www.w3.org/2000/svg" width="512" height="512" fill="none"><path fill="currentColor" fill-rule="evenodd" d="M256 32C132.8 32 32 132.8 32 256s100.8 224 224 224 224-100.8 224-224S379.2 32 256 32m-82.16 280c-22.968.743-44.059-12.621-53.195-33.707s-4.463-45.612 11.786-61.862c16.25-16.249 40.777-20.922 61.862-11.786s34.45 30.227 33.707 53.195c-.955 29.507-24.653 53.205-54.16 54.16m168 0c-22.968.743-44.059-12.621-53.195-33.707s-4.463-45.612 11.786-61.862c16.25-16.249 40.777-20.922 61.862-11.786s34.45 30.227 33.707 53.195c-.955 29.507-24.653 53.205-54.16 54.16" clip-rule="evenodd"/></svg>