<svg xmlns="http://www.w3.org/2000/svg" width="512" height="512" fill="none"><path fill="currentColor" d="M165.609 70.2a.3.3 0 0 0-.1-.2 2.2 2.2 0 0 0-.3-.5 6.14 6.14 0 0 1-.7-4c.4-2.6 2.2-5.4 5.3-8.3a60.8 60.8 0 0 1 13.9-9.1c.35-.15.675-.3 1-.45s.65-.3 1-.45c1.2-.6 2.5-1.2 3.8-1.7a25.86 25.86 0 0 1 17.8-13 25.15 25.15 0 0 1 18.7 3.7 13.6 13.6 0 0 0 2-.2 15 15 0 0 1 2.1-.2 63.5 63.5 0 0 1 15.5.6 24.6 24.6 0 0 1 8.2 2.7 6.8 6.8 0 0 1 2.8-.7 6.06 6.06 0 0 1 6.1 6.1 6.14 6.14 0 0 1-5.4 6l-.3.6a30 30 0 0 1-2.4 2.8 29 29 0 0 1-3.2 2.8c-1 .8-2.2 1.6-3.4 2.4l-8.4 4.7a.35.35 0 0 1-.2.1l.3-1.5 6.5-3.8c1.2-.9 2.4-1.8 3.5-2.7a26 26 0 0 0 2.9-2.8 25.5 25.5 0 0 0 2.1-2.8 6.12 6.12 0 0 1-4.3-5.8 5.7 5.7 0 0 1 .9-3.2 29 29 0 0 0-6.1-1.4 62 62 0 0 0-10.8-.3h-.6l-3.5.3c-.3.05-.6.075-.9.1s-.6.05-.9.1a135 135 0 0 0-21.5 4.2c-.55.15-1.075.325-1.6.5s-1.05.35-1.6.5c13.6-2.9 23.9-2.9 29.2-2.1a25.8 25.8 0 0 1 3.9 9.5c2.3 11.9-3.2 23.4-14 28l4 23.3-12.7 3-4-24.3c-11.6-.3-20.9-8.7-23.2-20.6a24.7 24.7 0 0 1 .2-10.5 1.4 1.4 0 0 1-.255.09c-.101.03-.189.054-.245.11-.45.2-.875.425-1.3.65a21 21 0 0 1-1.3.65 57.3 57.3 0 0 0-10.9 7c-3.1 2.6-5 5.1-5.5 7.4-.2.754-.2 1.546 0 2.3.415.516.885.985 1.4 1.4a19.7 19.7 0 0 0 8.4 3.4 52 52 0 0 0 11.6.9h1.3c.2.2.4.425.6.65s.4.45.6.65q-1.445.174-2.9.2a63.7 63.7 0 0 1-11.9-.5c-3.6-.6-6.6-1.5-8.6-3a5.78 5.78 0 0 1-2.3-2.7v-.1c-.05-.1-.1-.175-.15-.25s-.1-.15-.15-.25"/><path fill="currentColor" fill-rule="evenodd" d="M468.409 269.19c-2.64-33.39-11.76-58-31.44-57.39a1.002 1.002 0 0 0-.92 1.37c5.11 12.59 9.68 36.9 9.17 58.07a1.002 1.002 0 0 1-2 .08c-2.19-21.21-7.1-41.19-16.22-59.43-35.127-70.454-110.676-111.302-188.863-102.114-78.188 9.188-142.21 66.436-160.047 143.114a4 4 0 0 1-3.33 3.11l-8.65 1.22c-17.2 2.4-26.9 34.9-21.7 72.5s23.5 66.2 40.7 63.8l13.24-1.85a4 4 0 0 1 3.93 1.84c40.161 63.18 114.177 96.263 188.038 84.047S423.6 410.187 441.279 337.44a4 4 0 0 1 3.68-3.08l4.4-.24c15.15-2.53 21.75-31.23 19.05-64.93m-373.91 1.23a1 1 0 0 1 1.59-1.19c9.63 10 20.25 27.65 23.32 49.86 3.24 23.05-2.24 45.2-9.13 57.87a1 1 0 0 1-1.84-.73c4.07-14.44 5.16-33.83 2.27-54.74-2.8-20.32-8.71-38.27-16.21-51.07m163.36 95.96c.866 7.861 7.501 13.816 15.41 13.83a15.48 15.48 0 1 0-15.41-13.83m97.25 9.11c-8.465.412-15.666-6.107-16.097-14.571-.43-8.465 6.073-15.68 14.536-16.129 8.464-.449 15.693 6.038 16.161 14.5.437 8.503-6.097 15.753-14.6 16.2" clip-rule="evenodd"/></svg>