<svg xmlns="http://www.w3.org/2000/svg" width="512" height="512" fill="none"><path fill="currentColor" fill-rule="evenodd" d="M455.27 32H56.73C43.074 32.005 32.006 43.074 32 56.73v398.54c.005 13.656 11.074 24.724 24.73 24.73H256V304h-53.55v-64H256v-51c0-57.86 40.13-89.36 91.82-89.36 24.73 0 51.33 1.86 57.51 2.68v60.43h-41.18c-28.12 0-33.48 13.3-33.48 32.9V240h67l-8.75 64h-58.25v176h124.6c13.656-.006 24.724-11.074 24.73-24.73V56.73c-.006-13.656-11.074-24.724-24.73-24.73" clip-rule="evenodd"/></svg>