<svg xmlns="http://www.w3.org/2000/svg" width="512" height="512" fill="none"><path fill="currentColor" d="m207.19 129.06 5-9.39L160 21.92c-5.05-9.47-17.9-7.06-19.56 3.54L89.09 343.7a1.33 1.33 0 0 0 2.49.84zM378.776 113.045a11 11 0 0 1 7.464 8.635L432 400l-160.26 91.81a33.32 33.32 0 0 1-32.4 0L80 400l287.67-284.32a11 11 0 0 1 11.106-2.635M221.32 136.63v.05l35.79 65.82-.5.5-131.95 130.44a4 4 0 0 1-6.34-4.74zM269 190.77 235.37 129l-.03-.04-5-9.14 16.39-30.63c4.15-7.98 14.34-7.19 18.53.81l36.21 68.68z"/></svg>