<svg xmlns="http://www.w3.org/2000/svg" width="512" height="512" fill="none"><path fill="currentColor" fill-rule="evenodd" d="M256 0C114.615 0 0 114.615 0 256s114.615 256 256 256 256-114.615 256-256S397.385 0 256 0m-7.13 216.939-.537-8.859c-1.612-22.959 12.534-43.93 34.918-52.064 8.237-2.893 22.204-3.254 31.337-.723 3.581 1.085 10.386 4.7 15.22 7.954l8.774 5.966 9.67-3.073c5.373-1.628 12.535-4.339 15.758-6.147 3.044-1.627 5.73-2.532 5.73-1.989 0 3.073-6.625 13.559-12.176 19.343-7.521 8.136-5.372 8.859 9.848 3.435 9.133-3.073 9.311-3.073 7.521.361-1.075 1.808-6.626 8.136-12.535 13.92-10.028 9.944-10.564 11.029-10.564 19.344 0 12.836-6.089 39.591-12.177 54.234-11.282 27.478-35.455 55.86-59.629 70.142-34.023 20.067-79.327 25.128-117.468 13.378-12.714-3.978-34.56-14.101-34.56-15.908 0-.543 6.625-1.266 14.684-1.447 16.832-.361 33.664-5.062 47.989-13.378l9.67-5.784-11.102-3.797c-15.758-5.424-29.904-17.897-33.485-29.648-1.075-3.796-.717-3.977 9.311-3.977l10.386-.18-8.775-4.158c-10.386-5.243-19.876-14.102-24.532-23.141-3.403-6.507-7.699-22.958-6.446-24.224.358-.541 4.119.542 8.416 1.989 12.355 4.519 13.967 3.434 6.805-4.158-13.431-13.739-17.549-34.168-11.102-53.511l3.044-8.677 11.818 11.751c24.174 23.682 52.646 37.783 85.236 41.941z" clip-rule="evenodd"/></svg>