<svg xmlns="http://www.w3.org/2000/svg" width="512" height="512" fill="none"><path fill="currentColor" d="M272.849 68.86c16.4-19.95 44.4-35.23 68.4-36.86 4.08 27.29-7.08 53.89-21.8 72.66-15.28 19.72-41.44 35.11-67 35.11h-1.92c-4.8-26.01 7.44-52.83 22.32-70.91"/><path fill="currentColor" d="M299.387 147.778c13.703-5.201 28.764-10.918 50.742-10.918l-.1.04c30.47 0 62.79 16.68 85.79 45.48-75.35 41.41-63.11 149.42 13.08 178.34-10.4 23.35-15.44 33.71-29 54.35-18.84 28.7-45.35 64.5-78.35 64.85h-.6c-13.181 0-21.94-4.024-31.373-8.357-11.006-5.056-22.93-10.533-43.867-10.533h-.6c-21.245.118-33.524 5.614-44.806 10.665-9.677 4.331-18.621 8.335-31.864 8.335h-.6c-33-.35-58.16-32.66-77-61.47-52.67-80.48-58.19-174.95-25.67-225.11C108.33 157.88 144.8 137 179 137c18.315 0 33.064 5.248 47.099 10.242 12.74 4.534 24.893 8.858 38.591 8.858 12.774 0 23.263-3.981 34.698-8.322"/></svg>