<svg xmlns="http://www.w3.org/2000/svg" width="513" height="512" fill="none"><path fill="currentColor" fill-rule="evenodd" d="M111.959 45.534c-6.808 2.182-11.424 5.156-16.29 10.493-4.835 5.305-6.769 8.714-8.682 15.31-1.2 4.14-1.304 21.025-1.108 179.34l.216 174.772 1.915 5.385c5.784 16.264 18.636 29.149 34.859 34.947l5.371 1.921 132.221.213c124.779.203 132.381.133 135.055-1.242 1.558-.801 3.604-2.508 4.545-3.794 1.615-2.204 1.725-3.596 1.955-24.575l.245-22.237 8.995-.28c10.101-.313 12.444-1.331 15.099-6.552 1.362-2.677 1.446-12.541 1.446-171.022 0-158.48-.084-168.346-1.446-171.022-.794-1.563-2.494-3.613-3.777-4.557l-2.333-1.716-132.947-.214-132.948-.215-4.366-4.629c-2.402-2.546-5.966-5.568-7.92-6.716-8.757-5.145-20.808-6.59-30.105-3.61m17.398 25.524c1.147.858 2.853 2.59 3.79 3.849l1.704 2.288.213 148.718.214 148.719-2.693-.688c-3.476-.889-15.954-.89-19.426-.002l-2.686.687V227.148c0-102.451.269-148.193.882-149.813 2.823-7.473 12.089-10.704 18.002-6.277m273.655 167.155v152.854H160.056V85.358h242.956zM191.475 111.664c-1.582.796-3.721 2.715-4.752 4.264l-1.876 2.815v132.066l1.876 2.815c4.068 6.105-2.443 5.713 94.686 5.713 96.314.002 90.57.323 94.555-5.278l1.843-2.59V118.083l-1.843-2.59c-3.985-5.601 1.759-5.28-94.555-5.279-81.234.001-87.251.098-89.934 1.45m161.954 73.112v49.709h-143.79v-99.418h143.79zM191.475 285.645c-8.847 4.456-8.847 17.496 0 21.951 2.683 1.352 8.7 1.449 89.934 1.45 96.314.002 90.57.322 94.555-5.278 2.572-3.616 2.572-10.679 0-14.295-3.985-5.6 1.759-5.28-94.555-5.278-81.234.001-87.251.098-89.934 1.45m0 49.709c-8.847 4.455-8.847 17.496 0 21.951 2.683 1.352 8.7 1.449 89.934 1.45 96.314.002 90.57.322 94.555-5.278 2.572-3.616 2.572-10.679 0-14.295-3.985-5.6 1.759-5.28-94.555-5.278-81.234.001-87.251.098-89.934 1.45m-64.241 63.47c3.386 1.436 5.4 3.72 8.011 9.086 1.221 2.507 3.25 5.057 4.893 6.148l2.808 1.864h234.448v27.34H257.329c-133.065 0-125.608.301-134.249-5.424-11.401-7.554-16.567-27.722-9.164-35.772 3.742-4.069 8.589-5.249 13.318-3.242" clip-rule="evenodd"/></svg>