<svg xmlns="http://www.w3.org/2000/svg" width="512" height="512" fill="none"><path fill="currentColor" fill-rule="evenodd" d="M328.379 40A144 144 0 0 1 430.22 82.243c56.33 56.4 55.33 148.18-1.04 204.55l-66.91 66.91-67.88-67.88 67.32-67.32c18.62-18.62 19.44-48.94 1.14-67.86a48 48 0 0 0-68.46-.59l-67.88 67.89-67.88-67.89 67.88-67.88A144 144 0 0 1 328.379 40M120 296.003v32H40v-32zm34.747 83.88-22.627-22.627-56.567 56.567 22.627 22.628zM216 472.003v-80h-32v80zM90.739 217.941l45.254-45.255 67.883 67.882-45.255 45.255zm181.025 90.498-45.255 45.255 67.882 67.882 45.255-45.255z" clip-rule="evenodd"/></svg>