<svg xmlns="http://www.w3.org/2000/svg" width="512" height="512" fill="none"><path fill="currentColor" fill-rule="evenodd" d="m206.866 78.864.002-.002c62.485-62.483 163.792-62.482 226.276.002 61.86 61.86 62.478 161.77 1.856 224.391l-1.854 1.884-.002.002L320.005 418.32a48 48 0 0 1-67.46.425l-.431-.426-22.616-22.626a48 48 0 0 1-.429-67.456l.425-.431 113.081-113.121c12.283-12.529 12.187-32.617-.224-45.028-12.301-12.301-32.143-12.504-44.692-.55l-.355.344-113.072 113.061c-18.556 18.553-48.524 18.739-67.298.568l-.565-.556-22.681-22.631a48 48 0 0 1-.425-67.46l.425-.431zM353.94 225.948l11.316 11.311-67.871 67.895 45.261 45.254 67.868-67.892 11.402 11.398-11.4-11.4c49.988-49.988 49.988-131.035 0-181.023-49.488-49.488-129.416-49.983-179.513-1.484l-1.509 1.484-11.309-11.308 11.307 11.31-67.892 67.868 45.263 45.27 67.884-67.878 11.313 11.315-11.221-11.406c25.051-24.646 65.29-24.483 90.139.367 24.602 24.601 25.008 64.285 1.099 89.384l-.732.756zm-33.917 147.091-45.261-45.254-22.64 22.648a16 16 0 0 0-.282 22.339l.286.294 22.619 22.629a16 16 0 0 0 22.336.287l.293-.286zM116.312 214.633l22.656-22.648 45.266 45.273-22.627 22.625-.263.257c-6.265 5.988-16.2 5.903-22.362-.257l-22.681-22.632-.285-.292a15.998 15.998 0 0 1 .296-22.326m91.685 201.06c-.168-8.692-7.266-15.685-15.997-15.685-8.837 0-16 7.163-16 16v48l.003.314c.168 8.692 7.266 15.686 15.997 15.686 8.837 0 16-7.164 16-16v-48zm-95.191-39.119c6.249-6.249 16.379-6.249 22.628 0 6.161 6.161 6.247 16.098.256 22.365l-.256.262-33.94 33.94c-6.249 6.249-16.38 6.249-22.628 0-6.161-6.161-6.247-16.098-.256-22.365l.256-.262zM112 320.008c0-8.837-7.163-16-16-16H48l-.315.003C38.994 304.178 32 311.276 32 320.008c0 8.836 7.163 16 16 16h48l.315-.003c8.691-.168 15.685-7.266 15.685-15.997" clip-rule="evenodd"/></svg>