<svg xmlns="http://www.w3.org/2000/svg" width="512" height="512" fill="none"><path fill="currentColor" fill-rule="evenodd" d="M332.027 37A144 144 0 0 1 433.87 79.238c56.33 56.4 55.33 148.19-1.04 204.53l-64.08 64.08a4 4 0 0 1-5.66 0l-62.22-62.23a4 4 0 0 1 0-5.66l64.44-64.46c18.61-18.61 19.44-48.93 1.14-67.85a48 48 0 0 0-68.46-.59l-65 65.05a4 4 0 0 1-5.66 0l-62.23-62.22a4 4 0 0 1 0-5.66l65.06-65.05A144 144 0 0 1 332.027 37M136.82 172.508l-31.11 31.12c-6.243 6.248-6.243 16.373 0 22.62l45.25 45.26a16 16 0 0 0 22.63 0l31.11-31.11a4 4 0 0 0 0-5.66l-62.22-62.23a4 4 0 0 0-5.66 0M101 299.748c8.837 0 16 7.164 16 16 0 8.732-6.994 15.829-15.685 15.997l-.315.003H53c-8.837 0-16-7.163-16-16 0-8.731 6.994-15.829 15.685-15.997l.315-.003zm39.434 72.567c-6.249-6.249-16.379-6.249-22.628 0l-33.94 33.94-.256.262c-5.99 6.267-5.905 16.203.256 22.365 6.249 6.248 16.379 6.248 22.628 0l33.94-33.94.256-.263c5.991-6.266 5.905-16.203-.256-22.364m72.563 39.118c-.168-8.691-7.266-15.685-15.997-15.685-8.837 0-16 7.164-16 16v48l.003.315c.168 8.691 7.266 15.685 15.997 15.685 8.837 0 16-7.163 16-16v-48zm28.473-72.045 31.11-31.11a4 4 0 0 1 5.66 0l62.23 62.22a4.003 4.003 0 0 1 0 5.66l-31.12 31.11c-6.248 6.244-16.372 6.244-22.62 0l-45.26-45.25a16 16 0 0 1 0-22.63" clip-rule="evenodd"/></svg>