<svg xmlns="http://www.w3.org/2000/svg" width="512" height="512" fill="none"><path fill="currentColor" fill-rule="evenodd" d="m238.051 70.021-174.69 86.221-.024.011A56 56 0 0 0 32 206.334V391c0 30.974 25.35 56 56.52 56h335c31.17 0 56.52-25.026 56.52-56V206.39c-.084-21.166-12.022-40.41-30.844-49.872L273.951 70.022a40.57 40.57 0 0 0-35.9-.001m21.74 28.698 170.059 83.934-123.356 93.424-28.601-22.246-.435-.334c-14.413-10.901-34.381-10.789-48.681.334l-28.442 22.121L78.93 184.243 252.21 98.718a8.57 8.57 0 0 1 7.58.001M64 213.069V391c0 13.208 10.932 24 24.52 24h335c13.588 0 24.52-10.792 24.52-24V209.018l-115.398 87.397 74.511 57.956c6.975 5.425 8.232 15.477 2.806 22.452-5.353 6.882-15.21 8.197-22.172 3.02l-.28-.214-129.26-100.54a8 8 0 0 0-9.587-.176l-.237.177-129.27 100.54c-6.975 5.425-17.028 4.168-22.453-2.807-5.353-6.882-4.2-16.76 2.531-22.233l.276-.22 74.67-58.074z" clip-rule="evenodd"/></svg>