<svg xmlns="http://www.w3.org/2000/svg" width="512" height="512" fill="none"><path fill="currentColor" fill-rule="evenodd" d="M424 80H88c-30.928 0-56 25.072-56 56v240c0 30.928 25.072 56 56 56h336c30.928 0 56-25.072 56-56V136c0-30.928-25.072-56-56-56M88 112h336c13.255 0 24 10.745 24 24v240c0 13.255-10.745 24-24 24H88c-13.255 0-24-10.745-24-24V136c0-13.255 10.745-24 24-24m324.63 38.177c-5.425-6.975-15.478-8.232-22.453-2.807L256 251.73 121.823 147.37l-.281-.213c-6.961-5.177-16.819-3.862-22.172 3.02-5.425 6.975-4.168 17.028 2.807 22.453l144 112 .301.228a16 16 0 0 0 19.345-.228l144-112 .276-.22c6.732-5.473 7.883-15.351 2.531-22.233" clip-rule="evenodd"/></svg>