<svg xmlns="http://www.w3.org/2000/svg" width="256" height="256" fill="none"><path fill="currentColor" fill-rule="evenodd" d="M194.667 29H41.524C27.434 29.015 16.015 40.356 16 54.35v108.645c.015 13.995 11.434 25.336 25.524 25.351h86.581v-26.487c0-3.783 3.259-6.849 7.279-6.849h4.793c2.019-23.358 22.803-41.721 48.145-41.721 12.211 0 23.364 4.263 31.869 11.294V54.351c-.015-13.995-11.434-25.336-25.524-25.351m-6.463 41.932-65.633 50.701a7.33 7.33 0 0 1-8.951 0l-65.633-50.7a7.22 7.22 0 0 1-2.834-6.738 7.25 7.25 0 0 1 4.513-5.764 7.33 7.33 0 0 1 7.272 1.067l61.157 47.242 61.157-47.242c3.182-2.387 7.705-1.793 10.152 1.334a7.21 7.21 0 0 1-1.2 10.1" clip-rule="evenodd"/><path fill="currentColor" fill-rule="evenodd" d="M187.644 120.661c22.529 0 41.006 17.23 42.801 39.147h3.084c3.574 0 6.471 2.877 6.471 6.427v54.338c0 3.549-2.897 6.427-6.471 6.427h-92.948c-3.574 0-6.471-2.878-6.471-6.427v-54.338c0-3.55 2.897-6.427 6.471-6.427h4.261c1.796-21.917 20.273-39.147 42.802-39.147m33.348 39.147c-1.764-16.746-16.021-29.799-33.348-29.799s-31.585 13.053-33.349 29.799zm-39.135 18.697c-2.599 0-4.707 2.092-4.707 4.674v.584c0 2.582 2.108 4.674 4.707 4.674v10.518c0 2.581 2.107 4.674 4.706 4.674h1.765c2.599 0 4.706-2.093 4.706-4.674v-10.518c2.599 0 4.706-2.092 4.706-4.674v-.584c0-2.582-2.107-4.674-4.706-4.674z" clip-rule="evenodd"/></svg>