<svg xmlns="http://www.w3.org/2000/svg" width="256" height="256" fill="none"><path fill="currentColor" d="M189.208 60.873a7.29 7.29 0 0 0-10.217-1.275l-61.058 47.398-61.059-47.398-.127-.097a7.29 7.29 0 0 0-10.09 1.372 7.26 7.26 0 0 0 1.277 10.197l65.529 50.869.136.103a7.294 7.294 0 0 0 8.804-.103l65.528-50.868.125-.1a7.256 7.256 0 0 0 1.152-10.098M181.815 178.313a4.697 4.697 0 0 0-4.702 4.692v.587a4.697 4.697 0 0 0 4.702 4.693v10.558a4.697 4.697 0 0 0 4.702 4.693h1.763a4.697 4.697 0 0 0 4.702-4.693v-10.558a4.697 4.697 0 0 0 4.701-4.693v-.587a4.697 4.697 0 0 0-4.701-4.692z"/><path fill="currentColor" fill-rule="evenodd" d="M194.382 29H41.483C27.41 29 16 40.387 16 54.434v109.003c0 14.047 11.41 25.434 25.483 25.434h92.726v31.676c0 3.564 2.894 6.453 6.465 6.453h92.861c3.57 0 6.465-2.889 6.465-6.453v-54.553c0-3.564-2.895-6.452-6.465-6.452h-3.081c-.773-9.48-4.639-18.085-10.589-24.811V54.434c0-14.047-11.409-25.434-25.483-25.434m10.921 95.002V54.434c0-6.02-4.889-10.9-10.921-10.9H41.483c-6.032 0-10.921 4.88-10.921 10.9v109.003c0 6.02 4.89 10.901 10.921 10.901h92.726v-8.344c0-3.564 2.894-6.452 6.465-6.452h4.257c1.794-22.004 20.253-39.302 42.761-39.302a42.8 42.8 0 0 1 17.611 3.762m-17.611 5.623c17.311 0 31.555 13.105 33.317 29.917h-66.634c1.762-16.812 16.007-29.917 33.317-29.917m-44.079 87.989v-48.687h86.983v48.687z" clip-rule="evenodd"/></svg>