<svg xmlns="http://www.w3.org/2000/svg" width="512" height="513" fill="none"><path fill="currentColor" fill-rule="evenodd" d="M255.999 0c-30.928 0-56 25.072-56 56s25.072 56 56 56 56-25.072 56-56-25.072-56-56-56m0 32c13.255 0 24 10.745 24 24s-10.745 24-24 24-24-10.745-24-24 10.745-24 24-24m48 96c34.993 0 63.428 28.084 63.993 62.942l.009 1.058-.001 88 .002.367a39.72 39.72 0 0 1-11.247 27.607l-.388.394a39.72 39.72 0 0 1-28.005 11.634l-.364-.003-.362.003a39.8 39.8 0 0 1-7.637-.757L319.998 472l.003.37a39.73 39.73 0 0 1-11.249 27.601l-.388.394a39.74 39.74 0 0 1-27.991 11.638h-.747a39.74 39.74 0 0 1-23.627-7.865 39.74 39.74 0 0 1-23.626 7.865h-.747a39.74 39.74 0 0 1-27.598-11.25l-.394-.388a39.73 39.73 0 0 1-11.636-27.995l.001-.37V319.245a39.8 39.8 0 0 1-7.637.757l-.364-.003-.362.003a39.72 39.72 0 0 1-27.611-11.246l-.394-.388a39.73 39.73 0 0 1-11.635-28.001l.002-.367v-88c0-34.993 28.085-63.426 62.943-63.991l1.058-.009zm-16.001 152.363.001-.363v-88c0-8.837 7.164-16 16-16 8.732 0 15.829 6.994 15.997 15.685l.003.315v88.429a7.72 7.72 0 0 0 7.499 7.57l.311.002.19-.002.19.002a7.72 7.72 0 0 0 7.81-7.504l.002-88.497c0-17.496-14.043-31.713-31.473-31.996l-.529-.004h-96c-17.497 0-31.715 14.042-31.997 31.471l-.004.529-.001 88.186a7.725 7.725 0 0 0 7.501 7.813l.311.002.19-.002.19.002a7.72 7.72 0 0 0 7.809-7.5l.001-.174V192c0-8.837 7.164-16 16-16 8.732 0 15.829 6.994 15.997 15.685l.003.315v88.14l.002.223-.002.284V472l-.001.183a7.732 7.732 0 0 0 7.51 7.817l.312.003.179-.002.179.002a7.74 7.74 0 0 0 5.559-2.266 7.72 7.72 0 0 0 2.261-5.264v-.103l.001-.366V336c0-8.837 7.164-16 16-16 8.732 0 15.829 6.994 15.997 15.685l.003.315v135.921q.003.276.001.551a7.734 7.734 0 0 0 7.508 7.528l.312.003.179-.002.179.002a7.74 7.74 0 0 0 5.559-2.266 7.73 7.73 0 0 0 2.261-5.242l.002-.312V280.677z" clip-rule="evenodd"/></svg>