<svg xmlns="http://www.w3.org/2000/svg" width="512" height="512" fill="none"><path fill="currentColor" fill-rule="evenodd" d="M212.36 39.31A8 8 0 0 0 200 46v357.56a8 8 0 0 0 3.63 6.72l96 62.42a8 8 0 0 0 8.18.333A8 8 0 0 0 312 466V108.67a8 8 0 0 0-3.64-6.73zM48.17 113.34A32 32 0 0 0 32 141.24V438a32 32 0 0 0 47 28.37c.43-.23.85-.47 1.26-.74l84.14-55.05a8 8 0 0 0 3.63-6.72V46.45a8 8 0 0 0-12.51-6.63zm384.86-67.75a31.64 31.64 0 0 1 31.5.88A32.76 32.76 0 0 1 480 74.68v296a32 32 0 0 1-16.41 28l-107.07 73.46a8 8 0 0 1-12.52-6.63V108.05a8 8 0 0 1 3.63-6.72l84.15-55q.603-.408 1.25-.74" clip-rule="evenodd"/></svg>