<svg xmlns="http://www.w3.org/2000/svg" width="512" height="512" fill="none"><path fill="currentColor" fill-rule="evenodd" d="M160.535 38.424q.46-.309.94-.585l.485-.268a48 48 0 0 1 43.92-.525q.758.38 1.473.836l113.691 72.737.101.046a16 16 0 0 0 13.158-.157l.193-.095 97.279-63.388q.403-.263.823-.502l.422-.232A32 32 0 0 1 480 74.57v295.72a32 32 0 0 1-16.054 27.743l-.353.198-114.859 75.566q-.46.302-.939.572l-.484.262a48 48 0 0 1-15.775 4.977 16 16 0 0 1-4.27.375 48 48 0 0 1-23.86-5.187 16 16 0 0 1-1.48-.857l-111.015-72.448-.081-.037a16 16 0 0 0-13.314.108l-.185.088-97.101 63.322q-.406.264-.826.504l-.424.233A32 32 0 0 1 32 437.43v-295.8a32 32 0 0 1 15.814-27.606l.351-.204zm286.041 332.699L344 438.606v-297.51a48 48 0 0 0 5.99-2.662l.426-.234q.422-.24.829-.505L448 74.646v295.642l-.484.262q-.48.27-.94.573M306.13 138.959a48 48 0 0 0 5.87 2.456v300.886l-104.446-68.16q-.72-.47-1.485-.859a48 48 0 0 0-6.069-2.583V71.166l104.647 66.952q.719.46 1.483.841M168 71.949 65.425 140.777q-.46.309-.94.585l-.485.268v295.723l96.57-62.974q.406-.264.826-.504l.423-.232a48 48 0 0 1 6.181-2.737z" clip-rule="evenodd"/></svg>