<svg xmlns="http://www.w3.org/2000/svg" width="512" height="512" fill="none"><path fill="currentColor" fill-rule="evenodd" d="M272.005 464h-32c-17.673 0-32-14.327-32-32l.05-85.82a4 4 0 0 0-6-3.47l-74.34 43.06c-15.055 8.692-34.306 3.534-43-11.52l-16.5-28.64-.06-.1c-8.45-15.033-3.31-34.066 11.56-42.8l74.61-43.25a4 4 0 0 0 0-6.92l-74.54-43.21a31.41 31.41 0 0 1-11.55-43l16.44-28.55a31.48 31.48 0 0 1 19.27-14.74 31.14 31.14 0 0 1 23.8 3.2l74.31 43a4 4 0 0 0 6-3.47l-.05-85.77c0-17.673 14.327-32 32-32h32c17.673 0 32 14.327 32 32v85.72a4.002 4.002 0 0 0 6 3.47l74.34-43.06c15.058-8.674 34.296-3.52 43 11.52l16.49 28.64.06.09c8.553 15.058 3.356 34.197-11.64 42.86l-74.53 43.2a4.002 4.002 0 0 0 0 6.92l74.53 43.2a31.42 31.42 0 0 1 11.56 43l-16.44 28.55a31.48 31.48 0 0 1-19.27 14.74 31.14 31.14 0 0 1-23.8-3.2l-74.31-43a4 4 0 0 0-6 3.46l.01 85.89c0 17.673-14.327 32-32 32" clip-rule="evenodd"/></svg>