<svg xmlns="http://www.w3.org/2000/svg" width="512" height="512" fill="none"><path fill="currentColor" fill-rule="evenodd" d="M432 96h-48V80c-.028-26.498-21.502-47.972-48-48H176c-26.498.028-47.972 21.502-48 48v16H80c-35.33.039-63.961 28.67-64 64v256c0 35.346 28.654 64 64 64h352c35.346 0 64-28.654 64-64V160c-.039-35.33-28.67-63.961-64-64m-96 208h-64v64c0 8.837-7.163 16-16 16s-16-7.163-16-16v-64h-64c-8.837 0-16-7.163-16-16s7.163-16 16-16h64v-64c0-8.837 7.163-16 16-16s16 7.163 16 16v64h64c8.837 0 16 7.163 16 16s-7.163 16-16 16m16-208H160V80c0-8.837 7.163-16 16-16h160c8.837 0 16 7.163 16 16z" clip-rule="evenodd"/></svg>