<svg xmlns="http://www.w3.org/2000/svg" width="512" height="512" fill="none"><path fill="currentColor" fill-rule="evenodd" d="M383.994 79.206C383.57 53.063 362.245 32 336 32H176l-.794.006C149.063 32.43 128 53.756 128 80v16H80c-35.346 0-64 28.654-64 64v256c0 35.346 28.654 64 64 64h352c35.346 0 64-28.654 64-64V160c0-35.346-28.654-64-64-64h-48V80zM352 96V80c0-8.731-6.994-15.83-15.685-15.997L336 64H176c-8.731 0-15.829 6.994-15.997 15.685L160 80v16zm-208 32H80c-17.673 0-32 14.327-32 32v256c0 17.673 14.327 32 32 32h352c17.673 0 32-14.327 32-32V160c0-17.673-14.327-32-32-32H144m112 64c8.731 0 15.829 6.994 15.997 15.685L272 208v64h64c8.837 0 16 7.163 16 16 0 8.731-6.994 15.829-15.685 15.997L336 304h-64v64c0 8.837-7.163 16-16 16-8.731 0-15.829-6.994-15.997-15.685L240 368v-64h-64c-8.837 0-16-7.163-16-16 0-8.731 6.994-15.829 15.685-15.997L176 272h64v-64c0-8.837 7.163-16 16-16" clip-rule="evenodd"/></svg>