<svg xmlns="http://www.w3.org/2000/svg" width="512" height="512" fill="none"><path fill="currentColor" fill-rule="evenodd" d="M424 128c13.255 0 24 10.745 24 24 0 13.122-10.531 23.785-23.603 23.997L424 176H88c-13.255 0-24-10.745-24-24 0-13.122 10.531-23.785 23.603-23.997L88 128zm0 104c13.255 0 24 10.745 24 24 0 13.122-10.531 23.785-23.603 23.997L424 280H88c-13.255 0-24-10.745-24-24 0-13.122 10.531-23.785 23.603-23.997L88 232zm24 128c0-13.255-10.745-24-24-24H88l-.397.003C74.531 336.215 64 346.878 64 360c0 13.255 10.745 24 24 24h336l.397-.003C437.469 383.785 448 373.122 448 360" clip-rule="evenodd"/></svg>