<svg xmlns="http://www.w3.org/2000/svg" width="512" height="512" fill="none"><path fill="currentColor" fill-rule="evenodd" d="M432 144c8.837 0 16 7.163 16 16 0 8.731-6.994 15.829-15.685 15.997L432 176H80c-8.837 0-16-7.163-16-16 0-8.731 6.994-15.829 15.685-15.997L80 144zm0 96c8.837 0 16 7.163 16 16 0 8.731-6.994 15.829-15.685 15.997L432 272H80c-8.837 0-16-7.163-16-16 0-8.731 6.994-15.829 15.685-15.997L80 240zm16 112c0-8.837-7.163-16-16-16H80l-.315.003C70.994 336.171 64 343.269 64 352c0 8.837 7.163 16 16 16h352l.315-.003C441.006 367.829 448 360.731 448 352" clip-rule="evenodd"/></svg>