<svg xmlns="http://www.w3.org/2000/svg" width="512" height="512" fill="none"><path fill="currentColor" fill-rule="evenodd" d="M48 256c0-114.837 93.163-208 208-208s208 93.163 208 208-93.163 208-208 208S48 370.837 48 256m384 0c0-97.163-78.837-176-176-176S80 158.837 80 256s78.837 176 176 176 176-78.837 176-176m-144 96c8.837 0 16 7.163 16 16 0 8.731-6.994 15.829-15.685 15.997L288 384h-64c-8.837 0-16-7.163-16-16 0-8.731 6.994-15.829 15.685-15.997L224 352h16v-17.686c-42.513-7.349-79.169-43.004-79.986-84.673L160 248.22V224.3c0-8.837 7.163-16 16-16 8.731 0 15.829 6.994 15.997 15.685l.003.315v23.92c0 28.604 31.299 55.48 64 55.48 32.374 0 63.374-26.341 63.991-54.622l.009-.858V224.3c0-8.837 7.163-16 16-16 8.731 0 15.829 6.994 15.997 15.685l.003.315v23.92c0 42.276-37.004 78.662-80 86.094V352zm-32-224c-26.51 0-48 21.49-48 48v64c0 26.51 21.49 48 48 48s48-21.49 48-48v-64c0-26.51-21.49-48-48-48" clip-rule="evenodd"/></svg>