<svg xmlns="http://www.w3.org/2000/svg" width="512" height="512" fill="none"><path fill="currentColor" fill-rule="evenodd" d="M256 48C141.31 48 48 141.31 48 256s93.31 208 208 208 208-93.31 208-208S370.69 48 256 48m-48 128c.077-26.478 21.522-47.923 48-48 26.478.077 47.923 21.522 48 48v64c-.077 26.478-21.522 47.923-48 48-26.478-.077-47.923-21.522-48-48zm144 72.22c0 23.36-10.94 45.61-30.79 62.66A103.7 103.7 0 0 1 272 334.26V352h16c8.837 0 16 7.163 16 16s-7.163 16-16 16h-64c-8.837 0-16-7.163-16-16s7.163-16 16-16h16v-17.74a103.7 103.7 0 0 1-49.21-23.38c-19.85-17.05-30.79-39.3-30.79-62.66V224.3c0-8.837 7.163-16 16-16s16 7.163 16 16v23.92c0 25.66 28 55.48 64 55.48 29.6 0 64-24.23 64-55.48V224.3c0-8.837 7.163-16 16-16s16 7.163 16 16z" clip-rule="evenodd"/></svg>