<svg xmlns="http://www.w3.org/2000/svg" width="512" height="512" fill="none"><path fill="currentColor" fill-rule="evenodd" d="M199.45 295.901a78.83 78.83 0 0 0 56.55 24.1c44.11 0 80-36.34 80-81v-111c0-44.86-35.14-80-80-80a79.69 79.69 0 0 0-80 80v111a80.9 80.9 0 0 0 23.45 56.9m200.547-88.215c-.168-8.691-7.266-15.685-15.997-15.685-8.837 0-16 7.164-16 16v32l-.015 1.844c-.995 60.714-51.021 110.14-111.955 110.156h-.06c-61.55-.016-111.97-50.446-111.97-112v-32l-.003-.315c-.168-8.691-7.266-15.685-15.997-15.685-8.837 0-16 7.164-16 16v32l.019 2.373c1.19 72.767 56.979 132.809 127.981 140.739v48.888h-48l-.315.003c-8.691.168-15.685 7.266-15.685 15.997 0 8.837 7.163 16 16 16h128l.315-.003c8.691-.168 15.685-7.265 15.685-15.997 0-8.836-7.163-16-16-16h-48v-48.888c71.772-8.016 128-69.281 128-143.112v-32z" clip-rule="evenodd"/></svg>