<svg xmlns="http://www.w3.org/2000/svg" width="512" height="512" fill="none"><path fill="currentColor" fill-rule="evenodd" d="M256.08 48.002A79.684 79.684 0 0 0 176 127.265l-.001 111.738c0 44.087 36.212 81 80.001 81 44.029 0 80-36.358 80-81v-111c0-44.389-34.464-79.297-78.658-79.99zm-.16 32h.08c27.163 0 48 20.837 48 48.001v111c0 27.045-21.721 49-48 49-25.977 0-48.001-22.45-48.001-49V127.349c.066-12.473 5.084-24.5 13.965-33.382a47.69 47.69 0 0 1 33.956-13.965m144.077 127.686c-.168-8.692-7.266-15.685-15.997-15.685-8.837 0-16 7.163-16 16v32l-.015 1.843C366.99 302.57 316.948 352.003 256 352.003c-61.563 0-112-50.437-112-112v-32l-.003-.315c-.168-8.692-7.266-15.685-15.997-15.685-8.837 0-16 7.163-16 16v32l.019 2.372c1.19 72.767 56.979 132.809 127.981 140.739v48.889h-48l-.315.003c-8.691.167-15.685 7.265-15.685 15.997 0 8.836 7.163 16 16 16h128l.315-.003c8.691-.168 15.685-7.266 15.685-15.997 0-8.837-7.163-16-16-16h-48v-48.889c71.772-8.016 128-69.281 128-143.111v-32z" clip-rule="evenodd"/></svg>