<svg xmlns="http://www.w3.org/2000/svg" width="512" height="512" fill="none"><path fill="currentColor" fill-rule="evenodd" d="M256 48C141.31 48 48 141.31 48 256s93.31 208 208 208 208-93.31 208-208S370.69 48 256 48m0 80c26.478.077 47.923 21.522 48 48v64a48 48 0 0 1-.63 7.71 2 2 0 0 1-3.46 1l-84.42-92.86a4 4 0 0 1-.47-4.77A48.08 48.08 0 0 1 256 128m32 256h-63.55c-8.61 0-16-6.62-16.43-15.23A16 16 0 0 1 224 352h16v-17.74a103.7 103.7 0 0 1-49.21-23.38c-19.85-17.05-30.79-39.3-30.79-62.66V224a15.91 15.91 0 0 1 16.39-16c8.78.351 15.693 7.614 15.61 16.4v23.82c0 25.66 28 55.48 64 55.48 1.67 0 3.37-.09 5.06-.24a3.94 3.94 0 0 1 3.29 1.29l21.07 23.19a2 2 0 0 1-.89 3.26 100 100 0 0 1-12.53 3.06V352h15.55c8.61 0 16 6.62 16.43 15.23A16 16 0 0 1 288 384m-77.89-138.91 36.46 40.11a.998.998 0 0 1-.95 1.66c-19.805-4.47-34.694-20.858-37.25-41a1 1 0 0 1 1.74-.77m152.65 119.75c-6.539 5.942-16.657 5.458-22.6-1.08l-192-210c-5.815-6.554-5.276-16.566 1.208-22.459s16.502-5.474 22.472.939l192 210c5.942 6.539 5.458 16.657-1.08 22.6M352 248.22a77.1 77.1 0 0 1-11.93 40.87 2 2 0 0 1-3.19.3l-19.19-21.1a4 4 0 0 1-.76-4.16 43.4 43.4 0 0 0 3.07-15.91v-23.8a16.3 16.3 0 0 1 13.64-16.24c9.88-1.48 18.36 6.51 18.36 16.12z" clip-rule="evenodd"/></svg>