<svg xmlns="http://www.w3.org/2000/svg" width="512" height="512" fill="none"><path fill="currentColor" fill-rule="evenodd" d="M249.14 49a79.66 79.66 0 0 0-68.47 36.57 4 4 0 0 0 .54 5L324.59 234a2 2 0 0 0 3.41-1.42V129.91C328 86 293 49.6 249.14 49M76.686 53.686c6.162-6.161 16.099-6.247 22.365-.256l.263.256 336 336c6.248 6.249 6.248 16.379 0 22.628-6.162 6.161-16.099 6.247-22.365.256l-.263-.256-336-336c-6.248-6.249-6.248-16.38 0-22.628M392 241v-31.55c0-8.61-6.62-16-15.23-16.43A16 16 0 0 0 360 209v32c.004 8.2-.894 16.376-2.68 24.38a2 2 0 0 0 .53 1.84l22.59 22.59a2.002 2.002 0 0 0 3.29-.72A143.3 143.3 0 0 0 392 241m-256 0c.198 61.774 50.226 111.802 112 112a111 111 0 0 0 47.1-10.43 3 3 0 0 1 3.41.58l18.4 18.39a4 4 0 0 1-.91 6.35 143.1 143.1 0 0 1-52 16.22V433h48a16 16 0 0 1 15.98 16.77c-.43 8.61-7.82 15.23-16.43 15.23H184a16 16 0 0 1-15.98-16.77c.43-8.61 7.82-15.23 16.43-15.23H232v-48.89C160.1 376.12 104 315 104 241v-32a16 16 0 0 1 16.77-15.98c8.61.43 15.23 7.82 15.23 16.43zm33.231-25.428a2 2 0 0 1 2.179.428l98.7 98.74a2 2 0 0 1-.86 3.35 78.55 78.55 0 0 1-77.8-21.19A80.9 80.9 0 0 1 168 240v-22.58a2 2 0 0 1 1.231-1.848" clip-rule="evenodd"/></svg>