<svg xmlns="http://www.w3.org/2000/svg" width="512" height="512" fill="none"><path fill="currentColor" fill-rule="evenodd" d="M65.371 64 88 41.373 446.626 400l-22.627 22.627zM360 192v48a111.8 111.8 0 0 1-2.93 25.45L382.648 291a143.1 143.1 0 0 0 9.351-51v-48zm-96 191.11V432h64v32h-160v-32h64v-48.89c-71.9-7.99-128-69.11-128-143.11v-48h32v48a112.13 112.13 0 0 0 161 100.65l23.649 23.63a143.1 143.1 0 0 1-56.649 18.83m64-146.74V128c0-44.86-35.14-80-80-80a79.68 79.68 0 0 0-69 39.34zm-160 2.63v-27.37l104.45 104.48c-28.642 9.356-60.111 1.504-81-20.21a80.88 80.88 0 0 1-23.45-56.9" clip-rule="evenodd"/></svg>