<svg xmlns="http://www.w3.org/2000/svg" width="512" height="512" fill="none"><path fill="currentColor" fill-rule="evenodd" d="M248 80.014a47.18 47.18 0 0 1 48 47.999v74.72a4 4 0 0 0 1.17 2.82l27.42 27.46a2 2 0 0 0 3.41-1.42v-102.67c0-43.91-35-80.31-78.86-80.91a79.66 79.66 0 0 0-68.47 36.57 4 4 0 0 0 .54 5l19.54 19.54a2 2 0 0 0 3.25-.63 47.44 47.44 0 0 1 44-28.48M76.686 52.7c6.162-6.162 16.099-6.247 22.365-.257l.263.257 336 336c6.248 6.248 6.248 16.379 0 22.627-6.162 6.162-16.099 6.247-22.365.257l-.263-.257-336-336c-6.248-6.248-6.248-16.379 0-22.627M392 240.013v-31.55c0-8.61-6.62-16-15.23-16.43a16 16 0 0 0-16.77 15.98v32a111.6 111.6 0 0 1-2.45 23.31 4.05 4.05 0 0 0 1.07 3.69l21.82 21.81a2 2 0 0 0 3.29-.72 143.3 143.3 0 0 0 8.27-48.09m-256 0c.198 61.774 50.226 111.803 112 112a110.8 110.8 0 0 0 46.49-10.15 4 4 0 0 1 4.51.78l17.91 17.91a4 4 0 0 1-.91 6.35 143.1 143.1 0 0 1-52 16.22v48.89h48a16.003 16.003 0 0 1 15.98 16.77c-.43 8.61-7.82 15.23-16.43 15.23H184a16 16 0 0 1-15.98-16.77c.43-8.61 7.82-15.23 16.43-15.23H232v-48.89c-71.9-7.99-128-69.11-128-143.11v-32a16 16 0 0 1 16.77-15.98c8.61.43 15.23 7.82 15.23 16.43zm35.41-25 27.86 27.9a4 4 0 0 1 1.14 2.35c2.89 21.99 20.72 39.91 42.37 42.43.913.1 1.766.506 2.42 1.15l24.91 24.91a2 2 0 0 1-.86 3.35 78.55 78.55 0 0 1-77.8-21.19 80.9 80.9 0 0 1-23.45-56.9v-22.58a2 2 0 0 1 3.41-1.42" clip-rule="evenodd"/></svg>