<svg xmlns="http://www.w3.org/2000/svg" width="512" height="512" fill="none"><path fill="currentColor" fill-rule="evenodd" d="M256 464c-114.69 0-208-93.31-208-208S141.31 48 256 48s208 93.31 208 208-93.31 208-208 208m0-384c-97 0-176 79-176 176s79 176 176 176 176-78.95 176-176S353.05 80 256 80m84.16 283.76A15.93 15.93 0 0 0 352 369a16.001 16.001 0 0 0 11.84-26.76l-192-210c-5.97-6.413-15.988-6.832-22.472-.939s-7.023 15.905-1.208 22.459zM352 248.22v-23.8a16.3 16.3 0 0 0-13.64-16.24c-9.88-1.48-18.36 6.51-18.36 16.12v23.92a43.4 43.4 0 0 1-3.07 15.91 4 4 0 0 0 .76 4.16l19.19 21.1a1.998 1.998 0 0 0 3.19-.3A77.1 77.1 0 0 0 352 248.22M256 128c26.478.077 47.923 21.522 48 48v64a48 48 0 0 1-.65 7.73 2 2 0 0 1-3.46 1l-84.42-92.86a4 4 0 0 1-.47-4.77 48.08 48.08 0 0 1 41-23.1m-9.43 157.2-36.46-40.11a1 1 0 0 0-1.74.8c2.556 20.142 17.445 36.53 37.25 41a1.001 1.001 0 0 0 .95-1.69M272 352h15.55c8.61 0 16.03 6.62 16.45 15.23A16 16 0 0 1 288 384h-64a16 16 0 0 1-15.98-16.77c.43-8.61 7.82-15.23 16.43-15.23H240v-17.74a103.7 103.7 0 0 1-49.21-23.38c-19.85-17.05-30.79-39.3-30.79-62.66V224a15.91 15.91 0 0 1 16.39-16c8.78.351 15.693 7.614 15.61 16.4v23.82c0 25.66 28 55.48 64 55.48 1.67 0 3.37-.09 5.06-.24a3.94 3.94 0 0 1 3.29 1.29l21.07 23.19a2 2 0 0 1-.89 3.26 100 100 0 0 1-12.53 3.06z" clip-rule="evenodd"/></svg>