<svg xmlns="http://www.w3.org/2000/svg" width="512" height="512" fill="none"><path fill="currentColor" fill-rule="evenodd" d="M199.45 295.901a78.83 78.83 0 0 0 56.55 24.1c44.11 0 80-36.34 80-81v-111c0-44.86-35.14-80-80-80a79.69 79.69 0 0 0-80 80v111a80.9 80.9 0 0 0 23.45 56.9m-55.45-55.9v-48h-32v48l.019 2.373c1.19 72.767 56.979 132.809 127.981 140.739v48.888h-64v32h160v-32h-64v-48.888c71.772-8.016 128-69.281 128-143.112v-48h-32v48l-.015 1.844c-.994 60.696-50.992 110.111-111.902 110.156h-.166c-61.526-.045-111.917-50.464-111.917-112" clip-rule="evenodd"/></svg>