<svg xmlns="http://www.w3.org/2000/svg" width="512" height="512" fill="currentColor"><path fill-rule="evenodd" d="M269.496 242.51c30.719 7.472 64.205 17.159 64.205 55.626 0 26.301-18.018 49.238-55.622 55.83-4.843.848-8.583 4.92-8.583 9.837v12.754c0 5.294-4.291 9.585-9.584 9.585h-3.525c-5.293 0-9.584-4.291-9.584-9.585v-12.119c0-5.066-3.949-9.225-8.979-9.828-20.625-2.472-40.031-8.97-53.173-17.852-3.499-2.365-4.476-6.943-2.757-10.8l4.457-10.004c2.571-5.769 9.968-7.539 15.438-4.38 12.721 7.346 28.785 12.465 45.014 13.96v-55.349c-30.719-7.472-63.652-17.435-63.652-55.903 0-26.274 17.743-49.432 55.014-55.859 4.866-.839 8.638-4.92 8.638-9.858v-12.981a9.584 9.584 0 0 1 9.584-9.584h3.525a9.584 9.584 0 0 1 9.584 9.584v12.055c0 5.092 3.989 9.259 9.042 9.888 14.462 1.801 28.613 5.996 40.294 12.094 4.075 2.127 5.593 7.059 3.864 11.319l-4.203 10.355c-2.196 5.41-8.673 7.586-13.974 5.136a114.4 114.4 0 0 0-35.023-9.824zm-22.693-55.072c-19.649 3.044-27.952 13.007-27.952 25.184 0 13.283 11.901 19.372 27.952 24.077zm22.693 88.559v48.984c20.203-3.045 28.782-12.454 28.782-24.354 0-13.561-12.177-19.926-28.782-24.63" clip-rule="evenodd"/><path fill-rule="evenodd" d="M468 256c0 117.084-94.916 212-212 212S44 373.084 44 256 138.916 44 256 44s212 94.916 212 212m-35.333 0c0 97.57-79.097 176.667-176.667 176.667S79.333 353.57 79.333 256 158.43 79.333 256 79.333 432.667 158.43 432.667 256" clip-rule="evenodd"/></svg>