<svg xmlns="http://www.w3.org/2000/svg" width="512" height="512" fill="none"><path fill="currentColor" fill-rule="evenodd" d="M169.614 33.38C86.497 69.56 32 153.945 32 248.05c0 128.127 103.873 232 232 232 94.105 0 178.49-54.497 214.67-137.614 5.801-13.324-7.733-26.857-21.057-21.056-22.596 9.839-50.627 14.67-81.613 14.67-110.453 0-200-89.546-200-200 0-30.985 4.832-59.016 14.67-81.613 5.801-13.324-7.731-26.857-21.056-21.057m-20.515 48.018-.09.453C145.636 98.834 144 117.03 144 136.05c0 128.127 103.873 232 232 232l1.267-.002c18.56-.071 36.327-1.709 52.933-5.006l.451-.092-.621.887C393.26 415.656 331.606 448.05 264 448.05c-110.453 0-200-89.546-200-200 0-67.606 32.395-129.259 84.213-166.03z" clip-rule="evenodd"/></svg>