<svg xmlns="http://www.w3.org/2000/svg" width="48" height="48" fill="none"><path fill="currentColor" d="M19.704 7.271a1.593 1.593 0 0 1-.871 2.077 8.7 8.7 0 0 0-2.04 1.23c-.751.615-1.168 1.215-1.265 1.704a1.592 1.592 0 1 1-3.122-.624c.312-1.56 1.402-2.751 2.368-3.544A11.8 11.8 0 0 1 17.628 6.4a1.59 1.59 0 0 1 2.075.871"/><path fill="currentColor" fill-rule="evenodd" d="M23.915 9.751c-4.835 0-8.754 3.922-8.754 8.76V32.96c0 4.838 3.92 8.76 8.754 8.76h2.956c4.835 0 8.754-3.922 8.754-8.76V18.511c0-4.838-3.92-8.76-8.754-8.76zm3.183 3.19v5.798h5.344v-.228a5.573 5.573 0 0 0-5.344-5.57m5.344 9.097H18.344v10.921a5.573 5.573 0 0 0 5.57 5.574h2.957a5.573 5.573 0 0 0 5.57-5.574zm-14.098-3.3h5.457v-5.8a5.573 5.573 0 0 0-5.457 5.573z" clip-rule="evenodd"/></svg>