<svg xmlns="http://www.w3.org/2000/svg" width="512" height="512" fill="none"><path fill="currentColor" d="M256.043 85a14.95 14.95 0 0 0-10.684 4.389q-.479.478-.905.988l-47.063 47.044c-5.855 5.851-5.855 15.339 0 21.19 5.853 5.852 15.345 5.852 21.199 0L241 136.21V187H70c-8.284 0-15 6.716-15 15s6.716 15 15 15h372c8.284 0 15-6.716 15-15s-6.716-15-15-15H271v-50.79l22.41 22.401c5.854 5.852 15.345 5.852 21.199 0s5.855-15.339 0-21.19l-47.065-47.047a15 15 0 0 0-.903-.985A14.95 14.95 0 0 0 256.043 85M256.043 427a14.95 14.95 0 0 1-10.684-4.389 15 15 0 0 1-.905-.988l-47.063-47.044c-5.855-5.851-5.855-15.339 0-21.19 5.853-5.852 15.345-5.852 21.199 0L241 375.79V325H70c-8.284 0-15-6.716-15-15s6.716-15 15-15h372c8.284 0 15 6.716 15 15s-6.716 15-15 15H271v50.79l22.41-22.401c5.854-5.852 15.345-5.852 21.199 0s5.855 15.339 0 21.19l-47.065 47.047q-.426.508-.903.985A14.95 14.95 0 0 1 256.043 427M70 241c-8.284 0-15 6.716-15 15s6.716 15 15 15h372c8.284 0 15-6.716 15-15s-6.716-15-15-15z"/></svg>