<svg xmlns="http://www.w3.org/2000/svg" width="512" height="512" fill="none"><path fill="currentColor" fill-rule="evenodd" d="m256 9.373-91.313 91.313 22.627 22.628 52.668-52.669L239.99 240H70.628l52.686-52.686-22.627-22.628L9.373 256l91.314 91.314 22.627-22.628L70.628 272H239.99l.008 169.371-52.685-52.685-22.627 22.628L256 502.627l91.314-91.313-22.627-22.628-52.688 52.689L271.991 272h169.382l-52.686 52.686 22.627 22.628L502.628 256l-91.314-91.314-22.627 22.628L441.373 240H271.99l-.008-169.391 52.705 52.705 22.627-22.628z" clip-rule="evenodd"/></svg>