<svg xmlns="http://www.w3.org/2000/svg" width="512" height="512" fill="none"><path fill="currentColor" fill-rule="evenodd" d="M356.464 32.708a22 22 0 0 1 18.983 3.88 21.99 21.99 0 0 1 8.549 16.98l.004.425v57.714c.042 14.556-9.703 27.302-23.776 31.117l-.428.113-91.582 23.115c-7.095 1.819-12.082 8.153-12.211 15.501l-.004.35.001 242.045c.058 20.513-12.848 38.798-32.186 45.654l-.587.205-21.477 7.232C165.433 489.252 128 462.011 128 423.598c-.059-21.37 13.389-40.418 33.534-47.556l.613-.213 50.815-17.101a16.3 16.3 0 0 0 11.035-15.138l.003-.357V92.045c-.046-14.515 9.64-27.238 23.616-31.085l.425-.114zM224 423.993v-35.229l-.188.069-.588.205-50.822 17.103c-7.433 2.528-12.424 9.517-12.402 17.412 0 16.509 15.742 28.129 31.079 23.308l.465-.151 21.421-7.214c6.503-2.212 10.904-8.261 11.032-15.146zM352 66.925l-95.903 24.89c-.046.013-.08.048-.092.119l-.005.06-.001 44.371.535-.188a49 49 0 0 1 3.149-.968l.642-.169 91.578-23.114c.046-.012.081-.048.093-.116l.004-.057z" clip-rule="evenodd"/></svg>