<svg xmlns="http://www.w3.org/2000/svg" width="512" height="512" fill="none"><path fill="currentColor" fill-rule="evenodd" d="M421.768 37.327a26 26 0 0 0-22.528-4.432L199.846 86.503l-.195.053-.417.121c-13.723 4.073-23.165 16.66-23.234 30.975v226.302l-.004.349c-.144 6.616-4.396 12.23-11.101 14.487l-52.615 18.212C92.306 384.02 80 402.433 80 423.954c0 38.345 37.084 65.251 73.09 53.169l.189-.065 22.074-8.026.34-.116C195.032 462.141 208 444.461 208 423.954v-212l.004-.35c.151-7.098 4.887-12.895 12.147-14.725l.111-.029 174.701-46.709.226-.053a4 4 0 0 1 3.243.74A4 4 0 0 1 400 153.98v141.914l-.004.346c-.143 6.56-4.344 12.066-11.101 14.34l-.13.045-50.976 18.14-.372.125c-20.107 6.863-33.596 25.846-33.416 47.139l.01 1.016c.725 37.857 37.142 64.117 73.094 52.013l.182-.063 22.045-8.016.371-.127C419.035 414.065 432 396.389 432 375.894V57.954l-.006-.452c-.172-7.97-3.93-15.373-10.226-20.175M400 118.227v-52.4l-191.669 51.53-.057.023a.48.48 0 0 0-.269.358l-.006.08.001 49.332a50 50 0 0 1 3.688-1.134l.419-.11 174.587-46.678A36 36 0 0 1 400 118.227M176 388.805v35.149l-.004.35c-.144 6.621-4.392 12.228-11.101 14.486l-.182.063-21.94 7.976-.319.105c-15.066 4.727-30.454-6.602-30.454-22.98 0-8.353 4.151-14.491 11.112-16.838l52.581-18.2zm224-12.911v-35.298l-.307.11-.393.134-51.132 18.196-.196.066A17.37 17.37 0 0 0 336 375.399v.495c0 16.564 15.144 27.809 30.431 22.988l.339-.112 21.938-7.975.177-.061c6.716-2.266 10.967-7.878 11.111-14.491z" clip-rule="evenodd"/></svg>