<svg xmlns="http://www.w3.org/2000/svg" width="512" height="512" fill="none"><path fill="currentColor" fill-rule="evenodd" d="M183.83 480a55.2 55.2 0 0 1-32.36-10.55A56.64 56.64 0 0 1 128 423.58c-.054-21.592 13.689-40.805 34.14-47.73L213 358.73a16.25 16.25 0 0 0 11-15.49V92c-.03-14.668 9.886-27.49 24.09-31.15l108.39-28.14A22 22 0 0 1 384 54v57.75c.039 14.716-9.936 27.572-24.2 31.19l-91.65 23.13A16.24 16.24 0 0 0 256 181.91V424c.055 20.728-13.143 39.173-32.78 45.81l-21.47 7.23a56 56 0 0 1-17.92 2.96" clip-rule="evenodd"/></svg>