<svg xmlns="http://www.w3.org/2000/svg" width="512" height="512" fill="none"><path fill="currentColor" fill-rule="evenodd" d="M421.84 38.37a25.86 25.86 0 0 0-22.6-4.46L199.92 87.49C185.695 91.31 175.856 104.271 176 119v226c0 6.74-4.36 12.56-11.11 14.83l-.12.05-52 18C92.88 384.53 80 403 80 424.91a55.54 55.54 0 0 0 23.23 45.63A54.78 54.78 0 0 0 135.34 481c6.036-.011 12.031-1 17.75-2.93l.38-.13 21.84-7.94c19.424-6.485 32.567-24.613 32.69-45.09v-212c0-7.29 4.77-13.21 12.16-15.07l.21-.06L395 151.14a4 4 0 0 1 3.444.707A4 4 0 0 1 400 155v141.93c0 6.75-4.25 12.38-11.11 14.68l-.25.09-50.89 18.11c-20.308 6.679-33.958 25.733-33.75 47.11a55.67 55.67 0 0 0 23.23 45.8 54.63 54.63 0 0 0 49.88 7.35l.36-.12 21.84-7.95c19.422-6.481 32.565-24.605 32.69-45.08V59a25.74 25.74 0 0 0-10.16-20.63" clip-rule="evenodd"/></svg>