<svg xmlns="http://www.w3.org/2000/svg" width="513" height="512" fill="none"><path fill="currentColor" d="M426.023 51.423a13.99 13.99 0 0 1 15.806 7.364 549 549 0 0 1 4.437 9.114c3.319 6.979.352 15.327-6.627 18.646-6.508 3.094-14.206.724-17.907-5.27-6.968 1.023-13.736-3.346-15.553-10.319-1.949-7.478 2.533-15.12 10.012-17.069a554 554 0 0 1 9.832-2.466M445.737 100.867c7.256-2.659 15.294 1.068 17.953 8.324a412 412 0 0 1 6.434 18.951c2.303 7.376-1.811 15.223-9.188 17.526s-15.223-1.811-17.526-9.188a383 383 0 0 0-5.997-17.66c-2.659-7.257 1.068-15.294 8.324-17.953M391.292 75.502c2.633 7.266-1.123 15.29-8.389 17.922a383 383 0 0 0-17.379 6.77c-7.129 2.983-15.326-.378-18.309-7.507-2.983-7.13.378-15.326 7.507-18.31a412 412 0 0 1 18.648-7.264c7.266-2.633 15.29 1.123 17.922 8.39M464.732 160.895c7.615-1.318 14.856 3.787 16.174 11.401a295 295 0 0 1 2.789 20.165c.79 7.688-4.802 14.56-12.489 15.349-7.688.79-14.56-4.802-15.349-12.49a267 267 0 0 0-2.526-18.251c-1.318-7.614 3.787-14.856 11.401-16.174M333.115 99.577c3.889 6.678 1.629 15.244-5.049 19.134a267 267 0 0 0-15.597 9.807c-6.393 4.341-15.095 2.678-19.436-3.716-4.341-6.393-2.678-15.095 3.716-19.436a295 295 0 0 1 17.232-10.837c6.678-3.89 15.244-1.63 19.134 5.048M471.517 223.588c7.703.614 13.451 7.356 12.837 15.06a226 226 0 0 1-2.569 20.488c-1.314 7.615-8.552 12.724-16.167 11.41s-12.724-8.552-11.41-16.168a198 198 0 0 0 2.249-17.952c.614-7.704 7.356-13.451 15.06-12.838"/><path fill="currentColor" fill-rule="evenodd" d="M280.753 134.714c5.425 5.503 5.362 14.363-.141 19.788a202 202 0 0 0-5.991 6.164c18.81 25.248 30.607 52.718 36.857 81.027 5.284 23.934 6.522 48.133 4.868 71.664a13.9 13.9 0 0 1 6.747 1.412 13.95 13.95 0 0 1 7.303 8.71c-.352-6.03 3.259-11.824 9.232-13.975l7.363-2.652c7.27-2.618 15.287 1.153 17.906 8.424s-1.153 15.287-8.424 17.906l-7.363 2.651c-7.271 2.619-15.287-1.152-17.906-8.423a14 14 0 0 1-.286-.885 13.94 13.94 0 0 1-1.401 6.961l-6.51 13.312c-2.413 4.933-7.343 7.813-12.486 7.848-8.03 38.243-22.488 72.908-37.641 99.35a13.99 13.99 0 0 1-14.741 6.791c-57.968-10.962-137.671-43.931-186.456-108.61-49.828-66.061-65.095-162.037.791-292.916a13.99 13.99 0 0 1 15.837-7.297c77.934 19.148 132.091 49.996 168.07 87.259a230 230 0 0 1 4.584-4.649c5.503-5.425 14.362-5.362 19.788.14M92.523 81.938c-56.291 118.016-39.426 199.125 1.502 253.387 38.703 51.313 100.833 81.206 152.185 94.175l-31.7-68.803-102.564-37.863c-6.214-2.294-9.392-9.191-7.098-15.405s9.191-9.392 15.405-7.098l80.061 29.556-51.47-111.711-47.777-17.638c-6.214-2.294-9.392-9.191-7.098-15.405s9.191-9.392 15.405-7.098l25.275 9.331-24.913-54.071c-2.772-6.016-.142-13.14 5.874-15.912s13.14-.142 15.912 5.874l61.657 133.821 14.002-36.534c2.37-6.185 9.306-9.278 15.491-6.907 6.185 2.37 9.278 9.306 6.907 15.491l-22.377 58.387 56.424 122.463c19.915-45.984 33.01-105.697 20.525-162.253C269.5 181.358 218.805 115.834 92.522 81.938" clip-rule="evenodd"/><path fill="currentColor" d="M461.303 285.66c7.143 2.949 10.544 11.13 7.596 18.273a209 209 0 0 1-8.869 18.776c-3.643 6.815-12.122 9.386-18.937 5.742s-9.386-12.121-5.743-18.937a180 180 0 0 0 7.68-16.258c2.949-7.143 11.13-10.544 18.273-7.596M432.184 341.407c5.893 4.999 6.618 13.829 1.619 19.722a239 239 0 0 1-13.989 15.109c-5.486 5.442-14.346 5.406-19.788-.08-5.442-5.487-5.406-14.346.08-19.788a211 211 0 0 0 12.356-13.344c4.999-5.893 13.829-6.618 19.722-1.619M387.896 386.143c4.426 6.335 2.878 15.058-3.458 19.484a302 302 0 0 1-17.06 11.072c-6.619 3.988-15.218 1.856-19.207-4.763-3.988-6.619-1.856-15.218 4.763-19.207a274 274 0 0 0 15.478-10.044c6.335-4.426 15.059-2.877 19.484 3.458M334.194 419.036c3.045 7.102-.244 15.329-7.346 18.374a352 352 0 0 1-18.814 7.434c-7.266 2.633-15.29-1.122-17.923-8.387s1.122-15.29 8.388-17.923a325 325 0 0 0 17.32-6.844c7.103-3.045 15.329.243 18.375 7.346M414.229 128.4c6.942 3.395 9.818 11.775 6.423 18.717l-3.255 6.656c-3.394 6.942-11.774 9.818-18.716 6.423s-9.818-11.774-6.424-18.717l3.255-6.656c3.395-6.942 11.775-9.818 18.717-6.423M336.7 150.575c7.728 0 13.992 6.265 13.992 13.992v7.242c0 7.728-6.264 13.993-13.992 13.993s-13.993-6.265-13.993-13.993v-7.242c0-7.727 6.265-13.992 13.993-13.992M393.886 170c6.943 3.395 9.818 11.775 6.424 18.717l-6.51 13.312c-3.395 6.943-11.775 9.818-18.717 6.424-6.942-3.395-9.818-11.775-6.423-18.717l6.509-13.312c3.395-6.943 11.775-9.818 18.717-6.424M336.7 195.837c7.728 0 13.992 6.264 13.992 13.992v7.242c0 7.728-6.264 13.993-13.992 13.993s-13.993-6.265-13.993-13.993v-7.242c0-7.728 6.265-13.992 13.993-13.992M370.289 218.257c6.942 3.394 9.818 11.774 6.423 18.716l-6.51 13.312c-3.395 6.943-11.774 9.818-18.717 6.424-6.942-3.395-9.818-11.775-6.423-18.717l6.51-13.312c3.395-6.943 11.774-9.818 18.717-6.423M346.691 266.513c6.942 3.394 9.818 11.774 6.423 18.717l-6.509 13.312c-3.395 6.942-11.775 9.818-18.717 6.423-6.943-3.395-9.818-11.775-6.424-18.717l6.51-13.312c3.395-6.942 11.775-9.818 18.717-6.423M410.915 298.703c2.619 7.27-1.153 15.287-8.424 17.906l-7.362 2.651c-7.271 2.619-15.288-1.153-17.906-8.423-2.619-7.271 1.152-15.288 8.423-17.906l7.363-2.652c7.271-2.618 15.288 1.153 17.906 8.424"/></svg>