<svg xmlns="http://www.w3.org/2000/svg" width="512" height="512" fill="none"><path fill="currentColor" fill-rule="evenodd" d="M383.993 71.339c-.414-21.78-18.128-39.276-39.947-39.339H72l-.661.007C49.559 32.422 32.063 50.135 32 71.954V424l.01.926c.583 30.482 25.388 54.983 55.942 55.074H416l1.053-.009C451.958 479.426 480 450.953 480 416V152c0-22.091-17.909-40-40-40h-56V72zM384 144v272c0 17.673 14.327 32 32 32l.535-.005.522-.012c17.026-.55 30.665-14.399 30.939-31.46L448 416V152a8 8 0 0 0-8-8zm-23.438 304c-5.445-9.414-8.562-20.343-8.562-32V72.046c-.013-4.354-3.473-7.897-7.752-8.042L344 64H72.047c-4.355.013-7.898 3.474-8.043 7.752L64 72v351.952c.04 13.132 10.57 23.793 23.604 24.044L88 448zM304 112c8.837 0 16 7.163 16 16 0 8.731-6.994 15.829-15.685 15.997L304 144h-64c-8.837 0-16-7.163-16-16 0-8.731 6.994-15.829 15.685-15.997L240 112zm16 80c0-8.837-7.163-16-16-16h-64l-.315.003C230.994 176.171 224 183.269 224 192c0 8.837 7.163 16 16 16h64l.315-.003C313.006 207.829 320 200.731 320 192m-16 48c8.837 0 16 7.163 16 16 0 8.731-6.994 15.829-15.685 15.997L304 272H112c-8.837 0-16-7.163-16-16 0-8.731 6.994-15.829 15.685-15.997L112 240zm16 80c0-8.837-7.163-16-16-16H112l-.315.003C102.994 304.171 96 311.269 96 320c0 8.837 7.163 16 16 16h192l.315-.003C313.006 335.829 320 328.731 320 320m-16 48c8.837 0 16 7.163 16 16 0 8.731-6.994 15.829-15.685 15.997L304 400H112c-8.837 0-16-7.163-16-16 0-8.731 6.994-15.829 15.685-15.997L112 368zM112 208h64c8.837 0 16-7.163 16-16v-64c0-8.837-7.163-16-16-16h-64c-8.837 0-16 7.163-16 16v64c0 8.837 7.163 16 16 16" clip-rule="evenodd"/></svg>