<svg xmlns="http://www.w3.org/2000/svg" width="512" height="512" fill="none"><path fill="currentColor" fill-rule="evenodd" d="M384 72v344c.034 28.847 19.331 54.119 47.15 61.75.5.132.849.583.85 1.1a1.14 1.14 0 0 1-1.15 1.15H88c-30.928 0-56-25.072-56-56V72c0-22.091 17.909-40 40-40h272a40 40 0 0 1 40 40m-272 40c-8.837 0-16 7.163-16 16v64c0 8.837 7.163 16 16 16h64c8.837 0 16-7.163 16-16v-64c0-8.837-7.163-16-16-16zm192 288H112.45c-8.61 0-16-6.62-16.43-15.23A16 16 0 0 1 112 368h191.55c8.61 0 16 6.62 16.43 15.23A16 16 0 0 1 304 400m-191.55-64H304a16 16 0 0 0 15.98-16.77c-.43-8.61-7.82-15.23-16.43-15.23H112a16 16 0 0 0-15.98 16.77c.43 8.61 7.82 15.23 16.43 15.23M304 272H112.45c-8.61 0-16-6.62-16.43-15.23A16 16 0 0 1 112 240h191.55c8.61 0 16 6.62 16.43 15.23A16 16 0 0 1 304 272m-63.55-64H304a16 16 0 0 0 15.98-16.77c-.43-8.61-7.82-15.23-16.43-15.23H240a16 16 0 0 0-15.98 16.77c.43 8.61 7.82 15.23 16.43 15.23M304 144h-63.55c-8.61 0-16-6.62-16.43-15.23A16 16 0 0 1 240 112h63.55c8.61 0 16 6.62 16.43 15.23A16 16 0 0 1 304 144m112.09-32h23.82c22.141 0 40.09 17.949 40.09 40.09V416c0 17.673-14.327 32-32 32s-32-14.327-32-32V112.09c0-.05.04-.09.09-.09" clip-rule="evenodd"/></svg>