<svg xmlns="http://www.w3.org/2000/svg" width="512" height="512" fill="none"><path fill="currentColor" fill-rule="evenodd" d="M384 416c.034 28.847 19.331 54.119 47.15 61.75a1.14 1.14 0 0 1-.3 2.25H88c-30.928 0-56-25.072-56-56V44c0-6.627 5.373-12 12-12h328c6.627 0 12 5.373 12 12zM96 112v96h96v-96zm224 288H96v-32h224zM96 336h224v-32H96zm224-64H96v-32h224zm-96-64h96v-32h-96zm96-64h-96v-32h96zm96-32h52c6.627 0 12 5.373 12 12v292c0 17.673-14.327 32-32 32s-32-14.327-32-32z" clip-rule="evenodd"/></svg>