<svg xmlns="http://www.w3.org/2000/svg" width="256" height="257" fill="none"><path fill="currentColor" d="M163.456 24.433c4.624 2.195 5.291 8.256 1.672 11.876l-25.963 25.963c-1.998 1.997-4.894 2.715-7.702 2.413A32 32 0 0 0 128 64.5c-17.673 0-32 14.327-32 32q.001 1.756.185 3.463c.302 2.808-.416 5.704-2.413 7.702L68.4 133.036c-4.017 4.017-10.824 2.678-12.738-2.671C50.566 116.126 48 103.634 48 93c0-42.175 35.89-76.5 80-76.5 12.724 0 24.764 2.856 35.456 7.933"/><path fill="currentColor" fill-rule="evenodd" d="m73.867 169.947-19.71 19.71a8 8 0 0 1-11.314-11.314l159-159a8 8 0 0 1 11.314 11.314L194 49.814c8.829 12.299 14 27.177 14 43.186 0 20.095-9.155 46.805-27.18 79.39-14.5 26.17-31.29 49.835-40 61.61a15.874 15.874 0 0 1-25.61 0c-8.725-11.775-25.5-35.44-40-61.61q-.679-1.228-1.343-2.443m43.32-43.32A32 32 0 0 0 128 128.5c17.665-.019 31.981-14.335 32-32 0-3.795-.661-7.436-1.873-10.813z" clip-rule="evenodd"/></svg>