<svg xmlns="http://www.w3.org/2000/svg" width="256" height="257" fill="none"><path fill="currentColor" d="M163.465 24.418c4.627 2.194 5.297 8.256 1.676 11.877l-.323.323c-2.532 2.532-6.42 3.026-9.694 1.574-8.231-3.65-17.421-5.692-27.124-5.692-35.414 0-64 27.2-64 60.5 0 8.824 2.246 19.369 6.46 31.285 1.056 2.984.365 6.326-1.873 8.564l-.216.216c-4.015 4.015-10.818 2.681-12.734-2.663C50.667 116.54 48 104.001 48 93c0-42.319 35.923-76.5 80-76.5 12.724 0 24.768 2.848 35.465 7.918"/><path fill="currentColor" d="M127.75 71.5c.83 0 1.2.987.613 1.573l-23.79 23.79c-.587.587-1.573.217-1.573-.613 0-13.669 11.081-24.75 24.75-24.75"/><path fill="currentColor" fill-rule="evenodd" d="m73.867 169.947-19.71 19.71a8 8 0 0 1-11.314-11.314l159-159a8 8 0 0 1 11.314 11.314l-19.136 19.136C202.836 62.079 208 76.954 208 93c0 21.257-9.946 48.237-27.205 79.399-11.956 21.587-26.139 42.902-39.991 61.607l-.107.144a15.89 15.89 0 0 1-12.451 6.338l-.246.002c-5.08 0-9.853-2.43-12.843-6.537l-.679-.919c-13.383-18.152-27.036-38.7-38.653-59.536l-.62-1.116a438 438 0 0 1-1.338-2.435m49.359-49.359c1.467.27 2.979.412 4.524.412 13.669 0 24.75-11.081 24.75-24.75a25 25 0 0 0-.412-4.524l30.42-30.42C188.529 70.534 192 81.396 192 93c0 17.836-9.158 42.681-25.201 71.647l-.601 1.08c-11.243 20.162-24.541 40.169-37.555 57.814l-.588.794a.13.13 0 0 0 0 .15c-13.468-18.194-27.285-38.965-38.853-59.854a390 390 0 0 1-3.52-6.499z" clip-rule="evenodd"/></svg>