<svg xmlns="http://www.w3.org/2000/svg" width="512" height="512" fill="none"><path fill="currentColor" fill-rule="evenodd" d="M315.139 80.062C306.727 52.52 283.894 32 256 32l-.844.006c-27.524.41-49.981 20.824-58.269 48.152l-.115.387-.04.046-.055.059c-.25.258-.559.47-.699.526a166 166 0 0 0-19.946 9.74c-7.663 4.4-10.307 14.179-5.907 21.842s14.18 10.307 21.843 5.907l1.198-.68a134 134 0 0 1 14.876-7.17l.44-.182c8.776-3.719 16.173-11.466 18.871-20.657l.136-.461C232.073 74.35 243.556 64 256 64c12.576 0 24.181 10.559 28.697 25.953 2.757 9.292 10.331 17.193 19.223 20.847l.85.352c17.791 7.441 31.502 16.942 41.971 30.63 13.607 17.789 21.139 42.228 21.139 75.518l.001 1.15c.062 34.023 2.862 59.057 8.666 78.954l.396 1.334c5.401 17.886 12.812 31.012 24.99 46.465 5.47 6.941 15.53 8.133 22.47 2.664 6.941-5.47 8.133-15.53 2.664-22.47-9.878-12.535-15.367-22.258-19.49-35.91-4.999-16.553-7.583-38.699-7.693-70.081l-.007-3.304c-.191-39.462-9.821-70.362-27.718-93.761-14.489-18.943-33.033-31.656-56.069-41.137-.103-.042-.407-.253-.67-.527l-.064-.07-.084-.098zM84.789 325.606c-2.32 2.938-11.032 13.507-12.633 15.441l-.794.983C52.732 365.938 70.428 400 101.62 400H176l.011 1.323C176.717 444.896 212.259 480 256 480c44.183 0 80-35.817 80-80v-16l-.003-.315C335.829 374.994 328.731 368 320 368H101.62l-.264-.004c-4.782-.128-6.659-3.752-4.745-6.303l.077-.099 6.699-8.136c2.455-2.994 4.948-6.05 6.257-7.694l.891-1.131c11.884-15.178 19.149-28.129 24.484-45.704 6.045-19.914 8.992-45.002 9.117-79.28l.009-3.826q.037-5.318.336-10.272l.016-.315c.354-8.685-6.311-16.093-15.026-16.617-8.821-.531-16.401 6.19-16.932 15.01a229 229 0 0 0-.399 13.721c0 32.566-2.602 55.353-7.742 72.284-3.988 13.141-9.242 22.629-18.52 34.581zM256 448c-26.51 0-48-21.49-48-48h96l-.006.794C303.57 426.937 282.245 448 256 448M75.051 52.43c-6.266-5.99-16.203-5.905-22.365.256-6.248 6.249-6.248 16.38 0 22.628l384 384 .263.256c6.266 5.991 16.203 5.905 22.365-.256 6.248-6.249 6.248-16.379 0-22.628l-384-384z" clip-rule="evenodd"/></svg>