<svg xmlns="http://www.w3.org/2000/svg" width="512" height="512" fill="none"><path fill="currentColor" fill-rule="evenodd" d="M48 256c0-114.837 93.163-208 208-208s208 93.163 208 208-93.163 208-208 208S48 370.837 48 256m384 0c0-97.163-78.837-176-176-176S80 158.837 80 256s78.837 176 176 176 176-78.837 176-176m-71.013 52.096zc-14.065-16.225-23.647-27.279-23.647-75.895 0-48.86-25.78-66.23-47-74.67a11.4 11.4 0 0 1-6.34-6.68C280.29 138.6 269.88 128 256 128s-24.31 10.6-28 22.86a11.35 11.35 0 0 1-6.33 6.68c-21.24 8.46-47 25.8-47 74.67 0 48.607-9.587 59.666-23.649 75.887-1.366 1.576-2.775 3.2-4.221 4.913-6.77 8-.65 23 11.19 23H354C365.77 336 371.94 321 365.2 313a485 485 0 0 0-4.213-4.904m-143.735 45.22A4 4 0 0 1 220.24 352h71.42a4 4 0 0 1 4 4.48C293.14 374.85 276.67 384 256 384c-20.89 0-37.51-8.86-39.76-27.58a4 4 0 0 1 1.012-3.104" clip-rule="evenodd"/></svg>