<svg xmlns="http://www.w3.org/2000/svg" width="512" height="512" fill="none"><path fill="currentColor" fill-rule="evenodd" d="M48 256c0-114.837 93.163-208 208-208s208 93.163 208 208-93.163 208-208 208S48 370.837 48 256m384 0c0-97.163-78.837-176-176-176S80 158.837 80 256s78.837 176 176 176 176-78.837 176-176m-211.76 96a4 4 0 0 0-4 4.42C218.49 375.14 235.11 384 256 384s37.5-8.86 39.73-27.58a4.003 4.003 0 0 0-4-4.42zm119.92 20.76A15.93 15.93 0 0 0 352 378a16.001 16.001 0 0 0 11.84-26.76l-192-212c-5.97-6.413-15.988-6.832-22.472-.939s-7.023 15.905-1.208 22.459zM174.68 232.21c0 48.607-9.587 59.666-23.649 75.887-1.366 1.576-2.775 3.2-4.221 4.913-6.77 8-.65 23 11.19 23h118.83a4.002 4.002 0 0 0 2.95-6.7l-98-106.87a4 4 0 0 0-6.94 2.52c-.1 2.33-.16 4.75-.16 7.25m186.307 75.885A475 475 0 0 1 365.2 313a12 12 0 0 1 2.74 7.26 4 4 0 0 1-6.94 2.95L216.49 165.53a4.001 4.001 0 0 1 1.3-6.36c1.31-.58 2.6-1.12 3.88-1.63a11.35 11.35 0 0 0 6.33-6.68c3.69-12.26 14.12-22.86 28-22.86s24.29 10.6 28 22.85a11.4 11.4 0 0 0 6.34 6.68c21.22 8.44 47 25.81 47 74.67 0 48.616 9.582 59.67 23.647 75.895" clip-rule="evenodd"/></svg>