<svg xmlns="http://www.w3.org/2000/svg" width="512" height="512" fill="none"><path fill="currentColor" fill-rule="evenodd" d="M437.509 338.193c.849 1.032 1.706 2.075 2.571 3.117a35.17 35.17 0 0 1 4.61 37.66c-6.19 12.94-19.25 21-34.19 21H101.61c-15.01 0-28.16-8.07-34.33-21.07a35.16 35.16 0 0 1 4.65-37.62 724 724 0 0 1 4.296-5.214l.594-.716c22.02-26.58 35.31-42.64 35.31-118 0-68.4 27.4-112.93 83.78-136.14.304-.17.578-.39.81-.65C205.41 51.49 229.18 32 256 32s50.6 19.49 59.29 48.59c.231.27.509.497.82.67 24.16 9.94 42.49 23.39 56.05 41.12 18.39 24 27.72 56 27.72 95 0 75.291 13.296 91.373 35.276 117.959l.034.041q1.149 1.388 2.319 2.813M326.44 437.87A80.06 80.06 0 0 1 256 480a80.06 80.06 0 0 1-70.43-42.13 4 4 0 0 1 3.55-5.87H322.9a4.002 4.002 0 0 1 3.54 5.87" clip-rule="evenodd"/></svg>