<svg xmlns="http://www.w3.org/2000/svg" width="512" height="512" fill="none"><path fill="currentColor" fill-rule="evenodd" d="m440.9 342.031-.552-.691-7.848-9.536c-2.127-2.597-4.098-5.017-5.032-6.199-9.96-12.615-15.466-22.323-19.607-35.97l-.332-1.112c-4.809-16.44-7.295-38.315-7.404-69.063l-.003-2.11c0-40.056-9.642-71.357-27.718-95-14.487-18.949-33.026-31.662-56.061-41.145-.104-.043-.408-.254-.671-.528l-.121-.134-.025-.031C307.212 52.744 284.279 32 256.252 32c-27.898 0-50.759 20.567-59.116 48.166l-.115.388-.106.116c-.254.263-.563.477-.693.53-23.088 9.508-41.606 22.192-56.086 41.125-17.89 23.393-27.511 54.305-27.701 93.825l-.008 3.31c-.129 31.438-2.739 53.606-7.772 70.17-4.071 13.396-9.453 22.997-19.07 35.276l-1.179 1.488c-1.855 2.312-5.508 6.765-8.347 10.214l-3.877 4.699C52.619 365.245 70.363 400 101.862 400h74.39l.011 1.323c.706 43.573 36.248 78.677 79.989 78.677 44.183 0 80-35.817 80-80h74.49c31.1 0 48.712-34.131 30.158-57.969M320.252 368h90.49c4.925 0 6.893-3.882 4.8-6.447l-3.267-3.955c-3.029-3.679-7.332-8.923-9.396-11.503l-1.155-1.461c-11.884-15.176-19.15-28.129-24.484-45.706-6.043-19.913-8.989-45-9.114-79.279l-.006-3.296c-.149-32.805-7.667-56.948-21.138-74.568-10.633-13.908-24.61-23.492-42.81-30.985l-.437-.183c-8.703-3.73-16.075-11.524-18.784-20.657C280.427 74.566 268.813 64 256.252 64s-24.171 10.573-28.648 25.976l-.138.456c-2.843 9.113-10.308 16.762-19.072 20.363l-.852.354c-17.84 7.464-31.53 16.943-41.987 30.616-13.597 17.779-21.123 42.231-21.123 75.594l-.002 1.153c-.083 34.866-3.04 60.289-9.158 80.422-5.246 17.266-12.354 30.069-23.871 44.904l-1.251 1.598c-1.038 1.315-3.149 3.908-5.387 6.64l-7.82 9.503-.09.113c-1.91 2.548-.032 6.176 4.745 6.304l.264.004h218.39m-112 32c0 26.51 21.49 48 48 48 26.244 0 47.569-21.063 47.993-47.206l.007-.794z" clip-rule="evenodd"/></svg>