<svg xmlns="http://www.w3.org/2000/svg" width="512" height="512" fill="none"><path fill="currentColor" fill-rule="evenodd" d="M437.509 338.193c.849 1.032 1.706 2.075 2.571 3.117a35.4 35.4 0 0 1 7.84 18.5 8 8 0 0 1-13.6 6.63L172.54 104.7a8 8 0 0 1 1.49-12.49 158 158 0 0 1 21.88-11c.305-.17.578-.39.81-.65C205.41 51.49 229.18 32 256 32s50.6 19.49 59.29 48.59c.232.27.509.497.82.67 24.16 9.94 42.49 23.39 56.05 41.12 18.39 24 27.72 56 27.72 95 0 75.291 13.297 91.373 35.276 117.959l.034.041q1.15 1.388 2.319 2.813m-.819 121.117A15.92 15.92 0 0 0 448 464a16 16 0 0 0 11.31-27.31l-384-384c-6.29-5.976-16.198-5.85-22.334.286s-6.262 16.043-.286 22.334zM112.14 217.35c0 75.36-13.29 91.42-35.31 118l-.594.716a721 721 0 0 0-4.296 5.214 35.16 35.16 0 0 0-4.65 37.62c6.17 13 19.32 21.07 34.33 21.07H312.8a7.999 7.999 0 0 0 5.66-13.66l-192-192a7.999 7.999 0 0 0-13.62 5q-.7 8.69-.7 18.04m214.3 220.52A80.06 80.06 0 0 1 256 480a80.06 80.06 0 0 1-70.43-42.13 4 4 0 0 1 3.55-5.87H322.9a4 4 0 0 1 3.43 1.934 4 4 0 0 1 .11 3.936" clip-rule="evenodd"/></svg>