<svg xmlns="http://www.w3.org/2000/svg" width="512" height="512" fill="none"><path fill="currentColor" fill-rule="evenodd" d="M336 48h112c8.837 0 16 7.163 16 16v112c0 8.837-7.163 16-16 16s-16-7.163-16-16v-73.37l-38.75 38.74a56.35 56.35 0 0 0-22.62-22.62L409.37 80H336c-8.837 0-16-7.163-16-16s7.163-16 16-16m34.63 70.75A55.7 55.7 0 0 0 344 112H104c-30.914.033-55.967 25.086-56 56v240c.033 30.914 25.086 55.967 56 56h240c30.914-.033 55.967-25.086 56-56V168a55.7 55.7 0 0 0-6.75-26.63L235.31 299.31A15.92 15.92 0 0 1 224 304a16 16 0 0 1-11.31-27.31z" clip-rule="evenodd"/></svg>