<svg xmlns="http://www.w3.org/2000/svg" width="512" height="512" fill="none"><path fill="currentColor" fill-rule="evenodd" d="M448 48c8.731 0 15.829 6.994 15.997 15.685L464 64v112c0 8.837-7.163 16-16 16-8.731 0-15.829-6.994-15.997-15.685L432 176v-73.373L235.314 299.314c-6.249 6.248-16.379 6.248-22.628 0-6.161-6.162-6.247-16.099-.256-22.365l.256-.263L409.373 80H336c-8.731 0-15.829-6.994-15.997-15.685L320 64c0-8.731 6.994-15.83 15.685-15.997L336 48zm-176.52 64c8.837 0 16 7.163 16 16 0 8.731-6.994 15.829-15.685 15.997l-.315.003H104c-13.122 0-23.785 10.531-23.997 23.603L80 168v240c0 13.122 10.531 23.785 23.603 23.997L104 432h240c6.365 0 12.47-2.529 16.971-7.029a24 24 0 0 0 7.025-16.517L368 408V224c0-8.837 7.163-16 16-16 8.731 0 15.829 6.994 15.997 15.685L400 224v184a56 56 0 0 1-55.355 55.996L344 464H104c-30.619 0-55.498-24.573-55.992-55.074L48 408V168c0-30.619 24.573-55.498 55.074-55.993L104 112z" clip-rule="evenodd"/></svg>