<svg xmlns="http://www.w3.org/2000/svg" width="512" height="512" fill="none"><path fill="currentColor" fill-rule="evenodd" d="M64 144h226.75c6.785 19.171 24.914 31.986 45.25 31.986s38.465-12.815 45.25-31.986H448c8.837 0 16-7.163 16-16s-7.163-16-16-16h-66.75c-6.785-19.171-24.914-31.986-45.25-31.986S297.535 92.829 290.75 112H64c-8.837 0-16 7.163-16 16s7.163 16 16 16m384 224h-66.75c-6.785-19.171-24.914-31.986-45.25-31.986S297.535 348.829 290.75 368H64c-8.837 0-16 7.163-16 16s7.163 16 16 16h226.75c6.785 19.171 24.914 31.986 45.25 31.986s38.465-12.815 45.25-31.986H448c8.837 0 16-7.163 16-16s-7.163-16-16-16M221.25 240H448c8.837 0 16 7.163 16 16s-7.163 16-16 16H221.25c-6.785 19.171-24.914 31.986-45.25 31.986S137.535 291.171 130.75 272H64c-8.837 0-16-7.163-16-16s7.163-16 16-16h66.75c6.785-19.171 24.914-31.986 45.25-31.986s38.465 12.815 45.25 31.986" clip-rule="evenodd"/></svg>