<svg xmlns="http://www.w3.org/2000/svg" width="512" height="512" fill="none"><path fill="currentColor" fill-rule="evenodd" d="M290.731 144H64c-8.837 0-16-7.163-16-16 0-8.731 6.994-15.829 15.685-15.997L64 112h226.731C297.321 93.357 315.1 80 336 80s38.679 13.357 45.269 32H448c8.837 0 16 7.163 16 16 0 8.731-6.994 15.829-15.685 15.997L448 144h-66.731c-6.59 18.643-24.369 32-45.269 32s-38.679-13.357-45.269-32M320 128c0 8.837 7.163 16 16 16s16-7.163 16-16-7.163-16-16-16-16 7.163-16 16m144 256c0-8.837-7.163-16-16-16h-66.731c-6.59-18.643-24.369-32-45.269-32s-38.679 13.357-45.269 32H64l-.315.003C54.994 368.171 48 375.269 48 384c0 8.837 7.163 16 16 16h226.731c6.59 18.643 24.369 32 45.269 32s38.679-13.357 45.269-32H448l.315-.003C457.006 399.829 464 392.731 464 384m-144 0c0 8.837 7.163 16 16 16s16-7.163 16-16-7.163-16-16-16-16 7.163-16 16m144-128c0-8.837-7.163-16-16-16H221.269c-6.59-18.643-24.369-32-45.269-32s-38.679 13.357-45.269 32H64l-.315.003C54.994 240.171 48 247.269 48 256c0 8.837 7.163 16 16 16h66.731c6.59 18.643 24.37 32 45.269 32 20.9 0 38.679-13.357 45.269-32H448l.315-.003C457.006 271.829 464 264.731 464 256m-288 16c-8.837 0-16-7.163-16-16s7.163-16 16-16 16 7.163 16 16-7.163 16-16 16" clip-rule="evenodd"/></svg>