<svg xmlns="http://www.w3.org/2000/svg" width="512" height="512" fill="none"><path fill="currentColor" fill-rule="evenodd" d="M381.25 111.986C374.465 92.816 356.336 80 336 80s-38.465 12.815-45.25 31.986H48v32h242.75c6.785 19.172 24.914 31.987 45.25 31.987s38.465-12.815 45.25-31.987H464v-32zm-205.25 96c-20.331.029-38.448 12.841-45.25 32H48v32h82.75c6.785 19.172 24.914 31.987 45.25 31.987s38.465-12.815 45.25-31.987H464v-32H221.25c-6.802-19.159-24.919-31.971-45.25-32m114.75 160c6.802-19.159 24.919-31.971 45.25-32 20.331.029 38.448 12.841 45.25 32H464v32h-82.75c-6.785 19.172-24.914 31.987-45.25 31.987s-38.465-12.815-45.25-31.987H48v-32z" clip-rule="evenodd"/></svg>