<svg xmlns="http://www.w3.org/2000/svg" width="461" height="512" fill="none"><path fill="currentColor" d="M428 355c0 8.36-4.62 15.62-11.66 19.36l-173.8 97.68c-3.52 2.64-7.92 3.96-12.54 3.96s-9.02-1.32-12.54-3.96l-173.8-97.68C36.62 370.62 32 363.36 32 355V157c0-8.36 4.62-15.62 11.66-19.36l173.8-97.68C220.98 37.32 225.38 36 230 36s9.02 1.32 12.54 3.96l173.8 97.68c7.04 3.74 11.66 11 11.66 19.36zM230 83.3l-41.58 23.54L318 181.42 361.12 157zM98.88 157 230 230.7l43.12-24.2-129.36-74.8zM76 342.02l132 74.36V268.76L76 194.62zm308 0v-147.4l-132 74.14v147.62z"/></svg>