<svg xmlns="http://www.w3.org/2000/svg" width="512" height="512" fill="none"><path fill="currentColor" fill-rule="evenodd" d="M447.421 33.584 47.473 184.954c-9.529 3.656-15.69 12.836-15.467 22.966l.013.405a24.01 24.01 0 0 0 15.643 21.567l.13.047 165.763 67.207.469.182.476.167.168.478.089.237 67.382 166.051.089.236a24.005 24.005 0 0 0 21.858 15.409 24.01 24.01 0 0 0 22.864-15.151l.09-.233 151.39-400c3.363-8.791 1.23-18.797-5.465-25.492a24 24 0 0 0-25.544-5.446m-18.97 72.588L304.384 433.978 245.572 289.05zm-22.625-22.63L77.947 207.636l144.997 58.787z" clip-rule="evenodd"/></svg>