<svg xmlns="http://www.w3.org/2000/svg" width="512" height="516" fill="none"><path fill="currentColor" d="M85.316 193.826c0-23.594 19.2-42.898 42.667-42.898v85.797c-23.467 0-42.667-19.304-42.667-42.899M356.25 440.493l68.266 40.754-19.2-77.218 64-62.203h-78.933l-29.867-75.072-34.133 77.217h-81.067l61.867 62.203-19.2 77.218zM213.316 374v34.319h34.134zm-83.2-265.971c-40.533 0-76.8 27.884-85.333 68.638-10.667 45.043 17.067 90.087 61.867 100.812h4.266c6.4 2.144 12.8 2.144 17.067 2.144v128.696h42.667V150.928h42.666v150.145h42.667V150.928h42.667v-42.899z"/></svg>