<svg xmlns="http://www.w3.org/2000/svg" width="512" height="516" fill="none"><path fill="currentColor" d="M216.553 108.029a87.37 87.37 0 0 0-55.401 18.678c-15.8 12.412-26.891 29.893-31.426 49.53a86.3 86.3 0 0 0 .597 37.83 86 86 0 0 0 16.721 33.893 85.4 85.4 0 0 0 29.595 23.367 84.96 84.96 0 0 0 36.714 8.296v128.695h42.667V150.927h42.666v257.391h42.667V150.927h42.667v-42.898zm-45.867 85.797a43.02 43.02 0 0 1 12.497-30.334 42.55 42.55 0 0 1 30.17-12.565v85.797a42.55 42.55 0 0 1-30.17-12.564 43.02 43.02 0 0 1-12.497-30.334"/></svg>