<svg xmlns="http://www.w3.org/2000/svg" width="512" height="516" fill="none"><path fill="currentColor" d="M163.912 108.029a87.37 87.37 0 0 0-55.402 18.678c-15.8 12.412-26.89 29.893-31.425 49.53-4.568 22.286-.144 45.483 12.298 64.489s31.884 32.265 54.049 36.859l.576.107a80 80 0 0 0 17.493 1.931v128.695h42.667V150.927h42.666v257.391h42.667V150.927h42.667v-42.898zm-45.867 85.797a43.02 43.02 0 0 1 12.497-30.334 42.55 42.55 0 0 1 30.17-12.565v85.797a42.55 42.55 0 0 1-30.17-12.564 43.02 43.02 0 0 1-12.497-30.334m318.72 182.126a32.3 32.3 0 0 1-5.393 17.874 32.04 32.04 0 0 1-14.361 11.85 31.83 31.83 0 0 1-18.489 1.831 31.95 31.95 0 0 1-16.385-8.805 32.23 32.23 0 0 1-8.757-16.474 32.33 32.33 0 0 1 1.821-18.589 32.13 32.13 0 0 1 11.786-14.439 31.9 31.9 0 0 1 17.778-5.422 31.9 31.9 0 0 1 22.627 9.423 32.26 32.26 0 0 1 9.373 22.751m0-85.798a32.3 32.3 0 0 1-5.393 17.875 32.04 32.04 0 0 1-14.361 11.85 31.84 31.84 0 0 1-18.489 1.831 31.95 31.95 0 0 1-16.385-8.805 32.23 32.23 0 0 1-8.757-16.474 32.33 32.33 0 0 1 1.821-18.589 32.13 32.13 0 0 1 11.786-14.439 31.87 31.87 0 0 1 17.778-5.422 31.9 31.9 0 0 1 22.627 9.423 32.26 32.26 0 0 1 9.373 22.75m0-85.797a32.3 32.3 0 0 1-5.393 17.875 32.04 32.04 0 0 1-14.361 11.85 31.85 31.85 0 0 1-18.489 1.831 31.95 31.95 0 0 1-16.385-8.805 32.23 32.23 0 0 1-8.757-16.474 32.33 32.33 0 0 1 1.821-18.589 32.13 32.13 0 0 1 11.786-14.439 31.87 31.87 0 0 1 17.778-5.423 31.9 31.9 0 0 1 22.627 9.424 32.26 32.26 0 0 1 9.373 22.75"/></svg>