<svg xmlns="http://www.w3.org/2000/svg" width="512" height="512" fill="none"><path fill="currentColor" fill-rule="evenodd" d="M351.997 47.685C351.829 38.994 344.731 32 336 32c-8.837 0-16 7.163-16 16v32l.003.315C320.171 89.006 327.269 96 336 96c8.837 0 16-7.163 16-16V48zm-67.655 122.501c10.486 4.356 20.31 10.053 29.364 16.982 20.425 15.634 36.141 37.036 45.364 60.666l1.762.298c7.117 1.243 13.975 2.918 20.538 5.006 16.755-16.871 22.938-41.924 15.407-64.968-8.417-25.753-32.137-43.415-59.221-44.098-21.287-.537-41.028 9.508-53.214 26.114m127.367 96.829c31.888 19.895 51.704 52.656 52.278 94.318L464 363.2c0 67.234-54.586 116.8-124 116.8H106C43.624 480 0 445.268 0 384.8c0-27.323 10.46-50.14 29.139-66.908 15.763-14.152 36.703-23.295 59.018-26.853.03-.005.054-.028.056-.038C101.208 212.071 159.643 160 232 160c6.84 0 13.527.47 20.041 1.391 17.164-30.888 50.263-50.218 86.321-49.309 40.627 1.024 76.207 27.518 88.832 66.147 10.069 30.81 3.795 64.014-15.485 88.786m-34.191 18.636c.906.462 1.849.834 2.816 1.114C412.482 300.02 432 326.812 432 363.2c0 48.835-39.607 84.8-92 84.8H106c-22.127 0-40.812-5.501-53.597-15.68C39.166 421.781 32 406.133 32 384.8c0-18.116 6.512-32.32 18.516-43.097 10.7-9.605 25.63-16.205 41.803-18.92l.81-.133c13.473-2.089 24.165-12.552 26.582-26.006l.073-.425C130.289 232.417 175.645 192 232 192c23.869 0 44.882 7.281 62.257 20.579 15.456 11.831 27.529 28.145 34.711 46.15l.324.819a31.84 31.84 0 0 0 24.059 19.772l.469.081c8.463 1.379 16.388 3.477 23.698 6.25M496 192c8.837 0 16 7.163 16 16 0 8.731-6.994 15.829-15.685 15.997L496 224h-32c-8.837 0-16-7.163-16-16 0-8.731 6.994-15.829 15.685-15.997L464 192zM211.546 83.546c6.162-6.161 16.099-6.247 22.365-.256l.263.256 22.63 22.63c6.248 6.249 6.248 16.379 0 22.628-6.162 6.161-16.099 6.247-22.365.256l-.263-.256-22.63-22.63c-6.248-6.249-6.248-16.38 0-22.628m248.908 0c-6.249-6.248-16.379-6.248-22.628 0l-22.63 22.63-.256.263c-5.991 6.266-5.905 16.203.256 22.365 6.249 6.248 16.379 6.248 22.628 0l22.63-22.63.256-.263c5.991-6.266 5.905-16.203-.256-22.365" clip-rule="evenodd"/></svg>