<svg xmlns="http://www.w3.org/2000/svg" width="512" height="512" fill="none"><path fill="currentColor" fill-rule="evenodd" d="M352 32h-32v64h32zm74.94 206.89a169.3 169.3 0 0 0-45.44-19 174.5 174.5 0 0 0-48.31-58.13 162.5 162.5 0 0 0-57.73-28.23 94 94 0 0 1 5.54-4.2c34.015-23.812 79.484-23.056 112.689 1.872 33.206 24.928 46.622 68.378 33.251 107.688M106 480h234c33.2 0 64.11-11.46 87-32.28 23.87-21.65 37-51.67 37-84.52 0-31.49-11-59.09-31.74-79.83-18.47-18.43-43.78-30.72-73.19-35.54a142.7 142.7 0 0 0-45.36-60.66C290.48 169.39 262.23 160 232 160a140.24 140.24 0 0 0-93.46 35.32C112.06 218.91 94.67 252 88.23 291c-.01.05-.03.05-.09.05-22.83 3.63-43.76 13.16-59 26.84C10.08 335 0 358.14 0 384.8c0 30.55 11.23 55.64 32.47 72.56C51.08 472.17 76.5 480 106 480m342-288h64v32h-64zm-192.65-62.37 12.45-12.45-44.62-44.63-22.63 22.63 33.17 33.17h.6c7.03-.003 14.053.424 21.03 1.28m193.479-57.085-44.626 44.626 22.628 22.627 44.625-44.625z" clip-rule="evenodd"/></svg>