<svg xmlns="http://www.w3.org/2000/svg" width="512" height="512" fill="none"><path fill="currentColor" fill-rule="evenodd" d="M320 80c0 8.837 7.163 16 16 16s16-7.163 16-16V48c0-8.837-7.163-16-16-16s-16 7.163-16 16zm102.65 156.39a168.8 168.8 0 0 0-34.76-14.71 16 16 0 0 1-9.35-7.44 173.9 173.9 0 0 0-45.32-52.51 162.5 162.5 0 0 0-51.28-26.4 3.379 3.379 0 0 1-1-6h.06A95.46 95.46 0 0 1 336.09 112c52.43.05 95.52 42.84 95.91 95.27a97 97 0 0 1-3.53 26.68 4.002 4.002 0 0 1-5.82 2.44M106 480h234c33.2 0 64.11-11.46 87-32.28 23.87-21.65 37-51.67 37-84.52 0-31.49-11-59.09-31.74-79.82-16.77-16.71-39.17-28.39-65.17-34a16 16 0 0 1-11.19-9 142.23 142.23 0 0 0-42.19-53.21C290.48 169.39 262.23 160 232 160a140.24 140.24 0 0 0-93.46 35.32C112.06 218.91 94.67 252 88.23 291c-.01.05-.03.05-.09.05-22.83 3.63-43.76 13.16-59 26.84C10.08 335 0 358.14 0 384.8c0 30.55 11.23 55.64 32.47 72.56C51.08 472.17 76.5 480 106 480m390-256h-32c-8.837 0-16-7.163-16-16s7.163-16 16-16h32c8.837 0 16 7.163 16 16s-7.163 16-16 16m-250.51-90.51a15.92 15.92 0 0 1-11.31-4.69l-22.63-22.62c-6.249-6.25-6.249-16.38 0-22.63s16.381-6.25 22.63 0l22.62 22.63a16 16 0 0 1-11.31 27.31m166.245-9.878a16 16 0 0 0 14.775 9.878 15.92 15.92 0 0 0 11.31-4.69l22.63-22.62c6.249-6.25 6.249-16.38 0-22.63s-16.381-6.25-22.63 0l-22.62 22.63a16 16 0 0 0-3.465 17.432" clip-rule="evenodd"/></svg>