<svg xmlns="http://www.w3.org/2000/svg" width="512" height="512" fill="none"><path fill="currentColor" fill-rule="evenodd" d="M48 256c0-114.837 93.163-208 208-208s208 93.163 208 208-93.163 208-208 208S48 370.837 48 256m384 0c0-97.163-78.837-176-176-176S80 158.837 80 256s78.837 176 176 176 176-78.837 176-176m-224-80c8.731 0 15.829 6.994 15.997 15.685L224 192v128c0 8.837-7.163 16-16 16-8.731 0-15.829-6.994-15.997-15.685L192 320V192c0-8.837 7.163-16 16-16m111.997 15.685C319.829 182.994 312.731 176 304 176c-8.837 0-16 7.163-16 16v128l.003.315C288.171 329.006 295.269 336 304 336c8.837 0 16-7.163 16-16V192z" clip-rule="evenodd"/></svg>