<svg xmlns="http://www.w3.org/2000/svg" width="512" height="513" fill="none"><path fill="currentColor" d="M149.335 64.348c-23.467 0-42.667 19.2-42.667 42.666v298.667c0 23.467 19.2 42.667 42.667 42.667h213.333c23.467 0 42.667-19.2 42.667-42.667v-243.2l-98.134-98.133zM362.668 405.68H149.335V107.014h128v85.334h85.333zm-14.933-117.333c-4.267-12.8-23.467-17.067-55.467-17.067h-4.267c-6.4-6.4-17.066-19.2-21.333-25.6-4.267-4.267-6.4-6.4-8.533-12.8 4.266-14.933 4.266-21.333 6.4-32 2.133-19.2 0-34.133-4.267-38.4-8.533-4.267-14.933-4.267-19.2-4.267-2.133 0-6.4 4.267-14.933 14.934-4.267 14.933-2.134 38.4 12.8 59.733-4.267 17.067-14.934 34.133-21.334 51.2-17.066 4.267-32 14.933-40.533 23.467-14.933 14.933-19.2 23.466-14.933 34.133 0 6.4 4.266 12.8 14.933 12.8 6.4-2.133 6.4-4.267 14.933-6.4 12.8-6.4 25.6-36.267 36.267-51.2 17.067-4.267 36.267-6.4 42.667-6.4h12.8c17.066 17.067 25.6 23.467 38.4 25.6h6.4c6.4 0 17.066-2.133 21.333-12.8 0-2.133 0-6.4-2.133-14.933m-170.667 46.933c-2.133 2.133-4.267 2.133-4.267 2.133 0-2.133 0-6.4 12.8-17.066 4.267-4.267 12.8-6.4 19.2-14.934-12.8 14.934-21.333 25.6-27.733 29.867m64-142.933c0-2.134 2.133-4.267 2.133-4.267s4.267 4.267 2.134 25.6c0 2.133 0 6.4-2.134 14.933-2.133-12.8-8.533-25.6-2.133-36.266m-8.533 87.466c4.266-12.8 12.8-21.333 14.933-32l4.267 4.267c2.133 4.267 6.4 14.933 14.933 19.2-6.4 2.133-19.2 6.4-34.133 8.533m91.733 21.334h-4.267c-4.266 0-14.933-4.267-21.333-14.934 23.467 0 34.133 4.267 34.133 12.8-2.133 2.134-4.266 2.134-8.533 2.134"/></svg>