<svg xmlns="http://www.w3.org/2000/svg" width="512" height="512" fill="none"><path fill="currentColor" fill-rule="evenodd" d="M356.723 96.94c-6.191 1.56-14.374 5.674-18.928 9.518-2.107 1.778-10.805 10.359-19.332 19.067l-15.502 15.834 68.031 67.976 17.404-17.491c18.941-19.035 22.391-23.511 25.6-33.221 1.71-5.17 2.008-7.362 2.004-14.721-.004-7.464-.287-9.468-2.071-14.654-5.2-15.113-16.693-26.615-31.299-31.324-6.447-2.078-19.578-2.577-25.907-.983M211.671 232.438l-68.249 68.234-23.46 47.369c-24.749 49.975-25.22 51.132-23.242 57.121 1.203 3.643 4.76 7.625 8.527 9.546 2.379 1.213 3.987 1.466 7.595 1.194 4.195-.317 8.487-2.287 51.599-23.695l47.024-23.349 136.128-136.184-7.084-7.355c-5.377-5.582-60.404-61.115-60.559-61.115-.017 0-30.742 30.706-68.279 68.234" clip-rule="evenodd"/></svg>