<svg xmlns="http://www.w3.org/2000/svg" width="512" height="512" fill="none"><path fill="currentColor" fill-rule="evenodd" d="M259.9 48C142.92 46.42 47.42 141.92 49 258.9c1.56 112.19 92.91 203.54 205.1 205.1 117 1.6 212.48-93.9 210.88-210.88C463.44 140.91 372.09 49.56 259.9 48m-3.68 152.11c.21-1.2.44-2.4.71-3.59a66.46 66.46 0 0 1 16.29-31.21c12.89-13.73 31.16-21.31 51.45-21.31a74 74 0 0 1 25.06 4.26 66.7 66.7 0 0 1 26.27 17.2 68.15 68.15 0 0 1 18 42.14 78.6 78.6 0 0 1 0 11.4 86.2 86.2 0 0 1-8.2 31 83 83 0 0 1-1.59 3.15c-1.11 2.07-2.3 4.1-3.58 6.06a79.5 79.5 0 0 1-8.63 11c-13.12 14-29.92 21.73-47.31 21.73a59.6 59.6 0 0 1-19.17-3.18 63 63 0 0 1-6.1-2.43 70.8 70.8 0 0 1-22.07-16.12 83.76 83.76 0 0 1-22-51.32 83 83 0 0 1-.18-7.68 75.5 75.5 0 0 1 1.05-11.08zm-149.73 24.34a59.9 59.9 0 0 1 5.2-20.64 57 57 0 0 1 2.78-5.3 54.5 54.5 0 0 1 7.19-9.56 55.6 55.6 0 0 1 14-10.82 57 57 0 0 1 8.11-3.64 63.85 63.85 0 0 1 33.35-2.39 57 57 0 0 1 30.78 17 57.86 57.86 0 0 1 15.41 38.62c.05 2.11 0 4.23-.15 6.38a71.6 71.6 0 0 1-6 23.84 69.5 69.5 0 0 1-5.73 10.42 65.4 65.4 0 0 1-15.76 16.57c-1.5 1.07-3.06 2.07-4.67 3.07a54.2 54.2 0 0 1-10 4.65 49.3 49.3 0 0 1-16.2 2.76c-.93 0-1.86 0-2.78-.08a48 48 0 0 1-5.48-.62 51 51 0 0 1-5.35-1.23 53.6 53.6 0 0 1-10.2-4.12c-18-9.49-31.57-29.16-34.23-52.12-.12-1.05-.22-2.1-.29-3.16a66.6 66.6 0 0 1 .02-9.63m53.92 178.6a177.26 177.26 0 0 1-61.94-70.65 4 4 0 0 1 1.62-5.26C118.67 316.69 142.4 311 164.82 311c17 0 30.7 2 42.69 5.88a8.001 8.001 0 0 1 2.59 13.77c-23.35 19-38.4 42.54-45.47 70.75a2.77 2.77 0 0 1-4.22 1.65M257 432a175.1 175.1 0 0 1-65.7-12.72 4 4 0 0 1-2.4-4.46c.4-2.05.84-3.92 1.23-5.48 7.12-28.43 24.76-52 51-68.18 23.29-14.35 53-22.25 83.52-22.25 31.16 0 60 7.58 83.48 21.91a2.72 2.72 0 0 1 .91 3.67C377.529 398.623 319.636 431.945 257 432" clip-rule="evenodd"/></svg>