<svg xmlns="http://www.w3.org/2000/svg" width="512" height="512" fill="none"><path fill="currentColor" fill-rule="evenodd" d="M428 168c0 48.601-39.399 88-88 88s-88-39.399-88-88 39.399-88 88-88 88 39.399 88 88m-204 16c0 39.764-32.236 72-72 72s-72-32.236-72-72 32.235-72 72-72 72 32.235 72 72m-72 92c22.76 0 53.84 5.7 82 20-19.19 9.55-34.83 21.32-46 34-14 15.88-22 34.93-22 53.93V400H16v-42c0-54.66 91.42-82 136-82m188 12c-52.07 0-156 32.16-156 96v48h312v-48c0-63.84-103.93-96-156-96" clip-rule="evenodd"/></svg>