<svg xmlns="http://www.w3.org/2000/svg" width="512" height="512" fill="none"><path fill="currentColor" fill-rule="evenodd" d="M337 80c-49.65 0-85.564 38.294-81.96 89.132C258.438 217.125 294.642 256 337 256c42.338 0 78.501-38.856 81.959-86.85C422.591 118.852 386.428 80 337 80m0 32c30.85 0 52.336 23.083 50.042 54.847C384.724 199.019 361.474 224 337 224c-24.493 0-47.764-24.988-50.04-57.13C284.672 134.598 305.865 112 337 112m0 176c-77.135 0-142.346 40.408-159.066 107.543C173.399 413.728 185.868 432 205.18 432h263.65c19.302 0 31.724-18.238 27.258-36.409-8.543-34.852-29.776-62.723-60.379-81.535C407.853 296.932 373.207 288 337 288m0 32c30.525 0 59.372 7.437 81.951 21.317l.707.437c22.063 13.773 37.331 33.208 44.309 57.541l.199.705H209.863l.376-1.283C224.869 350.086 275.273 320 337 320M79.04 187.069C76.035 144.585 106.492 112 148 112c41.336 0 71.989 33.041 68.959 75.09C214.08 227.047 183.594 260 148 260c-35.611 0-66.13-32.968-68.96-72.931m106.002-2.279C186.738 161.25 170.735 144 148 144c-22.969 0-38.733 16.866-37.04 40.81C112.669 208.953 130.302 228 148 228c17.681 0 35.301-19.045 37.042-43.21m28.623 106.664c-19.387-8.882-41.07-12.904-65.665-12.904-62.932 0-116.416 33.129-130.175 88.33C13.742 383.361 25.105 400 42.72 400H155l.315-.003C164.006 399.829 171 392.731 171 384l-.003-.315C170.829 374.994 163.732 368 155 368H50.853l.113-.324C63.508 332.375 101.531 310.55 148 310.55c20.28 0 37.482 3.191 52.336 9.996l.302.135c7.968 3.457 17.273-.083 20.908-8.016 3.681-8.034.152-17.53-7.881-21.211" clip-rule="evenodd"/></svg>