<svg xmlns="http://www.w3.org/2000/svg" width="512" height="512" fill="none"><path fill="currentColor" fill-rule="evenodd" d="M280 230.16c15.56 16.66 35.44 25.84 56 25.84 20.57 0 40.44-9.18 55.96-25.85 15.1-16.23 24.33-37.89 26-61 1.74-24.41-5.79-47.01-21.26-63.63C381.38 89.06 359.83 80 336 80c-24 0-45.49 8.9-60.86 25.4s-22.88 39.14-21.14 63.76c1.63 23.08 10.87 44.75 26 61M204.18 432h263.65a27.68 27.68 0 0 0 21.94-10.62 30.27 30.27 0 0 0 5.32-25.78c-8.38-34.22-29.27-62.42-60.38-81.55C407 297 372.85 288 336 288c-36.14 0-71.21 9.4-98.76 26.46-31.04 19.23-51.9 47.27-60.32 81.08a30.22 30.22 0 0 0 5.26 25.79 27.71 27.71 0 0 0 22 10.67M147 260c-35.19 0-66.13-32.72-69-72.93-1.42-20.6 5-39.65 18-53.62 12.86-13.83 31-21.45 51-21.45s38 7.66 50.93 21.57c13.1 14.08 19.5 33.09 18 53.52-2.87 40.2-33.8 72.91-68.93 72.91m.01 18.55c25.23 0 48.06 4.3 65.65 12.9 2.05 1 3.85 1.97 5.42 2.89a7.998 7.998 0 0 1 .63 13.39c-29.36 20.98-49.23 49.76-57.71 83.82-.16.62-.3 1.25-.41 1.88a8 8 0 0 1-7.87 6.57h-111a25.32 25.32 0 0 1-20.09-9.76 27.39 27.39 0 0 1-4.79-23.36c6.93-27.83 24.09-50.88 49.6-66.71 22.5-13.94 51.11-21.62 80.57-21.62" clip-rule="evenodd"/></svg>