<svg xmlns="http://www.w3.org/2000/svg" width="512" height="512" fill="none"><path fill="currentColor" d="M333 256c41.369 0 77.919-38.955 81.5-86.844 1.779-24.058-5.767-46.494-21.252-63.163C377.927 89.529 356.51 80.462 333 80.462c-23.697 0-45.13 9.012-60.341 25.375-15.383 16.543-22.883 39.026-21.159 63.303C255.019 217.037 291.561 256 333 256M495.514 400.004c-6.614-36.69-27.263-67.511-59.706-89.14-28.815-19.208-65.326-29.787-102.808-29.787s-73.992 10.579-102.807 29.779c-32.443 21.629-53.093 52.45-59.707 89.141-1.512 8.408.541 16.723 5.635 22.812a24.25 24.25 0 0 0 18.956 8.73h275.846a24.25 24.25 0 0 0 18.973-8.722c5.078-6.089 7.131-14.404 5.618-22.813"/><path fill="currentColor" fill-rule="evenodd" d="M118.5 195.39c-20.22 0-36.61 16.391-36.61 36.61s16.39 36.61 36.61 36.61 36.61-16.391 36.61-36.61c-.06-20.194-16.416-36.55-36.61-36.61M197.541 232a76 76 0 0 1-.75 10.223l22.282 17.445a5.304 5.304 0 0 1 1.203 6.764l-21.078 36.39a5.326 5.326 0 0 1-6.471 2.256l-26.199-10.525a80.8 80.8 0 0 1-17.765 10.374l-3.917 27.815a5.46 5.46 0 0 1-5.268 4.512H97.422a5.49 5.49 0 0 1-5.268-4.361l-3.917-27.815a77.5 77.5 0 0 1-17.765-10.383l-26.2 10.525a5.33 5.33 0 0 1-6.47-2.251l-21.078-36.386a5.304 5.304 0 0 1 1.203-6.764l22.282-17.445A80 80 0 0 1 39.46 232c.019-3.421.27-6.837.75-10.224l-22.282-17.444a5.304 5.304 0 0 1-1.203-6.764l21.078-36.391a5.33 5.33 0 0 1 6.47-2.256l26.2 10.526a80.8 80.8 0 0 1 17.765-10.375l3.917-27.814a5.46 5.46 0 0 1 5.268-4.513h42.156a5.49 5.49 0 0 1 5.268 4.362l3.917 27.814a77.5 77.5 0 0 1 17.788 10.384l26.176-10.526a5.33 5.33 0 0 1 6.471 2.252l21.078 36.39a5.304 5.304 0 0 1-1.203 6.764l-22.282 17.445a80 80 0 0 1 .75 10.37" clip-rule="evenodd"/></svg>