<svg xmlns="http://www.w3.org/2000/svg" width="512" height="512" fill="none"><path fill="currentColor" fill-rule="evenodd" d="M48 256c0 114.69 93.31 208 208 208s208-93.31 208-208S370.69 48 256 48 48 141.31 48 256m32 0c0-97 79-176 176-176 97.05 0 176 78.95 176 176 0 31.319-8.227 60.752-22.631 86.256a51 51 0 0 0-2.219-1.436c-23.46-14.33-52.32-21.91-83.48-21.91-30.57 0-60.23 7.9-83.53 22.25-26.25 16.17-43.89 39.75-51 68.18a104 104 0 0 0-1.803 8.698 176 176 0 0 1-24.621-12.87q.42-1.907.914-3.798c7.07-28.21 22.12-51.73 45.47-70.75a8 8 0 0 0-2.59-13.77c-12-3.83-25.7-5.88-42.69-5.88-23.735 0-48.929 6.404-67.936 18.044C85.688 306.758 80 282.027 80 256m243.67 36c-17.4 0-34.21-7.72-47.34-21.73a83.76 83.76 0 0 1-22-51.32c-1.47-20.7 4.88-39.75 17.88-53.62S303.38 144 323.67 144c20.14 0 38.37 7.62 51.33 21.46s19.47 33 18 53.51a84 84 0 0 1-22 51.3C357.86 284.28 341.06 292 323.67 292m-218.18-57.97c2.4 33.82 28.57 61.33 58.33 61.33 29.71 0 55.87-27.5 58.31-61.27 1.25-17.18-4.3-33.3-15.25-45s-26.14-18.14-43.07-18.14-32.13 6.25-43.15 18-16.4 27.76-15.17 45.08" clip-rule="evenodd"/></svg>