<svg xmlns="http://www.w3.org/2000/svg" width="512" height="512" fill="none"><path fill="currentColor" fill-rule="evenodd" d="M257 32c30 0 57.18 11.57 76.64 32.58 19.7 21.27 29.3 49.9 27.03 80.6C356.16 206.29 309.73 256 257 256s-99.24-49.72-103.68-110.84c-2.24-30.98 7.3-59.67 26.88-80.78C199.57 43.5 226.84 32 257 32M56.8 468.87A31 31 0 0 0 81 480h352a31 31 0 0 0 24.2-11.14c6.5-7.77 9.12-18.38 7.18-29.11-8.44-46.82-34.78-86.15-76.18-113.75-36.78-24.5-83.37-38-131.2-38s-94.42 13.49-131.2 38c-41.4 27.61-67.74 66.94-76.18 113.76-1.94 10.73.68 21.34 7.18 29.11" clip-rule="evenodd"/></svg>