<svg xmlns="http://www.w3.org/2000/svg" width="512" height="512" fill="none"><path fill="currentColor" fill-rule="evenodd" d="M259.9 48C142.92 46.42 47.42 141.92 49 258.9c1.56 112.19 92.91 203.54 205.1 205.1 117 1.6 212.48-93.9 210.88-210.88C463.44 140.91 372.09 49.56 259.9 48m126.42 327.25a4 4 0 0 1-6.14-.32 124.3 124.3 0 0 0-32.35-29.59C322.37 329 290.11 320 257 320s-65.37 9-90.83 25.34a124.3 124.3 0 0 0-32.35 29.58 4.003 4.003 0 0 1-6.14.32A175.32 175.32 0 0 1 81 259c-1.63-97.31 78.22-178.76 175.57-179S433 158.81 433 256a175.32 175.32 0 0 1-46.68 119.25M206.78 164.82C219.45 151.39 237.28 144 257 144c19.59 0 37.39 7.44 50.11 20.94 12.88 13.68 19.16 32.08 17.68 51.82C321.83 256 291.48 288 257 288s-64.89-32-67.79-71.25c-1.43-19.93 4.9-38.5 17.57-51.93" clip-rule="evenodd"/></svg>