<svg xmlns="http://www.w3.org/2000/svg" width="512" height="512" fill="none"><path fill="currentColor" fill-rule="evenodd" d="M288 32c-62.802 0-108.595 49.4-103.958 113.161C188.447 205.665 234.813 256 288 256c53.159 0 99.47-50.306 103.956-110.817C396.628 82.113 350.509 32 288 32m0 32c43.838 0 75.346 34.237 72.044 78.818C356.723 187.602 323.216 224 288 224c-35.243 0-68.784-36.412-72.042-81.162C212.667 97.594 243.809 64 288 64m0 224c-47.42 0-94.124 13.303-131.192 38.012-40.516 27.007-67.608 66.141-76.194 113.748-3.778 20.627 9.67 40.24 31.396 40.24H464c21.715 0 35.123-19.58 31.396-40.241-8.592-47.607-35.686-86.741-76.203-113.748C382.124 301.303 335.42 288 288 288m0 32c41.276 0 81.792 11.541 113.445 32.639 33.504 22.332 55.466 54.053 62.459 92.803l.04.243c.141.958.063 1.752-.102 2.26l-.02.055H112.174l-.03-.087c-.168-.543-.235-1.399-.046-2.431 6.996-38.791 28.956-70.512 62.459-92.844C206.208 331.541 246.724 320 288 320M88 160c8.731 0 15.829 6.994 15.997 15.685L104 176v40h40c8.837 0 16 7.163 16 16 0 8.731-6.994 15.829-15.685 15.997L144 248h-40v40c0 8.837-7.163 16-16 16-8.731 0-15.83-6.994-15.997-15.685L72 288v-40H32c-8.837 0-16-7.163-16-16 0-8.731 6.994-15.829 15.685-15.997L32 216h40v-40c0-8.837 7.163-16 16-16" clip-rule="evenodd"/></svg>