<svg xmlns="http://www.w3.org/2000/svg" width="512" height="512" fill="none"><path fill="currentColor" fill-rule="evenodd" d="M256 32c-62.802 0-108.595 49.4-103.958 113.161C156.447 205.665 202.813 256 256 256c53.159 0 99.47-50.306 103.956-110.817C364.628 82.113 318.509 32 256 32m0 32c43.838 0 75.346 34.237 72.044 78.818C324.723 187.602 291.216 224 256 224c-35.243 0-68.784-36.412-72.042-81.162C180.667 97.594 211.809 64 256 64m0 224c-47.421 0-94.124 13.303-131.192 38.012C84.292 353.019 57.2 392.153 48.614 439.76 44.888 460.417 58.291 480 80 480h352c21.715 0 35.123-19.58 31.396-40.241-8.592-47.607-35.686-86.741-76.203-113.748C350.124 301.303 303.42 288 256 288m0 32c41.276 0 81.792 11.541 113.445 32.639 33.504 22.332 55.466 54.053 62.459 92.803l.04.243c.141.958.063 1.752-.102 2.26l-.02.055H80.187l-.019-.052c-.18-.553-.255-1.439-.062-2.507 6.988-38.75 28.948-70.471 62.451-92.803C174.208 331.541 214.723 320 256 320" clip-rule="evenodd"/></svg>