<svg xmlns="http://www.w3.org/2000/svg" width="512" height="512" fill="none"><path fill="currentColor" fill-rule="evenodd" d="M184.042 145.161C179.405 81.399 225.198 32 288 32c62.509 0 108.628 50.113 103.956 113.183C387.47 205.694 341.159 256 288 256c-53.187 0-99.553-50.335-103.958-110.839m176.002-2.343C363.346 98.237 331.838 64 288 64c-44.191 0-75.333 33.594-72.042 78.838C219.216 187.588 252.757 224 288 224c35.216 0 68.723-36.398 72.044-81.182M156.808 326.012C193.876 301.303 240.58 288 288 288s94.124 13.303 131.193 38.011c40.517 27.007 67.611 66.141 76.203 113.748C499.123 460.42 485.715 480 464 480H112.01c-21.726 0-35.174-19.613-31.396-40.24 8.586-47.607 35.678-86.741 76.194-113.748m244.637 26.627C369.792 331.541 329.276 320 288 320s-81.792 11.541-113.443 32.638c-33.503 22.332-55.463 54.053-62.459 92.844-.189 1.032-.122 1.888.046 2.431l.03.087h351.648l.02-.055c.165-.508.243-1.302.102-2.26l-.04-.243c-6.993-38.75-28.955-70.471-62.459-92.803M160 232c0-8.837-7.163-16-16-16H32l-.315.003C22.994 216.171 16 223.269 16 232c0 8.837 7.163 16 16 16h112l.315-.003C153.006 247.829 160 240.731 160 232" clip-rule="evenodd"/></svg>