<svg xmlns="http://www.w3.org/2000/svg" width="513" height="512" fill="none"><path fill="currentColor" d="M470.848 462.169h-14.145c-2.036-9.718-8.27-18.066-16.956-22.185-6.277-2.975-12.38-3.137-16.888-2.563-2.374-7.979-7.853-14.464-15.273-17.982-7.01-3.324-13.774-2.973-18.506-1.954-.213-1.549 0-73.566 0-73.566l21.65-21.65h18.182c23.561 0 42.729-19.168 42.729-42.728v-17.414c0-5.455-4.439-9.894-9.895-9.894h-17.413c-23.561 0-42.729 19.168-42.729 42.729v18.181l-12.524 12.524v-73.916l12.855-12.854c16.659-16.66 16.659-43.768-.001-60.427l-12.313-12.313a9.83 9.83 0 0 0-6.997-2.898 9.82 9.82 0 0 0-6.995 2.898l-12.314 12.313c-16.659 16.66-16.659 43.768 0 60.427l12.859 12.859v112.533l-12.431-12.431v-26.592c0-31.629-25.731-57.359-57.359-57.359h-25.825c-5.455 0-9.894 4.438-9.894 9.894v25.825c0 31.628 25.731 57.359 57.36 57.359h26.591l21.558 21.558v23.441c-9.864-9.097-24.849-18.663-45.199-20.247-.393-.031-4.005-.288-9.566.106a6.453 6.453 0 0 0-5.979 6.894c.253 3.555 3.342 6.22 6.894 5.979 4.691-.335 7.617-.116 7.648-.112 26.25 2.041 41.915 20.367 47.433 28.151 2.729 3.851 7.757 5.469 12.228 3.942 3.066-1.049 7.714-1.832 12.423.402 4.36 2.069 7.628 6.245 8.739 11.17 1.272 5.639 6.766 9.209 12.499 8.142 2.721-.51 6.826-.708 10.924 1.234 4.253 2.018 7.499 5.865 9.133 10.524h-201.95c.644-3.847 2.671-7.297 5.653-9.232 3.086-2.003 6.477-2.096 8.78-1.814 5.491.657 10.657-3.089 11.77-8.536 1.576-7.708 4.585-14.694 8.944-20.766 4.88-6.796 11.34-12.228 19.201-16.143a6.453 6.453 0 1 0-5.754-11.553c-9.762 4.862-17.813 11.648-23.931 20.169-5.069 7.06-8.662 15.073-10.697 23.843a28 28 0 0 0-3.893.071c-2.195-8.212-7.751-15.098-15.492-18.771-8.101-3.839-15.888-2.774-20.587-1.435-8.026-10.847-29.241-32.526-60.132-32.377v-40.894l21.601-21.602h18.182c23.561 0 42.729-19.167 42.729-42.728v-17.414c0-5.455-4.439-9.894-9.894-9.894h-17.414c-23.561 0-42.728 19.168-42.728 42.729v18.182l-12.476 12.476v-97.897l21.601-21.602h18.182c23.561 0 42.729-19.168 42.729-42.728v-17.414c0-5.455-4.439-9.894-9.894-9.894h-17.414c-23.561 0-42.728 19.168-42.728 42.729v18.182l-12.476 12.476v-85.838l12.855-12.855c16.659-16.66 16.659-43.768-.001-60.427l-12.312-12.314A9.83 9.83 0 0 0 148.808 36a9.82 9.82 0 0 0-6.995 2.898L129.499 51.21c-16.659 16.66-16.659 43.768 0 60.427l12.858 12.859v124.554l-12.479-12.48v-26.592c0-8.721-1.909-17.098-5.673-24.899a6.454 6.454 0 0 0-11.624 5.608c2.914 6.038 4.392 12.528 4.392 19.29v13.687l-25.265-25.263a6.453 6.453 0 0 0-9.125 9.125l25.265 25.265H94.16c-24.512 0-44.454-19.942-44.454-44.454v-22.814H72.52c7.956 0 15.76 2.125 22.567 6.146a6.452 6.452 0 1 0 6.561-11.113 57.3 57.3 0 0 0-29.129-7.938H46.695c-5.456 0-9.894 4.438-9.894 9.894v25.825c0 31.628 25.73 57.359 57.359 57.359h26.593l21.605 21.605v110.795l-8.151-8.151v-22.607c0-27.811-22.625-50.437-50.436-50.437H61.925c-5.456 0-9.894 4.438-9.894 9.894v21.845c0 27.811 22.626 50.437 50.437 50.437h22.618l9.212 9.212c-13.102 3.279-28.677 10.463-39.838 26.005-5.054 7.041-8.645 15.044-10.693 23.838-4.276-.216-9.91.453-15.341 3.978-6.65 4.315-10.867 11.86-11.62 20.056H43.254a6.45 6.45 0 0 0-6.452 6.453 6.45 6.45 0 0 0 6.452 6.453h427.595a6.452 6.452 0 1 0 0-12.904M414.51 294.961c0-16.445 13.378-29.824 29.823-29.824h14.402v14.403c0 16.444-13.378 29.823-29.823 29.823h-5.277l13.018-13.018a6.453 6.453 0 0 0-9.125-9.126l-13.018 13.018zm-63.671 43.992-25.264-25.264a6.455 6.455 0 0 0-9.126 0 6.455 6.455 0 0 0 0 9.126l25.265 25.264h-13.688c-24.512 0-44.454-19.942-44.454-44.454v-22.814h22.814c24.511 0 44.453 19.942 44.453 44.454zm31.786-130.313a6.453 6.453 0 0 0-6.453 6.452v18.41l-3.731-3.731c-11.628-11.629-11.628-30.549-.001-42.176l10.185-10.184 10.184 10.184c11.629 11.628 11.629 30.548.001 42.176l-3.732 3.732v-18.411a6.45 6.45 0 0 0-6.453-6.452m-201.981 87.181c0-16.445 13.378-29.823 29.823-29.823h14.402V280.4c0 16.445-13.378 29.823-29.823 29.823h-5.276l13.018-13.018a6.453 6.453 0 0 0-9.126-9.125l-13.018 13.018zm0-116.147c0-16.445 13.378-29.825 29.823-29.825h14.402v14.403c0 16.445-13.378 29.823-29.823 29.823h-5.276l13.018-13.018a6.453 6.453 0 0 0-9.126-9.125l-13.018 13.018zm-59.342 177.373-20.331-20.331a6.453 6.453 0 0 0-9.126 9.126l20.331 20.331h-9.708c-20.696 0-37.532-16.836-37.532-37.532v-18.833h18.835c20.695 0 37.531 16.836 37.531 37.532zm21.054-269.213v18.41l-3.732-3.731c-11.628-11.629-11.628-30.549-.001-42.176l10.185-10.184 10.184 10.184c11.629 11.628 11.629 30.548 0 42.176l-3.731 3.731v-18.41a6.452 6.452 0 1 0-12.905 0m86.049 374.335h-79.078a6 6 0 0 0-.516-.026c-.175 0-.345.013-.516.026H69.8c.644-3.848 2.671-7.298 5.65-9.231 3.09-2.005 6.486-2.095 8.784-1.818 5.505.656 10.67-3.093 11.765-8.525 1.587-7.725 4.597-14.715 8.944-20.772 18.379-25.594 53.079-23.247 53.425-23.218 26.265 2.044 41.921 20.366 47.44 28.159 2.739 3.851 7.772 5.464 12.218 3.932 3.074-1.046 7.725-1.825 12.427.402 4.597 2.181 7.805 6.468 8.817 11.551-6.209 4.388-10.141 11.652-10.865 19.52"/></svg>