<svg xmlns="http://www.w3.org/2000/svg" width="512" height="512" fill="none"><path fill="currentColor" fill-rule="evenodd" d="M312 0H176c-35.346 0-64 28.654-64 64v384c0 35.346 28.654 64 64 64h160c35.346 0 64-28.654 64-64V64c0-35.346-28.654-64-64-64zm24 32h-17.01l-.045.181c-3.572 13.547-15.804 23.578-30.416 23.815L288 56h-64c-14.845 0-27.33-10.11-30.945-23.819l-.046-.181H176c-17.673 0-32 14.327-32 32v384c0 17.673 14.327 32 32 32h160c17.673 0 32-14.327 32-32V64c0-17.673-14.327-32-32-32" clip-rule="evenodd"/></svg>