<svg xmlns="http://www.w3.org/2000/svg" width="512" height="512" fill="none"><path fill="currentColor" fill-rule="evenodd" d="M336 0H176c-35.346 0-64 28.654-64 64v384c0 35.346 28.654 64 64 64h160c35.346 0 64-28.654 64-64V64c0-35.346-28.654-64-64-64m32 448c0 17.673-14.327 32-32 32H176c-17.673 0-32-14.327-32-32V64c0-17.673 14.327-32 32-32h11.35a7.94 7.94 0 0 1 7.3 4.75A32 32 0 0 0 224 56h64a32 32 0 0 0 29.35-19.25 7.94 7.94 0 0 1 7.3-4.75H336c17.673 0 32 14.327 32 32zM326.47 52.69A11.88 11.88 0 0 1 336 48c8.837 0 16 7.163 16 16v384c0 8.837-7.163 16-16 16H176c-8.837 0-16-7.163-16-16V64c0-8.837 7.163-16 16-16a11.88 11.88 0 0 1 9.53 4.69A48 48 0 0 0 224 72h64a48 48 0 0 0 38.47-19.31" clip-rule="evenodd"/></svg>