<svg xmlns="http://www.w3.org/2000/svg" width="512" height="512" fill="none"><path fill="currentColor" fill-rule="evenodd" d="M0 176v160c0 35.346 28.654 64 64 64h384c35.346 0 64-28.654 64-64V176c0-35.346-28.654-64-64-64H64c-35.346 0-64 28.654-64 64m448-32c17.673 0 32 14.327 32 32v160c0 17.673-14.327 32-32 32H64c-17.673 0-32-14.327-32-32v-11.35a7.94 7.94 0 0 1 4.75-7.3A32 32 0 0 0 56 288v-64a32 32 0 0 0-19.25-29.35 7.94 7.94 0 0 1-4.75-7.3V176c0-17.673 14.327-32 32-32zM52.69 185.53A11.88 11.88 0 0 1 48 176c0-8.837 7.163-16 16-16h384c8.837 0 16 7.163 16 16v160c0 8.837-7.163 16-16 16H64c-8.837 0-16-7.163-16-16a11.88 11.88 0 0 1 4.69-9.53A48 48 0 0 0 72 288v-64a48 48 0 0 0-19.31-38.47" clip-rule="evenodd"/></svg>