<svg xmlns="http://www.w3.org/2000/svg" width="512" height="512" fill="none"><path fill="currentColor" fill-rule="evenodd" d="M0 200v136c0 35.346 28.654 64 64 64h384c35.346 0 64-28.654 64-64V176c0-35.346-28.654-64-64-64H64c-35.346 0-64 28.654-64 64zm32-24v17.009l.181.046c13.547 3.572 23.578 15.804 23.815 30.416L56 224v64c0 14.845-10.11 27.33-23.819 30.945l-.181.045V336c0 17.673 14.327 32 32 32h384c17.673 0 32-14.327 32-32V176c0-17.673-14.327-32-32-32H64c-17.673 0-32 14.327-32 32" clip-rule="evenodd"/></svg>