<svg xmlns="http://www.w3.org/2000/svg" width="512" height="512" fill="none"><path fill="currentColor" fill-rule="evenodd" d="M327.143 160.956c-.103-39.145-31.811-70.853-70.956-70.956h-.343l-1.173.013c-38.634.725-69.712 32.189-69.814 70.943q0 .312.015.623a48 48 0 0 0 .542 5.187 88 88 0 0 0-3.695 2.437c-10.649 7.414-18.873 16.689-24.375 27.556-1.983-3.438-3.512-7.172-4.675-11.297-2.413-8.56-3.312-18.471-3.379-34.206l-.004-1.97c0-6.549-5.309-11.857-11.857-11.857-6.549 0-11.858 5.308-11.858 11.857 0 18.906 1.023 31.078 4.274 42.611 3.618 12.834 9.969 23.581 19.762 32.717a89 89 0 0 0-.321 7.62v35.719h-47.429l-.233.003C95.183 268.08 90 273.34 90 279.811c0 6.548 5.309 11.857 11.857 11.857h47.429v11.761c0 14.038 2.743 27.463 7.72 39.766-9.107 8.146-15.776 15.898-20.812 24.559-7.136 12.272-10.623 26.009-10.623 42.389 0 6.548 5.309 11.857 11.858 11.857 6.548 0 11.857-5.309 11.857-11.857 0-18.981 5.442-31.702 19.454-45.449 19.355 27.445 51.296 45.449 87.26 45.449l.198-.002 1.558-.013c35.277-.577 66.476-18.45 85.503-45.435 14.01 13.748 19.455 26.473 19.455 45.45l.003.233c.124 6.441 5.384 11.624 11.854 11.624 6.549 0 11.858-5.309 11.858-11.857 0-16.377-3.488-30.113-10.623-42.386-5.036-8.663-11.706-16.417-20.814-24.563a105.8 105.8 0 0 0 7.722-39.765v-11.761h47.429l.233-.003c6.441-.124 11.624-5.384 11.624-11.854 0-6.549-5.309-11.858-11.857-11.858h-47.429v-35.719q0-3.193-.19-6.274c9.73-9.187 16.052-20.218 19.657-33.418 3.091-11.317 4.161-23.262 4.242-40.979l.006-2.277c0-6.549-5.309-11.857-11.858-11.857-6.548 0-11.857 5.308-11.857 11.857 0 17.029-.882 27.753-3.409 37.007-1.021 3.739-2.315 7.158-3.934 10.313-5.599-11.979-14.319-21.852-25.88-29.426a84 84 0 0 0-2.706-1.7q.269-2.002.349-4.027.009-.248.009-.497m-19.346 21.296q.209.102.424.195a65 65 0 0 1 8.274 4.569C331.282 196.704 339 211.31 339 232.234v71.195l-.011 1.351a82.2 82.2 0 0 1-8.868 35.861q-.206.37-.383.748c-12.1 23.316-34.945 40.289-61.881 44.188V208.571l-.002-.233c-.124-6.441-5.384-11.624-11.855-11.624-6.549 0-11.857 5.309-11.857 11.857v177.006c-26.902-3.897-49.75-20.84-61.861-44.145a12 12 0 0 0-.426-.832A82.2 82.2 0 0 1 173 303.429v-71.195c0-18.972 7.701-33.427 22.268-43.569 2.754-1.917 5.743-3.669 8.948-5.25q.261-.121.515-.252c13.418-6.498 30.528-10.038 49.811-10.208l1.458-.007c20.675 0 38.3 3.143 51.797 9.304m-4.727-26.971c-2.852-23.136-22.36-41.111-46.134-41.558l-.78-.009h-.281c-24.424.064-44.505 18.584-47.035 42.352 13.654-4.391 29.052-6.68 45.546-6.825l1.614-.007c17.366 0 33.198 1.973 47.07 6.047" clip-rule="evenodd"/><path fill="currentColor" d="M143.592 32c.526.396 1.051.791 1.709 1.055 8.017 3.034 11.829 8.705 10.778 15.96-1.052 7.254-7.23 12.134-15.642 12.266-8.149.132-16.43 0-24.579 0-16.561 0-33.122.132-49.815-.132-3.68 0-4.732 1.055-4.732 4.748a6964 6964 0 0 1 0 74.126c0 9.629-5.783 16.092-14.196 16.223-5.914.132-11.172-3.429-13.538-8.968L32 143.716V44.794c2.366-6.2 6.703-10.552 13.013-12.794zM368.408 32c-.526.396-1.051.791-1.709 1.055-8.017 3.034-11.829 8.705-10.778 15.96 1.052 7.254 7.23 12.134 15.642 12.266 8.149.132 16.43 0 24.579 0 16.561 0 33.122.132 49.815-.132 3.681 0 4.732 1.055 4.732 4.748a6991 6991 0 0 0 0 74.126c0 9.629 5.783 16.092 14.195 16.223 5.915.132 11.173-3.429 13.539-8.968l1.577-3.562V44.794c-2.366-6.2-6.703-10.552-13.012-12.794zM368.408 480c-.526-.396-1.051-.791-1.709-1.055-8.017-3.034-11.829-8.705-10.778-15.96 1.052-7.254 7.23-12.134 15.642-12.266 8.149-.132 16.43 0 24.579 0 16.561 0 33.122-.132 49.815.132 3.681 0 4.732-1.055 4.732-4.748a6991 6991 0 0 1 0-74.126c0-9.629 5.783-16.092 14.195-16.223 5.915-.132 11.173 3.429 13.539 8.969l1.577 3.561v98.922c-2.366 6.199-6.703 10.552-13.012 12.794zM143.592 480c.526-.396 1.051-.791 1.709-1.055 8.017-3.034 11.829-8.705 10.778-15.96-1.052-7.254-7.23-12.134-15.642-12.266-8.149-.132-16.43 0-24.579 0-16.561 0-33.122-.132-49.815.132-3.68 0-4.732-1.055-4.732-4.748.131-24.665.131-49.462 0-74.126 0-9.629-5.783-16.092-14.196-16.223-5.914-.132-11.172 3.429-13.538 8.969L32 368.284v98.922c2.366 6.199 6.703 10.552 13.013 12.794z"/></svg>