<svg xmlns="http://www.w3.org/2000/svg" width="513" height="512" fill="none"><path fill="currentColor" d="M143.389 30c.531.4 1.061.798 1.724 1.065 8.089 3.06 11.935 8.782 10.874 16.102-1.061 7.319-7.293 12.242-15.781 12.375-8.222.133-16.576 0-24.798 0-16.71 0-33.419.133-50.26-.133-3.714 0-4.775 1.065-4.775 4.791.133 24.885.133 49.903 0 74.788 0 9.714-5.834 16.235-14.322 16.368-5.967.133-11.272-3.46-13.659-9.049l-1.591-3.593V42.908C33.188 36.654 37.564 32.262 43.929 30zM370.213 30c-.531.4-1.061.798-1.724 1.065-8.09 3.06-11.936 8.782-10.875 16.102 1.061 7.319 7.294 12.242 15.781 12.375 8.222.133 16.577 0 24.799 0 16.709 0 33.418.133 50.26-.133 3.713 0 4.774 1.065 4.774 4.791a7062 7062 0 0 0 0 74.788c0 9.714 5.835 16.235 14.322 16.368 5.968.133 11.272-3.46 13.659-9.049l1.592-3.593V42.908c-2.387-6.254-6.763-10.646-13.129-12.908zM370.213 482c-.531-.399-1.061-.798-1.724-1.065-8.09-3.06-11.936-8.783-10.875-16.102s7.294-12.242 15.781-12.375c8.222-.134 16.577 0 24.799 0 16.709 0 33.418-.134 50.26.133 3.713 0 4.774-1.065 4.774-4.791a7062 7062 0 0 1 0-74.788c0-9.714 5.835-16.235 14.322-16.368 5.968-.133 11.272 3.46 13.659 9.049l1.592 3.593v99.806c-2.387 6.254-6.763 10.646-13.129 12.908zM143.389 482c.531-.399 1.061-.798 1.724-1.065 8.089-3.06 11.935-8.783 10.874-16.102s-7.293-12.242-15.781-12.375c-8.222-.134-16.576 0-24.798 0-16.71 0-33.419-.134-50.26.133-3.714 0-4.775-1.065-4.775-4.791.133-24.885.133-49.903 0-74.788 0-9.714-5.834-16.235-14.322-16.368-5.967-.133-11.272 3.46-13.659 9.049l-1.591 3.593v99.806c2.387 6.254 6.763 10.646 13.128 12.908z"/><path fill="currentColor" fill-rule="evenodd" d="M315.079 268.737c12.913-17.71 20.122-41.632 15.431-69.885 13.621-3.154 25.071-7.198 33.338-11.933 8.629-4.943 14.765-11.227 14.765-18.814 0-4.161-1.878-7.949-4.904-11.267-3.01-3.3-7.281-6.286-12.469-8.963-9.989-5.155-23.902-9.433-40.343-12.527-8.189-32.383-32.345-58.559-64.475-58.559-32.18 0-56.361 26.257-64.514 58.71-16.221 3.106-29.939 7.373-39.787 12.501-5.117 2.665-9.33 5.634-12.298 8.915-2.984 3.299-4.833 7.062-4.833 11.19 0 7.557 6.089 13.821 14.658 18.752 8.204 4.721 19.568 8.757 33.09 11.913-4.719 28.288 2.491 52.24 15.416 69.967 14.993 20.562 38.019 33.038 58.255 33.121h.008l.38.001h.016c20.239-.079 43.271-12.556 58.266-33.122m-19.634-14.273c-11.339 15.551-27.669 23.145-38.824 23.145h-.008c-11.155 0-27.485-7.594-38.825-23.145-9.011-12.36-14.687-29.613-11.155-51.349 15.281 2.094 32.275 3.26 50.168 3.26 17.753 0 34.62-1.147 49.807-3.211 3.517 21.713-2.158 38.95-11.163 51.3m-82.283-94.316c0-35.639 22.016-59.109 43.26-59.109 21.243 0 43.26 23.47 43.26 59.109 0 6.697 5.437 12.125 12.143 12.125 6.509 0 11.822-5.113 12.129-11.536 3.845.867 7.447 1.801 10.782 2.791 5.137 1.524 9.323 3.087 12.628 4.577-3.305 1.49-7.491 3.053-12.628 4.578-19.033 5.646-46.593 9.442-77.935 9.442s-58.901-3.796-77.934-9.442c-5.138-1.525-9.324-3.088-12.628-4.578 3.304-1.49 7.49-3.053 12.628-4.577a166 166 0 0 1 10.031-2.62c.393 6.342 5.669 11.365 12.12 11.365 6.707 0 12.144-5.428 12.144-12.125M379.346 419.32c9.833 0 18.08-5.057 22.44-12.251 4.393-7.248 4.799-16.633-.979-24.847-32.59-46.333-84.933-76.438-144.006-76.438s-111.416 30.105-144.006 76.438c-5.778 8.214-5.372 17.599-.979 24.847 4.36 7.194 12.607 12.251 22.441 12.251zm-122.545-89.286c50.011 0 94.821 25.202 123.303 64.957a3.4 3.4 0 0 1-.758.079H134.257c-.299 0-.55-.031-.758-.079 28.482-39.755 73.291-64.957 123.302-64.957" clip-rule="evenodd"/></svg>