<svg xmlns="http://www.w3.org/2000/svg" width="512" height="512" fill="none"><path fill="currentColor" fill-rule="evenodd" d="M256 32C132.284 32 32 132.283 32 256a223.3 223.3 0 0 0 19.487 91.537c3.61 8.065 13.075 11.677 21.14 8.067l7.433-3.327C112.187 429.099 187.585 480 272 480c114.837 0 208-93.163 208-208S386.837 64 272 64V48c0-8.837-7.163-16-16-16m16 64v160a16 16 0 0 1-9.463 14.604l-153.258 68.595C136.295 404.609 200.304 448 272 448c97.164 0 176-78.837 176-176S369.164 96 272 96M83.616 315.626 240 245.631V64.659l-2.856.255C139.952 74.387 64 156.321 64 256.024a191.3 191.3 0 0 0 10.476 62.718l.293.844 6.781-3.035a16 16 0 0 1 2.066-.925" clip-rule="evenodd"/></svg>