<svg xmlns="http://www.w3.org/2000/svg" width="512" height="512" fill="none"><path fill="currentColor" fill-rule="evenodd" d="M51.559 347.54a16 16 0 0 0 14.61 9.46 15.9 15.9 0 0 0 6.53-1.44l189.9-84.95a16 16 0 0 0 9.47-14.61V48c0-8.836-7.164-16-16-16-75.948-.023-146.734 38.438-188.04 102.17-41.307 63.732-47.507 144.054-16.47 213.37M307.013 69.82a8 8 0 0 1 6.646-1.64c94.83 19.32 166.41 103.37 166.41 203.82 0 114.69-93.31 208-208 208a206.3 206.3 0 0 1-123.76-40.78 208.4 208.4 0 0 1-48.46-50.41 8 8 0 0 1 3.35-11.81l172.47-77.18a48.07 48.07 0 0 0 28.4-43.82V76a8 8 0 0 1 2.944-6.18" clip-rule="evenodd"/></svg>