<svg xmlns="http://www.w3.org/2000/svg" width="512" height="512" fill="none"><path fill="currentColor" fill-rule="evenodd" d="M176 96c0-44.183 35.817-80 80-80s80 35.817 80 80c0 38.703-27.484 70.987-64 78.4v283.16a32.1 32.1 0 0 1-2.49 12.38l-10.07 24a3.92 3.92 0 0 1-6.88 0l-10.07-24a32.1 32.1 0 0 1-2.49-12.38V174.4c-36.516-7.413-64-39.697-64-78.4m94.135-45.885A48 48 0 0 0 256 48c-26.51 0-48 21.49-48 48s21.49 48 48 48 48-21.49 48-48c0-4.92-.74-9.666-2.115-14.135C298.122 90.2 289.738 96 280 96c-13.255 0-24-10.745-24-24 0-9.739 5.8-18.122 14.135-21.885" clip-rule="evenodd"/></svg>