<svg xmlns="http://www.w3.org/2000/svg" width="512" height="512" fill="none"><path fill="currentColor" fill-rule="evenodd" d="M16 145.52v221c0 25.196 26.071 42.128 47.854 29.074L244.57 287.473v79.047c0 25.196 26.071 42.128 47.854 29.074L481.285 282.6c19.619-11.742 19.619-41.318.002-53.059L292.513 116.599c-21.787-13.248-47.943 3.672-47.943 28.921v79.147L63.949 116.603C42.169 103.347 16 120.271 16 145.52m32.171-1.068L234.73 256.069 48.193 367.673l-.022-.052c-.102-.267-.171-.63-.171-1.101v-221c0-.423.058-.76.157-1.029zm228.569 0L463.3 256.069 276.763 367.673l-.022-.052c-.102-.267-.171-.63-.171-1.101v-221c0-.424.059-.762.157-1.032z" clip-rule="evenodd"/></svg>