<svg xmlns="http://www.w3.org/2000/svg" width="512" height="512" fill="none"><path fill="currentColor" fill-rule="evenodd" d="M256 48C141.163 48 48 141.163 48 256s93.163 208 208 208 208-93.163 208-208S370.837 48 256 48m0 32c97.163 0 176 78.837 176 176s-78.837 176-176 176S80 353.163 80 256 158.837 80 256 80m-24.32 97.56L117.23 246.7a10.89 10.89 0 0 0 0 18.6l114.45 69.14a10.781 10.781 0 0 0 16.32-9.31v-53.32l103.68 62.63a10.781 10.781 0 0 0 16.32-9.31V186.87a10.778 10.778 0 0 0-16.32-9.31L248 240.19v-53.32a10.778 10.778 0 0 0-16.32-9.31" clip-rule="evenodd"/></svg>