<svg xmlns="http://www.w3.org/2000/svg" width="512" height="512" fill="none"><path fill="currentColor" fill-rule="evenodd" d="M256 48C141.163 48 48 141.163 48 256s93.163 208 208 208 208-93.163 208-208S370.837 48 256 48m0 32c97.163 0 176 78.837 176 176s-78.837 176-176 176S80 353.163 80 256 158.837 80 256 80m48 112c0-8.837 7.163-16 16-16s16 7.163 16 16v128c0 8.837-7.163 16-16 16s-16-7.163-16-16v-53l-111.68 67.44a10.781 10.781 0 0 1-16.32-9.31V186.87a10.778 10.778 0 0 1 16.32-9.31L304 245z" clip-rule="evenodd"/></svg>