<svg xmlns="http://www.w3.org/2000/svg" width="512" height="512" fill="none"><path fill="currentColor" fill-rule="evenodd" d="M415.997 79.685C415.829 70.994 408.731 64 400 64c-8.837 0-16 7.163-16 16v136.434L151.217 77.111C126.055 62.086 96 81.647 96 111v290c0 29.353 30.055 48.914 55.203 33.897L384 295.566V432l.003.315C384.171 441.006 391.269 448 400 448c8.837 0 16-7.163 16-16V80zm-281.2 24.892 247.886 148.362c1.742 1.042 1.742 5.08.003 6.12L134.783 407.431c-2.826 1.687-6.783-.888-6.783-6.431V111c0-5.543 3.957-8.118 6.797-6.423" clip-rule="evenodd"/></svg>