<svg xmlns="http://www.w3.org/2000/svg" width="512" height="512" fill="none"><path fill="currentColor" fill-rule="evenodd" d="M128.997 79.685C128.83 70.994 121.732 64 113 64c-8.836 0-16 7.163-16 16v352l.003.315C97.171 441.006 104.27 448 113 448c8.837 0 16-7.163 16-16V295.572l232.784 139.317C386.945 449.914 417 430.353 417 401V111c0-29.353-30.055-48.914-55.203-33.897L129 216.428V80zM385 111v290c0 5.543-3.957 8.118-6.797 6.423L130.307 259.061c-1.741-1.042-1.741-5.08-.003-6.12l247.913-148.372c2.826-1.687 6.783.888 6.783 6.431" clip-rule="evenodd"/></svg>