<svg xmlns="http://www.w3.org/2000/svg" width="512" height="512" fill="none"><path fill="currentColor" fill-rule="evenodd" d="M267.43 287.465v79.114c0 25.196-26.071 42.128-47.849 29.078L30.713 282.588c-19.618-11.741-19.618-41.317.002-53.059l188.838-112.981c21.79-13.107 47.877 3.819 47.877 29.031v79.077l180.687-108.104C469.899 103.437 496 120.367 496 145.579v221c0 25.196-26.071 42.128-47.849 29.078zm196.386-143.017.014.034c.101.265.17.626.17 1.097v221l-.004.195c-.017.378-.08.677-.167.906l-.023.052-186.538-111.673zm-228.58.007.036.089c.099.272.158.61.158 1.035v221l-.004.195c-.017.378-.08.677-.167.906l-.023.052L48.698 256.059z" clip-rule="evenodd"/></svg>