<svg xmlns="http://www.w3.org/2000/svg" width="512" height="512" fill="none"><path fill="currentColor" fill-rule="evenodd" d="M234 250c0 12.15 9.85 22 22 22s22-9.85 22-22V70c0-12.15-9.85-22-22-22s-22 9.85-22 22zm-186 5.65C48 370.53 141.31 464 256 464s208-93.47 208-208.35a207.88 207.88 0 0 0-75.83-160.57 22 22 0 1 0-28 33.92A164 164 0 0 1 420 255.65C420 346.27 346.43 420 256 420S92 346.27 92 255.65c0-49.35 21.48-95.55 58.93-126.75a22.001 22.001 0 1 0-28.17-33.8C75.25 134.65 48 193.2 48 255.65" clip-rule="evenodd"/></svg>