<svg xmlns="http://www.w3.org/2000/svg" width="512" height="512" fill="none"><path fill="currentColor" fill-rule="evenodd" d="M271.999 63.685C271.831 54.994 264.733 48 256.002 48c-8.837 0-16 7.163-16 16v192l.003.315c.167 8.691 7.265 15.685 15.997 15.685 8.836 0 16-7.163 16-16V64zM388.15 95.63c-6.831-5.604-16.913-4.61-22.518 2.221s-4.61 16.914 2.221 22.518a175.41 175.41 0 0 1 64.149 135.629c0 97.165-78.837 176.002-176 176.002-97.164 0-176.001-78.837-176.001-176-.155-52.429 23.029-102.158 63.251-135.714 6.785-5.661 7.696-15.751 2.035-22.536s-15.75-7.697-22.535-2.036a208 208 0 0 0-74.751 160.333C48 370.836 141.165 464 256.002 464c114.836 0 208-93.163 208-208A207.4 207.4 0 0 0 388.15 95.63" clip-rule="evenodd"/></svg>