<svg xmlns="http://www.w3.org/2000/svg" width="512" height="512" fill="none"><path fill="currentColor" fill-rule="evenodd" d="M252.034 32.518c-5.638 1.515-10.061 5.998-11.548 11.705-.381 1.462-.498 3.998-.498 10.835v8.925l-83.312.097-83.312.096-3.002.703c-9.998 2.338-17.543 6.447-24.368 13.267-7.017 7.012-11.38 15.176-13.392 25.06-.573 2.817-.602 8.224-.602 112.969v110.011l.753 3.396c2.156 9.731 6.301 17.333 13.247 24.295 6.79 6.807 14.478 11 24.27 13.234 2.972.679 4.063.711 27.696.825 13.531.066 24.601.188 24.601.272s-5.937 20.891-13.193 46.239c-9.336 32.611-13.249 46.768-13.384 48.419-.625 7.618 4.499 14.684 12.081 16.658 6.969 1.814 14.734-1.711 17.944-8.145.745-1.495 5.625-18.057 15.546-52.767l14.46-50.589h83.967v24.933c0 21.025.078 25.231.498 26.841 1.507 5.781 5.938 10.224 11.692 11.722 8.371 2.179 17.091-3.107 19.336-11.722.42-1.61.498-5.816.498-26.841v-24.933h83.967l14.46 50.589c9.9 34.634 14.801 51.271 15.542 52.755 3.222 6.451 10.971 9.973 17.948 8.157 7.582-1.974 12.706-9.039 12.081-16.658-.135-1.651-4.048-15.808-13.384-48.419-7.256-25.348-13.193-46.155-13.193-46.239s11.071-.206 24.601-.272c23.919-.116 24.692-.14 27.837-.853 9.665-2.191 17.231-6.333 24.141-13.217 6.995-6.97 11.371-15.16 13.386-25.055.573-2.817.602-8.224.602-112.969V105.831l-.753-3.396c-2.156-9.73-6.293-17.313-13.253-24.29-6.794-6.81-14.394-10.961-24.263-13.25l-3.095-.719-83.312-.096-83.312-.097v-8.925c0-6.837-.117-9.373-.498-10.835-2.252-8.64-11.1-13.958-19.48-11.705m183.869 63.976c5.785 1.506 10.23 5.935 11.729 11.685.454 1.739.511 13.84.511 107.829 0 93.99-.057 106.091-.511 107.83-1.499 5.75-5.944 10.179-11.729 11.685-1.682.438-23.206.497-179.903.497s-178.22-.059-179.903-.497c-5.784-1.506-10.23-5.935-11.73-11.685-.453-1.739-.51-13.84-.51-107.83 0-92.768.062-106.106.498-107.779 1.487-5.707 5.91-10.19 11.548-11.705 1.559-.42 25.48-.486 179.944-.505 156.881-.02 178.373.037 180.056.475m-295.656 47.202c-1.867.846-2.862 1.759-3.785 3.472l-.718 1.334-.102 68.007c-.073 48.473.003 68.496.264 69.713.447 2.081 2.222 4.287 4.156 5.165 1.17.531 2.255.614 8.024.614 5.765 0 6.853-.083 8.006-.611 1.515-.695 2.973-2.056 3.784-3.534.509-.927.56-6.467.639-69.633.062-49.204-.017-69.017-.281-70.007-.468-1.756-3.078-4.36-4.868-4.857-.701-.195-4.052-.351-7.446-.348-5.492.004-6.337.08-7.673.685m192.81 5.331c-17.618 2.139-33.86 10.888-45.099 24.291-8.201 9.781-13.205 20.716-15.501 33.871-.814 4.662-.814 16.644 0 21.306 1.14 6.532 3.307 13.738 5.335 17.736 1.598 3.151 4.302 4.859 7.782 4.915l2.054.033 1.086 2c3.869 7.123 10.363 14.867 16.489 19.662 12.502 9.785 27.283 14.656 42.699 14.07 9.401-.358 17.204-2.27 25.47-6.244 22.557-10.844 36.737-33.293 36.737-58.158 0-21.833-10.766-41.76-29.154-53.961-7.737-5.134-18.261-9.062-26.882-10.033-4.555-.513-4.213-.328-4.644-2.517-.501-2.542-2.074-4.864-4.169-6.153-1.571-.966-1.816-1.012-5.671-1.066-2.216-.031-5.156.081-6.532.248m4.67 38.902v26.259l-23.635 10.57c-13 5.813-23.862 10.656-24.137 10.762-.398.152-.714-.62-1.527-3.743-2.39-9.171-2.61-17.548-.693-26.401 3.809-17.594 16.184-32.582 32.626-39.515 5.423-2.287 12.23-4.06 15.949-4.155l1.417-.036zM211.3 168.018c-2.169.45-3.984 1.864-5.076 3.954l-.936 1.79.087 56.569.087 56.57 1.006 1.626c.733 1.184 1.492 1.879 2.791 2.558 1.779.928 1.802.931 8.428.931 7.233 0 8.236-.193 10.073-1.935.521-.494 1.271-1.499 1.668-2.232l.719-1.334.09-55.505c.061-38.167-.022-56.039-.266-57.213-.423-2.041-2.086-4.146-4.112-5.205-1.243-.649-1.973-.73-7.22-.803-3.211-.045-6.513.058-7.339.229m145.916 3.677c6.779 1.371 13.672 4.354 19.448 8.417 3.888 2.734 9.761 8.657 12.358 12.463 3.805 5.574 6.797 12.495 8.256 19.1.82 3.712 1.028 13.584.374 17.835-1.741 11.328-7.037 21.469-15.369 29.43-6.89 6.582-15.272 10.97-25.121 13.148-4.433.981-15.044 1.059-19.589.146-15.714-3.16-28.75-12.839-35.894-26.651-1.129-2.182-1.923-4.077-1.766-4.211s9.819-4.493 21.469-9.685 21.893-9.796 22.762-10.229c1.119-.559 1.775-1.172 2.251-2.106.656-1.284.673-1.913.673-25.049V170.57l3.393.223c1.867.122 4.907.528 6.755.902m-182.631 31.896c-1.185.6-2.156 1.415-2.812 2.362l-1.003 1.445-.099 39.225c-.065 25.921.017 39.621.241 40.392.486 1.671 2.101 3.472 3.848 4.293 1.374.645 2.075.708 7.932.706 3.534-.001 6.95-.148 7.592-.326 1.667-.464 3.472-2.074 4.301-3.837l.714-1.518-.089-39.463-.089-39.464-1.046-1.449c-.631-.873-1.741-1.814-2.79-2.366-1.731-.91-1.791-.917-8.318-.917-6.51 0-6.591.009-8.382.917m-68.443 29.227c-2.454.875-4.1 2.503-4.878 4.826-.269.805-.379 8.014-.379 24.881v23.748l.932 1.783c.678 1.297 1.375 2.057 2.558 2.788l1.625 1.005 6.699.107c4.276.069 7.154-.027 7.956-.265 1.601-.474 3.415-2.063 4.351-3.81.729-1.363.731-1.418.825-24.512.066-16.32-.018-23.685-.285-24.97-.514-2.479-2.678-4.841-5.087-5.557-2.229-.661-12.482-.679-14.317-.024" clip-rule="evenodd"/></svg>