<svg xmlns="http://www.w3.org/2000/svg" width="513" height="512" fill="none"><path fill="currentColor" fill-rule="evenodd" d="M448 183.8v-123A44.657 44.657 0 0 0 403.29 16H280.36a30.62 30.62 0 0 0-21.51 8.89L13.09 270.58c-17.45 17.507-17.45 45.833 0 63.34l117 117c17.502 17.456 45.829 17.456 63.33 0l245.69-245.61A30.6 30.6 0 0 0 448 183.8M352 144c-17.673 0-32-14.327-32-32s14.327-32 32-32 32 14.327 32 32a32 32 0 0 1-32 32m128-64c0-8.837 7.164-16 16-16s16 7.163 16 16v128a29.84 29.84 0 0 1-8.69 21.31l-262 262a15.998 15.998 0 0 1-27.089-7.011 16 16 0 0 1 4.469-15.609L480 207.37z" clip-rule="evenodd"/></svg>