<svg xmlns="http://www.w3.org/2000/svg" width="512" height="512" fill="none"><path fill="currentColor" fill-rule="evenodd" d="M435.174 32H312.297a30.47 30.47 0 0 0-21.475 8.847L45.082 286.586c-17.438 17.525-17.438 45.803-.027 63.3l117.028 117.028c17.525 17.439 45.802 17.439 63.3.027L471.01 221.314a30.5 30.5 0 0 0 8.887-21.514v-123c.057-11.815-4.631-23.24-13.026-31.664A44.66 44.66 0 0 0 435.174 32M67.738 309.186 312.924 63.999 435.197 64a12.67 12.67 0 0 1 9.007 3.724l.251.259a12.66 12.66 0 0 1 3.442 8.74v122.449L202.783 444.286c-4.985 4.961-13.087 4.961-18.1-.027L67.71 327.286c-4.96-4.985-4.96-13.087.028-18.1M351.947 128c0 17.673 14.326 32 32 32a32 32 0 0 0 32-32c0-17.673-14.327-32-32-32s-32 14.327-32 32" clip-rule="evenodd"/></svg>