<svg xmlns="http://www.w3.org/2000/svg" width="512" height="512" fill="none"><path fill="currentColor" fill-rule="evenodd" d="M280.356 16h122.902a44.66 44.66 0 0 1 31.708 13.13c8.398 8.425 13.088 19.852 13.031 31.67v123a30.5 30.5 0 0 1-8.889 21.516L193.391 450.943c-17.5 17.411-45.779 17.411-63.308-.029L13.055 333.886c-17.412-17.497-17.412-45.775.03-63.301L258.881 24.847A30.47 30.47 0 0 1 280.356 16m.628 32L35.738 293.185c-4.989 5.013-4.989 13.115-.028 18.1l116.971 116.972c5.017 4.991 13.124 4.991 18.114.026l245.201-245.112.001-122.45a12.66 12.66 0 0 0-3.443-8.74l-.251-.26A12.68 12.68 0 0 0 403.286 48zm71.012 96c-17.673 0-32-14.327-32-32s14.327-32 32-32 32 14.327 32 32a32.001 32.001 0 0 1-32 32m159.997-64.315C511.826 70.994 504.728 64 495.996 64l-.314.003c-8.692.168-15.686 7.266-15.686 15.997v127.372L218.683 468.686l-.257.263c-5.99 6.266-5.905 16.203.257 22.365 6.248 6.248 16.379 6.248 22.627 0l262-262 .348-.357c5.393-5.621 8.368-13.058 8.341-20.784l-.003-.173V80z" clip-rule="evenodd"/></svg>