<svg xmlns="http://www.w3.org/2000/svg" width="512" height="512" fill="none"><path fill="currentColor" fill-rule="evenodd" d="M344.048 48c30.554.091 55.359 24.591 55.942 55.074l.01.926v8h8.048c30.554.091 55.359 24.592 55.942 55.074l.01.926v160.048c-.091 30.554-24.592 55.359-55.074 55.942L408 384h-8v39.68c0 22.268-18.052 40.32-40.32 40.32H152.32c-22.268 0-40.32-18.052-40.32-40.32V384h-8.048c-30.554-.091-55.36-24.592-55.942-55.074L48 328V167.952c.091-30.554 24.591-55.359 55.074-55.942L104 112h8v-8.048c.091-30.554 24.592-55.36 55.074-55.942L168 48zM368 104.048V112H144v-8l.004-.396c.251-13.035 10.912-23.565 24.044-23.604H344l.396.004c13.035.25 23.565 10.912 23.604 24.044M400 352h7.952c13.132-.039 23.793-10.569 24.044-23.604L432 328V168.048c-.039-13.132-10.569-23.793-23.604-24.044L408 144H104.048c-13.132.039-23.793 10.569-24.044 23.604L80 168v159.952c.04 13.132 10.57 23.793 23.604 24.044L104 352h8v-87.68c0-22.268 18.052-40.32 40.32-40.32h207.36c22.268 0 40.32 18.052 40.32 40.32zm-247.68-96h207.36a8.32 8.32 0 0 1 8.32 8.32v159.36a8.32 8.32 0 0 1-8.32 8.32H152.32a8.32 8.32 0 0 1-8.32-8.32V264.32a8.32 8.32 0 0 1 8.32-8.32M416 184c0 13.255-10.745 24-24 24s-24-10.745-24-24 10.745-24 24-24 24 10.745 24 24" clip-rule="evenodd"/></svg>