<svg xmlns="http://www.w3.org/2000/svg" width="512" height="512" fill="none"><path fill="currentColor" fill-rule="evenodd" d="M168 48h176c27.821.041 51.407 20.47 55.42 48H112.58c4.013-27.53 27.599-47.959 55.42-48m-62 64h302c30.928 0 56 25.072 56 56v160c0 30.928-25.072 56-56 56h-8v39.68c0 22.268-18.052 40.32-40.32 40.32H152.32c-22.268 0-40.32-18.052-40.32-40.32V384h-8c-30.928 0-56-25.072-56-56V170c0-32.033 25.968-58 58-58m253.68 320a8.35 8.35 0 0 0 8.32-8.32V264.32a8.35 8.35 0 0 0-8.32-8.32H152.32a8.35 8.35 0 0 0-8.32 8.32v159.36a8.35 8.35 0 0 0 8.32 8.32zM394 207.92a24 24 0 1 1 22-22c-.943 11.737-10.263 21.057-22 22" clip-rule="evenodd"/></svg>