<svg xmlns="http://www.w3.org/2000/svg" width="513" height="512" fill="none"><path fill="currentColor" fill-rule="evenodd" d="M389.246 72.919c-3.416-9.328-8.919-13.164-19.005-13.175h-74.167c-11.997 0-18.912 6.797-18.993 18.655a2419 2419 0 0 0 0 34.501c.081 11.811 6.996 18.655 19.005 18.655h88.578c6.553 0 12.161-2.682 15.379-7.252s3.859-10.645 1.656-16.895c-3.275-9.35-6.699-18.729-10.033-27.862l-.001-.003zm-92.682 7.765a4.2 4.2 0 0 1 .117-1.317 5.1 5.1 0 0 1 1.539-.14c21.407.093 44.504.105 70.622 0 1.842 0 2.11.245 2.577 1.574 3.789 10.995 7.427 21.092 11.1 30.816q.099.22.163.455h-.513c-10.261-.093-20.696-.07-30.782 0h-22.153c-10.097 0-20.521 0-30.781.082a7.7 7.7 0 0 1-1.737-.105 3.5 3.5 0 0 1-.152-1.516c.198-9.153.21-18.877 0-29.849" clip-rule="evenodd"/><path fill="currentColor" fill-rule="evenodd" d="M438.137 132.605v77.058c.011 56.094.023 114.159-.082 171.198a160.55 160.55 0 0 1-26.083 88.205c-5.351 8.302-12.965 12.499-22.643 12.499h-.513c-7.427-.117-13.968-.117-19.984 0a26.048 26.048 0 0 1-20.055-8.348c-2.11-2.216-4.022-4.186-6.063-6.028-2.576-2.332-5.2-2.332-7.788 0-1.891 1.723-3.74 3.618-5.524 5.448l-.224.23-.653.676a25.74 25.74 0 0 1-19.297 7.975 918 918 0 0 0-22.631 0h-.373a25.6 25.6 0 0 1-10.292-1.983 25.6 25.6 0 0 1-8.632-5.945l-1.166-1.166a223 223 0 0 1-1.369-1.384l-.005-.004c-1.267-1.288-2.533-2.574-3.861-3.766-2.6-2.402-5.189-2.402-7.894-.07l-.116.105a5 5 0 0 0-.467.432c-7.124 9.502-16.545 14.166-28.682 14.166a54 54 0 0 1-5.725-.315 71.6 71.6 0 0 0-11.403 0c-8.698.443-16.032-2.53-22.422-9.141-4.419-4.57-7.252-7.357-9.083-7.357-1.807 0-4.57 2.717-8.919 7.182-6.471 6.646-13.945 9.701-22.795 9.328-5.179-.215-10.49-.144-15.646-.076h-.001l-.478.006h-2.507a24.95 24.95 0 0 1-22.445-12.021c-17.302-26.677-26.152-55.29-26.304-85.057-.303-60.77-.221-122.531-.116-182.263v-39.421c.011-15.169 5.655-28.473 16.685-39.526q6.425-6.402 12.825-12.826c1.819-1.815 3.653-3.65 5.499-5.496l.004-.004c5.077-5.078 10.238-10.24 15.368-15.3a5.32 5.32 0 0 0 1.807-4.396V56.817c.012-13.385 5.352-21.127 17.886-25.814l.431-.408.653-.537h70.191l.362.117c13.945 4.71 20.474 14.97 19.401 30.501-.175 2.618-.153 5.308-.131 7.967.007.882.015 1.761.015 2.632.093 3.031.14 6.191 0 9.328q-.078.677 0 1.352a9.7 9.7 0 0 0 1.539-.373 12.35 12.35 0 0 0 8.593-10.785c.186-1.772.186-3.451.186-5.27l.007-.372c.032-2.007.065-4.082.285-6.146 1.271-12.487 8.022-21.465 19.926-26.677q2.118-.901 4.314-1.586l1.889-.618.373-.128h114.264l1.694.596c4.885 1.737 9.967 3.544 14.117 7.344a32.8 32.8 0 0 1 8.884 13.047l6.227 17.105c5.013 13.712 10.19 27.89 15.239 41.881a65.6 65.6 0 0 1 3.708 22.632m-19.554 247.078V133.666c0-4.956-.244-10.191-2.017-15.158-8.5-23.739-15.472-42.989-21.955-60.63-2.017-5.48-6.063-8.208-12.359-8.336H280.604c-6.88.011-11.975 3.45-13.281 8.99a32 32 0 0 0-.536 7.146v1.003c-.128 21.955-13.315 35.072-35.27 35.072h-86.841c-2.262 0-3.346.373-4.512 1.539-9.876 10.051-20.556 20.766-33.603 33.697a36.14 36.14 0 0 0-11.159 26.922v66.646c-.011 49.518-.023 100.727.059 151.085a137.24 137.24 0 0 0 18.002 68.465l.805 1.423.12.211c2.955 5.195 4.598 8.083 6.048 9.233 1.154.91 2.471.968 6.447 1.026l.224.003c1.757.023 3.926.051 6.609.207 11.111.676 18.247-2.04 24.625-9.328a22.37 22.37 0 0 1 16.848-7.555 21.62 21.62 0 0 1 16.323 7.299c6.926 7.952 14.738 10.773 26.141 9.421a7.2 7.2 0 0 1 1.947 0c7.241 1.154 12.931-1.131 18.901-7.637 5.258-5.737 11.823-8.885 18.515-8.885 6.704 0 13.304 3.16 18.586 8.92 5.946 6.448 11.601 8.779 18.911 7.614a9 9 0 0 1 1.411-.105q.715-.006 1.423.093c11.659 1.492 19.18-1.341 24.485-9.2a3.2 3.2 0 0 1 .711-.746 24.406 24.406 0 0 1 32.554-.151 101 101 0 0 1 7.649 7.485 7.92 7.92 0 0 0 6.424 2.612c6.716-.175 12.779-.268 18.9 0 3.743.186 6.04-1.166 8.255-4.664a143.73 143.73 0 0 0 22.258-77.7M147.649 56.397v8.162c.035 5.2.07 10.587-.14 15.939-.082.56-.03 1.131.152 1.667.633.152 1.287.2 1.935.14 7.754-.082 15.659-.082 23.319-.082h44.377v-5.398c.047-7.789.093-15.845-.292-23.716a2.903 2.903 0 0 0-.979-2.18c-1.411-1.26-4.419-1.772-8.407-1.434a3.7 3.7 0 0 0-.804.14q.054.617.186 1.224a8 8 0 0 1 .175 3.136 17.8 17.8 0 0 0-.14 4.291c.059.875.059 1.773.059 2.682-.129 6.506-3.743 10.727-9.538 10.878-5.795.152-9.806-4.325-9.992-11.041v-2.239c-.012-4.489-.023-8.045-.793-8.768-.767-.72-4.245-.538-8.656-.305l-.042.002a5.5 5.5 0 0 1-.758 0v.151c.093 4.023.093 8.022 0 11.882-.14 5.981-4.221 10.342-9.701 10.342s-9.584-4.338-9.759-10.296V49.308a7.437 7.437 0 0 0-9.4 3.54 7.44 7.44 0 0 0-.802 3.55" clip-rule="evenodd"/></svg>