<svg xmlns="http://www.w3.org/2000/svg" width="513" height="512" fill="none"><g fill="currentColor" clip-path="url(#a)"><path fill-rule="evenodd" d="M104.069 331.151c12.748 7.539 26.674 10.132 42.579 10.733.094 0 .259.005.483.013.725.024 2.064.069 3.587.012 1.991-.075 3.995-.188 5.973-.413 6.613-.702 9.919-4.158 10.132-10.72.248-4.828.215-9.666-.101-14.49-1.352-16.405-5.309-32.134-16.818-44.457-17.758-19.061-40.964-22.855-65.547-21.29-5.485.351-8.153 4.208-8.766 9.919a95.3 95.3 0 0 0 1.403 28.352c3.406 17.671 10.895 32.749 27.075 42.341m.438-60.186c28.716 4.245 39.411 18.321 42.304 47.125-.077.355-.031.797.016 1.25.131 1.256.271 2.6-2.158 2.444-11.997-.902-23.882-2.467-33.813-10.269-10.432-8.153-13.575-19.799-15.028-32.11-1.152-9.693-.976-9.855 8.679-8.44M190.187 341.828h-.003c-2.439-.127-5.553-.289-8.635-.658-4.909-.601-8.052-3.756-8.428-8.515-1.252-16.681.714-32.874 8.09-48.165 8.203-17.044 22.479-26.299 40.074-31.195a96.4 96.4 0 0 1 31.183-3.231c7.702.413 11.108 3.682 11.735 11.271 1.252 15.529-.602 30.619-6.863 44.946-8.666 19.849-25.047 29.392-45.397 33.6-4.613 1.002-9.282 1.347-14.876 1.759-1.391.103-2.84.21-4.36.332-.703-.049-1.552-.094-2.504-.143l-.01-.001zm54.091-66.505c-.18-.54-.035-1.265.112-2 .343-1.721.699-3.503-3.055-3.134-27.488 2.692-43.092 12.247-47.475 40.951q-.187 1.216-.353 2.266v.001c-.769 4.902-1.126 7.182-.177 8.079.825.78 2.638.514 6.027.017 1.21-.177 2.62-.384 4.258-.583 16.606-1.978 30.356-8.49 36.693-25.459a72.6 72.6 0 0 0 3.97-20.138M191.668 262.023c9.267-12.298 16.255-25.56 16.13-41.514q.001-.784.008-1.568c.01-1.306.02-2.612-.033-3.918a20 20 0 0 0-.476-2.955c-4.12-20.651-16.067-36.255-31.671-49.454-4.459-3.757-9.243-3.106-13.989 1.052a94.7 94.7 0 0 0-20.538 24.958c-8.403 15.041-12.26 30.808-6.9 47.939 5.297 16.932 15.604 30.369 28.715 41.853 4.246 3.732 8.842 3.331 13.563-.551a92.8 92.8 0 0 0 15.191-15.842m-5.761-29.818c-3.419 9.593-9.38 17.42-16.568 24.934-8.503-9.73-15.98-19.762-17.332-32.773-1.628-15.717 6.637-27.689 16.105-38.96 1.314-1.574 2.046-.743 2.894.22l.149.168c6.599 7.314 12.373 15.266 15.366 24.846a33.3 33.3 0 0 1-.614 21.565" clip-rule="evenodd"/><path d="M47.465 63.981a10.257 10.257 0 0 1-9.881 9.906 9.93 9.93 0 1 1 0-19.862 10.27 10.27 0 0 1 9.88 9.956M308.681 453.204a9.8 9.8 0 0 0 1.596-5.448 10.02 10.02 0 0 0-3.039-6.891 10.02 10.02 0 0 0-6.98-2.828 9.81 9.81 0 0 0-8.913 6.22 9.806 9.806 0 0 0 17.336 8.947"/><path fill-rule="evenodd" d="M463.232 332.867c-.076 19.01-8.516 35.529-20.238 50.707a124.3 124.3 0 0 1-18.91 19.786c-4.696 3.92-9.367 4.521-13.563.89-18.121-15.679-32.147-34.214-37.569-58.046-4.384-19.398.789-37.231 10.644-53.95a128.4 128.4 0 0 1 24.934-30.356c5.009-4.496 9.793-5.285 14.352-1.453 17.658 14.815 31.546 32.335 38.121 54.89a65 65 0 0 1 2.229 17.532m-57.244 37.056v-33.587a22.2 22.2 0 0 1 .751-6.913 9.77 9.77 0 0 1 15.725-4.602 9.76 9.76 0 0 1 3.21 5.491 38.3 38.3 0 0 1 .313 6.475v35.253c5.028-4.812 7.804-10.027 10.534-15.159l.337-.633c6.374-11.96 8.227-24.47 4.258-37.632-4.208-13.951-12.824-25.047-22.73-35.341-1.591-1.653-2.505-.851-3.532.451a225 225 0 0 1-3.257 3.85c-2.158 2.515-4.316 5.03-6.26 7.721-18.309 25.297-18.347 50.344.651 74.626" clip-rule="evenodd"/><path d="M371.743 457.271a9.95 9.95 0 0 0 10.693-2.484 9.944 9.944 0 1 0-10.693 2.484"/><path fill-rule="evenodd" d="M7.889 511.95h497.949a24.2 24.2 0 0 0 6.963-7.001V181.036a25.8 25.8 0 0 0-8.103-7.815 4773 4773 0 0 1-18.104-12.02c-8.11-5.402-16.213-10.8-24.362-16.132a6.586 6.586 0 0 1-3.507-6.399c.217-8.877.144-17.696.072-26.502v-.002l-.009-1.047c-.063-8.203-3.782-12.098-11.884-12.098a10437 10437 0 0 0-60.475 0c-8.178.038-11.885 3.695-12.023 11.922-.137 8.992-.087 17.996 0 26.988.013 2.329-.45 4.02-2.604 5.435-8.143 5.311-16.221 10.717-24.382 16.177l-.006.004a7518 7518 0 0 1-7.81 5.221c-1.039-1.366-.925-2.784-.816-4.135.033-.407.065-.808.065-1.2V13.989C338.853 3.142 335.697 0 324.84 0H14.94C4.044 0 .888 3.13.888 13.95Q.976 255.876.801 497.787c0 6.212 1.503 11.058 7.088 14.164m12.824-79.51q.125-101.977.125-203.966.188-101.476-.175-202.99c-.013-4.733 1.415-5.722 5.798-5.597 10.995.275 22.003.2 32.999 0 3.318-.063 4.683.626 4.57 4.32-.21 8.077-.115 16.164-.02 24.252l.02 1.734c.038 2.517-.438 4.17-2.942 5.56-3.92 2.142-5.122 5.861-4.233 10.32.889 4.458 3.92 6.85 8.203 7.626 1.98.26 3.978.344 5.973.25q120.987.126 241.974-.112c4.884-.013 5.911 1.24 5.911 5.999a252591 252591 0 0 0 0 406.441c0 4.446-.964 5.911-5.635 5.761-11.29-.347-22.602-.214-33.893-.081l-1.598.018c-2.931.088-4.108-.513-4.033-3.757.201-8.991.1-17.995 0-27-.025-2.191.489-3.105 2.768-3.757 5.585-1.565 8.403-5.748 7.789-10.582-.688-5.26-4.508-8.566-10.369-8.916-1.001-.042-2.002-.028-2.999-.014h-.011q-.745.012-1.486.014-121.475-.1-242.95.087c-4.396.013-5.786-.889-5.786-5.61m318.09 54.501V340.507h.05q.001-16.83.008-33.662v-.006c.013-37.422.027-74.847-.108-112.265a8.67 8.67 0 0 1 4.571-8.353c11.083-7.171 22.041-14.509 33.024-21.864q3.666-2.456 7.338-4.911a13.1 13.1 0 0 1 7.84-2.505c10.883.067 21.783.045 32.662.022h.027c5.436-.011 10.867-.022 16.289-.022 2.316-.11 4.608.512 6.55 1.778a4031 4031 0 0 0 42.804 28.528 5.89 5.89 0 0 1 3.068 5.611q-.174 120.435 0 240.884c0 3.695-1.252 4.271-4.558 4.271-17.647-.042-35.294-.028-52.941-.014h-.032q-13.244.012-26.487.014a35 35 0 0 0-5.009.175 9.857 9.857 0 0 0 0 19.636c1.663.186 3.337.244 5.009.176q7.54.003 15.074.011c21.325.017 42.612.035 63.898-.086 3.656-.013 5.184.651 5.009 4.809-.326 8.478-.226 16.994 0 25.484.088 3.181-.989 3.845-3.97 3.845a20282 20282 0 0 0-145.933 0c-4.207.024-4.198-1.904-4.185-4.647zM290.012 20.054c2.163-.008 4.325-.017 6.487-.017q2.966.002 5.93.012c4.347.014 8.692.027 13.031-.024 2.542-.063 3.456.626 3.456 3.33a837 837 0 0 0 0 27.44c.038 2.704-.952 3.318-3.456 3.318a2947 2947 0 0 0-38.422 0c-2.304.012-3.206-.564-3.206-3.068q.175-13.977 0-27.952c-.025-2.455.902-3.056 3.206-3.056 4.325.05 8.65.034 12.974.017m-189.901.005c2.099-.01 4.193-.022 6.273-.022 5.874 0 11.647 0 17.42.025 2.379-.05 3.632.401 3.632 3.219-.075 6.21-.05 12.416-.025 18.624.012 3.104.025 6.209.025 9.315 0 2.091-.752 2.905-2.918 2.905q-18.722-.15-37.407 0c-2.442.013-3.106-.926-3.106-3.23.1-9.143.125-18.284 0-27.439-.037-2.605.827-3.419 3.419-3.419 4.223.067 8.468.045 12.687.022m-.379 437.963h.009c2.048-.011 4.096-.022 6.142-.022v-.038c2.157 0 4.313.017 6.467.035h.015c3.659.029 7.312.058 10.951.003 2.83-.063 4.232.426 4.157 3.757-.175 8.966-.1 17.958 0 26.937.038 2.555-.801 3.419-3.431 3.419a1556 1556 0 0 0-36.405 0c-2.906 0-3.632-1.002-3.632-3.757a966 966 0 0 0 0-26.937c-.037-2.605.814-3.419 3.419-3.419 4.1.067 8.205.044 12.308.022m51.36-437.985h36.393c2.354-.05 3.181.752 3.181 3.156-.088 9.33-.076 18.66 0 27.99.025 2.154-.739 2.917-2.893 2.917a3116 3116 0 0 0-37.495 0c-2.141.013-2.943-.764-2.943-2.892.088-9.33.138-18.66 0-27.99 0-2.893 1.428-3.18 3.757-3.18m75.413.02c2.11-.01 4.219-.02 6.326-.02h17.47c2.342-.05 3.594.3 3.594 3.181-.137 9.33-.087 18.66 0 27.99.025 2.141-.663 2.892-2.855 2.892a3116 3116 0 0 0-37.494 0c-2.205.013-2.856-.814-2.856-2.918.088-9.33.1-18.672 0-28.002-.025-2.366.752-3.143 3.156-3.143 4.217.059 8.439.04 12.659.02M47.593 491.967c-1.706.011-3.41.021-5.115.021v-.038q-2.391-.001-4.783-.01h-.042c-4.538-.014-9.071-.029-13.584.073-2.292.05-3.206-.539-3.206-3.043q.162-13.964 0-27.915c-.025-2.379.764-3.118 3.13-3.118 12.299.113 24.584.138 36.882 0 2.805-.025 3.23 1.177 3.23 3.569-.112 8.967-.162 17.946 0 26.913.063 2.843-.876 3.719-3.694 3.631-4.264-.134-8.535-.108-12.803-.083zm116.341-33.947c1.714-.01 3.429-.02 5.142-.02v-.038c2.853 0 5.706.016 8.55.032h.018c3.291.019 6.567.038 9.816.031 2.341-.05 3.193.726 3.193 3.131-.088 9.329-.075 18.672 0 28.002.025 2.129-.714 2.918-2.88 2.918-12.448-.076-24.972-.101-37.495 0-2.63.025-2.955-1.278-2.955-3.382.087-9.004.15-17.996 0-27 0-2.843.889-3.844 3.757-3.757 4.275.134 8.563.109 12.85.083zm62.597-.003q3.168-.015 6.338-.017v-.038c2.525 0 5.035.014 7.536.028h.022c3.308.018 6.602.037 9.899.022 2.38-.05 3.569.351 3.569 3.206-.137 9.33-.087 18.66 0 27.99.025 2.179-.738 2.868-2.88 2.868a3083 3083 0 0 0-37.495 0c-2.241.012-2.83-.877-2.83-2.956.088-9.33.113-18.66 0-27.989-.025-2.405.814-3.131 3.181-3.131 4.211.05 8.427.033 12.645.017zm198.808-320.988h-8.491v-.037q-2.034-.005-4.067-.015c-4.968-.023-9.932-.045-14.881.102-2.555.063-3.381-.751-3.519-3.368l-.01-.188c-.396-7.234-.594-10.85 1.118-12.658 1.711-1.807 5.33-1.807 12.567-1.807 2.498 0 4.996.01 7.494.02 6.493.025 12.984.05 19.469-.095 3.093-.062 4.22.827 3.882 3.92-.172 1.624.021 3.415.211 5.177.348 3.226.685 6.355-1.25 8.185-1.645 1.54-5.007 1.259-8.348.979-1.442-.121-2.881-.241-4.175-.215" clip-rule="evenodd"/></g><defs><clipPath id="a"><path fill="#fff" d="M.8 0h512v512H.8z"/></clipPath></defs></svg>