<svg xmlns="http://www.w3.org/2000/svg" width="513" height="512" fill="none"><path fill="currentColor" d="M64.426 221.656c0-4.654 3.99-8.432 8.906-8.432s8.906 3.778 8.906 8.432c0 4.653-3.99 8.431-8.906 8.431s-8.906-3.778-8.906-8.431"/><path fill="currentColor" fill-rule="evenodd" d="M194.524 198.109a65.7 65.7 0 0 0-15.057-1.751h-63.138c-3.673-9.811-13.575-16.859-25.184-16.859H37.707c-4.92 0-8.906 3.774-8.906 8.431v151.761c0 4.657 3.987 8.431 8.906 8.431h53.438c11.345 0 21.072-6.748 24.934-16.227 10.082 1.186 21.747 4.008 29.078 8.171l46.577 26.457c17.645 10.025 37.848 15.324 58.43 15.324 16.309 0 32.111-3.241 46.97-9.63l166.231-69.291c18.411-7.072 27.502-27.982 16.978-46.412-7.741-13.563-25.87-19.596-42.194-14.053l-83.963 27.326c.373-1.957.581-3.953.581-5.978 0-18.595-15.979-33.725-35.625-33.725h-57.675a9.3 9.3 0 0 1-4.373-1.084l-47.054-25.053q-.553-.295-1.112-.58c46.197-45.777 85.678-70.851 111.812-70.851 27.631 0 70.184 28.03 119.82 78.926 1.285 1.317 3.069 2.097 4.961 2.168s3.736-.571 5.127-1.787 2.215-2.906 2.291-4.697c.075-1.791-.604-3.537-1.888-4.854C414.002 164.28 361.321 119 320.74 119c-39.109 0-89.454 42.053-126.216 79.109m-103.38 133.15c4.896 0 8.886-3.761 8.907-8.391V204.793c0-4.65-3.997-8.431-8.906-8.431H46.613v134.897zm365.172-43.819c.094-.037.188-.076.282-.109 8.994-3.409 13.381-13.51 8.075-22.801-3.538-6.198-12.563-8.912-20.544-6.185l-108.291 35.24c-5.104 2.576-10.854 3.949-16.696 3.949h-90.538c-4.919 0-8.906-3.774-8.906-8.428 0-4.657 3.987-8.431 8.906-8.431h90.538c9.818 0 17.813-7.598 17.813-16.863 0-9.301-7.991-16.862-17.813-16.862h-57.675c-4.585 0-9.122-1.127-13.109-3.254l-47.054-25.054c-6.648-3.547-14.197-5.418-21.837-5.418h-61.603v101.887c12.208 1.384 26.485 4.835 36.456 10.497l46.581 26.456c14.876 8.455 31.909 12.921 49.263 12.921 13.763 0 27.101-2.737 39.643-8.139z" clip-rule="evenodd"/><path fill="currentColor" d="M381.27 173.066c-4.916 0-8.907 3.777-8.907 8.431s3.991 8.431 8.907 8.431c4.915 0 8.906-3.777 8.906-8.431s-3.991-8.431-8.906-8.431M363.422 218.684c-4.916 0-8.906 3.778-8.906 8.431 0 4.654 3.99 8.432 8.906 8.432s8.906-3.778 8.906-8.432c0-4.653-3.99-8.431-8.906-8.431M424.103 216.994c-4.916 0-8.906 3.778-8.906 8.432 0 4.653 3.99 8.431 8.906 8.431s8.907-3.778 8.907-8.431c0-4.654-3.991-8.432-8.907-8.432M395.547 228.821c-4.915 0-8.906 3.778-8.906 8.432 0 4.653 3.991 8.431 8.906 8.431s8.907-3.778 8.907-8.431c0-4.654-3.991-8.432-8.907-8.432M285.045 186.582c3.943 0 7.139-3.025 7.139-6.758s-3.196-6.758-7.139-6.758-7.139 3.026-7.139 6.758 3.196 6.758 7.139 6.758M306.462 159.549c3.943 0 7.139-3.025 7.139-6.758s-3.196-6.758-7.139-6.758-7.139 3.026-7.139 6.758 3.196 6.758 7.139 6.758M320.74 179.824c3.943 0 7.139-3.026 7.139-6.758s-3.196-6.758-7.139-6.758-7.139 3.025-7.139 6.758 3.196 6.758 7.139 6.758M342.157 166.308c3.942 0 7.139-3.026 7.139-6.759 0-3.732-3.197-6.758-7.139-6.758s-7.139 3.026-7.139 6.758 3.196 6.759 7.139 6.759M356.435 193.341c3.942 0 7.139-3.026 7.139-6.759 0-3.732-3.197-6.758-7.139-6.758s-7.139 3.026-7.139 6.758 3.196 6.759 7.139 6.759M388.426 218.684c3.943 0 7.139-3.026 7.139-6.758s-3.196-6.759-7.139-6.759-7.139 3.026-7.139 6.759c0 3.732 3.196 6.758 7.139 6.758M370.578 256.699c3.943 0 7.139-3.026 7.139-6.758s-3.196-6.758-7.139-6.758-7.138 3.025-7.138 6.758 3.196 6.758 7.138 6.758M335.018 213.615c3.942 0 7.139-3.025 7.139-6.758s-3.197-6.758-7.139-6.758-7.139 3.026-7.139 6.758 3.196 6.758 7.139 6.758M299.323 213.615c3.943 0 7.139-3.025 7.139-6.758s-3.196-6.758-7.139-6.758-7.139 3.026-7.139 6.758 3.196 6.758 7.139 6.758M256.489 213.615c3.943 0 7.139-3.025 7.139-6.758s-3.196-6.758-7.139-6.758-7.139 3.026-7.139 6.758 3.196 6.758 7.139 6.758"/></svg>