<svg xmlns="http://www.w3.org/2000/svg" width="512" height="512" fill="none"><path fill="currentColor" fill-rule="evenodd" d="M272 352h104c30.914-.033 55.967-25.086 56-56V88c-.033-30.914-25.086-55.967-56-56H136c-30.914.033-55.967 25.086-56 56v208c.033 30.914 25.086 55.967 56 56h104v112c0 8.837 7.163 16 16 16s16-7.163 16-16zm0 0h-32V198.63l-52.69 52.68c-6.291 5.976-16.198 5.85-22.334-.286s-6.262-16.043-.286-22.334l80-80c6.248-6.243 16.372-6.243 22.62 0l80 80c5.976 6.291 5.85 16.198-.286 22.334s-16.043 6.262-22.334.286L272 198.63z" clip-rule="evenodd"/></svg>