<svg xmlns="http://www.w3.org/2000/svg" width="512" height="512" fill="none"><path fill="currentColor" fill-rule="evenodd" d="M376 32c30.619 0 55.498 24.573 55.992 55.074L432 88v208c0 30.619-24.573 55.498-55.074 55.992L376 352h-40c-8.837 0-16-7.163-16-16 0-8.731 6.994-15.829 15.685-15.997L336 320h40c13.122 0 23.785-10.531 23.997-23.603L400 296V88c0-13.122-10.531-23.785-23.603-23.997L376 64H136c-13.122 0-23.785 10.531-23.997 23.603L112 88v208c0 13.122 10.531 23.785 23.603 23.997L136 320h40c8.837 0 16 7.163 16 16 0 8.731-6.994 15.829-15.685 15.997L176 352h-40c-30.619 0-55.498-24.573-55.993-55.074L80 296V88c0-30.619 24.573-55.498 55.074-55.992L136 32zM244.686 148.686c6.162-6.161 16.099-6.247 22.365-.256l.263.256 80 80c6.248 6.249 6.248 16.379 0 22.628-6.162 6.161-16.099 6.247-22.365.256l-.263-.256L272 198.627V464c0 8.837-7.163 16-16 16-8.731 0-15.829-6.994-15.997-15.685L240 464V198.627l-52.686 52.687c-6.162 6.161-16.099 6.247-22.365.256l-.263-.256c-6.161-6.162-6.247-16.099-.256-22.365l.256-.263z" clip-rule="evenodd"/></svg>