<svg xmlns="http://www.w3.org/2000/svg" width="512" height="512" fill="none"><path fill="currentColor" fill-rule="evenodd" d="M64 32h144c17.673 0 32 14.327 32 32v144c0 17.673-14.327 32-32 32H64c-17.673 0-32-14.327-32-32V64c0-17.673 14.327-32 32-32m104 144a8 8 0 0 0 8-8v-64a8 8 0 0 0-8-8h-64a8 8 0 0 0-8 8v64a8 8 0 0 0 8 8zM448 32H304c-17.673 0-32 14.327-32 32v144c0 17.673 14.327 32 32 32h144c17.673 0 32-14.327 32-32V64c0-17.673-14.327-32-32-32m-32 136a8 8 0 0 1-8 8h-64a8 8 0 0 1-8-8v-64a8 8 0 0 1 8-8h64a8 8 0 0 1 8 8zM280 272a8 8 0 0 0-8 8v48a8 8 0 0 0 8 8h48a8 8 0 0 0 8-8v-48a8 8 0 0 0-8-8zm64 64a8 8 0 0 0-8 8v64a8 8 0 0 0 8 8h64a8 8 0 0 0 8-8v-64a8 8 0 0 0-8-8zm72 88a8 8 0 0 1 8-8h48a8 8 0 0 1 8 8v48a8 8 0 0 1-8 8h-48a8 8 0 0 1-8-8zm24-152a8 8 0 0 0-8 8v32a8 8 0 0 0 8 8h32a8 8 0 0 0 8-8v-32a8 8 0 0 0-8-8zM272 440a8 8 0 0 1 8-8h32a8 8 0 0 1 8 8v32a8 8 0 0 1-8 8h-32a8 8 0 0 1-8-8zm-64-168H64c-17.673 0-32 14.327-32 32v144c0 17.673 14.327 32 32 32h144c17.673 0 32-14.327 32-32V304c0-17.673-14.327-32-32-32m-32 136a8 8 0 0 1-8 8h-64a8 8 0 0 1-8-8v-64a8 8 0 0 1 8-8h64a8 8 0 0 1 8 8z" clip-rule="evenodd"/></svg>