<svg xmlns="http://www.w3.org/2000/svg" width="512" height="512" fill="none"><path fill="currentColor" fill-rule="evenodd" d="M208 32H64c-17.673 0-32 14.327-32 32v144c0 17.673 14.327 32 32 32h144c17.673 0 32-14.327 32-32V64c0-17.673-14.327-32-32-32M64 64h144v144H64zm384-32H304c-17.673 0-32 14.327-32 32v144c0 17.673 14.327 32 32 32h144c17.673 0 32-14.327 32-32V64c0-17.673-14.327-32-32-32M304 64h144v144H304zm32 40a8 8 0 0 1 8-8h64a8 8 0 0 1 8 8v64a8 8 0 0 1-8 8h-64a8 8 0 0 1-8-8zm-64 176a8 8 0 0 1 8-8h48a8 8 0 0 1 8 8v48a8 8 0 0 1-8 8h-48a8 8 0 0 1-8-8zm64 64a8 8 0 0 1 8-8h64a8 8 0 0 1 8 8v64a8 8 0 0 1-8 8h-64a8 8 0 0 1-8-8zm88 72a8 8 0 0 0-8 8v48a8 8 0 0 0 8 8h48a8 8 0 0 0 8-8v-48a8 8 0 0 0-8-8zm8-136a8 8 0 0 1 8-8h32a8 8 0 0 1 8 8v32a8 8 0 0 1-8 8h-32a8 8 0 0 1-8-8zM280 432a8 8 0 0 0-8 8v32a8 8 0 0 0 8 8h32a8 8 0 0 0 8-8v-32a8 8 0 0 0-8-8zM96 104a8 8 0 0 1 8-8h64a8 8 0 0 1 8 8v64a8 8 0 0 1-8 8h-64a8 8 0 0 1-8-8zm0 240a8 8 0 0 1 8-8h64a8 8 0 0 1 8 8v64a8 8 0 0 1-8 8h-64a8 8 0 0 1-8-8zm112-72H64c-17.673 0-32 14.327-32 32v144c0 17.673 14.327 32 32 32h144c17.673 0 32-14.327 32-32V304c0-17.673-14.327-32-32-32M64 304h144v144H64z" clip-rule="evenodd"/></svg>