<svg xmlns="http://www.w3.org/2000/svg" width="512" height="512" fill="none"><path fill="currentColor" fill-rule="evenodd" d="M67.458 429.975a21.9 21.9 0 0 0 16.378 7.315 21.958 21.958 0 0 0 16.338-36.598c-73.714-82.65-73.714-207.444 0-290.093 7.822-9.064 6.941-22.722-1.98-30.706s-22.591-7.351-30.736 1.423c-88.632 99.321-88.632 249.337 0 348.659m361.704 7.315a21.955 21.955 0 0 1-16.358-36.598c73.714-82.65 73.714-207.444 0-290.093-7.821-9.064-6.941-22.722 1.979-30.706s22.592-7.351 30.737 1.423c88.632 99.321 88.632 249.337 0 348.659a21.95 21.95 0 0 1-16.358 7.315m-289.145-45.191a21.88 21.88 0 0 1-16.049-6.987c-68.13-72.886-68.13-186.098 0-258.984a21.956 21.956 0 1 1 32.067 30.002c-52.341 56.004-52.341 142.986 0 198.991a21.958 21.958 0 0 1-16.028 36.928zm50.85-50.851a21.96 21.96 0 0 1-16.428-7.366c-39.645-44.616-39.645-111.837 0-156.454a21.958 21.958 0 1 1 32.806 29.183c-24.852 27.977-24.852 70.121 0 98.098a21.956 21.956 0 0 1-16.398 36.539zm65.632-49.673c19.844 0 35.93-16.086 35.93-35.93 0-19.843-16.086-35.93-35.93-35.93-19.843 0-35.93 16.087-35.93 35.93 0 19.844 16.087 35.93 35.93 35.93m45.618 36.706a21.96 21.96 0 0 0 20.014 12.967c6.27 0 12.241-2.68 16.408-7.366 39.646-44.616 39.646-111.837 0-156.454a21.958 21.958 0 1 0-32.806 29.183c24.852 27.977 24.852 70.121 0 98.098a21.96 21.96 0 0 0-3.616 23.572m50.756 50.603a21.96 21.96 0 0 0 20.109 13.215 21.88 21.88 0 0 0 16.038-6.937c68.13-72.886 68.13-186.098 0-258.984a21.958 21.958 0 0 0-37.136 8.565 21.96 21.96 0 0 0 5.069 21.436c52.341 56.005 52.341 142.987 0 198.992a21.96 21.96 0 0 0-4.08 23.713" clip-rule="evenodd"/></svg>