<svg xmlns="http://www.w3.org/2000/svg" width="513" height="512" fill="none"><path fill="currentColor" fill-rule="evenodd" d="M67.6 430.61 82.27 447l32.781-29.33-14.66-16.39c-73.862-82.771-73.862-207.789 0-290.56l14.68-16.38L82.281 65 67.6 81.39c-88.806 99.469-88.806 249.751 0 349.22M431.732 447l-32.79-29.33 14.66-16.39c73.862-82.771 73.862-207.789 0-290.56l-14.67-16.38L431.721 65l14.67 16.39c88.806 99.469 88.806 249.751 0 349.22zm-292.49-45.24-15-16.06c-68.28-72.987-68.28-186.413 0-259.4l15-16.07 32.14 30.05-15 16.06c-52.466 56.083-52.466 143.237 0 199.32l15 16.06zm50.16-50.96-14.62-16.44c-39.734-44.681-39.734-112.029 0-156.71l14.62-16.43 32.87 29.24-14.62 16.43c-24.909 28.014-24.909 70.236 0 98.25l14.62 16.44zm67.6-58.81c19.882 0 36-16.113 36-35.99s-16.118-35.99-36-35.99-36 16.113-36 35.99 16.118 35.99 36 35.99m34.71 29.59 32.89 29.22 14.6-16.44c39.734-44.681 39.734-112.029 0-156.71l-14.62-16.43-32.87 29.24 14.62 16.43c24.909 28.014 24.909 70.236 0 98.25zm50.91 50.18 32.14 30 15-15.97c68.28-72.987 68.28-186.413 0-259.4l-15-16.07-32.14 30 15 16.06c52.465 56.083 52.465 143.237 0 199.32z" clip-rule="evenodd"/></svg>