<svg xmlns="http://www.w3.org/2000/svg" width="512" height="512" fill="none"><path fill="currentColor" fill-rule="evenodd" d="M87.65 88.061c-6.594-5.883-16.708-5.306-22.59 1.288-86.746 97.232-86.746 244.071 0 341.303 5.882 6.594 15.996 7.17 22.59 1.287 6.594-5.882 7.17-15.997 1.288-22.59l-2.255-2.566c-73.655-85.094-72.903-211.888 2.255-296.131l.238-.273c5.628-6.597 4.978-16.516-1.526-22.318m336.697 0c6.594-5.883 16.708-5.306 22.591 1.288 86.746 97.232 86.746 244.071 0 341.303-5.883 6.594-15.997 7.17-22.591 1.287-6.503-5.802-7.153-15.72-1.526-22.317l.238-.273c75.158-84.244 75.91-211.037 2.255-296.131l-2.255-2.566c-5.882-6.594-5.306-16.708 1.288-22.591M121.59 134.354c6.034-6.455 16.159-6.797 22.614-.763 6.368 5.952 6.787 15.883 1.008 22.348l-.245.267c-54.062 57.838-54.602 147.355-1.621 205.826l1.621 1.762c6.035 6.456 5.693 16.581-.763 22.615s-16.58 5.692-22.614-.763c-66.105-70.722-66.105-180.57 0-251.292m50.697 51.269c5.869-6.606 15.982-7.203 22.588-1.334 6.516 5.788 7.186 15.705 1.573 22.314l-.238.274c-26.655 30.003-26.922 75.049-.8 105.353l.8.913c5.869 6.607 5.271 16.72-1.335 22.589s-16.719 5.271-22.588-1.335c-37.694-42.429-37.694-106.345 0-148.774m83.712 106.397c17.673 0 32-14.327 32-32s-14.327-32-32-32-32 14.327-32 32 14.327 32 32 32m83.731-106.397c-5.869-6.606-15.982-7.203-22.588-1.334s-7.204 15.982-1.335 22.588l.8.914c26.122 30.303 25.855 75.35-.8 105.352l-.237.274c-5.614 6.609-4.944 16.526 1.572 22.315 6.606 5.868 16.719 5.271 22.588-1.335 37.694-42.429 37.694-106.345 0-148.774m50.677-51.269c-6.034-6.455-16.158-6.797-22.614-.763s-6.797 16.159-.763 22.615l1.622 1.762c52.981 58.472 52.44 147.988-1.622 205.826l-.245.268c-5.779 6.465-5.359 16.396 1.008 22.347 6.456 6.034 16.58 5.692 22.614-.763 66.105-70.722 66.105-180.57 0-251.292" clip-rule="evenodd"/></svg>