<svg xmlns="http://www.w3.org/2000/svg" width="512" height="512" fill="none"><path fill="currentColor" fill-rule="evenodd" d="M364 336.001H130c-29.5 0-54.92-7.83-73.53-22.64-21.24-16.92-32.47-42.01-32.47-72.56 0-26.66 10.08-49.8 29.14-66.91 15.24-13.68 36.17-23.21 59-26.84.06 0 .08 0 .09-.05 6.44-39 23.83-72.09 50.31-95.68A140.24 140.24 0 0 1 256 16.001c30.23 0 58.48 9.39 81.71 27.17a142.7 142.7 0 0 1 45.36 60.66c29.41 4.82 54.72 17.11 73.19 35.54 20.74 20.74 31.74 48.34 31.74 79.83 0 32.85-13.13 62.87-37 84.52-22.89 20.82-53.8 32.28-87 32.28M93.82 430.424l49.75-74.627 26.626 17.75-49.751 74.627zm129.748-74.622L141.816 478.43l26.626 17.75 81.751-122.628zm30.243 74.623 49.751-74.626 26.626 17.75-49.751 74.627zm129.749-74.621-81.752 122.628 26.626 17.75 81.751-122.628z" clip-rule="evenodd"/></svg>