<svg xmlns="http://www.w3.org/2000/svg" width="512" height="512" fill="none"><path fill="currentColor" fill-rule="evenodd" d="M112.213 147.001C125.208 68.071 183.643 16 256 16c30.979 0 58.809 9.643 81.706 27.168 20.425 15.634 36.141 37.036 45.364 60.666l1.762.298c60.507 10.564 102.317 52.407 103.155 113.201L488 219.2c0 67.234-54.586 116.8-124 116.8H130c-62.376 0-106-34.732-106-95.2 0-27.323 10.46-50.14 29.139-66.908 15.763-14.152 36.703-23.295 59.018-26.853.03-.005.054-.028.056-.038m206.044-78.422C300.882 55.281 279.869 48 256 48c-56.355 0-101.711 40.417-112.216 104.219l-.073.425c-2.417 13.454-13.109 23.917-26.582 26.006l-.81.133c-16.173 2.715-31.103 9.315-41.803 18.92C62.512 208.48 56 222.684 56 240.8c0 21.333 7.166 36.981 20.403 47.52C89.188 298.499 107.873 304 130 304h234c52.393 0 92-35.965 92-84.8 0-45.53-30.557-76.037-78.18-83.799l-.469-.081a31.84 31.84 0 0 1-24.059-19.772l-.324-.819c-7.182-18.005-19.255-34.32-34.711-46.15m-187.57 306.546c4.902-7.353 14.836-9.339 22.188-4.438 7.256 4.837 9.286 14.575 4.628 21.897l-.19.291-32 48c-4.902 7.353-14.836 9.339-22.188 4.438-7.256-4.837-9.286-14.575-4.628-21.897l.19-.291zm102.188-4.438c-7.352-4.901-17.286-2.915-22.188 4.438l-64 96-.19.291c-4.658 7.322-2.628 17.06 4.628 21.897 7.352 4.901 17.286 2.915 22.188-4.438l64-96 .19-.291c4.658-7.322 2.628-17.06-4.628-21.897m57.812 4.438c4.902-7.353 14.836-9.339 22.188-4.438 7.256 4.837 9.286 14.575 4.628 21.897l-.19.291-32 48c-4.902 7.353-14.836 9.339-22.188 4.438-7.256-4.837-9.286-14.575-4.628-21.897l.19-.291zm102.188-4.438c-7.352-4.901-17.286-2.915-22.188 4.438l-64 96-.19.291c-4.658 7.322-2.628 17.06 4.628 21.897 7.352 4.901 17.286 2.915 22.188-4.438l64-96 .19-.291c4.658-7.322 2.628-17.06-4.628-21.897" clip-rule="evenodd"/></svg>