<svg xmlns="http://www.w3.org/2000/svg" width="512" height="512" fill="none"><path fill="currentColor" fill-rule="evenodd" d="M456.26 139.37c-16.77-16.73-39.17-28.41-65.17-34a16 16 0 0 1-11.19-9 142.24 142.24 0 0 0-42.19-53.21C314.48 25.39 286.23 16 256 16a140.24 140.24 0 0 0-93.5 35.32c-24.2 21.56-40.91 51.34-48.43 85.83a16.05 16.05 0 0 1-11.72 12.18c-25 6.3-35.71 12.54-49.21 24.56C34 190.93 24 214.14 24 240.8c0 30.55 11.23 55.64 32.47 72.56C75.08 328.17 100.5 336 130 336h234c33.2 0 64.11-11.46 87-32.28 23.84-21.65 37-51.67 37-84.52 0-31.49-11-59.09-31.74-79.83M112 448a16.002 16.002 0 0 1-13.3-24.88l32-48a16.001 16.001 0 0 1 26.62 17.76l-32 48A16 16 0 0 1 112 448m33.907 39.539a16 16 0 0 0 27.423 1.341l64-96a16 16 0 1 0-26.62-17.76l-64 96a16 16 0 0 0-.803 16.419M272 448a16 16 0 0 1-13.3-24.88l32-48c4.904-7.351 14.839-9.334 22.19-4.43s9.334 14.839 4.43 22.19l-32 48A16 16 0 0 1 272 448m33.899 39.543a16.002 16.002 0 0 0 27.421 1.337l64-96c4.904-7.351 2.921-17.286-4.43-22.19s-17.286-2.921-22.19 4.43l-64 96a16 16 0 0 0-.801 16.423" clip-rule="evenodd"/></svg>