<svg xmlns="http://www.w3.org/2000/svg" width="512" height="512" fill="none"><path fill="currentColor" fill-rule="evenodd" d="M368 32H144c-35.33.039-63.961 28.67-64 64v320c.039 35.33 28.67 63.961 64 64h224c35.33-.039 63.961-28.67 64-64V96c-.039-35.33-28.67-63.961-64-64M256 304h-80c-8.837 0-16-7.163-16-16s7.163-16 16-16h80c8.837 0 16 7.163 16 16s-7.163 16-16 16m80-80H176c-8.837 0-16-7.163-16-16s7.163-16 16-16h160c8.837 0 16 7.163 16 16s-7.163 16-16 16m0-80H176c-8.837 0-16-7.163-16-16s7.163-16 16-16h160c8.837 0 16 7.163 16 16s-7.163 16-16 16" clip-rule="evenodd"/></svg>