<svg xmlns="http://www.w3.org/2000/svg" width="512" height="512" fill="none"><path fill="currentColor" fill-rule="evenodd" d="M368 32H144c-35.346 0-64 28.654-64 64v320c0 35.346 28.654 64 64 64h224c35.346 0 64-28.654 64-64V96c0-35.346-28.654-64-64-64M144 64h224c17.673 0 32 14.327 32 32v320c0 17.673-14.327 32-32 32H144c-17.673 0-32-14.327-32-32V96c0-17.673 14.327-32 32-32m208 64c0-8.837-7.163-16-16-16H176l-.315.003C166.994 112.171 160 119.269 160 128c0 8.837 7.163 16 16 16h160l.315-.003C345.006 143.829 352 136.731 352 128m-16 64c8.837 0 16 7.163 16 16 0 8.731-6.994 15.829-15.685 15.997L336 224H176c-8.837 0-16-7.163-16-16 0-8.731 6.994-15.829 15.685-15.997L176 192zm-64 96c0-8.837-7.163-16-16-16h-80l-.315.003C166.994 272.171 160 279.269 160 288c0 8.837 7.163 16 16 16h80l.315-.003C265.006 303.829 272 296.731 272 288" clip-rule="evenodd"/></svg>