<svg xmlns="http://www.w3.org/2000/svg" width="512" height="512" fill="none"><path fill="currentColor" fill-rule="evenodd" d="M495.997 50.665c-.247-11.693-12.622-19.222-23.154-13.954l-24.836 12.42-24.853-12.422-.365-.177a16 16 0 0 0-13.894.153l-25.137 12.459-24.8-12.428-.368-.179a16 16 0 0 0-13.993.192l-24.586 12.374-24.489-12.365-.366-.18a16 16 0 0 0-13.935.12l-25.234 12.47-24.82-12.433-.368-.178a16 16 0 0 0-13.954.173L192 49.132 167.156 36.71l-.32-.156C156.268 31.546 144 39.245 144 51.021v272H47.64A31.862 31.862 0 0 0 16 354.658l.002 2.492c.044 17.577.64 30.91 2.147 43.012l.185 1.446c2.13 16.176 5.942 29.627 12.128 41.038 14.593 26.919 41.343 40.375 81.538 40.375h288l1.588-.013C453.875 482.16 496 439.51 496 387.021v-336zM464 275.021V76.911l-8.832 4.42a16 16 0 0 1-13.944.179l-.367-.178-24.887-12.44-25.144 12.464a16 16 0 0 1-13.908.147l-.366-.178-24.747-12.4-24.611 12.388a16 16 0 0 1-14.036.17l-.369-.18-24.555-12.397-25.204 12.458a16 16 0 0 1-13.89.14l-.366-.178-24.782-12.414-24.836 12.42a16 16 0 0 1-13.944.177l-.367-.177L176 76.909V323.02h144c8.732 0 15.83 6.994 15.997 15.685l.003.315v48c0 35.346 28.654 64 64 64 34.993 0 63.427-28.084 63.992-62.942l.008-1.058zm-416 80c0 37.021 2.748 57.902 10.594 72.374 8.452 15.59 23.886 23.467 52.534 23.623l.872.003h216.448l-.37-.413c-14.657-16.566-23.679-38.233-24.065-62l-.013-1.587v-32zm368-224c8.837 0 16 7.163 16 16 0 8.731-6.993 15.829-15.685 15.997l-.315.003H224c-8.836 0-16-7.164-16-16 0-8.732 6.994-15.83 15.686-15.997l.314-.003zm16 96c0-8.837-7.163-16-16-16H288l-.314.003c-8.692.167-15.686 7.265-15.686 15.997 0 8.836 7.164 16 16 16h128l.315-.003c8.692-.168 15.685-7.266 15.685-15.997" clip-rule="evenodd"/></svg>