<svg xmlns="http://www.w3.org/2000/svg" width="512" height="512" fill="none"><path fill="currentColor" fill-rule="evenodd" d="M472.59 34.82a16.28 16.28 0 0 1 11.23-1.37A16 16 0 0 1 496 49v380c0 28.719-23.281 52-52 52h-12c-30.93 0-64-25.07-64-56V321c0-17.673-14.327-32-32-32H144V49.28a16.25 16.25 0 0 1 3.8-10.65 16 16 0 0 1 19.36-3.94L192 47.1l24.87-12.41a16.05 16.05 0 0 1 14.33 0L256 47.12l25.2-12.45a16 16 0 0 1 14.35.06L320 47.07l24.64-12.37a16 16 0 0 1 14.36 0l24.78 12.41 25.11-12.41a16 16 0 0 1 14.31 0L448 47.1zM288.5 241H416a16 16 0 0 0 15.98-16.72c-.38-8.64-7.84-15.28-16.48-15.28H288a16 16 0 0 0-15.98 16.72c.38 8.64 7.84 15.28 16.48 15.28M416 161H224.5c-8.64 0-16.1-6.64-16.48-15.28A16 16 0 0 1 224 129h191.5c8.64 0 16.1 6.64 16.48 15.28A16 16 0 0 1 416 161m-80 176v88c0 25.012 12.932 37.752 22.357 47.037q1.126 1.106 2.173 2.153a4 4 0 0 1-2.85 6.81H112c-40.14 0-66.81-13.21-81.54-40.38-8.68-16-14.46-37.02-14.46-87.57.027-17.67 14.33-31.995 32-32.05h272c8.837 0 16 7.163 16 16" clip-rule="evenodd"/></svg>