<svg xmlns="http://www.w3.org/2000/svg" width="512" height="512" fill="none"><path fill="currentColor" fill-rule="evenodd" d="M16 256c0-61.856 50.144-112 112-112s112 50.144 112 112c0 31.339-12.871 59.672-33.616 80h99.232C284.871 315.672 272 287.339 272 256c0-61.856 50.144-112 112-112s112 50.144 112 112-50.144 112-112 112H128c-61.856 0-112-50.144-112-112m368 80c44.183 0 80-35.817 80-80s-35.817-80-80-80-80 35.817-80 80 35.817 80 80 80m-256 0c44.183 0 80-35.817 80-80s-35.817-80-80-80-80 35.817-80 80 35.817 80 80 80" clip-rule="evenodd"/></svg>