<svg xmlns="http://www.w3.org/2000/svg" width="512" height="512" fill="none"><path fill="currentColor" fill-rule="evenodd" d="M385 139c-45.439-.028-86.852 26.051-106.459 67.042S264.62 295.642 293.16 331h-72.32c34.561-42.928 34.805-104.062.588-147.264-34.218-43.202-93.783-56.965-143.485-33.153S1.64 229.439 13.867 283.177 73.888 375.034 129 375h256c65.169 0 118-52.83 118-118s-52.831-118-118-118M55 257c0-40.869 33.13-74 74-74s74 33.131 74 74-33.131 74-74 74c-40.849-.05-73.95-33.151-74-74m330 74c-40.869 0-74-33.131-74-74s33.131-74 74-74 74 33.131 74 74c-.05 40.849-33.152 73.95-74 74" clip-rule="evenodd"/></svg>