<svg xmlns="http://www.w3.org/2000/svg" width="512" height="512" fill="none"><path fill="currentColor" fill-rule="evenodd" d="M256 48C141.31 48 48 141.32 48 256c0 114.86 93.14 208 208 208 114.69 0 208-93.31 208-208 0-114.87-93.13-208-208-208m0 313c-51.915 0-94-42.085-94-94s42.085-94 94-94h4.21l-14.11-14.1c-5.468-5.468-5.468-14.332 0-19.8s14.332-5.468 19.8 0l40 40a14 14 0 0 1 0 19.8l-40 40c-5.468 5.468-14.332 5.468-19.8 0s-5.468-14.332 0-19.8l18-18c-2.38-.1-5.1-.1-8.1-.1-36.451 0-66 29.549-66 66s29.549 66 66 66 66-29.549 66-66c0-7.732 6.268-14 14-14s14 6.268 14 14c-.061 51.89-42.11 93.939-94 94" clip-rule="evenodd"/></svg>