<svg xmlns="http://www.w3.org/2000/svg" width="512" height="512" fill="none"><path fill="currentColor" fill-rule="evenodd" d="M256 48C141.163 48 48 141.163 48 256s93.163 208 208 208 208-93.163 208-208S370.837 48 256 48m0 32c97.163 0 176 78.837 176 176s-78.837 176-176 176S80 353.163 80 256 158.837 80 256 80m-9.899 59.101c5.383-5.384 14.059-5.467 19.544-.249l.254.249 40.001 40c5.383 5.383 5.466 14.059.248 19.544l-.248.254-40.001 40.001c-5.467 5.467-14.331 5.467-19.798 0-5.384-5.384-5.467-14.06-.249-19.545l.249-.255 18.021-18.021q-3.418-.072-7.404-.078L256 201c-36.451 0-66 29.549-66 66s29.549 66 66 66c36.086 0 65.408-28.961 65.991-64.909L322 267c0-7.732 6.268-14 14-14s14 6.268 14 14c0 51.915-42.085 94-94 94s-94-42.085-94-94 42.085-94 94-94l2.092.004q1.08.004 2.126.013l-14.117-14.118c-5.384-5.383-5.467-14.059-.249-19.544z" clip-rule="evenodd"/></svg>