<svg xmlns="http://www.w3.org/2000/svg" width="512" height="512" fill="none"><path fill="currentColor" fill-rule="evenodd" d="M267.051 46.43c-6.266-5.99-16.203-5.905-22.365.256l-.256.263c-5.991 6.266-5.905 16.203.256 22.365l49.714 49.713c-9.789-.664-21.644-.99-35.908-1.024L256 118c-97.202 0-176 78.798-176 176s78.798 176 176 176 176-78.798 176-176c0-8.837-7.163-16-16-16s-16 7.163-16 16l-.019 2.381C398.709 374.812 334.734 438 256 438c-79.529 0-144-64.471-144-144s64.471-144 144-144c19.066 0 33.537.566 43.779 1.594l-55.093 55.092-.256.263c-5.991 6.266-5.905 16.203.256 22.365 6.249 6.248 16.379 6.248 22.628 0l80-80 .256-.263c5.991-6.266 5.905-16.203-.256-22.365l-80-80z" clip-rule="evenodd"/></svg>