<svg xmlns="http://www.w3.org/2000/svg" width="512" height="512" fill="none"><path fill="currentColor" fill-rule="evenodd" d="M256 48C141.31 48 48 141.31 48 256s93.31 208 208 208 208-93.31 208-208S370.69 48 256 48m120 182.15a8.62 8.62 0 0 1-8.62 8.62h-59.54a8.61 8.61 0 0 1-6.09-14.71l22.17-22.17-5.6-6.51c-27.577-28.629-71.002-35.037-105.673-15.594-34.67 19.444-51.849 59.838-41.803 98.298 10.047 38.46 44.786 65.293 84.536 65.296 37.027-.035 70.028-23.358 82.42-58.25A16.014 16.014 0 1 1 368 295.8c-20.229 57.249-80.202 90.2-139.371 76.575s-98.692-69.486-91.846-129.817S194.662 136.641 255.38 136.62a118.34 118.34 0 0 1 86.36 36.95l.56.62 4.31 5 14.68-14.68a8.44 8.44 0 0 1 6-2.54 8.61 8.61 0 0 1 8.68 8.63z" clip-rule="evenodd"/></svg>