<svg xmlns="http://www.w3.org/2000/svg" width="512" height="512" fill="none"><path fill="currentColor" fill-rule="evenodd" d="M397.287 111.168A207.43 207.43 0 0 0 247.98 48C133.163 48 40 141.164 40 256c0 114.837 93.163 208 208 208 88.156-.005 166.741-55.558 196.153-138.661l5.339-15.083-30.167-10.677-5.338 15.083-.759 2.103C387.767 385.921 321.851 431.996 247.999 432 150.837 432 72 353.164 72 256c0-97.163 78.837-176 176-176l1.443.004a175.44 175.44 0 0 1 124.85 53.419l.736.765 9.972 11.602-71.381 71.38a4.001 4.001 0 0 0 2.83 6.83H468a4 4 0 0 0 4-4V68.45a4 4 0 0 0-6.83-2.83l-57.477 57.478-8.945-10.406z" clip-rule="evenodd"/></svg>