<svg xmlns="http://www.w3.org/2000/svg" width="512" height="512" fill="none"><path fill="currentColor" fill-rule="evenodd" d="M389.287 111.167A207.43 207.43 0 0 0 239.98 48C125.163 48 32 141.163 32 256s93.163 208 208 208c88.156-.006 166.741-55.559 196.153-138.662 2.948-8.33-1.414-17.473-9.745-20.421s-17.473 1.414-20.421 9.745l-.759 2.102C379.767 385.921 313.851 431.995 239.999 432 142.837 432 64 353.163 64 256S142.837 80 240 80l1.443.004a175.44 175.44 0 0 1 124.85 53.418l.736.766 9.972 11.601L326.1 196.69c-10.08 10.08-2.94 27.31 11.32 27.31H448c8.837 0 16-7.163 16-16V97.42c0-14.26-17.23-21.42-27.31-11.32l-36.997 36.997-8.945-10.405z" clip-rule="evenodd"/></svg>