<svg xmlns="http://www.w3.org/2000/svg" width="512" height="512" fill="none"><path fill="currentColor" fill-rule="evenodd" d="M397.287 111.168A207.43 207.43 0 0 0 247.98 48C133.163 48 40 141.164 40 256c0 114.837 93.163 208 208 208 88.156-.005 166.741-55.558 196.153-138.661 2.948-8.33-1.414-17.473-9.745-20.422-8.33-2.948-17.473 1.415-20.421 9.745l-.759 2.103C387.767 385.921 321.851 431.996 247.999 432 150.837 432 72 353.164 72 256c0-97.163 78.837-176 176-176l1.443.004a175.44 175.44 0 0 1 124.85 53.419l.736.765 9.972 11.602-50.901 50.9c-10.08 10.08-2.94 27.31 11.32 27.31H456c8.837 0 16-7.163 16-16V97.42c0-14.26-17.23-21.42-27.31-11.32l-36.997 36.998-8.945-10.406z" clip-rule="evenodd"/></svg>