<svg xmlns="http://www.w3.org/2000/svg" width="512" height="512" fill="none"><path fill="currentColor" fill-rule="evenodd" d="M256 48C141.31 48 48 141.31 48 256s93.31 208 208 208 208-93.31 208-208S370.69 48 256 48m120 190.77h-89l36.88-36.88-5.6-6.51c-27.577-28.629-71.002-35.037-105.673-15.594-34.67 19.444-51.849 59.838-41.803 98.298 10.047 38.46 44.786 65.293 84.536 65.296 37.027-.035 70.028-23.358 82.42-58.25l5.37-15.13 30.17 10.67-5.3 15.13c-20.229 57.249-80.202 90.2-139.371 76.575s-98.692-69.486-91.846-129.817S194.662 136.641 255.38 136.62a118.34 118.34 0 0 1 86.36 36.95l.56.62 4.31 5L376 149.81z" clip-rule="evenodd"/></svg>