<svg xmlns="http://www.w3.org/2000/svg" width="512" height="512" fill="none"><path fill="currentColor" fill-rule="evenodd" d="M48 256c0-114.837 93.163-208 208-208s208 93.163 208 208-93.163 208-208 208S48 370.837 48 256m384 0c0-97.163-78.837-176-176-176S80 158.837 80 256s78.837 176 176 176 176-78.837 176-176M199.566 150.518c46.738-24.744 104.119-15.764 141.061 21.901l1.113 1.15.291.304 4.602 5.355 14.687-14.688a8.44 8.44 0 0 1 6-2.54l.03-.02a8.61 8.61 0 0 1 8.68 8.63v59.56a8.62 8.62 0 0 1-8.62 8.62h-59.54a8.61 8.61 0 0 1-6.09-14.71l22.16-22.16-5.601-6.518-.554-.573c-26.766-27.289-68.191-34.005-102.208-16.571l-1.039.542c-34.555 18.293-52.749 57.317-44.546 95.546 8.202 38.228 40.804 66.353 79.823 68.86 38.627 2.482 74.232-20.741 87.582-56.975l.397-1.102c2.945-8.332 12.086-12.699 20.417-9.755 8.332 2.945 12.699 12.086 9.755 20.417-17.8 50.366-66.895 82.775-120.204 79.349-53.308-3.425-97.851-41.851-109.058-94.081s13.651-105.547 60.862-130.541" clip-rule="evenodd"/></svg>