<svg xmlns="http://www.w3.org/2000/svg" width="512" height="512" fill="none"><path fill="currentColor" fill-rule="evenodd" d="M480 108c17.673 0 32 14.327 32 32 0 17.496-14.042 31.713-31.471 31.996L480 172H32c-17.673 0-32-14.327-32-32 0-17.496 14.042-31.713 31.47-31.996L32 108zm0 116c17.673 0 32 14.327 32 32 0 17.496-14.042 31.713-31.471 31.996L480 288H32c-17.673 0-32-14.327-32-32 0-17.496 14.042-31.713 31.47-31.996L32 224zm32 148c0-17.673-14.327-32-32-32H32l-.53.004C14.043 340.287 0 354.504 0 372c0 17.673 14.327 32 32 32h448l.529-.004C497.958 403.713 512 389.496 512 372" clip-rule="evenodd"/></svg>