<svg xmlns="http://www.w3.org/2000/svg" width="512" height="512" fill="none"><path fill="currentColor" fill-rule="evenodd" d="M480 14c17.673 0 32 14.327 32 32 0 17.496-14.042 31.713-31.471 31.996L480 78H32C14.327 78 0 63.673 0 46c0-17.496 14.042-31.713 31.47-31.996L32 14zm32 172c0-17.673-14.327-32-32-32H32l-.53.004C14.043 154.287 0 168.504 0 186c0 17.673 14.327 32 32 32h448l.529-.004C497.958 217.713 512 203.496 512 186m0 140c0-17.673-14.327-32-32-32H32l-.53.004C14.043 294.287 0 308.504 0 326c0 17.673 14.327 32 32 32h448l.529-.004C497.958 357.713 512 343.496 512 326m0 140c0-17.673-14.327-32-32-32H32l-.53.004C14.043 434.287 0 448.504 0 466c0 17.673 14.327 32 32 32h448l.529-.004C497.958 497.713 512 483.496 512 466" clip-rule="evenodd"/></svg>