<svg xmlns="http://www.w3.org/2000/svg" width="512" height="512" fill="none"><path fill="currentColor" fill-rule="evenodd" d="M488.727 116C501.58 116 512 126.297 512 139c0 12.551-10.173 22.754-22.815 22.996l-.458.004H23.273C10.42 162 0 151.703 0 139c0-12.551 10.173-22.754 22.815-22.996l.458-.004zm0 116C501.58 232 512 242.297 512 255c0 12.551-10.173 22.754-22.815 22.996l-.458.004H23.273C10.42 278 0 267.703 0 255c0-12.551 10.173-22.754 22.815-22.996l.458-.004zM512 373c0-12.703-10.42-23-23.273-23H23.273l-.458.004C10.173 350.246 0 360.449 0 373c0 12.703 10.42 23 23.273 23h465.454l.458-.004C501.827 395.754 512 385.551 512 373" clip-rule="evenodd"/></svg>