<svg xmlns="http://www.w3.org/2000/svg" width="512" height="512" fill="none"><path fill="currentColor" fill-rule="evenodd" d="M488.727 24C501.58 24 512 34.298 512 47c0 12.551-10.173 22.754-22.815 22.996l-.458.004H23.273C10.42 70 0 59.703 0 47c0-12.551 10.173-22.754 22.815-22.996l.458-.004zM512 187c0-12.703-10.42-23-23.273-23H23.273l-.458.004C10.173 164.246 0 174.449 0 187c0 12.703 10.42 23 23.273 23h465.454l.458-.004C501.827 209.754 512 199.551 512 187m0 138c0-12.703-10.42-23-23.273-23H23.273l-.458.004C10.173 302.246 0 312.449 0 325c0 12.703 10.42 23 23.273 23h465.454l.458-.004C501.827 347.754 512 337.551 512 325m0 140c0-12.703-10.42-23-23.273-23H23.273l-.458.004C10.173 442.246 0 452.449 0 465c0 12.703 10.42 23 23.273 23h465.454l.458-.004C501.827 487.754 512 477.551 512 465" clip-rule="evenodd"/></svg>