<svg xmlns="http://www.w3.org/2000/svg" width="512" height="512" fill="none"><path fill="currentColor" fill-rule="evenodd" d="M331.051 108.43c-6.266-5.991-16.203-5.905-22.365.256l-.256.263c-5.991 6.266-5.905 16.203.256 22.365L329.373 152H144l-1.586.018c-52.242.998-94.257 43.536-94.414 95.934V264l.003.315C48.171 273.006 55.269 280 64 280c8.837 0 16-7.163 16-16v-16l.012-1.056c.666-34.794 29.06-62.84 64.036-62.944h185.325l-20.687 20.686-.256.263c-5.991 6.266-5.905 16.203.256 22.365 6.249 6.248 16.379 6.248 22.628 0l48-48 .256-.263c5.991-6.266 5.905-16.203-.256-22.365l-48-48zM180.686 284.686c6.249-6.248 16.379-6.248 22.628 0 6.161 6.162 6.247 16.099.256 22.365l-.256.263L182.627 328h185.325c34.976-.104 63.37-28.15 64.036-62.944L432 264v-16c0-8.837 7.163-16 16-16 8.731 0 15.829 6.994 15.997 15.685L464 248v16.048c-.157 52.398-42.172 94.936-94.414 95.934L368 360H182.627l20.687 20.686c6.161 6.162 6.247 16.099.256 22.365l-.256.263c-6.162 6.161-16.099 6.247-22.365.256l-.263-.256-48-48c-6.161-6.162-6.247-16.099-.256-22.365l.256-.263z" clip-rule="evenodd"/></svg>