<svg xmlns="http://www.w3.org/2000/svg" width="512" height="512" fill="none"><path fill="currentColor" fill-rule="evenodd" d="M309.87 16H202.13c-19.776 0-36.369 13.625-40.904 32H144l-1.058.009C108.084 48.574 80 77.007 80 112v320l.009 1.058C80.574 467.916 109.007 496 144 496h224l1.058-.009C403.916 495.426 432 466.993 432 432V112l-.009-1.058C431.426 76.084 402.993 48 368 48h-17.226c-4.535-18.375-21.128-32-40.904-32m40.904 64c-4.535 18.375-21.128 32-40.904 32H202.13c-19.776 0-36.369-13.625-40.904-32H144c-17.496 0-31.713 14.042-31.996 31.471L112 112v320c0 17.496 14.042 31.713 31.471 31.996L144 464h224c17.496 0 31.713-14.042 31.996-31.471L400 432V112c0-17.496-14.042-31.713-31.471-31.996L368 80zM202.13 48h107.74c5.595 0 10.13 4.535 10.13 10.13v11.74c0 5.595-4.535 10.13-10.13 10.13H202.13C196.535 80 192 75.465 192 69.87V58.13c0-5.595 4.535-10.13 10.13-10.13" clip-rule="evenodd"/><path fill="currentColor" d="M192.003 151.467c37.227 0 68.086 27.242 73.739 62.88 12.533-12.491 29.835-20.214 48.928-20.214h48V220.8c0 38.293-31.04 69.333-69.333 69.333H266.67v53.334h-21.333v-85.334h-21.334c-41.237 0-74.666-33.429-74.666-74.666v-32zm149.334 64H314.67c-26.507 0-48 21.493-48 48v5.333h26.667c26.506 0 48-21.493 48-48zM192.003 172.8H170.67v10.667c0 29.45 23.883 53.333 53.333 53.333h21.334v-10.667c0-29.45-23.883-53.333-53.334-53.333M153.6 418.133v-93.866h17.067v93.866zM298.667 418.133V358.4h17.066v59.733zM179.2 418.133v-68.266h17.067v68.266zM349.867 418.133V332.8h17.066v85.333zM324.267 418.133V384h17.066v34.133zM204.8 418.133v-51.2h17.067v51.2z"/></svg>