<svg xmlns="http://www.w3.org/2000/svg" width="512" height="512" fill="none"><path fill="currentColor" fill-rule="evenodd" d="M416 80c8.731 0 15.829 6.994 15.997 15.685L432 96v112c0 8.837-7.163 16-16 16-8.731 0-15.829-6.994-15.997-15.685L400 208v-73.401L134.626 400H208c8.731 0 15.829 6.994 15.997 15.685L224 416c0 8.731-6.994 15.829-15.685 15.997L208 432H96c-8.731 0-15.83-6.994-15.997-15.685L80 416V304c0-8.837 7.163-16 16-16 8.731 0 15.829 6.994 15.997 15.685L112 304v73.371L377.344 112H304c-8.731 0-15.829-6.994-15.997-15.685L288 96c0-8.731 6.994-15.83 15.685-15.997L304 80z" clip-rule="evenodd"/></svg>