<svg xmlns="http://www.w3.org/2000/svg" width="512" height="512" fill="none"><path fill="currentColor" fill-rule="evenodd" d="M479.997 159.685C479.829 150.994 472.731 144 464 144c-8.837 0-16 7.163-16 16v20l-.012 1.508C447.188 231.17 406.93 272 358 272H86.627l36.687-36.686.256-.263c5.991-6.266 5.905-16.203-.256-22.365-6.249-6.248-16.379-6.248-22.628 0l-64 64-.256.263c-5.99 6.266-5.905 16.203.256 22.365l64 64 .263.256c6.266 5.991 16.203 5.905 22.365-.256l.256-.263c5.991-6.266 5.905-16.203-.256-22.365L86.627 304H358l2.015-.017C426.377 302.875 480 247.15 480 180v-20z" clip-rule="evenodd"/></svg>