<svg xmlns="http://www.w3.org/2000/svg" width="512" height="512" fill="none"><path fill="currentColor" fill-rule="evenodd" d="M123.314 148.686c-6.249-6.248-16.379-6.248-22.628 0l-64 64-.256.263c-5.99 6.266-5.905 16.203.256 22.365l64 64 .263.256c6.266 5.991 16.203 5.905 22.365-.256l.256-.263c5.991-6.266 5.905-16.203-.256-22.365L86.627 240H358l1.48.012c48.751.822 88.52 42.15 88.52 91.988v20l.003.315C448.171 361.006 455.269 368 464 368c8.837 0 16-7.163 16-16v-20l-.016-2.031C478.905 263.054 424.616 208 358 208H86.627l36.687-36.686.256-.263c5.991-6.266 5.905-16.203-.256-22.365" clip-rule="evenodd"/></svg>