<svg xmlns="http://www.w3.org/2000/svg" width="512" height="512" fill="none"><path fill="currentColor" fill-rule="evenodd" d="M411.051 148.43c-6.266-5.991-16.203-5.905-22.365.256l-.256.263c-5.991 6.266-5.905 16.203.256 22.365L425.373 208H154l-2.015.017C85.623 209.125 32 264.85 32 332v20l.003.315C32.171 361.006 39.269 368 48 368c8.837 0 16-7.163 16-16v-20l.012-1.508C64.812 280.83 105.07 240 154 240h271.373l-36.687 36.686-.256.263c-5.991 6.266-5.905 16.203.256 22.365 6.249 6.248 16.379 6.248 22.628 0l64-64 .256-.263c5.991-6.266 5.905-16.203-.256-22.365l-64-64z" clip-rule="evenodd"/></svg>