<svg xmlns="http://www.w3.org/2000/svg" width="512" height="512" fill="none"><path fill="currentColor" fill-rule="evenodd" d="M63.997 159.685C63.829 150.994 56.731 144 48 144c-8.837 0-16 7.163-16 16v20l.016 2.031C33.096 248.946 87.384 304 154 304h271.373l-36.687 36.686-.256.263c-5.991 6.266-5.905 16.203.256 22.365 6.249 6.248 16.379 6.248 22.628 0l64-64 .256-.263c5.991-6.266 5.905-16.203-.256-22.365l-64-64-.263-.256c-6.266-5.991-16.203-5.905-22.365.256l-.256.263c-5.991 6.266-5.905 16.203.256 22.365L425.373 272H154l-1.48-.012C103.769 271.166 64 229.838 64 180v-20z" clip-rule="evenodd"/></svg>