<svg xmlns="http://www.w3.org/2000/svg" width="512" height="512" fill="none"><path fill="currentColor" fill-rule="evenodd" d="M256 8c-79.4 0-144 64.6-144 144s64.6 144 144 144 144-64.6 144-144S335.4 8 256 8m0 224c-44.183 0-80-35.817-80-80s35.817-80 80-80 80 35.817 80 80c-.05 44.162-35.838 79.95-80 80m.02-32c26.51 0 48-21.49 48-48s-21.49-48-48-48-48 21.49-48 48 21.49 48 48 48m58.8 117.88A176.9 176.9 0 0 0 403 248.74L492 408H377l-58 96-45.3-96.5zm-74.33 9.43c5.11.45 10.29.69 15.51.69a178 178 0 0 0 19.53-1.09L193 504l-58-96H20l89.2-159.06a176.12 176.12 0 0 0 131.29 78.37" clip-rule="evenodd"/></svg>