<svg xmlns="http://www.w3.org/2000/svg" width="512" height="512" fill="none"><path fill="currentColor" fill-rule="evenodd" d="M256.023 16c-79.529 0-144 64.471-144 144 0 23.178 5.477 45.078 15.206 64.475L34.037 392.23l-.175.322c-5.61 10.634 2.127 23.506 14.239 23.448l86.863-.42 43.318 72.617.202.329c6.739 10.74 22.815 9.732 28.105-1.905l49.435-108.754 49.434 108.754.163.349c5.506 11.423 21.594 12.205 28.143 1.227l43.318-72.617 86.864.42.365-.002c12.013-.201 19.572-13.162 13.71-23.749l-93.062-168.057c9.641-19.327 15.064-41.126 15.064-64.192 0-79.529-64.471-144-144-144m-14.664 316.8q.1-.228.206-.452l12.889-28.356c-42.806-.457-81.133-19.592-107.217-49.64l-71.95 129.516 59.515-.288a32 32 0 0 1 27.394 15.194l.248.409 27.661 46.371zm80.581 112.754L273.6 339.202l18.016-39.634c28.954-7.362 54.406-23.497 73.359-45.408L436.8 383.868l-59.559-.288-.478.001a32 32 0 0 0-27.159 15.599zm29.581-227.007a16 16 0 0 1 2.851-4.915c8.704-15.928 13.651-34.202 13.651-53.632 0-61.856-50.144-112-112-112s-112 50.144-112 112 50.144 112 112 112c7.118 0 14.081-.664 20.831-1.934q.483-.108.973-.187c31.133-6.143 57.631-25.187 73.694-51.332M256.023 80c-44.182 0-80 35.817-80 80s35.818 80 80 80 80-35.817 80-80-35.817-80-80-80m0 32c26.51 0 48 21.49 48 48s-21.49 48-48 48c-26.509 0-48-21.49-48-48s21.491-48 48-48" clip-rule="evenodd"/></svg>