<svg xmlns="http://www.w3.org/2000/svg" width="512" height="512" fill="none"><path fill="currentColor" fill-rule="evenodd" d="M256.25 16c-79.42 0-144 64.59-144 144s64.61 144 144 144 144-64.6 144-144-64.59-144-144-144m0 224c-44.183 0-80-35.817-80-80s35.817-80 80-80 80 35.817 80 80c-.055 44.16-35.84 79.945-80 80m0-32c26.515 0 48.01-21.49 48.01-48s-21.495-48-48.01-48c-26.516 0-48.01 21.49-48.01 48s21.494 48 48.01 48m149.85 54.71 71.53 129.17a16.92 16.92 0 0 1 1.41 14.12c-2.28 6.52-7.33 10-14 10h-78.77c-5.65-.03-10.89 2.45-13.78 7.3l-38.53 64.58a16.3 16.3 0 0 1-13.7 8.12c-5.93-.33-12.07-4.28-14.52-9.69l-30.27-66.59a7.92 7.92 0 0 1 0-6.6l36.86-81.1a16.1 16.1 0 0 1 8.72-8.25 176.5 176.5 0 0 0 78.31-61.42 4 4 0 0 1 6.74.36m-149.89 73.37q6.45 0 12.78-.47a4 4 0 0 1 3.92 5.64L206.8 486.4c-2.47 5.41-8.62 9.27-14.56 9.6a16.26 16.26 0 0 1-13.75-8l-38.66-64.67a15.28 15.28 0 0 0-13.62-7.33h-78a16.78 16.78 0 0 1-14.23-7.92c-2.89-4.88-2.46-10.88.28-15.88l72-129.4a4.002 4.002 0 0 1 6.77-.35 176.1 176.1 0 0 0 143.18 73.63" clip-rule="evenodd"/></svg>