<svg xmlns="http://www.w3.org/2000/svg" width="512" height="512" fill="none"><path fill="currentColor" fill-rule="evenodd" d="M477.637 38.073a4.75 4.75 0 0 0-3.55-3.66c-58.57-14.32-193.9 36.71-267.22 110a317 317 0 0 0-35.63 42.1c-22.61-2-45.22-.33-64.49 8.07-54.37 23.93-70.2 86.37-74.61 113.23a9.64 9.64 0 0 0 10.55 11.2l87.31-9.63c.062 6.583.459 13.158 1.19 19.7a19.52 19.52 0 0 0 5.7 12l33.81 33.73a19.6 19.6 0 0 0 12 5.7 193 193 0 0 0 19.59 1.19l-9.58 87.2a9.65 9.65 0 0 0 11.2 10.55c26.81-4.3 89.36-20.13 113.15-74.5 8.4-19.27 10.12-41.77 8.18-64.27a317.6 317.6 0 0 0 42.21-35.64c73.55-73.18 124.29-205.49 110.19-266.97m-183.57 179.67a47.999 47.999 0 0 1 33.93-81.952 48 48 0 0 1 44.349 29.639 48 48 0 0 1-10.419 52.313 47.95 47.95 0 0 1-67.86 0m-150.52 190.96c10.58-1.83 19.37-3.97 24.85-9.46 2.88-3.01 7.97-.52 7.6 3.66a59.7 59.7 0 0 1-17.13 35.16c-23.51 23.53-110.87 25.75-110.87 25.75s2.22-87.31 25.73-110.84a60 60 0 0 1 35.13-17.12 4.37 4.37 0 0 1 3.65 7.45c-3 3-7.82 15.77-9.45 24.88-4.27 24.03 16.72 44.57 40.49 40.52" clip-rule="evenodd"/></svg>