<svg xmlns="http://www.w3.org/2000/svg" width="512" height="512" fill="none"><path fill="currentColor" fill-rule="evenodd" d="M477.439 49.97a.3.3 0 0 0 0 .09c7.09 30.94-.7 78.17-21.39 129.53-20.78 51.6-51.88 100.26-85.31 133.52a315 315 0 0 1-33.95 29.55c.89 22.29-2.28 41.88-9.45 58.34-25.34 58.05-90.34 74.34-117.19 78.66-1.371.227-2.76.341-4.15.34a25 25 0 0 1-24.61-27.57v-.13l7-64.24-2.15-.23a34.28 34.28 0 0 1-20.71-9.91l-31.39-31.41a34.36 34.36 0 0 1-9.9-20.72q-.046-.444-.099-.923v-.006a106 106 0 0 1-.141-1.331l-64.32 7.02h-.13a25 25 0 0 1-27.19-29c4.39-26.7 20.88-91.73 78.62-117.14 16.57-7.23 36.24-10.41 58.57-9.41a321 321 0 0 1 29.55-33.83c33.16-33.22 82.22-64.22 134.58-85.22 51.95-20.8 98.83-28.55 128.63-21.28a20.4 20.4 0 0 1 15.13 15.3M306.325 237.707c21.968 9.093 47.251 4.054 64.054-12.767a58.3 58.3 0 0 0 0-83.07c-16.803-16.821-42.086-21.86-64.054-12.767s-36.294 30.526-36.294 54.302 14.325 45.209 36.294 54.302m22.524-80.917c-12.733.007-23.687 9.007-26.165 21.496-2.478 12.49 4.212 24.99 15.978 29.857s25.331.746 32.4-9.844 5.674-24.699-3.333-33.699a26.6 26.6 0 0 0-18.88-7.81m-177.92 232.32a16 16 0 0 1 11-2.67c8.766 1.077 15.001 9.053 13.93 17.82a60.5 60.5 0 0 1-17.39 35.74c-3.66 3.66-14.8 14.8-57.27 20.8a360 360 0 0 1-36.8 3.2H64a16 16 0 0 1-16-16.41 358 358 0 0 1 3.22-36.77c5.987-42.426 17.108-53.578 20.774-57.254l.006-.006a61.25 61.25 0 0 1 35.63-17.46 16 16 0 0 1 15.16 24.91l-12.15 21c-7.79 13.56 7.89 28.52 21 20 6.48-4.21 12.9-8.53 19.29-12.9" clip-rule="evenodd"/></svg>