<svg xmlns="http://www.w3.org/2000/svg" width="512" height="512" fill="none"><path fill="currentColor" fill-rule="evenodd" d="M199.071 141.272C267.706 72.687 396.91 20.574 460.408 34.438l1.769.409a20.4 20.4 0 0 1 15.127 14.951l.091.384.438 2.021c13.204 64.368-35.85 187.023-102.915 256.64l-2.038 2.093-2.09 2.102a310 310 0 0 1-31.081 27.355l-1.497 1.142-1.44 1.084.016.357c.803 20.816-1.899 39.73-8.765 56.296l-.358.855-.355.822c-11.579 26.486-32.14 46.125-58.82 59.837-18.85 9.688-39.045 15.617-58.357 18.719a25 25 0 0 1-28.902-26.757l.055-.574 7.047-64.22-.571-.056-1.992-.214c-7.536-.873-14.566-4.229-19.922-9.481l-31.695-31.693a34.15 34.15 0 0 1-9.915-20.34l-.217-2.014-.066-.669-64.394 7.07a25 25 0 0 1-20.742-7.725 25.01 25.01 0 0 1-6.476-21.193c3.197-19.409 9.123-39.465 18.807-58.268 13.725-26.652 33.352-47.21 59.863-58.866 16.74-7.303 36.047-10.231 57.265-9.442l1.286.052 1.061-1.403a311 311 0 0 1 25.886-29.87l1.326-1.339zm248.368-76.577-.06-.007c-23.597-2.675-61.239 4.91-101.833 21.154-47.17 18.876-92.184 46.762-122.929 77.144l-.97.964a279 279 0 0 0-31.294 36.96 16 16 0 0 1-14.504 6.695c-20.405-1.846-38.088.143-51.999 6.212-19.122 8.408-33.655 23.63-44.251 44.205-6.142 11.924-10.528 24.739-13.45 37.469l-.278 1.232-.214.972 71.597-7.859c9.204-1.011 17.292 5.967 17.728 15.129l.012.313.006.315c.046 5.015.321 10.025.825 15.014l.195 1.83c.044.435.219.845.545 1.221l.149.158 31.455 31.456c.308.311.702.52 1.13.601l.185.027.18.019c4.953.552 9.929.878 14.911.977l1.661.025c9.36.091 16.619 8.153 15.78 17.431l-.031.314-7.853 71.546.74-.158c12.419-2.708 25.033-6.841 36.817-12.637l1.138-.566 1.036-.527c20.574-10.574 35.777-25.094 44.119-44.176 5.887-13.508 7.954-30.404 6.483-49.99l-.156-1.935a16 16 0 0 1 6.725-14.452 278 278 0 0 0 35.89-30.122l1.234-1.234c31.006-30.834 59.237-75.7 78.182-122.703 16.093-39.925 23.665-77.209 21.224-101.861l-.077-.744zm-64.356 96.318c-9.085-21.937-30.49-36.24-54.233-36.24s-45.148 14.303-54.233 36.24c-9.085 21.936-4.06 47.185 12.731 63.972a58.65 58.65 0 0 0 83.018-.013c16.778-16.774 21.802-42.023 12.717-63.959m-54.233-4.24a26.7 26.7 0 0 0-18.864 45.595 26.65 26.65 0 0 0 37.742-.013 26.7 26.7 0 0 0-18.878-45.582M125.521 350.051c-1.077-8.771-9.059-15.008-17.83-13.932a61.06 61.06 0 0 0-35.707 17.399c-9.722 9.756-15.417 25.966-19.307 47.935-1.797 10.153-3.05 20.915-3.867 31.66a370 370 0 0 0-.565 8.775l-.08 1.598a235 235 0 0 0-.145 3.596l-.02.825c-.056 9.01 7.36 16.318 16.408 16.088.646-.017 1.689-.053 3.083-.114l1.813-.085c2.396-.118 4.983-.273 7.726-.468l1.85-.137c10.741-.816 21.499-2.069 31.647-3.866 22-3.895 38.221-9.6 47.94-19.324a60.7 60.7 0 0 0 17.42-35.776c1.052-8.774-5.208-16.739-13.982-17.791s-16.739 5.207-17.791 13.981l-.067.519a28.72 28.72 0 0 1-8.186 16.418c-3.529 3.531-14.497 7.449-29.658 10.237l-1.255.226-1.594.277c-6.938 1.175-14.294 2.087-21.736 2.761l-.517.046.047-.525c.727-8.019 1.728-15.937 3.04-23.341 2.797-15.803 6.83-27.28 10.435-30.899a29.04 29.04 0 0 1 16.967-8.253l.316-.042c8.604-1.227 14.679-9.123 13.615-17.788" clip-rule="evenodd"/></svg>