<svg xmlns="http://www.w3.org/2000/svg" width="513" height="512" fill="none"><path fill="currentColor" d="M246.922 395.576c-10.487 0-20.849.249-31.336 0-9.863-.25-17.728-7.866-18.852-17.604-1.124-9.613 5.119-18.727 14.482-21.473 3.246-.874 6.492-.624 9.738-.624h26.093c.375-.5.749-.999 1.124-1.623-1.498-.999-3.122-1.873-4.495-3.122-8.989-8.739-9.488-21.348-1.373-29.463 8.365-8.24 20.475-7.866 29.588 1.123 9.988 9.863 19.851 19.851 29.714 29.963 2.122 2.123 4.245 3.122 7.366 3.122 28.59-.125 57.055 0 85.645-.125 22.722-.125 40.325-15.856 41.698-37.205 1.374-21.348-13.858-39.701-35.206-42.323-2.872-.374-5.868-.499-8.865-.499H118.83c-35.457 0-64.67-19.726-76.78-51.561-19.477-51.188 17.603-106.869 72.41-107.743 42.323-.749 84.521-.125 126.844-.25h5.993c-.5-2.621-2.622-3.62-3.995-4.994-8.365-8.489-8.864-20.849-.999-28.964 7.99-8.24 20.35-8.365 28.839.125 13.109 12.86 26.218 25.843 39.077 39.077 8.615 8.864 8.74 20.475.125 29.339a2978 2978 0 0 1-39.701 39.701c-8.365 8.115-20.724 7.616-28.465-.624-7.491-7.99-7.241-20.101.749-28.216 1.498-1.498 3.121-2.996 4.495-4.369-.749-1.623-1.748-1.124-2.622-1.124-42.323 0-84.521-.125-126.844 0-16.73 0-29.589 7.491-36.955 22.597-6.991 14.358-5.493 28.59 4.12 41.449 8.49 11.361 20.35 15.981 34.208 15.981h187.27c29.588 0 59.302-.125 88.89 0 40.451.249 72.287 26.842 79.652 66.668 8.49 45.569-27.466 91.387-73.909 92.636-30.587.874-61.174.25-91.762.25-3.371 0-5.743.873-8.24 3.37-10.237 10.487-20.474 20.975-31.086 31.212-6.492 6.367-15.606 7.366-23.347 3.246-7.49-4.12-11.486-12.11-10.237-20.849.624-4.37 2.622-7.991 5.743-10.987 1.623-1.623 3.62-2.871 5.368-4.369 0-.625-.374-1.124-.749-1.748"/><path fill="currentColor" d="M416.463 76.218c33.085.125 59.802 26.967 59.802 59.927 0 33.084-27.092 59.926-60.301 59.926-32.835 0-59.677-27.216-59.427-60.176.25-33.209 26.967-59.801 59.926-59.677M156.658 375.85c-.125 33.459-26.967 60.051-60.3 59.801-32.835-.124-59.802-27.341-59.552-60.176.25-33.209 27.34-59.801 60.675-59.551 32.585.125 59.302 27.216 59.177 59.926"/></svg>