<svg xmlns="http://www.w3.org/2000/svg" width="512" height="515" fill="none"><path fill="currentColor" d="M426.664 107.377H85.331c-23.467 0-42.667 19.304-42.667 42.898v214.493c0 23.594 19.2 42.899 42.667 42.899h341.333c23.467 0 42.667-19.305 42.667-42.899V150.275c0-23.594-19.2-42.898-42.667-42.898m-85.333 32.174h85.333c6.4 0 10.667 4.289 10.667 10.724v42.899h-96zm-138.667 0h106.667v53.623H202.664zm-128 10.724c0-6.435 4.267-10.724 10.667-10.724h85.333v53.623h-96zm96 225.218H85.331c-6.4 0-10.667-4.29-10.667-10.725v-42.899h96zm138.667 0H202.664v-53.624h106.667zm128-10.725c0 6.435-4.267 10.725-10.667 10.725h-85.333v-53.624h96z"/></svg>