<svg xmlns="http://www.w3.org/2000/svg" width="513" height="512" fill="none"><path fill="currentColor" fill-rule="evenodd" d="M243.315 31.604c-22.009 2.367-44.82 10.614-62.865 22.727-3.868 2.597-20.981 16.17-38.029 30.164l-30.994 25.442-10.329.332c-8.862.286-11.03.659-15.27 2.63-6.933 3.222-11.71 7.875-15.052 14.663l-2.866 5.822v32.605l2.89 5.87c3.27 6.643 8.72 11.992 14.738 14.467 2.148.884 3.907 2.134 3.91 2.778.001.646-.763 4.207-1.7 7.914-14.762 58.459-14.617 126.259.405 188.143 1.681 6.926 3.056 13.117 3.056 13.756 0 .64-4.312 4.383-9.584 8.317-15.435 11.518-20.206 18.022-22.334 30.448-3.273 19.11 10.219 38.553 29.528 42.549 3.216.666 54.674.88 172.08.717l167.492-.234 5.892-2.791c7.495-3.551 13.264-9.32 16.815-16.815 2.581-5.448 2.785-6.555 2.719-14.684-.079-9.781-1.81-15.955-6.541-23.329-3.71-5.78-7.696-9.678-17.224-16.839-4.54-3.413-8.255-6.722-8.255-7.354s1.375-6.815 3.056-13.741c14.902-61.391 15.205-126.112.873-186.089-1.194-4.995-2.169-9.545-2.167-10.111s1.761-1.751 3.909-2.635c6.018-2.475 11.469-7.824 14.738-14.467l2.89-5.87v-32.605l-2.866-5.822c-3.341-6.788-8.119-11.441-15.052-14.663-4.234-1.968-6.412-2.344-15.203-2.627l-10.261-.332-23.149-18.956c-47.057-38.534-52.664-42.508-69.9-49.548-20.167-8.238-45.185-12.001-65.35-9.832m29.014 27.057c12.65 1.944 20.478 4.406 32.217 10.132 11.769 5.74 15.228 8.19 38.981 27.608l16.246 13.281-51.635.227c-28.399.124-74.847.124-103.217 0l-51.583-.227 18.392-15.026c10.116-8.264 20.766-16.627 23.667-18.585 13.845-9.342 31.698-15.907 49.237-18.109 6.509-.817 20.053-.475 27.695.7m145.449 79.218c2.015 2.016 2.015 21.598 0 23.614-1.246 1.246-17.09 1.382-161.275 1.382s-160.029-.136-161.275-1.382c-2.015-2.016-2.015-21.598 0-23.614 1.246-1.246 17.09-1.381 161.275-1.381s160.029.135 161.275 1.381m-19.836 58.626c9.219 35.039 13.387 75.043 11.544 110.782-1.485 28.793-4.862 50.698-12.031 78.031-5.097 19.433-5.234 20.448-3.33 24.672 1.238 2.744 4.627 5.747 16.768 14.858 13.746 10.316 15.321 11.77 16.302 15.043 1.377 4.599-.274 9.906-3.924 12.608l-2.482 1.838-163.044.227c-177.135.246-167.21.509-170.503-4.516-2.173-3.317-2.628-8.575-1.01-11.701.826-1.601 7.232-7.037 16.181-13.734 15.099-11.301 17.811-14.273 17.811-19.529 0-1.185-1.532-7.601-3.404-14.258-14.297-50.844-17.474-104.958-9.28-158.053 1.676-10.864 5.152-27.65 7.601-36.708l1.842-6.814h279.05zm-147.711 20.839c-3.265 1.776-9.959 8.983-16.372 17.627-7.395 9.968-14.202 25.087-15.655 34.774-.485 3.235-.881 3.907-2.033 3.453-4.301-1.697-17.614-3.981-26.166-4.49-8.973-.534-10.123-.422-13.795 1.356-5.265 2.549-7.629 7.187-7.629 14.967 0 8.833 2.507 23.512 5.609 32.852l2.863 8.617-2.496 1.474c-1.373.812-3.338 3.211-4.365 5.334-1.675 3.462-1.813 4.823-1.332 13.214 1.879 32.853 15.243 56.916 38.271 68.914 13.672 7.124 26.09 10.203 44.097 10.936 24.682 1.005 45.689-4.183 62.09-15.333 17.971-12.219 29.197-35.679 30.814-64.401.605-10.736-.382-14.191-5.135-17.983l-2.972-2.372 2.827-8.509c3.071-9.245 5.573-23.944 5.573-32.743 0-7.78-2.364-12.418-7.629-14.967-3.672-1.778-4.821-1.89-13.795-1.356-8.552.509-21.865 2.793-26.165 4.49-1.159.457-1.55-.24-2.056-3.665-.876-5.945-5.62-18.206-10.008-25.872-4.345-7.592-14.984-20.994-19.662-24.771-4.258-3.438-10.257-4.061-14.879-1.546m9.664 35.896c6.188 9.643 9.796 20.421 9.796 29.26 0 4.034-.345 4.738-4.619 9.409-2.541 2.775-5.508 6.234-6.594 7.685l-1.975 2.637-1.975-2.637c-1.085-1.451-4.053-4.91-6.594-7.685-4.274-4.671-4.619-5.375-4.619-9.409 0-6.131 1.546-12.737 4.535-19.368 2.894-6.422 7.604-14.094 8.653-14.094.383 0 1.91 1.892 3.392 4.202m-55.067 44.094q22.348 5.717 30.954 22.804c3.276 6.505 7.399 20.766 6.317 21.848-.342.343-1.495.076-2.56-.593-6.508-4.081-15.848-8.508-22.397-10.614-8.389-2.698-10.224-4.415-15.24-14.263-2.074-4.07-6.032-17.28-6.059-20.219-.01-1.013 1.774-.807 8.985 1.037m112.341-1.21c0 2.798-3.441 14.44-5.704 19.296-4.934 10.587-6.946 12.575-15.514 15.331-6.706 2.157-13.434 5.34-21.586 10.216-1.541.922-3.089 1.388-3.441 1.036-1.096-1.096 3-15.312 6.301-21.865 4.016-7.976 9.912-13.852 17.972-17.911 7.872-3.964 21.972-7.881 21.972-6.103M204.53 354.567c14.778 3.543 25.56 11.418 31.337 22.888 3.145 6.245 7.309 20.604 6.276 21.638-1.034 1.033-15.393-3.131-21.638-6.276-12.719-6.405-21.15-19.216-24.179-36.733-.313-1.813-.254-3.295.131-3.291.384.003 4.017.802 8.073 1.774m112.633-1.121c-.003.363-.802 3.978-1.774 8.034-3.525 14.706-11.018 25.039-22.55 31.1-6.036 3.171-20.879 7.609-21.931 6.557-1.083-1.083 2.48-13.843 5.757-20.619 5.657-11.698 14.454-18.825 28.497-23.085 7.734-2.346 12.011-3.054 12.001-1.987" clip-rule="evenodd"/><path fill="currentColor" d="M299.801 98a6 6 0 1 1-12 0 6 6 0 0 1 12 0M324.801 98a6 6 0 1 1-12 0 6 6 0 0 1 12 0M224.801 98a6 6 0 1 1-12 0 6 6 0 0 1 12 0M249.801 98a6 6 0 1 1-12 0 6 6 0 0 1 12 0M274.801 98a6 6 0 1 1-12 0 6 6 0 0 1 12 0M199.801 98a6 6 0 1 1-12 0 6 6 0 0 1 12 0M304.801 79a6 6 0 1 1-12 0 6 6 0 0 1 12 0M241.801 79a6 6 0 1 1-12 0 6 6 0 0 1 12 0M262.801 79a6 6 0 1 1-12 0 6 6 0 0 1 12 0M283.801 79a6 6 0 1 1-12 0 6 6 0 0 1 12 0M220.801 79a6 6 0 1 1-12 0 6 6 0 0 1 12 0"/></svg>