<svg xmlns="http://www.w3.org/2000/svg" width="256" height="256" fill="none"><path fill="currentColor" fill-rule="evenodd" d="M179.443 58.506c7.81 7.81 7.81 20.472 0 28.282l-10.627 10.627q.705-.02 1.41-.027c13.822-.127 27.202 3.683 38.65 10.822a71 71 0 0 1 12.608 10.019l-45.997 45.996 1.145 1.145a8.385 8.385 0 0 1-11.857 11.858l-1.145-1.145-45.997 45.996a70.8 70.8 0 0 1-10.018-12.607c-7.14-11.449-10.949-24.829-10.822-38.651q.006-.706.026-1.411l-9.793 9.793c-7.81 7.81-20.472 7.81-28.282 0l-31.648-31.648c-7.81-7.81-7.81-20.472 0-28.282l19.256-19.257L32.29 85.953c-7.81-7.81-7.81-20.473 0-28.283l25.62-25.619c7.81-7.81 20.471-7.81 28.281 0l14.065 14.064 19.258-19.258c7.81-7.81 20.472-7.81 28.282 0zm-11.312 16.969a4 4 0 0 0 0-5.656L136.482 38.17a4 4 0 0 0-5.656 0l-19.258 19.258 37.305 37.305zm-31.001 30.141L74.878 43.364a4 4 0 0 0-5.657 0l-25.62 25.62a4 4 0 0 0 0 5.656l14.064 14.064.002-.002 47.929 47.93a74.7 74.7 0 0 1 12.981-17.459 74.7 74.7 0 0 1 18.553-13.557m-79.465 5.713 37.305 37.305-19.257 19.256a4 4 0 0 1-5.656 0L38.41 136.242a4 4 0 0 1 0-5.656zm59.932 37.304-.09.089a57.6 57.6 0 0 0-4.716 22.246c-.087 9.491 2.203 18.682 6.529 26.799l77.851-77.851c-8.116-4.326-17.307-6.617-26.798-6.53-15.064.139-29.645 6.262-40.483 17.1a58.6 58.6 0 0 0-12.328 18.111z" clip-rule="evenodd"/><path fill="currentColor" d="M216.055 214.855c-10.506 10.891-24.379 17.905-39.534 20.064a8 8 0 0 1-2.256-15.839c11.7-1.666 22.292-7.057 30.276-15.333s13.003-19.071 14.267-30.852a8 8 0 1 1 15.907 1.706c-1.634 15.238-8.154 29.363-18.66 40.254"/><path fill="currentColor" d="M195.733 196.321c4.154-4.154 7.461-9.378 8.861-14.817a8 8 0 0 0-5.752-9.741 8 8 0 0 0-9.741 5.752c-.547 2.122-2.111 4.923-4.681 7.493s-5.371 4.133-7.493 4.68a8 8 0 0 0 3.99 15.493c5.439-1.4 10.663-4.707 14.816-8.86"/></svg>