<svg xmlns="http://www.w3.org/2000/svg" width="513" height="512" fill="none"><path fill="currentColor" d="M46.8 413.5c12.024-19.212 26-37.089 39.051-55.582 16.031-22.808 32.371-45.411 48.608-68.116 6.885-9.658 14.284-10.274 22.711-1.747 7.09 7.089 14.284 13.973 21.066 21.267 2.364 2.466 3.597 2.055 5.652-.103a435 435 0 0 1 16.854-16.849c2.158-2.055 2.261-3.288.102-5.445-12.64-12.432-25.074-25.171-37.817-37.603-12.64-12.329-17.367-26.507-11.098-43.459.616-1.644 0-2.466-1.028-3.493-10.893-10.89-21.889-21.781-32.782-32.774-1.336-1.336-2.261-1.541-3.597-.103-2.055 2.261-4.213 4.315-6.371 6.37-5.549 5.24-13.051 5.445-17.984.514-4.932-4.932-4.83-12.432.617-17.98a11712 11712 0 0 1 50.457-50.445c6.166-6.164 12.332-12.431 18.601-18.493 4.213-4.11 10.07-4.623 14.798-1.952 4.624 2.671 6.988 7.91 5.857 13.356-.822 4.007-3.802 6.575-6.474 9.247-5.447 5.445-5.447 5.445-.103 10.89 9.557 9.555 19.217 19.11 28.671 28.767 1.439 1.541 2.672 2.158 4.933 1.336 15.415-5.548 28.98-2.158 40.592 9.246 13.257 13.048 26.41 26.199 39.359 39.452 2.466 2.466 3.802 2.363 6.063-.102 5.549-5.856 11.304-11.507 17.059-17.158 1.747-1.644 1.952-2.568.103-4.418-7.708-7.397-15.107-15-22.711-22.602-7.194-7.295-6.577-15.206 1.644-21.062a42577 42577 0 0 1 118.898-84.966c7.194-5.137 12.743-4.623 19.012 1.644 10.687 10.582 21.272 21.267 31.856 31.85 6.166 6.266 6.68 11.814 1.542 19.006-28.26 39.555-56.52 79.213-84.883 118.767-5.961 8.322-13.771 8.836-21.17 1.541-7.604-7.5-15.106-15-22.608-22.602-1.541-1.644-2.466-1.85-4.111-.103a767 767 0 0 1-18.292 18.288c-1.747 1.643-1.541 2.671.103 4.212 5.138 5.034 10.585 9.863 13.668 16.747 2.158 4.726 3.802 9.452 3.597 14.589-.103 3.596 1.438 3.698 4.11 3.287 10.79-1.541 21.478-.924 32.165 1.747 15.415 3.801 28.569 11.404 39.873 22.397 5.344 5.137 5.138 12.637-.411 18.185-11.304 11.507-22.814 22.808-34.221 34.212-2.774 2.877-7.912 5.446-7.707 8.836.206 2.98 4.933 5.754 7.81 8.528 3.597 3.493 7.091 7.089 6.68 12.534-.411 4.829-2.775 8.527-7.296 10.582s-8.941 1.438-12.64-1.747c-3.7-3.185-7.194-6.678-10.482-10.376-1.85-1.952-2.878-1.85-4.728 0-12.948 13.15-26.102 26.096-39.153 39.143-7.913 7.911-14.49 7.603-21.889-.719-17.675-19.931-25.074-43.15-21.683-69.555.411-2.979-.205-4.006-3.391-4.109-12.332-.411-21.683-6.678-29.493-15.617-2.672-3.082-4.522-3.493-7.502-.205-5.241 5.753-10.893 11.199-16.545 16.541-1.747 1.747-1.85 2.671 0 4.418 7.604 7.397 15.106 15 22.711 22.603 7.193 7.294 6.577 15.102-1.747 21.061-39.565 28.254-79.129 56.61-118.796 84.863-7.193 5.137-12.743 4.521-19.011-1.643-10.585-10.48-21.067-21.062-31.652-31.542-2.26-2.26-3.802-4.828-5.343-7.602-.103-1.952-.103-3.802-.103-5.754m127.017-193.459c-.102 3.288 1.131 6.267 3.597 8.63 13.771 13.87 27.644 27.637 41.414 41.507 1.439 1.439 2.364 1.747 3.905.103 16.032-16.233 32.166-32.26 48.402-48.39 1.542-1.542 1.542-2.466 0-3.905-13.873-13.767-27.643-27.637-41.517-41.404-5.24-5.239-12.331-5.239-17.572 0-11.613 11.404-23.019 22.911-34.529 34.418-2.466 2.466-3.802 5.343-3.7 9.041m107.492 116.302c-.103 16.644 2.775 27.02 8.324 36.678 1.027 1.849 1.747 2.774 3.802.719a30157 30157 0 0 1 81.184-81.164c1.85-1.85 1.439-2.569-.617-3.699-20.244-11.096-40.797-11.918-60.939-.822-20.861 11.507-31.035 30-31.754 48.288m73.682-218.322c-.719.411-1.233.822-1.85 1.232-12.126 8.631-24.252 17.363-36.378 25.891-2.158 1.541-1.85 2.363-.206 4.007 14.901 14.794 29.802 29.692 44.6 44.692 1.952 1.952 2.774 1.541 4.213-.514 8.324-11.815 16.751-23.63 25.28-35.343 1.336-1.849 1.542-2.979-.205-4.726-11.304-11.096-22.506-22.397-33.707-33.596-.514-.513-1.13-1.027-1.747-1.643M196.22 362.233a21 21 0 0 0-1.439-1.644c-15.003-15-30.007-29.897-44.908-45-1.438-1.438-2.363-1.849-3.699.103l-26.205 36.678c-1.028 1.438-.822 2.158.411 3.39a2692 2692 0 0 1 34.221 34.213c1.335 1.335 2.26 1.335 3.802.205 12.126-8.733 24.252-17.363 36.378-25.993.514-.411 1.336-.822 1.439-1.952M406.99 134.87c.616-.822 1.233-1.438 1.644-2.055 8.632-12.123 17.264-24.246 25.999-36.267 1.131-1.541 1.028-2.466-.308-3.801a1254 1254 0 0 1-16.545-16.541c-1.233-1.233-2.158-1.644-3.802-.514a4043 4043 0 0 1-36.687 26.198c-1.747 1.233-1.542 2.055-.206 3.391a3532 3532 0 0 1 27.849 27.842 15.5 15.5 0 0 1 2.056 1.747M135.281 406.411c0-1.233-.822-1.644-1.336-2.157-9.249-9.247-18.6-18.493-27.746-27.843-2.056-2.157-2.775-.719-3.905.822-8.427 11.815-16.751 23.63-25.28 35.343-1.336 1.849-1.645 2.979.205 4.726 5.447 5.137 10.688 10.479 15.929 15.924 1.54 1.541 2.569 1.747 4.418.411 11.921-8.63 23.944-17.157 35.968-25.787.719-.514 1.233-1.028 1.747-1.439m120.234-104.486c2.98-.103 5.858-.925 8.118-3.082 12.024-11.918 24.047-23.836 35.865-35.959 4.625-4.726 4.316-11.302-.103-16.336-1.747-2.055-4.007-3.801-5.652-5.856-2.26-2.774-3.905-2.98-6.577-.206-13.667 13.973-27.54 27.637-41.311 41.507-2.466 2.466-6.988 4.726-6.577 7.706.309 2.774 4.419 5.137 6.886 7.705 2.466 2.672 5.549 4.315 9.351 4.521m-86.939-117.124c.514-.308.823-.513 1.131-.821 5.035-5.035 10.071-10.069 15.106-15 1.439-1.336.309-2.158-.514-2.98-10.379-10.479-20.861-20.856-31.24-31.336-1.439-1.438-2.261-1.438-3.597 0-4.521 4.726-9.248 9.35-13.873 13.87-1.336 1.233-1.644 2.055-.103 3.596 10.482 10.377 20.862 20.754 31.343 31.233.412.514 1.131.925 1.747 1.438M377.496 466c-.102-.102-.102-.308-.205-.411-7.091-3.801-9.968-8.527-8.632-14.486 1.438-6.267 6.063-9.555 14.078-9.863 32.577-1.13 58.473-27.021 59.295-59.795.309-11.095 9.763-15.821 16.443-13.253 5.035 1.952 8.426 6.267 8.324 11.918-1.131 34.418-16.854 60-47.169 76.438-8.735 4.726-18.19 7.397-28.055 8.63-.925.103-1.85.514-2.672.719-3.802.103-7.604.103-11.407.103"/><path fill="currentColor" d="M381.093 416.788c-6.68.103-12.229-4.932-12.64-11.507s4.316-12.226 10.996-13.048c9.66-1.233 12.537-4.109 13.667-13.562.823-6.678 6.372-11.506 12.949-11.095s11.612 5.856 11.612 12.534c-.103 19.829-16.648 36.472-36.584 36.678"/></svg>