<svg xmlns="http://www.w3.org/2000/svg" width="512" height="512" fill="none"><path fill="currentColor" fill-rule="evenodd" d="m392.24 46.06 73.7 73.7A47.68 47.68 0 0 1 480 153.7V416c0 35.346-28.654 64-64 64H96c-35.346 0-64-28.654-64-64V96c0-35.346 28.654-64 64-64h262.3a47.68 47.68 0 0 1 33.94 14.06M296 112H120a8 8 0 0 0-8 8v48a8 8 0 0 0 8 8h176a8 8 0 0 0 8-8v-48a8 8 0 0 0-8-8m-36.25 319.91c-33.005 1.55-63.567-17.351-76.924-47.572s-6.76-65.545 16.603-88.909c23.364-23.363 58.688-29.96 88.909-16.603s49.122 43.919 47.572 76.924c-1.964 41.221-34.939 74.196-76.16 76.16M304 352c0 26.51-21.49 48-48 48s-48-21.49-48-48 21.49-48 48-48 48 21.49 48 48" clip-rule="evenodd"/></svg>