<svg xmlns="http://www.w3.org/2000/svg" width="512" height="512" fill="none"><path fill="currentColor" fill-rule="evenodd" d="M358.3 32a48 48 0 0 1 33.513 13.63l.431.426 73.701 73.702a48 48 0 0 1 14.051 33.336l.004.606v264.128c-.102 33.951-27.326 61.512-61.192 62.161l-1.028.011H94.22a62.22 62.22 0 0 1-44-18.221 62.22 62.22 0 0 1-18.217-43.348L32 417.78V94.22a62.22 62.22 0 0 1 18.22-44A62.22 62.22 0 0 1 93.57 32.004L94.22 32zm0 32H94.22a30.22 30.22 0 0 0-21.372 8.848 30.22 30.22 0 0 0-8.844 20.871L64 94.22v323.56a30.22 30.22 0 0 0 8.848 21.372 30.23 30.23 0 0 0 20.871 8.844l.501.004h323.512c16.529-.05 29.947-13.303 30.262-29.722l.006-.498V153.7c0-4.11-1.578-8.054-4.398-11.023l-.286-.293-73.698-73.699a16 16 0 0 0-10.908-4.68zM256 272c44.183 0 80 35.817 80 79.98a79.92 79.92 0 0 1-23.408 56.612A79.9 79.9 0 0 1 256 432c-44.183 0-80-35.817-80-80s35.817-80 80-80m0 32c-26.51 0-48 21.49-48 48s21.49 48 48.02 48a47.92 47.92 0 0 0 33.945-14.035A47.94 47.94 0 0 0 304 352c0-26.51-21.49-48-48-48m48-224c17.496 0 31.713 14.042 31.996 31.471L336 112v64c0 17.496-14.042 31.713-31.471 31.996L304 208H112c-17.496 0-31.713-14.042-31.996-31.471L80 176v-64c0-17.496 14.042-31.713 31.471-31.996L112 80zm0 32H112v64h192z" clip-rule="evenodd"/></svg>