<svg xmlns="http://www.w3.org/2000/svg" width="512" height="512" fill="none"><path fill="currentColor" fill-rule="evenodd" d="M48 256c0-114.837 93.163-208 208-208s208 93.163 208 208-93.163 208-208 208S48 370.837 48 256m384 0c0-97.163-78.837-176-176-176S80 158.837 80 256s78.837 176 176 176 176-78.837 176-176m-80 24c8.731 0 15.829 6.994 15.997 15.685L368 296v28c0 24.058-19.307 43.606-43.272 43.994L324 368h-28c-8.837 0-16-7.163-16-16 0-8.731 6.994-15.829 15.685-15.997L296 336h28c6.525 0 11.834-5.209 11.996-11.695L336 324v-28c0-8.837 7.163-16 16-16m15.994-92.728C367.606 163.307 348.058 144 324 144h-28l-.315.003C286.994 144.171 280 151.269 280 160c0 8.837 7.163 16 16 16h28l.305.004C330.791 176.166 336 181.475 336 188v28l.003.315C336.171 225.006 343.269 232 352 232c8.837 0 16-7.163 16-16v-28zM160 280c8.731 0 15.829 6.994 15.997 15.685L176 296v28c0 6.525 5.209 11.834 11.695 11.996L188 336h28c8.837 0 16 7.163 16 16 0 8.731-6.994 15.829-15.685 15.997L216 368h-28c-24.058 0-43.606-19.307-43.994-43.272L144 324v-28c0-8.837 7.163-16 16-16m72-120c0-8.837-7.163-16-16-16h-28l-.728.006C163.307 144.394 144 163.942 144 188v28l.003.315C144.171 225.006 151.269 232 160 232c8.837 0 16-7.163 16-16v-28l.004-.305C176.166 181.209 181.475 176 188 176h28l.315-.003C225.006 175.829 232 168.731 232 160" clip-rule="evenodd"/></svg>