<svg xmlns="http://www.w3.org/2000/svg" width="512" height="512" fill="none"><path fill="currentColor" fill-rule="evenodd" d="M256 48C141.31 48 48 141.31 48 256s93.31 208 208 208 208-93.31 208-208S370.69 48 256 48m-24 320h-44c-24.289-.028-43.972-19.711-44-44v-44h32v44c0 6.627 5.373 12 12 12h44zm0-192h-44c-6.627 0-12 5.373-12 12v44h-32v-44c.028-24.289 19.711-43.972 44-44h44zm136 148c-.028 24.289-19.711 43.972-44 44h-44v-32h44c6.627 0 12-5.373 12-12v-44h32zm0-92h-32v-44c0-6.627-5.373-12-12-12h-44v-32h44c24.289.028 43.972 19.711 44 44z" clip-rule="evenodd"/></svg>