<svg xmlns="http://www.w3.org/2000/svg" width="512" height="512" fill="none"><path fill="currentColor" fill-rule="evenodd" d="M465.99 122.71C465.301 80.227 430.647 46 388 46h-46l-.364.003C329.654 46.197 320 55.97 320 68c0 12.15 9.85 22 22 22h46l.562.005C407.081 90.305 422 105.41 422 124v46l.003.364C422.197 182.346 431.971 192 444 192c12.15 0 22-9.85 22-22v-46zm.007 218.926C465.803 329.654 456.029 320 444 320c-12.15 0-22 9.85-22 22v46l-.005.562C421.695 407.081 406.59 422 388 422h-46l-.364.003C329.654 422.197 320 431.971 320 444c0 12.15 9.85 22 22 22h46l1.29-.01C431.773 465.301 466 430.647 466 388v-46zM68 320c12.029 0 21.803 9.654 21.997 21.636L90 342v46c0 18.59 14.919 33.695 33.438 33.995L124 422h46c12.15 0 22 9.85 22 22 0 12.029-9.654 21.803-21.636 21.997L170 466h-46c-42.647 0-77.3-34.227-77.99-76.71L46 388v-46c0-12.15 9.85-22 22-22M192 68c0-12.15-9.85-22-22-22h-46l-1.29.01C80.227 46.7 46 81.353 46 124v46l.003.364C46.197 182.346 55.97 192 68 192c12.15 0 22-9.85 22-22v-46l.005-.562C90.305 104.919 105.41 90 124 90h46l.364-.003C182.346 89.803 192 80.03 192 68" clip-rule="evenodd"/></svg>