<svg xmlns="http://www.w3.org/2000/svg" width="512" height="512" fill="none"><path fill="currentColor" fill-rule="evenodd" d="M256 48C141.31 48 48 141.31 48 256s93.31 208 208 208 208-93.31 208-208S370.69 48 256 48m-40 320h-28c-24.289-.028-43.972-19.711-44-44v-28c0-8.837 7.163-16 16-16s16 7.163 16 16v28c0 6.627 5.373 12 12 12h28c8.837 0 16 7.163 16 16s-7.163 16-16 16m0-192h-28c-6.627 0-12 5.373-12 12v28c0 8.837-7.163 16-16 16s-16-7.163-16-16v-28c.028-24.289 19.711-43.972 44-44h28c8.837 0 16 7.163 16 16s-7.163 16-16 16m152 148c-.028 24.289-19.711 43.972-44 44h-28c-8.837 0-16-7.163-16-16s7.163-16 16-16h28c6.627 0 12-5.373 12-12v-28c0-8.837 7.163-16 16-16s16 7.163 16 16zm0-108c0 8.837-7.163 16-16 16s-16-7.163-16-16v-28c0-6.627-5.373-12-12-12h-28c-8.837 0-16-7.163-16-16s7.163-16 16-16h28c24.289.028 43.972 19.711 44 44z" clip-rule="evenodd"/></svg>