<svg xmlns="http://www.w3.org/2000/svg" width="512" height="512" fill="none"><path fill="currentColor" fill-rule="evenodd" d="M463.99 118.809C463.355 79.594 431.367 48 392 48h-56l-.315.003C326.994 48.171 320 55.269 320 64c0 8.837 7.163 16 16 16h56l.661.005C414.448 80.36 432 98.13 432 120v56l.003.315C432.171 185.006 439.269 192 448 192c8.837 0 16-7.163 16-16v-56zm.007 216.876C463.829 326.994 456.731 320 448 320c-8.837 0-16 7.163-16 16v56l-.005.661C431.641 414.448 413.87 432 392 432h-56l-.315.003C326.994 432.171 320 439.269 320 448c0 8.837 7.163 16 16 16h56l1.191-.01C432.406 463.355 464 431.367 464 392v-56zM64 320c8.731 0 15.83 6.994 15.997 15.685L80 336v56c0 21.87 17.552 39.641 39.339 39.995L120 432h56c8.837 0 16 7.163 16 16 0 8.731-6.994 15.829-15.685 15.997L176 464h-56c-39.367 0-71.354-31.594-71.99-70.809L48 392v-56c0-8.837 7.163-16 16-16M192 64c0-8.837-7.163-16-16-16h-56l-1.191.01C79.594 48.646 48 80.633 48 120v56l.003.315C48.171 185.006 55.269 192 64 192c8.837 0 16-7.163 16-16v-56l.005-.661C80.36 97.552 98.13 80 120 80h56l.315-.003C185.006 79.829 192 72.731 192 64" clip-rule="evenodd"/></svg>