<svg xmlns="http://www.w3.org/2000/svg" width="512" height="512" fill="none"><path fill="currentColor" fill-rule="evenodd" d="M496.921 190.39v.11q.078.748.08 1.5v176a16.003 16.003 0 0 1-16.77 15.98c-8.61-.43-15.23-7.82-15.23-16.43V223.02a1.998 1.998 0 0 0-3-1.74l-197.08 112.61a16 16 0 0 1-15.88 0l-224-128a16 16 0 0 1 0-27.78l224-128a16 16 0 0 1 15.88 0l224 128a16 16 0 0 1 8 12.28m-247.86 175.5a16 16 0 0 0 15.88 0l140.06-80.05a8 8 0 0 1 12 6.94V368a16 16 0 0 1-8.23 14l-144 80a16 16 0 0 1-15.54 0l-144-80a16 16 0 0 1-8.23-14v-75.22a8 8 0 0 1 12-6.94z" clip-rule="evenodd"/></svg>