<svg xmlns="http://www.w3.org/2000/svg" width="512" height="512" fill="none"><path fill="currentColor" fill-rule="evenodd" d="m248.062 50.108-224 128c-10.75 6.142-10.75 21.642 0 27.784L96 246.999V368l.004.363a16 16 0 0 0 8.226 13.624l143.746 79.858a15.9 15.9 0 0 0 7.969 2.155h.113a15.9 15.9 0 0 0 7.966-2.155l143.746-79.858.315-.18A16 16 0 0 0 416 368V246.999l48-27.428V368l.003.315C464.171 377.006 471.269 384 480 384c8.837 0 16-7.163 16-16V192c0-5.111-2.398-10.223-7.195-13.361a16 16 0 0 0-1.136-.685L263.938 50.108a16 16 0 0 0-15.876 0M272 420.807l112-62.222v-93.3l-112 64zm-32-91.522-112-64v93.3l112 62.222zm16-246.858L447.751 192 256 301.572 64.248 192z" clip-rule="evenodd"/></svg>