<svg xmlns="http://www.w3.org/2000/svg" width="512" height="512" fill="none"><path fill="currentColor" fill-rule="evenodd" d="M256 64C150.13 64 64 150.13 64 256s86.13 192 192 192 192-86.13 192-192S361.87 64 256 64m80 294.63-54.15-54.15c-37.51 25.811-88.509 18.779-117.634-16.219s-26.775-86.427 5.422-118.623c32.196-32.197 83.624-34.547 118.623-5.422 34.998 29.125 42.03 80.124 16.219 117.634L358.63 336zM288 232c0 30.928-25.072 56-56 56s-56-25.072-56-56 25.072-56 56-56 56 25.072 56 56" clip-rule="evenodd"/></svg>