<svg xmlns="http://www.w3.org/2000/svg" width="512" height="512" fill="none"><path fill="currentColor" fill-rule="evenodd" d="M221.091 48C125.495 48 48 125.495 48 221.09s77.495 173.09 173.09 173.09c42.036 0 80.572-14.985 110.559-39.904l105.037 105.038.263.256c6.266 5.991 16.203 5.905 22.365-.256 6.248-6.249 6.248-16.379 0-22.628L354.276 331.649c24.919-29.987 39.904-68.523 39.904-110.559-.006-95.593-77.497-173.084-173.089-173.09m-.002 32c77.92.005 141.086 63.171 141.091 141.091 0 77.921-63.168 141.089-141.09 141.089S80 299.012 80 221.09 143.168 80 221.089 80" clip-rule="evenodd"/></svg>