<svg xmlns="http://www.w3.org/2000/svg" width="512" height="512" fill="none"><path fill="currentColor" fill-rule="evenodd" d="M464 428 339.92 303.9a160.48 160.48 0 0 0 30.72-94.58C370.64 120.37 298.27 48 209.32 48S48 120.37 48 209.32s72.37 161.32 161.32 161.32a160.48 160.48 0 0 0 94.58-30.72L428 464zM209.32 319.69c-44.646.004-84.899-26.888-101.986-68.135S99.69 162.829 131.26 131.26c31.569-31.57 79.048-41.013 120.295-23.926s68.139 57.34 68.135 101.986c-.072 60.926-49.444 110.298-110.37 110.37" clip-rule="evenodd"/></svg>