<svg xmlns="http://www.w3.org/2000/svg" width="512" height="512" fill="none"><path fill="currentColor" fill-rule="evenodd" d="M456.69 421.39 362.6 327.3a173.8 173.8 0 0 0 34.84-104.58C397.44 126.38 319.06 48 222.72 48S48 126.38 48 222.72s78.38 174.72 174.72 174.72A173.8 173.8 0 0 0 327.3 362.6l94.09 94.09c9.889 8.84 24.96 8.418 34.339-.961s9.801-24.45.961-34.339M97.92 222.72c0-68.925 55.875-124.8 124.8-124.8s124.8 55.875 124.8 124.8-55.875 124.8-124.8 124.8c-68.891-.083-124.717-55.909-124.8-124.8" clip-rule="evenodd"/></svg>