<svg xmlns="http://www.w3.org/2000/svg" width="512" height="512" fill="none"><path fill="currentColor" fill-rule="evenodd" d="M64 256c0-106.039 85.961-192 192-192a192 192 0 0 1 192 192c0 106.039-85.961 192-192 192S64 362.039 64 256m305.137-113.137A160 160 0 0 0 256 96c-88.366 0-160 71.634-160 160s71.634 160 160 160 160-71.634 160-160a160 160 0 0 0-46.863-113.137M144 232c0-48.601 39.399-88 88-88a88 88 0 0 1 62.225 25.775A88 88 0 0 1 320 232c0 18.52-5.721 35.704-15.492 49.88l42.806 42.806c6.248 6.249 6.248 16.379 0 22.628-6.162 6.161-16.099 6.247-22.365.256l-.263-.256-42.806-42.806C267.704 314.279 250.52 320 232 320c-48.601 0-88-39.399-88-88m127.598-39.598A56 56 0 0 0 232 176c-30.928 0-56 25.072-56 56s25.072 56 56 56 56-25.072 56-56a56 56 0 0 0-16.402-39.598" clip-rule="evenodd"/></svg>