<svg xmlns="http://www.w3.org/2000/svg" width="512" height="512" fill="none"><path fill="currentColor" d="M420.803 56.49c4.375-2.293 9.66-1.908 13.685.944a13.15 13.15 0 0 1 5.373 12.635l-48.125 323.75a13.2 13.2 0 0 1-6.16 9.275 13.2 13.2 0 0 1-6.825 1.908c-1.435 0-2.87-.245-4.235-.7l-183.453-62.703 180.39-217.332-233.117 199.325-109.463-37.415a13.13 13.13 0 0 1-8.837-11.428 13.16 13.16 0 0 1 7.017-12.635zM173.125 444.377v-81.165l71.173 24.325-47.478 64.61a13.12 13.12 0 0 1-10.57 5.355c-1.365 0-2.747-.21-4.095-.648a13.15 13.15 0 0 1-9.03-12.477"/></svg>