<svg xmlns="http://www.w3.org/2000/svg" width="512" height="512" fill="none"><path fill="currentColor" fill-rule="evenodd" d="M182.173 456.864a13 13 0 0 0 4.077.648c4.095 0 8.05-1.925 10.587-5.338l63.766-86.794 113.913 38.932c1.365.455 2.8.7 4.235.7 2.38 0 4.742-.648 6.807-1.908a13.13 13.13 0 0 0 6.178-9.275l48.125-323.75.004-.027c.607-4.128-.751-8.471-4.03-11.523-4.309-4.023-10.654-4.592-15.526-1.78L27.036 262.123c-4.638 2.433-7.385 7.403-7 12.635a13.19 13.19 0 0 0 8.855 11.428l144.234 49.295v108.905c0 5.67 3.64 10.692 9.048 12.477m17.202-112.41v59.91l35.181-47.886zm10.405-24.19L407.672 108l-39.596 266.369zm155.202-204.999L182.556 310.959l-116.25-39.735z" clip-rule="evenodd"/></svg>