<svg xmlns="http://www.w3.org/2000/svg" width="512" height="512" fill="none"><path fill="currentColor" fill-rule="evenodd" d="M398 56.66c41.82 17.45 65.19 42.2 66 69.85V144c0 6.42-5.2 16.49-14.63 24.69-11.13 9.73-27.65 19.33-47.78 27.73C358.76 214.32 304.33 225 256 225s-102.76-10.64-145.59-28.54c-20.13-8.4-36.65-18-47.78-27.73C53.2 160.48 48 150.41 48 144l.09-17.65c.85-27.58 24.22-52.28 66-69.69C152.26 40.76 202.66 32 256 32s103.74 8.76 142 24.66M98.07 397c46.54 19.39 105.58 31 157.93 31s111.38-11.61 157.92-31c16.03-6.748 29.893-17.416 41.416-26.282A734 734 0 0 1 457.57 369a3.999 3.999 0 0 1 6.43 3.18v12.58c0 28.07-23.49 53.24-66.14 70.82C359.7 471.33 309.33 480 256 480s-103.71-8.67-141.86-24.42C71.49 437.98 48 412.83 48 384.76v-12.58a4 4 0 0 1 6.43-3.18l2.128 1.637C68.102 379.528 82 390.231 98.07 397m315.85-171c-46.53 19.43-105.57 31-157.92 31s-111.39-11.57-157.93-31c-16.14-6.76-30.09-17.535-41.663-26.474L54.43 198a4 4 0 0 0-6.43 3.22V232c0 6.41 5.2 14.48 14.63 22.73 11.13 9.74 27.65 19.33 47.78 27.74C153.24 300.34 207.67 311 256 311s102.76-10.68 145.59-28.57c20.13-8.41 36.65-18 47.78-27.74C458.8 246.47 464 238.41 464 232v-30.78a4 4 0 0 0-6.43-3.18l-2.221 1.707v.001c-11.525 8.868-25.393 19.539-41.429 26.252M256 343c52.35 0 111.38-11.59 157.92-31 16.033-6.731 29.899-17.4 41.423-26.268l2.227-1.712a3.999 3.999 0 0 1 6.43 3.18V317c0 6.37-5.2 14.44-14.63 22.69-11.13 9.74-27.65 19.33-47.78 27.74C358.76 385.32 304.34 396 256 396s-102.76-10.68-145.59-28.55c-20.13-8.41-36.66-18-47.79-27.74C53.2 331.47 48 323.41 48 317v-29.8a4 4 0 0 1 6.43-3.2q1.04.8 2.107 1.623C68.085 294.525 81.99 305.246 98.07 312c46.54 19.41 105.58 31 157.93 31" clip-rule="evenodd"/></svg>