<svg xmlns="http://www.w3.org/2000/svg" width="512" height="512" fill="none"><path fill="currentColor" fill-rule="evenodd" d="M48 128v-.76q0-.492.03-.977C49.922 70.355 143.126 32 256 32s206.077 38.354 207.971 94.262q.02.33.026.663l.003.315v257.52c0 56.464-93.965 95.24-208 95.24-112.895 0-206.119-38.004-207.972-93.551L48 384.76V128m32 138.727V300c0 13.416 15.927 29.101 46.403 41.798C160.106 355.839 206.407 364 256 364s95.895-8.161 129.597-22.202c30.172-12.57 46.083-28.068 46.398-41.395L432 300v-33.273C395.01 293.643 329.687 310 256 310s-139.01-16.357-176-43.273M432 214l-.005.403c-.315 13.327-16.226 28.825-46.398 41.395C351.895 269.839 305.593 278 256 278s-95.894-8.161-129.597-22.202C95.927 243.101 80 227.416 80 214v-33.266C116.985 207.648 182.3 224 256 224s139.015-16.352 176-43.266zm0 138.727C395.01 379.643 329.687 396 256 396s-139.01-16.357-176-43.273v32.033c0 13.163 15.901 28.673 46.353 41.24 33.717 13.913 80.036 22 129.647 22s95.93-8.087 129.647-22c30.147-12.441 46.034-27.767 46.348-40.844l.005-.396zM432 128c0-13.421-15.92-29.104-46.389-41.8C351.913 72.16 305.611 64 256 64s-95.913 8.16-129.611 22.2C95.92 98.897 80 114.58 80 128s15.92 29.104 46.389 41.799C160.087 183.84 206.389 192 256 192s95.913-8.16 129.611-22.201C416.08 157.104 432 141.421 432 128" clip-rule="evenodd"/></svg>