<svg xmlns="http://www.w3.org/2000/svg" width="512" height="512" fill="none"><path fill="currentColor" fill-rule="evenodd" d="M111.69 201.14c-20.18-8.43-36.77-18.08-48-27.92-6.07-5.31-10.85-10.12-13.43-12.85a8 8 0 0 1-2.21-5.54V128.5c.95-28.72 24.8-54.28 67.21-71.97C153.17 40.71 203.16 32 256 32s102.83 8.71 140.84 24.53c42.5 17.73 66.37 43.35 67.21 72.14v26.16a8 8 0 0 1-2.22 5.54c-2.62 2.73-7.41 7.54-13.47 12.85-11.23 9.84-27.82 19.49-47.95 27.92-42.48 17.76-96.45 28.37-144.36 28.37s-101.88-10.61-144.36-28.37M256 421.05c49.4 0 106-11.05 153.43-31.18 47.43-20.12 54.57-36.71 54.57-36.71v38.2c0 31.15-18 43.64-67.32 64.35C358.87 471.59 308.82 480 256 480s-102.87-8.41-140.68-24.29C66 435 48 422.51 48 391.36v-38.2s6.99 16.83 54.56 36.71S206.6 421.05 256 421.05m153.43-199.14C365 241 305.4 253.09 256 253.09s-108.87-12.27-153.43-31.18S48 185.2 48 185.2v47.36c.08 7.52 5.5 16.2 15.69 25.13 11.24 9.84 27.82 19.5 48 27.92C154.12 303.38 208.09 314 256 314s101.88-10.6 144.36-28.37c20.13-8.42 36.72-18.08 47.95-27.92 10.25-9 15.68-17.71 15.69-25.27V185.2s-10.13 17.62-54.57 36.71M256 337.56c49.4 0 106-11.56 153.43-31.18 47.44-19.62 54.62-36.71 54.62-36.71v46.38c-.08 7.52-5.5 16.2-15.69 25.13-11.23 9.84-27.82 19.49-47.95 27.92-42.48 17.77-96.44 28.37-144.36 28.37s-101.88-10.6-144.36-28.37c-20.19-8.42-36.77-18.08-48-27.92C53.44 332.2 48 323.47 48 315.92v-46.25s11.01 18.33 54.57 36.71S206.6 337.56 256 337.56" clip-rule="evenodd"/></svg>