<svg xmlns="http://www.w3.org/2000/svg" width="512" height="512" fill="none"><path fill="currentColor" fill-rule="evenodd" d="M255.981 176c-44.183 0-80 35.817-80 80s35.817 80 80 80 80-35.817 80-80c-.132-44.128-35.872-79.868-80-80m172.72 80a165 165 0 0 1-1.64 22.34l48.69 38.12a11.59 11.59 0 0 1 2.63 14.78l-46.06 79.52a11.64 11.64 0 0 1-14.14 4.93l-57.25-23a176.6 176.6 0 0 1-38.82 22.67l-8.56 60.78a11.93 11.93 0 0 1-11.51 9.86h-92.12a12 12 0 0 1-11.51-9.53l-8.56-60.78a169.3 169.3 0 0 1-38.82-22.69l-57.25 23a11.64 11.64 0 0 1-14.14-4.92l-46.06-79.51a11.59 11.59 0 0 1 2.63-14.78l48.69-38.12a175 175 0 0 1-1.64-22.67c.042-7.475.59-14.939 1.64-22.34l-48.69-38.12a11.59 11.59 0 0 1-2.63-14.78l46.06-79.52a11.64 11.64 0 0 1 14.14-4.93l57.25 23a176.6 176.6 0 0 1 38.82-22.67l8.56-60.78a11.93 11.93 0 0 1 11.51-9.86h92.12a12 12 0 0 1 11.51 9.53l8.56 60.78a169.3 169.3 0 0 1 38.87 22.69l57.2-23a11.64 11.64 0 0 1 14.14 4.92l46.06 79.52a11.59 11.59 0 0 1-2.63 14.78l-48.69 38.12a175 175 0 0 1 1.64 22.66" clip-rule="evenodd"/></svg>