<svg xmlns="http://www.w3.org/2000/svg" width="512" height="512" fill="none"><path fill="currentColor" fill-rule="evenodd" d="m470.392 300-.47-.38-31.56-24.75a16.11 16.11 0 0 1-6.1-13.33v-11.56a16 16 0 0 1 6.11-13.22l31.55-24.76.47-.38c10.05-8.372 12.548-22.795 5.9-34.06l-42.71-73.9a1.6 1.6 0 0 1-.13-.22c-6.678-11.098-20.324-15.85-32.45-11.3l-.35.13-37.1 14.93a15.94 15.94 0 0 1-14.47-1.29 180 180 0 0 0-10-5.86 15.94 15.94 0 0 1-8.19-11.82l-5.59-39.59-.12-.72c-2.508-12.64-13.535-21.788-26.42-21.92h-85.52c-13.087.042-24.248 9.49-26.45 22.39l-.09.56-5.57 39.67a16 16 0 0 1-8.13 11.82 175 175 0 0 0-10 5.82 15.92 15.92 0 0 1-14.43 1.27l-37.13-15-.35-.14c-12.145-4.555-25.81.216-32.48 11.34l-.13.22-42.77 73.95c-6.659 11.276-4.16 25.717 5.9 34.1l.47.38 31.56 24.75a16.11 16.11 0 0 1 6.1 13.33v11.56a16 16 0 0 1-6.11 13.22L42.082 300l-.47.38c-10.05 8.372-12.549 22.795-5.9 34.06l42.71 73.9q.074.105.13.22c6.677 11.098 20.323 15.85 32.45 11.3l.35-.13 37.07-14.93a15.94 15.94 0 0 1 14.47 1.29 172 172 0 0 0 10 5.86 15.94 15.94 0 0 1 8.19 11.82l5.56 39.59.12.72c2.513 12.661 13.572 21.816 26.48 21.92h85.52c13.087-.042 24.248-9.49 26.45-22.39l.09-.56 5.57-39.67a16 16 0 0 1 8.18-11.82c3.42-1.84 6.76-3.79 10-5.82a15.92 15.92 0 0 1 14.43-1.27l37.13 14.95.35.14c12.144 4.563 25.815-.209 32.48-11.34q.059-.113.13-.22l42.71-73.89c6.671-11.275 4.176-25.725-5.89-34.11m-134.48-40.24c-2.03 43.161-37.965 76.911-81.168 76.232-43.203-.678-78.061-35.54-78.734-78.743s33.081-79.135 76.242-81.159a80.21 80.21 0 0 1 83.66 83.67m-31.91-3.76c0 26.51-21.491 48-48 48-26.51 0-48-21.49-48-48s21.49-48 48-48c26.509 0 48 21.49 48 48" clip-rule="evenodd"/></svg>