<svg xmlns="http://www.w3.org/2000/svg" width="512" height="512" fill="none"><path fill="currentColor" fill-rule="evenodd" d="m298.908 26 .139.002c12.689.22 23.528 9.213 26.085 21.645l.094.497.078.5 6.713 47.765c.002.02.012.036.068.066l.05.026a171 171 0 0 1 22.393 12.98l1.25.865 45.027-18.124.141-.054c12.053-4.59 25.644.055 32.378 11.01l.211.348 42.846 74.13c6.589 11.33 4.018 25.764-6.08 34.12l-.32.259-38.19 29.983-.015.02-.003.024.016.197c.395 4.945.601 9.403.601 13.835q-.031 5.266-.387 10.517l-.128 1.749-.112 1.353 38.266 30.014.252.205c9.975 8.268 12.596 22.47 6.298 33.713l-.206.361-42.861 74.156c-6.581 11.096-20.117 15.916-32.207 11.525l-.527-.198-44.987-18.114c-.034-.014-.073-.009-.176.063a180.4 180.4 0 0 1-22.177 13.044l-1.415.694-6.748 48.013-.064.396c-2.205 12.617-12.942 21.945-25.707 22.4l-.565.014h-85.847l-.139-.001c-12.689-.22-23.528-9.213-26.085-21.644l-.094-.498-.078-.499-6.713-47.767c-.002-.018-.012-.035-.068-.065l-.05-.026a171 171 0 0 1-22.393-12.979l-1.25-.866-45.027 18.124-.141.055c-12.053 4.589-25.644-.056-32.378-11.011l-.21-.348-42.847-74.13c-6.59-11.33-4.018-25.764 6.08-34.12l.32-.259 38.143-29.947.015-.019.004-.024-.012-.129c-.42-4.869-.639-9.428-.639-13.876 0-4.532.22-9.095.637-13.699l-38.2-30.009q-.228-.178-.448-.364c-9.816-8.301-12.346-22.382-6.099-33.542l.207-.362 42.861-74.156c6.581-11.096 20.117-15.916 32.208-11.525l.526.198 44.987 18.114c.034.014.073.009.177-.063a180.5 180.5 0 0 1 22.176-13.044l1.414-.695 6.749-48.012.064-.395c2.205-12.618 12.942-21.946 25.707-22.401l.565-.014zm-4.604 32h-76.557l-6.08 43.265a31.94 31.94 0 0 1-16.817 23.893l-.43.221-.441.219a148 148 0 0 0-18.221 10.485l-1.15.784c-8.714 6.073-19.858 7.437-29.821 3.649l-.473-.184-40.527-16.32-38.208 66.106 34.334 26.971c8.227 6.451 12.767 16.499 12.2 26.984l-.03.492-.038.5a120 120 0 0 0-.515 10.905c0 3.182.147 6.517.438 10.131l.114 1.355c.826 10.461-3.524 20.668-11.705 27.367l-.386.312-34.444 27.042 38.205 66.102 40.526-16.313a32.02 32.02 0 0 1 29.402 2.87l.428.284.418.286a139 139 0 0 0 17.929 10.63l1.241.607a32.09 32.09 0 0 1 17.895 23.956l.073.484L217.695 454h76.557l6.081-43.265a31.94 31.94 0 0 1 16.818-23.893l.429-.221.441-.219a148 148 0 0 0 18.221-10.485l1.15-.784c8.714-6.073 19.858-7.437 29.821-3.649l.473.184 40.526 16.319 38.209-66.108-41.435-32.499a16 16 0 0 1-6.053-14.117l.039-.361.047-.361c.876-6.174 1.335-12.4 1.371-18.541 0-3.167-.145-6.526-.431-10.316l-.068-.883-.025-.295a32.06 32.06 0 0 1 11.757-27.332l.386-.309 34.443-27.043-38.205-66.102-40.525 16.314a32.01 32.01 0 0 1-29.402-2.87l-.428-.284-.418-.286c-5.723-4-11.738-7.564-17.929-10.63l-1.241-.607a32.09 32.09 0 0 1-17.895-23.956l-.073-.484zm-30.415 118.39c37.921 3.809 67.912 33.8 71.724 71.747 3.321 33.633-14.85 65.724-45.399 80.178s-66.885 8.151-90.783-15.746c-23.897-23.898-30.199-60.234-15.746-90.783s46.545-48.72 80.204-45.396m-51.278 59.082c-8.672 18.329-4.891 40.131 9.448 54.469 14.338 14.339 36.14 18.12 54.469 9.448s29.232-27.927 27.242-48.08c-2.288-22.777-20.302-40.791-43.053-43.076-20.179-1.993-39.434 8.909-48.106 27.239" clip-rule="evenodd"/></svg>