<svg xmlns="http://www.w3.org/2000/svg" width="512" height="512" fill="none"><path fill="currentColor" fill-rule="evenodd" d="M324.69 139.31 272 86.63V176h-32V86.63l-52.69 52.68c-6.291 5.976-16.198 5.85-22.334-.286s-6.262-16.043-.286-22.334l80-80c6.248-6.243 16.372-6.243 22.62 0l80 80c5.976 6.291 5.85 16.199-.286 22.334-6.136 6.136-16.043 6.262-22.334.286M240 176H136c-30.914.033-55.967 25.086-56 56v192c.033 30.914 25.086 55.967 56 56h240c30.914-.033 55.967-25.086 56-56V232c-.033-30.914-25.086-55.967-56-56H272v145c0 8.837-7.163 16-16 16s-16-7.163-16-16z" clip-rule="evenodd"/></svg>