<svg xmlns="http://www.w3.org/2000/svg" width="512" height="512" fill="none"><path fill="currentColor" fill-rule="evenodd" d="M320 112c0-35.346 28.654-64 64-64s64 28.654 64 64-28.654 64-64 64c-18.141 0-34.519-7.548-46.165-19.674l-147.967 83.23A64 64 0 0 1 192 256a64 64 0 0 1-2.132 16.444l147.967 83.23C349.481 343.548 365.859 336 384 336c35.346 0 64 28.654 64 64s-28.654 64-64 64-64-28.654-64-64a64 64 0 0 1 2.132-16.444l-147.967-83.23C162.519 312.452 146.141 320 128 320c-35.346 0-64-28.654-64-64s28.654-64 64-64c18.141 0 34.519 7.548 46.165 19.674l147.967-83.23A64 64 0 0 1 320 112m36.351 16.121a15 15 0 0 0-.495-.88A31.86 31.86 0 0 1 352 112c0-17.673 14.327-32 32-32s32 14.327 32 32-14.327 32-32 32c-11.795 0-22.099-6.381-27.649-15.879M155.649 239.879C150.099 230.381 139.795 224 128 224c-17.673 0-32 14.327-32 32s14.327 32 32 32c11.795 0 22.099-6.381 27.649-15.879a15 15 0 0 1 .495-.88A31.86 31.86 0 0 0 160 256c0-5.518-1.397-10.71-3.856-15.241a16 16 0 0 1-.495-.88m200.466 144.435q-.126.225-.259.445A31.86 31.86 0 0 0 352 400c0 17.673 14.327 32 32 32s32-14.327 32-32-14.327-32-32-32c-11.795 0-22.099 6.381-27.649 15.88q-.114.218-.236.434" clip-rule="evenodd"/></svg>