<svg xmlns="http://www.w3.org/2000/svg" width="512" height="512" fill="none"><path fill="currentColor" fill-rule="evenodd" d="M262.123 33.213A16 16 0 0 0 256 32a15.95 15.95 0 0 0-11.243 4.617l-.079.078-79.992 79.991-.256.263c-5.991 6.266-5.905 16.203.256 22.365l.263.256c6.266 5.991 16.203 5.905 22.365-.256L240 86.627V321l.003.315C240.171 330.006 247.269 337 256 337c8.837 0 16-7.163 16-16V86.627l52.686 52.687.263.256c6.266 5.991 16.203 5.905 22.365-.256 6.248-6.249 6.248-16.379 0-22.628l-79.995-79.994a16 16 0 0 0-.264-.259l-.004-.003a15.9 15.9 0 0 0-4.928-3.217M192 192c0 8.731-6.994 15.829-15.685 15.997L176 208h-40c-13.122 0-23.785 10.531-23.997 23.603L112 232v192c0 13.122 10.531 23.785 23.603 23.997L136 448h240c13.122 0 23.785-10.531 23.997-23.603L400 424V232c0-13.122-10.531-23.785-23.603-23.997L376 208h-40c-8.837 0-16-7.163-16-16 0-8.731 6.994-15.829 15.685-15.997L336 176h40c30.619 0 55.498 24.573 55.992 55.074L432 232v192c0 30.619-24.573 55.498-55.074 55.992L376 480H136c-30.619 0-55.498-24.573-55.993-55.074L80 424V232c0-30.619 24.573-55.498 55.074-55.992L136 176h40c8.837 0 16 7.163 16 16" clip-rule="evenodd"/></svg>