<svg xmlns="http://www.w3.org/2000/svg" width="512" height="512" fill="none"><path fill="currentColor" fill-rule="evenodd" d="M384.001 336a63.78 63.78 0 0 0-46.12 19.7l-148-83.27a63.85 63.85 0 0 0 0-32.86l148-83.27c22.297 23.117 58.302 26.055 84.052 6.859 25.749-19.195 33.216-54.54 17.429-82.51-15.786-27.97-49.903-39.844-79.644-27.72-29.742 12.123-45.834 44.466-37.567 75.501l-148 83.27c-18.086-18.858-45.82-24.827-70.063-15.081S63.961 229.871 63.961 256s15.884 49.634 40.127 59.381 51.977 3.777 70.063-15.081l148 83.27c-7.036 26.487 3.574 54.515 26.386 69.703s52.763 14.166 74.487-2.542 30.398-45.394 21.573-71.34-33.19-43.393-60.596-43.391" clip-rule="evenodd"/></svg>