<svg xmlns="http://www.w3.org/2000/svg" width="512" height="512" fill="none"><path fill="currentColor" fill-rule="evenodd" d="M379.001 324a69.78 69.78 0 0 0-48.83 19.91l-127.17-71.5a69.7 69.7 0 0 0 0-32.82l127.13-71.5c24.532 23.862 62.752 26.405 90.229 6.003s36.095-57.724 20.347-88.109-51.212-44.858-83.723-34.17c-32.512 10.69-52.468 43.384-47.113 77.186l-130.13 73.2c-28.439-23.694-70.409-21.152-95.78 5.802s-25.37 69.001 0 95.956 67.341 29.496 95.78 5.802L309.871 383c-4.607 28.956 9.32 57.716 34.894 72.056 25.575 14.341 57.376 11.223 79.679-7.811 22.302-19.035 30.379-49.952 20.235-77.462C434.536 342.273 408.322 324 379.001 324" clip-rule="evenodd"/></svg>