<svg xmlns="http://www.w3.org/2000/svg" width="512" height="512" fill="none"><path fill="currentColor" fill-rule="evenodd" d="m249.414 33.418-4.789 2.157C167.258 70.315 131.209 81.35 46.075 96.62a16 16 0 0 0-13.144 14.742C28.98 174.01 37.667 230.366 57.36 280.599c16.844 42.968 41.288 80.368 71.589 112.516 23.945 25.406 50.333 46.293 77.511 63.049l1.721 1.056c16.847 10.271 31.297 17.375 41.842 21.622a16 16 0 0 0 11.954 0c10.902-4.391 25.979-11.836 43.563-22.678 27.177-16.756 53.566-37.643 77.511-63.049 30.3-32.148 54.744-69.548 71.588-112.516 19.693-50.233 28.382-106.589 24.429-169.236a16 16 0 0 0-13.143-14.742C379.053 81.04 343.29 69.866 262.585 33.418a16 16 0 0 0-13.171 0M256 65.543l.774.348c73.306 32.804 111.837 45.14 188.126 59.414l2.841.528.046 1.345c1.665 52.437-6.401 99.554-22.94 141.742-15.292 39.007-37.49 72.971-65.083 102.247-21.907 23.243-46.114 42.403-71.019 57.759-8.709 5.369-17.03 9.973-24.785 13.844l-1.628.806a247 247 0 0 1-4.969 2.374l-1.363.626-.078-.034a240 240 0 0 1-6.084-2.883l-.745-.366c-8.053-3.977-16.734-8.754-25.839-14.367-24.905-15.356-49.112-34.516-71.018-57.759-27.593-29.276-49.792-63.24-65.084-102.247l-.536-1.378c-16.177-41.834-24.051-88.497-22.404-140.364l.046-1.345.517-.095c76.282-14.171 114.845-26.221 186.05-57.884z" clip-rule="evenodd"/></svg>