<svg xmlns="http://www.w3.org/2000/svg" width="512" height="512" fill="none"><path fill="currentColor" fill-rule="evenodd" d="M309.727 32.748a16 16 0 0 1 4.835-.748c5.403 0 10.767.913 15.855 2.698l7.884 2.76q.315.102.623.217l146.363 51.223a16 16 0 0 1 10.437 18.073l-16.63 88a16 16 0 0 1-13.927 12.928l-48.876 5.52c-4.137.468-7.224 4.031-7.096 8.231l6.8 241.9c.254 9.01-6.981 16.45-15.993 16.45h-288c-9.013 0-16.247-7.44-15.994-16.45l6.801-241.938a8 8 0 0 0-7.093-8.193l-48.88-5.52a16 16 0 0 1-13.926-12.928l-16.63-88a16 16 0 0 1 10.437-18.073L173.08 37.675q.308-.115.623-.218l7.873-2.755A48 48 0 0 1 197.442 32c1.805 0 3.598.306 5.301.904l.266.09c.436.142 1.199.377 2.277.683l1.167.325c2.849.775 6.172 1.558 9.939 2.299C228.119 38.608 241.426 40 256.002 40s27.882-1.392 39.609-3.7c4.036-.793 7.563-1.635 10.542-2.464l.289-.08a68 68 0 0 0 2.553-.763z" clip-rule="evenodd"/></svg>