<svg xmlns="http://www.w3.org/2000/svg" width="512" height="512" fill="none"><path fill="currentColor" fill-rule="evenodd" d="M388.686 100.686c6.162-6.161 16.099-6.247 22.365-.256l.263.256 48 48c6.161 6.162 6.247 16.099.256 22.365l-.256.263-48 48c-6.249 6.248-16.379 6.248-22.628 0-6.161-6.162-6.247-16.099-.256-22.365l.256-.263L409.373 176H362.81a64 64 0 0 0-52.887 27.961l-.359.532-8.25 12.38c-4.9 7.353-14.833 9.342-22.187 4.441-7.256-4.835-9.288-14.573-4.631-21.895l.19-.292 8.252-12.383a96 96 0 0 1 78.91-42.739l.962-.005h46.563l-20.687-20.686c-6.161-6.162-6.247-16.099-.256-22.365zm0 192c6.162-6.161 16.099-6.247 22.365-.256l.263.256 48 48c6.161 6.162 6.247 16.099.256 22.365l-.256.263-48 48c-6.249 6.248-16.379 6.248-22.628 0-6.161-6.162-6.247-16.099-.256-22.365l.256-.263L409.373 368H362.81a96 96 0 0 1-79.335-41.947l-.538-.798L256 284.846l-26.938 40.41a96 96 0 0 1-78.91 42.739l-.962.005H64c-8.837 0-16-7.163-16-16 0-8.731 6.994-15.829 15.685-15.997L64 336h85.19a64 64 0 0 0 52.888-27.963l.359-.532L236.771 256l-34.333-51.504a64 64 0 0 0-52.607-28.493l-.641-.003H64c-8.837 0-16-7.163-16-16 0-8.731 6.994-15.829 15.685-15.997L64 144h85.19a96 96 0 0 1 79.335 41.947l.538.798 40.045 60.072q.209.298.403.606l40.051 60.081a64 64 0 0 0 52.607 28.493l.641.003h46.563l-20.687-20.686c-6.161-6.162-6.247-16.099-.256-22.365z" clip-rule="evenodd"/></svg>