<svg xmlns="http://www.w3.org/2000/svg" width="513" height="512" fill="none"><path fill="currentColor" d="M406.134 480H107.467c-41.066 0-74.666-33.6-74.666-74.667V106.667C32.8 65.6 66.4 32 107.467 32h298.667c41.067 0 74.667 33.6 74.667 74.667v298.666c0 41.067-33.6 74.667-74.667 74.667M107.467 69.333c-20.533 0-37.333 16.8-37.333 37.334v298.666c0 20.534 16.8 37.334 37.333 37.334h298.667c20.533 0 37.333-16.8 37.333-37.334V106.667c0-20.534-16.8-37.334-37.333-37.334z"/><path fill="currentColor" d="M182.135 480c-11.2 0-18.666-7.467-18.666-18.667V50.667c0-11.2 7.466-18.667 18.666-18.667s18.667 7.467 18.667 18.667v410.666c0 11.2-7.467 18.667-18.667 18.667M350.135 274.666c-5.6 0-9.333-1.866-13.066-5.6l-56-56c-7.467-7.466-7.467-18.666 0-26.133s18.666-7.467 26.133 0l56 56c7.467 7.467 7.467 18.667 0 26.133-3.733 3.734-7.467 5.6-13.067 5.6"/><path fill="currentColor" d="M294.135 330.666c-5.6 0-9.333-1.866-13.066-5.6-7.467-7.466-7.467-18.666 0-26.133l56-56c7.466-7.467 18.666-7.467 26.133 0s7.467 18.667 0 26.133l-56 56c-3.733 3.734-7.467 5.6-13.067 5.6"/></svg>