<svg xmlns="http://www.w3.org/2000/svg" width="513" height="512" fill="none"><path fill="currentColor" d="M281.068 269.067c-7.467-7.467-7.467-18.667 0-26.134l56-56c7.467-7.466 18.667-7.466 26.133 0 7.467 7.467 7.467 18.667 0 26.134L320.268 256l42.933 42.933c7.467 7.467 7.467 18.667 0 26.134-3.733 3.733-7.466 5.6-13.066 5.6s-9.334-1.867-13.067-5.6z"/><path fill="currentColor" fill-rule="evenodd" d="M406.134 480c41.067 0 74.667-33.6 74.667-74.667V106.667c0-41.067-33.6-74.667-74.667-74.667H107.467c-41.066 0-74.666 33.6-74.666 74.667v298.666C32.8 446.4 66.4 480 107.467 480zm-205.333-37.333h205.333c20.533 0 37.333-16.8 37.333-37.334V106.667c0-20.534-16.8-37.334-37.333-37.334H200.801zM163.468 69.333v373.334h-56.001c-20.533 0-37.333-16.8-37.333-37.334V106.667c0-20.534 16.8-37.334 37.333-37.334z" clip-rule="evenodd"/></svg>