<svg xmlns="http://www.w3.org/2000/svg" width="512" height="512" fill="none"><path fill="currentColor" fill-rule="evenodd" d="m461.001 349-34-19.64a89.5 89.5 0 0 1 20.94-16c10.52-5.931 14.292-19.234 8.451-29.804-5.841-10.571-19.111-14.456-29.731-8.706a133.6 133.6 0 0 0-38.55 32.1L300.001 256l88.09-50.86a133.4 133.4 0 0 0 38.55 32.1 21.999 21.999 0 0 0 32.799-19.64 22 22 0 0 0-11.519-18.87 89.7 89.7 0 0 1-20.94-16l34-19.64a22.001 22.001 0 0 0 .425-38.569 22 22 0 0 0-22.405.479l-34 19.63a89.7 89.7 0 0 1-3.42-26.15A22.003 22.003 0 0 0 380.001 96h-.41c-11.992-.002-21.777 9.6-22 21.59a133.6 133.6 0 0 0 8.5 49.41l-88.09 50.89V116.18a133.5 133.5 0 0 0 47.07-17.33c10.408-6.271 13.761-19.792 7.49-30.2s-19.792-13.761-30.2-7.49a89.6 89.6 0 0 1-24.36 10.11V38c0-12.15-9.85-22-22-22s-22 9.85-22 22v33.27a89.5 89.5 0 0 1-24.36-10.11 22.002 22.002 0 0 0-22.71 37.69 133.5 133.5 0 0 0 47.07 17.33v101.71L145.911 167a133.6 133.6 0 0 0 8.52-49.43c-.224-11.99-10.008-21.592-22-21.59h-.43a22 22 0 0 0-21.59 22.41 89.8 89.8 0 0 1-3.41 26.19l-34-19.58a22 22 0 1 0-22 38.1l34 19.64a89.7 89.7 0 0 1-20.94 16 22 22 0 1 0 21.28 38.51 133.6 133.6 0 0 0 38.55-32.1l88.11 50.85-88.09 50.86a133.6 133.6 0 0 0-38.55-32.1 22 22 0 1 0-21.28 38.51 89.7 89.7 0 0 1 20.94 16L51 349a22 22 0 1 0 22 38.1l34-19.63a89.8 89.8 0 0 1 3.42 26.15c-.212 12.136 9.445 22.15 21.58 22.38h.41c11.992.002 21.776-9.6 22-21.59a133.6 133.6 0 0 0-8.5-49.41l88.09-50.89v101.71a133.5 133.5 0 0 0-47.07 17.33c-10.408 6.271-13.761 19.792-7.49 30.2s19.792 13.761 30.2 7.49a89.5 89.5 0 0 1 24.36-10.11V474c0 12.15 9.85 22 22 22s22-9.85 22-22v-33.27a89.6 89.6 0 0 1 24.36 10.11c10.408 6.271 23.929 2.918 30.2-7.49s2.918-23.929-7.49-30.2a133.5 133.5 0 0 0-47.07-17.33V294.11l88.09 50.89a133.6 133.6 0 0 0-8.52 49.43c.223 11.99 10.008 21.592 22 21.59h.43a22.003 22.003 0 0 0 21.59-22.41 89.8 89.8 0 0 1 3.41-26.19l34 19.63a22.001 22.001 0 1 0 22-38.05" clip-rule="evenodd"/></svg>