<svg xmlns="http://www.w3.org/2000/svg" width="512" height="512" fill="none"><path fill="currentColor" fill-rule="evenodd" d="M255.993 16c8.731 0 15.829 6.994 15.997 15.685l.003.315v46.68a95.5 95.5 0 0 0 33.46-12.383c7.568-4.562 17.402-2.124 21.963 5.444 4.562 7.568 2.124 17.4-5.444 21.962a127.5 127.5 0 0 1-49.979 17.314v117.27l101.565-58.638a128 128 0 0 1-10.003-51.931c.154-8.73 7.272-15.703 15.965-15.718l.315.002c8.73.154 15.703 7.272 15.718 15.965l-.003.315a96 96 0 0 0 6.014 35.197l40.419-23.335c7.652-4.419 17.438-1.797 21.856 5.856 4.362 7.555 1.862 17.188-5.564 21.684l-.292.172-40.423 23.339a96 96 0 0 0 27.463 22.813c7.727 4.285 10.518 14.024 6.232 21.752s-14.024 10.518-21.752 6.232a127.9 127.9 0 0 1-39.948-34.629L287.993 256l101.562 58.637a127.9 127.9 0 0 1 39.948-34.629c7.728-4.286 17.466-1.496 21.752 6.232s1.495 17.467-6.232 21.752a96 96 0 0 0-27.463 22.813l40.423 23.339c7.652 4.418 10.274 14.203 5.856 21.856-4.362 7.555-13.954 10.207-21.561 6.023l-.295-.167-40.419-23.335a96 96 0 0 0-6.027 34.132l.013 1.065c.156 8.835-6.88 16.124-15.715 16.279s-16.124-6.88-16.28-15.715a128 128 0 0 1 10.003-51.931l-101.565-58.638v117.288a128 128 0 0 1 49.957 17.283c7.576 4.549 10.029 14.378 5.479 21.954-4.49 7.477-14.124 9.963-21.658 5.652l-.296-.174a96 96 0 0 0-33.482-12.377V480c0 8.837-7.164 16-16 16-8.732 0-15.83-6.994-15.997-15.685l-.003-.315v-46.661a96 96 0 0 0-32.567 11.834l-.916.543c-7.575 4.55-17.404 2.097-21.954-5.478-4.549-7.576-2.096-17.405 5.479-21.954a128 128 0 0 1 49.958-17.283V283.713l-101.566 58.638a127.9 127.9 0 0 1 10.003 51.931c-.156 8.835-7.444 15.871-16.279 15.715-8.73-.153-15.704-7.271-15.718-15.964l.002-.315a96 96 0 0 0-6.014-35.197l-40.418 23.335c-7.653 4.419-17.438 1.797-21.857-5.856-4.361-7.555-1.862-17.188 5.565-21.684l.292-.172 40.423-23.339a96 96 0 0 0-27.463-22.813c-7.728-4.285-10.518-14.024-6.233-21.752s14.025-10.518 21.753-6.232a127.9 127.9 0 0 1 39.948 34.629L223.993 256l-101.562-58.637a127.9 127.9 0 0 1-39.948 34.629c-7.728 4.286-17.467 1.496-21.753-6.232-4.285-7.728-1.495-17.467 6.233-21.752a96 96 0 0 0 27.463-22.813l-40.423-23.339c-7.653-4.418-10.275-14.203-5.857-21.856 4.362-7.555 13.954-10.207 21.561-6.023l.296.167 40.418 23.335a96 96 0 0 0 6.027-34.132l-.013-1.065c-.156-8.835 6.881-16.124 15.716-16.28 8.835-.155 16.123 6.881 16.279 15.716a127.9 127.9 0 0 1-10.003 51.931l101.566 58.638V111.015a127.5 127.5 0 0 1-49.98-17.312c-7.568-4.561-10.005-14.394-5.444-21.962s14.395-10.006 21.963-5.444a95.4 95.4 0 0 0 33.461 12.38V32c0-8.837 7.163-16 16-16" clip-rule="evenodd"/></svg>