<svg xmlns="http://www.w3.org/2000/svg" width="513" height="512" fill="none"><path fill="currentColor" d="m453.095 364.9-124.9-197.8-.3-.5c-4.6-7.5-7.1-16.2-7.1-25.1V64h16.3c8.7-.2 15.7-7.3 15.7-16 0-8.8-7.2-16-16-16h-160.3c-8.7.2-15.7 7.3-15.7 16 0 8.8 7.2 16 16 16h16v78.1c-.1 8.8-2.7 17.5-7.4 25l-124.9 197.8-.9 1.5c-29.9 49.8 5.8 113.6 64.3 113.6h267.6c58-1.3 92.8-65.6 61.6-115.1m-63.4 83.1h-14.1c-2.8-3.5-6.1-6.8-9.9-9.7v-.1s-.1 0-.1.1c-12.5-9.7-29.8-15.7-48.8-15.7-3.9 0-7.7.2-11.4.7-9.8-9.5-23.5-16.3-39.3-19v-28.1c24.2-1.9 43.5-10.4 57.4-25.5 24.7-26.8 22.3-64.2 22.2-65.8l-.7-9-8.9-.7c-1.6-.1-38.6-2.5-65.1 22.4-6.2 5.8-11.2 12.6-15.2 20.2-3.9-7.7-9-14.4-15.2-20.2-26.5-24.9-63.5-22.5-65.1-22.4l-8.9.7-.7 9c-.1 1.6-2.5 39 22.2 65.8 13.8 15.1 33.1 23.6 57.4 25.5v27.1c-19 1.3-35.7 8.5-47.2 19.3h-2.5c-24.8 0-46.6 10.2-58.8 25.5h-14.1c-33.2-.7-53.2-37.6-35.3-66l39.4-62 50.3-80 35.2-55.8.4-.7c7.8-12.6 11.9-27.2 11.9-42V64h64v78.3c.1 14.8 4.4 29.4 12.3 41.9l65.2 103.3 39.5 61.5h-.6l20.8 33 .5.9c17.2 28.5-3.3 65.1-36.8 65.1m-123-93c1.7-18 7.9-32.1 18.3-42 12.6-12 29.2-15.6 39.7-16.6-1 10.5-4.5 27.1-16.3 39.9-9.8 10.7-23.8 16.9-41.7 18.7m-21.8 0c-17.8-1.7-31.7-8-41.5-18.5-11.8-12.8-15.4-29.6-16.4-40.1 10.3 1 26.8 4.6 39.5 16.5 10.5 9.9 16.7 24 18.4 42.1"/></svg>