<svg xmlns="http://www.w3.org/2000/svg" width="24" height="25" fill="none"><path fill="currentColor" d="M11.078 5.408a3.8 3.8 0 0 1 1.55 0l.527-.526a.54.54 0 1 1 .763.762l-.185.185a3.8 3.8 0 0 1 1.531 1.656h.903a.54.54 0 0 1 0 1.079h-.577q.038.264.038.539v.54h.539a.54.54 0 0 1 0 1.078h-.54v.539q0 .275-.037.54h.577a.54.54 0 1 1 0 1.078h-.903a3.775 3.775 0 0 1-6.822 0h-.903a.54.54 0 0 1 0-1.079h.577a4 4 0 0 1-.038-.54v-.538H7.54a.54.54 0 1 1 0-1.079h.54v-.54q0-.274.037-.538H7.54a.54.54 0 1 1 0-1.079h.903A3.8 3.8 0 0 1 9.973 5.83l-.184-.185a.54.54 0 1 1 .763-.762zm.775.999a2.696 2.696 0 0 0-2.696 2.696v2.157a2.696 2.696 0 1 0 5.392 0V9.103a2.696 2.696 0 0 0-2.696-2.696m-1.618 4.853a.54.54 0 0 1 .54-.54h2.157a.54.54 0 1 1 0 1.08h-2.157a.54.54 0 0 1-.54-.54m0-2.157a.54.54 0 0 1 .54-.54h2.157a.54.54 0 0 1 0 1.08h-2.157a.54.54 0 0 1-.54-.54"/><path stroke="currentColor" d="M5.672 18.672h4.5M13.172 18.672h5M2.5 17h3v3h-3zM10.5 17h3v3h-3zM18.5 17h3v3h-3z"/></svg>