<svg xmlns="http://www.w3.org/2000/svg" width="24" height="25" fill="none"><path fill="currentColor" d="M10.562 4.648a7 7 0 0 1 2.876 0l.976-.977a1 1 0 0 1 1.415 1.415l-.343.343a7.03 7.03 0 0 1 2.84 3.07H20a1 1 0 1 1 0 2h-1.07q.07.491.07 1v1h1a1 1 0 1 1 0 2h-1v1q0 .51-.07 1H20a1 1 0 1 1 0 2h-1.674a7 7 0 0 1-12.652 0H4a1 1 0 1 1 0-2h1.07a7 7 0 0 1-.07-1v-1H4a1 1 0 1 1 0-2h1v-1q0-.509.07-1H4a1 1 0 1 1 0-2h1.674a7.03 7.03 0 0 1 2.84-3.071l-.342-.342a1 1 0 1 1 1.414-1.414l.977.977zM12 6.5a5 5 0 0 0-5 5v4a5 5 0 0 0 10 0v-4a5 5 0 0 0-5-5m-3 9a1 1 0 0 1 1-1h4a1 1 0 1 1 0 2h-4a1 1 0 0 1-1-1m0-4a1 1 0 0 1 1-1h4a1 1 0 1 1 0 2h-4a1 1 0 0 1-1-1"/></svg>