<svg xmlns="http://www.w3.org/2000/svg" width="512" height="512" fill="none"><path fill="currentColor" fill-rule="evenodd" d="M16 287.9C16 155.38 123.447 48 256 48c132.554 0 240.001 107.38 240.001 239.878a239.18 239.18 0 0 1-60.337 159.146l-.077.086-3.333 3.646a41.2 41.2 0 0 1-30.369 13.242c-11.53-.031-22.519-4.893-30.258-13.364l-.897-.966A157.13 157.13 0 0 0 256 399.902c-43.94 0-85.873 18.398-115.588 50.691l-.385.415a41.19 41.19 0 0 1-60.07-.027l-.366-.374c-.427-.443-.849-.9-1.32-1.422l-.895-1.004-.955-1.063-1.247-1.414A239.16 239.16 0 0 1 16 287.9m448.001 0C464.001 173.058 370.885 80 256 80 141.116 80 48 173.058 48 287.922a207.18 207.18 0 0 0 52.264 137.854l-.079-.089 2.274 2.53.19.201.387.395.44.463a9.19 9.19 0 0 0 6.553 2.722c2.573-.007 5.025-1.092 6.798-3.032a189.13 189.13 0 0 1 278.385.041 9.2 9.2 0 0 0 6.759 2.991c2.573.007 5.031-1.065 6.721-2.894l3.128-3.423.924-1.048a207.2 207.2 0 0 0 51.253-135.209zm-137.901-56-47.5 75.5a31 31 0 0 1-7 7c-13.531 9.44-32.139 6.232-41.729-7.194s-6.589-32.068 6.729-41.806l75.5-47.5a10.23 10.23 0 0 1 11.7 0c4.488 3.24 5.515 9.495 2.3 14m-54.103-104.215C271.83 118.994 264.732 112 256 112c-8.836 0-16 7.163-16 16v32l.003.315C240.171 169.006 247.269 176 256 176c8.837 0 16-7.163 16-16v-32zM416 272c8.837 0 16 7.163 16 16 0 8.731-6.993 15.829-15.685 15.997L416 304h-32c-8.836 0-16-7.163-16-16 0-8.731 6.994-15.829 15.686-15.997L384 272zm-272 16c0-8.837-7.163-16-16-16H96l-.314.003C86.994 272.171 80 279.269 80 288c0 8.837 7.164 16 16 16h32l.315-.003C137.007 303.829 144 296.731 144 288m-12.453-124.454c6.161-6.161 16.098-6.247 22.365-.256l.262.256 22.63 22.63c6.249 6.249 6.249 16.379 0 22.628-6.161 6.161-16.098 6.247-22.365.256l-.262-.256-22.63-22.63c-6.249-6.249-6.249-16.379 0-22.628m248.907 0c-6.248-6.248-16.379-6.248-22.627 0l-22.63 22.63-.257.263c-5.99 6.266-5.905 16.203.257 22.365 6.248 6.248 16.379 6.248 22.627 0l22.63-22.63.257-.263c5.99-6.266 5.905-16.203-.257-22.365" clip-rule="evenodd"/></svg>