<svg xmlns="http://www.w3.org/2000/svg" width="512" height="512" fill="none"><path fill="currentColor" fill-rule="evenodd" d="M425.7 118.25c-91.793-91.245-239.403-93.268-333.663-4.574S-9.176 349.83 76.32 447l.18.2c.33.35.64.71 1 1.05.74.84 1.58 1.79 2.57 2.78a41.17 41.17 0 0 0 60.36-.42 157.13 157.13 0 0 1 231.26 0 41.18 41.18 0 0 0 60.65.06l3.21-3.5.18-.2c84.122-94.991 79.74-239.057-10-328.76zM240 128c0-8.837 7.163-16 16-16s16 7.163 16 16v32c0 8.837-7.163 16-16 16s-16-7.163-16-16zM128 304H96c-8.837 0-16-7.163-16-16s7.163-16 16-16h32c8.837 0 16 7.163 16 16s-7.163 16-16 16m48.8-95.2c-6.248 6.243-16.372 6.243-22.62 0l-22.63-22.62c-6.249-6.249-6.249-16.381 0-22.63s16.381-6.249 22.63 0l22.62 22.63c6.243 6.248 6.243 16.372 0 22.62m149.3 23.1-47.5 75.5a31 31 0 0 1-7 7c-13.531 9.44-32.139 6.232-41.729-7.193s-6.589-32.069 6.729-41.807l75.5-47.5a10.23 10.23 0 0 1 11.7 0c4.487 3.24 5.515 9.495 2.3 14m31.72-23.1c-6.291 5.977-16.199 5.85-22.334-.286-6.136-6.135-6.262-16.043-.286-22.334l22.62-22.63c6.249-6.249 16.381-6.249 22.63 0s6.249 16.381 0 22.63zM416 304h-32c-8.837 0-16-7.163-16-16s7.163-16 16-16h32c8.837 0 16 7.163 16 16s-7.163 16-16 16" clip-rule="evenodd"/></svg>