<svg xmlns="http://www.w3.org/2000/svg" width="513" height="512" fill="none"><path fill="currentColor" d="M7.8 339.641c1.298-9.08 1.947-18.291 3.763-27.372 18.939-94.051 73.033-159.433 163.189-191.735 139.969-50.204 291.613 34.507 324.952 179.411 2.724 11.676 4.54 23.481 5.318 35.545.13 1.427.519 2.854.779 4.281v30.097c-40.344 0-80.687 0-121.16.129-4.021 0-4.021-1.816-3.892-4.67.649-19.588-1.556-38.788-9.339-57.079-8.173-19.459-20.496-35.934-36.841-49.296-2.595-2.076-3.762-2.335-5.708.908-10.507 18.162-21.274 36.323-32.041 54.355-1.427 2.335-1.687 3.892.259 6.357 14.399 17.772 15.826 41.642 3.892 60.841-11.675 18.681-34.247 28.151-55.521 23.351-21.923-4.93-37.749-22.443-40.603-44.885-4.41-34.637 26.074-63.436 61.229-57.469 3.113.519 4.281-.259 5.708-2.724 10.507-17.902 20.885-35.805 31.652-53.577 2.205-3.632 1.686-4.93-2.076-6.357-62.396-24.129-134.002 6.746-159.298 68.625-7.394 18.032-9.859 36.843-9.21 56.172.13 4.281-.778 5.708-5.448 5.708-39.825-.26-79.779-.13-119.603-.13zm434.697 1.168c9.599 0 19.069-.13 28.668.13 3.762.129 5.059-.779 4.67-4.8-2.465-26.075-9.21-50.853-20.236-74.593-1.298-2.724-2.465-2.724-4.67-1.297-6.616 4.022-13.491 7.654-20.107 11.805-2.205 1.297-3.373 1.557-4.8-1.038-3.502-6.486-7.264-12.972-11.156-19.329-1.427-2.335-1.167-3.502 1.168-4.8 6.745-3.762 13.491-7.783 20.236-11.545 2.335-1.298 3.113-2.206 1.297-4.67-15.307-21.794-33.857-40.475-55.78-55.783-2.205-1.556-3.113-1.167-4.41 1.038-3.762 6.746-7.913 13.362-11.546 20.237-1.426 2.725-2.724 2.854-5.188 1.298-6.227-3.762-12.454-7.524-18.94-11.027-2.464-1.297-2.854-2.335-1.427-4.8 4.022-6.616 7.784-13.491 11.675-20.107 1.038-1.817 1.816-3.114-.908-4.411-24.128-11.416-49.424-18.292-76.016-20.497-3.114-.259-3.892.649-3.762 3.632.129 8.043 0 16.216.129 24.259 0 2.854-.648 4.022-3.761 3.892a309 309 0 0 0-21.923 0c-3.243.13-3.762-1.297-3.633-4.021.13-7.784-.129-15.568.13-23.351.13-4.022-1.167-4.8-4.929-4.541-25.815 2.465-50.592 9.081-74.071 20.108-3.243 1.557-2.984 2.724-1.427 5.319 3.892 6.486 7.524 13.232 11.545 19.718 1.297 2.076 1.297 3.243-1.038 4.54-6.615 3.633-13.231 7.525-19.717 11.416-2.335 1.427-3.243.908-4.541-1.297-3.761-6.746-7.913-13.362-11.545-20.237-1.556-2.854-2.594-2.854-5.059-1.038-21.534 15.178-39.954 33.469-55.131 55.134-1.816 2.464-1.557 3.632 1.167 5.059 6.746 3.632 13.102 7.654 19.847 11.286 2.465 1.297 3.243 2.335 1.557 5.059-3.891 6.227-7.524 12.454-10.896 18.94-1.427 2.595-2.595 2.984-5.06 1.427-6.615-4.021-13.49-7.783-20.106-11.805-2.335-1.427-3.373-1.167-4.67 1.427-11.027 23.351-17.643 47.869-20.107 73.685-.39 4.281.389 5.837 5.189 5.708 18.03-.26 35.932-.13 53.964-.13 7.264 0 7.134 0 8.172-7.394.389-2.595.779-5.06 1.297-7.654 14.14-66.679 65.25-114.419 132.965-122.332 52.148-6.097 96.383 11.546 131.797 50.204 21.274 23.351 33.727 51.242 37.489 82.765.389 3.503 1.557 4.541 5.189 4.411 9.34-.259 18.809 0 28.409 0m-162.541 12.583c-.13-12.713-10.767-23.221-23.35-22.961-12.583.13-22.831 10.508-22.96 22.961-.13 12.584 10.507 23.221 23.09 23.221 12.713 0 23.35-10.637 23.22-23.221"/></svg>