<svg xmlns="http://www.w3.org/2000/svg" width="512" height="512" fill="none"><path fill="currentColor" fill-rule="evenodd" d="M256.001 48c-132.54 0-240 108.55-240 242.56a243.3 243.3 0 0 0 60.32 160.87c1.18 1.3 2.25 2.6 3.43 3.79C89.2 464 92.07 464 99.57 464s12.43 0 19.93-8.88c32.5-38.48 82.5-55.12 136.5-55.12s104.07 16.71 136.5 55.12c7.5 8.88 12.32 8.88 19.93 8.88s11.3 0 19.82-8.78c1.22-1.25 2.25-2.49 3.43-3.79a243.3 243.3 0 0 0 60.32-160.87c0-134.01-107.46-242.56-240-242.56m-16 64h32v64h-32zm-96 192h-64v-32h64zm21.49-83.88-45.25-45.26 22.62-22.62 45.26 45.25zm113.11 87.28a31 31 0 0 1-7 7c-13.532 9.44-32.14 6.232-41.73-7.194s-6.589-32.068 6.73-41.806l83.4-41.4zm45.28-109.91 45.26-45.25 22.62 22.62-45.25 45.26zM432.001 304h-64v-32h64z" clip-rule="evenodd"/></svg>