<svg xmlns="http://www.w3.org/2000/svg" width="512" height="512" fill="currentColor"><path stroke="currentColor" stroke-linejoin="round" stroke-miterlimit="10" stroke-width=".139" d="M298.417 81.5v4.833h100.751c32 0 58.25 26.334 58.25 58.334v233.25c0 32-26.25 58.334-58.25 58.334H297.084c-3.333 20.083-22.417 34.75-43.083 30.667l-161.084-32.25c-22.25-4.417-38.333-24.084-38.333-46.751V124.083c0-22.666 16.083-42.333 38.333-46.75L254 45.083c2.833-.583 5.666-.75 8.416-.666 19.334.666 36 16.833 36 37.083Zm-199.25 27c-7.583 1.5-12.833 7.917-12.833 15.583v263.834c0 7.667 5.25 14.084 12.833 15.584l161.084 32.167v.083c3.583.666 6.333-1.583 6.333-5.25V81.5c0-3.667-2.75-5.917-6.333-5.25zm199.25 295.917h100.751c14.833 0 26.5-11.666 26.5-26.5v-233.25c0-14.834-11.667-26.5-26.5-26.5H298.417zm79.501-243.833a15.9 15.9 0 0 1 14 7.916c2.833 4.917 2.833 11.084 0 16-2.917 4.917-8.25 8-14 7.917h-42.417c-5.75.083-11.084-3-13.917-7.917a15.72 15.72 0 0 1 0-16c2.833-5 8.167-8 13.917-7.916zm-225.584 30.25 23.75 37.25 23.666-37.25c4.751-7.417 14.584-9.584 21.917-4.917 7.417 4.75 9.584 14.583 4.917 22l-31.667 49.75 31.667 49.75c4.667 7.417 2.5 17.25-4.917 22-2.666 1.667-5.583 2.5-8.5 2.5a15.92 15.92 0 0 1-13.417-7.416l-23.666-37.167-23.75 37.25c-3 4.75-8.167 7.333-13.417 7.333-2.917 0-5.917-.833-8.5-2.5-7.417-4.75-9.583-14.583-4.917-21.916l31.667-49.834-31.667-49.75c-4.666-7.417-2.5-17.25 4.917-22 2.75-1.75 5.833-2.5 8.917-2.417 5.083.084 10.083 2.667 13 7.334Zm225.584 54.583a16.01 16.01 0 0 1 14 7.833 16.28 16.28 0 0 1 0 16.084 16.01 16.01 0 0 1-14 7.833h-42.417c-5.75.083-11.084-2.917-13.917-7.833a15.88 15.88 0 0 1 0-16.084c2.833-4.916 8.167-7.916 13.917-7.833zm0 84.834a16 16 0 0 1 14 7.833 16.28 16.28 0 0 1 0 16.083 16 16 0 0 1-14 7.834h-42.417c-5.75.083-11.084-2.917-13.917-7.834a15.87 15.87 0 0 1 0-16.083c2.833-4.917 8.167-7.917 13.917-7.833z"/><path d="M262.417 44.417c-2.75-.084-5.584.083-8.417.666L92.917 77.333c-22.25 4.417-38.333 24.084-38.333 46.75v263.834c0 22.666 16.083 42.333 38.333 46.75L254 466.917c20.667 4.083 39.75-10.584 43.083-30.667h102.084c32 0 58.25-26.333 58.25-58.333v-233.25c0-32-26.25-58.334-58.25-58.334h-100.75V81.5c0-20.25-16.667-36.417-36-37.083M260.25 76.25c3.584-.667 6.333 1.583 6.333 5.25v349c0 3.667-2.749 5.917-6.333 5.25v-.083L99.167 403.5c-7.584-1.5-12.833-7.917-12.833-15.583V124.083c0-7.666 5.25-14.083 12.833-15.583zm38.167 41.917h100.75c14.833 0 26.5 11.666 26.5 26.5v233.25c0 14.833-11.667 26.5-26.5 26.5h-100.75zm37.083 42.416c-5.75-.083-11.083 2.917-13.917 7.917a15.73 15.73 0 0 0 0 16c2.834 4.917 8.167 8 13.917 7.917h42.417c5.75.083 11.083-3 14-7.917 2.833-4.917 2.833-11.083 0-16-2.917-5-8.25-8-14-7.917zM139.333 183.5c-3.083-.083-6.166.667-8.916 2.417-7.417 4.75-9.584 14.583-4.917 22l31.667 49.75L125.5 307.5c-4.667 7.333-2.5 17.167 4.917 21.917a15.78 15.78 0 0 0 8.5 2.5c5.25 0 10.416-2.584 13.416-7.334l23.75-37.25L199.75 324.5c3 4.75 8.167 7.417 13.417 7.417 2.917 0 5.833-.834 8.5-2.5 7.416-4.75 9.583-14.584 4.916-22l-31.666-49.75 31.666-49.75c4.667-7.417 2.5-17.25-4.916-22-7.334-4.667-17.167-2.5-21.917 4.916l-23.667 37.25-23.75-37.25c-2.916-4.666-7.916-7.25-13-7.333M335.5 245.417c-5.75-.084-11.083 2.916-13.917 7.833a15.88 15.88 0 0 0 0 16.083c2.834 4.917 8.167 7.917 13.917 7.834h42.417a16 16 0 0 0 14-7.834 16.28 16.28 0 0 0 0-16.083 16 16 0 0 0-14-7.833zm0 84.833c-5.75-.083-11.083 2.917-13.917 7.833a15.88 15.88 0 0 0 0 16.084c2.834 4.916 8.167 7.916 13.917 7.833h42.417a16.01 16.01 0 0 0 14-7.833 16.28 16.28 0 0 0 0-16.084 16.01 16.01 0 0 0-14-7.833z"/></svg>