<svg xmlns="http://www.w3.org/2000/svg" width="512" height="512" fill="none"><path fill="#48BB78" d="M199.577 117.178c6.984-2.89 12.788-8.634 26.037-21.157C240.873 81.596 243.63 80 253.25 80s12.377 1.597 27.636 16.02c13.249 12.524 19.053 18.268 26.037 21.158 6.393 2.645 13.777 2.898 28.769 3.77 15.612.91 31.414 3.086 35.113 4.836 10.008 4.741 12.92 13.636 14.747 45.024.872 14.992 1.125 22.376 3.77 28.769 2.89 6.984 8.634 12.788 21.157 26.037 14.424 15.259 16.021 18.016 16.021 27.636s-1.597 12.377-16.021 27.636c-12.523 13.249-18.267 19.053-21.157 26.037-2.645 6.393-2.898 13.777-3.77 28.769-2.596 44.645-5.215 47.264-49.86 49.86-14.992.872-22.376 1.125-28.769 3.77-6.984 2.89-12.788 8.634-26.037 21.157-15.259 14.424-18.016 16.021-27.636 16.021s-12.377-1.597-27.636-16.021c-13.249-12.523-19.053-18.267-26.037-21.157-6.393-2.645-13.777-2.898-28.769-3.77-44.645-2.596-47.264-5.215-49.86-49.86-.872-14.992-1.125-22.376-3.77-28.769-2.89-6.984-8.634-12.788-21.157-26.037C81.596 265.627 80 262.87 80 253.25s1.597-12.377 16.02-27.636c12.524-13.249 18.268-19.053 21.158-26.037 2.645-6.393 2.898-13.777 3.77-28.769 2.596-44.645 5.215-47.264 49.86-49.86 14.992-.872 22.376-1.125 28.769-3.77"/><path fill="#fff" d="m236.384 284.747 40.236-38.05 40.232-38.047a1 1 0 0 1 1.374 0l8.543 8.081 8.463 8.003a1 1 0 0 1 0 1.453l-49.215 46.542-49.312 46.636c-.38.359-.97.365-1.358.016l-29.332-26.479-29.223-26.38a1 1 0 0 1-.026-1.459l8.801-8.555 8.88-8.632a1 1 0 0 1 1.382-.011l19.588 18.437 19.595 18.447a1 1 0 0 0 1.372-.002"/></svg>