<svg xmlns="http://www.w3.org/2000/svg" width="512" height="512" fill="none"><path fill="#A0AEC0" d="M199.577 117.178c6.984-2.89 12.788-8.634 26.037-21.157C240.873 81.596 243.63 80 253.25 80s12.377 1.597 27.636 16.02c13.249 12.524 19.053 18.268 26.037 21.158 6.393 2.645 13.777 2.898 28.769 3.77 15.612.91 31.414 3.086 35.113 4.836 10.008 4.741 12.92 13.636 14.747 45.024.872 14.992 1.125 22.376 3.77 28.769 2.89 6.984 8.634 12.788 21.157 26.037 14.424 15.259 16.021 18.016 16.021 27.636s-1.597 12.377-16.021 27.636c-12.523 13.249-18.267 19.053-21.157 26.037-2.645 6.393-2.898 13.777-3.77 28.769-2.596 44.645-5.215 47.264-49.86 49.86-14.992.872-22.376 1.125-28.769 3.77-6.984 2.89-12.788 8.634-26.037 21.157-15.259 14.424-18.016 16.021-27.636 16.021s-12.377-1.597-27.636-16.021c-13.249-12.523-19.053-18.267-26.037-21.157-6.393-2.645-13.777-2.898-28.769-3.77-44.645-2.596-47.264-5.215-49.86-49.86-.872-14.992-1.125-22.376-3.77-28.769-2.89-6.984-8.634-12.788-21.157-26.037C81.596 265.627 80 262.87 80 253.25s1.597-12.377 16.02-27.636c12.524-13.249 18.268-19.053 21.158-26.037 2.645-6.393 2.898-13.777 3.77-28.769 2.596-44.645 5.215-47.264 49.86-49.86 14.992-.872 22.376-1.125 28.769-3.77"/><path fill="#fff" d="M262.153 206.648a6.155 6.155 0 0 0-12.307.121v55.385l.001.121a6.155 6.155 0 0 0 6.153 6.033h36.923l.121-.001a6.155 6.155 0 0 0 6.033-6.153l-.001-.121a6.155 6.155 0 0 0-6.153-6.033h-30.769v-49.231z"/><path fill="#fff" fill-rule="evenodd" d="M256 176c-44.168 0-80 35.832-80 80s35.832 80 80 80 80-35.832 80-80-35.832-80-80-80m0 12.308c37.371 0 67.692 30.321 67.692 67.692S293.371 323.692 256 323.692 188.308 293.371 188.308 256s30.321-67.692 67.692-67.692" clip-rule="evenodd"/></svg>