<svg xmlns="http://www.w3.org/2000/svg" width="512" height="512" fill="none"><path fill="currentColor" fill-rule="evenodd" d="M87 158.765C87 118.098 121.607 85 164.14 85s77.14 33.098 77.14 73.765c0 19.376-8.828 45.131-26.209 76.551-13.981 25.235-30.171 48.054-38.57 59.408a15.308 15.308 0 0 1-24.694 0c-8.413-11.354-24.588-34.173-38.57-59.408C95.827 203.887 87 178.132 87 158.765m46.284 3.375c0 17.041 13.815 30.856 30.856 30.856 17.033-.019 30.837-13.823 30.856-30.856 0-17.041-13.815-30.856-30.856-30.856s-30.856 13.815-30.856 30.856M274.285 158.765c0-40.667 34.607-73.765 77.14-73.765s77.14 33.098 77.14 73.765c0 19.376-8.828 45.131-26.209 76.551-13.981 25.235-30.171 48.054-38.569 59.408a15.31 15.31 0 0 1-24.695 0c-8.413-11.354-24.588-34.173-38.57-59.408-17.409-31.429-26.237-57.184-26.237-76.551m46.284 3.375c0 17.041 13.815 30.856 30.856 30.856 17.033-.019 30.837-13.823 30.856-30.856 0-17.041-13.815-30.856-30.856-30.856s-30.856 13.815-30.856 30.856M161 426c21.269 0 39.436-13.28 46.662-32h97.676c7.226 18.72 25.393 32 46.662 32 27.614 0 50-22.386 50-50s-22.386-50-50-50c-21.646 0-40.079 13.754-47.036 33h-96.928c-6.957-19.246-25.39-33-47.036-33-27.614 0-50 22.386-50 50s22.386 50 50 50m218-50c0 14.912-12.088 27-27 27s-27-12.088-27-27 12.088-27 27-27 27 12.088 27 27" clip-rule="evenodd"/></svg>