<svg xmlns="http://www.w3.org/2000/svg" width="512" height="512" fill="none"><path fill="currentColor" fill-rule="evenodd" d="M192.377 192H32.001l-.47.006c-15.377.399-21.416 20.387-8.579 29.19l130.019 89.155-50.13 148.533-.143.442c-4.502 14.568 12.2 26.682 24.691 17.63l128.612-93.198 128.611 93.198.38.268c12.574 8.626 29.101-3.724 24.168-18.34l-50.13-148.533 130.019-89.155.383-.27C501.889 211.9 495.566 192 480.001 192H319.624L271.217 43.055c-4.79-14.74-25.643-14.74-30.433 0zm63.624-92.235 36.783 113.18.112.334A16 16 0 0 0 308.001 224h120.374l-97.423 66.804-.292.206a16 16 0 0 0-5.819 18.106l37.979 112.53-97.431-70.602-.307-.217a16 16 0 0 0-18.47.217l-97.431 70.602 37.979-112.53.111-.339a16 16 0 0 0-6.222-17.973L83.626 224H204a16 16 0 0 0 15.216-11.055z" clip-rule="evenodd"/></svg>