<svg xmlns="http://www.w3.org/2000/svg" width="512" height="512" fill="none"><path fill="currentColor" fill-rule="evenodd" d="M184 496h32c13.255 0 24-10.745 24-24V40c0-13.255-10.745-24-24-24h-32c-13.255 0-24 10.745-24 24v432c0 13.255 10.745 24 24 24m256 0h-32c-13.255 0-24-10.745-24-24V120c0-13.255 10.745-24 24-24h32c13.255 0 24 10.745 24 24v352c0 13.255-10.745 24-24 24m-144 0h32c13.255 0 24-10.745 24-24V232c0-13.255-10.745-24-24-24h-32c-13.255 0-24 10.745-24 24v240c0 13.255 10.745 24 24 24m-224 0h32c13.255 0 24-10.745 24-24V328c0-13.255-10.745-24-24-24H72c-13.255 0-24 10.745-24 24v144c0 13.255 10.745 24 24 24" clip-rule="evenodd"/></svg>