<svg xmlns="http://www.w3.org/2000/svg" width="512" height="512" fill="none"><path fill="currentColor" fill-rule="evenodd" d="M216 16h-32c-13.255 0-24 10.745-24 24v432c0 13.255 10.745 24 24 24h32c13.255 0 24-10.745 24-24V40c0-13.255-10.745-24-24-24m-8 32v416h-16V48zm200 48h32c13.255 0 24 10.745 24 24v352c0 13.255-10.745 24-24 24h-32c-13.255 0-24-10.745-24-24V120c0-13.255 10.745-24 24-24m24 368V128h-16v336zM328 208h-32c-13.255 0-24 10.745-24 24v240c0 13.255 10.745 24 24 24h32c13.255 0 24-10.745 24-24V232c0-13.255-10.745-24-24-24m-8 32v224h-16V240zm-216 64H72c-13.255 0-24 10.745-24 24v144c0 13.255 10.745 24 24 24h32c13.255 0 24-10.745 24-24V328c0-13.255-10.745-24-24-24m-8 32v128H80V336z" clip-rule="evenodd"/></svg>