<svg xmlns="http://www.w3.org/2000/svg" width="512" height="512" fill="none"><path fill="currentColor" d="M23 455.913V252.729c3.09-7.815 8.814-10.45 17.084-10.359 29.714.272 59.337 0 89.052.181 4.452 0 5.816-.818 5.816-5.634-.182-57.975-.182-115.949-.182-174.015 0-12.177 4.725-16.902 17.083-16.902H359.4c12.267 0 16.992 4.725 17.083 16.902 0 58.066.091 116.04-.091 174.106 0 4.725 1.363 5.634 5.816 5.634 29.715-.182 59.338.091 89.052-.182 8.27-.09 14.085 2.545 17.084 10.36v203.184c-3.635 7.633-9.723 9.996-17.992 9.996q-214.68-.273-429.36 0c-8.269-.182-14.357-2.453-17.992-10.087m342.125-17.083c30.623 0 61.155-.091 91.778.091 3.544 0 4.544-1 4.544-4.544a47433 47433 0 0 1 0-160.93c0-3.362-.818-4.362-4.271-4.362-13.449.182-26.989.273-40.437 0-3.999-.091-4.726 1.272-4.635 4.907.182 22.808.091 45.617.091 68.425 0 11.177-4.907 16.175-15.993 16.175-22.081 0-44.253.091-66.335 0-10.995 0-16.084-5.089-16.084-16.175 0-22.99-.091-45.98.091-68.879 0-3.726-1.09-4.453-4.543-4.453q-17.72.273-35.44 0c-3.725-.091-4.816.818-4.816 4.725.091 53.523.091 106.954 0 160.476 0 3.908 1.182 4.635 4.816 4.635 30.442-.182 60.883-.091 91.234-.091m-219.269 0c30.623 0 61.155-.091 91.778.091 3.453 0 4.998-.727 4.544-4.453-.364-2.817-.091-5.725-.091-8.632 0-50.433 0-100.957.091-151.389 0-3.817-.545-5.543-5.089-5.362-13.358.364-26.625.273-39.983 0-3.453-.091-4.27.909-4.27 4.271.181 22.99.09 45.98.09 68.879 0 11.359-4.997 16.266-16.356 16.266h-65.881c-11.177 0-16.084-4.998-16.084-15.993 0-23.081-.09-46.253.091-69.334 0-3.089-.818-4.18-3.998-4.089-11.995.182-23.899.273-35.894 0-4.089-.091-4.997 1.091-4.997 4.998q.135 80.011 0 160.022c0 3.816 1 4.816 4.816 4.725 30.35-.091 60.792 0 91.233 0m109.861-196.37c29.715 0 59.338 0 89.053.091 3.18 0 4.816-.363 4.816-4.361-.182-53.795-.091-107.59 0-161.385 0-3.18-.818-4.18-4.089-4.09-11.995.182-23.899.273-35.894 0-4.18-.09-4.907 1.364-4.907 5.18.182 22.809.091 45.617.091 68.425 0 10.723-5.089 15.721-15.902 15.721H222.55c-11.177 0-16.084-4.907-16.084-15.993 0-22.627-.091-45.344.091-67.971 0-3.907-.727-5.543-5.089-5.452-11.631.363-23.353.272-34.985 0-3.816-.091-4.816 1-4.816 4.816q.136 80.01 0 160.022c0 3.998 1 5.088 4.998 5.088 29.714-.091 59.429-.091 89.052-.091m-89.506 57.884c0-9.087-.091-18.083.091-27.17.09-3.18-.909-4.089-4.09-4.089a1240 1240 0 0 1-36.802 0c-3.089 0-4.18.818-4.089 3.998.182 18.265.091 36.53 0 54.795 0 2.999.818 3.816 3.817 3.816 12.358-.181 24.807-.181 37.256 0 2.908 0 3.908-.727 3.908-3.725-.273-9.178-.091-18.447-.091-27.625m66.971-196.551c0 9.178.091 18.447-.091 27.625-.091 2.998.999 3.907 3.907 3.907 12.359-.091 24.808-.091 37.166 0 2.999 0 3.907-.909 3.907-3.907q-.135-27.398 0-54.795c0-2.999-.999-3.907-3.907-3.907-12.358.09-24.807.09-37.166 0-2.998 0-3.907.908-3.907 3.907.182 9.087.091 18.083.091 27.17m152.297 197.006c0-9.178-.09-18.447.091-27.625.091-3.089-.818-4.18-3.998-4.089a1234 1234 0 0 1-36.711 0c-3.181 0-4.18.818-4.089 4.089q.135 27.397 0 54.795c0 2.998.908 3.816 3.816 3.816 12.358-.181 24.807-.181 37.166 0 2.908 0 3.907-.727 3.907-3.725-.363-9.178-.182-18.174-.182-27.261"/><path fill="currentColor" d="M412.377 385.217c5.634 0 11.177-.091 16.811 0 8.269.182 14.266 5.725 14.357 13.267.182 7.451-5.815 13.449-13.994 13.63-11.449.182-22.99.182-34.439 0-8.36-.181-14.085-5.815-14.085-13.448s5.815-13.177 14.176-13.358h.908c5.362-.091 10.814-.091 16.266-.091M188.383 385.217c5.725 0 11.449-.091 17.265 0 8.269.182 14.176 5.816 14.176 13.358 0 7.36-5.634 13.267-13.722 13.358a766 766 0 0 1-35.348 0c-8.087-.182-13.539-5.998-13.358-13.54.091-7.542 5.725-12.994 13.812-13.176 5.725-.091 11.45 0 17.175 0M300.062 215.563c-5.725 0-11.45.091-17.265 0-7.815-.182-13.449-5.543-13.631-12.813-.272-7.633 5.089-13.539 13.085-13.721a803 803 0 0 1 36.258 0c7.723.182 13.267 6.179 13.176 13.358-.091 7.451-5.998 12.994-13.903 13.176h-17.72"/></svg>