<svg xmlns="http://www.w3.org/2000/svg" width="512" height="512" fill="none"><path fill="currentColor" fill-rule="evenodd" d="M280 81.5V72c0-13.255-10.745-24-24-24s-24 10.745-24 24v9.5a191 191 0 0 0-84.43 32.13L137 103c-9.389-9.389-24.611-9.389-34 0s-9.389 24.611 0 34l8.6 8.6A191.17 191.17 0 0 0 64 272c0 105.87 86.13 192 192 192s192-86.13 192-192c0-97.74-73.42-178.66-168-190.5M256 320c-23.372-.007-43.342-16.847-47.295-39.883-3.952-23.035 9.262-45.57 31.295-53.367V152c0-8.837 7.164-16 16-16s16 7.163 16 16v74.75c22.033 7.797 35.248 30.332 31.295 53.367C299.343 303.153 279.373 319.993 256 320m16-48c0 8.837-7.163 16-16 16s-16-7.163-16-16 7.164-16 16-16 16 7.163 16 16" clip-rule="evenodd"/></svg>