<svg xmlns="http://www.w3.org/2000/svg" width="512" height="512" fill="none"><path fill="currentColor" fill-rule="evenodd" d="M280 81.5V48h-48v33.5a191 191 0 0 0-84.43 32.13L120 86l-34 34 25.59 25.59A191.17 191.17 0 0 0 64 272c0 105.87 86.13 192 192 192s192-86.13 192-192c0-97.74-73.42-178.66-168-190.5M256 320c-23.372-.007-43.342-16.847-47.295-39.883-3.952-23.035 9.262-45.57 31.295-53.367V136h32v90.75c22.033 7.797 35.248 30.332 31.295 53.367C299.343 303.153 279.373 319.993 256 320" clip-rule="evenodd"/></svg>