<svg xmlns="http://www.w3.org/2000/svg" width="512" height="512" fill="none"><path fill="currentColor" fill-rule="evenodd" d="M256 48C141.163 48 48 141.163 48 256s93.163 208 208 208 208-93.163 208-208S370.837 48 256 48m0 32c97.163 0 176 78.837 176 176s-78.837 176-176 176S80 353.163 80 256 158.837 80 256 80m-80 230.4c.011 14.134 11.466 25.589 25.6 25.6h108.8c14.134-.011 25.589-11.466 25.6-25.6V201.6c-.011-14.134-11.466-25.589-25.6-25.6H201.6c-14.134.011-25.589 11.466-25.6 25.6z" clip-rule="evenodd"/></svg>