<svg xmlns="http://www.w3.org/2000/svg" width="512" height="512" fill="none"><path fill="currentColor" fill-rule="evenodd" d="M256 48c13.122 0 23.785 10.531 23.997 23.603L280 72v9.505A192 192 0 0 1 448 272c0 106.039-85.961 192-192 192S64 378.039 64 272c0-48.454 17.949-92.715 47.56-126.499l-8.531-8.53c-9.372-9.373-9.372-24.569 0-33.942 9.276-9.275 24.256-9.371 33.65-.286l.292.286 10.538 10.539C172.143 96.667 200.918 85.361 232 81.486V72c0-13.255 10.745-24 24-24m0 64c-88.366 0-160 71.634-160 160s71.634 160 160 160 160-71.634 160-160a160 160 0 0 0-160-160m0 24c8.731 0 15.829 6.994 15.997 15.685L272 152v74.731c18.643 6.59 32 24.369 32 45.269 0 26.51-21.49 48-48 48s-48-21.49-48-48c0-20.9 13.357-38.679 32-45.269V152c0-8.837 7.163-16 16-16m16 136c0-8.837-7.163-16-16-16s-16 7.163-16 16 7.163 16 16 16 16-7.163 16-16" clip-rule="evenodd"/></svg>