<svg xmlns="http://www.w3.org/2000/svg" width="512" height="512" fill="none"><path fill="currentColor" d="M64 260.329h384v32h-93.137a76.75 76.75 0 0 1 7.455 33.982 69.38 69.38 0 0 1-28.038 57.593 118.4 118.4 0 0 1-73.96 21.429 137.4 137.4 0 0 1-55.965-11.499 95.2 95.2 0 0 1-40.376-31.747 78.26 78.26 0 0 1-14.297-45.983v-2.419h6.128v-.024h7.285v.024h29.332v2.418a46.56 46.56 0 0 0 18.221 39.055 78.72 78.72 0 0 0 49.672 14.49 72.27 72.27 0 0 0 44.302-11.652 36.979 36.979 0 0 0 14.961-31.286 36.22 36.22 0 0 0-13.803-30.601 64 64 0 0 0-5.864-3.781H64zm284.688-109.72a89.2 89.2 0 0 0-36.718-32.29 120.04 120.04 0 0 0-53.608-11.653 110.1 110.1 0 0 0-71.755 22.659 71.745 71.745 0 0 0-27.886 57.737 68.9 68.9 0 0 0 6.861 30.461h55.396c-1.779-1.145-3.955-2.256-5.391-3.427a34.28 34.28 0 0 1-13.927-27.741 38.36 38.36 0 0 1 3.402-17.911 38.36 38.36 0 0 1 11.284-14.319 66.77 66.77 0 0 1 42.016-11.786 65.02 65.02 0 0 1 44.928 14.266 50.15 50.15 0 0 1 15.701 39.095v2.419h42.735V195.7a83.2 83.2 0 0 0-13.038-45.091"/></svg>