<svg xmlns="http://www.w3.org/2000/svg" width="512" height="512" fill="none"><path fill="currentColor" d="m221.865 256 76.8 76.8-29.866 29.867-76.8-76.8-76.8 76.8L85.332 332.8l76.8-76.8-76.8-76.8 29.867-29.867 76.8 76.8 76.8-76.8 29.866 29.867zm168.797 163.712 22.787-24.459c4.181-4.296 7.913-8.691 11.451-12.987a103.6 103.6 0 0 0 9.216-13.163 70 70 0 0 0 6.241-13.513 45 45 0 0 0 2.275-14.212 46.1 46.1 0 0 0-3.266-17.537 36.6 36.6 0 0 0-9.605-13.688 43.3 43.3 0 0 0-15.379-8.671 67.65 67.65 0 0 0-41.568.952 45.8 45.8 0 0 0-16.293 10.558 44.25 44.25 0 0 0-10.13 15.69 52.2 52.2 0 0 0-3.324 17.771l-.078 5.056h32.839l.136-4.841c.034-2.703.42-5.389 1.147-7.991a19.1 19.1 0 0 1 3.345-6.28 14.96 14.96 0 0 1 5.522-3.928 21.46 21.46 0 0 1 14.971-.311c1.754.77 3.32 1.911 4.589 3.345a16 16 0 0 1 2.936 5.191 23.2 23.2 0 0 1 1.166 7.155 26.7 26.7 0 0 1-.68 5.677 28.6 28.6 0 0 1-2.646 6.377 63 63 0 0 1-5.618 8.283 137 137 0 0 1-9.159 10.712l-46.001 50.201V448h102.463v-28.288z"/></svg>