<svg xmlns="http://www.w3.org/2000/svg" width="512" height="512" fill="none"><path fill="currentColor" fill-rule="evenodd" d="M234 26h44v92h-44zm0 460v-92h44v92zM403.079 77.803l-65.054 65.054 31.113 31.113 65.054-65.054zM77.815 403.074l65.054-65.054 31.113 31.113-65.054 65.054zM486 234h-92v44h92zm-460 0h92v44H26zm343.141 104.027-31.112 31.112 65.054 65.054 31.112-31.112zM77.802 108.919l31.113-31.112 65.054 65.054-31.113 31.112zM154 256c0 56.333 45.667 102 102 102 56.306-.066 101.934-45.694 102-102 0-56.333-45.667-102-102-102s-102 45.667-102 102" clip-rule="evenodd"/></svg>