<svg xmlns="http://www.w3.org/2000/svg" width="512" height="512" fill="none"><path fill="currentColor" fill-rule="evenodd" d="M256 118c-12.15 0-22-9.85-22-22V48c0-12.15 9.85-22 22-22s22 9.85 22 22v48c0 12.15-9.85 22-22 22m0 368c-12.15 0-22-9.85-22-22v-48c0-12.15 9.85-22 22-22s22 9.85 22 22v48c0 12.15-9.85 22-22 22m92.819-334.718a22 22 0 0 0 20.321 13.578 21.93 21.93 0 0 0 15.55-6.44l33.94-33.94c8.399-8.623 8.308-22.395-.204-30.907-8.511-8.511-22.283-8.602-30.906-.203l-33.94 33.94a22 22 0 0 0-4.761 23.972M108.92 425.08a22 22 0 0 1-15.55-37.56l33.94-33.94a22 22 0 1 1 31.11 31.11l-33.94 33.94a21.94 21.94 0 0 1-15.56 6.45M416 278h48c12.15 0 22-9.85 22-22s-9.85-22-22-22h-48c-12.15 0-22 9.85-22 22s9.85 22 22 22m-320 0H48c-12.15 0-22-9.85-22-22s9.85-22 22-22h48c12.15 0 22 9.85 22 22s-9.85 22-22 22m291.52 140.63a21.94 21.94 0 0 0 15.56 6.45 22 22 0 0 0 15.55-37.56l-33.94-33.94c-8.623-8.399-22.395-8.308-30.906.204-8.512 8.511-8.603 22.283-.204 30.906zM142.86 164.86a21.9 21.9 0 0 1-15.55-6.44l-33.94-33.94c-8.399-8.623-8.308-22.395.203-30.907 8.512-8.511 22.284-8.602 30.907-.203l33.94 33.94a22 22 0 0 1-15.56 37.55M154 256c0 56.333 45.667 102 102 102 56.306-.066 101.934-45.694 102-102 0-56.333-45.667-102-102-102s-102 45.667-102 102" clip-rule="evenodd"/></svg>