<svg xmlns="http://www.w3.org/2000/svg" width="512" height="512" fill="none"><path fill="currentColor" fill-rule="evenodd" d="M256 32c8.731 0 15.829 6.994 15.997 15.685L272 48v48c0 8.837-7.163 16-16 16-8.731 0-15.829-6.994-15.997-15.685L240 96V48c0-8.837 7.163-16 16-16m0 368c8.731 0 15.829 6.994 15.997 15.685L272 416v48c0 8.837-7.163 16-16 16-8.731 0-15.829-6.994-15.997-15.685L240 464v-48c0-8.837 7.163-16 16-16M414.394 97.606c-6.249-6.248-16.379-6.248-22.628 0l-33.94 33.94-.256.263c-5.991 6.266-5.905 16.203.256 22.365 6.249 6.248 16.379 6.248 22.628 0l33.94-33.94.256-.263c5.991-6.266 5.905-16.203-.256-22.365m-282.848 260.22c6.249-6.248 16.379-6.248 22.628 0 6.161 6.162 6.247 16.099.256 22.365l-.256.263-33.94 33.94c-6.249 6.248-16.379 6.248-22.628 0-6.161-6.162-6.247-16.099-.256-22.365l.256-.263zM480 256c0-8.837-7.163-16-16-16h-48l-.315.003C406.994 240.171 400 247.269 400 256c0 8.837 7.163 16 16 16h48l.315-.003C473.006 271.829 480 264.731 480 256M96 240c8.837 0 16 7.163 16 16 0 8.731-6.994 15.829-15.685 15.997L96 272H48c-8.837 0-16-7.163-16-16 0-8.731 6.994-15.829 15.685-15.997L48 240zm284.191 117.57c-6.266-5.991-16.203-5.905-22.365.256-6.248 6.249-6.248 16.379 0 22.628l33.94 33.94.263.256c6.266 5.991 16.203 5.905 22.365-.256 6.248-6.249 6.248-16.379 0-22.628l-33.94-33.94zM97.606 97.606c6.162-6.161 16.099-6.247 22.365-.256l.263.256 33.94 33.94c6.248 6.249 6.248 16.379 0 22.628-6.162 6.161-16.099 6.247-22.365.256l-.263-.256-33.94-33.94c-6.248-6.249-6.248-16.379 0-22.628M256 160c-53.019 0-96 42.981-96 96s42.981 96 96 96 96-42.981 96-96-42.981-96-96-96m0 32c35.346 0 64 28.654 64 64s-28.654 64-64 64-64-28.654-64-64 28.654-64 64-64" clip-rule="evenodd"/></svg>