<svg xmlns="http://www.w3.org/2000/svg" width="512" height="512" fill="none"><path fill="currentColor" d="m221.865 255.999 76.8 76.8-29.866 29.867-76.8-76.8-76.8 76.8-29.867-29.867 76.8-76.8-76.8-76.8 29.867-29.866 76.8 76.8 76.8-76.8 29.866 29.866zm190.13-70.954 22.787-24.459c4.181-4.297 7.913-8.691 11.452-12.988a103.6 103.6 0 0 0 9.216-13.163 70.2 70.2 0 0 0 6.241-13.512 45 45 0 0 0 2.274-14.213 46.1 46.1 0 0 0-3.266-17.537 36.6 36.6 0 0 0-9.605-13.687 43.3 43.3 0 0 0-15.379-8.672 67.64 67.64 0 0 0-41.568.953 45.8 45.8 0 0 0-16.292 10.557 44.2 44.2 0 0 0-10.13 15.69 52.2 52.2 0 0 0-3.325 17.771l-.078 5.056h32.839l.137-4.842a31 31 0 0 1 1.147-7.991 19.1 19.1 0 0 1 3.344-6.28 14.95 14.95 0 0 1 5.522-3.927 21.46 21.46 0 0 1 14.972-.311 13.2 13.2 0 0 1 4.588 3.345 15.9 15.9 0 0 1 2.936 5.191 23.2 23.2 0 0 1 1.167 7.154 26.8 26.8 0 0 1-.681 5.678 28.6 28.6 0 0 1-2.645 6.377 63 63 0 0 1-5.619 8.282 137 137 0 0 1-9.158 10.713l-46.001 50.199v22.904h102.462v-28.288z"/></svg>