<svg xmlns="http://www.w3.org/2000/svg" width="512" height="512" fill="none"><path fill="currentColor" fill-rule="evenodd" d="M175.997 95.685C175.829 86.994 168.731 80 160 80c-8.837 0-16 7.163-16 16v281.373l-84.686-84.687-.263-.256c-6.266-5.991-16.203-5.905-22.365.256-6.248 6.249-6.248 16.379 0 22.628l112 112 .263.256c6.266 5.991 16.203 5.905 22.365-.256l112-112 .256-.263c5.991-6.266 5.905-16.203-.256-22.365-6.249-6.248-16.379-6.248-22.628 0L176 377.373V96zM363.051 84.43c-6.266-5.99-16.203-5.905-22.365.256l-112 112-.256.263c-5.991 6.266-5.905 16.203.256 22.365l.263.256c6.266 5.991 16.203 5.905 22.365-.256L336 134.627V416l.003.315C336.171 425.006 343.269 432 352 432c8.837 0 16-7.163 16-16V134.627l84.686 84.687.263.256c6.266 5.991 16.203 5.905 22.365-.256 6.248-6.249 6.248-16.379 0-22.628l-112-112z" clip-rule="evenodd"/></svg>