<svg xmlns="http://www.w3.org/2000/svg" width="512" height="512" fill="none"><path fill="currentColor" fill-rule="evenodd" d="M315.051 36.43c-6.266-5.99-16.203-5.905-22.365.256l-.256.263c-5.991 6.266-5.905 16.203.256 22.365L377.373 144H96l-.315.003C86.994 144.171 80 151.269 80 160c0 8.837 7.163 16 16 16h281.373l-84.687 84.686-.256.263c-5.991 6.266-5.905 16.203.256 22.365 6.249 6.248 16.379 6.248 22.628 0l112-112 .256-.263c5.991-6.266 5.905-16.203-.256-22.365l-112-112zM196.686 228.686c6.249-6.248 16.379-6.248 22.628 0 6.161 6.162 6.247 16.099.256 22.365l-.256.263L134.627 336H416c8.837 0 16 7.163 16 16 0 8.731-6.994 15.829-15.685 15.997L416 368H134.627l84.687 84.686c6.161 6.162 6.247 16.099.256 22.365l-.256.263c-6.162 6.161-16.099 6.247-22.365.256l-.263-.256-112-112c-6.161-6.162-6.247-16.099-.256-22.365l.256-.263z" clip-rule="evenodd"/></svg>