<svg xmlns="http://www.w3.org/2000/svg" width="512" height="512" fill="none"><path fill="currentColor" fill-rule="evenodd" d="M256 48C141.13 48 48 141.13 48 256s93.13 208 208 208 208-93.13 208-208S370.87 48 256 48m0 320c-56.545-.024-104.234-42.125-111.27-98.23l-8.86 8.86L113.24 256l46-46 47.55 45.48-22.12 23.12-7.2-6.88c6.051 29.749 28.369 53.537 57.671 61.472s60.574-1.342 80.809-23.972l23.77 21.41A112.82 112.82 0 0 1 256 368m96.79-66-47.55-45.5 22.12-23.12 6.86 6.55c-6.14-29.626-28.43-53.275-57.641-61.156S216.208 180.122 196 202.64l-23.82-21.37c29.374-32.725 75.16-45.269 117.111-32.086S361.624 198.846 367 242.49l9.11-9.12L398.76 256z" clip-rule="evenodd"/></svg>