<svg xmlns="http://www.w3.org/2000/svg" width="512" height="512" fill="none"><path fill="currentColor" fill-rule="evenodd" d="M450.644 252.569C448.92 146.479 362.179 61 255.47 61c-59.391-.073-115.593 26.942-152.647 73.381-5.511 6.908-4.38 16.975 2.528 22.486s16.975 4.38 22.486-2.528A163 163 0 0 1 255.45 93c90.15 0 163.22 72.904 163.22 162.79v5.493l-17.61-16.845-.269-.251c-6.398-5.849-16.33-5.543-22.353.754-6.108 6.386-5.883 16.514.502 22.622l46 44 .272.254c6.297 5.754 16.039 5.56 22.102-.503l44-44 .256-.262c5.991-6.267 5.905-16.204-.256-22.365l-.263-.257c-6.266-5.99-16.203-5.905-22.365.257l-18.016 18.016v-6.913zM110.94 267.563 92.8 250.211v5.949C92.8 346.143 165.815 419 255.977 419a164.45 164.45 0 0 0 127.586-60.986c5.56-6.868 15.635-7.93 22.503-2.37s7.93 15.634 2.371 22.503A196.46 196.46 0 0 1 256 451c-106.764 0-193.45-85.434-195.174-191.616l-.026-3.224v-6.333l-17.486 17.487c-6.162 6.162-16.099 6.247-22.365.257l-.263-.257c-6.161-6.161-6.247-16.098-.256-22.365l.256-.262 44-44c6.063-6.063 15.805-6.257 22.102-.503l.272.254 46 44c6.385 6.108 6.61 16.236.502 22.622-6.023 6.297-15.955 6.603-22.353.754z" clip-rule="evenodd"/></svg>