<svg xmlns="http://www.w3.org/2000/svg" width="512" height="512" fill="none"><path fill="currentColor" fill-rule="evenodd" d="M256 48C141.13 48 48 141.13 48 256s93.13 208 208 208 208-93.13 208-208S370.87 48 256 48m83.69 282.65c-29.387 32.794-75.235 45.374-117.243 32.171-42.009-13.204-72.416-49.752-77.757-93.461-6.854 4.535-16.03 3.14-21.226-3.228s-4.722-15.637 1.096-21.442l23.6-23.6c6.15-6.149 16.084-6.26 22.37-.25l24.67 23.6a16 16 0 0 1 2.141 20.713 16 16 0 0 1-20.141 5.287c5.591 30.083 27.802 54.369 57.267 62.616s61.057-.977 81.453-23.786c5.967-6.311 15.88-6.709 22.334-.896s7.091 15.713 1.436 22.306zm47.76-63.34-23.6 23.6c-6.15 6.149-16.084 6.26-22.37.25l-24.67-23.6a16.001 16.001 0 0 1 17.68-26.11c-5.605-30.015-27.773-54.239-57.174-62.478s-60.929.937-81.316 23.668a16.001 16.001 0 0 1-23.82-21.37c29.411-32.792 75.293-45.335 117.297-32.064 42.003 13.27 72.351 49.896 77.583 93.634 6.809-4.642 16.03-3.353 21.305 2.977 5.275 6.331 4.879 15.633-.915 21.493" clip-rule="evenodd"/></svg>