<svg xmlns="http://www.w3.org/2000/svg" width="512" height="512" fill="none"><path fill="currentColor" fill-rule="evenodd" d="M450.271 252.569C448.547 146.479 361.807 61 255.097 61c-59.39-.073-115.593 26.942-152.646 73.381l-9.98 12.507 25.014 19.958 9.979-12.507.934-1.159A163 163 0 0 1 255.078 93c90.15 0 163.219 72.904 163.219 162.79v5.493l-29.172-27.904-22.119 23.124 68.87 65.876L502.255 256l-22.628-22.627-29.33 29.33v-6.913zM92.427 256.16v-5.949l29.703 28.411 22.119-23.124-68.87-65.876L9 256l22.627 22.628 28.8-28.801v6.333l.027 3.224C62.177 365.566 148.864 451 255.627 451a196.46 196.46 0 0 0 152.437-72.853l10.066-12.437-24.873-20.133-10.066 12.437-.94 1.15A164.45 164.45 0 0 1 255.604 419c-90.161 0-163.177-72.857-163.177-162.84" clip-rule="evenodd"/></svg>