<svg xmlns="http://www.w3.org/2000/svg" width="512" height="512" fill="none"><path fill="currentColor" fill-rule="evenodd" d="M256 48C141.163 48 48 141.163 48 256s93.163 208 208 208 208-93.163 208-208S370.837 48 256 48m0 32c97.163 0 176 78.837 176 176s-78.837 176-176 176S80 353.163 80 256 158.837 80 256 80m111.021 162.842c6.138-4.259 14.594-3.731 20.158 1.585l.262.257c6.163 6.16 6.251 16.097.262 22.365l-.257.262-23.59 23.6c-6.062 6.065-15.807 6.26-22.105.505l-.271-.254-24.67-23.6c-6.386-6.109-6.61-16.237-.502-22.622 4.817-5.035 12.132-6.239 18.141-3.53-5.076-27.076-23.873-50.071-50.256-60.118-30.992-11.801-66.05-3.298-88.192 21.391-5.899 6.578-16.015 7.128-22.594 1.228-6.578-5.899-7.128-16.015-1.228-22.594 30.981-34.545 80.037-46.443 123.402-29.93 39.264 14.952 66.521 50.4 71.44 91.455m-242.2 24.731c5.483 5.238 13.772 5.828 19.886 1.769 4.973 41.043 32.256 76.46 71.529 91.389 43.42 16.505 92.52 4.553 123.497-30.061 5.893-6.585 5.332-16.7-1.253-22.593s-16.7-5.332-22.593 1.253l-.668.738c-22.177 24.175-56.885 32.431-87.613 20.751-26.491-10.07-45.35-33.18-50.38-60.38 6.069 2.903 13.562 1.747 18.466-3.379 6.108-6.385 5.884-16.513-.502-22.622l-24.67-23.6-.271-.254c-6.298-5.755-16.043-5.56-22.105.505l-23.59 23.6-.257.262c-5.989 6.268-5.901 16.205.262 22.365z" clip-rule="evenodd"/></svg>