<svg xmlns="http://www.w3.org/2000/svg" width="512" height="512" fill="none"><path fill="currentColor" fill-rule="evenodd" d="M0 128c.039-35.33 28.67-63.961 64-64h384c35.33.039 63.961 28.67 64 64v256c-.039 35.33-28.67 63.961-64 64H64c-35.33-.039-63.961-28.67-64-64zm480 256V128c0-17.673-14.327-32-32-32H64c-17.673 0-32 14.327-32 32v256c0 17.673 14.327 32 32 32h384c17.673 0 32-14.327 32-32m-16 0c0 8.837-7.163 16-16 16H64c-8.837 0-16-7.163-16-16V128c0-8.837 7.163-16 16-16h384c8.837 0 16 7.163 16 16z" clip-rule="evenodd"/></svg>