<svg xmlns="http://www.w3.org/2000/svg" width="512" height="515" fill="none"><path fill="currentColor" d="m427.029 426.918 19.2 77.217-68.267-40.754-70.4 40.754 17.067-77.217-61.867-62.203h81.067l36.267-75.073 29.866 75.073h81.067zm-.365-319.541H85.331a42.68 42.68 0 0 0-30.133 12.601 43.14 43.14 0 0 0-12.534 30.297v214.493a43.14 43.14 0 0 0 12.534 30.297 42.68 42.68 0 0 0 30.133 12.602h159.811l-12.55-12.618-19.45-19.556h-10.478v-53.677H317.12l24.211-50.119v-46.349h96v64.348H426.07l12.779 32.12h30.482V150.275a43.14 43.14 0 0 0-12.534-30.297 42.68 42.68 0 0 0-30.133-12.601m-352 42.898a10.2 10.2 0 0 1 .637-4.204 10.14 10.14 0 0 1 2.296-3.571 10.1 10.1 0 0 1 3.552-2.309 10 10 0 0 1 4.182-.64h85.333v53.623h-96zm0 75.073h96v64.348h-96zm10.667 150.145a10.062 10.062 0 0 1-7.733-2.95 10.1 10.1 0 0 1-2.297-3.571 10.2 10.2 0 0 1-.637-4.204v-42.899h96v53.624zm224-85.797H202.664v-64.348h106.667zm0-96.522H202.664v-53.623h106.667zm128 0h-96v-53.623h85.333a10 10 0 0 1 4.182.64 10.1 10.1 0 0 1 3.551 2.309 10.15 10.15 0 0 1 2.934 7.775z"/></svg>