<svg xmlns="http://www.w3.org/2000/svg" width="512" height="512" fill="none"><path fill="currentColor" fill-rule="evenodd" d="M384 0c35.33.039 63.961 28.67 64 64v384c-.039 35.33-28.67 63.961-64 64H128c-35.33-.039-63.961-28.67-64-64V64C64.039 28.67 92.67.039 128 0zM128 480h256c17.673 0 32-14.327 32-32V64c0-17.673-14.327-32-32-32H128c-17.673 0-32 14.327-32 32v384c0 17.673 14.327 32 32 32m0-16c-8.837 0-16-7.163-16-16V64c0-8.837 7.163-16 16-16h256c8.837 0 16 7.163 16 16v384c0 8.837-7.163 16-16 16z" clip-rule="evenodd"/></svg>