<svg xmlns="http://www.w3.org/2000/svg" width="513" height="512" fill="none"><path fill="currentColor" d="M200.012 200.235c11.699-11.781 24.276-18.803 40.215-22.453 3.908-.896 10.021-1.233 18.912-1.042 11.894.255 13.981.566 22.052 3.291 13.042 4.402 21.582 9.6 30.991 18.862 9.406 9.257 14.796 17.162 18.852 27.646 4.031 10.421 5.486 18.159 5.506 29.271.038 22.258-7.664 40.902-23.392 56.621-15.7 15.693-34.417 23.396-56.846 23.396-43.852 0-79.272-35.62-79.272-79.722 0-21.765 7.699-40.482 22.982-55.87"/><path fill="currentColor" fill-rule="evenodd" d="M237.087 64.256c0-18.39 2.934-23.813 15.008-27.73 5.456-1.771 14.974 1.116 19.433 5.893 4.065 4.356 4.971 8.337 4.971 21.837 0 12.399.046 12.682 2.112 13.076 1.161.22 6.967 1.302 12.902 2.401 70.485 13.06 128.676 71.222 141.743 141.67 1.1 5.932 2.182 11.735 2.402 12.896.394 2.064.678 2.11 13.083 2.11 9.323 0 13.601.385 16.156 1.452 14.325 5.982 16.127 25.53 3.191 34.616-4.028 2.829-4.194 2.858-18.063 3.157-13.522.292-14.011.372-14.384 2.345-.212 1.124-1.285 6.897-2.385 12.829-13.067 70.448-71.258 128.609-141.743 141.67a8056 8056 0 0 0-12.835 2.384c-1.974.372-2.054.861-2.346 14.376-.299 13.862-.328 14.028-3.159 18.054-9.091 12.929-28.648 11.128-34.634-3.189-1.067-2.554-1.452-6.83-1.452-16.148 0-12.399-.046-12.682-2.112-13.076-1.161-.221-6.967-1.302-12.902-2.401-54.655-10.127-103.144-47.708-127.731-98.995-5.99-12.498-11.56-29.463-14.012-42.675-1.1-5.932-2.182-11.735-2.402-12.896-.394-2.065-.678-2.111-13.083-2.111-9.323 0-13.601-.384-16.157-1.452-15.85-6.618-15.85-29.869 0-36.488 2.556-1.067 6.834-1.452 16.157-1.452 12.405 0 12.689-.046 13.083-2.11.22-1.161 1.302-6.964 2.402-12.896 2.446-13.187 8.012-30.15 14.002-42.675 24.507-51.239 73.053-88.862 127.741-98.995 5.935-1.1 11.741-2.18 12.902-2.4 2.066-.395 2.112-.678 2.112-13.077m157.808 168.871c-10.129-59.181-55.641-104.87-114.501-114.946-12.677-2.171-34.017-2.325-45.899-.332-68.408 11.472-117.522 69.252-117.522 138.256 0 68.744 48.8 126.4 116.829 138.031 14.488 2.477 38.272 2.027 51.823-.981 42.095-9.344 77.664-36.917 96.336-74.679 10.059-20.344 13.648-34.868 14.367-58.15.414-13.383.183-17.753-1.433-27.199" clip-rule="evenodd"/></svg>