<svg xmlns="http://www.w3.org/2000/svg" width="512" height="512" fill="none"><path fill="currentColor" fill-rule="evenodd" d="M432 32H80c-35.33.039-63.961 28.67-64 64v320c.039 35.33 28.67 63.961 64 64h352c35.33-.039 63.961-28.67 64-64V96c-.039-35.33-28.67-63.961-64-64M96 256a16 16 0 0 1-10-28.49L150.39 176 86 124.49a16.008 16.008 0 1 1 20-25l80 64a16 16 0 0 1 0 25l-80 64A16 16 0 0 1 96 256m160 0h-64c-8.837 0-16-7.163-16-16s7.163-16 16-16h64c8.837 0 16 7.163 16 16s-7.163 16-16 16" clip-rule="evenodd"/></svg>