<svg xmlns="http://www.w3.org/2000/svg" width="512" height="512" fill="none"><path fill="currentColor" fill-rule="evenodd" d="M80 32h352c35.346 0 64 28.654 64 64v320c0 35.346-28.654 64-64 64H80c-35.346 0-64-28.654-64-64V96c0-35.346 28.654-64 64-64m352 32H80c-17.673 0-32 14.327-32 32v320c0 17.673 14.327 32 32 32h352c17.673 0 32-14.327 32-32V96c0-17.673-14.327-32-32-32M83.506 102.005c5.446-6.807 15.318-7.988 22.208-2.72l.281.221 80 64c7.916 6.333 8.006 18.307.27 24.767l-.27.221-80 64c-6.9 5.52-16.969 4.401-22.489-2.499-5.445-6.807-4.43-16.697 2.222-22.263l.277-.226L150.387 176l-64.382-51.506c-6.807-5.446-7.988-15.318-2.72-22.208zM272 240c0-8.837-7.163-16-16-16h-64l-.315.003C182.994 224.171 176 231.269 176 240c0 8.837 7.163 16 16 16h64l.315-.003C265.006 255.829 272 248.731 272 240" clip-rule="evenodd"/></svg>