<svg xmlns="http://www.w3.org/2000/svg" width="512" height="512" fill="none"><path fill="currentColor" fill-rule="evenodd" d="M219.75 338.87 261.94 451H309L156 61 5 451h47.06l42.19-112.13zM157 173.71 203.25 295h-92.5zM405.42 183c-41.23 0-78.07 24.06-93.85 61.3L305 259.52l40.33 17.18 6.56-15.22c8.9-21 29.91-34.55 53.53-34.55 34.55 0 57.76 23.27 57.76 57.91v2.3c-22.12.59-48.65 2.05-72.27 4.84-54.52 6.43-87.06 36.23-87.06 79.72 0 23.16 8.72 44 24.56 58.59C343.28 444 363.55 451 385.51 451c30.86 0 57.5-7.33 77.67-22.64V451H507V284.84C507 225.83 464.28 183 405.42 183m-19.91 225.07c-17.46 0-37.85-9.84-37.85-36.37 0-10.65 3.82-18.11 12.38-24.19 8.34-5.92 21.12-10.15 36-11.9 21.78-2.57 46.31-3.95 67-4.52-2.16 51.49-27.57 76.98-77.53 76.98" clip-rule="evenodd"/></svg>