<svg xmlns="http://www.w3.org/2000/svg" width="512" height="512" fill="none"><path fill="currentColor" fill-rule="evenodd" d="m292.6 407.78-120-320a22.001 22.001 0 0 0-41.2 0l-120 320c-4.131 11.342 1.648 23.894 12.95 28.13 11.304 4.236 23.91-1.427 28.25-12.69l36.16-96.42a2 2 0 0 1 1.87-1.3h122.74a2 2 0 0 1 1.87 1.3l36.16 96.42c4.34 11.263 16.945 16.926 28.248 12.69s17.083-16.788 12.952-28.13m-185.84-129 43.37-115.65a2 2 0 0 1 3.74 0l43.37 115.67a2 2 0 0 1-1.87 2.7h-86.74a2 2 0 0 1-1.87-2.7zM400.77 169.5c-41.72-.3-79.08 23.87-95 61.4-4.75 11.184.466 24.1 11.65 28.85 11.183 4.75 24.1-.466 28.85-11.65 8.88-20.89 29.77-34.44 53.32-34.6 32.32-.22 58.41 26.5 58.41 58.85 0 .809-.642 1.473-1.45 1.5-21.92.61-47.92 2.07-71.12 4.8-54.75 6.44-87.43 36.29-87.43 79.85 0 23.19 8.76 44 24.67 58.68C337.6 430.93 358 438.5 380 438.5c31 0 57.69-8 77.94-23.22h.06a22 22 0 1 0 44 .19v-143c0-56.18-45-102.56-101.23-102.97M380 394.5c-17.53 0-38-9.43-38-36 0-10.67 3.83-18.14 12.43-24.23 8.37-5.93 21.2-10.16 36.14-11.92 21.12-2.49 44.82-3.86 65.14-4.47a2 2 0 0 1 1.45.621c.379.397.577.931.55 1.479C455 370.1 429.46 394.5 380 394.5" clip-rule="evenodd"/></svg>