<svg xmlns="http://www.w3.org/2000/svg" width="512" height="512" fill="none"><path fill="currentColor" d="M289.083 405.333h42.667L225.083 106.667h-42.666L75.75 405.333h42.667L148.283 320h108.8zm-125.866-128L203.75 166.4l40.533 110.933zm273.066 96a31.998 31.998 0 0 1-38.243 31.386 32.003 32.003 0 0 1-23.321-43.631 32.005 32.005 0 0 1 29.564-19.755 32 32 0 0 1 32 32m0-85.333a31.996 31.996 0 0 1-38.243 31.385 32.002 32.002 0 0 1-23.321-43.631 32.002 32.002 0 0 1 52.192-10.381A32 32 0 0 1 436.283 288m0-85.333a32.002 32.002 0 0 1-38.243 31.385 32.003 32.003 0 0 1-23.321-43.631 32.002 32.002 0 0 1 52.192-10.382 32 32 0 0 1 9.372 22.628"/></svg>