<svg xmlns="http://www.w3.org/2000/svg" width="512" height="512" fill="none"><path fill="currentColor" fill-rule="evenodd" d="M166.826 89.97c-5.422-13.43-24.664-13.292-29.803.412l-77.87 207.655q-.14.344-.261.695l-41.869 111.65-.111.307c-2.887 8.194 1.303 17.228 9.474 20.292l.307.112c8.194 2.887 17.228-1.303 20.293-9.475L85.092 320h133.824l38.107 101.618.118.305c3.212 8.071 12.31 12.123 20.481 9.058 8.274-3.102 12.466-12.325 9.364-20.599l-41.869-111.65a17 17 0 0 0-.261-.695l-77.87-207.655zM206.916 288l-54.912-146.432L97.092 288zm193.088-112c54.934 0 95.189 39.009 95.988 94.319l.012 1.681v144c0 8.837-7.163 16-16 16-8.731 0-15.829-6.994-15.997-15.685l-.003-.315v-13.379a94 94 0 0 1-2.975 2.832c-20.528 18.7-48.5 27.547-81.025 27.547-43.182 0-76-30.225-76-74 0-23.567 10.297-42.362 28.462-55.233 14.352-10.168 32.965-16.219 53.669-18.657 24.167-2.844 52.567-4.463 77.869-4.951V272c0-38.398-26.059-64-64-64-26.006 0-49.01 14.89-58.976 37.567l-.298.69c-3.455 8.133-12.85 11.924-20.983 8.469-8.132-3.456-11.924-12.85-8.469-20.983C326.122 198.807 360.958 176 400.004 176M464 312.166l-.006.82c-.342 32.243-9.038 54.713-24.515 68.811C425.453 394.575 405.137 401 380.004 401c-26.07 0-44-16.513-44-42 0-12.89 5.042-22.094 14.961-29.122 9.432-6.683 23.099-11.125 38.911-12.988 22.422-2.638 48.993-4.185 72.851-4.698z" clip-rule="evenodd"/></svg>