<svg xmlns="http://www.w3.org/2000/svg" width="512" height="512" fill="none"><path fill="currentColor" fill-rule="evenodd" d="M320 287.18V81c0-35.12-27.89-64.42-63-64.95a64.08 64.08 0 0 0-65 64v207.13a8 8 0 0 1-3.18 6.37A113.48 113.48 0 0 0 144 384c0 61.856 50.144 112 112 112s112-50.144 112-112a113.48 113.48 0 0 0-44.82-90.45 8 8 0 0 1-3.18-6.37M254.07 432c-21.344-.881-39.537-15.761-44.634-36.506s4.129-42.362 22.634-53.034a16 16 0 0 0 8-13.84V112.45c0-8.61 6.62-16 15.23-16.43A16 16 0 0 1 272 112v216.58a16.18 16.18 0 0 0 8.15 13.94c19.099 11.078 28.178 33.755 22 54.953-6.178 21.197-26.02 35.446-48.08 34.527" clip-rule="evenodd"/></svg>