<svg xmlns="http://www.w3.org/2000/svg" width="512" height="512" fill="none"><path fill="currentColor" fill-rule="evenodd" d="M320 291.24V80c0-35.346-28.654-64-64-64s-64 28.654-64 64v211.24A113.39 113.39 0 0 0 144 384c0 61.856 50.144 112 112 112s112-50.144 112-112a113.39 113.39 0 0 0-48-92.76M256 432c-23.383.007-43.369-16.837-47.323-39.884-3.954-23.046 9.274-45.589 31.323-53.376V96h32v242.74c22.049 7.787 35.277 30.33 31.324 53.376C299.37 415.163 279.383 432.007 256 432" clip-rule="evenodd"/></svg>