<svg xmlns="http://www.w3.org/2000/svg" width="512" height="512" fill="none"><path fill="currentColor" fill-rule="evenodd" d="m254.94 16.009 1.058-.009.924.007 1.174.027c34.419 1.11 61.902 29.363 61.902 63.966l-.001 211.271.252.177a113.5 113.5 0 0 1 47.744 91.409l.005 1.151c-.032 60.849-48.64 110.541-109.473 111.913-60.833 1.373-111.634-46.076-114.411-106.875a113.51 113.51 0 0 1 47.468-97.483l.416-.294V80c0-34.993 28.084-63.426 62.942-63.991m1.593 31.995-.535-.004c-17.673 0-32 14.327-32 32v215.545a24 24 0 0 1-11.13 20.22l-.563.371c-23.502 15.665-37.223 42.386-36.258 70.6l.034.864c1.984 43.418 38.27 77.31 81.722 76.329 43.452-.98 78.172-36.474 78.195-79.936a81.49 81.49 0 0 0-37.013-68.316l-.19-.124a24.01 24.01 0 0 1-10.797-20.033V80c0-17.475-14.022-31.713-31.465-31.996M255.998 96c8.732 0 15.829 6.994 15.997 15.685l.003.315v226.731c18.643 6.59 32 24.369 32 45.269 0 26.51-21.49 48-48 48s-48-21.49-48-48c0-20.9 13.357-38.679 32-45.269V112c0-8.837 7.164-16 16-16" clip-rule="evenodd"/></svg>