<svg xmlns="http://www.w3.org/2000/svg" width="512" height="512" fill="none"><path fill="currentColor" fill-rule="evenodd" d="m112.353 32 64.721 3.034 1.176.107c4.563.445 8.843 1.229 12.813 2.34l.404-.099c3.31-.805 7.362-1.584 12.222-2.293l1.415-.202c13.103-1.819 29.916-2.886 50.896-2.886 24.332 0 45.025 3.8 63.608 11.111 12.854 5.057 23.585 11.138 36.264 19.997l1.27.892H416c43.741 0 79.283 35.105 79.99 78.677l.01 1.323v48c0 43.741-35.104 79.283-78.677 79.989l-1.323.011h-29.911a16.34 16.34 0 0 0-13.222 6.864l-.203.29-.792 1.643-.646 1.317-1.26 2.532a577 577 0 0 1-4.012 7.833l-1.458 2.784c-6.519 12.389-14.919 27.607-25.419 45.84l-1.221 2.117c-7.011 12.143-15.948 26.327-27.116 43.224l-2.035 3.07a1950 1950 0 0 1-5.228 7.833l-3.539 5.255c-7.579 11.211-21.916 32.235-26.776 39.362l-1.649 2.419-3.249 4.812c-7.515 11.176-11.933 18.091-13.725 21.515l-.228.445A16 16 0 0 1 240 480.001c-39.564 0-61.899-32.437-49.102-68.993l.533-1.516c1.783-5.031 3.629-9.904 6.258-16.603l5.084-12.883.885-2.269c7.071-18.233 10.967-30.815 13.057-44.093l.163-1.07-121.577-9.578c-26.077-.41-47.3-23.696-47.3-49.995v-.255a47.9 47.9 0 0 1 3.738-18.349c-20.27-5.376-35.308-23.655-35.73-45.559l-.009-.772.01-.907c.32-16.641 9.089-31.212 22.196-39.6a47.86 47.86 0 0 1-6.197-22.726l-.008-.658v-.219c.061-22.107 15.036-40.704 35.394-46.261a48 48 0 0 1-3.386-16.862L64 80.175v-.219c.073-26.454 21.5-47.88 47.954-47.955zm98.627 79.9c8.02 7.855 12.826 18.639 13.015 31.338l.005.763c0 13.088-4.875 24.127-13.149 32.117 8.025 7.865 12.943 18.588 13.143 31.102l.006.781c0 13.122-5.151 24.256-13.67 32.293 8.527 7.787 13.483 18.668 13.665 31.962l.005.745c0 10.597-3.361 19.896-9.144 27.314l11.435.901.052.002c8.17.316 14.521 5.017 18.599 11.531l.216.35c3.229 5.313 4.889 11.806 4.198 17.924-2.214 19.31-6.901 35.275-16.208 59.174l-1.24 3.163-4.149 10.502c-2.913 7.409-4.798 12.401-6.657 17.715-4.528 12.934-.664 22.252 10.155 25.325l.19.052.717-1.131c2.347-3.687 5.274-8.128 8.906-13.533l4.918-7.274.844-1.237.006-.01.008-.012c5.633-8.261 22.655-33.223 28.939-42.571l1.997-2.976q1.315-1.964 2.586-3.872l1.678-2.523c11.564-17.416 20.71-31.852 27.697-43.902l2.778-4.82c9.751-16.977 17.569-31.161 23.649-42.717l.721-1.374a560 560 0 0 0 4.708-9.173l.926-1.863q.563-1.142.978-2.007l.588-1.236q.403-.878.91-1.703c8.652-14.071 23.882-22.739 40.458-23.013l.541-.006h30c26.245 0 47.57-21.063 47.994-47.206l.006-.794v-48c0-26.245-21.062-47.57-47.206-47.994l-.794-.006h-64a16 16 0 0 1-9.41-3.06l-1.601-1.158c-12.408-8.921-21.862-14.473-33.097-18.893-14.527-5.716-30.912-8.778-50.803-8.886L256 64.001c-13.27 0-24.6.448-34.125 1.237 1.334 4.268 2.057 8.953 2.121 14.036L224 80c0 12.67-4.943 23.775-13.02 31.899M174.9 66.967l-63.189-2.962-.295.01c-8.537.352-15.356 7.354-15.415 15.964v-.027.094-.067l.002.283.01.283c.326 8.478 7.214 15.263 15.713 15.452l.09.001 63.934-1.997.609-.003C185.649 93.85 192 87.945 192 80.001l-.002-.324c-.052-4.123-.968-6.457-2.686-8.065l-.174-.158c-2.482-2.186-7.232-3.874-14.534-4.514zm.132 192.015-79.177-1.98-.172.002c-8.658.169-15.637 7.214-15.683 15.827l.004.499c.176 9.078 7.626 17.281 15.438 17.658l.243.008 79.407-3.971.302-.021c10.504-.805 16.449-6.119 16.603-13.699l.002-.264-.001-.346c-.11-7.999-4.758-12.401-16.585-13.674zm-111.113-66.98 111.525 1.991.221.013c10.203.61 16.211 6.053 16.333 13.725l.001.317-.002.258c-.152 7.488-5.938 12.761-16.163 13.663l-.531.041-111.373 1.989-.2-.002c-8.5-.192-15.389-6.977-15.717-15.457l-.01-.283-.002-.276c.064-8.715 7.05-15.782 15.734-15.976zm-15.918 15.979v.07-.1zm31.898-79.979 95.546 1.99.28.015c10.704.599 16.154 5.654 16.273 13.705l.002.341-.002.264c-.137 7.845-5.408 12.762-16.094 13.651l-.603.044-95.403 1.987-.172-.002c-8.499-.189-15.387-6.974-15.714-15.452l-.009-.283-.002-.283c.06-8.715 7.046-15.783 15.729-15.974zm-15.898 15.977v.067-.094z" clip-rule="evenodd"/></svg>