<svg xmlns="http://www.w3.org/2000/svg" width="512" height="512" fill="none"><path fill="currentColor" fill-rule="evenodd" d="M272 32c19 0 34.63 7.32 44.06 20.62 9.35 13.18 11.19 30.81 5.05 48.38-2.899 8.293-6.029 16.2-9.059 23.854l-.161.406c-7.07 17.87-13.74 34.82-16.74 54.16a24.84 24.84 0 0 0 .86 11.58c.37 1.1.75 2.17 1.13 3.17a15.63 15.63 0 0 1-1.14 13.64c-6 9.89-8 22.99-8 31.19a60.3 60.3 0 0 0 5.19 25.52 18.13 18.13 0 0 1 0 14.68 62.15 62.15 0 0 0 0 49.59 17.32 17.32 0 0 1 0 14 63.8 63.8 0 0 0 0 50.39 17.36 17.36 0 0 1 0 14.05A61.2 61.2 0 0 0 288 432c0 9 1.8 22.41 10.37 34.8l.1.14a8 8 0 0 1-6.2 12.68c-6.08.24-12.82.38-20.27.38-46.66 0-90-14.13-112.94-29.11a17.54 17.54 0 0 0-9.58-2.89h-48.79A84.69 84.69 0 0 1 16 363.3v-38.61A84.69 84.69 0 0 1 100.69 240H126a15.8 15.8 0 0 0 7.53-2 16.35 16.35 0 0 0 5.79-5.22l1-2c3.47-7.07 13.34-26.51 33.82-62l.13-.23c14.88-25.73 37.23-58.47 55.23-84.8 12.94-18.91 25.19-36.84 28.19-42.91A16 16 0 0 1 272 32m58.61 170.33L437.35 194C450 194 464 210.68 464 227.88v.33c0 16.32-11.14 29.62-24.88 29.79l-108.45-1.73C304 253 304 236.83 304 229.88c0-22.88 21.8-27.15 26.61-27.55M472.06 334l-144.16-6.13-.351-.027C322.39 327.457 304 326.078 304 302c0-23.275 18.308-25.25 23.783-25.841l.357-.039L472.06 270c12.67.13 23.94 14.43 23.94 32s-11.27 31.87-23.94 32M332.48 471.07l89.37 8.93c14.47-.34 26.14-14.51 26.14-32.01s-11.78-31.77-26.32-32l-91 3c-13.26 0-26.67 6.22-26.67 24.6 0 10.23 4 26.55 28.48 27.48m123.73-62.57-126.4-6.21c-9.39-.63-25.81-3-25.81-26.37 0-12 4.35-25.61 25-27.53l127.19-3.88c13.16.14 23.81 13.49 23.81 31.4s-10.65 32.43-23.79 32.58z" clip-rule="evenodd"/></svg>