<svg xmlns="http://www.w3.org/2000/svg" width="512" height="512" fill="none"><path fill="currentColor" fill-rule="evenodd" d="M179.52 40.93 90.15 32C75.68 32.34 64 46.49 64 64s11.78 31.78 26.33 32l91-3C194.59 93 208 86.79 208 68.4c0-10.22-4-26.54-28.48-27.47M39.94 178l144.16 6.12.174.013.171.013C189.598 184.533 208 185.914 208 210c0 23.273-18.321 25.251-23.789 25.842l-.006.001-.345.037L39.94 242C27.27 241.87 16 227.56 16 210s11.27-31.87 23.94-32m141.45 131.66L74.65 318C62 318 48 301.31 48 284.12v-.33c0-16.33 11.14-29.63 24.88-29.79l108.45 1.72C208 259 208 275.16 208 282.12c0 22.88-21.8 27.14-26.61 27.54M55.79 103.5l126.4 6.22c9.39.63 25.81 3 25.81 26.36 0 12-4.35 25.62-25 27.53L55.79 167.5C42.65 167.35 32 154 32 136.08s10.65-32.43 23.79-32.58M240 480c-19 0-34.63-7.33-44.06-20.62-9.35-13.18-11.19-30.82-5.05-48.38 2.899-8.304 6.03-16.212 9.06-23.866l.16-.404c7.07-17.86 13.74-34.81 16.74-54.16.632-3.87.337-7.836-.86-11.57-.37-1.11-.75-2.17-1.13-3.17a15.66 15.66 0 0 1 1.14-13.65c6-9.88 8-22.98 8-31.18a60.4 60.4 0 0 0-5.19-25.52 18.13 18.13 0 0 1 0-14.68 62.13 62.13 0 0 0 0-49.58 17.32 17.32 0 0 1 0-14 63.8 63.8 0 0 0 0-50.39 17.38 17.38 0 0 1 0-14.06A61.2 61.2 0 0 0 224 80c0-9-1.8-22.41-10.37-34.8l-.1-.14a8 8 0 0 1 6.2-12.68c6.08-.24 12.82-.38 20.27-.38 46.66 0 90 14.13 112.94 29.11a17.46 17.46 0 0 0 9.58 2.89h48.79c46.775.005 84.69 37.925 84.69 84.7v38.6c0 46.771-37.909 84.689-84.68 84.7H386c-2.636.03-5.223.714-7.53 1.99a16.5 16.5 0 0 0-5.79 5.23l-1 2c-3.47 7.06-13.34 26.51-33.82 62l-.13.22c-14.88 25.73-37.23 58.48-55.23 84.81-12.94 18.9-25.19 36.84-28.19 42.9A16 16 0 0 1 240 480" clip-rule="evenodd"/></svg>