<svg xmlns="http://www.w3.org/2000/svg" width="512" height="512" fill="none"><path fill="currentColor" d="M372.5 23H489v224.251H372.5zM38.81 173.075l16.644-8.625-10.818-16.387c-3.329-5.175-4.993-11.213-4.993-17.25 0-14.663 10.818-27.6 24.964-30.188l23.3-3.45L77.09 75.613c-2.496-6.038-4.16-12.075-3.328-18.113 1.664-14.662 14.978-25.875 30.789-25.875h201.379c15.81 0 33.285 9.487 33.285 25.875v177.676l-79.885 157.838c-2.497 4.312-3.329 9.487-2.497 14.662l6.657 79.35c-8.321 2.588-21.635 3.45-31.621-2.587-23.3-14.663-33.286-40.538-33.286-80.213 0-20.7 3.329-42.263 5.825-58.65q1.248-11.644 2.497-18.113l.832-19.837H53.789c-14.978 0-27.46-10.35-29.957-24.15-2.496-12.075 2.497-23.288 11.65-30.188l19.14-14.662-19.14-13.8C27.992 218.788 23 210.163 23 199.813c0-11.213 5.825-21.563 15.81-26.738"/></svg>