<svg xmlns="http://www.w3.org/2000/svg" width="512" height="512" fill="none"><path fill="currentColor" fill-rule="evenodd" d="m256.006 16-1.924.011c-59.874.697-113.483 36.367-137.511 90.577l-.12.273-.572.033c-54.387 3.514-98.071 48.122-99.824 103.015l-.042 1.798-.013 1.624c0 58.711 48.028 106.67 106.8 106.67h66.313l-12.895 77.37-.049.307c-1.418 9.631 6.048 18.323 15.831 18.323h32v64l.006.464c.392 15.228 20.057 21.375 29.014 8.836l80-112 .222-.319c7.19-10.564-.358-24.981-13.242-24.981h-27.508l8-32H404.33c49.423 0 90.024-39.462 91.621-88.563l.038-1.622.011-1.375-.012-1.509c-.804-49.217-40.857-89.225-90.151-90.029l-.329-1.551C390.582 67.456 329.816 17.094 258.335 16.019zm32.329 272.001a16 16 0 0 0-.694 0h-79.379a18 18 0 0 0-.563 0H122.8l-1.231-.01c-40.139-.657-72.901-33.372-73.559-73.431l-.01-1.23.01-1.23c.664-40.504 34.143-73.429 74.79-73.429h4.57a16 16 0 0 0 15.074-10.637c17.087-48.024 62.567-80.082 113.541-80.033H256c61.041 0 112.623 45.468 120.084 104.837l.212 1.804c.893 8.11 7.745 14.249 15.904 14.249h12.13l.983.008c32.043.524 58.155 26.606 58.679 58.562l.007.919-.007 1.044c-.529 32.325-27.21 58.577-59.662 58.577zm-66.781 32h45.954l-11.03 44.119-.073.303c-2.299 9.99 5.29 19.578 15.595 19.578h16.909L256 430.073v-30.072l-.003-.315c-.168-8.691-7.266-15.685-15.997-15.685h-29.113zm-94.399 17.689c-7.903-3.952-17.514-.748-21.466 7.156l-24 48-.146.301c-3.724 7.845-.502 17.263 7.302 21.165 7.903 3.952 17.514.748 21.466-7.156l24-48 .146-.301c3.724-7.845.502-17.263-7.302-21.165m16 80c-7.903-3.952-17.514-.748-21.466 7.156l-16 32-.146.301c-3.724 7.845-.502 17.263 7.302 21.165 7.903 3.952 17.514.748 21.466-7.156l16-32 .146-.301c3.724-7.845.502-17.263-7.302-21.165m242.534-72.844c3.952-7.904 13.563-11.108 21.466-7.156 7.804 3.902 11.026 13.32 7.302 21.165l-.146.301-24 48c-3.952 7.904-13.563 11.108-21.466 7.156-7.804-3.902-11.026-13.32-7.302-21.165l.146-.301zm37.466 72.844c-7.903-3.952-17.514-.748-21.466 7.156l-16 32-.146.301c-3.724 7.845-.502 17.263 7.302 21.165 7.903 3.952 17.514.748 21.466-7.156l16-32 .146-.301c3.724-7.845.502-17.263-7.302-21.165" clip-rule="evenodd"/></svg>