<svg xmlns="http://www.w3.org/2000/svg" width="512" height="512" fill="none"><path fill="currentColor" fill-rule="evenodd" d="M405.84 136.872a151.25 151.25 0 0 0-47.6-81.9 153 153 0 0 0-241.81 51.86C60.5 110.132 16 156.622 16 213.302c0 58.82 47.91 106.67 106.8 106.67h72.31l-19.11 96h48v80l112-144h-43.51l8-32h103.84c50.129-.202 90.776-40.677 91.189-90.804s-39.56-91.268-89.679-92.296M74.53 407.149l38.319-76.622 28.621 14.313-38.32 76.623zm54.308 3.39L98.52 471.161l28.621 14.313 30.317-60.622zm225.703-3.379 38.32-76.622 28.62 14.314-38.319 76.622zm54.318 3.39-30.317 60.622 28.62 14.313 30.318-60.622z" clip-rule="evenodd"/></svg>