<svg xmlns="http://www.w3.org/2000/svg" width="512" height="512" fill="none"><path fill="currentColor" fill-rule="evenodd" d="M358.24 55a151.25 151.25 0 0 1 47.6 81.9c50.119 1.028 90.092 42.168 89.679 92.296-.413 50.127-41.06 90.603-91.189 90.804H300.49l-8 32H320a16.001 16.001 0 0 1 13 25.3l-80 112a16 16 0 0 1-29-9.3v-64h-32a16 16 0 0 1-15.78-18.63L189.11 320H122.8C63.91 320 16 272.15 16 213.33c0-56.68 44.5-103.17 100.43-106.47A153 153 0 0 1 358.24 55M96 416a16 16 0 0 1-14.3-23.16l24-48c3.954-7.903 13.567-11.104 21.47-7.15s11.104 13.567 7.15 21.47l-24 48A16 16 0 0 1 96 416m24 64a15.998 15.998 0 0 1-14.3-23.16l16-32a16 16 0 1 1 28.62 14.32l-16 32A16 16 0 0 1 120 480m242.395-71.594A16 16 0 0 0 376 416a16 16 0 0 0 14.32-8.84l24-48c3.954-7.903.753-17.516-7.15-21.47s-17.516-.753-21.47 7.15l-24 48a16 16 0 0 0 .695 15.566M400 480a16 16 0 0 1-14.3-23.16l16-32c3.954-7.903 13.567-11.104 21.47-7.15s11.104 13.567 7.15 21.47l-16 32A16 16 0 0 1 400 480" clip-rule="evenodd"/></svg>