<svg xmlns="http://www.w3.org/2000/svg" width="512" height="512" fill="none"><path fill="currentColor" d="M249.538 70.837h67.311c4.423 0 8.011-3.596 8.011-8.029 0-4.438-3.588-8.029-8.011-8.029h-67.311c-4.424 0-8.012 3.591-8.012 8.03 0 4.432 3.588 8.028 8.012 8.028M249.532 81.542h101.23c4.429 0 8.012 3.59 8.012 8.029 0 4.432-3.583 8.029-8.012 8.029h-101.23c-4.423 0-8.011-3.597-8.011-8.03 0-4.437 3.588-8.028 8.011-8.028"/><path fill="currentColor" fill-rule="evenodd" d="M383.612 24c4.424 0 8.012 3.591 8.012 8.029v86.98c0 4.432-3.588 8.028-8.012 8.028H220.71c-4.429 0-8.012-3.596-8.012-8.028v-86.98c0-4.438 3.583-8.029 8.012-8.029zm-8.011 16.058h-146.88v69.584h146.88zM133.691 28.798c21.062 1.39 37.435 18.917 37.43 40.072 0 19.398-14.506 35.628-31.864 39.36v107.292c17.358 3.727 32.067 19.958 32.067 39.356 0 19.397-14.709 35.628-32.067 39.36V401.53c17.358 3.727 31.911 19.952 31.911 39.355.01 21.155-16.357 38.686-37.419 40.082S94.16 467.152 91.38 446.181c-2.775-20.967 11.157-40.495 31.854-44.651V294.238c-18.663-3.821-32.068-20.271-32.068-39.36 0-19.09 13.405-35.54 32.068-39.356V108.23c-20.702-4.135-34.65-23.658-31.885-44.624 2.759-20.971 21.286-36.198 42.342-34.808m-2.858 15.964c-13.285 0-24.056 10.794-24.056 24.108.016 13.308 10.776 24.092 24.056 24.107 13.285 0 24.056-10.794 24.056-24.107 0-13.314-10.766-24.108-24.056-24.108m0 420.231c13.285 0 24.056-10.789 24.056-24.108-.016-13.308-10.776-24.091-24.056-24.107-13.285 0-24.056 10.794-24.056 24.107 0 13.319 10.771 24.108 24.056 24.108m0-186.003c13.285 0 24.056-10.788 24.056-24.107v-.005c-.016-13.304-10.776-24.087-24.056-24.103-13.285 0-24.056 10.794-24.056 24.108 0 13.319 10.771 24.107 24.056 24.107" clip-rule="evenodd"/><path fill="currentColor" d="M249.538 251.486h67.311c4.423 0 8.011-3.597 8.011-8.029 0-4.438-3.588-8.029-8.011-8.029h-67.311c-4.424 0-8.012 3.591-8.012 8.029 0 4.432 3.588 8.029 8.012 8.029M379.622 276.911h-130.09c-4.423 0-8.011-3.596-8.011-8.029 0-4.438 3.588-8.029 8.011-8.029h130.09c4.423 0 8.011 3.591 8.011 8.029 0 4.433-3.588 8.029-8.011 8.029"/><path fill="currentColor" fill-rule="evenodd" d="M421 211.343c0-4.438-3.589-8.029-8.012-8.029H220.71c-4.429 0-8.012 3.591-8.012 8.029v86.98c0 4.432 3.583 8.028 8.012 8.028h192.278c4.423 0 8.012-3.596 8.012-8.028zm-16.023 78.951H228.721v-70.922h176.256z" clip-rule="evenodd"/><path fill="currentColor" d="M249.538 430.797h67.311c4.423 0 8.011-3.596 8.011-8.029 0-4.438-3.588-8.029-8.011-8.029h-67.311c-4.424 0-8.012 3.591-8.012 8.029 0 4.433 3.588 8.029 8.012 8.029M350.762 457.562h-101.23c-4.423 0-8.011-3.596-8.011-8.029 0-4.438 3.588-8.029 8.011-8.029h101.23c4.429 0 8.012 3.591 8.012 8.029 0 4.433-3.583 8.029-8.012 8.029"/><path fill="currentColor" fill-rule="evenodd" d="M383.612 383.963c4.424 0 8.012 3.591 8.012 8.028v86.98c0 4.433-3.588 8.029-8.012 8.029H220.71c-4.429 0-8.012-3.596-8.012-8.029v-86.98c0-4.437 3.583-8.028 8.012-8.028zm-154.891 86.979h146.88V400.02h-146.88z" clip-rule="evenodd"/></svg>