<svg xmlns="http://www.w3.org/2000/svg" width="208" height="207" fill="none"><path fill="currentColor" d="M87.855 189.724c-14.222-2.8-27.045-8.567-38.3-17.638-18.198-14.671-28.781-33.709-31.973-56.891-1.4-10.191-1.008-20.382 1.288-30.46 4.872-21.055 16.07-38.077 33.373-51.012 13.047-9.743 27.829-15.118 44.011-16.63 12.767-1.176 25.254.504 37.349 4.816a83.5 83.5 0 0 1 18.646 9.463c-2.072 3.023-4.2 5.879-6.048 8.959-.616 1.008-1.287 2.855-.784 3.583.504.784 2.296.784 3.584 1.12.168.056.392-.056.616-.056 8.623-.784 17.246-1.568 25.869-2.296 4.592-.392 6.384-2.8 5.152-7.223-2.352-8.623-4.76-17.19-7.167-25.757a7.9 7.9 0 0 0-.728-1.904c-.896-1.568-2.184-1.792-3.472-.504-.56.504-.952 1.12-1.4 1.736-1.96 2.8-3.919 5.655-5.879 8.455-.28-.056-.392 0-.504-.112-.616-.392-1.288-.784-1.904-1.176-23.518-14.67-48.883-19.43-76.04-14.054-14.335 2.8-27.494 8.455-39.42 16.854-13.047 9.295-23.518 20.886-31.245 34.94-5.6 10.135-9.463 20.942-11.311 32.365C.952 90.278.504 94.31 0 98.341V110.1c.112.504.336 1.008.336 1.568 1.064 14.278 4.704 27.885 11.535 40.484 15.958 29.397 40.484 47.427 73.352 54.09 4.76.952 9.016-1.904 10.023-6.607.952-4.704-2.015-8.847-7.39-9.911M185.062 154.335c-2.072-1.456-4.76-1.68-7.112-.784-1.064.392-2.128.896-2.911 1.624-2.128 2.016-4.032 4.424-5.6 6.888-2.072 3.303-1.064 7.727 1.96 10.302 2.968 2.52 7.615 2.8 10.415.112 2.296-2.183 4.423-4.647 5.935-7.391 2.24-3.807.672-8.287-2.687-10.751M125.763 188.548c-2.407.336-4.759.896-7.111 1.568-3.975 1.232-6.327 5.431-5.487 9.407.896 4.311 4.759 7.279 9.015 6.719a50 50 0 0 0 7.503-1.624c3.472-1.064 5.655-4.199 5.655-7.839 0-5.151-4.311-8.903-9.575-8.231M197.436 124.434c-3.751-1.008-7.839.616-9.463 4.088a38.6 38.6 0 0 0-2.8 8.231c-.839 3.808 1.344 7.447 4.984 8.959 3.36 1.4 7.727.56 9.575-2.576 1.512-2.575 2.464-5.431 3.248-7.559.448-1.176.56-2.408.392-3.639-.56-4.144-2.856-6.72-5.936-7.504M187.133 77.231c1.344 3.248 3.976 4.816 6.664 4.984 5.879.167 10.191-4.424 9.183-9.352-.616-3.023-1.792-5.991-3.192-8.679-1.848-3.64-6.439-4.927-10.191-3.36-3.864 1.569-5.991 5.768-4.815 9.8.615 2.24 1.455 4.423 2.351 6.607M207.907 100.077c-.28-4.76-3.919-8.231-8.399-8.175-4.591 0-8.119 3.64-8.231 8.455-.056.952 0 1.903 0 2.855h.056c0 1.008-.056 2.016 0 3.024.224 4.648 3.807 8.175 8.343 8.175 4.368 0 8.063-3.527 8.287-8.063a78 78 0 0 0-.056-6.271M153.201 176.229c-2.24 1.176-4.48 2.52-6.552 4.032-2.855 2.127-3.919 5.935-2.743 9.239 1.175 3.303 4.423 5.543 8.903 5.487 3.919-1.176 8.399-3.135 11.199-7.447 1.903-2.968 1.176-6.943-1.232-9.575-2.408-2.576-6.384-3.416-9.575-1.736"/><path fill="currentColor" d="M97.2 36.434a8 8 0 0 1 7.999 7.843l.002.157v64h40a8 8 0 0 1 7.998 7.843l.002.157a8 8 0 0 1-7.843 7.999l-.157.001h-48a8 8 0 0 1-7.999-7.842l-.001-.158v-72a8 8 0 0 1 8-8"/></svg>