<svg xmlns="http://www.w3.org/2000/svg" width="512" height="512" fill="none"><path fill="currentColor" fill-rule="evenodd" d="M256 48C141.12 48 48 141.12 48 256s93.12 208 208 208 208-93.12 208-208S370.88 48 256 48m-82.33 114.34 105 71c14.423 10.387 17.826 30.434 7.639 44.999s-30.184 18.245-44.889 8.261a33.2 33.2 0 0 1-8-8l-71-105a8.13 8.13 0 0 1 .918-10.402 8.13 8.13 0 0 1 10.402-.918zM256 432c-97 0-176-78.95-176-176a174.55 174.55 0 0 1 53.87-126.72 14.148 14.148 0 0 1 23.741 6.685 14.15 14.15 0 0 1-4.101 13.685A146.53 146.53 0 0 0 108.3 256c0 81.44 66.26 147.7 147.7 147.7S403.7 337.44 403.7 256c0-76.67-58.72-139.88-133.55-147v55c0 7.815-6.335 14.15-14.15 14.15s-14.15-6.335-14.15-14.15V94.15c0-7.815 6.335-14.15 14.15-14.15 97.05 0 176 79 176 176s-78.95 176-176 176" clip-rule="evenodd"/></svg>