<svg xmlns="http://www.w3.org/2000/svg" width="512" height="512" fill="none"><path fill="currentColor" fill-rule="evenodd" d="M463.985 252.62C462.203 141.099 372.558 50.578 260.88 48.009l-.331-.007a20.363 20.363 0 0 0-20.537 20.418v83.586l.003.314c.168 8.692 7.266 15.686 15.997 15.686l.315-.003c8.691-.168 15.685-7.266 15.685-15.997V80.672l2.297.219c88.719 9.162 157.703 84.223 157.703 175.115 0 97.41-78.707 176.183-175.97 176-97.566-.184-177.111-80.476-176.03-177.823a175.86 175.86 0 0 1 44.83-115.505c5.895-6.583 5.336-16.698-1.247-22.593s-16.699-5.336-22.593 1.248a207.85 207.85 0 0 0-52.99 136.508c-1.277 115.147 92.641 209.948 207.97 210.165 114.979.216 208.03-92.912 208.03-208zm-309.593-86.984 79 113a33.2 33.2 0 0 0 8.07 7.94c14.705 9.984 34.702 6.303 44.889-8.261s6.784-34.612-7.639-44.999l-113-79a8.13 8.13 0 0 0-11.32 11.32" clip-rule="evenodd"/></svg>