<svg xmlns="http://www.w3.org/2000/svg" width="512" height="512" fill="none"><path fill="currentColor" fill-rule="evenodd" d="M256 48C141.163 48 48 141.163 48 256s93.163 208 208 208 208-93.163 208-208S370.837 48 256 48m0 32c97.163 0 176 78.837 176 176s-78.837 176-176 176S80 353.163 80 256 158.837 80 256 80m15.997 47.685C271.829 118.994 264.731 112 256 112c-8.837 0-16 7.163-16 16v144l.003.315C240.171 281.006 247.269 288 256 288h96l.315-.003C361.006 287.829 368 280.731 368 272l-.003-.315C367.829 262.994 360.731 256 352 256h-80V128z" clip-rule="evenodd"/></svg>