<svg xmlns="http://www.w3.org/2000/svg" width="512" height="512" fill="none"><path fill="currentColor" d="M223.71 429.448c-28.445-5.6-54.09-17.135-76.6-35.277-36.396-29.341-57.562-67.417-63.946-113.781-2.8-20.382-2.015-40.764 2.576-60.922 9.743-42.107 32.141-76.152 66.746-102.021 26.093-19.486 55.658-30.237 88.023-33.261 25.533-2.352 50.507 1.008 74.696 9.631a167 167 0 0 1 37.293 18.926c-4.144 6.048-8.4 11.759-12.095 17.918-1.232 2.016-2.576 5.712-1.568 7.168 1.008 1.567 4.591 1.567 7.167 2.239.336.112.784-.112 1.232-.112 17.246-1.567 34.493-3.135 51.739-4.591 9.183-.784 12.767-5.6 10.303-14.447-4.704-17.246-9.519-34.38-14.335-51.515-.336-1.343-.784-2.575-1.456-3.807-1.791-3.136-4.367-3.584-6.943-1.008-1.12 1.008-1.904 2.24-2.8 3.472-3.919 5.6-7.839 11.31-11.758 16.91-.56-.112-.784 0-1.008-.224-1.232-.784-2.576-1.568-3.808-2.352-47.035-29.34-97.766-38.86-152.081-28.109-28.669 5.6-54.986 16.91-78.84 33.709-26.093 18.59-47.035 41.771-62.49 69.881-11.199 20.27-18.926 41.883-22.621 64.729-1.232 7.951-2.128 16.015-3.136 24.078v23.517c.224 1.008.672 2.016.672 3.136 2.128 28.557 9.407 55.771 23.07 80.968 31.916 58.794 80.968 94.855 146.705 108.181 9.519 1.904 18.03-3.807 20.046-13.214 1.904-9.408-4.032-17.695-14.783-19.822M418.123 358.671c-4.144-2.912-9.519-3.36-14.223-1.568-2.127.784-4.255 1.792-5.823 3.247-4.256 4.032-8.063 8.848-11.199 13.775-4.143 6.607-2.128 15.454 3.92 20.606 5.935 5.039 15.23 5.599 20.83.224 4.591-4.368 8.847-9.295 11.87-14.783 4.48-7.615 1.344-16.574-5.375-21.501M299.527 427.096c-4.816.672-9.519 1.792-14.223 3.135-7.951 2.464-12.654 10.863-10.975 18.815 1.792 8.623 9.519 14.558 18.031 13.438 5.039-.672 10.079-1.792 15.006-3.247 6.943-2.128 11.311-8.4 11.311-15.679 0-10.303-8.623-17.806-19.15-16.462M442.873 298.869c-7.504-2.016-15.679 1.231-18.927 8.175-2.463 5.263-4.367 10.751-5.599 16.462-1.68 7.615 2.688 14.895 9.967 17.918 6.719 2.8 15.454 1.12 19.15-5.151 3.024-5.152 4.928-10.863 6.495-15.119.896-2.351 1.12-4.815.784-7.279-1.12-8.287-5.711-13.439-11.87-15.006M422.267 204.462c2.687 6.495 7.951 9.631 13.326 9.967 11.759.336 20.382-8.847 18.366-18.702-1.231-6.048-3.583-11.983-6.383-17.358-3.696-7.28-12.879-9.855-20.382-6.72-7.727 3.136-11.983 11.535-9.631 19.598 1.232 4.48 2.912 8.847 4.704 13.215M463.814 250.153c-.56-9.519-7.839-16.462-16.798-16.35-9.183 0-16.238 7.279-16.462 16.91-.112 1.904 0 3.808 0 5.712h.112c0 2.016-.112 4.031 0 6.047.448 9.295 7.615 16.351 16.686 16.351 8.735 0 16.126-7.056 16.574-16.127.112-4.143.112-8.287-.112-12.543M354.401 402.458c-4.479 2.352-8.959 5.04-13.102 8.063-5.712 4.256-7.84 11.871-5.488 18.479s8.847 11.086 17.806 10.974c7.84-2.351 16.799-6.271 22.398-14.894 3.808-5.935 2.352-13.887-2.464-19.15-4.815-5.152-12.766-6.831-19.15-3.472"/><path fill="currentColor" d="M242.401 122.869c8.732 0 15.83 6.993 15.997 15.685l.003.315v128h80c8.732 0 15.83 6.993 15.997 15.685l.003.315c0 8.731-6.994 15.829-15.685 15.997l-.315.003h-96c-8.731 0-15.829-6.994-15.997-15.686l-.003-.314v-144c0-8.837 7.164-16 16-16"/></svg>