<svg xmlns="http://www.w3.org/2000/svg" width="512" height="512" fill="none"><path fill="currentColor" fill-rule="evenodd" d="M416 64h-16V48.45c0-8.61-6.62-16-15.23-16.43A16 16 0 0 0 368 48v16H144V48.45c0-8.61-6.62-16-15.23-16.43A16 16 0 0 0 112 48v16H96c-35.346 0-64 28.654-64 64v288c0 35.346 28.654 64 64 64h320c35.346 0 64-28.654 64-64V128c0-35.346-28.654-64-64-64M224 307.43c0 15.779-12.791 28.57-28.57 28.57h-70.86C108.791 336 96 323.209 96 307.43v-70.86c0-15.779 12.791-28.57 28.57-28.57h70.86c15.779 0 28.57 12.791 28.57 28.57zM448 136v20a4 4 0 0 1-4 4H68a4 4 0 0 1-4-4v-28c.05-17.653 14.347-31.95 32-32h320c17.653.05 31.951 14.347 32 32z" clip-rule="evenodd"/></svg>