<svg xmlns="http://www.w3.org/2000/svg" width="512" height="512" fill="none"><path fill="currentColor" fill-rule="evenodd" d="M128 32c8.731 0 15.829 6.994 15.997 15.685L144 48v16h224V48c0-8.837 7.163-16 16-16 8.731 0 15.829 6.994 15.997 15.685L400 48v16h16c35.346 0 64 28.654 64 64v288c0 35.346-28.654 64-64 64H96c-35.346 0-64-28.654-64-64V128c0-35.346 28.654-64 64-64h16V48c0-8.837 7.163-16 16-16M64 256v160c0 17.673 14.327 32 32 32h320c17.673 0 32-14.327 32-32V208.027c-.061-17.492-14.09-31.689-31.472-32.021L416 176H96.047c-17.501.051-31.709 14.084-32.041 31.472L64 208zm32 51.43v-70.86c0-15.779 12.791-28.57 28.57-28.57h70.86c15.779 0 28.57 12.791 28.57 28.57v70.86c0 15.779-12.791 28.57-28.57 28.57h-70.86C108.791 336 96 323.209 96 307.43" clip-rule="evenodd"/></svg>