<svg xmlns="http://www.w3.org/2000/svg" width="513" height="512" fill="none"><path fill="currentColor" d="M475.855 348.111c-2.663-16.926-10.052-31.533-22.253-43.476-1.89-1.89-2.664-3.694-2.664-6.358.086-14.607.344-29.213-.085-43.82-.602-24.401-19.333-45.194-43.39-48.803-9.967-1.46-20.02-.515-29.987-.687-2.835 0-3.952-.601-3.866-3.695.172-19.933.086-39.781.086-59.714 0-7.39 3.351-11.686 10.568-13.662 1.632-.429 2.406-.859 2.406-2.663a859 859 0 0 1 0-21.051c0-1.976-.774-2.406-2.578-2.148-4.897.516-9.623 1.461-14.005 3.695-14.778 7.561-21.996 19.933-22.082 36.43-.086 19.59-.086 39.266.086 58.856 0 3.179-.687 4.124-3.952 4.038q-24.487-.258-48.975 0c-3.093 0-4.038-1.117-4.811-3.866-9.452-31.791-18.989-63.496-28.526-95.287-.344-1.202-.602-2.491-1.031-4.038 6.014 0 11.771-.172 17.442.086 3.093.172 3.866-.945 3.694-3.866-.257-5.757-.343-11.428 0-17.184.258-3.953-1.031-4.898-4.897-4.898-51.81.172-103.706.086-155.517.086-14.177 0-28.353.086-42.53-.086-2.578 0-3.523.516-3.437 3.265q.257 9.666 0 19.332c-.086 2.836.945 3.351 3.436 3.265 6.187-.172 12.287.172 18.474-.172 3.264-.172 4.038.86 3.952 4.039a5291 5291 0 0 0 0 73.891c0 3.609-1.203 4.726-4.382 5.671-19.332 5.499-36.86 14.607-52.756 26.979-2.32 1.805-2.233 2.922-.43 4.984 3.867 4.382 7.734 8.85 11.17 13.575 2.149 2.921 3.523 3.351 6.617.859 16.754-13.231 35.743-21.566 56.707-24.917 37.548-6.014 71.744 2.492 101.644 26.206 28.698 22.855 44.851 52.927 48.288 89.616 1.461 15.293.515 30.587.601 45.967 0 3.265.946 4.038 4.039 3.952 14.348-.171 28.611-.085 42.96-.085 7.046 0 7.046 0 8.936 7.045a74 74 0 0 0 1.804 5.757c10.397 30.244 39.781 51.294 72.088 51.638s62.034-20.105 73.118-50.092c2.32-6.358 3.265-12.974 4.984-19.418v-15.465c-.43-1.289-.774-2.492-.946-3.781M228.49 204.881c-2.234 0-4.125-.515-6.015-1.718-28.096-17.7-58.77-25.605-91.935-23.629-3.007.172-3.609-.687-3.609-3.436a9738 9738 0 0 0 0-70.885c0-3.007 1.031-3.523 3.695-3.437 16.583.086 33.251.086 49.834.086 16.497 0 32.908.086 49.404-.086 2.75 0 3.867.859 4.64 3.523 9.451 31.962 19.074 63.839 28.698 95.716.945 3.179.601 4.124-2.922 4.038-10.568-.344-21.222-.258-31.79-.172m95.286 139.364c-.43 1.976-1.375 2.491-3.265 2.491-7.733-.086-15.466-.086-23.113 0-2.32 0-2.835-.859-2.835-3.007.172-10.826-.086-21.738-1.633-32.478-.172-1.375-.859-3.265 1.805-3.265 15.379.086 30.759 0 47.17 0-9.537 11.17-15.466 22.941-18.129 36.259m-33.853-61.949c-3.265 0-4.726-.945-5.843-4.039-6.1-16.239-14.864-30.845-26.034-44.077-.773-.859-1.374-1.804-2.062-2.749-.086-.086.086-.258.258-.774h140.137c18.301 0 28.869 10.483 28.869 28.698v27.065c-5.499-1.203-10.568-3.007-15.895-3.523-4.124-.429-8.249-.687-12.459-.687-35.743 0-71.314-.086-106.971.086m109.291 128.795c-28.354-.086-51.552-23.371-51.38-51.81.171-28.182 23.284-51.209 51.466-51.295 28.354 0 51.638 23.199 51.638 51.552 0 28.44-23.284 51.639-51.724 51.553"/><path fill="currentColor" d="M155.973 232.118c-47.428-8.076-95.802 20.106-112.47 65.3-3.351 9.022-4.898 18.473-6.702 27.838v17.184c1.632 7.647 2.491 15.466 4.983 22.941 16.84 49.405 63.41 77.758 115.048 69.94 56.708-8.592 96.231-66.073 84.117-122.266-9.28-42.53-41.844-73.634-84.976-80.937m-15.981 178.973c-42.531.086-77.33-34.712-77.415-77.243s34.712-77.328 77.243-77.414 77.328 34.712 77.414 77.242c0 42.531-34.712 77.329-77.242 77.415M399.301 337.027c-12.287.086-22.511 10.311-22.426 22.597s10.311 22.512 22.598 22.426 22.511-10.311 22.425-22.597c0-12.287-10.31-22.512-22.597-22.426"/><path fill="currentColor" d="M140.594 295.184c-20.793-.688-38.493 16.325-39.352 37.805-.773 20.879 16.669 38.922 38.149 39.438 20.878.515 38.492-16.669 39.094-37.977.601-20.879-16.497-38.579-37.891-39.266"/></svg>