<svg xmlns="http://www.w3.org/2000/svg" width="512" height="512" fill="none"><path fill="currentColor" fill-rule="evenodd" d="M271.997 47.685C271.829 38.994 264.731 32 256 32c-8.837 0-16 7.163-16 16v16H102.63a32 32 0 0 0-22.637 9.38l-59.307 59.306c-6.248 6.249-6.248 16.379 0 22.628l59.31 59.31A32 32 0 0 0 102.63 224H240v32H96c-17.673 0-32 14.327-32 32v96c0 17.673 14.327 32 32 32h144v48l.003.315C240.171 473.006 247.269 480 256 480c8.837 0 16-7.163 16-16v-48h137.37a32 32 0 0 0 22.637-9.38l59.307-59.306c6.248-6.249 6.248-16.379 0-22.628l-59.31-59.31A32 32 0 0 0 409.37 256H272v-32h144c17.673 0 32-14.327 32-32V96c0-17.673-14.327-32-32-32H272V48zM256 384l153.373-.001 48-47.999-48-48H96v96zm160-192H102.627l-48-48 48.003-48H416z" clip-rule="evenodd"/></svg>