<svg xmlns="http://www.w3.org/2000/svg" width="512" height="512" fill="none"><path fill="currentColor" fill-rule="evenodd" d="M491.31 324.69 432 265.37a31.8 31.8 0 0 0-22.63-9.37H272v-32h144c17.674 0 32-14.327 32-32V96c0-17.673-14.326-32-32-32H272V48c0-8.837-7.163-16-16-16s-16 7.163-16 16v16H102.63A31.8 31.8 0 0 0 80 73.37l-59.31 59.32c-6.243 6.248-6.243 16.372 0 22.62L80 214.63a31.8 31.8 0 0 0 22.63 9.37H240v32H96c-17.673 0-32 14.327-32 32v96c0 17.673 14.327 32 32 32h144v48c0 8.837 7.164 16 16 16s16-7.163 16-16v-48h137.37a31.8 31.8 0 0 0 22.63-9.37l59.31-59.32c6.244-6.248 6.244-16.372 0-22.62" clip-rule="evenodd"/></svg>