<svg xmlns="http://www.w3.org/2000/svg" width="512" height="512" fill="none"><path fill="currentColor" fill-rule="evenodd" d="M464 48H48c-17.673 0-32 14.327-32 32v48c0 17.673 14.327 32 32 32h17.578l27.188 261.395.024.215.09.723C96.044 446.145 116.364 464 140.46 464h231.09l.729-.005c24.018-.36 44.125-18.454 46.941-42.385l.024-.215L446.423 160H464c17.673 0 32-14.327 32-32V80c0-17.673-14.327-32-32-32m-31.935 79.999h-.054l-.232.001H80.222q-.203-.003-.405 0H48V80h416v48h-31.817zM97.751 160H414.25l-26.82 257.936-.033.269C386.302 426.095 379.55 432 371.55 432H140.46l-.337-.004c-7.852-.163-14.43-6.012-15.51-13.791l-.034-.265zm202.935 68.686c6.249-6.248 16.379-6.248 22.628 0 6.161 6.162 6.247 16.099.256 22.365l-.256.263L278.627 296l44.687 44.686c6.248 6.249 6.248 16.379 0 22.628-6.162 6.161-16.099 6.247-22.365.256l-.263-.256L256 318.627l-44.686 44.687c-6.249 6.248-16.379 6.248-22.628 0-6.161-6.162-6.247-16.099-.256-22.365l.256-.263L233.373 296l-44.687-44.686c-6.248-6.249-6.248-16.379 0-22.628 6.162-6.161 16.099-6.247 22.365-.256l.263.256L256 273.373z" clip-rule="evenodd"/></svg>