<svg xmlns="http://www.w3.org/2000/svg" width="512" height="512" fill="none"><path fill="currentColor" fill-rule="evenodd" d="M64 48c-17.673 0-32 14.327-32 32v16c0 17.673 14.327 32 32 32h384c17.673 0 32-14.327 32-32V80c0-17.673-14.327-32-32-32zm10.45 112a8 8 0 0 0-8 8.83l26.31 252.56a1.5 1.5 0 0 0 0 .22c2.846 24.18 23.343 42.4 47.69 42.39h231.09c24.339-.001 44.825-18.218 47.67-42.39v-.21l26.27-252.57a8 8 0 0 0-8-8.83zm248.86 180.69a16 16 0 1 1-22.63 22.62L256 318.63l-44.69 44.68c-6.272 6.094-16.276 6.023-22.461-.159-6.185-6.183-6.26-16.186-.169-22.461L233.37 296l-44.69-44.69c-6.091-6.275-6.016-16.278.169-22.461s16.189-6.253 22.461-.159L256 273.37l44.68-44.68c6.272-6.094 16.276-6.023 22.461.159 6.185 6.183 6.26 16.186.169 22.461L278.62 296z" clip-rule="evenodd"/></svg>