<svg xmlns="http://www.w3.org/2000/svg" width="512" height="512" fill="none"><path fill="currentColor" fill-rule="evenodd" d="M432 96h-96V72c0-22.091-17.909-40-40-40h-80c-22.091 0-40 17.909-40 40v24H80c-8.837 0-16 7.163-16 16s7.163 16 16 16h17l19 304.92c1.42 26.85 22 47.08 48 47.08h184c26.13 0 46.3-19.78 48-47l19-305h17c8.837 0 16-7.163 16-16s-7.163-16-16-16M192.57 416H192c-8.619.005-15.693-6.817-16-15.43l-8-224c-.315-8.837 6.593-16.255 15.43-16.57s16.255 6.593 16.57 15.43l8 224A15.998 15.998 0 0 1 192.57 416M272 400c0 8.837-7.163 16-16 16s-16-7.163-16-16V176c0-8.837 7.163-16 16-16s16 7.163 16 16zm32-304h-96V72a7.914 7.914 0 0 1 8-8h80a7.91 7.91 0 0 1 8 8zm32 304.57c-.307 8.613-7.381 15.435-16 15.43h-.58A15.997 15.997 0 0 1 304 399.43l8-224a16.008 16.008 0 0 1 24.494-13.001A16.01 16.01 0 0 1 344 176.57z" clip-rule="evenodd"/></svg>