<svg xmlns="http://www.w3.org/2000/svg" width="512" height="512" fill="none"><path fill="currentColor" fill-rule="evenodd" d="M295.953 32a39.93 39.93 0 0 1 28.352 11.695 39.9 39.9 0 0 1 11.693 27.749L336 72v24h96c8.837 0 16 7.164 16 16 0 8.732-6.994 15.83-15.685 15.997L432 128h-16.969L395.97 432.976c-1.623 26.553-21.305 46.62-47.184 47.018L348 480H164c-26.024 0-46.193-19.935-47.932-46.375l-.045-.762L96.969 128H80c-8.837 0-16-7.163-16-16 0-8.731 6.994-15.829 15.685-15.997L80 96h96V72.047a39.93 39.93 0 0 1 11.695-28.352 39.9 39.9 0 0 1 27.748-11.693L216 32zM304 71.954V96h-96V72l.005-.307A7.927 7.927 0 0 1 215.953 64H296l.307.005a7.95 7.95 0 0 1 5.37 2.318 7.93 7.93 0 0 1 2.323 5.63M129.031 128h253.938l-18.938 303.002-.026.38C363.235 441.577 356.748 448 348 448H164l-.324-.003c-8.707-.159-15.18-6.757-15.697-16.818zm142.966 47.685C271.829 166.994 264.731 160 256 160c-8.837 0-16 7.164-16 16v224l.003.315C240.171 409.006 247.269 416 256 416c8.837 0 16-7.163 16-16V176zm-88.568-15.674c8.726-.312 16.069 6.424 16.547 15.104l.014.314 8 224c.315 8.831-6.588 16.246-15.419 16.561-8.726.312-16.069-6.424-16.547-15.104l-.014-.315-8-224c-.315-8.831 6.588-16.245 15.419-16.56m145.142 0c-8.831-.316-16.245 6.587-16.561 15.418l-8 224-.008.315c-.143 8.692 6.701 15.934 15.427 16.246 8.831.316 16.245-6.588 16.561-15.419l8-224 .008-.314c.143-8.692-6.701-15.935-15.427-16.246" clip-rule="evenodd"/></svg>