<svg xmlns="http://www.w3.org/2000/svg" width="512" height="512" fill="none"><path fill="currentColor" fill-rule="evenodd" d="M59.051 132.43c-6.266-5.991-16.203-5.905-22.365.256-6.248 6.249-6.248 16.379 0 22.628l121.37 121.37.431.425a48 48 0 0 0 67.458-.427l50.739-50.738.294-.287a16 16 0 0 1 22.337.285L425.373 352H352l-.315.003C342.994 352.171 336 359.269 336 368c0 8.837 7.163 16 16 16h112l.315-.003C473.006 383.829 480 376.731 480 368V256l-.003-.315C479.829 246.994 472.731 240 464 240l-.315.003C454.994 240.171 448 247.269 448 256v73.373L321.944 203.316l-.431-.425a48 48 0 0 0-67.458.427l-50.739 50.738-.294.287a16 16 0 0 1-22.337-.285L59.314 132.686z" clip-rule="evenodd"/></svg>