<svg xmlns="http://www.w3.org/2000/svg" width="512" height="512" fill="none"><path fill="currentColor" fill-rule="evenodd" d="M479.997 143.685C479.829 134.994 472.731 128 464 128H352l-.315.003C342.994 128.171 336 135.269 336 144l.003.315C336.171 153.006 343.269 160 352 160h73.373L299.316 286.056l-.294.287a16 16 0 0 1-22.337-.285l-50.741-50.742-.431-.425a48 48 0 0 0-67.458.427L36.686 356.686l-.256.263c-5.99 6.266-5.905 16.203.256 22.365 6.249 6.248 16.38 6.248 22.628 0l121.37-121.37.294-.287a16 16 0 0 1 22.337.285l50.741 50.742.431.425a48 48 0 0 0 67.458-.427L448 182.627V256l.003.315C448.171 265.006 455.269 272 464 272c8.837 0 16-7.163 16-16V144z" clip-rule="evenodd"/></svg>