<svg xmlns="http://www.w3.org/2000/svg" width="512" height="512" fill="none"><path fill="currentColor" d="M314.566 142.652c-7.273 0-13.226 5.471-13.697 12.389-8.224 1.311-13.759 3.765-13.759 6.577 0 2.549 4.55 4.804 11.529 6.18a16.8 16.8 0 0 0-.45 5.376c.711 9.305 8.166 16.891 16.618 16.891s15.891-7.586 16.617-16.889a16.5 16.5 0 0 0-.475-5.471c6.719-1.382 11.07-3.595 11.07-6.087 0-2.812-5.534-5.266-13.756-6.576-.472-6.919-6.424-12.39-13.697-12.39"/><path fill="currentColor" fill-rule="evenodd" d="M83.114 192.628a5.13 5.13 0 0 1 4.106 1.19 5.12 5.12 0 0 1 1.78 3.883v48.37l13.081 1.256a3157 3157 0 0 1 8.375-176.642c1.055-10.83 9.898-19.593 20.908-19.86h6.649C141.062 43.307 148.428 38 157.046 38h196.906c8.618 0 15.986 5.307 19.035 12.825h6.648c11.008.268 19.856 9.03 20.904 19.86a3152 3152 0 0 1 8.38 176.642l13.079-1.256v-48.37c0-1.491.65-2.908 1.781-3.883a5.12 5.12 0 0 1 4.108-1.19l27.73 4.104a5.13 5.13 0 0 1 4.383 5.075v60.104c0 2.833-2.3 5.13-5.136 5.13h-45.627l.012.903q.044 3.291.08 6.584c7.696 7.446 14.364 20.421 16.098 42.882 1.433 18.556-1.954 32.405-10.069 41.161a30 30 0 0 1-6.377 5.223c-.084 4.515-.19 9.031-.296 13.546l-.027 1.175c3.605 2.874 5.921 7.295 5.921 12.262v6.373h-51.694v20.364h51.694v4.467c0 8.446-6.682 15.313-15.047 15.66v29.543c0 3.207-2.613 5.816-5.822 5.816h-37.52a5.823 5.823 0 0 1-5.819-5.816v-29.509H160.628v29.508a5.825 5.825 0 0 1-5.819 5.816h-37.52a5.823 5.823 0 0 1-5.82-5.816v-29.542c-8.369-.345-15.046-7.213-15.046-15.66v-4.467h51.693V397.15H96.422v-6.373c0-4.965 2.314-9.384 5.916-12.26l-.047-2.024c-.099-4.233-.198-8.467-.276-12.699a30 30 0 0 1-6.374-5.222c-8.115-8.756-11.503-22.604-10.07-41.162 1.736-22.463 8.404-35.438 16.1-42.884q.035-3.277.08-6.555l.012-.93H56.136a5.133 5.133 0 0 1-5.136-5.13v-60.104a5.13 5.13 0 0 1 4.383-5.075zM206.72 391.963h97.556c6.718 0 12.163-5.44 12.162-12.151H194.556c0 6.71 5.448 12.151 12.165 12.151m-15.406-33.055h128.367c6.718 0 12.163-5.441 12.163-12.152H179.151c0 6.712 5.446 12.152 12.164 12.152m-11.696-31.418h151.757c7.944 0 14.38-6.433 14.38-14.365H165.24c0 7.932 6.439 14.365 14.379 14.365m152.226-44.125H179.151c0 6.71 5.446 12.15 12.164 12.15h128.368c6.717 0 12.162-5.44 12.162-12.15m53.32-.697h-.065v67.667c1.588.265 3.399.462 5.291.462 5.245 0 9.116-1.429 11.839-4.367 4.526-4.884 6.38-14.444 5.359-27.646-1.273-16.476-6.195-36.116-22.424-36.116m-31.236-209.12h-29.445v15.39h29.445zm-167.416 0h-29.444v15.39h29.444zm188.709 43.86H135.77a3167 3167 0 0 0-5.727 98.097h147.784c6.851-13.656 20.73-22.997 36.737-22.997 16.006 0 29.886 9.341 36.737 22.997h29.657a3145 3145 0 0 0-5.736-98.097m-249.39 165.26c-16.228 0-21.152 19.641-22.425 36.116-1.02 13.203.833 22.764 5.361 27.648 2.722 2.938 6.595 4.366 11.837 4.366 1.888 0 3.7-.198 5.292-.464v-67.666z" clip-rule="evenodd"/></svg>