<svg xmlns="http://www.w3.org/2000/svg" width="512" height="512" fill="none"><path fill="currentColor" fill-rule="evenodd" d="M447.86 80H64.14C37.553 80 16 101.553 16 128.14v207.72C16 362.447 37.553 384 64.14 384h383.72c26.587 0 48.14-21.553 48.14-48.14V128.14C496 101.553 474.447 80 447.86 80M64.14 112h383.72c8.914 0 16.14 7.226 16.14 16.14v207.72c0 8.914-7.226 16.14-16.14 16.14H64.14C55.226 352 48 344.774 48 335.86V128.14c0-8.914 7.226-16.14 16.14-16.14M400 416c0-8.837-7.163-16-16-16H128l-.315.003C118.994 400.171 112 407.269 112 416c0 8.837 7.163 16 16 16h256l.315-.003C393.006 431.829 400 424.731 400 416" clip-rule="evenodd"/></svg>