<svg xmlns="http://www.w3.org/2000/svg" width="512" height="512" fill="none"><path fill="currentColor" d="m307.201 234.667 34.134 34.133v-34.133zm55.467-85.333h-85.333v40.533h85.333c36.267 0 66.133 29.867 66.133 66.133 0 27.734-17.066 51.2-40.533 59.734l29.867 29.866c29.866-17.066 51.2-51.2 51.2-89.6 0-59.733-46.934-106.666-106.667-106.666m-320-57.6 66.133 66.133C70.401 172.8 42.668 211.2 42.668 256c0 59.734 46.933 106.667 106.667 106.667h85.333v-40.533h-85.333c-36.267 0-66.134-29.867-66.134-66.134 0-34.133 25.6-61.866 59.734-66.133l42.666 44.8h-14.933v42.667h57.6l49.067 49.066v36.267h36.266L398.935 448l29.866-29.866L72.535 61.867z"/></svg>