<svg xmlns="http://www.w3.org/2000/svg" width="512" height="516" fill="none"><path fill="currentColor" d="M85.336 226c-17.067 0-32 15.015-32 32.174s14.933 32.174 32 32.174 32-15.015 32-32.174S102.403 226 85.336 226m0-107.246c-17.067 0-32 15.014-32 32.174 0 17.159 14.933 32.173 32 32.173s32-15.014 32-32.173-14.933-32.174-32-32.174m0 214.492c-17.067 0-32 15.015-32 32.174 0 17.16 14.933 32.174 32 32.174s32-15.014 32-32.174c0-17.159-14.933-32.174-32-32.174m74.667-203.768v42.899h298.666v-42.899zm0 257.392h298.666v-42.899H160.003zm0-107.247h298.666v-42.898H160.003z"/></svg>