<svg xmlns="http://www.w3.org/2000/svg" width="513" height="512" fill="none"><path fill="currentColor" d="M159.792 381.484c1.653-.661 1.983-1.982 2.644-2.974 7.49-10.794 18.725-13.658 30.4-7.6 11.345 5.948 18.174 16.081 24.122 26.876.881 1.542.33 2.202-.992 2.863-6.058 2.864-12.226 5.728-18.173 8.702-1.983.991-2.644.11-3.415-1.432-2.313-4.296-5.067-8.261-8.371-11.675-3.304-3.525-3.304-3.415-5.287.771-1.542 3.194-2.864 6.608-4.736 9.582-4.736 7.71-11.455 11.786-20.707 10.684-8.702-.991-13.438-6.829-16.302-14.539-2.974-8.04-3.084-16.742-4.846-25.003-.331-1.652-.441-3.304-.992-4.846-.55-1.652-.33-4.186-2.202-4.406-1.653-.11-2.644 2.203-3.415 3.745-4.626 8.591-6.388 18.064-7.6 27.646-.771 6.058-.771 5.948-6.829 5.508-5.397-.441-10.684-.771-16.081-1.102-1.542-.11-2.644-.22-2.423-2.313 1.762-14.649 4.185-29.188 11.565-42.296 4.406-7.82 10.354-13.878 19.496-15.971 11.785-2.753 22.469 2.313 28.087 13.438 3.744 7.71 4.736 15.861 6.057 24.342M157.479 168.794c19.496 0 39.102.111 58.597-.11 3.635 0 4.186 1.102 3.745 5.508-.551 4.516-.44 9.142 0 13.658.441 4.515 0 5.837-3.855 5.837-27.206-.11-54.522-.11-81.727-.11-12.116 0-24.232-.11-36.348.11-3.305 0-3.966-1.101-3.525-5.066.55-4.957.44-9.913 0-14.87-.33-3.855.22-5.067 3.745-5.067 19.826.221 39.542.11 59.368.11M131.925 218.36c11.125 0 22.25.11 33.374-.11 3.305 0 3.745 1.211 3.305 5.176a68 68 0 0 0 0 14.98c.33 3.525.22 4.736-2.644 4.736-23.02-.11-45.93-.11-68.95 0-2.534 0-2.975-.991-2.754-4.075.55-5.397.55-10.904 0-16.302-.44-4.075.77-4.515 3.745-4.515 11.345.22 22.579.11 33.924.11M131.154 292.707c-11.125 0-22.249-.11-33.374.11-3.194 0-3.965-.881-3.304-5.397a51.2 51.2 0 0 0 0-14.209c-.661-4.626.22-5.397 3.304-5.287 22.58.111 45.159.111 67.629 0 3.084 0 3.635.882 3.084 5.398a52 52 0 0 0 0 14.318c.661 4.516-.22 5.177-3.084 5.177-11.455-.22-22.8-.11-34.255-.11"/><path fill="currentColor" fill-rule="evenodd" d="M368.577 300.689q-.022-25.028-.06-50.057c0-3.304.991-5.507 3.304-7.82 25.664-25.444 50.116-51.879 71.484-81.067 10.574-14.429 20.818-28.968 24.893-46.922-.11-1.101-.193-2.175-.275-3.249s-.165-2.148-.276-3.249c-5.507-12.777-13.107-16.302-26.875-12.447-12.116 3.415-22.47 10.464-32.713 17.513-11.896 8.151-23.351 17.073-34.255 26.435-1.113 1.028-2.227 1.922-3.754 3.149-.437.352-.908.73-1.423 1.147V44h-242.87c-.981 2.044-2.568 3.48-4.132 4.896-.543.492-1.084.981-1.595 1.492-23.799 24.127-47.705 48.253-71.506 72.271l-.64.645c-.19.214-.369.443-.55.673-.656.837-1.324 1.688-2.533 1.861v341.229h251.32a97.6 97.6 0 0 1-18.348-25.062c-67.966-.045-135.898-.026-203.894.059-3.304 0-4.406-.661-4.406-4.186.11-96.597.11-193.304 0-289.901 0-3.525 1.102-4.186 4.406-4.186 11.015.055 22.03.055 33.044.055s22.029 0 33.043.056c3.304.11 4.075-.882 4.075-4.076-.055-11.235-.055-22.442-.055-33.649s0-22.415-.055-33.65c0-3.084.771-3.855 3.855-3.855 64.105.11 128.319.11 192.424 0 2.863 0 3.745.661 3.745 3.635-.111 30.51-.111 60.91 0 91.31 0 2.672-1.342 4.001-2.863 5.509l-.332.329c-28.858 27.316-56.063 56.064-80.405 87.455-9.363 12.006-18.395 24.452-25.114 38.221-2.753 5.727-5.176 11.565-5.397 18.063-.103 1.658-.987 2.536-2.008 3.551l-.195.194a1180 1180 0 0 1-16.631 16.632c-1.763 1.763-2.313 2.864 0 4.957 4.295 3.855 8.591 7.93 12.446 12.336 1.983 2.313 2.974 2.533 4.846.661 3.146-3.272 6.364-6.471 9.592-9.681a818 818 0 0 0 7.26-7.282c1.432-1.431 2.864-2.092 4.957-2.313 8.261-.771 15.641-4.405 22.69-8.371 19.606-11.014 37.009-25.223 54.191-39.652 2.609-2.236 5.191-4.497 7.86-6.834 2.854-2.499 5.805-5.083 8.992-7.815v4.406l.001 28.811a97.6 97.6 0 0 1 20.62-2.19q2.066 0 4.112.085m-105.681.347c-.855.488-1.706.973-2.541 1.474 4.405-9.913 10.463-18.394 16.852-26.765 15.861-21.038 33.484-40.754 51.768-59.809 1.652-1.762 2.753-1.982 4.516-.11 3.495 3.771 7.22 7.388 10.919 10.98l2.188 2.127c1.432 1.432 1.983 2.313.22 3.966-25.113 23.681-50.556 46.921-79.745 65.646-1.367.889-2.777 1.693-4.177 2.491m152.102-162.091c6.939-5.067 13.989-10.133 22.69-14.759-1.762 4.626-3.855 7.71-5.838 10.573-18.614 27.867-40.753 52.54-63.774 76.661-1.762 1.763-2.643 1.432-4.736-1.211-3.414-4.186-7.269-8.151-11.565-11.455-2.754-2.093-2.644-3.084-.881-4.847 20.377-19.495 41.304-38.33 64.104-54.962M115.54 92.76l3.609-3.49c0 2.691-.012 5.53-.024 8.471-.024 6.204-.051 12.855.024 19.505 0 2.017-1.108 2.003-2.395 1.986q-.177-.002-.359-.003H88.088c9.311-8.923 18.537-17.847 27.452-26.47" clip-rule="evenodd"/><path fill="currentColor" fill-rule="evenodd" d="M364.464 324.756c-40.312 0-73.109 32.797-73.109 73.109s32.797 73.109 73.109 73.109 73.109-32.797 73.109-73.109-32.797-73.109-73.109-73.109m-13.357 109.797-28.329-31.482 8.362-7.526 19.683 21.87 46.68-55.591 8.626 7.219z" clip-rule="evenodd"/></svg>