<svg xmlns="http://www.w3.org/2000/svg" width="513" height="512" fill="none"><path fill="currentColor" fill-rule="evenodd" d="M74.247 31c37.035 0 67.734 26.943 73.359 62.189 12.468-12.354 29.68-19.991 48.675-19.991h47.753V99.57c0 37.872-30.88 68.571-68.976 68.571h-26.529v49.753c12.388-11.825 29.222-19.094 47.752-19.094h47.753v26.374c0 37.872-30.88 68.571-68.976 68.571h-26.529v44.807c12.388-11.824 29.222-19.093 47.752-19.093h47.753v26.373c0 37.873-30.88 68.571-68.976 68.571h-26.529v27.194c36.176-4.616 72.28-6.095 108.109-6.095 35.861 0 72.115 1.499 108.435 6.152v-58.899h-21.224c-41.024 0-74.281-33.062-74.281-73.846v-31.648h42.447c20.786 0 39.576 8.488 53.058 22.167v-37.331h-21.224c-41.024 0-74.281-33.062-74.281-73.846v-31.648h42.447c20.786 0 39.576 8.487 53.058 22.167v-42.277h-21.224c-41.024 0-74.281-33.062-74.281-73.846V31h42.447c37.034 0 67.734 26.943 73.358 62.189 12.468-12.354 29.681-19.991 48.675-19.991h47.753V99.57c0 37.872-30.88 68.571-68.976 68.571h-26.529v49.753c12.388-11.825 29.222-19.094 47.752-19.094h47.753v26.374c0 37.872-30.88 68.571-68.976 68.571h-26.529v44.807c12.388-11.824 29.222-19.093 47.752-19.093h47.753v26.373c0 37.873-30.88 68.571-68.976 68.571h-26.529v30.34c24.127 3.948 48.255 9.428 72.289 16.927 5.242 1.636 8.158 7.186 6.513 12.398s-7.229 8.11-12.471 6.475c-64.537-20.136-130.278-25.261-195.989-25.261-65.849 0-131.331 5.087-195.99 25.261-5.242 1.635-10.825-1.264-12.47-6.475-1.646-5.212 1.27-10.762 6.512-12.398 24.18-7.544 48.405-13.043 72.616-16.994v-61.921h-21.224c-41.024 0-74.281-33.062-74.281-73.846v-31.648h42.446c20.787 0 39.577 8.488 53.059 22.167v-37.331h-21.224c-41.024 0-74.281-33.062-74.281-73.846v-31.648h42.446c20.787 0 39.577 8.487 53.059 22.167v-42.277h-21.224c-41.024 0-74.281-33.062-74.281-73.846V31zM222.81 94.296h-26.529c-26.37 0-47.752 21.257-47.752 47.473v5.274h26.529c26.37 0 47.752-21.257 47.752-47.472zM74.247 52.1H53.024v10.55c0 29.126 23.76 52.746 53.058 52.746h21.224v-10.549c0-29.127-23.76-52.747-53.059-52.747M196.281 219.9h26.529v5.275c0 26.215-21.382 47.472-47.752 47.472h-26.529v-5.275c0-26.215 21.382-47.472 47.752-47.472M53.024 177.702h21.223c29.299 0 53.059 23.621 53.059 52.747v10.55h-21.224c-29.298 0-53.058-23.62-53.058-52.747zm143.257 162.857h26.529v5.274c0 26.216-21.382 47.473-47.752 47.473h-26.529v-5.275c0-26.215 21.382-47.472 47.752-47.472M53.024 298.361h21.223c29.299 0 53.059 23.62 53.059 52.747v10.549h-21.224c-29.298 0-53.058-23.62-53.058-52.747zM460.578 94.296h-26.53c-26.37 0-47.752 21.257-47.752 47.473v5.274h26.529c26.37 0 47.753-21.257 47.753-47.472zM312.015 52.1h-21.224v10.55c0 29.126 23.76 52.746 53.058 52.746h21.224v-10.549c0-29.127-23.76-52.747-53.058-52.747M434.048 219.9h26.53v5.275c0 26.215-21.383 47.472-47.753 47.472h-26.529v-5.275c0-26.215 21.382-47.472 47.752-47.472m-143.257-42.198h21.224c29.298 0 53.058 23.621 53.058 52.747v10.55h-21.224c-29.298 0-53.058-23.62-53.058-52.747zm143.257 162.857h26.53v5.274c0 26.216-21.383 47.473-47.753 47.473h-26.529v-5.275c0-26.215 21.382-47.472 47.752-47.472m-143.257-42.198h21.224c29.298 0 53.058 23.62 53.058 52.747v10.549h-21.224c-29.298 0-53.058-23.62-53.058-52.747z" clip-rule="evenodd"/></svg>