<svg xmlns="http://www.w3.org/2000/svg" width="11" height="14" fill="none"><path fill="currentColor" d="M9.967.5a.47.47 0 1 1 0 .938H1.033a.47.47 0 1 1 0-.938zM9.967 12.563a.47.47 0 1 1 0 .937H1.033a.47.47 0 1 1 0-.937zM9.434 11.375a.5.5 0 1 0 1.002-.002.5.5 0 0 0-1.002.002M1.064 11.875a.5.5 0 1 1-.001-1.002.5.5 0 0 1 .001 1.002M9.434 9.625a.5.5 0 1 0 1.002-.002.5.5 0 0 0-1.002.002M1.064 10.125a.5.5 0 1 1-.001-1.002.5.5 0 0 1 .001 1.002M9.434 7.875a.5.5 0 1 0 1.002-.002.5.5 0 0 0-1.002.002M1.064 8.375a.5.5 0 1 1-.001-1.002.5.5 0 0 1 .001 1.002M9.434 6.125a.5.5 0 1 0 1.002-.002.5.5 0 0 0-1.002.002M1.064 6.625a.5.5 0 1 1-.001-1.002.5.5 0 0 1 .001 1.002M9.434 4.375a.5.5 0 1 0 1.002-.002.5.5 0 0 0-1.002.002M1.064 4.875a.5.5 0 1 1-.001-1.002.5.5 0 0 1 .001 1.002M9.434 2.625a.5.5 0 1 0 1.002-.002.5.5 0 0 0-1.002.002M1.064 3.125a.5.5 0 1 1-.001-1.002.5.5 0 0 1 .001 1.002M5.845 2.2a.47.47 0 0 0-.34-.137.47.47 0 0 0-.34.136L3.437 3.927a.467.467 0 1 0 .661.66l.906-.905v6.646l-.916-.916a.468.468 0 0 0-.661.661l1.728 1.728c.094.093.217.139.34.136a.47.47 0 0 0 .34-.136l1.728-1.728a.467.467 0 1 0-.661-.66l-.963.962v-6.76l.973.973a.468.468 0 0 0 .661-.661z"/></svg>