<svg xmlns="http://www.w3.org/2000/svg" width="512" height="512" fill="none"><path fill="currentColor" fill-rule="evenodd" d="M268.529 112H84c-37.531.108-67.892 30.469-68 67.954V332c.108 37.531 30.469 67.892 67.954 68H268c37.531-.108 67.892-30.469 68-67.954V179.52c-.115-37.265-30.255-67.405-67.471-67.52M84.046 144h184.407c19.609.073 35.486 15.958 35.547 35.569V332c-.057 19.838-16.162 35.943-36.046 36H84c-19.838-.057-35.943-16.162-36-36.046V180c.057-19.838 16.162-35.943 36.046-36M451 130.38c-.951.423-1.859.937-2.71 1.536l-82.71 58.221A32 32 0 0 0 352 216.3v79.4a32 32 0 0 0 13.58 26.163l82.71 58.221a16 16 0 0 0 2.71 1.536 32 32 0 0 0 45-29.24V159.62a32 32 0 0 0-45-29.24m13 29.61v192.019l-80-56.312v-79.395z" clip-rule="evenodd"/></svg>