<svg xmlns="http://www.w3.org/2000/svg" width="512" height="512" fill="none"><path fill="currentColor" fill-rule="evenodd" d="M84 400h184c37.539-.039 67.961-30.461 68-68V179.52c-.044-37.272-30.248-67.476-67.52-67.52H84c-37.54.039-67.961 30.461-68 68v152c.039 37.539 30.46 67.961 68 68m367-18.38a32 32 0 0 0 13 2.77v-.01c17.673 0 32-14.327 32-32V159.62a32 32 0 0 0-45-29.24c-.952.423-1.86.938-2.71 1.54l-82.71 58.22A32 32 0 0 0 352 216.3v79.4a32 32 0 0 0 13.58 26.16l82.71 58.22c.85.602 1.758 1.117 2.71 1.54" clip-rule="evenodd"/></svg>