<svg xmlns="http://www.w3.org/2000/svg" width="512" height="512" fill="none"><path fill="currentColor" fill-rule="evenodd" d="M401.941 423.628A16 16 0 0 0 416 432.012a16 16 0 0 0 13.4-7.26c35.94-55.11 50.6-103.99 50.6-168.74 0-74.26-20.19-121.11-50.49-168.61a16.012 16.012 0 0 0-27 17.22c27.31 42.77 45.49 84.89 45.49 151.39 0 67.76-18.15 109.47-45.39 151.26a16 16 0 0 0-.669 16.356M217.8 411.332a23.88 23.88 0 0 0 14.2 4.68c13.255 0 24-10.745 24-24v-272a23.998 23.998 0 0 0-38.22-19.32 8 8 0 0 0-.66.51l-91.37 74.81H56c-13.255 0-24 10.745-24 24v112c0 13.255 10.745 24 24 24h69.76l91.38 74.81q.317.272.66.51m88.582-82.926A16 16 0 0 0 320 336.012a16 16 0 0 0 14.3-8.81c11.7-23.38 17.7-47.33 17.7-71.19 0-24.56-5.81-47.88-17.74-71.27-4.105-7.697-13.619-10.688-21.389-6.723-7.77 3.964-10.933 13.422-7.111 21.263 9.59 18.79 14.25 37.35 14.25 56.73 0 18.81-4.81 37.94-14.3 56.81a16 16 0 0 0 .672 15.584M368 384.012a16.001 16.001 0 0 1-13.86-24c18.91-32.91 29.86-60.49 29.86-104 0-44.17-10.93-71.56-29.82-103.94-4.311-7.62-1.698-17.289 5.865-21.7s17.266-1.924 21.775 5.58c21.1 36.17 34.18 68.87 34.18 120.06 0 50.43-13.06 83.29-34.13 120a16 16 0 0 1-13.87 8" clip-rule="evenodd"/></svg>