<svg xmlns="http://www.w3.org/2000/svg" width="512" height="512" fill="none"><path fill="currentColor" fill-rule="evenodd" d="M75.051 68.43c-6.266-5.99-16.203-5.905-22.365.256-6.248 6.249-6.248 16.38 0 22.628l352 352 .263.256c6.266 5.991 16.203 5.905 22.365-.256 6.248-6.249 6.248-16.379 0-22.628l-352-352zM224 170.72v-33.8l-16.69 13.66a4 4 0 0 1-5.37-.26l-17.05-17.06a4 4 0 0 1 .29-5.92l31.94-26.15q.317-.272.66-.51a23.91 23.91 0 0 1 25.55-1.83A24.53 24.53 0 0 1 256 120.57v74.15a4 4 0 0 1-6.83 2.82l-24-24a4 4 0 0 1-1.17-2.82m0 204.36-78.07-63.92a32 32 0 0 0-20.28-7.16H64v-96h50.72a4 4 0 0 0 2.82-6.83l-24-24a4 4 0 0 0-2.82-1.17H56c-13.255 0-24 10.745-24 24v112c0 13.255 10.745 24 24 24h69.76l91.36 74.8q.317.272.66.51a23.93 23.93 0 0 0 25.85 1.69A24.49 24.49 0 0 0 256 391.45v-50.17a4 4 0 0 0-1.17-2.82l-24-24a3.999 3.999 0 0 0-6.83 2.82zm110.25-190.35C346.19 208.12 352 231.44 352 256a147 147 0 0 1-3.58 32.05 4.001 4.001 0 0 1-6.75 2l-19.66-19.67a8 8 0 0 1-2.32-6.25Q320 260 320 256c0-19.38-4.66-37.94-14.25-56.73-3.822-7.841-.659-17.299 7.111-21.263s17.284-.974 21.389 6.723M416 256c0-51.19-13.08-83.89-34.18-120.06-4.509-7.504-14.212-9.991-21.775-5.58s-10.176 14.08-5.865 21.7C373.07 184.44 384 211.83 384 256c0 23.83-3.29 42.88-9.37 60.65a8 8 0 0 0 1.9 8.26l16.77 16.76a4 4 0 0 0 6.52-1.27C410.09 315.88 416 289.91 416 256m13.49-168.61C459.81 134.89 480 181.74 480 256c0 51-9.12 92.22-30.6 134.39a4 4 0 0 1-6.4 1l-17.82-17.84a4 4 0 0 1-.77-4.55C439.1 338.12 448 303.45 448 256c0-66.5-18.18-108.62-45.51-151.39-4.755-7.456-2.566-17.355 4.89-22.11s17.355-2.566 22.11 4.89" clip-rule="evenodd"/></svg>