<svg xmlns="http://www.w3.org/2000/svg" width="512" height="512" fill="none"><path fill="currentColor" fill-rule="evenodd" d="M281.79 411.5a23.9 23.9 0 0 0 14.21 4.69v-.02c13.255 0 24-10.745 24-24V119.83a24 24 0 0 0-38.23-19.34l-.66.51-91.46 75H120c-13.255 0-24 10.745-24 24v111.99c0 13.255 10.745 24 24 24h69.67l91.46 75zm88.599-83.104A16 16 0 0 0 384 336a16 16 0 0 0 14.3-8.82C410 303.78 416 279.83 416 256c0-24.53-5.8-47.84-17.74-71.27-4.105-7.697-13.619-10.688-21.389-6.723-7.77 3.964-10.933 13.422-7.111 21.263 9.59 18.81 14.25 37.37 14.25 56.73 0 18.82-4.81 37.92-14.3 56.82a16 16 0 0 0 .679 15.576" clip-rule="evenodd"/></svg>