<svg xmlns="http://www.w3.org/2000/svg" width="512" height="512" fill="none"><path fill="currentColor" fill-rule="evenodd" d="m249.279 101.051.165-.131.336-.254a24 24 0 0 1 38.22 19.33v272.309a24 24 0 0 1-38.22 19.38 17 17 0 0 1-.665-.517l-91.473-75.002H88c-13.122 0-23.785-10.532-23.997-23.604l-.003-.396v-112c0-13.255 10.745-24 24-24h69.666zM256 375.433V136.918l-78.065 64.01-.433.348a32 32 0 0 1-19.852 6.89H96v96h61.658a32 32 0 0 1 19.866 6.926l.411.331zm88.728-197.52c7.872-4.016 17.508-.89 21.524 6.981C377.956 207.834 384 231.155 384 256.166c0 24.507-6.182 48.223-17.699 71.176-3.964 7.898-13.579 11.087-21.477 7.124s-11.088-13.579-7.125-21.476C347.081 294.294 352 275.422 352 256.166c0-19.748-4.765-38.134-14.252-56.729-4.016-7.871-.891-17.508 6.98-21.524m69.094-41.807c-4.451-7.634-14.248-10.213-21.881-5.762s-10.214 14.247-5.763 21.881C407.809 189.323 416 215.7 416 256.166c0 39.967-8.255 66.296-29.883 104.045-4.393 7.668-1.738 17.444 5.929 21.837s17.444 1.739 21.837-5.928C438.093 333.864 448 302.264 448 256.166c0-46.589-9.867-78.367-34.178-120.06" clip-rule="evenodd"/></svg>