<svg xmlns="http://www.w3.org/2000/svg" width="512" height="512" fill="none"><path fill="currentColor" fill-rule="evenodd" d="M75.051 68.43c-6.266-5.99-16.203-5.905-22.365.256-6.248 6.249-6.248 16.38 0 22.628l352 352 .263.256c6.266 5.991 16.203 5.905 22.365-.256 6.248-6.249 6.248-16.379 0-22.628l-352-352zm142.729 32.25a23.89 23.89 0 0 1 25.55-1.82A24.51 24.51 0 0 1 256 120.57v64.49a7.999 7.999 0 0 1-13.66 5.66l-54.33-54.33a8 8 0 0 1 .59-11.85l28.52-23.35zm33.55 234.61L96.69 180.69A16 16 0 0 0 85.38 176H56c-13.255 0-24 10.745-24 24v112c0 13.255 10.745 24 24 24h69.76l92 75.31a23.9 23.9 0 0 0 25.87 1.69A24.51 24.51 0 0 0 256 391.45v-44.86a16 16 0 0 0-4.67-11.3m82.92-150.56C346.19 208.13 352 231.44 352 256a146 146 0 0 1-2.08 24.43 8 8 0 0 1-13.55 4.31l-14.36-14.36a8 8 0 0 1-2.32-6.25Q320 260 320 256c0-19.38-4.66-37.94-14.25-56.72a15.998 15.998 0 0 1 15.061-23.349 16 16 0 0 1 13.439 8.799M416 256c0-51.18-13.08-83.89-34.18-120.06-4.509-7.504-14.212-9.991-21.775-5.58s-10.176 14.08-5.865 21.7C373.07 184.44 384 211.83 384 256c0 23.83-3.29 42.88-9.37 60.65a8 8 0 0 0 1.9 8.26L389 337.4a8 8 0 0 0 13.13-2.79C411 311.76 416 287.26 416 256m13.49-168.61C459.81 134.89 480 181.75 480 256c0 49-8.4 88.9-28 129.29a8 8 0 0 1-12.92 2.16l-11.92-11.92a8 8 0 0 1-1.59-9C439.57 336.27 448 302.19 448 256c0-66.5-18.18-108.62-45.51-151.39-4.755-7.456-2.566-17.355 4.89-22.11s17.355-2.566 22.11 4.89" clip-rule="evenodd"/></svg>