<svg xmlns="http://www.w3.org/2000/svg" width="512" height="512" fill="none"><path fill="currentColor" fill-rule="evenodd" d="M64 57 41.373 79.627 416 454.255l22.627-22.628zm270.25 127.357c11.94 23.39 17.75 46.71 17.75 71.27a148.8 148.8 0 0 1-5.31 39.06l-27.32-27.32c.414-3.899.624-7.818.63-11.74 0-19.38-4.66-37.94-14.25-56.75l-7.27-14.25 28.52-14.53zm81.75 71.27c0-51.19-13.08-83.89-34.18-120.06l-8.06-13.82-27.64 16.12 8.06 13.82c18.89 32.38 29.82 59.77 29.82 103.94 0 25.93-3.89 46.21-11 65.33l24.5 24.51c11.69-26.16 18.5-53.42 18.5-89.84m13.49-168.61c30.32 47.5 50.51 94.35 50.51 168.61 0 53-9.84 95.39-33.12 139.25l-23.7-23.7c15.42-31.55 24.82-66.79 24.82-115.55 0-66.5-18.18-108.62-45.51-151.39l-8.61-13.49 27-17.22zM256 71.627l-73.6 58.78 73.6 73.59zm-224 263.9v-159.8h60.47L256 339.257v100.37l-130.35-104.1z" clip-rule="evenodd"/></svg>