<svg xmlns="http://www.w3.org/2000/svg" width="512" height="512" fill="none"><path fill="currentColor" fill-rule="evenodd" d="M32 176.1h93.65L256 72v368L125.65 335.9H32zM420.878 73.905l8.609 13.486C464.751 142.64 480 189.871 480 256c0 65.841-15.298 114.117-49.554 167.132l-1.044 1.608-8.741 13.402-26.803-17.481 8.74-13.401C434.319 358.621 448 316.038 448 256c0-59.09-13.088-100.221-44.528-149.884l-.959-1.507-8.608-13.487zm-39.06 62.029-8.067-13.818-27.635 16.133 8.066 13.817.644 1.107C375.941 189.591 384 215.962 384 256c0 39.958-8.305 66.473-29.875 104.032l-7.968 13.875 27.75 15.936 7.968-13.875.72-1.259C406.237 333.254 416 301.628 416 256c0-46.565-9.901-78.472-34.182-120.066m-47.569 48.789-7.277-14.25-28.499 14.555 7.278 14.249.47.928C315.383 218.442 320 236.593 320 256c0 19.248-4.932 38.184-14.296 56.815l-7.185 14.296 28.592 14.37 7.185-14.296.504-1.011C345.985 303.588 352 280.139 352 256c0-24.999-6.055-48.377-17.751-71.277" clip-rule="evenodd"/></svg>