<svg xmlns="http://www.w3.org/2000/svg" width="512" height="512" fill="none"><path fill="currentColor" fill-rule="evenodd" d="M157.65 176.1H64v159.8h93.65L288 440V72zm201.331-5.624 7.271 14.252C377.956 207.668 384 230.989 384 256c0 24.147-6.001 47.526-17.195 70.163l-.504 1.013-7.177 14.301-28.601-14.353 7.176-14.3C347.081 294.129 352 275.257 352 256c0-19.418-4.607-37.52-13.782-55.799l-.47-.929-7.272-14.253zm54.841-34.535-8.059-13.822-27.644 16.119 8.059 13.821 1.282 2.214C408.134 190.218 416 216.344 416 256c0 39.968-8.255 66.297-29.883 104.046l-7.954 13.883 27.766 15.908 7.954-13.883.722-1.264C438.29 333.065 448 301.638 448 256c0-46.589-9.867-78.367-34.178-120.059" clip-rule="evenodd"/></svg>