<svg xmlns="http://www.w3.org/2000/svg" width="512" height="512" fill="none"><path fill="currentColor" fill-rule="evenodd" d="M429.487 87.393c-4.755-7.448-14.647-9.632-22.096-4.878-7.448 4.755-9.632 14.647-4.878 22.096C434.646 154.952 448 196.315 448 256.002c0 60.038-13.681 102.621-45.402 151.26-4.827 7.401-2.74 17.315 4.662 22.142 7.401 4.827 17.315 2.74 22.142-4.662C464.391 371.092 480 322.508 480 256.002c0-66.129-15.249-113.361-50.513-168.609m-212.038 13.54-.163.129-91.534 74.94H56c-13.255 0-24 10.745-24 24v112c0 13.255 10.745 24 24 24l69.752-.001 91.372 74.811q.321.263.656.509a24 24 0 0 0 38.22-19.29V120.002a24.01 24.01 0 0 0-13.186-21.411 24 24 0 0 0-25.034 2.092zm-91.399 203.07L64 304.002v-96l62.397-.001a31 31 0 0 0 19.32-6.986l.254-.211L224 136.918v238.167l-78.153-63.987a31.92 31.92 0 0 0-19.797-7.095m208.199-119.278c-4.019-7.87-13.657-10.991-21.526-6.972-7.87 4.019-10.991 13.657-6.972 21.526 9.474 18.55 14.249 36.987 14.249 56.723 0 19.248-4.932 38.184-14.296 56.815-3.968 7.896-.784 17.513 7.111 21.481 7.896 3.968 17.513.784 21.481-7.111C345.804 304.29 352 280.501 352 256.002c0-24.999-6.055-48.377-17.751-71.277m25.685-54.541c7.631-4.455 17.429-1.88 21.884 5.752C406.099 177.53 416 209.437 416 256.002c0 46.089-9.961 77.891-34.125 119.968-4.401 7.663-14.18 10.307-21.843 5.907s-10.307-14.18-5.907-21.843C375.695 322.475 384 295.96 384 256.002c0-40.442-8.222-66.94-29.818-103.934-4.455-7.631-1.88-17.429 5.752-21.884" clip-rule="evenodd"/></svg>