<svg xmlns="http://www.w3.org/2000/svg" width="512" height="512" fill="none"><path fill="currentColor" fill-rule="evenodd" d="m300.444 100.755-.165.13L208.666 176H139c-13.255 0-24 10.745-24 24v112l.003.397C115.215 325.469 125.878 336 139 336h69.642l91.473 75.003q.326.267.665.516a24 24 0 0 0 38.22-19.38V119.83a23.998 23.998 0 0 0-38.22-19.329zM307 136.752v238.515l-78.065-64.01-.411-.331A32 32 0 0 0 208.658 304H147v-96h61.65a32 32 0 0 0 19.852-6.89l.433-.347zm110.252 47.977c-4.016-7.872-13.652-10.997-21.524-6.981-7.871 4.016-10.996 13.652-6.98 21.524C398.235 217.867 403 236.252 403 256c0 19.257-4.919 38.129-14.301 56.824-3.963 7.898-.773 17.513 7.125 21.477s17.513.773 21.477-7.125C428.818 304.223 435 280.507 435 256c0-25.011-6.044-48.332-17.748-71.271" clip-rule="evenodd"/></svg>