<svg xmlns="http://www.w3.org/2000/svg" width="512" height="512" fill="none"><path fill="currentColor" fill-rule="evenodd" d="M264 416.19a23.9 23.9 0 0 1-14.21-4.69l-.66-.51-91.46-75H88c-13.255 0-24-10.745-24-24V200c0-13.255 10.745-24 24-24h69.65l91.46-75 .66-.51A24 24 0 0 1 288 119.83v272.34c0 13.255-10.745 24-24 24zM352 336a15.998 15.998 0 0 1-14.29-23.18c9.49-18.9 14.3-38 14.3-56.82 0-19.36-4.66-37.92-14.25-56.73-3.822-7.841-.659-17.299 7.111-21.263s17.284-.974 21.389 6.723C378.2 208.16 384 231.47 384 256c0 23.83-6 47.78-17.7 71.18A16 16 0 0 1 352 336m34.133 40.006A16 16 0 0 0 400 384a16 16 0 0 0 13.88-8C434.94 339.24 448 306.36 448 256c0-51.12-13.08-83.84-34.17-120-4.588-7.289-14.122-9.639-21.572-5.317-7.449 4.323-10.14 13.767-6.088 21.367C405.06 184.48 416 211.88 416 256c0 43.45-11 71.05-29.87 104a16 16 0 0 0 .003 16.006" clip-rule="evenodd"/></svg>