<svg xmlns="http://www.w3.org/2000/svg" width="512" height="512" fill="none"><path fill="currentColor" fill-rule="evenodd" d="M218.58 65.04c0-24.875 20.165-45.04 45.04-45.04s45.04 20.165 45.04 45.04-20.165 45.04-45.04 45.04-45.04-20.165-45.04-45.04m5.04 58.08h-15.55c-12.863 0-25.214 5.486-37.206 15.079-9.151 7.319-17.977 16.948-26.532 28.358-6.478 8.641-12.444 17.824-17.794 27.002a290 290 0 0 0-4.242 7.525l-.74 1.373a177 177 0 0 0-1.624 3.097l-.246.486a16 16 0 0 0-1.686 7.15v74.07l.003.315c.168 8.691 7.266 15.685 15.997 15.685l.315-.003c8.691-.168 15.685-7.266 15.685-15.997v-70.134l.758-1.395c.8-1.461 1.67-3.014 2.606-4.642l.819-1.415c4.77-8.182 10.082-16.359 15.752-23.921 7.711-10.285 15.292-18.281 22.135-23.521V267.48l.003.833a88.35 88.35 0 0 0 12.281 44.205l.273.445q.42.662.904 1.279l43.608 55.708 55.691 112.527.152.298c4.01 7.703 13.466 10.815 21.285 6.945l.298-.152c7.703-4.01 10.815-13.466 6.945-21.285l-53.89-108.886V179.12l-.007-.926c-.495-30.501-25.374-55.074-55.993-55.074m140.83 161.03a18.5 18.5 0 0 0 10.257 3.11 18.52 18.52 0 0 0 10.253-33.93l-81.65-54.11a5.65 5.65 0 0 0-8.69 4.77v23.7a21.18 21.18 0 0 0 9.7 17.79zm-185.92 204.8a18.5 18.5 0 0 1-14.83-7.41c-6.14-8.18-4-17.18 3.7-25.92l59.95-74.66a7.41 7.41 0 0 1 10.76 2.06c1.56 2.54 3.38 5.65 5.19 9.09 5.24 9.95 6 16.11-1.68 25.7-8 10-52 67.44-52 67.44-2.62 2.98-7.23 3.7-11.09 3.7" clip-rule="evenodd"/></svg>