<svg xmlns="http://www.w3.org/2000/svg" width="512" height="512" fill="none"><path fill="currentColor" fill-rule="evenodd" d="M215.46 61.38c0-25.063 20.317-45.38 45.38-45.38s45.38 20.317 45.38 45.38-20.317 45.38-45.38 45.38-45.38-20.317-45.38-45.38m5.098 58.79c30.756.053 55.727 24.736 56.254 55.389l.008.931v178.52h-1.69l63.216 127.787-28.683 14.189-63.318-127.993-43.99-56.268q-.482-.616-.9-1.275l-.271-.443a89.1 89.1 0 0 1-12.38-44.468l-.004-.839v-91.083L146 217.515v84.155h-32V210.9a16 16 0 0 1 4.388-11.007l.285-.294 76.251-76.426.231.23a15.93 15.93 0 0 1 9.33-3.23l.315-.003zm73.662 113.35 83.95 56.38 20.73-28.11-104.68-72.95zM176.95 492.75l-21.43-26.91 80.33-81.54 15.53 32.07z" clip-rule="evenodd"/></svg>