<svg xmlns="http://www.w3.org/2000/svg" width="512" height="512" fill="none"><path fill="currentColor" fill-rule="evenodd" d="M265.42 15c-29.415 0-53.26 23.845-53.26 53.26s23.845 53.26 53.26 53.26 53.26-23.845 53.26-53.26S294.835 15 265.42 15m0 32c11.742 0 21.26 9.518 21.26 21.26s-9.518 21.26-21.26 21.26-21.26-9.518-21.26-21.26S253.678 47 265.42 47m-40.23 79.78h-15.67c-12.909 0-25.311 5.512-37.359 15.152-9.196 7.358-18.07 17.04-26.674 28.514-6.517 8.69-12.52 17.927-17.904 27.158a283 283 0 0 0-5.013 8.949l-.164.307q-.646 1.21-1.092 2.072l-.625 1.223A16 16 0 0 0 119 217.31v74.52l.003.315c.168 8.691 7.266 15.685 15.997 15.685l.315-.003c8.691-.168 15.685-7.266 15.685-15.997v-70.582l.775-1.425a252 252 0 0 1 2.625-4.673l.825-1.424c4.804-8.237 10.154-16.469 15.863-24.082 7.818-10.425 15.503-18.517 22.432-23.795V271.92l.004.836a88.8 88.8 0 0 0 12.352 44.355l.272.443q.419.659.899 1.274l43.879 56.097 56.043 113.27.152.299c4.01 7.702 13.464 10.816 21.284 6.947l.299-.152c7.702-4.01 10.816-13.464 6.947-21.284L281.42 364.398V183l-.004-.648a56.22 56.22 0 0 0-56.226-55.572m.33 145.14V158.783l.129.001a24.23 24.23 0 0 1 16.675 7.088l.321.327A24.22 24.22 0 0 1 249.42 183v138.061l-16.481-21.07-.205-.363a56.8 56.8 0 0 1-7.214-27.708m94.075-55.698c-7.353-4.612-17.079-2.516-21.868 4.774-4.851 7.385-2.797 17.305 4.589 22.157l66.1 43.42.289.185c7.353 4.612 17.079 2.516 21.868-4.774 4.851-7.385 2.797-17.305-4.589-22.157l-66.1-43.42zm-101.711 173.54c4.98-7.299 14.935-9.179 22.234-4.198 7.203 4.915 9.129 14.674 4.391 21.945l-.193.289-53.47 78.36c-4.98 7.299-14.935 9.179-22.234 4.198-7.203-4.915-9.129-14.674-4.391-21.945l.193-.289z" clip-rule="evenodd"/></svg>