<svg xmlns="http://www.w3.org/2000/svg" width="512" height="512" fill="none"><path fill="currentColor" fill-rule="evenodd" d="M351.635 49.066a66 66 0 0 1 77.722 64.307l.003.627v15.005C459.287 134.366 482 160.531 482 192v192c0 35.346-28.654 64-64 64H98c-35.346 0-64-28.654-64-64V159.011c-.022-31.704 22.502-58.943 53.645-64.878l.303-.055 263.197-44.922zm45.725 64.939V128H98a64.2 64.2 0 0 0-15.722 1.945 33.9 33.9 0 0 1 10.877-4.283l.402-.08 263.287-44.937.666-.122a34.002 34.002 0 0 1 39.85 33.482M418 160H98c-17.673 0-32 14.327-32 32v192c0 17.673 14.327 32 32 32h320c17.673 0 32-14.327 32-32V192c0-17.673-14.327-32-32-32m-80 128c0 17.673 14.327 32 32 32s32-14.327 32-32-14.327-32-32-32-32 14.327-32 32" clip-rule="evenodd"/></svg>