<svg xmlns="http://www.w3.org/2000/svg" width="512" height="512" fill="none"><path fill="currentColor" fill-rule="evenodd" d="M156.581 112H416.5a88 88 0 0 1 11.18.71 66 66 0 0 0-77.51-55.56L97.42 100.301a329 329 0 0 0-10.503 1.779H86.7a66 66 0 0 0-4.531 1.033C44.133 112.656 33 147.128 33 168v24.027a65 65 0 0 0-.5 7.973v192c.039 35.33 28.67 63.961 64 64h320c35.33-.039 63.961-28.67 64-64V200c-.039-35.33-28.67-63.961-64-64H161c-16.929 0-18.785-20.516-4.419-24M337 296c0 17.673 14.327 32 32 32s32-14.327 32-32-14.327-32-32-32-32 14.327-32 32" clip-rule="evenodd"/></svg>