<svg xmlns="http://www.w3.org/2000/svg" width="512" height="512" fill="none"><path fill="currentColor" fill-rule="evenodd" d="m455.069 399.08-170.43-316.5c-12.08-22.44-44.26-22.44-56.35 0l-170.42 316.5A32 32 0 0 0 86 446.25h340.89a32.002 32.002 0 0 0 28.18-47.17m-198.6-1.83c-11.045 0-20-8.954-20-20s8.955-20 20-20 20 8.954 20 20a20 20 0 0 1-20 20m21.72-201.15-5.74 122c0 8.837-7.163 16-16 16s-16-7.163-16-16l-5.74-121.95a21.734 21.734 0 0 1 21.5-22.69h.21a21.74 21.74 0 0 1 21.73 22.7z" clip-rule="evenodd"/></svg>