<svg xmlns="http://www.w3.org/2000/svg" width="512" height="512" fill="none"><path fill="currentColor" fill-rule="evenodd" d="M43.737 391.744 214.159 75.241c18.132-33.655 66.399-33.655 84.533.003l170.42 316.501a48.002 48.002 0 0 1-42.258 70.755H85.994a48.001 48.001 0 0 1-42.258-70.756m397.2 15.171L270.519 90.419c-6.048-11.226-22.141-11.226-28.187-.004l-170.42 316.5A16 16 0 0 0 85.994 430.5h340.86a16 16 0 0 0 13.731-7.797 16 16 0 0 0 .352-15.788M256.598 173.691a21.738 21.738 0 0 0-21.903 22.535l5.747 122.166c.957 20.331 31.009 20.33 31.965-.001l5.73-121.95a21.76 21.76 0 0 0-6.073-16.108 21.74 21.74 0 0 0-14.802-6.628l-.387-.01zM236.424 377.5c0 11.045 8.955 20 20 20s20-8.955 20-20-8.954-20-20-20-20 8.954-20 20" clip-rule="evenodd"/></svg>