<svg xmlns="http://www.w3.org/2000/svg" width="512" height="512" fill="none"><path fill="currentColor" fill-rule="evenodd" d="M328 16c13.122 0 23.785 10.531 23.997 23.603L352 40v57.6c36.516 7.413 64 39.697 64 78.4v160c0 38.703-27.484 70.987-64 78.4V472c0 13.122-10.531 23.785-23.603 23.997L328 496H184c-13.122 0-23.785-10.531-23.997-23.603L160 472v-57.6c-36.516-7.413-64-39.697-64-78.4V176c0-38.703 27.484-70.987 64-78.4V40c0-13.122 10.531-23.785 23.603-23.997L184 16zM192 416v48h128v-48zM320 48v48H192V48zm16 80H176c-26.51 0-48 21.49-48 48v160c0 26.51 21.49 48 48 48h160c26.51 0 48-21.49 48-48V176c0-26.51-21.49-48-48-48" clip-rule="evenodd"/></svg>