<svg xmlns="http://www.w3.org/2000/svg" width="512" height="512" fill="none"><path fill="currentColor" fill-rule="evenodd" d="M336 96V32c0-8.837-7.163-16-16-16H192c-8.837 0-16 7.163-16 16v64c-44.162.05-79.95 35.838-80 80v160c.05 44.162 35.838 79.95 80 80v64c0 8.837 7.163 16 16 16h128c8.837 0 16-7.163 16-16v-64c44.162-.05 79.95-35.838 80-80V176c-.05-44.162-35.838-79.95-80-80m56 224c-.044 39.746-32.254 71.956-72 72H192c-39.746-.044-71.956-32.254-72-72V192c.044-39.746 32.254-71.956 72-72h128c39.746.044 71.956 32.254 72 72zM192 136c-30.928 0-56 25.072-56 56v128c0 30.928 25.072 56 56 56h128c30.928 0 56-25.072 56-56V192c0-30.928-25.072-56-56-56z" clip-rule="evenodd"/></svg>