<svg xmlns="http://www.w3.org/2000/svg" width="512" height="512" fill="none"><path fill="currentColor" fill-rule="evenodd" d="M384 96h-48V16H176v80h-48c-17.673 0-32 14.327-32 32v256c0 17.673 14.327 32 32 32h48v80h160v-80h48c17.673 0 32-14.327 32-32V128c0-17.673-14.327-32-32-32m8 272c0 13.255-10.745 24-24 24H144c-13.255 0-24-10.745-24-24V144c0-13.255 10.745-24 24-24h224c13.255 0 24 10.745 24 24zM144 136a8 8 0 0 0-8 8v224a8 8 0 0 0 8 8h224a8 8 0 0 0 8-8V144a8 8 0 0 0-8-8z" clip-rule="evenodd"/></svg>