<svg xmlns="http://www.w3.org/2000/svg" width="512" height="512" fill="none"><path fill="currentColor" fill-rule="evenodd" d="M256.005 36a28 28 0 0 0-21.268 9.789c-27.257 31.88-55.998 69.898-80.8 110.301C117.296 215.778 96 270.032 96 316.075c0 97.207 62.793 160 160 160s160-62.793 160-160c0-46.042-21.295-100.295-57.935-159.985-24.798-40.398-53.518-78.392-80.782-110.29a28 28 0 0 0-21.278-9.8m-.001 34.175.723.856c25.132 29.794 51.399 64.873 74.066 101.799C364.606 227.915 384 277.324 384 316.075c0 79.534-48.467 128-128 128s-128-48.466-128-128c0-38.751 19.394-88.161 53.208-143.244 22.287-36.305 48.066-70.84 72.805-100.293zM360 324.075c0-8.836-7.163-16-16-16s-16 7.164-16 16l-.008.926c-.494 30.501-25.373 55.074-55.992 55.074l-.315.003c-8.691.168-15.685 7.266-15.685 15.997 0 8.837 7.163 16 16 16 48.601 0 88-39.399 88-88" clip-rule="evenodd"/></svg>