<svg xmlns="http://www.w3.org/2000/svg" width="512" height="512" fill="none"><path fill="currentColor" fill-rule="evenodd" d="M273.096 195.696a83.5 83.5 0 0 1 3.886-29.468 85 85 0 0 1 11.362-22.846 89 89 0 0 1 9.928-11.809L359.601 59l61.013 72.257c25.208 25.208 31.558 61.135 19.051 91.744-4.212 10.307-10.562 20.011-19.051 28.499l-9.487 9.487a74 74 0 0 1-3.254 3.064 72.9 72.9 0 0 1-22.253 13.536 73.4 73.4 0 0 1-24.5 4.851c-19.37.482-38.894-6.668-53.677-21.451l-9.171-9.171c-15.809-15.809-24.201-35.835-25.176-56.12m-25.01-37.605q3.63.872 7.124 1.802.28-.961.577-1.918a107.6 107.6 0 0 1 13.074-27.514 308 308 0 0 0-6.762-1.847 378 378 0 0 0-18.394-4.293l-2.888-.594c-.883-.179-1.754-.354-2.622-.525-5.651-1.119-11.2-2.122-19.536-3.548l-14.892-2.523c-33.387-5.706-49.078-9.338-67.776-16.51-25.457-9.763-47.493-24.293-68.36-46.387-2.596-2.754-5.76-4.847-9.813-5.777a18 18 0 0 0-2.809-.416c-4.38-.296-8.631 1.051-12.07 3.686-4.533 3.473-6.716 7.91-8.242 13.685a53 53 0 0 0-.74 3.232c-1.302 6.594-1.924 15.36-1.945 26.001-.05 25.709 3.415 60.22 9.983 95.526 7.74 41.614 19.283 82.185 34.357 118.011 17.657 41.963 39.628 76.299 66.156 100.816l.806.74c40.302 36.785 93.189 55.694 144.587 53.71 49.73-1.92 92.865-23.314 116.121-59.637 18.866 4.909 38.341 8.895 58.545 12.003 8.734 1.344 16.903-4.647 18.247-13.381 1.343-8.734-4.648-16.903-13.381-18.247a587 587 0 0 1-19.474-3.328 542 542 0 0 1-29.55-6.413 156.8 156.8 0 0 0 7.565-29.033 159.7 159.7 0 0 0 1.902-31.141 165.5 165.5 0 0 0-2.902-25.373 170 170 0 0 0-2.022-9.126 91.8 91.8 0 0 1-28.762 18.736q.624 3.767 1.03 7.529c1.114 10.306 1.006 20.564-.304 30.61a125 125 0 0 1-2.587 13.784 125 125 0 0 1-4.845 15.333c-74.39-23.507-138.973-63.622-203.514-124.411-6.433-6.059-16.559-5.755-22.618.677s-5.755 16.559.678 22.617c57.093 53.775 114.728 92.444 178.56 118.25a505 505 0 0 0 30.902 11.331c-7.279 8.874-16.505 16.362-27.238 22.25-16.249 8.913-35.953 14.159-57.588 14.994-42.645 1.646-86.858-13.993-120.751-44.438l-1.024-.927c-43.787-40.001-75.251-114.78-91.436-201.788-3.237-17.401-5.674-34.562-7.261-50.348-1.385-13.768-2.122-26.491-2.179-37.417l-.003-1.725.62.523q.717.6 1.437 1.191l.007.007c9.23 7.59 18.776 14.175 28.732 19.883 9.508 5.451 19.39 10.103 29.724 14.066l1.996.758c20.96 7.873 38.56 11.784 75.023 17.956l10.379 1.755c10.688 1.823 16.67 2.918 23.715 4.363l.4.082c4.146.853 8.155 1.743 12.041 2.678m111.506-52.601-39.217 46.408-.889.889c-21.981 21.98-21.981 55.836-.001 77.816l9.171 9.171c16.916 16.916 44.342 16.916 61.258 0l9.487-9.487c21.981-21.981 21.981-55.836 0-77.817l-.893-.893z" clip-rule="evenodd"/></svg>