<svg xmlns="http://www.w3.org/2000/svg" width="512" height="512" fill="none"><path fill="currentColor" fill-rule="evenodd" d="M50.67 166.417c116.032-103.51 290.662-104.545 407.866-3.106l3.534 3.106 15.671 13.979-27.96 31.342-15.67-13.98c-100.261-89.441-251.154-90.335-352.427-2.683l-3.054 2.683-15.67 13.98L35 180.396zm354.926 65.439c-85.509-77.508-216.447-76.717-301.029 2.373l-15.338 14.342 28.685 30.678 15.339-14.343 2.09-1.924c69.351-62.862 175.546-62.22 244.144 1.924l15.339 14.343 28.686-30.678-15.339-14.342zm-60.418 61.655c-51.525-44.435-128.136-43.982-179.149 1.36l-15.696 13.952 27.903 31.392 15.696-13.952 1.073-.94c35.613-30.713 88.565-30.399 123.824.94l15.696 13.952 27.902-31.392-15.695-13.952zM256.09 423.567l44.67-49h-.09a56.73 56.73 0 0 0-88.92 0z" clip-rule="evenodd"/></svg>