<svg xmlns="http://www.w3.org/2000/svg" width="512" height="512" fill="none"><path fill="currentColor" fill-rule="evenodd" d="M462 170.86c-117.21-104.58-294.23-104.58-411.44 0a21 21 0 1 0 28 31.29c101.265-90.314 254.165-90.314 355.43 0 8.646 7.732 21.923 6.991 29.655-1.655s6.991-21.923-1.655-29.655zm-357.52 67.76a221.47 221.47 0 0 1 151.8-59.92 221.47 221.47 0 0 1 151.8 59.92 21 21 0 1 1-28.68 30.67c-69.296-64.786-176.944-64.786-246.24 0a21 21 0 1 1-28.68-30.67m61.46 60.68c51.529-45.805 129.181-45.805 180.71 0v-.02c8.671 7.707 9.452 20.984 1.745 29.655s-20.984 9.452-29.655 1.745c-35.613-31.652-89.276-31.652-124.89 0a20.999 20.999 0 0 1-34.755-11.352 21 21 0 0 1 6.845-20.028m122.34 89.11c0 17.673-14.327 32-32 32s-32-14.327-32-32 14.327-32 32-32 32 14.327 32 32" clip-rule="evenodd"/></svg>