<svg xmlns="http://www.w3.org/2000/svg" width="512" height="512" fill="none"><path fill="currentColor" fill-rule="evenodd" d="M53.35 172.148c115.306-102.864 289.434-102.864 404.741 0 6.594 5.882 7.171 15.996 1.289 22.59-5.802 6.504-15.721 7.154-22.318 1.527l-.273-.238C334.651 104.911 180.932 104 77.762 193.293l-3.11 2.734c-6.595 5.882-16.709 5.306-22.591-1.289s-5.306-16.708 1.288-22.59m350.758 67.683c-83.514-78.092-213.262-78.092-296.776 0-6.454 6.035-6.794 16.16-.759 22.614 6.036 6.455 16.161 6.794 22.615.759l2.148-1.978c71.274-64.605 180.415-63.946 250.916 1.978l.268.245c6.463 5.78 16.394 5.362 22.347-1.004 6.035-6.454 5.696-16.579-.759-22.614m-61.348 60.778c-49.634-44.117-124.426-44.117-174.059 0-6.605 5.87-7.2 15.983-1.33 22.588 5.871 6.605 15.984 7.2 22.589 1.329l1.131-.99c37.506-32.347 93.275-32.017 130.41.99l.273.238c6.608 5.615 16.525 4.947 22.315-1.567 5.87-6.605 5.275-16.718-1.329-22.588m-119.04 85.368c0 17.673 14.327 32 32 32s32-14.327 32-32-14.327-32-32-32-32 14.327-32 32" clip-rule="evenodd"/></svg>