<svg xmlns="http://www.w3.org/2000/svg" width="512" height="512" fill="none"><path fill="currentColor" fill-rule="evenodd" d="M311.81 56c0 30.928-25.072 56-56 56s-56-25.072-56-56 25.072-56 56-56 56 25.072 56 56m-1.42 135.4h-.05L363.32 368h-51.51v144h-52V368h-8v144h-52V368h-51.5l52.99-176.64-7.54-2.26L157 311.7l-46-13.8 16.21-54.16c.07-.12.07-.24.07-.36l16.84-56.12 4.71-15.74.9-3h.06l2.51-8.45c5.65-19.034 23.145-32.086 43-32.08h121.25c19.855-.006 37.35 13.046 43 32.08l2.51 8.45h.05l.9 3 4.71 15.74 16.84 56.12c.07.12.07.24.07.36l16.21 54.16-46 13.8-36.79-122.6z" clip-rule="evenodd"/></svg>