<svg xmlns="http://www.w3.org/2000/svg" width="512" height="513" fill="none"><path fill="currentColor" fill-rule="evenodd" d="M200 56c0-30.928 25.072-56 56-56s56 25.072 56 56-25.072 56-56 56-56-25.072-56-56m80 0c0-13.255-10.745-24-24-24s-24 10.745-24 24 10.745 24 24 24 24-10.745 24-24m85.104 114.758c-7.911-25.408-31.439-42.762-58.107-42.758H205l-.807.005c-26.593.336-49.935 17.935-57.539 43.492l-25.004 84.292-.108.361a39.72 39.72 0 0 0 3.182 30.138l.266.484a39.72 39.72 0 0 0 23.264 18.643l.724.215a39.7 39.7 0 0 0 7.789 1.464l-12.093 40.308-.089.308C141.749 357.874 149.389 368 160 368h32v104l-.002.37a39.73 39.73 0 0 0 11.637 27.995l.393.388a39.73 39.73 0 0 0 27.602 11.248l.37-.002.369.002A39.74 39.74 0 0 0 256 504.138a39.73 39.73 0 0 0 23.63 7.863l.37-.002.369.002a39.73 39.73 0 0 0 27.996-11.636l.388-.394a39.73 39.73 0 0 0 11.248-27.601l-.002-.37.001-104h32l.32-.003c10.55-.204 18.054-10.431 15.005-20.595L355.234 307.1a39.7 39.7 0 0 0 7.737-1.439l.765-.226a39.72 39.72 0 0 0 23.53-19.127l.269-.505a39.72 39.72 0 0 0 2.913-29.633l-.115-.381-24.994-84.259zm-22.207 95.219a16 16 0 0 1 1.543 3.648 7.73 7.73 0 0 0 9.402 5.363l.299-.086.156-.047.158-.045a7.717 7.717 0 0 0 5.348-9.413l-.086-.299-.057-.188-24.998-84.274a28.85 28.85 0 0 0-27.246-20.633L307 160H204.992c-12.631-.006-23.78 8.202-27.542 20.213l-.121.397-25 84.28-.057.188a7.72 7.72 0 0 0 4.979 9.625l.284.087.178.05.176.055a7.73 7.73 0 0 0 9.634-4.987l.087-.284c.35-1.232.836-2.39 1.436-3.461l23.628-78.761c2.54-8.463 11.459-13.266 19.923-10.727 8.361 2.508 13.149 11.242 10.818 19.613l-.09.31L181.504 336h148.991l-41.821-139.402c-2.508-8.361 2.148-17.167 10.42-19.827l.308-.096c8.361-2.508 17.166 2.147 19.827 10.419l.096.308zM288 368h-16v103.921l.001.126v.426a7.727 7.727 0 0 0 7.504 7.525l.312.003.183-.002.183.002a7.727 7.727 0 0 0 7.815-7.506l.003-.312zm-48 0h-16v104l-.001.183a7.73 7.73 0 0 0 7.506 7.815l.312.003.183-.002.183.002a7.73 7.73 0 0 0 7.816-7.528l-.001-.103.002-.366V368" clip-rule="evenodd"/></svg>