<svg xmlns="http://www.w3.org/2000/svg" width="512" height="512" fill="none"><path fill="currentColor" fill-rule="evenodd" d="M311.75 56c0 30.928-25.072 56-56 56s-56-25.072-56-56 25.072-56 56-56 56 25.072 56 56m72.55 187.49 10.33 34.41c3.11 10.39-2.31 21.66-12.58 25.1a20 20 0 0 1-25.59-13.15l-25.57-85.25-2.17-7.23a8 8 0 0 0-15.54 2.63c-.003.534.05 1.067.16 1.59l43.74 145.81a16.002 16.002 0 0 1-15.33 20.6h-30v114.69c0 16.46-10.53 29.31-24 29.31s-24-12.85-24-29.31V368h-16v114.69c0 16.46-10.53 29.31-24 29.31s-24-12.85-24-29.31V368h-29a15.998 15.998 0 0 1-15.32-20.6l43.73-145.79a8 8 0 0 0 .17-1.61 8.001 8.001 0 0 0-15.53-2.62l-2.17 7.23-25.58 85.25a20 20 0 0 1-25.6 13.18c-10.27-3.48-15.69-14.75-12.57-25.14l10.37-34.41v-.11l22.46-74.86h.06l2.51-8.45c5.65-19.034 23.145-32.086 43-32.08h120c19.852.004 37.341 13.052 43 32.08l2.51 8.45h.05l22.46 74.86z" clip-rule="evenodd"/></svg>