<svg width="90" height="40" viewBox="0 0 90 40" fill="none" xmlns="http://www.w3.org/2000/svg">
<path fill-rule="evenodd" clip-rule="evenodd" d="M10.2208 38.7346C10.4486 39.1213 10.7465 39.42 11.132 39.6485C11.5176 39.877 11.9206 39.9824 12.4113 40C12.8493 40 13.2524 39.8945 13.6204 39.6661C13.9708 39.4376 14.2512 39.1388 14.4615 38.7522C14.6542 38.3655 14.7594 37.9438 14.7594 37.4868C14.7594 37.4165 14.7243 37.3638 14.6718 37.3286C14.6017 37.2935 14.5141 37.2759 14.4089 37.2759H12.937C12.9019 37.2759 12.8844 37.2759 12.8493 37.3111C12.8318 37.3286 12.8143 37.3638 12.8143 37.3989V37.9086C12.8143 37.9438 12.8318 37.9789 12.8493 37.9965C12.8669 38.0141 12.9019 38.0316 12.937 38.0316H13.8307C13.708 38.348 13.5152 38.594 13.2699 38.7873C13.0246 38.9807 12.7267 39.0685 12.3937 39.0685C12.0958 39.0685 11.833 38.9982 11.5877 38.8576C11.3248 38.6995 11.132 38.5061 10.9919 38.2601C10.8517 38.0141 10.7816 37.7329 10.7816 37.4517C10.7816 37.1529 10.8342 36.9068 10.9919 36.6432C11.1496 36.3796 11.3423 36.1863 11.5877 36.0457C11.833 35.9051 12.1134 35.8348 12.3937 35.8348H12.569C12.6566 35.8348 12.6916 35.7996 12.7092 35.7293L12.8143 35.1318C12.8318 35.0967 12.8143 35.0615 12.7968 35.0264C12.7792 34.9912 12.7442 34.9736 12.7092 34.9736C12.604 34.9561 12.4989 34.9561 12.3938 34.9561H12.3937C11.9381 34.9561 11.5176 35.0615 11.132 35.29C10.7465 35.5184 10.4486 35.8172 10.2208 36.2039C9.99303 36.5905 9.88789 37.0123 9.88789 37.4692C9.88789 37.9262 9.99303 38.348 10.2208 38.7346ZM6.57594 39.7892C6.57594 39.8068 6.59346 39.8419 6.62851 39.8595C6.63435 39.8653 6.64214 39.8712 6.64993 39.8771C6.6655 39.8888 6.68108 39.9005 6.68108 39.9122H7.38201C7.43458 39.9122 7.46963 39.8771 7.46963 39.8243V39.8068L6.20795 35.167C6.20264 35.1617 6.19734 35.1548 6.19155 35.1472C6.17821 35.1298 6.16229 35.109 6.13785 35.0967C6.12846 35.092 6.12033 35.0873 6.11278 35.0829C6.09216 35.071 6.07589 35.0616 6.05024 35.0616H4.57827C4.55262 35.0616 4.53635 35.071 4.51573 35.0829C4.50818 35.0873 4.50005 35.092 4.49066 35.0967L4.49065 35.0967C4.47313 35.1143 4.45561 35.1319 4.43808 35.167L4 36.7663C4 36.8015 4 36.8191 4.01752 36.8542C4.03505 36.8894 4.05257 36.9069 4.08762 36.9069L4.73598 37.0651C4.77103 37.0827 4.80608 37.0827 4.8236 37.0651C4.84112 37.0475 4.85865 37.0299 4.87617 36.9948L5.13902 36.0633C5.15654 36.0282 5.17406 36.0106 5.2091 35.9755L5.20911 35.9755L5.20912 35.9755L5.20913 35.9755C5.24417 35.9579 5.27921 35.9403 5.31425 35.9403H5.36682C5.41939 35.9403 5.45443 35.9579 5.48948 35.9755L5.48949 35.9755C5.52453 35.993 5.54206 36.0282 5.55958 36.0633L5.9451 37.4693C5.96262 37.5045 5.9451 37.5396 5.92757 37.5748C5.89253 37.6099 5.85748 37.6275 5.82243 37.6275H4.99883C4.96379 37.6275 4.92874 37.6451 4.91122 37.6626C4.89369 37.6802 4.87617 37.6978 4.87617 37.7329V38.2602C4.87617 38.2778 4.89369 38.3129 4.91122 38.3305C4.92061 38.3352 4.92874 38.3399 4.93629 38.3443C4.95691 38.3562 4.97318 38.3656 4.99883 38.3656H6.03271H6.03273C6.08529 38.3656 6.12033 38.3656 6.15538 38.4008C6.19042 38.4359 6.20794 38.4711 6.22546 38.5062L6.22547 38.5062L6.57594 39.7892ZM17.6155 39.8594C17.598 39.8418 17.5804 39.8067 17.5804 39.7716V35.1845C17.5804 35.1588 17.5898 35.1425 17.6017 35.1218C17.6061 35.1142 17.6108 35.1061 17.6155 35.0967C17.633 35.0791 17.6681 35.0615 17.7031 35.0615H19.14C19.4204 35.0615 19.6833 35.1318 19.9286 35.2724C20.1739 35.413 20.3667 35.5888 20.5068 35.8348C20.647 36.0633 20.7171 36.3269 20.7171 36.6081C20.7171 36.8541 20.6646 37.065 20.5594 37.2759C20.4543 37.4868 20.2966 37.6626 20.1038 37.8208C20.0688 37.8383 20.0688 37.8735 20.0688 37.9086V37.9438V37.9614L20.8748 39.754C20.8924 39.7891 20.8924 39.8243 20.8924 39.8418C20.8924 39.8946 20.8573 39.9121 20.8047 39.9121H20.1914C20.1389 39.9121 20.1038 39.9121 20.0863 39.8946C20.081 39.8892 20.0741 39.8839 20.0665 39.8781C20.0491 39.8647 20.0284 39.8488 20.0162 39.8243L19.2977 38.2074C19.2802 38.1723 19.2627 38.1547 19.2452 38.1547C19.2276 38.1371 19.1751 38.1371 19.105 38.1371H18.5618C18.4917 38.1371 18.4391 38.1547 18.4216 38.1723C18.404 38.1898 18.3865 38.225 18.3865 38.2777V39.7891C18.3865 39.8149 18.3771 39.8312 18.3652 39.8519C18.3609 39.8594 18.3562 39.8676 18.3515 39.877C18.334 39.8946 18.2989 39.9121 18.2639 39.9121H17.7206C17.711 39.9089 17.7025 39.9063 17.6949 39.9039C17.661 39.8934 17.6441 39.8881 17.6155 39.8594ZM19.1575 37.2408C19.3328 37.2408 19.4905 37.1705 19.6132 37.0475C19.7358 36.9244 19.8059 36.7663 19.8059 36.5905C19.8059 36.4148 19.7358 36.2566 19.6132 36.1336C19.4905 36.0106 19.3328 35.9403 19.1575 35.9403H18.5092C18.4216 35.9403 18.3865 35.993 18.3865 36.0809V37.1178C18.3865 37.1435 18.3959 37.1598 18.4078 37.1805C18.4122 37.1881 18.4169 37.1962 18.4216 37.2056C18.4391 37.2232 18.4566 37.2408 18.4917 37.2408H19.1575ZM23.7136 38.2952C23.8187 38.594 23.9764 38.8752 24.2042 39.1388C24.4145 39.3848 24.6949 39.5957 25.0103 39.7188C25.3257 39.8594 25.6587 39.9297 26.0091 39.9297C26.4122 39.9297 26.7977 39.8418 27.1482 39.666C27.3409 39.5606 27.4986 39.4551 27.6388 39.3321C27.7615 39.2091 27.8841 39.0685 28.0068 38.9103C28.1645 38.6994 28.2872 38.471 28.3573 38.2249C28.4449 37.9789 28.4799 37.7328 28.4799 37.4692C28.4799 37.0298 28.3748 36.608 28.1645 36.239C28.0769 36.0456 27.9192 35.8523 27.7089 35.659C27.4986 35.4657 27.2708 35.3251 27.043 35.2196C26.675 35.0615 26.307 34.9912 25.9215 35.0087H25.904C25.501 35.0263 25.1855 35.1142 24.9227 35.2548C24.6598 35.413 24.397 35.6239 24.1517 35.8875C23.9589 36.1159 23.8012 36.362 23.7136 36.6432C23.626 36.9244 23.5734 37.2056 23.5734 37.4868C23.5734 37.7504 23.6084 38.014 23.6961 38.2601L23.7136 38.2952ZM27.4461 38.1195C27.3935 38.2425 27.3059 38.3831 27.1832 38.5237C27.0605 38.6643 26.9204 38.7873 26.7276 38.8928C26.5173 38.9982 26.272 39.0509 26.0267 39.0509C25.6411 39.0509 25.3082 38.9279 25.0103 38.6819C24.8176 38.5237 24.6774 38.3479 24.5897 38.137C24.5021 37.9261 24.4496 37.6977 24.4496 37.4692C24.4496 37.2759 24.4671 37.1001 24.5372 36.9244C24.6073 36.7486 24.6949 36.5905 24.8176 36.4323L24.9402 36.3093C25.0804 36.1687 25.2381 36.0632 25.4309 35.9929C25.6061 35.9226 25.7989 35.8875 26.0091 35.8875C26.2369 35.8875 26.4472 35.9402 26.6575 36.0281C26.9554 36.1687 27.1832 36.362 27.3409 36.6256C27.4986 36.8892 27.5862 37.1704 27.5862 37.4692C27.5862 37.6977 27.5337 37.9086 27.4461 38.1195Z" fill="#78C930"/>
<path fill-rule="evenodd" clip-rule="evenodd" d="M42.5513 38.2952C42.6565 38.594 42.8142 38.8752 43.042 39.1388C43.2698 39.3848 43.5326 39.5957 43.8481 39.7188C44.1635 39.8594 44.4964 39.9297 44.8469 39.9297C45.2499 39.9297 45.6354 39.8418 45.9859 39.666C46.1787 39.5606 46.3364 39.4551 46.4766 39.3321C46.5992 39.2091 46.7219 39.0685 46.8446 38.9103C47.0023 38.6994 47.1249 38.471 47.195 38.2249C47.2826 37.9789 47.3177 37.7328 47.3177 37.4692C47.3177 37.0298 47.2126 36.608 47.0023 36.239C46.9147 36.0456 46.7569 35.8523 46.5467 35.659C46.3364 35.4657 46.1086 35.3251 45.8808 35.2196C45.5128 35.0615 45.1448 34.9912 44.7593 35.0087H44.7418C44.3387 35.0263 44.0233 35.1142 43.7604 35.2548C43.4976 35.413 43.2347 35.6239 42.9894 35.8875C42.7967 36.1159 42.639 36.362 42.5513 36.6432C42.4637 36.9244 42.4111 37.2056 42.4111 37.4868C42.4111 37.7504 42.4462 38.014 42.5338 38.2601L42.5513 38.2952ZM46.3013 38.1195C46.2488 38.2425 46.1611 38.3831 46.0385 38.5237C45.9158 38.6643 45.7581 38.7873 45.5829 38.8928C45.3726 38.9982 45.1273 39.0509 44.8819 39.0509C44.4964 39.0509 44.1635 38.9279 43.8656 38.6819C43.6728 38.5237 43.5326 38.3479 43.445 38.137C43.3574 37.9261 43.3048 37.6977 43.3048 37.4692C43.3048 37.2759 43.3224 37.1001 43.3925 36.9244C43.4625 36.7486 43.5502 36.5905 43.6728 36.4323L43.7955 36.3093C43.9357 36.1687 44.0934 36.0632 44.2861 35.9929C44.4614 35.9226 44.6541 35.8875 44.8644 35.8875C45.0922 35.8875 45.3025 35.9402 45.5128 36.0281C45.8107 36.1687 46.0385 36.362 46.1962 36.6256C46.3539 36.8892 46.4415 37.1704 46.4415 37.4692C46.4415 37.6977 46.389 37.9086 46.3013 38.1195ZM36.2079 39.3146C36.3656 39.4552 36.6285 39.5782 36.9965 39.7012C37.3644 39.8243 37.7324 39.877 38.1004 39.877C38.4158 39.877 38.6962 39.8242 38.9416 39.7188C39.1869 39.6133 39.3796 39.4728 39.5198 39.2794C39.66 39.0861 39.7301 38.8752 39.7301 38.6116C39.7301 38.471 39.7126 38.3128 39.6425 38.1546C39.5899 37.9965 39.5023 37.8735 39.4147 37.7856C39.3271 37.6801 39.2219 37.5923 39.0817 37.522C38.9591 37.4517 38.7838 37.3814 38.556 37.2935C38.3633 37.2232 38.1705 37.1529 38.0128 37.0826C37.8551 37.0123 37.6974 36.9244 37.5572 36.819C37.4345 36.7311 37.3644 36.6081 37.3644 36.4851C37.3644 36.3972 37.382 36.3269 37.4521 36.239C37.5222 36.1511 37.6098 36.0808 37.7324 36.0281C37.8901 35.9754 38.0479 35.9578 38.188 35.9578C38.3107 35.9578 38.4859 35.9754 38.6962 36.0281C38.8014 36.0457 38.924 36.0808 39.0642 36.1511C39.1694 36.2039 39.2394 36.239 39.292 36.239C39.3271 36.239 39.3446 36.2214 39.3621 36.2039L39.3621 36.2039C39.3796 36.1687 39.4322 36.0984 39.5198 35.993C39.5899 35.8875 39.6425 35.7996 39.6775 35.7293C39.7126 35.6063 39.5549 35.4481 39.2044 35.2724C38.8715 35.1494 38.5385 35.0791 38.188 35.0791H37.9953C37.6799 35.1142 37.3995 35.2021 37.1717 35.3251C36.9264 35.4657 36.7511 35.6239 36.6285 35.8172C36.5058 36.0105 36.4357 36.239 36.4357 36.4675C36.4357 36.5905 36.4532 36.7487 36.5058 36.9068C36.5759 37.1353 36.7161 37.3286 36.9264 37.4868C37.1191 37.645 37.417 37.7856 37.785 37.891C37.8726 37.9262 37.9427 37.9438 37.9602 37.9438C38.153 37.9965 38.3282 38.0492 38.4509 38.1019C38.5736 38.1547 38.6787 38.225 38.7313 38.2953C38.8189 38.4183 38.8715 38.5413 38.8715 38.6467C38.8715 38.7698 38.8014 38.8752 38.6612 38.9631C38.521 39.051 38.3282 39.0861 38.1004 39.0861C37.8551 39.0861 37.6273 39.051 37.417 39.0158C37.2067 38.9631 36.9439 38.8576 36.6109 38.6995C36.5759 38.6819 36.5584 38.6819 36.5408 38.6819C36.4883 38.6819 36.4532 38.6995 36.4182 38.7522C36.3947 38.7852 36.3725 38.8156 36.3519 38.8439C36.2955 38.921 36.2511 38.9819 36.2254 39.0334C36.1904 39.1037 36.1729 39.1564 36.1729 39.2091C36.1729 39.2443 36.1729 39.2794 36.2079 39.3146ZM50.2091 39.8593C50.1916 39.8417 50.174 39.8066 50.174 39.7714V35.1844C50.174 35.1493 50.1916 35.1141 50.2091 35.0966C50.2266 35.079 50.2617 35.0614 50.2967 35.0614H53.1705C53.2056 35.0614 53.2406 35.079 53.2582 35.0966C53.2757 35.1141 53.2932 35.1493 53.2932 35.1844V35.7644C53.2932 35.7901 53.2838 35.8064 53.2719 35.8271L53.2719 35.8271L53.2719 35.8272L53.2719 35.8272L53.2718 35.8273L53.2718 35.8273C53.2675 35.8349 53.2628 35.8429 53.2582 35.8523C53.2406 35.8698 53.2056 35.8874 53.1705 35.8874H51.278C51.2255 35.8874 51.1904 35.905 51.1554 35.9401C51.1203 35.9753 51.1028 36.0104 51.1028 36.0632V36.8892C51.1028 36.9419 51.1203 36.977 51.1554 37.0122C51.1904 37.0473 51.2255 37.0649 51.278 37.0649H52.5572C52.6098 37.0649 52.6448 37.0825 52.6799 37.1176C52.7149 37.1528 52.7325 37.1879 52.7325 37.2407V37.7855C52.7325 37.8382 52.7149 37.8734 52.6799 37.9085C52.6448 37.9437 52.6098 37.9612 52.5572 37.9612H51.2255C51.1998 37.9612 51.1835 37.9706 51.1629 37.9826C51.1554 37.987 51.1472 37.9917 51.1378 37.9964C51.1028 38.014 51.1028 38.0491 51.1028 38.0843V39.7539C51.1028 39.7796 51.0934 39.7959 51.0815 39.8166C51.0771 39.8241 51.0724 39.8323 51.0677 39.8417C51.0502 39.8593 51.0152 39.8769 50.9801 39.8769H50.2967C50.2617 39.8945 50.2266 39.8945 50.2091 39.8593ZM57.6565 39.7891C57.6565 39.8243 57.6565 39.8419 57.674 39.8594C57.6915 39.877 57.7091 39.8946 57.7266 39.9649H58.5502C58.5852 39.9649 58.6028 39.9473 58.6203 39.9297C58.6378 39.8946 58.6378 39.877 58.6378 39.8594V36.116C58.6378 36.0633 58.6553 36.0281 58.6904 35.993C58.7254 35.9578 58.7605 35.9403 58.813 35.9403H59.9345C59.9696 35.9403 59.9871 35.9227 60.0046 35.9051C60.0113 35.8917 60.018 35.8808 60.0237 35.8715C60.033 35.8565 60.0397 35.8457 60.0397 35.8348V35.1846C60.0397 35.1494 60.0222 35.1318 60.0046 35.1143L60.0046 35.1143L60.0046 35.1142C59.9871 35.0967 59.9696 35.0791 59.9345 35.0791H56.3072C56.2897 35.0791 56.2722 35.0791 56.2546 35.0967C56.2371 35.1143 56.2371 35.1318 56.2371 35.1494V35.8172C56.2371 35.8348 56.2546 35.8524 56.2722 35.87L56.2722 35.87C56.2897 35.8875 56.3072 35.9051 56.3247 35.9051H57.4813C57.5194 35.9051 57.5483 35.9236 57.5747 35.9405C57.5847 35.9468 57.5943 35.953 57.6039 35.9578C57.639 35.9754 57.6565 36.0281 57.6565 36.0633V39.7891ZM63.9297 39.877C63.9122 39.8594 63.8947 39.8418 63.8947 39.8067L63.001 35.2197V35.167C63.001 35.0967 63.0185 35.0791 63.0711 35.0791H63.772C63.8421 35.0791 63.8772 35.1143 63.8947 35.167L64.4379 38.2426C64.4437 38.2601 64.4476 38.2757 64.4509 38.2888C64.4574 38.3148 64.4613 38.3304 64.4729 38.3304C64.4824 38.3304 64.4868 38.3202 64.4943 38.3024C64.5007 38.2873 64.5094 38.2668 64.5255 38.2426L64.5384 38.2027L64.5384 38.2026L64.5384 38.2025C64.5636 38.1235 64.6144 37.9637 64.7008 37.7329L64.7534 37.5835C64.8355 37.3506 64.9055 37.1519 64.9636 36.9772L65.0337 36.8014L65.0337 36.8014C65.0512 36.7663 65.0687 36.7311 65.0863 36.7136C65.1038 36.696 65.1388 36.6784 65.1914 36.6784H65.8748C65.98 36.6784 66.0501 36.7136 66.0676 36.8014C66.3655 37.6099 66.5407 38.102 66.5933 38.2601C66.6108 38.3304 66.6283 38.348 66.6459 38.348C66.6634 38.348 66.6809 38.3128 66.6809 38.2426C66.711 38.0312 66.7526 37.7679 66.8024 37.4528L66.8026 37.4517L66.8026 37.4516L66.8027 37.4511L66.8029 37.4497C66.8399 37.2154 66.8815 36.9524 66.9262 36.6608C66.9619 36.428 66.9936 36.2174 67.0219 36.0292L67.0221 36.0283C67.077 35.6629 67.1193 35.3817 67.154 35.1846C67.154 35.1494 67.1715 35.1318 67.1891 35.1143C67.2066 35.0967 67.2416 35.0967 67.2767 35.0967H67.9776C68.0127 35.0967 68.0302 35.1142 68.0477 35.1494C68.0652 35.1845 68.0652 35.2197 68.0477 35.2548L67.2241 39.8419C67.2066 39.8946 67.1715 39.9297 67.1015 39.9297H66.3479C66.3129 39.9297 66.2779 39.9297 66.2603 39.9121C66.2428 39.8946 66.2253 39.877 66.2253 39.8419C66.1552 39.6661 66.0325 39.3146 65.8573 38.8049C65.7145 38.3896 65.6299 38.126 65.594 38.0141L65.5939 38.0141L65.5769 37.9614C65.5729 37.9491 65.5697 37.9387 65.5671 37.9301C65.5585 37.9014 65.5553 37.8911 65.5419 37.8911C65.5284 37.8911 65.5253 37.9014 65.5166 37.9301C65.514 37.9387 65.5109 37.9491 65.5068 37.9614C65.5068 37.9965 65.4192 38.2601 65.2265 38.7874C65.1822 38.916 65.1414 39.0356 65.1038 39.1455C64.9927 39.471 64.9109 39.7105 64.8585 39.8419C64.8409 39.8946 64.8059 39.9297 64.7358 39.9297H63.9998C63.9888 39.9077 63.9709 39.8994 63.9548 39.892C63.9452 39.8877 63.9362 39.8835 63.9297 39.877ZM70.4484 39.8066C70.4484 39.8417 70.4484 39.8593 70.4659 39.8769C70.4747 39.8857 70.4835 39.8901 70.4922 39.8945C70.501 39.8988 70.5097 39.9032 70.5185 39.912H71.1844C71.21 39.912 71.2263 39.9026 71.2469 39.8907C71.2545 39.8863 71.2626 39.8816 71.272 39.8769L71.272 39.8769C71.3071 39.8417 71.3246 39.8241 71.3246 39.789L71.6575 38.506C71.675 38.4709 71.6926 38.4357 71.7276 38.4006C71.7627 38.383 71.8152 38.3655 71.8503 38.3655H73.182C73.2346 38.3655 73.2697 38.3654 73.3047 38.4006C73.3397 38.4357 73.3573 38.4709 73.3748 38.506L73.3748 38.506L73.7078 39.789C73.7078 39.8066 73.7253 39.8417 73.7603 39.8593C73.7697 39.864 73.7778 39.8687 73.7854 39.8731C73.806 39.885 73.8223 39.8944 73.8479 39.8944H74.5138C74.5664 39.8944 74.5839 39.8769 74.5839 39.8242V39.8066L73.3748 35.1669C73.3748 35.1317 73.3573 35.1141 73.3222 35.0966C73.3128 35.0918 73.3047 35.0871 73.2972 35.0828V35.0828C73.2765 35.0708 73.2603 35.0614 73.2346 35.0614H71.7977C71.7627 35.0614 71.7276 35.079 71.7101 35.0966C71.6926 35.1141 71.675 35.1317 71.6575 35.1669L70.4484 39.8066ZM73.0769 37.5746C73.0594 37.6097 73.0243 37.6273 72.9718 37.6273H72.0255C71.9905 37.6273 71.9554 37.6097 71.9379 37.5922C71.9204 37.5746 71.9028 37.5394 71.9028 37.5043V37.4691L72.2884 36.0456C72.3059 36.0104 72.3234 35.9929 72.3584 35.9577C72.3935 35.9401 72.4461 35.9226 72.4811 35.9226H72.5162C72.5687 35.9226 72.6038 35.9226 72.6388 35.9577C72.6914 35.9753 72.7089 36.0104 72.7089 36.0456L73.0944 37.4691C73.112 37.5043 73.0944 37.5394 73.0769 37.5746ZM77.5278 39.8593C77.5102 39.8417 77.4927 39.8066 77.4927 39.7714V35.1844C77.4927 35.1587 77.5021 35.1424 77.514 35.1217V35.1217C77.5184 35.1141 77.5231 35.106 77.5278 35.0966C77.5453 35.0614 77.5803 35.0614 77.6154 35.0614H79.0523C79.3327 35.0614 79.5955 35.1317 79.8409 35.2723C80.0862 35.4129 80.2789 35.5886 80.4191 35.8347C80.5593 36.0632 80.6294 36.3268 80.6294 36.608C80.6294 36.854 80.5768 37.0649 80.4717 37.2758C80.3666 37.4867 80.2088 37.6625 80.0161 37.8206C79.981 37.8382 79.981 37.8734 79.981 37.9085V37.9437V37.9612L80.7871 39.7539C80.8046 39.789 80.8046 39.8242 80.8046 39.8417C80.8046 39.8944 80.7696 39.912 80.717 39.912H80.1037C80.0511 39.912 80.0161 39.912 79.9986 39.8944C79.9933 39.8891 79.9863 39.8838 79.9788 39.878C79.9614 39.8646 79.9407 39.8487 79.9285 39.8242L79.21 38.2073C79.1925 38.1721 79.175 38.1546 79.1574 38.1546C79.1399 38.137 79.0873 38.137 79.0173 38.137H78.474C78.4039 38.137 78.3514 38.1546 78.3338 38.1721C78.3163 38.1897 78.2988 38.2249 78.2988 38.2776V39.789C78.2988 39.8147 78.2894 39.831 78.2775 39.8517C78.2731 39.8593 78.2684 39.8675 78.2637 39.8769C78.2462 39.8945 78.2112 39.912 78.1761 39.912H77.6329C77.6202 39.9078 77.6085 39.9046 77.5979 39.9016C77.5644 39.8924 77.541 39.886 77.5278 39.8593ZM79.0523 37.2407C79.2275 37.2407 79.3852 37.1704 79.5079 37.0473C79.6306 36.9243 79.7007 36.7662 79.7007 36.5904C79.7007 36.4147 79.6306 36.2565 79.5079 36.1335C79.3852 36.0104 79.2275 35.9401 79.0523 35.9401H78.4039C78.3163 35.9401 78.2813 35.9929 78.2813 36.0807V37.1176C78.2813 37.1434 78.2907 37.1597 78.3026 37.1804L78.3026 37.1804C78.3069 37.188 78.3116 37.1961 78.3163 37.2055C78.3338 37.2231 78.3514 37.2407 78.3864 37.2407H79.0523ZM83.7663 39.754C83.7663 39.7891 83.7838 39.8243 83.8014 39.8419C83.8101 39.8506 83.8233 39.8594 83.8364 39.8682C83.8496 39.877 83.8627 39.8858 83.8715 39.8946H87.0082C87.0432 39.8946 87.0783 39.877 87.0958 39.8594C87.1005 39.85 87.1052 39.8419 87.1095 39.8343C87.1214 39.8136 87.1308 39.7973 87.1308 39.7716V39.1916C87.1308 39.1564 87.1133 39.1213 87.0958 39.1037C87.0864 39.099 87.0783 39.0943 87.0707 39.0899C87.0501 39.078 87.0338 39.0686 87.0082 39.0686H84.8002C84.7126 39.0686 84.66 39.051 84.6425 39.0158C84.625 38.9807 84.6075 38.9455 84.6075 38.8928V38.1547C84.6075 38.1195 84.625 38.0844 84.6425 38.0492C84.66 38.0141 84.7126 37.9965 84.7652 37.9965H86.5C86.535 37.9965 86.5701 37.9789 86.5876 37.9614C86.5923 37.9519 86.597 37.9438 86.6013 37.9362C86.6133 37.9155 86.6226 37.8992 86.6226 37.8735V37.2935C86.6226 37.2584 86.6051 37.2232 86.5876 37.2056C86.5782 37.2009 86.5701 37.1962 86.5625 37.1918C86.5419 37.1799 86.5256 37.1705 86.5 37.1705H84.7827H84.7826C84.7301 37.1705 84.6775 37.1705 84.66 37.1529C84.6425 37.1353 84.625 37.1002 84.625 37.065V37.0475V36.0281C84.625 35.993 84.6425 35.9578 84.66 35.9403C84.6694 35.9356 84.6775 35.9308 84.6851 35.9265C84.7057 35.9145 84.722 35.9051 84.7476 35.9051H86.9731C87.0082 35.9051 87.0432 35.8875 87.0607 35.87C87.0654 35.8605 87.0701 35.8524 87.0745 35.8448C87.0864 35.8241 87.0958 35.8078 87.0958 35.7821V35.2021C87.0958 35.167 87.0783 35.1318 87.0607 35.1143C87.0432 35.0967 87.0082 35.0791 86.9731 35.0791H83.889C83.8539 35.0791 83.8189 35.0967 83.8014 35.1143C83.7838 35.1318 83.7663 35.167 83.7663 35.2021V39.754Z" fill="#0050A0"/>
<path fill-rule="evenodd" clip-rule="evenodd" d="M82.2197 5.57118C80.8178 4.93849 79.3459 4.62215 77.8038 4.62215C75.8237 4.62215 73.9662 5.13181 72.319 6.16872C70.6367 7.17048 69.2875 8.55888 68.3061 10.2812C67.3248 12.0035 66.8167 13.9016 66.8167 15.9227C66.8167 17.9438 67.3248 19.8419 68.3061 21.5642C69.2875 23.2865 70.6367 24.6749 72.319 25.6767C74.0012 26.696 75.8587 27.2057 77.8389 27.2057C79.3108 27.2057 80.7127 26.9245 82.027 26.3621C83.3412 25.7997 84.5153 25.0088 85.5316 23.9895C85.7069 23.8313 85.8646 23.761 86.0398 23.761C86.2326 23.761 86.2851 23.8137 86.3027 23.8313L86.3202 23.8489L86.3377 23.8665L87.1964 24.6046L89.0188 26.2566L89.0363 26.2742L89.0538 26.2918C89.2115 26.3972 89.2816 26.5378 89.2816 26.7311C89.2816 26.8014 89.2641 26.8542 89.2115 26.9069C87.7746 28.471 86.0573 29.7188 84.0947 30.58C82.1321 31.4587 80.0293 31.8981 77.8213 31.8981C74.9826 31.8981 72.354 31.1951 69.9709 29.7716C67.5877 28.3656 65.6776 26.4148 64.2758 23.9719C64.195 23.8505 64.1246 23.7187 64.0487 23.5765C64.0258 23.5335 64.0023 23.4896 63.9779 23.4447L63.5223 22.5835L63.0491 23.4271L62.9966 23.515C62.979 23.5413 62.9659 23.5677 62.9527 23.594C62.9396 23.6204 62.9265 23.6468 62.9089 23.6731C61.5246 26.0282 59.6321 27.9262 57.2839 29.3146C54.9358 30.703 52.3248 31.406 49.5386 31.406H45.8236C45.6834 31.406 45.5783 31.3533 45.4732 31.2654C45.3855 31.1775 45.3505 31.0897 45.3505 30.9666V28.9983V26.9596C45.3505 26.8366 45.368 26.7487 45.4206 26.6784C45.4381 26.6433 45.4556 26.6257 45.4732 26.6081L45.4732 26.6081C45.4907 26.5905 45.5082 26.573 45.5433 26.5554C45.5541 26.5445 45.5649 26.5404 45.5799 26.5347C45.5891 26.5311 45.6 26.527 45.6133 26.5202C45.6234 26.5101 45.6277 26.5058 45.6329 26.504C45.6367 26.5027 45.641 26.5027 45.6484 26.5027C45.6604 26.4997 45.6719 26.4966 45.6831 26.4937C45.737 26.4796 45.7831 26.4675 45.8412 26.4675H49.5561C51.4837 26.4675 53.2711 25.993 54.8657 25.044C56.4603 24.1125 57.7395 22.812 58.6858 21.2127C59.6321 19.5958 60.1052 17.8208 60.1052 15.8875C60.1052 13.9543 59.6321 12.1793 58.6858 10.5624C57.7571 8.9631 56.4603 7.68015 54.8657 6.73112C54.6554 6.60809 54.4276 6.48507 54.1823 6.36205C52.7629 5.65906 51.2033 5.30756 49.5561 5.30756H45.8412C45.5608 5.30756 45.2979 5.41301 45.0876 5.62391C44.8774 5.81723 44.7722 6.08085 44.7722 6.37962V9.19158C44.7722 9.3146 44.7372 9.40247 44.6496 9.49035C44.5444 9.59579 44.4393 9.63094 44.2991 9.63094H40.8119H40.3388L40.2862 10.1055C40.1636 11.4587 39.708 12.7768 38.9369 14.007L38.639 14.4816L39.1297 14.7452C40.5666 15.5536 41.7056 16.6608 42.5468 18.0668C43.1426 19.0686 43.5281 20.1406 43.7033 21.2478C43.7734 21.6872 43.8084 22.1266 43.8084 22.5835C43.8084 24.2004 43.4054 25.6942 42.6168 27.0475C42.2839 27.6099 41.8984 28.1547 41.4428 28.6292C40.8295 29.2795 40.1285 29.8243 39.3575 30.2812C37.9907 31.0721 36.4837 31.4763 34.8715 31.4763H27.5117V27.1529H34.8715C36.1157 27.1529 37.1846 26.696 38.0257 25.7997C38.8668 24.9034 39.2874 23.8137 39.2874 22.5835C39.2874 21.3357 38.8493 20.2636 37.9907 19.4201C37.132 18.5589 36.0806 18.1371 34.8715 18.1371H29.1589V13.6204H31.5245C32.6986 13.6204 33.7325 13.181 34.5736 12.3199C35.4323 11.4587 35.8528 10.4218 35.8528 9.2443C35.8528 8.03164 35.4147 6.97716 34.5561 6.116C33.6974 5.25484 32.646 4.81547 31.4369 4.81547H28.1425C27.5818 4.81547 27.0736 5.00879 26.653 5.41301C26.215 5.81723 26.0047 6.30932 26.0047 6.88929V18.4007H22.4299V0.404219H31.472C33.0841 0.404219 34.5736 0.808435 35.9229 1.5993C37.1496 2.31986 38.1484 3.28647 38.9194 4.46398L39.8832 5.95783V4.18278V0.896309C39.8832 0.773286 39.9183 0.667839 40.0234 0.56239C40.1636 0.439367 40.2512 0.421792 40.3213 0.421792H49.5736C52.3599 0.421792 54.9708 1.12478 57.319 2.51318C59.4744 3.77856 61.2442 5.46573 62.576 7.53955C62.7337 7.76802 62.8564 7.96134 62.9615 8.15467C62.9932 8.19708 63.0186 8.24588 63.0452 8.29723C63.0627 8.33099 63.0808 8.36585 63.1017 8.40071L63.1367 8.45344L63.6099 9.29702L64.0655 8.45344C64.1169 8.33746 64.1777 8.23094 64.241 8.12001C64.264 8.07965 64.2874 8.0387 64.3108 7.99649C65.6952 5.55361 67.6227 3.60282 70.0059 2.16169C72.3716 0.720564 75.0176 0 77.8389 0C80.0994 0 82.2548 0.456943 84.2349 1.37083C86.215 2.28471 87.9674 3.55009 89.4043 5.14939C89.4218 5.16697 89.4393 5.18454 89.4393 5.23727C89.4393 5.2955 89.4273 5.30549 89.4132 5.3172C89.4103 5.31963 89.4073 5.32212 89.4043 5.32514L86.1099 8.17224L86.0924 8.18982L86.0749 8.20739C85.9872 8.27769 85.9522 8.27769 85.9347 8.27769C85.9171 8.27769 85.8996 8.27769 85.8821 8.24254L85.8646 8.22497L85.8471 8.20739C84.8307 7.08261 83.6041 6.1863 82.2197 5.57118ZM0.0700925 0.386556H20.0993L20.1344 0.421705C20.1519 0.43928 20.1694 0.456854 20.1694 0.509578V4.78023C20.1694 4.83296 20.1519 4.85053 20.1344 4.86811C20.1168 4.90326 20.0993 4.90326 20.0993 4.90326H11.5304C11.0748 4.90326 10.6893 5.06143 10.3738 5.37777C10.0584 5.69412 9.90071 6.06319 9.90071 6.48498V31.3005V31.3356C9.86567 31.3708 9.84814 31.3708 9.83062 31.3708H4.38085H4.31075V31.3005V6.48498C4.31075 6.04561 4.13552 5.6414 3.8201 5.34263C3.50468 5.04386 3.11916 4.90326 2.68108 4.90326H0.0700925L0.0350462 4.86811C0.0175229 4.85053 0 4.83296 0 4.78023V0.509578C0 0.456854 0.0175229 0.43928 0.0350462 0.421705C0.0525696 0.386555 0.0700925 0.386556 0.0700925 0.386556Z" fill="#0050A0"/>
<path d="M58.0725 10.8963C57.1964 9.40248 55.9873 8.18983 54.4978 7.31109C54.3225 7.20565 54.1298 7.1002 53.9195 6.99475C51.2034 7.80319 48.7676 9.45521 47.0503 11.6696C46.6122 12.232 46.2267 12.812 45.8938 13.4271H48.3295C48.4522 13.4271 48.5398 13.515 48.5398 13.638V18.1371H50.5725C50.6952 18.1371 50.7828 18.225 50.7828 18.348V20.6679C50.7828 20.7909 50.6952 20.8788 50.5725 20.8788H48.3996V22.2848C48.3996 22.4078 48.312 22.4956 48.1893 22.4956H46.6473C46.5246 22.4956 46.437 22.4078 46.437 22.2848V20.7382C46.437 20.6152 46.5246 20.5273 46.6473 20.5273H48.0492V18.6292H44.3342C44.3167 18.9456 44.2991 19.2619 44.2991 19.5958C44.2991 20.1055 44.3342 20.6152 44.3868 21.1248C44.3868 21.16 44.3868 21.1775 44.3868 21.2127C44.4569 21.6696 44.4919 22.1266 44.4919 22.5835C44.4919 24.3234 44.0538 25.9403 43.2127 27.399C42.9323 27.8911 42.5819 28.3656 42.2139 28.805H44.6496V26.9245C44.6496 26.6609 44.7197 26.4324 44.8424 26.2391C44.8949 26.1688 44.9475 26.116 45.0001 26.0633C45.0527 26.0106 45.1052 25.9754 45.1753 25.9227C45.2279 25.8876 45.2805 25.87 45.333 25.8348C45.3506 25.8348 45.3506 25.8173 45.3681 25.8173C45.5083 25.7645 45.666 25.7294 45.8412 25.7294H49.5562C51.3436 25.7294 53.0083 25.29 54.5153 24.3937C56.0048 23.515 57.2139 22.3023 58.0901 20.8085C58.9662 19.3146 59.4218 17.645 59.4218 15.8348C59.3868 14.0598 58.9487 12.3902 58.0725 10.8963Z" fill="#A1D96E"/>
</svg>
